ply
format ascii 1.0
element vertex 743
property float32 x
property float32 y
property float32 z
property float32 I
end_header
37.8065 16.1973 11.0208 0.8434
28.9231 16.7520 8.9560 0.8707
25.7503 19.3807 8.6357 0.8751
1.9088 5.6732 1.6039 0.9755
1.1767 5.6777 1.5537 0.9763
0.4792 5.6820 1.5279 0.9767
-0.8966 5.6905 1.5436 0.9764
-1.6160 5.6949 1.5862 0.9758
-2.3876 5.6996 1.6558 0.9747
-4.2184 5.6999 1.9001 0.9711
-24.3534 20.2333 8.4838 0.8771
-30.6413 19.7720 9.7712 0.8598
-15.4174 -31.0477 9.2884 0.8663
-15.5698 -43.9188 12.4856 0.8245
-10.5315 -46.9897 12.9032 0.8192
43.9151 17.1597 12.6334 0.8226
25.7424 18.1041 8.4327 0.8778
25.2711 22.7585 9.1125 0.8686
3.8502 5.6613 1.8345 0.9720
2.1144 5.6720 1.6220 0.9752
1.3688 5.6766 1.5646 0.9761
-0.0216 5.6851 1.5233 0.9767
-3.0030 5.7034 1.7271 0.9737
-3.9467 5.7092 1.8597 0.9717
-30.5669 0.1302 8.1905 0.8811
-66.8487 -24.8854 19.1129 0.7442
-55.5960 -28.7026 16.7650 0.7717
-19.1632 -27.2221 8.9202 0.8712
-17.1801 -43.9089 12.6339 0.8226
50.6636 -31.5460 13.7787 0.7827
85.6458 14.2039 20.0430 0.7002
37.8066 16.1973 9.4956 0.8446
28.9230 16.7520 7.7166 0.8718
25.8508 19.4563 7.4696 0.8756
5.8794 5.6488 1.8823 0.9671
4.6230 5.6566 1.6866 0.9705
3.5898 5.6629 1.5479 0.9729
1.1767 5.6777 1.3387 0.9765
0.4792 5.6820 1.3165 0.9769
-0.2052 5.6862 1.3136 0.9769
-1.6160 5.6949 1.3667 0.9760
-4.2266 5.7110 1.6403 0.9713
-5.3988 5.7107 1.8143 0.9683
-31.2930 20.1925 8.5981 0.8582
-67.3007 -18.5120 16.1147 0.7509
-61.7388 -25.2796 15.4021 0.7604
-35.9016 -42.5098 12.8459 0.7958
-18.6145 -28.3430 7.8285 0.8701
-15.5555 -31.3258 8.0747 0.8663
24.6373 -45.0148 11.8472 0.8100
50.5616 -33.7935 14.0403 0.7791
21.3521 2.8368 4.9728 0.9154
32.0975 17.2325 8.4107 0.8611
25.8429 18.1748 7.2940 0.8784
3.8502 5.6613 1.5806 0.9723
2.9290 5.6670 1.4727 0.9742
2.1144 5.6720 1.3975 0.9755
0.6643 5.6809 1.3205 0.9768
-0.0216 5.6851 1.3125 0.9769
-2.1738 5.6983 1.4080 0.9753
-3.0030 5.7034 1.4881 0.9739
-3.9467 5.7092 1.6024 0.9719
-5.0649 5.7161 1.7632 0.9691
-22.8175 20.2364 7.0411 0.8823
-28.5553 19.7591 8.0169 0.8671
-30.6444 0.1305 7.0749 0.8818
-71.4847 -36.9055 18.5732 0.7187
-17.0673 -31.7554 8.3231 0.8624
-17.5168 -44.7693 11.0988 0.8209
50.5637 -31.4838 11.5781 0.7845
58.9724 -27.5257 12.6503 0.7671
63.5341 10.5368 12.5185 0.7692
50.8486 14.8731 10.2981 0.8058
3.5898 5.6629 1.3033 0.9730
1.9088 5.6732 1.1635 0.9759
-0.2052 5.6862 1.1060 0.9771
-0.8966 5.6905 1.1198 0.9768
-1.6160 5.6949 1.1507 0.9762
-2.3876 5.6996 1.2012 0.9751
-5.3988 5.7107 1.5276 0.9685
-8.5568 2.9560 1.7597 0.9638
-66.4957 -18.2907 13.4055 0.7550
-71.3122 -66.3366 18.9319 0.6724
-15.5585 -31.3319 6.7999 0.8671
-11.3409 -50.6009 10.0798 0.8095
14.6732 -55.0779 11.0795 0.7927
16.9851 -42.4550 8.8883 0.8300
23.9720 -43.7992 9.7054 0.8159
40.6897 -56.8766 13.5936 0.7520
42.8831 -46.8517 12.3459 0.7720
54.2701 -27.4968 11.8258 0.7804
51.2885 13.2215 10.2954 0.8059
43.9151 17.1597 9.1648 0.8252
6.2698 5.6464 1.6401 0.9662
3.8502 5.6613 1.3308 0.9725
1.3688 5.6766 1.1350 0.9765
0.6643 5.6809 1.1118 0.9770
-0.0216 5.6851 1.1051 0.9771
-0.7092 5.6893 1.1145 0.9769
-2.1738 5.6983 1.1855 0.9755
-3.0030 5.7034 1.2529 0.9741
-3.9467 5.7092 1.3491 0.9721
-5.0649 5.7161 1.4845 0.9694
-8.2894 5.7359 1.9594 0.9598
-27.5160 -3.2049 5.3847 0.8933
-61.4050 -31.7016 13.4327 0.7546
-24.3340 -34.5674 8.2171 0.8418
-10.3058 -19.1750 4.2315 0.9151
-14.3405 -36.6514 7.6502 0.8518
50.9579 -40.9656 10.3556 0.7674
56.1260 -18.3813 9.3541 0.7873
55.0292 -4.1942 8.7411 0.7997
50.8486 14.8731 8.3911 0.8069
37.8066 16.1973 6.5144 0.8466
25.7503 19.3807 5.1045 0.8776
4.6230 5.6566 1.1571 0.9708
0.4792 5.6820 0.9031 0.9772
-0.2052 5.6862 0.9012 0.9772
-0.8966 5.6905 0.9124 0.9769
-1.6160 5.6949 0.9376 0.9763
-2.3876 5.6996 0.9787 0.9753
-3.2431 5.7049 1.0394 0.9738
-5.3988 5.7107 1.2447 0.9687
-6.8936 5.7273 1.4195 0.9644
-8.8949 5.7396 1.6767 0.9580
-8.5561 2.9558 1.4337 0.9640
-70.6557 -65.7259 15.2840 0.6765
-23.9459 -36.4608 6.9089 0.8381
12.1888 -45.7524 7.4992 0.8255
17.3388 -43.3391 7.3932 0.8278
23.9620 -43.7810 7.9049 0.8170
52.6688 -45.2142 10.9941 0.7549
51.0003 -34.0867 9.7157 0.7800
54.5874 -27.6576 9.6922 0.7805
55.0182 -5.9840 8.7654 0.7992
55.0590 0.6538 8.7211 0.8001
21.3723 2.8395 3.4148 0.9164
32.0975 17.2325 5.7701 0.8628
6.2698 5.6464 1.3364 0.9664
4.9341 5.6546 1.1886 0.9701
2.9290 5.6670 1.0104 0.9745
1.3688 5.6766 0.9248 0.9766
0.6643 5.6809 0.9059 0.9771
-0.0216 5.6851 0.9004 0.9772
-15.6066 62.6265 10.2224 0.7700
-2.1738 5.6983 0.9660 0.9756
-3.0030 5.7034 1.0209 0.9742
-3.9467 5.7092 1.0993 0.9723
-5.0649 5.7161 1.2096 0.9695
-6.4548 5.7246 1.3665 0.9657
-8.2894 5.7359 1.5966 0.9600
-10.9124 5.7520 1.9538 0.9513
-89.5115 -33.3220 15.1277 0.6792
-32.9556 -36.5606 7.7959 0.8193
-25.7610 -36.5947 7.0881 0.8342
-18.3297 -34.1043 6.1323 0.8549
44.3747 -45.4467 7.7990 0.7742
50.6292 -31.5245 7.3231 0.7863
54.8974 -25.6237 7.4387 0.7834
71.0291 -23.2620 9.1771 0.7399
55.0699 2.4323 6.7683 0.8008
50.8486 14.8731 6.5050 0.8077
25.8508 19.4564 3.9726 0.8778
2.7016 5.6684 0.7710 0.9750
1.9088 5.6732 0.7350 0.9762
-0.2052 5.6862 0.6986 0.9773
-0.8966 5.6905 0.7073 0.9771
-1.6160 5.6949 0.7269 0.9764
-2.3876 5.6996 0.7588 0.9754
-3.2431 5.7049 0.8057 0.9739
-4.2266 5.7110 0.8724 0.9718
-5.3988 5.7107 0.9649 0.9688
-29.1689 -34.5380 5.5508 0.8334
-17.9943 -36.2372 4.9677 0.8495
-11.3409 -50.6010 6.3671 0.8114
-9.5355 -94.7789 11.6961 0.6812
23.9720 -43.7992 6.1307 0.8177
32.4095 -45.3024 6.8393 0.7989
41.3759 -45.2051 7.5244 0.7812
52.6478 -45.1962 8.5196 0.7561
50.9206 -34.0335 7.5202 0.7813
54.5874 -27.6576 7.5137 0.7814
55.1259 -12.8229 6.9493 0.7961
55.0590 0.6538 6.7609 0.8010
51.2885 13.2215 6.5033 0.8078
43.9151 17.1597 5.7891 0.8270
25.8429 18.1748 3.8793 0.8804
6.2698 5.6464 1.0360 0.9666
4.9341 5.6546 0.9215 0.9702
0.6643 5.6809 0.7023 0.9772
-0.0216 5.6851 0.6980 0.9773
-0.7092 5.6893 0.7040 0.9772
-16.3819 65.7377 8.3184 0.7611
-2.1738 5.6983 0.7488 0.9757
-6.4548 5.7246 1.0593 0.9658
-68.4561 -16.4741 8.6453 0.7529
-73.9269 -38.1663 10.2154 0.7151
-24.3340 -34.5675 5.1905 0.8434
-19.1539 -35.6379 4.9677 0.8495
-14.3405 -36.6514 4.8324 0.8533
44.1057 -45.1711 5.5234 0.7761
50.9580 -40.9656 5.7202 0.7691
50.5638 -31.4838 5.2112 0.7873
48.6088 -22.6885 4.6931 0.8062
54.9516 -17.9966 5.0589 0.7928
55.0876 -10.9537 4.9139 0.7981
55.0772 2.4326 4.8233 0.8014
37.8066 16.1973 3.5984 0.8478
28.9230 16.7520 2.9242 0.8744
25.7504 19.3808 2.8197 0.8786
4.6230 5.6566 0.6391 0.9711
2.7016 5.6684 0.5494 0.9751
1.1767 5.6777 0.5073 0.9770
0.4792 5.6820 0.4989 0.9774
-0.2052 5.6862 0.4978 0.9774
-1.6160 5.6949 0.5179 0.9765
-4.2266 5.7110 0.6216 0.9719
-5.3988 5.7107 0.6875 0.9689
-6.8936 5.7273 0.7841 0.9647
-8.8949 5.7396 0.9262 0.9584
-8.5538 2.9550 0.7918 0.9643
-12.9963 -36.6596 3.4029 0.8554
-11.3409 -50.6010 4.5368 0.8120
12.2450 -45.9636 4.1615 0.8261
23.9620 -43.7810 4.3665 0.8184
41.3759 -45.2051 5.3615 0.7819
52.6686 -45.2141 6.0729 0.7568
54.9395 -19.9771 5.1145 0.7908
55.0663 0.6539 4.8180 0.8016
21.4060 5.5182 1.9340 0.9151
3.8502 5.6613 0.5990 0.9729
2.9290 5.6670 0.5581 0.9747
0.6643 5.6809 0.5004 0.9773
-0.7092 5.6893 0.5016 0.9772
-16.3819 65.7377 5.9272 0.7618
-3.0030 5.7034 0.5639 0.9745
-3.9467 5.7092 0.6072 0.9725
-5.0649 5.7161 0.6682 0.9698
-8.2894 5.7359 0.8819 0.9603
-15.1257 5.7779 1.4166 0.9371
-47.3436 -11.3934 4.2603 0.8224
-53.4395 -27.5893 5.2617 0.7855
-25.7611 -36.5947 3.9154 0.8355
26.6102 -27.2530 1.9962 0.8585
50.6292 -31.5245 3.1257 0.7875
45.6735 -21.3184 2.6416 0.8172
59.9944 -11.9294 3.2057 0.7827
59.9455 -4.5689 3.1507 0.7860
59.8981 2.6456 3.1422 0.7865
59.8507 9.9260 3.1795 0.7843
37.8066 16.1973 2.1555 0.8481
28.9231 16.7520 1.7517 0.8747
4.6230 5.6566 0.3829 0.9712
3.5898 5.6629 0.3514 0.9735
1.9088 5.6732 0.3137 0.9763
0.4792 5.6820 0.2988 0.9774
-0.2052 5.6862 0.2982 0.9775
-0.8966 5.6905 0.3019 0.9772
-2.3836 5.6900 0.3233 0.9756
-5.3988 5.7107 0.4119 0.9690
-6.8715 5.7090 0.4682 0.9648
-11.8336 5.7577 0.6897 0.9487
-8.5524 2.9545 0.4742 0.9644
-29.1690 -34.5380 2.3692 0.8344
-22.6861 -34.5426 2.1658 0.8474
-12.3581 -34.8593 1.9383 0.8623
14.3435 -53.8405 2.9201 0.8000
32.3000 -45.1494 2.9093 0.8006
31.7834 -27.2848 2.1953 0.8455
51.0003 -34.0867 3.2148 0.7822
43.4850 -22.0324 2.5548 0.8226
60.0610 -21.8394 3.3493 0.7742
21.3652 2.8385 1.1295 0.9173
41.3957 16.1752 2.3292 0.8369
4.9341 5.6546 0.3933 0.9704
3.8502 5.6613 0.3588 0.9729
1.3688 5.6766 0.3060 0.9769
0.6643 5.6809 0.2998 0.9774
-0.0216 5.6851 0.2979 0.9775
-0.7092 5.6893 0.3005 0.9773
-2.1700 5.6884 0.3191 0.9759
-2.9984 5.6947 0.3373 0.9746
-5.0567 5.7069 0.3996 0.9699
-8.2894 5.7359 0.5283 0.9604
-10.9124 5.7520 0.6465 0.9518
-15.1257 5.7779 0.8486 0.9372
-23.3434 5.8284 1.2609 0.9081
-47.3224 -11.3883 2.5509 0.8229
-31.1217 -34.5261 2.4360 0.8301
-16.7918 -31.2429 1.8589 0.8676
59.0810 -27.5764 1.1381 0.7704
41.3782 6.8624 0.7321 0.8455
3.5898 5.6629 0.1170 0.9735
2.7017 5.6684 0.1096 0.9752
1.1767 5.6777 0.1012 0.9771
-0.2052 5.6862 0.0993 0.9775
-1.6138 5.6873 0.1032 0.9766
-5.3988 5.7107 0.1372 0.9690
-6.8936 5.7273 0.1564 0.9648
-11.7666 5.7251 0.2284 0.9490
-27.1230 5.8496 0.4843 0.8949
-43.3060 -1.2131 0.7560 0.8409
-25.1548 -38.3015 0.7998 0.8325
-16.9621 -34.1585 0.6657 0.8585
-12.9452 -36.5155 0.6762 0.8564
-8.9310 -88.7703 1.5573 0.6998
23.0867 -86.6595 1.5654 0.6985
23.0484 -42.1117 0.8380 0.8253
25.1103 -35.0995 0.7533 0.8414
25.1571 -27.4853 0.6504 0.8615
45.0397 -22.8201 0.8813 0.8171
76.1269 -27.6813 1.4139 0.7232
21.3604 2.8379 0.3761 0.9174
21.4060 5.5182 0.3859 0.9154
25.4117 9.9295 0.4762 0.8966
32.0975 17.2325 0.6359 0.8644
3.8502 5.6613 0.1195 0.9730
2.1144 5.6720 0.1057 0.9761
-0.0216 5.6851 0.0992 0.9775
-0.7092 5.6893 0.1001 0.9773
-16.3819 65.7376 1.1825 0.7626
-2.1646 5.6742 0.1060 0.9760
-6.4548 5.7246 0.1506 0.9661
-8.2894 5.7359 0.1760 0.9605
-10.8800 5.7350 0.2147 0.9520
-47.3013 -11.3832 0.8492 0.8231
-30.7674 -34.1330 0.8021 0.8321
-26.6639 -37.8773 0.8085 0.8308
18.7360 5.4802 -0.3407 0.9249
36.5532 15.6603 -0.6941 0.8529
6.1615 5.9198 -0.1491 0.9664
4.6230 5.6566 -0.1275 0.9712
2.7016 5.6684 -0.1096 0.9752
1.1767 5.6777 -0.1012 0.9771
-0.8966 5.6905 -0.1006 0.9772
-1.6138 5.6873 -0.1032 0.9766
-3.2209 5.6660 -0.1138 0.9743
-4.1675 5.6312 -0.1223 0.9724
-5.3988 5.7107 -0.1372 0.9690
-11.6858 5.6858 -0.2268 0.9493
-82.2982 -12.2881 -1.4524 0.7168
-65.5340 -18.0261 -1.1864 0.7619
-68.0010 -37.9340 -1.3592 0.7323
-71.2166 -51.8222 -1.5374 0.7030
-28.2637 -26.2917 -0.6738 0.8569
-19.1003 -22.6160 -0.5167 0.8883
-14.6879 -22.3643 -0.4670 0.8985
-9.0230 -25.4516 -0.4713 0.8976
-7.0984 -31.6716 -0.5665 0.8782
-7.3654 -73.2097 -1.2843 0.7450
22.9307 -41.8966 -0.8337 0.8261
67.5939 0.8026 -1.1799 0.7630
43.9153 17.1598 -0.8230 0.8281
26.2768 23.6642 -0.6172 0.8681
4.9341 5.6546 -0.1310 0.9704
3.8502 5.6613 -0.1195 0.9730
1.3688 5.6766 -0.1019 0.9769
-0.0216 5.6851 -0.0992 0.9775
-16.3418 65.5768 -1.1796 0.7631
-2.1598 5.6617 -0.1058 0.9760
-2.9826 5.6646 -0.1117 0.9747
-4.9930 5.6350 -0.1314 0.9703
-6.4548 5.7246 -0.1506 0.9661
-8.2894 5.7359 -0.1760 0.9605
-10.8252 5.7061 -0.2136 0.9522
-23.0860 5.7642 -0.4153 0.9092
-47.2802 -11.3781 -0.8488 0.8232
-66.8052 -34.4896 -1.3123 0.7402
-70.3833 -47.8210 -1.4853 0.7115
-20.6438 -22.9021 -0.5382 0.8840
-15.7181 -22.3284 -0.4766 0.8965
-12.6288 -23.4971 -0.4656 0.8988
-9.7203 -24.8430 -0.4656 0.8988
26.7132 -27.3585 -2.0039 0.8580
33.8253 -27.1925 -2.2745 0.8404
38.0575 -23.6967 -2.3495 0.8356
32.3769 -15.1121 -1.8725 0.8667
45.3653 -14.8571 -2.5017 0.8260
46.8196 -9.3097 -2.5017 0.8260
47.5981 -3.6278 -2.5017 0.8260
44.7884 1.9782 -2.3495 0.8356
40.8062 6.7675 -2.1678 0.8473
18.5523 5.4265 -1.0130 0.9255
20.0464 8.5884 -1.1429 0.9164
20.1670 15.1785 -1.3228 0.9038
6.1615 5.9198 -0.4478 0.9664
3.5898 5.6629 -0.3514 0.9735
1.9088 5.6732 -0.3137 0.9763
1.1767 5.6777 -0.3039 0.9770
0.4792 5.6820 -0.2988 0.9774
-1.6138 5.6873 -0.3098 0.9766
-2.3677 5.6519 -0.3211 0.9758
-3.2123 5.6508 -0.3407 0.9743
-4.1529 5.6114 -0.3659 0.9724
-6.8936 5.7273 -0.4697 0.9647
-8.8949 5.7396 -0.5548 0.9585
-11.6293 5.6583 -0.6778 0.9495
-8.5479 2.9530 -0.4739 0.9644
-45.4762 -12.5089 -2.4718 0.8279
-44.1763 -18.0885 -2.5017 0.8260
-41.6884 -23.2556 -2.5017 0.8260
-38.5987 -28.0871 -2.5017 0.8260
-29.8427 -27.7605 -2.1360 0.8494
-14.5344 -22.1306 -1.3876 0.8994
-11.7744 -23.7113 -1.3874 0.8994
-8.9091 -25.1304 -1.3973 0.8987
-4.4878 -44.6068 -2.3495 0.8356
6.6683 -47.2681 -2.5017 0.8260
25.0063 -34.9542 -2.2524 0.8419
25.1571 -27.4853 -1.9527 0.8614
32.0244 -16.2257 -1.8815 0.8661
42.1849 -15.3393 -2.3524 0.8354
47.7328 0.5668 -2.5017 0.8260
21.3507 2.8366 -1.1288 0.9173
19.9427 7.7925 -1.1221 0.9178
20.1466 14.1687 -1.2908 0.9061
25.7740 23.2114 -1.8178 0.8703
4.9341 5.6546 -0.3933 0.9704
2.1144 5.6720 -0.3172 0.9760
1.3688 5.6766 -0.3060 0.9769
0.6643 5.6809 -0.2998 0.9774
-0.7092 5.6893 -0.3005 0.9773
-4.9617 5.5997 -0.3921 0.9705
-6.4548 5.7246 -0.4522 0.9660
-8.2894 5.7359 -0.5283 0.9604
-22.7792 5.6876 -1.2305 0.9102
-34.0106 4.2553 -1.7963 0.8717
-43.5876 -10.4894 -2.3495 0.8356
-44.7369 -16.6540 -2.5017 0.8260
-20.4321 -22.6672 -1.5993 0.8849
18.7617 -19.2149 -2.3495 0.8978
24.2741 -15.1144 -2.5017 0.8915
25.9115 -12.0943 -2.5017 0.8915
27.1748 -8.8998 -2.5017 0.8915
28.5124 -2.1732 -2.5017 0.8915
21.4129 6.2632 -1.9519 0.9143
20.5670 15.4796 -2.2521 0.9018
4.6230 5.6566 -0.6391 0.9711
3.5898 5.6629 -0.5866 0.9734
1.1767 5.6777 -0.5073 0.9770
0.4792 5.6820 -0.4989 0.9774
-0.8966 5.6905 -0.5040 0.9771
-1.6138 5.6873 -0.5172 0.9765
-5.3988 5.7107 -0.6875 0.9689
-8.8949 5.7396 -0.9262 0.9584
-11.5389 5.6143 -1.1227 0.9498
-8.5465 2.9525 -0.7910 0.9643
-27.5711 -7.5838 -2.5017 0.8915
-24.9723 -13.9307 -2.5017 0.8915
-23.1215 -16.8248 -2.5017 0.8915
-14.3963 -21.9203 -2.2944 0.9001
-9.4987 -19.1287 -1.8685 0.9178
-8.8196 -24.8779 -2.3093 0.8994
-5.8732 -26.2053 -2.3495 0.8978
-2.8624 -28.4514 -2.5017 0.8915
3.9945 -28.3147 -2.5017 0.8915
7.3611 -27.6313 -2.5017 0.8915
13.7288 -25.0838 -2.5017 0.8915
15.7353 -21.9950 -2.3660 0.8971
20.4974 -17.5963 -2.3634 0.8972
23.7739 -15.8896 -2.5017 0.8915
25.5078 -12.9240 -2.5017 0.8915
28.5931 0.3395 -2.5017 0.8915
14.4317 5.6391 -1.3556 0.9397
20.4566 10.9827 -2.0313 0.9110
4.9341 5.6546 -0.6566 0.9703
2.9290 5.6670 -0.5581 0.9747
1.3688 5.6766 -0.5109 0.9768
0.6643 5.6809 -0.5004 0.9773
-0.0216 5.6851 -0.4974 0.9774
-2.9669 5.6348 -0.5571 0.9748
-8.2894 5.7359 -0.8819 0.9603
-22.3761 5.5869 -2.0178 0.9116
-26.8552 0.1144 -2.3495 0.8978
-28.4031 -3.3082 -2.5017 0.8915
-26.7984 -9.9761 -2.5017 0.8915
-12.3614 -22.9996 -2.2844 0.9005
-9.5768 -24.4764 -2.2995 0.8998
15.8799 -12.7661 -2.5017 0.9212
17.2962 -10.7696 -2.5017 0.9212
18.4629 -8.6177 -2.5017 0.9212
19.9839 -3.9736 -2.5017 0.9212
20.3161 -1.5485 -2.5017 0.9212
18.8777 3.1308 -2.3495 0.9258
16.6070 9.6187 -2.3564 0.9256
2.7016 5.6684 -0.7710 0.9750
0.4792 5.6820 -0.7001 0.9773
-1.6138 5.6873 -0.7259 0.9765
-3.1950 5.6204 -0.7938 0.9743
-5.3988 5.7107 -0.9649 0.9688
-6.8936 5.7273 -1.1004 0.9645
-8.8949 5.7396 -1.2998 0.9582
-11.3465 5.5207 -1.5493 0.9504
-8.5450 2.9520 -1.1100 0.9642
-18.7054 4.0342 -2.3495 0.9258
-20.1517 -3.0089 -2.5017 0.9212
-8.3933 -2.3087 -1.0688 0.9655
-17.7937 -9.9261 -2.5017 0.9212
-16.4750 -11.9883 -2.5017 0.9212
-14.9184 -13.8775 -2.5017 0.9212
-11.1849 -17.0306 -2.5017 0.9212
-6.8081 -19.2040 -2.5017 0.9212
-2.0396 -20.2727 -2.5017 0.9212
0.4062 -20.3710 -2.5017 0.9212
2.8462 -20.1753 -2.5017 0.9212
9.7823 -17.8732 -2.5017 0.9212
11.8550 -16.5711 -2.5017 0.9212
18.1753 -9.2088 -2.5017 0.9212
19.8453 -4.6162 -2.5017 0.9212
20.2556 -2.2031 -2.5017 0.9212
20.3737 0.2419 -2.5017 0.9212
18.5297 4.7767 -2.3495 0.9258
8.0373 5.6525 -1.2065 0.9612
3.8502 5.6613 -0.8406 0.9728
0.6643 5.6809 -0.7023 0.9772
-2.1598 5.6617 -0.7440 0.9759
-3.8668 5.5936 -0.8349 0.9730
-4.9082 5.5393 -0.9087 0.9706
-8.2894 5.7359 -1.2377 0.9602
-15.1257 5.7779 -1.9881 0.9368
-18.9875 2.3756 -2.3495 0.9258
-19.8095 -4.7672 -2.5017 0.9212
-18.1047 -9.3469 -2.5017 0.9212
-16.8531 -11.4506 -2.5017 0.9212
-15.3583 -13.3890 -2.5017 0.9212
-7.4241 -18.9744 -2.5017 0.9212
15.4921 -3.0805 -2.5017 0.9380
15.7497 -1.2004 -2.5017 0.9380
15.7481 0.6956 -2.4967 0.9382
14.6345 2.4271 -2.3495 0.9417
4.6230 5.6566 -1.1571 0.9708
3.5898 5.6629 -1.0619 0.9732
2.7016 5.6684 -0.9945 0.9749
0.4792 5.6820 -0.9031 0.9772
-0.2052 5.6862 -0.9012 0.9772
-0.8966 5.6905 -0.9124 0.9769
-2.3677 5.6519 -0.9706 0.9755
-14.5010 3.1274 -2.3495 0.9417
-14.9056 1.3783 -2.3709 0.9412
-7.9440 -2.1851 -1.3049 0.9672
-13.7942 -7.6950 -2.5017 0.9380
-11.5652 -10.7583 -2.5017 0.9380
-10.1916 -12.0675 -2.5017 0.9380
-8.6709 -13.2026 -2.5017 0.9380
-7.0251 -14.1472 -2.5017 0.9380
-5.2778 -14.8875 -2.5017 0.9380
-1.5811 -15.7161 -2.5017 0.9380
0.3149 -15.7922 -2.5017 0.9380
2.2065 -15.6405 -2.5017 0.9380
4.0662 -15.2630 -2.5017 0.9380
5.8672 -14.6653 -2.5017 0.9380
9.1904 -12.8464 -2.5017 0.9380
10.6646 -11.6516 -2.5017 0.9380
11.9849 -10.2886 -2.5017 0.9380
13.1323 -8.7771 -2.5017 0.9380
14.0900 -7.1390 -2.5017 0.9380
15.3847 -3.5786 -2.5017 0.9380
15.7943 0.1875 -2.5017 0.9380
14.7052 1.9537 -2.3495 0.9417
13.8171 5.3990 -2.3495 0.9417
13.0699 7.0170 -2.3495 0.9417
12.1489 8.5441 -2.3524 0.9416
4.9341 5.6546 -1.1886 0.9701
3.8502 5.6613 -1.0844 0.9727
1.3688 5.6766 -0.9248 0.9766
0.6643 5.6809 -0.9059 0.9771
-3.6257 14.5492 -2.3748 0.9411
-2.1598 5.6617 -0.9598 0.9758
-2.9612 5.6241 -1.0067 0.9746
-4.8707 5.4969 -1.1632 0.9707
-6.4548 5.7246 -1.3665 0.9657
-13.8578 5.2936 -2.3495 0.9417
-14.3926 3.5936 -2.3495 0.9417
-14.7197 1.8417 -2.3495 0.9417
-15.7953 0.0673 -2.5017 0.9380
-15.6893 -1.8274 -2.5017 0.9380
-8.8039 -2.1187 -1.4342 0.9640
-7.3917 -2.7517 -1.2492 0.9686
-13.0651 -8.8769 -2.5017 0.9380
-11.9062 -10.3796 -2.5017 0.9380
-10.5756 -11.7325 -2.5017 0.9380
-9.0923 -12.9160 -2.5017 0.9380
8.9915 -9.2087 -2.5017 0.9489
10.0309 -8.0639 -2.5017 0.9489
10.9255 -6.8029 -2.5017 0.9489
12.2311 -4.0057 -2.5017 0.9489
12.6232 -2.5100 -2.5017 0.9489
12.8331 -0.9781 -2.5017 0.9489
12.8578 0.5679 -2.5017 0.9489
11.6013 3.3933 -2.3495 0.9519
11.1106 4.7601 -2.3495 0.9519
4.6230 5.6566 -1.4200 0.9707
3.5898 5.6629 -1.3033 0.9730
-0.8966 5.6905 -1.1198 0.9768
-1.6085 5.6685 -1.1454 0.9763
-8.8949 5.7396 -2.0577 0.9578
-10.8691 5.2884 -2.3495 0.9519
-8.4552 2.9209 -1.7388 0.9642
-11.8157 2.5483 -2.3495 0.9519
-6.8917 -2.8219 -1.4476 0.9701
-11.2398 -6.2701 -2.5017 0.9489
-10.4068 -7.5727 -2.5017 0.9489
-8.3043 -9.8328 -2.5017 0.9489
-7.0652 -10.7577 -2.5017 0.9489
-5.7241 -11.5274 -2.5017 0.9489
-1.2883 -12.8057 -2.5017 0.9489
0.2566 -12.8678 -2.5017 0.9489
1.7979 -12.7442 -2.5017 0.9489
4.7807 -11.9495 -2.5017 0.9489
7.4885 -10.4675 -2.5017 0.9489
8.6897 -9.4939 -2.5017 0.9489
9.7655 -8.3833 -2.5017 0.9489
11.4808 -5.8169 -2.5017 0.9489
12.0955 -4.3982 -2.5017 0.9489
12.5357 -2.9159 -2.5017 0.9489
12.8695 0.1528 -2.5017 0.9489
11.7047 3.0173 -2.3495 0.9519
10.6496 5.7175 -2.3495 0.9519
7.6177 6.8603 -1.9927 0.9591
4.9341 5.6546 -1.4588 0.9699
2.1144 5.6720 -1.1766 0.9756
0.6643 5.6809 -1.1118 0.9770
-0.7092 5.6893 -1.1145 0.9769
-2.1468 5.6276 -1.1708 0.9758
-2.9360 5.5761 -1.2250 0.9746
-10.6928 5.6363 -2.3495 0.9519
-11.2916 4.3133 -2.3495 0.9519
-11.7273 2.9281 -2.3495 0.9519
-12.8702 0.0548 -2.5017 0.9489
-12.7839 -1.4890 -2.5017 0.9489
-8.4472 -2.0328 -1.6888 0.9652
-6.8796 -3.5517 -1.5050 0.9689
-10.6456 -7.2330 -2.5017 0.9489
-8.6172 -9.5598 -2.5017 0.9489
-7.4086 -10.5242 -2.5017 0.9489
-4.6896 -11.9856 -2.5017 0.9489
8.4455 -6.7895 -2.5017 0.9565
9.8193 -4.5832 -2.5017 0.9565
10.8257 0.4781 -2.5017 0.9565
10.0399 1.6651 -2.3495 0.9591
9.7677 2.8570 -2.3495 0.9591
8.8065 5.1007 -2.3495 0.9591
8.1313 6.1199 -2.3495 0.9591
6.1615 5.9198 -1.9726 0.9655
4.6230 5.6566 -1.6866 0.9705
3.5898 5.6629 -1.5479 0.9729
1.9088 5.6732 -1.3819 0.9757
1.1767 5.6777 -1.3387 0.9765
0.4792 5.6820 -1.3165 0.9769
-0.8966 5.6905 -1.3300 0.9766
-1.6085 5.6685 -1.3603 0.9761
-3.1318 5.5091 -1.4630 0.9743
-4.9141 5.1980 -1.6514 0.9711
-8.5513 5.5179 -2.3495 0.9591
-8.4214 2.9093 -2.0570 0.9641
-9.9483 2.1455 -2.3495 0.9591
-10.7902 0.9977 -2.5017 0.9565
-10.8320 -0.3034 -2.5017 0.9565
-10.7174 -1.6002 -2.5017 0.9565
-6.3676 -2.6073 -1.5885 0.9721
-7.9342 -7.3806 -2.5017 0.9565
-6.9918 -8.2788 -2.5017 0.9565
-5.9486 -9.0575 -2.5017 0.9565
-1.0847 -10.7818 -2.5017 0.9565
0.2161 -10.8341 -2.5017 0.9565
4.0251 -10.0610 -2.5017 0.9565
6.3050 -8.8132 -2.5017 0.9565
9.0092 -6.0215 -2.5017 0.9565
10.1839 -3.7031 -2.5017 0.9565
10.7727 -1.1717 -2.5017 0.9565
8.9665 4.8139 -2.3495 0.9591
8.3245 5.8544 -2.3495 0.9591
7.5623 6.8105 -2.3495 0.9591
2.9290 5.6670 -1.4727 0.9742
1.3688 5.6766 -1.3481 0.9763
0.6643 5.6809 -1.3205 0.9768
-0.0216 5.6851 -1.3125 0.9769
-0.7092 5.6893 -1.3237 0.9767
-2.4692 9.9085 -2.3575 0.9589
-2.1280 5.5784 -1.3784 0.9758
-2.9092 5.5251 -1.4416 0.9747
-3.7752 5.4610 -1.5327 0.9731
-9.5070 3.6316 -2.3495 0.9591
-10.7366 1.3433 -2.4981 0.9566
-10.8362 0.0462 -2.5017 0.9565
-6.4359 -2.3959 -1.5855 0.9722
-6.2279 -3.2153 -1.6181 0.9716
-8.9631 -6.0899 -2.5017 0.9565
-8.1681 -7.1208 -2.5017 0.9565
7.2768 -5.8499 -2.5017 0.9621
7.9258 -4.9350 -2.5017 0.9621
8.4604 -3.9489 -2.5017 0.9621
9.1574 -1.8209 -2.5017 0.9621
9.3096 -0.7096 -2.5017 0.9621
9.3275 0.4120 -2.5017 0.9621
8.6735 1.4385 -2.3558 0.9642
8.4160 2.4617 -2.3495 0.9643
7.5878 4.3948 -2.3495 0.9643
7.0060 5.2730 -2.3495 0.9643
2.7016 5.6684 -1.6825 0.9743
1.9088 5.6732 -1.6039 0.9755
1.1767 5.6777 -1.5537 0.9763
0.4792 5.6820 -1.5279 0.9767
-0.8966 5.6905 -1.5436 0.9764
-1.6085 5.6685 -1.5788 0.9759
-2.3194 5.5367 -1.6085 0.9754
-6.7446 5.6035 -2.3495 0.9643
-7.3679 4.7543 -2.3495 0.9643
-8.5715 1.8486 -2.3495 0.9643
-9.2970 0.8597 -2.5017 0.9621
-9.3330 -0.2614 -2.5017 0.9621
-9.2343 -1.3788 -2.5017 0.9621
-7.3747 -2.0285 -2.0494 0.9688
-5.8029 -3.2371 -1.7805 0.9729
-7.5495 -5.4935 -2.5017 0.9621
-5.1254 -7.8041 -2.5017 0.9621
-4.1525 -8.3624 -2.5017 0.9621
-2.0419 -9.1106 -2.5017 0.9621
-0.9346 -9.2897 -2.5017 0.9621
0.1862 -9.3348 -2.5017 0.9621
1.3043 -9.2451 -2.5017 0.9621
2.4035 -9.0220 -2.5017 0.9621
3.4681 -8.6686 -2.5017 0.9621
4.4826 -8.1902 -2.5017 0.9621
5.4324 -7.5935 -2.5017 0.9621
6.3039 -6.8873 -2.5017 0.9621
7.7625 -5.1881 -2.5017 0.9621
8.7746 -3.1906 -2.5017 0.9621
9.2819 -1.0095 -2.5017 0.9621
8.1673 3.1913 -2.3495 0.9643
6.5158 5.8680 -2.3495 0.9643
3.8502 5.6613 -1.8345 0.9720
2.9289 5.6670 -1.7093 0.9739
-0.7092 5.6893 -1.5363 0.9765
-2.1228 8.5185 -2.3523 0.9643
-2.1258 5.5726 -1.5981 0.9756
-2.8824 5.4743 -1.6577 0.9747
-3.7382 5.4076 -1.7615 0.9731
-4.5774 5.1659 -1.8494 0.9718
-9.3366 0.0398 -2.5017 0.9621
-7.0378 -6.1354 -2.5017 0.9621
-5.3745 -7.6347 -2.5017 0.9621
-3.4020 -8.6948 -2.5017 0.9621
