ply
format ascii 1.0
element vertex 710
property float32 x
property float32 y
property float32 z
property float32 I
end_header
51.3391 -34.5057 16.5747 0.7740
30.9202 16.7397 9.4213 0.8645
26.0867 23.7228 9.4480 0.8641
3.7994 5.6616 1.8270 0.9722
2.8800 5.6673 1.7034 0.9740
1.3196 5.6769 1.5617 0.9762
-1.4852 5.6941 1.5768 0.9759
-2.2500 5.6988 1.6417 0.9749
-3.0933 5.7040 1.7387 0.9735
-29.4979 19.7650 9.5142 0.8633
-56.1297 -30.4912 17.1158 0.7676
-18.3101 -27.3688 8.8233 0.8725
-14.8305 -29.2871 8.7962 0.8729
-9.8967 -42.8518 11.7843 0.8335
40.7241 16.1793 11.7416 0.8340
30.7132 16.7410 9.3727 0.8651
26.5574 18.9571 8.7430 0.8736
3.7761 5.6618 1.8235 0.9722
2.0477 5.6724 1.6159 0.9753
1.3026 5.6770 1.5607 0.9762
-0.0923 5.6855 1.5236 0.9767
-1.5026 5.6942 1.5780 0.9759
-2.2688 5.6989 1.6436 0.9749
-4.0821 5.7101 1.8808 0.9714
-20.3730 22.2434 8.0822 0.8826
-23.6123 20.2288 8.3312 0.8792
-55.9318 -30.5905 17.0819 0.7680
-19.0586 -28.6641 9.2233 0.8671
54.9371 -47.4736 16.7627 0.7423
51.3391 -34.5058 14.2809 0.7757
41.0596 16.1773 10.1886 0.8343
27.0924 24.6374 8.4543 0.8604
4.8797 5.6550 1.7244 0.9698
1.3196 5.6769 1.3455 0.9764
-0.0760 5.6854 1.3127 0.9769
-2.2500 5.6988 1.4145 0.9752
-4.0574 5.7099 1.6172 0.9717
-45.5456 -11.9145 10.8689 0.8243
-19.2178 -28.7255 7.9791 0.8677
-16.2362 -44.7772 10.9962 0.8224
17.6141 -44.4277 11.0337 0.8219
51.4680 -56.3542 17.6199 0.7310
51.3485 -34.2999 14.2563 0.7761
51.6505 13.5900 12.3303 0.8031
40.7241 16.1793 10.1167 0.8354
30.7132 16.7410 8.0756 0.8662
4.8518 5.6551 1.7202 0.9699
3.7761 5.6618 1.5712 0.9724
2.8597 5.6674 1.4656 0.9743
0.5968 5.6813 1.3188 0.9768
-0.0923 5.6855 1.3128 0.9769
-2.2688 5.6989 1.4161 0.9751
-3.1144 5.7041 1.5004 0.9737
-4.0821 5.7101 1.6205 0.9716
-5.2364 5.7171 1.7899 0.9687
-36.6834 -42.8810 13.0281 0.7932
-18.9235 -28.4609 7.8906 0.8691
51.3573 -34.5180 12.0281 0.7771
54.0105 -27.4952 11.7807 0.7812
30.9202 16.7397 6.8346 0.8665
26.5567 18.8426 6.3295 0.8757
3.7994 5.6616 1.3253 0.9726
2.8800 5.6673 1.2357 0.9744
2.0659 5.6723 1.1734 0.9757
1.3196 5.6769 1.1329 0.9765
0.6132 5.6812 1.1107 0.9770
-0.7685 5.6897 1.1160 0.9769
-1.4852 5.6941 1.1439 0.9763
-4.0574 5.7099 1.3616 0.9719
-5.2064 5.7170 1.5030 0.9690
-65.1485 -46.3641 15.5431 0.7219
-13.2921 -36.6578 7.5795 0.8531
-10.1312 -43.8674 8.7514 0.8324
17.3166 -43.6774 9.1329 0.8258
42.7791 -46.8404 12.3306 0.7722
52.2859 -44.9228 13.3994 0.7551
40.7243 16.1794 8.5178 0.8365
6.1743 5.6470 1.6264 0.9665
3.7761 5.6618 1.3229 0.9726
0.5968 5.6813 1.1104 0.9770
-0.0923 5.6855 1.1053 0.9771
-0.7851 5.6898 1.1165 0.9769
-1.5026 5.6942 1.1447 0.9763
-2.2688 5.6989 1.1923 0.9753
-5.2364 5.7171 1.5070 0.9689
-64.9456 -46.4992 15.5262 0.7222
-22.8463 -34.3607 8.0207 0.8452
41.5177 -45.7202 9.7815 0.7787
52.3201 -45.2122 10.9521 0.7558
51.8055 -34.8192 9.8863 0.7766
29.2663 -14.8987 5.2014 0.8755
55.7049 -12.9908 9.0595 0.7932
55.8274 -6.0655 8.8942 0.7966
55.8691 0.7075 8.8495 0.7975
51.5994 13.4195 8.4444 0.8058
41.0597 16.1773 6.9898 0.8363
30.9203 16.7397 5.5689 0.8673
26.5567 18.8426 5.1574 0.8765
3.7994 5.6616 1.0799 0.9728
1.3196 5.6769 0.9231 0.9767
-0.7685 5.6897 0.9093 0.9770
-1.4852 5.6941 0.9320 0.9764
-2.2500 5.6988 0.9704 0.9755
-3.0933 5.7040 1.0277 0.9741
-5.2064 5.7170 1.2247 0.9692
-86.5852 43.9228 15.3773 0.6749
-66.4910 -17.3935 10.8855 0.7570
-71.1221 -38.6355 12.8194 0.7205
-72.5476 -66.1627 15.5513 0.6719
-10.1312 -43.8674 7.1308 0.8333
14.4215 -54.9696 9.0010 0.7944
17.3137 -43.6700 7.4404 0.8268
32.9889 -46.2845 9.0022 0.7944
41.5194 -45.4609 9.7513 0.7793
52.8864 -45.4388 11.0434 0.7540
29.2621 -14.7916 5.1931 0.8757
55.8284 -5.9047 8.8917 0.7966
40.7242 16.1794 6.9405 0.8374
26.5575 18.9572 5.1680 0.8762
4.8518 5.6551 1.1802 0.9703
-0.0923 5.6855 0.9006 0.9772
-0.7851 5.6898 0.9097 0.9770
-1.5026 5.6942 0.9327 0.9764
-2.2688 5.6989 0.9715 0.9755
-5.2364 5.7171 1.2279 0.9691
-6.6838 5.7261 1.3940 0.9650
-8.6165 5.7379 1.6396 0.9589
-88.7121 -35.3910 15.1275 0.6792
-62.0579 -44.4317 12.0885 0.7341
-24.3375 -36.6034 6.9619 0.8369
52.2991 -45.1940 8.4870 0.7569
51.5565 -34.6519 7.6273 0.7785
54.7408 -27.8670 7.5421 0.7807
74.3670 -17.3426 9.3761 0.7351
55.8274 -6.0655 6.8951 0.7975
56.0045 0.7092 6.8770 0.7979
53.1279 7.1376 6.5819 0.8057
52.1002 13.5497 6.6099 0.8050
41.0598 16.1773 5.4187 0.8371
30.9202 16.7397 4.3172 0.8679
26.6572 18.9139 4.0133 0.8766
6.2095 5.6468 1.0305 0.9667
2.8800 5.6673 0.7805 0.9747
0.6132 5.6812 0.7016 0.9772
-2.2500 5.6988 0.7523 0.9756
-3.0933 5.7040 0.7967 0.9742
-4.0574 5.7099 0.8601 0.9722
-6.6451 5.7258 1.0770 0.9653
-11.3443 5.7547 1.5619 0.9500
-13.2921 -36.6578 4.7878 0.8546
-10.1312 -43.8674 5.5280 0.8341
13.9568 -53.1985 6.7530 0.8012
16.7315 -42.2016 5.5741 0.8328
24.0947 -44.2794 6.1896 0.8162
32.2703 -45.2763 6.8268 0.7993
41.5695 -45.5160 7.5687 0.7800
52.8512 -45.4086 8.5555 0.7552
55.8284 -5.9047 6.8931 0.7975
55.9237 0.8676 6.8674 0.7982
6.1743 5.6470 1.0274 0.9668
4.8518 5.6551 0.9149 0.9704
3.7761 5.6618 0.8356 0.9729
2.0477 5.6724 0.7405 0.9760
0.5968 5.6813 0.7014 0.9772
-0.0923 5.6855 0.6982 0.9773
-1.5026 5.6942 0.7231 0.9765
-4.0821 5.7101 0.8618 0.9721
-5.2364 5.7171 0.9519 0.9692
-6.6838 5.7261 1.0807 0.9652
-8.6165 5.7379 1.2711 0.9591
-11.4259 5.7552 1.5708 0.9497
-89.1570 -35.5685 11.7861 0.6792
-29.5442 -34.5357 5.5804 0.8326
-22.8463 -34.3607 5.0664 0.8468
55.7469 -20.3488 5.1920 0.7880
55.8846 -13.0325 5.0205 0.7942
55.9274 -6.0763 4.9218 0.7978
55.8763 0.7076 4.8889 0.7990
49.7337 6.6816 4.3902 0.8175
26.5568 18.8427 2.8488 0.8774
2.8800 5.6673 0.5562 0.9748
2.0659 5.6723 0.5281 0.9761
0.6132 5.6812 0.4999 0.9773
-0.0760 5.6854 0.4975 0.9774
-0.7685 5.6897 0.5023 0.9772
-1.4852 5.6941 0.5148 0.9766
-2.2500 5.6988 0.5360 0.9757
-5.2064 5.7170 0.6765 0.9694
-6.6451 5.7258 0.7674 0.9654
-8.5279 5.7141 0.8981 0.9596
-11.3443 5.7547 1.1129 0.9502
-15.9127 5.7828 1.4813 0.9343
-29.9248 -0.4216 2.6183 0.8868
-31.4653 -36.5698 4.2207 0.8239
-24.4876 -36.6025 3.8529 0.8379
-13.2922 -36.6578 3.4115 0.8551
14.1531 -53.9465 4.8794 0.7994
16.9947 -42.8654 4.0342 0.8310
32.3390 -45.3727 4.8747 0.7995
51.5578 -34.4398 5.4245 0.7796
54.4983 -27.5482 5.3425 0.7826
55.7480 -20.1693 5.1867 0.7882
55.8856 -12.8649 5.0172 0.7943
55.8773 0.8669 4.8892 0.7990
30.7132 16.7410 3.0603 0.8690
6.1743 5.6470 0.7320 0.9670
3.7761 5.6618 0.5954 0.9730
2.8597 5.6674 0.5554 0.9748
-0.0923 5.6855 0.4975 0.9774
-0.7851 5.6898 0.5025 0.9772
-1.5026 5.6942 0.5152 0.9766
-4.0821 5.7101 0.6141 0.9722
-6.6838 5.7261 0.7700 0.9653
-11.4259 5.7552 1.1193 0.9499
-16.0575 5.7837 1.4932 0.9338
51.8055 -34.8192 3.2713 0.7788
44.0701 -22.4348 2.5917 0.8203
60.7691 -6.6024 3.2035 0.7828
43.8730 5.8942 2.3199 0.8375
21.3548 5.5537 1.1564 0.9154
30.9203 16.7397 1.8427 0.8686
26.5568 18.8427 1.7065 0.8777
7.3251 6.6613 0.5189 0.9611
3.7994 5.6616 0.3573 0.9731
2.0659 5.6723 0.3164 0.9761
-0.0760 5.6854 0.2980 0.9775
-0.7678 5.6840 0.3006 0.9773
-1.4824 5.6834 0.3078 0.9767
-3.0839 5.6866 0.3390 0.9744
-5.2064 5.7170 0.4052 0.9695
-8.5279 5.7141 0.5380 0.9597
-25.2043 5.8399 1.3559 0.9016
-29.8380 -0.4204 1.5639 0.8873
-23.1117 -34.5459 2.1783 0.8466
-15.7955 -31.1927 1.8324 0.8693
-9.2832 -87.1780 4.5946 0.7039
15.1095 -57.5921 3.1204 0.7878
24.0947 -44.2794 2.6419 0.8172
32.1791 -45.1484 2.9056 0.8009
25.9611 -28.4257 2.0175 0.8571
51.8068 -34.6061 3.2651 0.7792
60.8184 -14.0004 3.2707 0.7788
60.7679 -6.4271 3.2025 0.7829
43.9577 6.0332 2.3253 0.8372
21.1132 5.5552 1.1442 0.9163
30.7132 16.7410 1.8332 0.8693
7.2835 6.6615 0.5173 0.9612
4.8518 5.6551 0.3905 0.9706
2.8597 5.6674 0.3327 0.9749
2.0477 5.6724 0.3161 0.9761
0.5968 5.6813 0.2994 0.9774
-0.0923 5.6855 0.2980 0.9775
-1.4998 5.6835 0.3081 0.9767
-3.1050 5.6868 0.3396 0.9744
-6.6705 5.7147 0.4603 0.9654
-16.0575 5.7837 0.8945 0.9339
-30.0635 -0.5093 1.5758 0.8865
-66.4748 -17.5919 3.6037 0.7592
-22.9893 -34.5758 2.1760 0.8468
42.1400 -21.4522 0.8254 0.8276
40.3439 5.4201 0.7105 0.8497
21.3340 5.5483 0.3848 0.9156
43.5589 17.1619 0.8172 0.8292
26.6271 18.8926 0.5699 0.8776
6.7875 6.1724 0.1601 0.9640
3.7994 5.6616 0.1190 0.9731
2.0659 5.6723 0.1054 0.9761
1.3196 5.6769 0.1017 0.9770
0.6132 5.6812 0.0997 0.9774
-0.0760 5.6854 0.0992 0.9775
-1.4788 5.6697 0.1023 0.9768
-2.2405 5.6747 0.1065 0.9759
-3.0673 5.6560 0.1123 0.9746
-5.2064 5.7170 0.1350 0.9695
-8.5279 5.7141 0.1792 0.9598
-11.2779 5.7211 0.2207 0.9507
-25.1937 5.8374 0.4514 0.9017
-29.3762 -34.1418 0.7862 0.8351
-25.6224 -38.2987 0.8043 0.8316
23.7161 -90.3975 1.6313 0.6881
21.7711 -54.9129 1.0311 0.7895
25.9123 -36.3559 0.7793 0.8364
31.7567 -27.2847 0.7308 0.8458
42.2054 -21.3343 0.8255 0.8276
46.0284 6.3174 0.8110 0.8304
43.2029 17.1641 0.8114 0.8303
26.6278 19.0074 0.5711 0.8773
4.8518 5.6551 0.1301 0.9706
1.3026 5.6770 0.1017 0.9770
0.5968 5.6813 0.0997 0.9774
-1.4961 5.6698 0.1024 0.9768
-2.2592 5.6748 0.1066 0.9759
-3.0882 5.6561 0.1125 0.9745
-5.2364 5.7171 0.1353 0.9695
-8.6112 5.7344 0.1806 0.9595
-11.3594 5.7217 0.2220 0.9504
-25.5094 5.8340 0.4568 0.9006
-29.9615 -0.5076 0.5231 0.8870
-89.1555 -35.5679 1.6755 0.6811
-29.2081 -34.1428 0.7843 0.8355
-25.4653 -38.2997 0.8028 0.8319
25.9601 -28.5878 -0.6740 0.8569
31.5728 -27.2835 -0.7284 0.8463
40.6769 -27.3395 -0.8555 0.8220
43.8382 5.8896 -0.7721 0.8378
30.9203 16.7397 -0.6137 0.8688
26.5568 18.8427 -0.5684 0.8779
6.7875 6.1724 -0.1601 0.9640
4.8797 5.6550 -0.1304 0.9706
1.3196 5.6769 -0.1017 0.9770
0.6132 5.6812 -0.0997 0.9774
-0.0760 5.6854 -0.0992 0.9775
-5.2064 5.7170 -0.1350 0.9695
-11.1720 5.6673 -0.2187 0.9511
-15.9127 5.7828 -0.2955 0.9345
-25.0487 5.8038 -0.4488 0.9022
-95.4978 10.2379 -1.6765 0.6810
-6.8755 -29.7704 -0.5333 0.8849
-6.3242 -59.3905 -1.0425 0.7875
22.9166 -87.3502 -1.5763 0.6968
21.2077 -53.4919 -1.0044 0.7944
25.9123 -36.3559 -0.7793 0.8364
31.7567 -27.2847 -0.7308 0.8458
76.5177 -27.6837 -1.4203 0.7221
90.5067 -20.8346 -1.6211 0.6897
68.4324 1.0617 -1.1946 0.7605
43.8390 6.0169 -0.7724 0.8378
20.9038 5.5001 -0.3773 0.9172
26.5575 18.9572 -0.5695 0.8776
2.0477 5.6724 -0.1053 0.9762
1.3026 5.6770 -0.1017 0.9770
-0.0923 5.6855 -0.0993 0.9775
-0.7842 5.6833 -0.1001 0.9773
-1.4925 5.6561 -0.1021 0.9769
-2.2535 5.6605 -0.1063 0.9759
-3.0772 5.6359 -0.1121 0.9746
-5.2364 5.7171 -0.1353 0.9695
-6.6838 5.7261 -0.1536 0.9654
-8.6112 5.7344 -0.1806 0.9595
-11.2444 5.6638 -0.2198 0.9509
-29.8659 -0.5060 -0.5214 0.8874
26.0642 -28.7025 -2.0319 0.8562
33.0885 -16.8444 -1.9459 0.8618
47.4567 -5.1560 -2.5017 0.8260
47.7322 0.6045 -2.5017 0.8260
41.6540 5.5961 -2.2026 0.8451
20.9192 11.3253 -1.2467 0.9091
6.7875 6.1724 -0.4808 0.9639
3.7994 5.6616 -0.3573 0.9731
2.8800 5.6673 -0.3332 0.9749
2.0659 5.6723 -0.3164 0.9761
0.6132 5.6812 -0.2995 0.9774
-0.0760 5.6854 -0.2980 0.9775
-0.7678 5.6840 -0.3006 0.9773
-1.4739 5.6509 -0.3061 0.9769
-3.0490 5.6224 -0.3352 0.9747
-5.2064 5.7170 -0.4052 0.9695
-8.5279 5.7141 -0.5380 0.9597
-11.1196 5.6408 -0.6534 0.9513
-15.9127 5.7828 -0.8873 0.9344
-23.8440 5.5247 -1.2827 0.9066
-29.8582 -0.4207 -1.5650 0.8873
-44.4241 -6.0327 -2.3495 0.8356
-43.4468 -11.3654 -2.3536 0.8354
-44.3882 -17.5618 -2.5017 0.8260
-41.9464 -22.7865 -2.5017 0.8260
-38.8925 -27.6785 -2.5017 0.8260
-33.1250 -30.2097 -2.3495 0.8356
-19.5833 -22.7602 -1.5736 0.8867
-14.7074 -21.9837 -1.3862 0.8995
-11.8456 -23.3925 -1.3742 0.9003
-8.9476 -24.6761 -1.3756 0.9002
-6.8142 -29.5051 -1.5870 0.8858
-4.7471 -44.5798 -2.3495 0.8356
0.7065 -47.7308 -2.5017 0.8260
6.4573 -47.2972 -2.5017 0.8260
16.5231 -41.6759 -2.3495 0.8356
21.4282 -39.3792 -2.3495 0.8356
26.0652 -28.5398 -2.0256 0.8566
37.2797 -24.9022 -2.3495 0.8356
32.8799 -16.6204 -1.9308 0.8628
44.8885 -16.2404 -2.5017 0.8260
47.7302 0.7405 -2.5017 0.8260
41.6547 5.7171 -2.2035 0.8450
20.7610 5.4625 -1.1251 0.9176
20.8695 8.2912 -1.1769 0.9140
20.9883 14.9818 -1.3514 0.9019
6.7722 6.1938 -0.4810 0.9639
4.8518 5.6551 -0.3905 0.9706
3.7761 5.6618 -0.3567 0.9731
-0.0923 5.6855 -0.2980 0.9775
-0.7842 5.6833 -0.3007 0.9773
-1.4909 5.6501 -0.3062 0.9769
-2.2479 5.6463 -0.3185 0.9760
-3.0693 5.6214 -0.3357 0.9747
-5.2364 5.7171 -0.4063 0.9694
-6.6838 5.7261 -0.4613 0.9654
-8.6112 5.7344 -0.5422 0.9594
-16.0575 5.7837 -0.8945 0.9339
-45.0651 4.7014 -2.3746 0.8340
-44.3379 -17.6883 -2.5017 0.8260
-41.8813 -22.9059 -2.5017 0.8260
-19.4348 -22.7184 -1.5668 0.8871
-14.6419 -22.0214 -1.3859 0.8995
23.7326 -15.9510 -2.5017 0.8915
25.4830 -12.9727 -2.5017 0.8915
27.8478 -6.4942 -2.5017 0.8915
28.5927 0.3621 -2.5017 0.8915
26.6162 3.5758 -2.3495 0.8978
20.2543 5.2675 -1.8310 0.9194
21.3748 15.1659 -2.2930 0.9001
6.7875 6.1724 -0.8026 0.9638
4.8797 5.6550 -0.6535 0.9705
2.8800 5.6673 -0.5562 0.9748
-0.7678 5.6840 -0.5018 0.9772
-1.4739 5.6509 -0.5109 0.9768
-2.2236 5.6321 -0.5298 0.9760
-5.2064 5.7170 -0.6765 0.9694
-6.6451 5.7258 -0.7674 0.9654
-15.9127 5.7828 -1.4813 0.9343
-25.1626 5.8302 -2.2598 0.9015
-27.6641 -7.2367 -2.5017 0.8915
-21.1039 -19.2466 -2.4989 0.8916
-14.6603 -21.9134 -2.3067 0.8995
-11.6285 -22.9638 -2.2520 0.9018
-8.8592 -24.4325 -2.2737 0.9009
-3.0187 -28.3485 -2.4942 0.8918
7.2564 -27.6589 -2.5017 0.8915
16.2502 -22.7996 -2.4495 0.8937
20.7108 -17.7942 -2.3889 0.8962
23.7780 -15.8833 -2.5017 0.8915
27.8661 -6.4148 -2.5017 0.8915
28.4364 -3.0076 -2.5017 0.8915
26.6059 3.6517 -2.3495 0.8978
19.9918 5.2602 -1.8086 0.9203
6.7722 6.1938 -0.8029 0.9638
3.7761 5.6618 -0.5954 0.9730
2.8597 5.6674 -0.5554 0.9748
2.0477 5.6724 -0.5276 0.9761
-1.4909 5.6501 -0.5112 0.9768
-3.0613 5.6068 -0.5589 0.9747
-3.9790 5.5658 -0.5986 0.9729
-8.6112 5.7344 -0.9051 0.9593
-11.1152 5.5987 -1.0889 0.9513
-16.0575 5.7837 -1.4932 0.9338
-26.2089 5.9940 -2.3522 0.8977
-26.7104 2.7865 -2.3495 0.8978
-28.3238 -3.9286 -2.5017 0.8915
-27.6434 -7.3155 -2.5017 0.8915
-25.0879 -13.7212 -2.5017 0.8915
-23.2501 -16.6464 -2.5017 0.8915
-17.4575 -20.4070 -2.3495 0.8978
-14.5618 -21.9010 -2.3010 0.8998
13.6974 -15.0839 -2.5017 0.9212
19.1398 -6.9864 -2.5017 0.9212
20.3734 0.2580 -2.5017 0.9212
18.9651 2.5479 -2.3495 0.9258
16.8639 9.1298 -2.3546 0.9256
6.7875 6.1724 -1.1265 0.9637
3.7994 5.6616 -0.8372 0.9729
2.8800 5.6673 -0.7805 0.9747
2.0659 5.6723 -0.7412 0.9760
-0.7678 5.6840 -0.7043 0.9772
-3.9414 5.5466 -0.8355 0.9730
-8.5279 5.7141 -1.2604 0.9595
-15.9127 5.7828 -2.0788 0.9340
-18.6416 4.3193 -2.3495 0.9258
-20.3730 -0.2870 -2.5017 0.9212
-15.0545 -13.7296 -2.5017 0.9212
-13.2890 -15.4449 -2.5017 0.9212
-9.1787 -18.1260 -2.4947 0.9214
-6.9328 -19.1196 -2.4972 0.9213
-4.5849 -19.8524 -2.5017 0.9212
0.3016 -20.3728 -2.5017 0.9212
2.7561 -20.1877 -2.5017 0.9212
7.5093 -18.9407 -2.5017 0.9212
13.7403 -15.0448 -2.5017 0.9212
19.8557 -4.5708 -2.5017 0.9212
18.9577 2.6020 -2.3495 0.9258
16.8391 9.1786 -2.3548 0.9256
6.7722 6.1938 -1.1268 0.9637
3.7761 5.6618 -0.8356 0.9729
2.8597 5.6674 -0.7794 0.9747
2.0477 5.6724 -0.7405 0.9760
1.3026 5.6770 -0.7152 0.9768
0.5968 5.6813 -0.7014 0.9772
-0.0923 5.6855 -0.6982 0.9773
-2.2366 5.6180 -0.7425 0.9759
-3.0534 5.5923 -0.7823 0.9746
-5.2364 5.7171 -0.9519 0.9692
-6.6838 5.7261 -1.0807 0.9652
-8.6006 5.7274 -1.2687 0.9592
-16.0576 5.7837 -2.0956 0.9335
-19.0322 1.9855 -2.3495 0.9258
-20.1818 -2.7993 -2.5017 0.9212
-19.6970 -5.2126 -2.5017 0.9212
-18.9246 -7.5499 -2.5017 0.9212
-15.0153 -13.7725 -2.5017 0.9212
-13.2449 -15.4827 -2.5017 0.9212
13.1095 -8.8111 -2.5017 0.9380
14.8377 -5.4161 -2.5017 0.9380
15.3826 -3.5873 -2.5017 0.9380
15.7029 -1.7061 -2.5017 0.9380
14.7023 1.9752 -2.3495 0.9417
13.0453 7.0625 -2.3495 0.9417
4.8797 5.6550 -1.1830 0.9702
1.3196 5.6769 -0.9231 0.9767
-1.4739 5.6509 -0.9250 0.9766
-3.0254 5.5787 -1.0051 0.9746
-3.9228 5.5205 -1.0726 0.9729
-6.6451 5.7258 -1.3893 0.9651
-10.6920 5.4238 -1.8989 0.9526
-14.4515 3.3484 -2.3495 0.9417
-15.6517 -2.1255 -2.5017 0.9380
-6.5090 -2.5752 -1.1087 0.9720
-6.4196 -3.4873 -1.1571 0.9708
-12.8691 -9.1585 -2.5017 0.9380
-7.1357 -14.0916 -2.5017 0.9380
4.0083 -15.2783 -2.5017 0.9380
5.8215 -14.6834 -2.5017 0.9380
7.5497 -13.8743 -2.5017 0.9380
9.1677 -12.8626 -2.5017 0.9380
15.3927 -3.5434 -2.5017 0.9380
15.7077 -1.6613 -2.5017 0.9380
15.7934 0.2450 -2.5017 0.9380
13.7862 5.4771 -2.3495 0.9417
13.0251 7.0996 -2.3495 0.9417
8.0918 5.7760 -1.5746 0.9605
4.8518 5.6551 -1.1802 0.9703
-1.4909 5.6501 -0.9255 0.9766
-2.2355 5.6151 -0.9572 0.9758
-5.2364 5.7171 -1.2279 0.9691
-8.6006 5.7274 -1.6366 0.9590
-13.9567 5.0270 -2.3495 0.9417
-14.4610 3.3072 -2.3495 0.9417
-14.7543 1.5392 -2.3495 0.9417
-15.7931 -0.2676 -2.5017 0.9380
-15.6455 -2.1701 -2.5017 0.9380
-6.5021 -2.5940 -1.1088 0.9720
-6.4220 -3.5123 -1.1593 0.9708
-12.8429 -9.1952 -2.5017 0.9380
-11.6403 -10.6768 -2.5017 0.9380
-10.2679 -12.0026 -2.5017 0.9380
8.6522 -9.5280 -2.5017 0.9489
9.7381 -8.4151 -2.5017 0.9489
10.6818 -7.1794 -2.5017 0.9489
11.4696 -5.8389 -2.5017 0.9489
12.0900 -4.4131 -2.5017 0.9489
12.7950 -1.3901 -2.5017 0.9489
11.9997 1.6121 -2.3535 0.9519
11.6982 3.0423 -2.3495 0.9519
10.6295 5.7547 -2.3495 0.9519
8.1403 5.7757 -1.9401 0.9601
6.7875 6.1724 -1.7833 0.9633
3.7994 5.6616 -1.3253 0.9726
2.8800 5.6673 -1.2357 0.9744
0.6132 5.6812 -1.1107 0.9770
-0.0760 5.6854 -1.1052 0.9771
-2.2037 5.5815 -1.1664 0.9758
-2.9985 5.5293 -1.2227 0.9747
-3.8846 5.4667 -1.3036 0.9730
-6.6451 5.7258 -1.7050 0.9649
-8.5279 5.7141 -1.9954 0.9590
-11.7754 2.7284 -2.3495 0.9519
-12.7659 1.3686 -2.4957 0.9490
-12.8690 -0.1813 -2.5017 0.9489
-12.7532 -1.7319 -2.5017 0.9489
-7.8533 -2.0543 -1.5779 0.9675
-6.0944 -2.4112 -1.2740 0.9736
-5.9291 -3.2208 -1.3116 0.9729
-9.5095 -8.6726 -2.5017 0.9489
-8.3943 -9.7561 -2.5017 0.9489
-7.1565 -10.6971 -2.5017 0.9489
-5.8143 -11.4821 -2.5017 0.9489
-1.3628 -12.7979 -2.5017 0.9489
0.1905 -12.8689 -2.5017 0.9489
1.7410 -12.7520 -2.5017 0.9489
4.7434 -11.9643 -2.5017 0.9489
6.1516 -11.3050 -2.5017 0.9489
7.4700 -10.4806 -2.5017 0.9489
8.6794 -9.5033 -2.5017 0.9489
10.7022 -7.1489 -2.5017 0.9489
11.4862 -5.8061 -2.5017 0.9489
12.8688 0.1996 -2.5017 0.9489
11.9750 1.6436 -2.3495 0.9519
4.8518 5.6551 -1.4484 0.9701
3.7761 5.6618 -1.3229 0.9726
-0.7819 5.6667 -1.1119 0.9770
-1.4843 5.6251 -1.1308 0.9766
-2.2216 5.5804 -1.1675 0.9758
-3.0182 5.5279 -1.2243 0.9747
-10.7952 5.4375 -2.3495 0.9519
-11.3721 4.0961 -2.3495 0.9519
-11.7831 2.6948 -2.3495 0.9519
-12.8685 -0.2180 -2.5017 0.9489
-12.7483 -1.7682 -2.5017 0.9489
-7.7927 -2.0623 -1.5669 0.9677
-10.4647 -7.4924 -2.5017 0.9489
-9.4848 -8.6997 -2.5017 0.9489
-8.3664 -9.7800 -2.5017 0.9489
7.2848 -8.0222 -2.5017 0.9565
8.9936 -6.0447 -2.5017 0.9565
9.6569 -4.9160 -2.5017 0.9565
10.1793 -3.7157 -2.5017 0.9565
6.3181 -0.6864 -1.4672 0.9742
10.8353 0.1372 -2.5017 0.9565
10.4696 1.4066 -2.4388 0.9576
9.4685 3.7306 -2.3495 0.9591
8.1403 5.7757 -2.3043 0.9599
4.8797 5.6550 -1.7244 0.9698
2.8800 5.6673 -1.4676 0.9742
2.0659 5.6723 -1.3937 0.9755
-0.0760 5.6854 -1.3127 0.9769
-1.4550 5.5782 -1.3309 0.9766
-2.9710 5.4784 -1.4388 0.9747
-5.2064 5.7170 -1.7852 0.9688
-6.6451 5.7258 -2.0251 0.9646
-10.7709 1.1547 -2.5009 0.9565
-10.8351 -0.1527 -2.5017 0.9565
-10.7377 -1.4582 -2.5017 0.9565
-5.7656 -2.2811 -1.4315 0.9749
-5.5443 -3.0118 -1.4567 0.9744
-8.8287 -6.2831 -2.5017 0.9565
-7.0676 -8.2142 -2.5017 0.9565
-6.0255 -9.0065 -2.5017 0.9565
-3.6939 -10.1872 -2.5017 0.9565
-2.4384 -10.5583 -2.5017 0.9565
0.1604 -10.8350 -2.5017 0.9565
2.7499 -10.4815 -2.5017 0.9565
5.1794 -9.5183 -2.5017 0.9565
9.0108 -6.0191 -2.5017 0.9565
9.6709 -4.8885 -2.5017 0.9565
10.1898 -3.6866 -2.5017 0.9565
6.2980 -0.6661 -1.4621 0.9743
10.8349 0.1681 -2.5017 0.9565
10.4510 1.4344 -2.4354 0.9576
9.8420 2.5896 -2.3495 0.9591
9.4579 3.7575 -2.3495 0.9591
8.0918 5.7760 -2.2952 0.9600
6.7722 6.1938 -2.1188 0.9630
4.8518 5.6551 -1.7202 0.9699
2.8597 5.6674 -1.4656 0.9743
2.0477 5.6724 -1.3923 0.9755
0.5968 5.6813 -1.3188 0.9768
-0.7819 5.6667 -1.3207 0.9768
-2.2021 5.5314 -1.3745 0.9759
-3.8248 5.3501 -1.5184 0.9734
-5.2364 5.7171 -1.7899 0.9687
-6.6838 5.7261 -2.0319 0.9645
-8.4706 5.6408 -2.3495 0.9591
-9.0891 4.5781 -2.3495 0.9591
-9.9208 2.2689 -2.3495 0.9591
-10.7335 -1.4888 -2.5017 0.9565
-7.6155 -2.0154 -1.8187 0.9682
-5.7600 -2.2979 -1.4317 0.9749
-7.0442 -8.2343 -2.5017 0.9565
-5.9998 -9.0236 -2.5017 0.9565
7.7490 -5.2082 -2.5017 0.9621
8.7706 -3.2014 -2.5017 0.9621
9.3359 0.1182 -2.5017 0.9621
8.4863 2.2070 -2.3495 0.9643
7.7111 4.1746 -2.3495 0.9643
2.8800 5.6673 -1.7034 0.9740
2.0659 5.6723 -1.6176 0.9753
1.3196 5.6769 -1.5617 0.9762
-0.7658 5.6697 -1.5330 0.9766
-2.1650 5.4836 -1.5797 0.9759
-2.9435 5.4277 -1.6545 0.9748
-3.7292 5.2480 -1.7251 0.9737
-5.2064 5.7170 -2.0719 0.9685
-6.6428 5.7238 -2.3495 0.9643
-7.2845 4.8810 -2.3495 0.9643
-5.3758 2.7270 -1.6152 0.9753
-7.7472 2.8154 -2.2087 0.9664
-7.7700 -2.0326 -2.1520 0.9673
-5.1452 -2.7950 -1.5689 0.9760
-4.9492 -3.5222 -1.6277 0.9752
-5.1916 -7.7601 -2.5017 0.9621
-4.2179 -8.3295 -2.5017 0.9621
-3.1827 -8.7774 -2.5017 0.9621
-2.1010 -9.0971 -2.5017 0.9621
4.4626 -8.2011 -2.5017 0.9621
5.4190 -7.6031 -2.5017 0.9621
6.2963 -6.8941 -2.5017 0.9621
7.7638 -5.1861 -2.5017 0.9621
8.3325 -4.2120 -2.5017 0.9621
8.7797 -3.1764 -2.5017 0.9621
9.0986 -2.0945 -2.5017 0.9621
6.2364 -0.6596 -1.6803 0.9744
8.7103 1.1955 -2.3558 0.9642
8.4800 2.2312 -2.3495 0.9643
6.4704 5.9179 -2.3495 0.9643
4.8518 5.6551 -1.9965 0.9696
3.7761 5.6618 -1.8235 0.9722
2.8597 5.6674 -1.7009 0.9741
1.3026 5.6770 -1.5607 0.9762
0.5968 5.6813 -1.5307 0.9766
-0.0923 5.6855 -1.5236 0.9767
-2.9627 5.4263 -1.6566 0.9747
-3.7476 5.2421 -1.7266 0.9737
-7.2984 4.8602 -2.3495 0.9643
-5.4518 2.7461 -1.6357 0.9750
-7.8130 2.8141 -2.2251 0.9662
-8.5479 1.9549 -2.3495 0.9643
-9.2862 0.9688 -2.5017 0.9621
-9.2481 -1.2827 -2.5017 0.9621
-7.6105 -2.0141 -2.1094 0.9679
-4.9449 -3.5404 -1.6296 0.9751
-6.8806 -6.3111 -2.5017 0.9621
-5.1695 -7.7749 -2.5017 0.9621
