ply
format ascii 1.0
element vertex 767
property float32 x
property float32 y
property float32 z
property float32 I
end_header
51.0546 -34.1811 16.4629 0.7754
43.6920 17.0946 12.5714 0.8234
3.8403 5.6614 1.8330 0.9721
2.9147 5.6581 1.7054 0.9740
1.3588 5.6766 1.5640 0.9761
0.6538 5.6810 1.5323 0.9766
-0.0328 5.6852 1.5234 0.9767
-0.7215 5.6894 1.5367 0.9765
-1.4327 5.6938 1.5732 0.9760
-3.0219 5.7036 1.7295 0.9736
-3.9700 5.7094 1.8633 0.9716
-20.0889 22.5403 8.0902 0.8825
-22.3731 19.7211 7.9913 0.8838
-16.9034 -43.9106 12.6075 0.8230
46.1108 16.7606 13.1462 0.8161
26.2495 17.5513 8.4609 0.8774
26.7213 29.2232 10.6103 0.8488
3.0925 5.6611 1.7285 0.9736
2.2626 5.6711 1.6360 0.9750
1.5053 5.6757 1.5734 0.9760
0.7940 5.6801 1.5368 0.9765
-0.5813 5.6886 1.5322 0.9766
-1.2862 5.6929 1.5638 0.9761
-2.0318 5.6975 1.6208 0.9753
-2.8461 5.7025 1.7077 0.9740
-3.7667 5.7081 1.8325 0.9721
-19.6954 23.2107 8.1566 0.8816
-22.4497 20.7796 8.1967 0.8810
-26.5974 19.2471 8.7970 0.8729
-43.5382 -9.5590 11.9439 0.8314
-57.1104 -28.0714 17.0513 0.7683
-13.6878 -14.6088 5.3641 0.9204
17.6800 -44.3914 11.0315 0.8219
55.2479 -47.5184 16.8238 0.7414
51.0546 -34.1811 14.1846 0.7771
26.7903 24.1703 8.3302 0.8623
4.9237 5.6547 1.7310 0.9697
3.8403 5.6614 1.5794 0.9723
2.9147 5.6581 1.4694 0.9742
2.1047 5.6720 1.3967 0.9755
0.6538 5.6810 1.3202 0.9768
-0.0328 5.6852 1.3125 0.9769
-0.7215 5.6894 1.3240 0.9767
-2.1897 5.6984 1.4094 0.9753
-3.9700 5.7094 1.6054 0.9719
-5.5943 2.9249 1.4574 0.9744
-30.0020 0.0090 6.9265 0.8841
-70.6259 -36.8722 18.3937 0.7210
-17.9985 -33.9210 8.8654 0.8542
-17.2346 -44.7710 11.0756 0.8212
-10.9572 -43.4366 10.3423 0.8320
22.5920 -94.6312 22.4613 0.6707
16.9219 -45.6881 11.2482 0.8187
51.3410 11.9278 12.1687 0.8054
46.1108 16.7606 11.3270 0.8176
26.7832 23.0081 8.1517 0.8651
5.1692 5.6532 1.7685 0.9690
1.5053 5.6757 1.3556 0.9762
-1.2862 5.6929 1.3474 0.9763
-2.8461 5.7025 1.4714 0.9742
-3.7667 5.7081 1.5789 0.9723
-19.6954 23.2107 7.0278 0.8825
-27.8477 20.1519 7.9359 0.8684
-67.0044 -23.4373 16.3882 0.7472
-58.2918 -28.6521 14.9955 0.7659
-26.3762 -35.9866 10.3008 0.8326
23.9559 -90.5420 18.2052 0.6827
17.0914 -42.9134 8.9788 0.8284
52.1601 -44.8626 13.3732 0.7555
54.1840 -27.4963 11.8108 0.7807
43.6920 17.0946 9.1198 0.8260
26.2553 18.4941 6.2425 0.8773
6.2586 5.6465 1.6385 0.9662
2.9147 5.6581 1.2372 0.9744
2.1047 5.6720 1.1760 0.9756
1.3588 5.6766 1.1346 0.9765
0.6538 5.6810 1.1116 0.9770
-0.0328 5.6852 1.1051 0.9771
-1.4327 5.6938 1.1413 0.9764
-2.1897 5.6984 1.1866 0.9754
-3.9700 5.7094 1.3517 0.9721
-5.0946 5.7163 1.4884 0.9693
-28.7529 19.7604 6.7816 0.8675
-5.5929 2.9242 1.2268 0.9746
-27.0164 -3.2594 5.2895 0.8950
-72.5229 -37.8625 15.9025 0.7165
-64.7796 -44.4624 15.2725 0.7260
-24.0680 -34.5691 8.1878 0.8423
-14.0540 -36.5087 7.6042 0.8526
-11.7004 -91.8240 17.9931 0.6858
30.9149 -45.6333 10.7141 0.7988
51.1271 -27.5275 11.2870 0.7893
21.8973 2.3722 4.2813 0.9142
51.7916 12.0325 10.3354 0.8052
33.7908 17.1221 7.3634 0.8570
2.2626 5.6711 1.1868 0.9754
1.5053 5.6757 1.1414 0.9764
0.1053 5.6843 1.1051 0.9771
-0.5813 5.6886 1.1115 0.9770
-1.2862 5.6929 1.1345 0.9765
-2.8461 5.7025 1.2388 0.9744
-3.7667 5.7081 1.3293 0.9725
-6.1829 5.7230 1.6377 0.9663
-25.3316 -34.5613 8.3293 0.8398
14.6389 -55.3280 9.0646 0.7931
23.9940 -43.9853 7.9357 0.8163
33.0265 -46.2864 9.0059 0.7943
41.2850 -45.2048 9.6963 0.7804
52.8296 -45.4384 11.0366 0.7541
51.5083 -34.4849 9.8177 0.7780
54.9464 -27.8832 9.7591 0.7792
55.5283 -6.0491 8.8469 0.7975
55.5695 0.6587 8.8020 0.7985
51.2991 13.2399 8.3912 0.8069
43.6921 17.0946 7.4309 0.8270
31.1331 16.7384 5.5985 0.8666
6.2586 5.6465 1.3351 0.9664
3.8403 5.6614 1.0835 0.9727
2.1047 5.6720 0.9582 0.9758
1.3588 5.6766 0.9245 0.9766
0.6538 5.6810 0.9057 0.9771
-1.4327 5.6938 0.9299 0.9765
-2.1897 5.6984 0.9669 0.9756
-6.4948 5.7249 1.3713 0.9655
-5.5919 2.9237 0.9994 0.9748
-89.9599 22.1126 14.6724 0.6872
-30.1318 0.0090 4.7724 0.8851
-88.9177 -33.5491 15.0523 0.6805
-13.3307 -34.6296 5.8772 0.8605
16.2732 -43.9366 7.4209 0.8272
23.1945 -45.0933 8.0315 0.8144
39.1837 -45.0559 9.4573 0.7852
51.4970 -36.3203 9.9809 0.7748
70.5380 -27.6468 11.9996 0.7358
55.5612 -0.6919 8.8007 0.7985
51.2909 11.9162 8.3400 0.8080
46.1108 16.7606 7.7707 0.8198
33.7908 17.1221 5.9998 0.8578
4.0438 5.6601 1.1018 0.9722
-0.5813 5.6886 0.9057 0.9771
-1.2862 5.6929 0.9244 0.9766
-2.0318 5.6975 0.9581 0.9758
-2.8461 5.7025 1.0094 0.9745
-85.3757 23.1999 14.0126 0.6989
-67.7278 -14.8697 10.9825 0.7552
-73.2470 -36.0030 12.9269 0.7185
41.2847 -45.2044 7.5168 0.7814
52.7945 -45.4082 8.5502 0.7553
55.6206 -20.2549 7.2682 0.7878
55.5283 -6.0491 6.8583 0.7984
52.6714 7.0049 6.5242 0.8072
51.7999 13.3691 6.5686 0.8061
43.6921 17.0946 5.7607 0.8277
31.1331 16.7384 4.3401 0.8672
26.3558 18.5649 3.9583 0.8782
4.9237 5.6547 0.9206 0.9702
3.8403 5.6614 0.8400 0.9728
2.9147 5.6581 0.7815 0.9747
2.1047 5.6720 0.7428 0.9759
1.3588 5.6766 0.7167 0.9768
-0.0328 5.6852 0.6981 0.9773
-0.7215 5.6894 0.7042 0.9772
-1.4327 5.6938 0.7209 0.9766
-2.1897 5.6984 0.7496 0.9757
-3.0219 5.7036 0.7925 0.9743
-5.0946 5.7163 0.9402 0.9696
-8.3468 5.7363 1.2435 0.9600
-5.5918 2.9237 0.7748 0.9749
-30.1604 0.0090 3.7032 0.8855
-46.7807 -11.4693 5.9141 0.8236
-30.8099 -34.5280 5.6819 0.8299
-14.0540 -36.5087 4.8034 0.8541
-10.4506 -41.4284 5.2461 0.8418
-11.1069 -87.1668 10.7893 0.7018
13.0065 -54.4804 6.8773 0.7979
30.5798 -45.1387 6.6944 0.8027
39.3565 -45.2545 7.3639 0.7853
50.0066 -45.1705 8.2741 0.7622
51.2481 -36.1447 7.7001 0.7767
51.1271 -27.5275 7.1297 0.7914
54.4974 -21.3598 7.1870 0.7899
70.7234 -18.2983 8.9697 0.7450
55.5612 -0.6919 6.8226 0.7994
51.7042 5.6012 6.3856 0.8109
51.7917 12.0325 6.5286 0.8071
46.1108 16.7606 6.0241 0.8206
6.5707 5.6446 1.0636 0.9657
5.1692 5.6532 0.9406 0.9696
4.0438 5.6601 0.8541 0.9724
2.2626 5.6711 0.7497 0.9757
1.5053 5.6757 0.7210 0.9766
0.7940 5.6801 0.7042 0.9772
0.1053 5.6843 0.6981 0.9773
-1.2862 5.6929 0.7166 0.9768
-2.0318 5.6975 0.7427 0.9759
-6.1829 5.7230 1.0345 0.9666
-7.9233 5.7337 1.2009 0.9614
-88.9040 -19.5190 11.1760 0.6929
-25.3316 -34.5614 5.2614 0.8414
14.4015 -54.4310 4.9260 0.7977
17.1530 -43.0683 4.0558 0.8302
51.0601 -34.1848 5.3759 0.7814
54.2838 -27.5469 5.3257 0.7832
55.4486 -20.1923 5.1628 0.7890
55.6282 -6.0600 4.8956 0.7988
55.5768 0.6588 4.8627 0.8000
46.3100 6.1589 4.0873 0.8290
31.1331 16.7384 3.0925 0.8677
26.2554 18.4941 2.8097 0.8790
6.2586 5.6465 0.7375 0.9667
3.8403 5.6614 0.5985 0.9729
2.1047 5.6720 0.5293 0.9760
1.3588 5.6766 0.5107 0.9768
0.6538 5.6810 0.5003 0.9773
-0.7215 5.6894 0.5017 0.9772
-1.4327 5.6938 0.5137 0.9767
-2.1897 5.6984 0.5341 0.9758
-3.9700 5.7094 0.6084 0.9725
-6.4948 5.7249 0.7575 0.9658
-5.5917 2.9236 0.5520 0.9750
-46.7669 -11.4659 4.2127 0.8242
-52.9553 -27.6467 5.2264 0.7867
-25.4795 -36.5964 3.9014 0.8361
-19.2897 -36.3544 3.6006 0.8477
13.8041 -57.8211 5.2009 0.7877
15.8583 -42.8164 3.9946 0.8325
30.5677 -45.1208 4.7681 0.8035
38.7482 -44.5551 5.1660 0.7889
48.7778 -44.0605 5.7507 0.7680
51.1271 -27.5275 5.0802 0.7920
54.6755 -21.4297 5.1378 0.7899
55.6198 -7.4309 4.9093 0.7983
55.5685 -0.6920 4.8620 0.8000
51.3410 11.9278 4.6114 0.8093
33.7908 17.1221 3.3142 0.8589
6.5707 5.6446 0.7579 0.9658
2.2626 5.6711 0.5342 0.9758
1.5053 5.6757 0.5137 0.9767
0.7940 5.6801 0.5018 0.9772
-0.5813 5.6886 0.5003 0.9773
-1.2862 5.6929 0.5106 0.9768
-2.0318 5.6975 0.5292 0.9760
-2.8461 5.7025 0.5576 0.9747
-3.7667 5.7081 0.5983 0.9729
-6.1829 5.7230 0.7371 0.9667
-7.9233 5.7337 0.8557 0.9615
-10.3731 5.7487 1.0376 0.9535
-21.4049 5.8165 1.9406 0.9148
-34.2482 -36.5528 4.3823 0.8178
-26.3762 -35.9866 3.9035 0.8360
12.7691 -91.7444 4.8545 0.6900
14.5144 -54.8576 2.9739 0.7967
17.5730 -44.1228 2.4890 0.8268
32.2147 -45.1487 2.9067 0.8008
51.5083 -34.4849 3.2486 0.7801
43.8501 -22.2522 2.5770 0.8212
60.5732 -22.0585 3.3784 0.7724
43.4806 5.7826 2.2988 0.8389
21.5146 5.5528 1.1645 0.9148
26.2554 18.4941 1.6831 0.8793
4.9237 5.6547 0.3929 0.9704
2.1047 5.6720 0.3171 0.9761
0.6538 5.6810 0.2997 0.9774
-0.7215 5.6894 0.3006 0.9773
-5.0946 5.7163 0.4013 0.9698
-6.4898 5.7205 0.4534 0.9659
-8.3468 5.7363 0.5308 0.9602
-23.7211 5.8308 1.2802 0.9068
-30.2170 0.0090 1.5836 0.8860
-46.7460 -11.4608 2.5224 0.8247
-30.8099 -34.5280 2.4252 0.8308
-8.3718 -65.7014 3.4711 0.7670
13.7449 -57.5733 3.1021 0.7889
30.5797 -45.1385 2.8574 0.8038
25.6552 -29.5000 2.0489 0.8550
30.1952 -27.2750 2.1325 0.8496
51.4970 -36.3203 3.3026 0.7769
44.0377 4.7707 2.3214 0.8374
23.8394 5.5385 1.2826 0.9066
44.4486 16.1564 2.4786 0.8274
26.2496 17.5514 1.6549 0.8812
6.5654 5.6400 0.4536 0.9659
5.1692 5.6532 0.4015 0.9698
4.0438 5.6601 0.3646 0.9725
3.0925 5.6611 0.3381 0.9745
1.5053 5.6757 0.3077 0.9768
0.7940 5.6801 0.3006 0.9773
-2.0282 5.6874 0.3164 0.9761
-2.8413 5.6929 0.3334 0.9748
-3.7569 5.6933 0.3575 0.9730
-19.6954 23.2107 1.5953 0.8852
-7.9233 5.7337 0.5126 0.9616
-10.3731 5.7487 0.6215 0.9536
-14.2166 5.7723 0.8041 0.9404
-32.3423 -34.5186 2.4790 0.8274
-25.3316 -34.5614 2.2457 0.8423
21.4779 -53.9272 1.0132 0.7928
22.9707 -42.1094 0.8373 0.8254
31.7226 -27.2844 0.7304 0.8459
40.8370 -27.3405 0.8578 0.8215
76.0114 -27.6805 1.4120 0.7235
40.1919 5.3452 0.7077 0.8503
21.4944 5.5475 0.3875 0.9150
25.9334 10.1465 0.4861 0.8946
31.1331 16.7384 0.6170 0.8681
26.3257 18.5437 0.5621 0.8791
4.9237 5.6547 0.1309 0.9704
2.9147 5.6581 0.1111 0.9749
1.3588 5.6766 0.1019 0.9769
-1.4265 5.6694 0.1020 0.9769
-3.9373 5.6624 0.1204 0.9728
-6.4948 5.7249 0.1511 0.9660
-8.3468 5.7363 0.1768 0.9603
-30.2452 0.0091 0.5279 0.8860
-46.7252 -11.4557 0.8397 0.8249
-71.9946 -37.5867 1.4176 0.7226
-11.0065 -86.3788 1.5199 0.7058
25.5884 -37.7709 0.7963 0.8332
30.1952 -27.2750 0.7102 0.8498
41.3303 -22.2528 0.8193 0.8288
41.9043 4.5396 0.7357 0.8448
46.1109 16.7606 0.8564 0.8218
33.7908 17.1221 0.6612 0.8594
26.3199 17.5984 0.5526 0.8810
6.7538 5.8019 0.1554 0.9650
4.0438 5.6601 0.1214 0.9726
2.2626 5.6711 0.1066 0.9759
0.7940 5.6801 0.1001 0.9773
0.1053 5.6843 0.0992 0.9775
-1.2823 5.6758 0.1016 0.9770
-2.8341 5.6784 0.1108 0.9749
-3.7355 5.6609 0.1184 0.9732
-19.6954 23.2107 0.5313 0.8853
-6.1829 5.7230 0.1471 0.9669
22.8533 -41.8943 -0.8330 0.8262
25.6159 -35.9005 -0.7698 0.8383
31.7226 -27.2844 -0.7304 0.8459
43.5384 5.7903 -0.7667 0.8389
31.1331 16.7384 -0.6170 0.8681
6.6273 5.9792 -0.1558 0.9649
4.9237 5.6547 -0.1309 0.9704
3.8403 5.6614 -0.1194 0.9730
2.1047 5.6720 -0.1056 0.9761
1.3588 5.6766 -0.1019 0.9769
0.6538 5.6810 -0.0998 0.9774
-0.0328 5.6852 -0.0992 0.9775
-0.7215 5.6894 -0.1001 0.9773
-1.4264 5.6690 -0.1020 0.9769
-2.9966 5.6558 -0.1117 0.9747
-3.9147 5.6300 -0.1197 0.9729
-5.0946 5.7163 -0.1337 0.9698
-6.4948 5.7249 -0.1511 0.9660
-8.3468 5.7363 -0.1768 0.9603
-15.2886 5.7789 -0.2853 0.9367
-23.2974 5.7266 -0.4188 0.9085
-30.2734 0.0091 -0.5284 0.8859
-81.6588 -9.8517 -1.4357 0.7196
-46.7278 -11.4563 -0.8398 0.8249
-81.7338 -30.8386 -1.5248 0.7051
-66.2630 -34.5944 -1.3048 0.7415
-20.4616 -22.9309 -0.5364 0.8843
-6.6206 -51.9580 -0.9143 0.8110
22.3266 -93.5193 -1.6783 0.6807
25.6042 -37.7943 -0.7968 0.8331
30.1952 -27.2750 -0.7102 0.8498
70.5382 -27.6469 -1.3224 0.7385
41.0793 4.4502 -0.7212 0.8476
46.1109 16.7607 -0.8564 0.8218
3.0925 5.6611 -0.1126 0.9745
2.2626 5.6711 -0.1066 0.9759
1.5053 5.6757 -0.1025 0.9768
0.7940 5.6801 -0.1001 0.9773
0.1053 5.6843 -0.0992 0.9775
-1.2823 5.6758 -0.1016 0.9770
-2.0182 5.6592 -0.1049 0.9762
-2.8268 5.6638 -0.1105 0.9750
-3.7144 5.6290 -0.1177 0.9734
-19.6954 23.2107 -0.5313 0.8853
-7.9233 5.7337 -0.1707 0.9616
-21.2768 5.7817 -0.3849 0.9156
-35.3916 5.1669 -0.6243 0.8667
-63.2846 1.5574 -1.1050 0.7763
-76.0469 -7.3045 -1.3335 0.7367
-65.5069 -32.1986 -1.2741 0.7468
-69.4883 -45.2502 -1.4474 0.7177
-21.7229 -23.1846 -0.5546 0.8806
15.7870 -39.6385 -2.2359 0.8429
21.4695 -39.3574 -2.3496 0.8356
25.5119 -35.7548 -2.3019 0.8387
25.7680 -28.2145 -2.0025 0.8581
37.2540 -24.9416 -2.3496 0.8356
32.5514 -16.5186 -1.9130 0.8640
44.8549 -16.3345 -2.5018 0.8260
46.4917 -10.8305 -2.5018 0.8260
47.4558 -5.1697 -2.5018 0.8260
41.3541 5.4998 -2.1864 0.8461
20.5599 8.0441 -1.1570 0.9154
6.6273 5.9792 -0.4678 0.9649
4.9237 5.6547 -0.3929 0.9704
3.8403 5.6614 -0.3585 0.9730
2.9147 5.6581 -0.3336 0.9748
2.1047 5.6720 -0.3171 0.9761
1.3588 5.6766 -0.3059 0.9769
0.6538 5.6810 -0.2997 0.9774
-1.4264 5.6690 -0.3064 0.9769
-2.1695 5.6460 -0.3170 0.9761
-2.9889 5.6413 -0.3346 0.9748
-5.0946 5.7163 -0.4013 0.9698
-8.3468 5.7363 -0.5308 0.9602
-15.2886 5.7789 -0.8566 0.9366
-22.9764 5.6477 -1.2400 0.9096
-30.3017 0.0091 -1.5880 0.8857
-44.5097 -5.3698 -2.3496 0.8356
-43.5429 -10.6754 -2.3496 0.8356
-44.6632 -16.8517 -2.5018 0.8260
-42.3167 -22.0925 -2.5018 0.8260
-33.6497 -29.6251 -2.3496 0.8356
-20.2363 -22.6784 -1.5929 0.8854
-12.3285 -23.2350 -1.3785 0.9000
-7.2891 -28.8956 -1.5618 0.8875
5.4296 -47.4268 -2.5018 0.8260
25.5511 -29.3802 -2.0406 0.8556
28.5930 -25.8278 -2.0193 0.8570
39.4745 -21.2536 -2.3496 0.8356
39.2245 -15.3738 -2.2079 0.8447
41.0592 4.4480 -2.1644 0.8475
23.8393 5.5385 -1.2826 0.9066
20.5514 7.4701 -1.1460 0.9161
5.1692 5.6532 -0.4015 0.9698
3.0925 5.6611 -0.3381 0.9745
0.1053 5.6843 -0.2980 0.9775
-0.5813 5.6886 -0.2997 0.9774
-1.2823 5.6758 -0.3050 0.9770
-2.0132 5.6452 -0.3141 0.9763
-2.8194 5.6490 -0.3309 0.9750
-19.4434 22.9137 -1.5749 0.8866
-21.1840 5.7565 -1.1505 0.9158
-30.9063 4.5121 -1.6369 0.8824
-42.8411 -21.0576 -2.5018 0.8260
-40.0027 -26.0494 -2.5018 0.8260
-21.5324 -22.9813 -1.6505 0.8815
-16.2991 -22.2379 -1.4450 0.8954
3.9419 -28.3223 -2.5018 0.8915
7.3140 -27.6441 -2.5018 0.8915
13.6938 -25.1032 -2.5018 0.8915
18.1106 -19.8301 -2.3496 0.8978
23.7616 -15.9084 -2.5018 0.8915
25.4999 -12.9402 -2.5018 0.8915
26.8691 -9.7847 -2.5018 0.8915
27.8496 -6.4877 -2.5018 0.8915
28.4271 -3.0968 -2.5018 0.8915
21.0736 14.8441 -2.2552 0.9017
4.9237 5.6547 -0.6560 0.9703
3.8403 5.6614 -0.5985 0.9729
2.9147 5.6581 -0.5568 0.9748
2.1047 5.6720 -0.5293 0.9760
1.3588 5.6766 -0.5107 0.9768
0.6538 5.6810 -0.5003 0.9773
-0.0328 5.6852 -0.4974 0.9774
-1.4264 5.6690 -0.5114 0.9768
-2.1651 5.6344 -0.5281 0.9761
-2.9813 5.6268 -0.5571 0.9748
-3.8811 5.5816 -0.5948 0.9731
-6.4948 5.7249 -0.7575 0.9658
-5.5912 2.9234 -0.5520 0.9750
-22.3506 5.4939 -2.0136 0.9117
-28.3895 -3.4250 -2.5018 0.8915
-26.7543 -10.0945 -2.5018 0.8915
-25.3487 -13.2340 -2.5018 0.8915
-21.4627 -18.8957 -2.5018 0.8915
-15.2839 -21.9524 -2.3402 0.8982
-12.1274 -22.8560 -2.2637 0.9013
-9.3628 -24.3222 -2.2801 0.9006
-3.3946 -26.6403 -2.3496 0.8978
-0.1823 -28.5947 -2.5018 0.8915
6.6402 -27.8137 -2.5018 0.8915
9.9318 -26.8151 -2.5018 0.8915
19.9355 -18.0076 -2.3503 0.8977
23.3680 -16.4812 -2.5018 0.8915
25.1779 -13.5561 -2.5018 0.8915
26.6234 -10.4349 -2.5018 0.8915
28.5931 -0.3560 -2.5018 0.8915
23.8394 5.5385 -2.1412 0.9064
21.0689 14.0874 -2.2174 0.9032
3.0925 5.6611 -0.5644 0.9744
2.2626 5.6711 -0.5342 0.9758
1.5053 5.6757 -0.5137 0.9767
0.7940 5.6801 -0.5018 0.9772
0.1053 5.6843 -0.4974 0.9774
-1.2823 5.6758 -0.5091 0.9769
-2.0119 5.6415 -0.5240 0.9762
-2.8121 5.6343 -0.5509 0.9750
-6.1829 5.7230 -0.7371 0.9667
-7.9233 5.7337 -0.8557 0.9615
-10.2374 5.6735 -1.0240 0.9541
-21.0828 5.7290 -1.9114 0.9160
-28.4643 -2.7341 -2.5018 0.8915
-27.9301 -6.1321 -2.5018 0.8915
-25.6628 -12.6140 -2.5018 0.8915
-21.9155 -18.3685 -2.5018 0.8915
-13.3212 -18.1749 -1.9715 0.9135
2.8088 -20.1807 -2.5018 0.9212
5.2116 -19.6975 -2.5018 0.9212
9.7574 -17.8870 -2.5018 0.9212
11.8345 -16.5860 -2.5018 0.9212
13.7404 -15.0450 -2.5018 0.9212
15.4475 -13.2863 -2.5018 0.9212
16.9311 -11.3354 -2.5018 0.9212
18.9687 2.5227 -2.3496 0.9258
18.5285 4.7821 -2.3496 0.9258
17.8203 6.9722 -2.3496 0.9258
8.0125 5.6439 -1.2034 0.9613
6.6273 5.9792 -1.0960 0.9647
4.9237 5.6547 -0.9206 0.9702
3.8403 5.6614 -0.8400 0.9728
-0.0328 5.6852 -0.6981 0.9773
-1.4264 5.6690 -0.7178 0.9767
-2.1651 5.6344 -0.7411 0.9760
-6.4948 5.7249 -1.0630 0.9657
-15.2886 5.7789 -2.0068 0.9363
-20.3712 0.0061 -2.5013 0.9212
-20.2286 -2.4405 -2.5018 0.9212
-18.0619 -9.4297 -2.5018 0.9212
-16.7990 -11.5302 -2.5018 0.9212
-7.3095 -18.9882 -2.4982 0.9213
-2.5754 -20.2118 -2.5018 0.9212
-0.1299 -20.3748 -2.5018 0.9212
4.7314 -19.8183 -2.5018 0.9212
7.0768 -19.1068 -2.5018 0.9212
9.3198 -18.1189 -2.5018 0.9212
13.3707 -15.3745 -2.5018 0.9212
15.1200 -13.6578 -2.5018 0.9212
19.7257 -5.1036 -2.5018 0.9212
19.0244 2.0610 -2.3496 0.9258
18.6393 4.3304 -2.3496 0.9258
17.9845 6.5371 -2.3496 0.9258
17.0935 8.6614 -2.3529 0.9257
8.4537 5.6524 -1.2486 0.9598
5.1692 5.6532 -0.9406 0.9696
4.0438 5.6601 -0.8541 0.9724
2.2626 5.6711 -0.7497 0.9757
0.7940 5.6801 -0.7042 0.9772
0.1053 5.6843 -0.6981 0.9773
-0.5813 5.6886 -0.7021 0.9772
-1.2823 5.6758 -0.7145 0.9768
-2.0119 5.6415 -0.7354 0.9762
-2.8047 5.6196 -0.7712 0.9750
-7.9233 5.7337 -1.2009 0.9614
-10.0808 5.5867 -1.4151 0.9546
-18.4660 5.0179 -2.3496 0.9258
-18.9350 2.7643 -2.3496 0.9258
-13.9312 -14.8686 -2.5018 0.9212
-12.0450 -16.4338 -2.5018 0.9212
4.0402 -15.2701 -2.5018 0.9380
5.8445 -14.6745 -2.5018 0.9380
7.5642 -13.8666 -2.5018 0.9380
10.6520 -11.6633 -2.5018 0.9380
13.1255 -8.7875 -2.5018 0.9380
15.3836 -3.5837 -2.5018 0.9380
15.7944 0.1872 -2.5018 0.9380
14.7051 1.9557 -2.3496 0.9417
14.3639 3.7072 -2.3496 0.9417
13.8148 5.4051 -2.3496 0.9417
13.0659 7.0248 -2.3496 0.9417
3.8403 5.6614 -1.0835 0.9727
1.3588 5.6766 -0.9245 0.9766
0.6538 5.6810 -0.9057 0.9771
-0.0328 5.6852 -0.9005 0.9772
-0.7215 5.6894 -0.9083 0.9770
-1.4264 5.6690 -0.9259 0.9766
-2.1651 5.6344 -0.9560 0.9759
-5.0946 5.7163 -1.2128 0.9695
-6.4948 5.7249 -1.3713 0.9655
-14.4058 3.5410 -2.3496 0.9417
-14.7267 1.7856 -2.3496 0.9417
-15.7955 0.0047 -2.5018 0.9380
-15.3412 -3.7612 -2.5018 0.9380
-5.7781 -3.0166 -1.0324 0.9739
-13.0231 -8.9386 -2.5018 0.9380
-11.8556 -10.4376 -2.5018 0.9380
-10.5165 -11.7856 -2.5018 0.9380
-9.0253 -12.9631 -2.5018 0.9380
-7.4035 -13.9530 -2.5018 0.9380
-5.6746 -14.7410 -2.5018 0.9380
-3.8635 -15.3157 -2.5018 0.9380
-1.9966 -15.6688 -2.5018 0.9380
1.7966 -15.6930 -2.5018 0.9380
3.6679 -15.3637 -2.5018 0.9380
8.8593 -13.0771 -2.5018 0.9380
10.3654 -11.9188 -2.5018 0.9380
11.7215 -10.5879 -2.5018 0.9380
13.9078 -7.4881 -2.5018 0.9380
14.7063 -5.7640 -2.5018 0.9380
15.2920 -3.9565 -2.5018 0.9380
13.9421 5.0678 -2.3496 0.9417
12.3413 8.2518 -2.3514 0.9416
4.0438 5.6601 -1.1018 0.9722
3.0925 5.6611 -1.0217 0.9742
2.2626 5.6711 -0.9671 0.9756
1.5053 5.6757 -0.9300 0.9765
0.7940 5.6801 -0.9084 0.9770
0.1053 5.6843 -0.9005 0.9772
-0.5813 5.6886 -0.9057 0.9771
-1.2823 5.6758 -0.9216 0.9767
-6.1829 5.7230 -1.3344 0.9665
-7.9233 5.7337 -1.5490 0.9612
-14.6790 2.1430 -2.3496 0.9417
-15.7232 -1.5103 -2.5018 0.9380
-15.4281 -3.3873 -2.5018 0.9380
-14.9097 -5.2152 -2.5018 0.9380
-10.7999 -11.5266 -2.5018 0.9380
3.2920 -12.4423 -2.5018 0.9489
6.1634 -11.2987 -2.5018 0.9489
8.6794 -9.5035 -2.5018 0.9489
10.6949 -7.1602 -2.5018 0.9489
11.4772 -5.8242 -2.5018 0.9489
12.0935 -4.4040 -2.5018 0.9489
12.7948 -1.3938 -2.5018 0.9489
2.1047 5.6720 -1.1760 0.9756
-0.0328 5.6852 -1.1051 0.9771
-1.4203 5.6445 -1.1314 0.9766
-2.1520 5.6005 -1.1662 0.9758
-3.8156 5.4875 -1.2992 0.9731
-5.0946 5.7163 -1.4884 0.9693
-6.4948 5.7249 -1.6829 0.9653
-5.5909 2.9232 -1.2264 0.9746
-11.7381 2.8853 -2.3496 0.9519
-12.4327 1.5075 -2.4344 0.9502
-12.5003 -3.0647 -2.5018 0.9489
-5.9213 -2.2341 -1.2302 0.9745
-5.1489 -2.6881 -1.1290 0.9766
-5.0375 -3.4575 -1.1876 0.9754
-9.6601 -8.5048 -2.5018 0.9489
-7.3540 -10.5626 -2.5018 0.9489
-6.0325 -11.3692 -2.5018 0.9489
-3.1481 -12.4795 -2.5018 0.9489
-1.6268 -12.7672 -2.5018 0.9489
-0.0821 -12.8702 -2.5018 0.9489
2.9887 -12.5186 -2.5018 0.9489
4.4702 -12.0692 -2.5018 0.9489
7.2187 -10.6555 -2.5018 0.9489
10.5177 -7.4180 -2.5018 0.9489
11.3323 -6.1015 -2.5018 0.9489
12.4602 -3.2238 -2.5018 0.9489
12.8695 -0.1602 -2.5018 0.9489
11.7739 2.7354 -2.3496 0.9519
11.3603 4.1293 -2.3496 0.9519
4.0438 5.6601 -1.3522 0.9721
2.2626 5.6711 -1.1868 0.9754
1.5053 5.6757 -1.1414 0.9764
0.1053 5.6843 -1.1051 0.9771
-1.2771 5.6526 -1.1265 0.9767
-2.0006 5.6099 -1.1577 0.9760
-2.7750 5.5601 -1.2079 0.9750
-3.6299 5.5009 -1.2811 0.9735
-4.5312 5.3400 -1.3613 0.9719
-7.9233 5.7337 -1.9011 0.9609
-11.6645 3.1697 -2.3496 0.9519
-11.9607 1.7462 -2.3496 0.9519
-12.8666 0.3167 -2.5018 0.9489
-12.8115 -1.2306 -2.5018 0.9489
-6.3134 -2.2083 -1.3001 0.9731
-9.8640 -8.2675 -2.5018 0.9489
2.7717 -10.4759 -2.5018 0.9565
7.3077 -8.0015 -2.5018 0.9565
8.2156 -7.0662 -2.5018 0.9565
9.6633 -4.9037 -2.5018 0.9565
10.1822 -3.7080 -2.5018 0.9565
10.5538 -2.4586 -2.5018 0.9565
10.7726 -1.1735 -2.5018 0.9565
10.8356 0.1284 -2.5018 0.9565
9.8542 2.5433 -2.3496 0.9591
9.4775 3.7081 -2.3496 0.9591
8.3202 5.8607 -2.3496 0.9591
3.8403 5.6614 -1.5794 0.9723
2.9147 5.6581 -1.4694 0.9742
2.1047 5.6720 -1.3967 0.9755
-1.4109 5.6074 -1.3349 0.9765
-8.3873 5.7642 -2.3496 0.9591
-5.5908 2.9232 -1.4565 0.9744
-7.9351 2.9994 -1.9585 0.9658
-10.7438 1.3027 -2.4986 0.9565
-10.8363 0.0032 -2.5018 0.9565
-10.5246 -2.5803 -2.5018 0.9565
-4.8293 -2.5212 -1.2577 0.9779
-8.1334 -7.1606 -2.5018 0.9565
-7.2147 -8.0854 -2.5018 0.9565
-6.1917 -8.8932 -2.5018 0.9565
-3.8930 -10.1129 -2.5018 0.9565
-0.0691 -10.8361 -2.5018 0.9565
3.7637 -10.1617 -2.5018 0.9565
6.0778 -8.9714 -2.5018 0.9565
9.5413 -5.1371 -2.5018 0.9565
10.0891 -3.9543 -2.5018 0.9565
10.4909 -2.7143 -2.5018 0.9565
10.8355 -0.1349 -2.5018 0.9565
10.6363 1.1523 -2.4699 0.9570
9.9131 2.3031 -2.3496 0.9591
8.4602 5.6568 -2.3496 0.9591
6.7538 5.8019 -2.0556 0.9641
5.1692 5.6532 -1.7685 0.9690
4.0438 5.6601 -1.6060 0.9718
0.1053 5.6843 -1.3126 0.9769
-0.5813 5.6886 -1.3201 0.9768
-1.2727 5.6330 -1.3333 0.9766
-1.9832 5.5612 -1.3631 0.9761
-4.4365 5.2284 -1.5831 0.9722
-6.1829 5.7230 -1.9451 0.9660
-8.9015 4.9332 -2.3496 0.9591
-9.8210 2.6687 -2.3496 0.9591
-10.6903 1.5607 -2.4942 0.9566
-10.8331 0.2666 -2.5018 0.9565
-4.6821 -3.0489 -1.2899 0.9773
-8.3050 -6.9608 -2.5018 0.9565
-7.4091 -7.9077 -2.5018 0.9565
-6.4060 -8.7401 -2.5018 0.9565
1.2871 -9.2476 -2.5018 0.9621
2.3882 -9.0261 -2.5018 0.9621
3.4547 -8.6741 -2.5018 0.9621
4.4712 -8.1965 -2.5018 0.9621
6.2964 -6.8942 -2.5018 0.9621
7.0786 -6.0883 -2.5018 0.9621
7.7585 -5.1943 -2.5018 0.9621
8.3260 -4.2251 -2.5018 0.9621
8.7731 -3.1948 -2.5018 0.9621
9.0932 -2.1183 -2.5018 0.9621
8.7154 1.1591 -2.3558 0.9642
8.1659 3.1949 -2.3496 0.9643
4.9237 5.6547 -2.0091 0.9694
3.8403 5.6614 -1.8330 0.9721
1.3588 5.6766 -1.5640 0.9761
-0.0328 5.6852 -1.5234 0.9767
-0.7215 5.6894 -1.5367 0.9765
-2.8863 5.4475 -1.6519 0.9748
-3.7048 5.3280 -1.7389 0.9735
-6.5780 5.7983 -2.3496 0.9643
-5.5144 2.8832 -1.6674 0.9746
-9.2688 1.1239 -2.5018 0.9621
-9.3367 0.0028 -2.5018 0.9621
-9.0682 -2.2232 -2.5018 0.9621
-7.0078 -6.1697 -2.5018 0.9621
-5.3349 -7.6625 -2.5018 0.9621
-4.3762 -8.2476 -2.5018 0.9621
-3.3542 -8.7134 -2.5018 0.9621
-2.2837 -9.0531 -2.5018 0.9621
-1.1802 -9.2618 -2.5018 0.9621
1.0620 -9.2761 -2.5018 0.9621
2.1681 -9.0815 -2.5018 0.9621
4.2707 -8.3027 -2.5018 0.9621
7.6299 -5.3813 -2.5018 0.9621
9.3360 -0.1162 -2.5018 0.9621
7.2894 4.8739 -2.3496 0.9643
6.6514 5.7139 -2.3496 0.9643
5.1692 5.6532 -2.0526 0.9688
4.0438 5.6601 -1.8639 0.9716
3.0925 5.6611 -1.7285 0.9736
0.1053 5.6843 -1.5234 0.9767
-0.5813 5.6886 -1.5322 0.9766
-2.7248 5.4595 -1.6349 0.9750
-3.5486 5.3776 -1.7264 0.9737
-4.3442 5.1196 -1.7991 0.9726
-7.1038 5.1407 -2.3496 0.9643
-8.1245 3.2988 -2.3496 0.9643
-9.3339 0.2297 -2.5018 0.9621
-9.2939 -0.8927 -2.5018 0.9621
-4.6128 -2.2673 -1.3772 0.9789
-6.3838 -6.8133 -2.5018 0.9621
