ply
format ascii 1.0
element vertex 590
property float32 x
property float32 y
property float32 z
property float32 I
end_header
19.9188 0.2831 5.3378 0.9208
43.6455 17.1613 12.5663 0.8235
24.0935 21.7817 8.7029 0.8742
24.8598 28.5966 10.1530 0.8548
3.8356 5.6614 1.8323 0.9721
2.9168 5.6671 1.7078 0.9740
0.6557 5.6809 1.5323 0.9766
-0.7171 5.6894 1.5365 0.9765
-2.1817 5.6984 1.6350 0.9750
-3.0114 5.7035 1.7282 0.9736
-21.2861 23.9744 8.5905 0.8757
-27.8781 19.2550 9.0784 0.8691
-31.9649 0.1198 8.5650 0.8760
-47.3598 -11.4159 13.0535 0.8173
-21.7112 -40.3843 12.2856 0.8271
-17.1897 -43.9088 12.6348 0.8226
43.1150 -85.3350 25.6182 0.6731
19.7266 -0.4282 5.2870 0.9215
47.2313 16.6393 13.4180 0.8127
34.1436 16.8678 10.2043 0.8541
25.6558 16.7721 8.2131 0.8808
24.3096 20.4398 8.5103 0.8768
3.1783 5.6654 1.7406 0.9735
2.3382 5.6706 1.6435 0.9749
0.1744 5.6839 1.5237 0.9767
49.2287 -53.4803 16.7814 0.7420
49.1650 -32.6694 13.6280 0.7848
31.7584 17.1346 8.3311 0.8623
24.2894 17.1544 6.8652 0.8851
24.8220 22.4403 7.7253 0.8716
1.3594 5.6766 1.3476 0.9763
0.6557 5.6809 1.3203 0.9768
-0.0297 5.6852 1.3125 0.9769
-0.7171 5.6894 1.3239 0.9767
-1.4267 5.6937 1.3551 0.9762
-3.0114 5.7035 1.4890 0.9739
-5.0752 5.7162 1.7648 0.9691
-24.1736 21.3989 7.4534 0.8759
-29.3389 20.2640 8.2320 0.8638
-7.3651 2.8073 1.8197 0.9682
-32.0458 0.1201 7.3984 0.8767
-48.4286 -11.6735 11.5008 0.8151
-38.3033 -42.4951 13.2079 0.7907
-20.3752 -28.9408 8.1713 0.8648
-17.5265 -44.7692 11.0996 0.8209
16.0298 -44.2303 10.8613 0.8244
49.0503 -35.1957 13.9378 0.7805
19.9397 1.9692 4.6258 0.9210
49.3774 10.9680 11.6775 0.8125
47.2313 16.6393 11.5611 0.8142
34.1436 16.8678 8.7921 0.8553
24.4101 20.5243 7.3629 0.8773
24.8349 26.5773 8.3978 0.8613
4.1384 5.6595 1.6187 0.9716
2.3382 5.6706 1.4161 0.9751
0.1744 5.6839 1.3128 0.9769
-0.5102 5.6881 1.3185 0.9768
49.1120 -32.6342 11.4618 0.7864
19.9451 2.6959 3.9122 0.9213
49.8397 12.9648 10.0103 0.8107
31.7584 17.1346 7.0144 0.8633
24.2894 17.1544 5.7802 0.8859
2.9168 5.6671 1.2389 0.9744
2.1039 5.6721 1.1759 0.9756
0.6557 5.6809 1.1116 0.9770
-0.0297 5.6852 1.1051 0.9771
-1.4267 5.6937 1.1410 0.9764
-2.1817 5.6984 1.1861 0.9754
-3.0114 5.7035 1.2537 0.9741
-3.9558 5.7093 1.3501 0.9721
-7.5261 2.8687 1.5656 0.9677
-32.1258 0.1204 6.2447 0.8773
-48.4565 -11.6803 9.6888 0.8162
-38.3336 -42.5287 11.1293 0.7919
-24.3365 -34.5674 8.2174 0.8418
-17.4213 -32.4049 7.1515 0.8608
-14.4261 -36.8497 7.6922 0.8511
20.9174 -90.3303 18.0230 0.6854
15.4938 -42.7513 8.8389 0.8309
39.8365 -46.5242 11.9056 0.7791
49.2791 -45.2266 13.0015 0.7614
49.0462 -35.1928 11.7340 0.7819
50.1074 -27.5212 11.1123 0.7922
25.6558 16.7721 5.9581 0.8826
24.8349 26.5773 7.0706 0.8622
4.1384 5.6595 1.3628 0.9718
3.1783 5.6654 1.2627 0.9739
2.3382 5.6706 1.1923 0.9753
-0.5102 5.6881 1.1101 0.9770
41.0068 -44.5484 9.5899 0.7825
49.1546 -41.9625 10.2364 0.7697
49.1120 -32.6341 9.3393 0.7876
54.8380 -27.6045 9.7238 0.7799
54.0308 -19.4910 9.0974 0.7925
53.5321 -12.3125 8.7000 0.8005
53.7478 0.7638 8.5137 0.8044
53.6524 7.2518 8.5750 0.8031
49.3889 12.8475 8.0828 0.8133
43.6455 17.1613 7.4279 0.8270
24.2894 17.1544 4.7098 0.8865
3.8356 5.6614 1.0831 0.9727
2.9168 5.6671 1.0095 0.9745
2.1039 5.6721 0.9582 0.9758
0.6557 5.6809 0.9057 0.9771
-0.7170 5.6894 0.9082 0.9770
-1.4267 5.6937 0.9297 0.9765
-3.0114 5.7035 1.0215 0.9742
-3.9558 5.7093 1.1001 0.9723
-5.0752 5.7162 1.2107 0.9695
-10.9337 5.7522 1.9568 0.9512
-91.5564 22.7966 14.9439 0.6824
-32.9542 -36.5606 7.7958 0.8193
-25.7637 -36.5946 7.0884 0.8342
-18.9422 -35.2338 6.3358 0.8504
-12.6374 -48.8786 7.9962 0.8151
15.7530 -43.4664 7.3226 0.8292
30.7816 -46.1753 8.7895 0.7987
39.3097 -45.9090 9.5726 0.7829
53.5195 -14.3510 8.7761 0.7990
53.5607 -7.6486 8.5693 0.8032
53.6006 -1.1635 8.4915 0.8048
53.7137 5.3045 8.5488 0.8037
49.3774 10.9680 8.0112 0.8148
34.1436 16.8678 6.0317 0.8571
25.6558 16.7721 4.8547 0.8833
3.1783 5.6654 1.0289 0.9740
2.3382 5.6706 0.9715 0.9755
1.5766 5.6753 0.9329 0.9764
0.8632 5.6797 0.9099 0.9770
0.1744 5.6839 0.9007 0.9772
-1.2109 5.6924 0.9218 0.9767
27.0520 -17.9756 3.9880 0.8773
53.6684 -19.3603 7.0053 0.7946
53.5728 -5.6963 6.6150 0.8048
43.6455 17.1613 5.7584 0.8278
24.0935 21.7818 3.9880 0.8773
4.8943 5.6300 0.9160 0.9704
3.8356 5.6614 0.8396 0.9728
1.3594 5.6766 0.7167 0.9768
-0.0297 5.6852 0.6981 0.9773
-0.7171 5.6894 0.7041 0.9772
-1.4267 5.6937 0.7207 0.9766
-3.0114 5.7035 0.7919 0.9743
-5.0752 5.7162 0.9386 0.9697
-8.3048 5.7360 1.2393 0.9601
-48.6310 -11.7223 6.1421 0.8174
-75.4906 -38.9958 10.4327 0.7100
-31.0888 -34.4911 5.7014 0.8293
12.1877 -52.6317 6.6334 0.8044
15.1819 -41.8906 5.4709 0.8356
22.1431 -43.8266 6.0291 0.8205
39.0231 -45.5742 7.3669 0.7852
49.2791 -45.2266 8.2127 0.7637
53.6006 -1.1635 6.5829 0.8057
49.8390 4.9219 6.1492 0.8172
24.4102 20.5244 3.9159 0.8794
3.1783 5.6654 0.7976 0.9742
2.3382 5.6706 0.7531 0.9756
0.1744 5.6839 0.6982 0.9773
-1.2109 5.6924 0.7146 0.9768
49.1120 -32.6342 5.1588 0.7892
53.5421 -26.9521 5.2443 0.7861
49.8044 -17.9664 4.6322 0.8085
53.6319 -12.3355 4.8147 0.8017
43.8504 5.9270 3.8713 0.8372
3.8356 5.6614 0.5983 0.9729
0.6557 5.6809 0.5003 0.9773
-0.7171 5.6894 0.5017 0.9772
-2.1817 5.6984 0.5338 0.9758
-3.0114 5.7035 0.5643 0.9744
-3.9558 5.7093 0.6077 0.9725
-5.0752 5.7162 0.6688 0.9698
-6.4670 5.7247 0.7556 0.9659
-8.3048 5.7360 0.8830 0.9603
-7.5245 2.8681 0.7045 0.9682
-45.9125 -11.0670 4.1319 0.8273
-32.9542 -36.5606 4.3062 0.8207
-25.7637 -36.5947 3.9155 0.8355
-14.4261 -36.8497 3.4622 0.8531
-11.6496 -87.1634 7.6936 0.7025
12.4505 -53.7666 4.8284 0.8012
15.5219 -42.8289 3.9855 0.8328
22.1334 -43.8074 4.2941 0.8211
37.7152 -44.0467 5.0732 0.7923
49.0960 -35.2285 5.2867 0.7846
53.2557 -21.4022 5.0214 0.7942
53.6194 -14.3778 4.8568 0.8002
47.1267 4.6541 4.1431 0.8268
47.2315 16.6393 4.3811 0.8179
34.1436 16.8678 3.3318 0.8582
24.3097 20.4399 2.7787 0.8803
2.3382 5.6706 0.5366 0.9757
0.8632 5.6797 0.5026 0.9772
-0.5102 5.6881 0.4996 0.9773
31.9625 -27.2859 2.2024 0.8451
49.1120 -32.6342 3.0903 0.7896
58.6084 -21.1424 3.2653 0.7791
58.5568 -13.4682 3.1490 0.7861
58.4621 0.8308 3.0642 0.7912
31.7584 17.1346 1.8912 0.8654
24.0935 21.7818 1.7022 0.8780
4.5247 6.6785 0.4228 0.9682
1.3594 5.6766 0.3059 0.9769
-0.7171 5.6894 0.3005 0.9773
-1.4267 5.6937 0.3076 0.9768
-6.4632 5.7213 0.4524 0.9660
-8.3048 5.7360 0.5290 0.9604
-10.9337 5.7522 0.6475 0.9517
-67.7094 -46.0202 4.2905 0.7204
-14.7185 -27.3774 1.6290 0.8829
-13.5387 -34.5829 1.9464 0.8618
15.8728 -43.7971 2.4414 0.8298
23.6469 -35.4726 2.2342 0.8430
23.7086 -27.6888 1.9104 0.8641
29.7158 -27.2721 2.1138 0.8508
49.5440 -35.5500 3.1958 0.7833
48.6895 4.8084 2.5641 0.8220
49.4776 10.9902 2.6562 0.8163
47.2315 16.6393 2.6244 0.8183
34.1436 16.8678 1.9958 0.8585
25.6558 16.7721 1.6064 0.8845
6.2309 6.6680 0.4783 0.9641
3.1783 5.6654 0.3404 0.9743
2.3382 5.6706 0.3215 0.9757
1.5766 5.6753 0.3087 0.9767
0.8632 5.6797 0.3011 0.9773
-0.5102 5.6881 0.2993 0.9774
25.0778 -27.2436 0.6463 0.8623
31.9625 -27.2859 0.7335 0.8452
76.6043 -27.6342 1.4215 0.7220
39.2820 5.3095 0.6919 0.8534
21.3500 5.5538 0.3851 0.9155
23.9825 12.9393 0.4757 0.8967
24.2894 17.1544 0.5190 0.8878
4.8943 5.6300 0.1302 0.9706
4.3565 6.4303 0.1356 0.9694
1.3594 5.6766 0.1019 0.9769
0.6557 5.6809 0.0998 0.9774
-0.0297 5.6852 0.0992 0.9775
-1.4267 5.6937 0.1025 0.9768
-3.9397 5.6861 0.1207 0.9727
-10.9216 5.7458 0.2154 0.9518
-23.3972 5.8257 0.4209 0.9080
-48.7464 -11.7501 0.8752 0.8182
-67.5892 -45.9384 1.4261 0.7211
-30.7662 -34.1332 0.8021 0.8321
-14.7185 -27.3774 0.5426 0.8831
-14.2920 -36.5072 0.6843 0.8548
-13.0799 -50.5903 0.9121 0.8114
-11.6496 -87.1635 1.5350 0.7034
21.2706 -42.0997 0.8233 0.8280
23.6607 -35.4932 0.7446 0.8431
68.7675 -27.6360 1.2936 0.7434
49.3774 10.9680 0.8829 0.8168
24.3800 20.4990 0.5560 0.8804
24.8350 26.5774 0.6349 0.8646
2.3382 5.6706 0.1071 0.9758
0.1744 5.6839 0.0993 0.9775
-1.2109 5.6924 0.1016 0.9770
31.9625 -27.2859 -0.7335 0.8452
54.8380 -27.6045 -1.0716 0.7822
77.6716 -28.0192 -1.4413 0.7187
66.1627 0.9402 -1.1550 0.7674
24.8220 22.4404 -0.5841 0.8747
4.8943 5.6300 -0.1302 0.9706
4.3565 6.4303 -0.1356 0.9694
2.1039 5.6721 -0.1056 0.9761
1.3594 5.6766 -0.1019 0.9769
0.6557 5.6809 -0.0998 0.9774
-0.0297 5.6852 -0.0992 0.9775
-2.1817 5.6984 -0.1065 0.9759
-3.0089 5.6987 -0.1125 0.9745
-3.9285 5.6699 -0.1204 0.9728
-5.0280 5.6630 -0.1322 0.9702
-10.9216 5.7458 -0.2154 0.9518
-7.5243 2.8680 -0.1406 0.9683
-23.2636 5.7924 -0.4185 0.9085
-65.1870 8.1174 -1.1466 0.7689
-32.3533 0.1212 -0.5647 0.8786
-48.7798 -11.7582 -0.8758 0.8181
-83.7060 -31.1896 -1.5592 0.6995
-68.5870 -35.4296 -1.3475 0.7343
-67.5577 -45.9170 -1.4258 0.7212
-12.9315 -24.0534 -0.4767 0.8965
-8.6532 -33.4689 -0.6034 0.8708
21.1620 -41.8847 -0.8191 0.8288
23.7086 -27.6888 -0.6363 0.8643
29.7158 -27.2721 -0.7040 0.8510
38.0792 -27.3235 -0.8181 0.8290
38.9628 -21.4001 -0.7759 0.8371
49.4776 10.9902 -0.8847 0.8165
47.2315 16.6393 -0.8741 0.8185
34.1436 16.8678 -0.6647 0.8587
3.1783 5.6654 -0.1134 0.9743
2.3382 5.6706 -0.1071 0.9758
1.5766 5.6753 -0.1028 0.9767
0.1744 5.6839 -0.0993 0.9775
25.0778 -27.2436 -1.9406 0.8622
30.2590 -25.8317 -2.0851 0.8527
44.9048 -16.1990 -2.5018 0.8260
47.4697 -5.0474 -2.5018 0.8260
47.7325 0.6783 -2.5018 0.8260
21.3500 5.5538 -1.1561 0.9154
18.4441 7.2522 -1.0387 0.9237
24.0175 21.7131 -1.6968 0.8784
4.3565 6.4303 -0.4071 0.9694
2.9168 5.6671 -0.3340 0.9748
2.1039 5.6721 -0.3170 0.9761
-0.0297 5.6852 -0.2980 0.9775
-0.7171 5.6894 -0.3005 0.9773
-1.4267 5.6937 -0.3076 0.9768
-2.1817 5.6984 -0.3198 0.9759
-3.0088 5.6987 -0.3377 0.9745
-3.9189 5.6560 -0.3606 0.9728
-8.3048 5.7360 -0.5290 0.9604
-7.5242 2.8680 -0.4220 0.9683
-23.0854 5.7480 -1.2468 0.9091
-44.5298 -5.2065 -2.3496 0.8356
-45.1425 -10.8814 -2.4336 0.8303
-42.4128 -21.9090 -2.5018 0.8260
-20.2513 -22.4676 -1.5852 0.8859
-15.6395 -22.2143 -1.4238 0.8969
-12.8210 -23.8480 -1.4190 0.8972
-10.1029 -25.8065 -1.4524 0.8949
-8.5351 -33.0121 -1.7870 0.8723
-5.9393 -44.4380 -2.3496 0.8356
10.7693 -46.5067 -2.5018 0.8260
14.7945 -40.8218 -2.2755 0.8404
20.2177 -40.0157 -2.3496 0.8356
29.6008 -27.1665 -2.1056 0.8514
38.6710 -21.2399 -2.3122 0.8380
47.7260 -1.0360 -2.5018 0.8260
44.6161 4.4061 -2.3496 0.8356
43.9027 9.7519 -2.3569 0.8352
18.4343 6.4943 -1.0243 0.9247
19.2284 9.4993 -1.1240 0.9177
24.3443 26.0522 -1.8687 0.8669
4.5271 6.1911 -0.4020 0.9697
2.3382 5.6706 -0.3215 0.9757
0.8632 5.6797 -0.3011 0.9773
-0.5102 5.6881 -0.2993 0.9774
-1.2109 5.6924 -0.3050 0.9770
28.4354 -3.0235 -2.5018 0.8915
19.8446 2.6823 -1.7519 0.9227
21.3500 5.5538 -1.9300 0.9152
18.8730 7.4208 -1.7742 0.9218
18.9385 10.2179 -1.8827 0.9172
19.0274 13.4381 -2.0380 0.9107
20.2536 18.3103 -2.3887 0.8962
4.8943 5.6300 -0.6527 0.9705
4.3565 6.4303 -0.6795 0.9693
2.9168 5.6671 -0.5576 0.9747
2.1039 5.6721 -0.5293 0.9760
1.3594 5.6766 -0.5107 0.9768
0.6557 5.6809 -0.5003 0.9773
-0.0297 5.6852 -0.4974 0.9774
-1.4267 5.6937 -0.5135 0.9767
-2.1817 5.6984 -0.5338 0.9758
-3.0089 5.6987 -0.5638 0.9745
-3.9189 5.6560 -0.6020 0.9727
-4.9980 5.6292 -0.6586 0.9702
-6.2846 5.5632 -0.7343 0.9669
-8.3048 5.7360 -0.8830 0.9603
-23.0501 5.7392 -2.0782 0.9090
-26.6503 3.3186 -2.3496 0.8978
-26.7960 -9.9844 -2.5018 0.8915
-25.4062 -13.1240 -2.5018 0.8915
-17.9807 -19.9485 -2.3496 0.8978
-15.4603 -21.9597 -2.3496 0.8978
-6.7225 -26.0011 -2.3496 0.8978
-3.7882 -28.3437 -2.5018 0.8915
3.0657 -28.4309 -2.5018 0.8915
9.7434 -26.8846 -2.5018 0.8915
12.8954 -25.5230 -2.5018 0.8915
14.8964 -22.3460 -2.3496 0.8978
19.7863 -18.1591 -2.3496 0.8978
23.2335 -16.6710 -2.5018 0.8915
26.5333 -10.6631 -2.5018 0.8915
28.3085 -4.0425 -2.5018 0.8915
26.7261 2.6394 -2.3496 0.8978
26.2171 5.8235 -2.3496 0.8978
18.8571 6.6432 -1.7492 0.9229
19.3886 9.5784 -1.8920 0.9168
19.8901 13.0028 -2.0790 0.9090
4.5271 6.1911 -0.6710 0.9697
3.1783 5.6654 -0.5683 0.9743
0.1744 5.6839 -0.4975 0.9774
-0.5102 5.6881 -0.4996 0.9773
15.4967 -13.2293 -2.5018 0.9212
16.9705 -11.2767 -2.5018 0.9212
19.1666 -6.9142 -2.5018 0.9212
19.8571 -4.5672 -2.5018 0.9212
18.9636 2.5632 -2.3496 0.9258
14.3109 12.9378 -2.3688 0.9252
4.8943 5.6300 -0.9160 0.9704
2.9168 5.6671 -0.7826 0.9746
2.1039 5.6721 -0.7428 0.9759
1.3594 5.6766 -0.7167 0.9768
0.6557 5.6809 -0.7022 0.9772
-2.1817 5.6984 -0.7492 0.9757
-10.8984 5.7337 -1.5120 0.9516
-7.5241 2.8680 -0.9887 0.9681
-18.9893 2.3647 -2.3496 0.9258
-20.3754 0.0764 -2.5018 0.9212
-20.2377 -2.3662 -2.5018 0.9212
-9.3450 -2.2525 -1.1803 0.9620
-15.3575 -13.3907 -2.5018 0.9212
-11.7296 -16.6607 -2.5018 0.9212
-9.6483 -17.9464 -2.5018 0.9212
-5.1003 -19.7269 -2.5018 0.9212
-2.6992 -20.1960 -2.5018 0.9212
-0.2593 -20.3739 -2.5018 0.9212
2.1844 -20.2581 -2.5018 0.9212
6.9426 -19.1563 -2.5018 0.9212
11.3018 -16.9538 -2.5018 0.9212
13.2523 -15.4771 -2.5018 0.9212
16.5547 -11.8787 -2.5018 0.9212
17.8591 -9.8090 -2.5018 0.9212
18.9060 -7.5979 -2.5018 0.9212
19.6803 -5.2772 -2.5018 0.9212
18.6807 4.1495 -2.3496 0.9258
18.0487 6.3584 -2.3496 0.9258
8.6463 5.6524 -1.2684 0.9592
14.7539 12.4052 -2.3668 0.9253
5.6279 6.0228 -1.0121 0.9673
4.5271 6.1911 -0.9417 0.9696
3.1783 5.6654 -0.7976 0.9742
2.3382 5.6706 -0.7531 0.9756
0.8632 5.6797 -0.7054 0.9771
0.1744 5.6839 -0.6982 0.9773
-0.5102 5.6881 -0.7012 0.9772
10.6978 -11.6217 -2.5018 0.9380
12.0135 -10.2558 -2.5018 0.9380
14.1090 -7.1022 -2.5018 0.9380
15.7072 -1.6701 -2.5018 0.9380
14.7011 1.9871 -2.3496 0.9417
13.0558 7.0440 -2.3496 0.9417
6.2694 5.6679 -1.3386 0.9664
1.3594 5.6766 -0.9245 0.9766
-0.7170 5.6894 -0.9082 0.9770
-1.4267 5.6937 -0.9297 0.9765
-2.1817 5.6984 -0.9664 0.9756
-3.9088 5.6414 -1.0870 0.9726
-6.1781 5.4689 -1.3068 0.9671
-8.3048 5.7360 -1.5986 0.9599
-14.3953 3.5843 -2.3496 0.9417
-8.8119 -2.1241 -1.4356 0.9640
-14.0339 -7.2494 -2.5018 0.9380
-13.0639 -8.8792 -2.5018 0.9380
-11.9056 -10.3809 -2.5018 0.9380
-5.7583 -14.7088 -2.5018 0.9380
-3.9539 -15.2929 -2.5018 0.9380
-2.0925 -15.6565 -2.5018 0.9380
1.6934 -15.7047 -2.5018 0.9380
7.1232 -14.0984 -2.5018 0.9380
8.7615 -13.1431 -2.5018 0.9380
10.2736 -11.9983 -2.5018 0.9380
12.8337 -9.2088 -2.5018 0.9380
13.8449 -7.6042 -2.5018 0.9380
15.2568 -4.0910 -2.5018 0.9380
15.6371 -2.2330 -2.5018 0.9380
14.4818 3.2168 -2.3496 0.9417
13.3003 6.5707 -2.3496 0.9417
5.6307 6.0258 -1.3062 0.9672
4.5271 6.1911 -1.2148 0.9694
2.3382 5.6706 -0.9715 0.9755
1.5766 5.6753 -0.9329 0.9764
0.1744 5.6839 -0.9007 0.9772
9.7888 -8.3566 -2.5018 0.9489
12.5432 -2.8850 -2.5018 0.9489
12.7985 -1.3608 -2.5018 0.9489
12.0115 1.6235 -2.3560 0.9518
11.2493 4.4232 -2.3496 0.9519
10.6381 5.7396 -2.3496 0.9519
9.8735 6.9732 -2.3496 0.9519
8.9713 8.1105 -2.3508 0.9519
4.8943 5.6300 -1.4501 0.9701
4.3565 6.4303 -1.5098 0.9688
2.9168 5.6671 -1.2389 0.9744
-3.0028 5.6872 -1.2501 0.9741
-6.0384 5.3453 -1.5675 0.9677
-8.3048 5.7360 -1.9619 0.9597
-10.6976 5.6279 -2.3496 0.9519
-11.7295 2.9205 -2.3496 0.9519
-12.8706 0.0482 -2.5018 0.9489
-12.7836 -1.4947 -2.5018 0.9489
-8.4664 -2.0408 -1.6928 0.9651
-9.7009 -8.4585 -2.5018 0.9489
-8.6172 -9.5602 -2.5018 0.9489
-6.0945 -11.3362 -2.5018 0.9489
-4.6919 -11.9850 -2.5018 0.9489
-3.2217 -12.4609 -2.5018 0.9489
-1.7050 -12.7572 -2.5018 0.9489
1.3798 -12.7965 -2.5018 0.9489
2.9036 -12.5389 -2.5018 0.9489
4.3854 -12.1005 -2.5018 0.9489
5.8041 -11.4877 -2.5018 0.9489
7.1391 -10.7092 -2.5018 0.9489
11.2811 -6.1961 -2.5018 0.9489
12.8676 -0.2793 -2.5018 0.9489
12.5812 1.2425 -2.4574 0.9498
11.8001 2.6211 -2.3496 0.9519
10.1175 6.6142 -2.3496 0.9519
5.6307 6.0258 -1.6031 0.9670
3.1783 5.6654 -1.2627 0.9739
1.5766 5.6753 -1.1449 0.9763
0.1744 5.6839 -1.1054 0.9771
9.0256 -5.9974 -2.5018 0.9565
10.1935 -3.6772 -2.5018 0.9565
10.5608 -2.4290 -2.5018 0.9565
10.7758 -1.1458 -2.5018 0.9565
10.8354 0.1540 -2.5018 0.9565
10.4646 1.4145 -2.4379 0.9576
8.9568 4.8325 -2.3496 0.9591
8.3130 5.8711 -2.3496 0.9591
7.5495 6.8251 -2.3496 0.9591
4.8943 5.6300 -1.7223 0.9698
4.3565 6.4303 -1.7932 0.9686
0.6557 5.6809 -1.3203 0.9768
-0.0297 5.6852 -1.3125 0.9769
-3.8338 5.5331 -1.5541 0.9727
-5.9030 5.2255 -1.8201 0.9682
-9.0068 4.7385 -2.3496 0.9591
-7.4349 2.8339 -1.8369 0.9679
-10.8364 0.0406 -2.5018 0.9565
-10.7632 -1.2584 -2.5018 0.9565
-6.7200 -2.5039 -1.6556 0.9710
-8.9624 -6.0915 -2.5018 0.9565
-8.1677 -7.1217 -2.5018 0.9565
-7.2553 -8.0493 -2.5018 0.9565
-6.2383 -8.8608 -2.5018 0.9565
-1.4356 -10.7410 -2.5018 0.9565
1.1618 -10.7740 -2.5018 0.9565
3.6923 -10.1880 -2.5018 0.9565
4.8868 -9.6721 -2.5018 0.9565
7.9838 -7.3272 -2.5018 0.9565
9.4981 -5.2168 -2.5018 0.9565
10.8339 -0.2352 -2.5018 0.9565
8.5185 5.5688 -2.3496 0.9591
5.6307 6.0258 -1.9040 0.9667
4.5271 6.1911 -1.7707 0.9690
3.1783 5.6654 -1.4997 0.9737
2.3382 5.6706 -1.4161 0.9751
1.5766 5.6753 -1.3599 0.9761
0.1744 5.6839 -1.3128 0.9769
-0.5102 5.6881 -1.3185 0.9768
6.3234 -6.8696 -2.5018 0.9621
8.3398 -4.1981 -2.5018 0.9621
8.7829 -3.1683 -2.5018 0.9621
9.0993 -2.0929 -2.5018 0.9621
9.3359 0.1327 -2.5018 0.9621
8.4864 2.2076 -2.3496 0.9643
8.1607 3.2088 -2.3496 0.9643
7.7173 4.1637 -2.3496 0.9643
7.1626 5.0586 -2.3496 0.9643
1.3594 5.6766 -1.5641 0.9761
-1.4267 5.6937 -1.5728 0.9760
-2.1817 5.6984 -1.6350 0.9750
-3.0028 5.6872 -1.7233 0.9737
-6.5659 5.8122 -2.3496 0.9643
-7.2151 4.9834 -2.3496 0.9643
-7.3977 2.8197 -2.1213 0.9677
-8.5090 2.1187 -2.3496 0.9643
-9.3368 0.0350 -2.5018 0.9621
-9.2737 -1.0843 -2.5018 0.9621
-9.0769 -2.1879 -2.5018 0.9621
-6.3981 -2.3840 -1.8295 0.9721
-7.7221 -5.2485 -2.5018 0.9621
-7.0374 -6.1361 -2.5018 0.9621
-2.3372 -9.0396 -2.5018 0.9621
-1.2369 -9.2546 -2.5018 0.9621
-0.1188 -9.3361 -2.5018 0.9621
3.1814 -8.7781 -2.5018 0.9621
6.0727 -7.0922 -2.5018 0.9621
7.5860 -5.4433 -2.5018 0.9621
8.1837 -4.4949 -2.5018 0.9621
8.6634 -3.4816 -2.5018 0.9621
9.0183 -2.4182 -2.5018 0.9621
9.2431 -1.3199 -2.5018 0.9621
9.3347 -0.2026 -2.5018 0.9621
9.2418 0.9127 -2.4884 0.9623
8.5602 1.9014 -2.3496 0.9643
8.2706 2.9137 -2.3496 0.9643
7.8618 3.8839 -2.3496 0.9643
4.5271 6.1911 -2.0551 0.9687
3.1783 5.6654 -1.7406 0.9735
2.3382 5.6706 -1.6435 0.9749
0.8632 5.6797 -1.5393 0.9765
0.1744 5.6839 -1.5237 0.9767
-1.2109 5.6924 -1.5594 0.9762
