ply
format ascii 1.0
element vertex 770
property float32 x
property float32 y
property float32 z
property float32 I
end_header
49.4287 -32.5089 15.8522 0.7827
24.5487 17.6389 8.0997 0.8823
25.0204 29.2998 10.3239 0.8525
3.7606 5.6619 1.8212 0.9722
2.0407 5.6724 1.6153 0.9753
-1.4970 5.6942 1.5776 0.9759
-2.2601 5.6989 1.6427 0.9749
-3.1016 5.7040 1.7397 0.9735
-21.3951 23.4786 8.5113 0.8767
-24.1330 20.7982 8.5365 0.8764
-29.6336 -34.0715 12.0994 0.8294
-16.2495 -43.9146 12.5466 0.8237
-14.7793 -62.0239 17.0846 0.7679
44.3712 16.9021 12.7226 0.8215
32.7375 17.2285 9.9125 0.8580
24.5446 16.9696 7.9955 0.8838
3.9046 5.6534 1.8410 0.9719
2.9786 5.6667 1.7154 0.9738
2.1573 5.6717 1.6260 0.9752
0.6994 5.6807 1.5336 0.9766
-0.6771 5.6891 1.5352 0.9766
-1.3869 5.6935 1.5702 0.9760
-3.9090 5.7090 1.8539 0.9718
-23.9232 21.3856 8.5981 0.8756
-17.1590 -43.9090 12.6318 0.8227
49.4860 -53.3257 16.7955 0.7418
24.6492 17.7111 7.0074 0.8828
4.8293 5.6553 1.7169 0.9699
2.8491 5.6675 1.4645 0.9743
0.5951 5.6813 1.3188 0.9768
-0.7821 5.6898 1.3259 0.9767
-4.0636 5.7099 1.6180 0.9716
-5.2097 5.7170 1.7857 0.9687
-24.1330 20.7982 7.3551 0.8774
-36.9672 -42.5033 13.0049 0.7935
-24.7916 -36.6006 10.2059 0.8340
-16.5679 -44.7751 11.0221 0.8220
-11.7363 -49.2534 11.6894 0.8123
16.5936 -42.9748 10.6354 0.8277
24.4733 -45.9968 12.0288 0.8074
49.5920 12.3186 11.7972 0.8108
44.3712 16.9021 10.9619 0.8229
24.5446 16.9696 6.8890 0.8847
24.5743 21.7892 7.5825 0.8739
5.0085 5.6542 1.7439 0.9695
3.9046 5.6534 1.5862 0.9722
1.4030 5.6597 1.3462 0.9763
0.0115 5.6849 1.3125 0.9769
-0.6771 5.6891 1.3227 0.9768
-2.1410 5.6981 1.4053 0.9753
-3.9090 5.7090 1.5974 0.9720
-5.0219 5.7158 1.7566 0.9692
-29.0546 20.2622 8.1778 0.8647
-7.2192 2.7835 1.7863 0.9687
-49.1362 -11.7335 11.6629 0.8127
-72.8346 -37.4907 18.9121 0.7144
-38.6428 -42.8357 13.3188 0.7891
-16.7775 -31.2271 8.1840 0.8646
-11.9179 -46.2770 11.0325 0.8219
49.3668 -32.4682 11.4853 0.7860
55.4354 -27.5540 12.0332 0.7770
86.7789 12.3288 17.0375 0.6997
50.0988 13.4137 10.0812 0.8095
25.0821 23.0654 6.6236 0.8704
3.7606 5.6619 1.3212 0.9727
-0.0916 5.6855 1.1053 0.9771
-3.1016 5.7040 1.2621 0.9739
-5.2097 5.7170 1.5035 0.9690
-6.6107 5.6972 1.6963 0.9651
-29.6202 19.8681 6.9329 0.8647
-67.5726 -17.4371 13.5651 0.7525
-23.2726 -34.3580 8.0664 0.8444
-18.4681 -35.9215 7.8512 0.8482
-12.1709 -51.0773 10.2064 0.8074
16.4170 -42.5174 8.8592 0.8305
23.3018 -43.7951 9.6429 0.8170
39.5007 -56.5829 13.4135 0.7549
41.8194 -46.7362 12.1905 0.7745
50.7528 -44.5479 13.1266 0.7594
49.3614 -33.7627 11.6246 0.7837
52.9724 -27.5388 11.6051 0.7840
50.0928 12.4430 10.0330 0.8103
44.3713 16.9021 9.2295 0.8241
32.7376 17.2285 7.1909 0.8601
5.0085 5.6542 1.4682 0.9697
3.9046 5.6534 1.3355 0.9724
1.4030 5.6597 1.1334 0.9765
0.6994 5.6807 1.1125 0.9769
0.0115 5.6849 1.1050 0.9771
-0.6771 5.6891 1.1137 0.9769
-2.9684 5.7032 1.2498 0.9741
-6.3805 5.7037 1.6635 0.9657
-8.2243 5.7355 1.9490 0.9600
-48.3330 -11.5417 9.6591 0.8167
-38.6428 -42.8357 11.2139 0.7905
-24.3404 -34.5674 8.2179 0.8417
-10.3024 -19.1753 4.2312 0.9151
-14.3229 -36.6515 7.6490 0.8518
-13.0288 -50.5906 10.1547 0.8083
25.0587 -45.1049 8.1724 0.8114
32.6906 -45.0641 8.8177 0.7981
49.3668 -32.4682 9.3585 0.7872
56.3522 -28.0096 9.9670 0.7750
54.2830 -19.2508 9.1222 0.7920
53.7900 -12.0465 8.7305 0.7999
53.8310 -5.3923 8.5687 0.8032
53.9112 7.6592 8.6244 0.8021
49.6480 13.2930 8.1405 0.8121
24.5488 17.6390 4.7878 0.8848
25.0821 23.0654 5.3970 0.8711
3.7606 5.6619 1.0765 0.9728
2.8491 5.6675 1.0047 0.9746
14.1677 61.9433 10.0642 0.7731
0.5951 5.6813 0.9048 0.9771
-4.0636 5.7099 1.1100 0.9720
-6.6107 5.6972 1.3822 0.9653
-90.6368 -35.4701 15.4156 0.6742
-70.7025 -63.8440 15.0881 0.6799
-31.8046 -36.5677 7.6759 0.8218
-12.8150 -34.6328 5.8488 0.8611
16.9193 -43.8183 7.4395 0.8268
40.4443 -45.1995 9.6064 0.7822
49.8095 -34.0692 9.5579 0.7832
53.8249 -6.3795 8.5847 0.8029
53.9752 0.1355 8.5489 0.8036
53.9051 6.6634 8.6027 0.8025
49.6421 12.3311 8.1015 0.8129
44.3713 16.9021 7.5203 0.8251
24.5743 21.7892 5.2018 0.8755
3.9046 5.6534 1.0882 0.9726
2.9786 5.6667 1.0140 0.9744
2.1573 5.6717 0.9611 0.9757
0.6994 5.6807 0.9065 0.9771
0.0115 5.6849 0.9004 0.9772
-2.1410 5.6981 0.9641 0.9756
-3.9089 5.7090 1.0959 0.9724
-8.2243 5.7355 1.5881 0.9602
-10.8224 5.7515 1.9411 0.9516
-7.2904 2.8110 1.2375 0.9689
-91.1553 23.0354 14.8914 0.6833
-48.3605 -11.5483 7.8749 0.8176
-65.4132 -44.3542 12.5176 0.7261
-32.9818 -36.5604 7.7987 0.8192
-25.7679 -36.5946 7.0887 0.8342
-12.5911 -48.8910 7.9962 0.8151
41.9532 -45.2084 7.5728 0.7799
49.3124 -41.7249 7.9314 0.7708
27.3057 -17.9587 4.0128 0.8766
53.8968 -26.7892 7.3899 0.7846
53.7901 -12.0466 6.7682 0.8008
53.9112 7.6592 6.6859 0.8030
42.7213 17.1670 5.6532 0.8306
24.0765 22.1406 4.0162 0.8765
4.8293 5.6553 0.9131 0.9705
2.8491 5.6675 0.7789 0.9748
14.1677 61.9433 7.8021 0.7741
-2.2601 5.6989 0.7528 0.9756
-3.1016 5.7040 0.7972 0.9742
-4.0636 5.7099 0.8605 0.9722
-5.2097 5.7170 0.9497 0.9693
-6.6107 5.6972 1.0715 0.9654
-8.5538 5.7375 1.2647 0.9593
-23.3946 -34.5382 5.1220 0.8453
-14.0307 -37.9181 4.9643 0.8496
-10.7276 -94.1612 11.6364 0.6825
31.5632 -45.2129 6.7705 0.8007
40.6451 -45.4238 7.4842 0.7822
51.4832 -45.1890 8.4110 0.7588
49.8593 -34.1033 7.4170 0.7839
53.7837 -13.0738 6.7961 0.8001
53.8249 -6.3795 6.6551 0.8038
53.8649 0.1351 6.6138 0.8049
44.3713 16.9021 5.8300 0.8258
32.7376 17.2285 4.5423 0.8615
24.5446 16.9696 3.6639 0.8867
3.9046 5.6534 0.8436 0.9727
2.1573 5.6717 0.7451 0.9758
1.4030 5.6597 0.7160 0.9768
0.0115 5.6849 0.6980 0.9773
-1.3869 5.6935 0.7195 0.9767
-2.1410 5.6981 0.7474 0.9758
-2.9684 5.7032 0.7894 0.9744
-5.0219 5.7158 0.9342 0.9698
-6.3805 5.7037 1.0508 0.9661
-8.2243 5.7355 1.2311 0.9604
-10.8224 5.7515 1.5048 0.9518
-7.2899 2.8108 0.9593 0.9690
-74.9885 -38.5994 10.3556 0.7118
-31.1463 -34.5259 5.7093 0.8291
-12.1880 -47.3256 6.0005 0.8212
-11.5353 -87.1642 10.7957 0.7016
25.0586 -45.1047 4.5143 0.8129
41.9532 -45.2084 5.3959 0.7806
49.3124 -41.7249 5.6515 0.7715
49.3669 -32.4683 5.1694 0.7888
53.8899 -12.0689 4.8315 0.8011
53.8782 1.1124 4.7147 0.8054
40.2704 16.1821 3.7970 0.8401
4.8293 5.6553 0.6506 0.9706
3.7606 5.6619 0.5947 0.9731
14.1677 61.9433 5.5593 0.7748
0.5951 5.6813 0.4998 0.9773
-0.0916 5.6855 0.4975 0.9774
-0.7821 5.6898 0.5025 0.9772
-1.4970 5.6942 0.5151 0.9766
-2.2601 5.6989 0.5364 0.9757
-3.1016 5.7040 0.5680 0.9743
-11.3188 5.7545 1.1109 0.9503
-15.8473 5.7824 1.4759 0.9345
-31.8047 -36.5677 4.2400 0.8232
-18.8293 -36.6239 3.6028 0.8476
-14.0993 -38.1036 3.5545 0.8495
11.8281 -46.7110 4.2157 0.8241
16.5738 -42.9234 4.0255 0.8313
23.4209 -44.0189 4.3623 0.8186
31.5093 -45.1357 4.8159 0.8017
40.4097 -45.1607 5.3019 0.7840
51.5036 -45.2069 5.9956 0.7594
52.9725 -27.5389 5.2234 0.7868
53.8836 -13.0980 4.8515 0.8004
53.8722 0.1352 4.7132 0.8055
44.1519 5.4578 3.8922 0.8364
42.4461 16.1687 3.9739 0.8333
32.7376 17.2285 3.2366 0.8620
24.5446 16.9696 2.6106 0.8871
2.1573 5.6717 0.5309 0.9759
1.4030 5.6597 0.5101 0.9769
0.6994 5.6807 0.5007 0.9773
0.0115 5.6849 0.4974 0.9774
-0.6771 5.6891 0.5012 0.9773
-3.9090 5.7090 0.6053 0.9726
-10.8224 5.7515 1.0722 0.9520
-7.2898 2.8108 0.6835 0.9691
-48.3785 -11.5526 4.3516 0.8190
-32.9818 -36.5605 4.3078 0.8206
-25.7679 -36.5946 3.9157 0.8355
-19.6743 -36.6187 3.6368 0.8463
-14.3229 -36.6515 3.4427 0.8538
-13.0288 -50.5906 4.5705 0.8108
-11.5353 -87.1642 7.6924 0.7025
23.9324 -32.9909 2.1360 0.8494
49.3669 -32.4683 3.0966 0.7892
42.6648 -21.2064 2.4969 0.8263
58.8631 -20.8751 3.2731 0.7787
58.7628 -5.8863 3.0950 0.7893
41.7248 5.9279 2.2087 0.8447
40.2704 16.1821 2.2745 0.8404
31.3602 17.2370 1.8754 0.8665
24.5487 17.6390 1.5842 0.8860
5.6969 6.6713 0.4598 0.9655
2.0407 5.6724 0.3159 0.9761
14.3961 62.9420 3.3838 0.7721
0.5951 5.6813 0.2994 0.9774
-0.0916 5.6855 0.2980 0.9775
-1.4970 5.6942 0.3086 0.9767
-5.2019 5.7085 0.4048 0.9695
-8.5538 5.7375 0.5398 0.9596
-15.8473 5.7824 0.8841 0.9347
-25.0052 5.8387 1.3457 0.9023
-30.0347 -34.5327 2.3985 0.8325
-17.7667 -34.5571 2.0364 0.8559
-12.1709 -51.0774 2.7518 0.8103
-11.1864 -98.1883 5.1791 0.6731
20.1374 -79.5253 4.2993 0.7199
23.9245 -34.2708 2.1904 0.8459
31.0803 -27.2805 2.1673 0.8473
58.7230 0.1473 3.0775 0.7904
41.9677 5.1878 2.2162 0.8442
32.7376 17.2285 1.9388 0.8623
24.5626 21.7789 1.7204 0.8768
5.0950 5.7519 0.4027 0.9697
2.9786 5.6667 0.3355 0.9747
2.1573 5.6717 0.3180 0.9760
1.4030 5.6597 0.3056 0.9769
0.0115 5.6849 0.2979 0.9775
-1.3869 5.6935 0.3071 0.9768
-3.9041 5.7019 0.3622 0.9727
-5.0137 5.7064 0.3981 0.9700
-6.3805 5.7037 0.4485 0.9663
-10.8224 5.7515 0.6423 0.9521
-23.0572 5.8267 1.2464 0.9091
-67.4359 -45.7257 4.2699 0.7215
-20.0822 -28.5201 1.8280 0.8696
-18.5696 -34.5627 2.0562 0.8546
-13.5146 -34.5831 1.9459 0.8618
-12.1880 -47.3257 2.5612 0.8222
25.2831 -27.2449 0.6488 0.8618
32.2498 -27.2877 0.7374 0.8445
43.8551 -21.7980 0.8548 0.8221
20.7564 5.5574 0.3751 0.9176
24.6492 17.7112 0.5298 0.8857
25.0822 23.0654 0.5948 0.8726
3.7606 5.6619 0.1186 0.9732
2.8491 5.6675 0.1107 0.9749
13.9393 60.9449 1.0913 0.7787
-0.0916 5.6855 0.0993 0.9775
-0.7820 5.6898 0.1002 0.9773
-2.2601 5.6989 0.1070 0.9758
-3.0892 5.6813 0.1129 0.9745
-5.1685 5.6718 0.1339 0.9698
-6.6107 5.6972 0.1523 0.9657
-11.2860 5.7379 0.2210 0.9506
-24.9936 5.8359 0.4480 0.9024
-31.6787 -36.4228 0.8426 0.8244
-25.9405 -38.2967 0.8074 0.8311
-17.5598 -34.1548 0.6703 0.8576
21.9291 -86.6010 1.5593 0.6995
24.3736 -27.2393 0.6380 0.8640
31.0803 -27.2805 0.7218 0.8475
73.7403 -27.6666 1.3747 0.7297
22.3338 5.5477 0.4017 0.9120
24.2233 9.2272 0.4525 0.9015
24.5446 16.9696 0.5209 0.8875
5.0950 5.7518 0.1341 0.9697
3.9046 5.6534 0.1199 0.9729
2.9786 5.6667 0.1117 0.9747
2.1573 5.6717 0.1059 0.9760
0.6994 5.6807 0.0999 0.9774
0.0115 5.6849 0.0992 0.9775
-0.6771 5.6891 0.1000 0.9773
-2.1410 5.6981 0.1063 0.9759
-3.8930 5.6857 0.1203 0.9728
-4.9820 5.6704 0.1318 0.9703
-8.2243 5.7355 0.1750 0.9607
-67.4511 -45.7360 1.4225 0.7218
-11.5353 -87.1642 1.5347 0.7035
23.2802 -41.9037 -0.8367 0.8255
25.2831 -27.2449 -0.6488 0.8618
41.5771 -27.3450 -0.8686 0.8195
66.5791 1.3747 -1.1624 0.7661
20.7564 5.5574 -0.3751 0.9176
31.3602 17.2370 -0.6246 0.8666
25.0822 23.0654 -0.5948 0.8726
2.0407 5.6724 -0.1052 0.9762
12.4807 54.5673 -0.9771 0.7994
-0.7820 5.6898 -0.1002 0.9773
-1.4970 5.6942 -0.1028 0.9767
-2.2601 5.6989 -0.1070 0.9758
-4.0355 5.6705 -0.1215 0.9725
-6.6107 5.6972 -0.1523 0.9657
-8.5538 5.7375 -0.1798 0.9596
-15.8473 5.7824 -0.2945 0.9347
-24.6369 5.7527 -0.4416 0.9037
-64.9519 7.1017 -1.1405 0.7700
-65.8332 -16.9882 -1.1868 0.7619
-83.3736 -32.6277 -1.5628 0.6989
-72.1251 -50.8386 -1.5403 0.7026
-28.5022 -25.7373 -0.6703 0.8576
-19.5236 -22.4475 -0.5193 0.8878
-15.2991 -22.5866 -0.4762 0.8966
-12.4223 -24.1620 -0.4742 0.8970
-9.8653 -26.6612 -0.4962 0.8925
15.2654 -39.5349 -0.7397 0.8440
24.3736 -27.2393 -0.6380 0.8640
31.0803 -27.2805 -0.7218 0.8475
39.9642 -27.3351 -0.8451 0.8239
41.0472 -21.3393 -0.8075 0.8310
66.4236 0.1666 -1.1594 0.7666
41.8332 5.1712 -0.7358 0.8448
22.3338 5.5477 -0.4017 0.9120
3.9046 5.6534 -0.1199 0.9729
1.4030 5.6597 -0.1018 0.9769
0.6994 5.6807 -0.0999 0.9774
0.0115 5.6849 -0.0992 0.9775
-0.6771 5.6891 -0.1000 0.9773
-97.5268 0.6397 -1.7024 0.6769
-65.4081 -7.4838 -1.1491 0.7685
-68.3892 -35.2025 -1.3426 0.7351
-67.4663 -45.7463 -1.4228 0.7217
-20.5054 -22.7303 -0.5343 0.8847
-12.8388 -23.8962 -0.4735 0.8972
-8.4483 -63.8377 -1.1240 0.7729
20.9408 -37.6928 -2.2598 0.8414
22.1470 -30.5296 -1.9766 0.8598
25.2831 -27.2449 -1.9479 0.8617
30.9381 -15.3777 -1.8106 0.8708
20.1849 2.8677 -1.0685 0.9216
20.7564 5.5574 -1.1261 0.9175
18.7675 10.3155 -1.1223 0.9178
18.9211 13.5954 -1.2210 0.9109
24.5793 22.6030 -1.7500 0.8748
5.0120 5.8692 -0.4045 0.9696
3.7606 5.6619 -0.3562 0.9731
2.0407 5.6724 -0.3159 0.9761
10.6069 46.3751 -2.4932 0.8265
0.5951 5.6813 -0.2994 0.9774
-0.0916 5.6855 -0.2980 0.9775
-3.0892 5.6813 -0.3389 0.9744
-31.8528 -0.3688 -1.6694 0.8802
-44.4533 -17.3965 -2.5017 0.8260
-28.3195 -25.5723 -1.9997 0.8583
-19.3867 -22.2902 -1.5482 0.8884
-15.2161 -22.4640 -1.4219 0.8970
-8.0282 -33.6917 -1.8151 0.8705
0.3362 -47.7349 -2.5017 0.8260
11.7179 -46.2755 -2.5017 0.8260
16.1487 -41.8225 -2.3495 0.8356
21.0583 -39.5784 -2.3495 0.8356
24.3609 -27.2250 -1.9146 0.8639
30.9600 -27.1749 -2.1589 0.8479
37.0039 -25.3103 -2.3495 0.8356
30.8175 -16.0212 -1.8203 0.8701
46.3853 -11.2754 -2.5017 0.8260
47.7359 0.1198 -2.5017 0.8260
22.3338 5.5477 -1.2060 0.9119
18.7057 7.1254 -1.0490 0.9230
18.7582 9.8717 -1.1109 0.9186
18.9175 13.0792 -1.2053 0.9120
5.0950 5.7519 -0.4027 0.9697
3.9046 5.6534 -0.3601 0.9729
2.9786 5.6667 -0.3355 0.9747
2.1573 5.6717 -0.3180 0.9760
1.4030 5.6597 -0.3056 0.9769
0.6994 5.6807 -0.3000 0.9773
0.0115 5.6849 -0.2979 0.9775
-0.6771 5.6891 -0.3003 0.9773
-1.3869 5.6935 -0.3071 0.9768
-2.1410 5.6981 -0.3190 0.9759
-2.9602 5.6873 -0.3360 0.9746
-3.8710 5.6536 -0.3591 0.9729
-4.9513 5.6354 -0.3931 0.9704
-6.2658 5.6012 -0.4405 0.9669
-8.2243 5.7355 -0.5255 0.9606
-7.2896 2.8107 -0.4095 0.9692
-22.7670 5.7534 -1.2307 0.9102
-45.0128 0.2953 -2.3591 0.8350
-44.6268 -10.6566 -2.4045 0.8321
-44.7614 -16.5875 -2.5017 0.8260
-42.4433 -21.8472 -2.5017 0.8260
-20.2825 -22.4832 -1.5869 0.8858
-15.5824 -22.1295 -1.4184 0.8973
-12.7625 -23.7541 -1.4132 0.8976
-9.9196 -25.3837 -1.4283 0.8966
-5.8818 -44.4444 -2.3495 0.8356
-0.5295 -47.7331 -2.5017 0.8260
5.2114 -47.4507 -2.5017 0.8260
13.8504 -24.9303 -2.4951 0.8918
25.6063 -12.7275 -2.5017 0.8915
26.9504 -9.5576 -2.5017 0.8915
27.9038 -6.2492 -2.5017 0.8915
28.4526 -2.8501 -2.5017 0.8915
28.5889 0.5903 -2.5017 0.8915
20.7564 5.5574 -1.8799 0.9173
13.9922 5.6226 -1.3193 0.9412
19.2127 10.5602 -1.9181 0.9157
20.1025 18.4862 -2.3893 0.8961
3.7606 5.6619 -0.5947 0.9731
0.5951 5.6813 -0.4998 0.9773
-0.0916 5.6855 -0.4975 0.9774
-2.2601 5.6989 -0.5364 0.9757
-3.0892 5.6813 -0.5658 0.9744
-6.6107 5.6972 -0.7635 0.9656
-8.5538 5.7375 -0.9011 0.9595
-15.8473 5.7824 -1.4759 0.9345
-26.6963 2.9189 -2.3495 0.8978
-26.8536 -0.3109 -2.3495 0.8978
-28.3460 -3.7653 -2.5017 0.8915
-25.1830 -13.5459 -2.5017 0.8915
-23.3724 -16.4744 -2.5017 0.8915
-20.7423 -18.7302 -2.4451 0.8939
-15.0396 -22.2034 -2.3462 0.8979
0.2014 -28.5943 -2.5017 0.8915
3.6367 -28.3628 -2.5017 0.8915
7.0192 -27.7201 -2.5017 0.8915
15.3725 -22.0204 -2.3495 0.8978
17.9077 -20.0131 -2.3495 0.8978
25.3713 -13.1898 -2.5017 0.8915
26.7727 -10.0448 -2.5017 0.8915
26.6525 3.2946 -2.3495 0.8978
19.2893 13.3362 -2.0517 0.9101
5.0950 5.7519 -0.6723 0.9696
3.9046 5.6534 -0.6011 0.9728
2.9786 5.6667 -0.5601 0.9746
1.4030 5.6597 -0.5101 0.9769
-0.6771 5.6891 -0.5012 0.9773
-2.9602 5.6873 -0.5609 0.9746
-4.9366 5.6187 -0.6544 0.9704
-6.2219 5.5619 -0.7301 0.9670
-7.2895 2.8106 -0.6835 0.9691
-22.7425 5.7472 -2.0523 0.9101
-26.8548 0.1761 -2.3495 0.8978
-28.4097 -3.2506 -2.5017 0.8915
-23.6673 -16.0479 -2.5017 0.8915
-17.9886 -19.9404 -2.3495 0.8978
-15.4616 -21.9579 -2.3495 0.8978
-12.6190 -23.4871 -2.3327 0.8985
3.1217 -28.4241 -2.5017 0.8915
11.9641 -16.4925 -2.5017 0.9212
13.8596 -14.9350 -2.5017 0.9212
18.2455 -9.0688 -2.5017 0.9212
19.2032 -6.8102 -2.5017 0.9212
19.8825 -4.4528 -2.5017 0.9212
20.2736 -2.0308 -2.5017 0.9212
20.3707 0.4206 -2.5017 0.9212
18.4844 4.9491 -2.3495 0.9258
17.7556 7.1348 -2.3495 0.9258
7.8702 5.6550 -1.1899 0.9617
6.2843 5.7790 -1.0483 0.9662
3.7606 5.6619 -0.8346 0.9730
2.8491 5.6675 -0.7789 0.9748
2.0407 5.6724 -0.7402 0.9760
-0.7821 5.6898 -0.7052 0.9771
-3.0892 5.6813 -0.7940 0.9743
-4.0124 5.6379 -0.8497 0.9725
-8.5538 5.7375 -1.2647 0.9593
-14.0455 5.1249 -1.8358 0.9415
-19.0221 2.0798 -2.3495 0.9258
-20.3737 -0.2359 -2.5017 0.9212
-20.1976 -2.6829 -2.5017 0.9212
-16.6537 -11.7387 -2.5017 0.9212
-9.3162 -18.1205 -2.5017 0.9212
-2.3064 -20.2441 -2.5017 0.9212
2.5913 -20.2096 -2.5017 0.9212
5.0015 -19.7516 -2.5017 0.9212
9.5705 -17.9875 -2.5017 0.9212
19.0766 -7.1573 -2.5017 0.9212
19.7985 -4.8126 -2.5017 0.9212
20.3750 0.0511 -2.5017 0.9212
18.9909 2.3475 -2.3495 0.9258
18.5711 4.6131 -2.3495 0.9258
16.9644 8.9277 -2.3538 0.9257
8.1756 5.6525 -1.2204 0.9607
5.0950 5.7518 -0.9435 0.9695
2.1573 5.6717 -0.7451 0.9758
-1.3869 5.6935 -0.7195 0.9767
-3.8650 5.6449 -0.8400 0.9728
-8.2243 5.7355 -1.2311 0.9604
-7.2895 2.8106 -0.9593 0.9690
-18.9813 2.4244 -2.3495 0.9258
-20.3746 0.1336 -2.5017 0.9212
-20.2430 -2.3162 -2.5017 0.9212
-10.4746 -2.5013 -1.3223 0.9575
-19.1054 -7.0800 -2.5017 0.9212
-18.1159 -9.3250 -2.5017 0.9212
-13.6479 -15.1287 -2.5017 0.9212
-11.7306 -16.6594 -2.5017 0.9212
-7.4161 -18.9775 -2.5017 0.9212
-5.0815 -19.7312 -2.5017 0.9212
-2.6731 -20.1989 -2.5017 0.9212
2.2244 -20.2533 -2.5017 0.9212
9.2749 -12.7855 -2.5017 0.9380
12.0581 -10.2027 -2.5017 0.9380
13.1969 -8.6795 -2.5017 0.9380
14.1445 -7.0304 -2.5017 0.9380
15.7167 -1.5744 -2.5017 0.9380
15.7920 0.3261 -2.5017 0.9380
13.0001 7.1454 -2.3495 0.9417
6.1609 5.6655 -1.3257 0.9667
5.0120 5.8692 -1.2224 0.9692
3.7606 5.6619 -1.0765 0.9728
2.0407 5.6724 -0.9548 0.9759
-0.0916 5.6855 -0.9006 0.9772
-2.2601 5.6989 -0.9710 0.9755
-6.2445 5.3816 -1.3056 0.9672
-14.4458 3.3731 -2.3495 0.9417
-15.7943 -0.1829 -2.5017 0.9380
-15.6578 -2.0799 -2.5017 0.9380
-9.6101 -3.7608 -1.6345 0.9591
-12.9105 -9.1002 -2.5017 0.9380
-10.3658 -11.9182 -2.5017 0.9380
-5.4815 -14.8137 -2.5017 0.9380
-1.7880 -15.6938 -2.5017 0.9380
0.1112 -15.7950 -2.5017 0.9380
2.0088 -15.6671 -2.5017 0.9380
9.0415 -12.9516 -2.5017 0.9380
15.3484 -3.7309 -2.5017 0.9380
15.6856 -1.8591 -2.5017 0.9380
15.7953 0.0396 -2.5017 0.9380
14.7223 1.8199 -2.3495 0.9417
5.0950 5.7519 -1.2170 0.9694
3.9046 5.6534 -1.0882 0.9726
2.9786 5.6667 -1.0140 0.9744
0.6994 5.6807 -0.9065 0.9771
0.0115 5.6849 -0.9004 0.9772
-0.6771 5.6891 -0.9074 0.9771
-2.1410 5.6981 -0.9641 0.9756
-14.3823 3.6345 -2.3495 0.9417
-14.7149 1.8795 -2.3495 0.9417
-9.7208 -2.3213 -1.5829 0.9603
-14.0440 -7.2290 -2.5017 0.9380
-11.9132 -10.3716 -2.5017 0.9380
-10.5803 -11.7283 -2.5017 0.9380
-9.0939 -12.9148 -2.5017 0.9380
-7.4758 -13.9142 -2.5017 0.9380
-5.7492 -14.7119 -2.5017 0.9380
-2.0723 -15.6588 -2.5017 0.9380
-0.1752 -15.7944 -2.5017 0.9380
1.7244 -15.7009 -2.5017 0.9380
6.2505 -11.2506 -2.5017 0.9489
7.5574 -10.4178 -2.5017 0.9489
9.8251 -8.3134 -2.5017 0.9489
10.7531 -7.0722 -2.5017 0.9489
11.5252 -5.7285 -2.5017 0.9489
12.1301 -4.3018 -2.5017 0.9489
12.5592 -2.8127 -2.5017 0.9489
12.8676 0.2657 -2.5017 0.9489
11.6761 3.1262 -2.3495 0.9519
11.2157 4.5069 -2.3495 0.9519
9.8161 7.0532 -2.3495 0.9519
6.2931 5.7871 -1.6619 0.9658
5.0120 5.8692 -1.5002 0.9690
2.8491 5.6675 -1.2330 0.9745
2.0407 5.6724 -1.1718 0.9757
-0.0916 5.6855 -1.1053 0.9771
-0.7821 5.6898 -1.1164 0.9769
-3.0615 5.6302 -1.2457 0.9742
-3.9616 5.5666 -1.3281 0.9725
-5.0012 5.4882 -1.4433 0.9702
-8.5538 5.7375 -2.0021 0.9589
-10.7748 5.4780 -2.3495 0.9519
-12.7700 1.3962 -2.4970 0.9490
-12.8695 -0.1490 -2.5017 0.9489
-12.7583 -1.6947 -2.5017 0.9489
-9.0535 -2.3362 -1.8175 0.9626
-9.0130 -3.5272 -1.8813 0.9613
-11.3346 -6.0969 -2.5017 0.9489
-10.5197 -7.4150 -2.5017 0.9489
-8.4463 -9.7111 -2.5017 0.9489
-7.2178 -10.6559 -2.5017 0.9489
-5.8848 -11.4462 -2.5017 0.9489
-4.4664 -12.0705 -2.5017 0.9489
0.0906 -12.8700 -2.5017 0.9489
1.6368 -12.7658 -2.5017 0.9489
3.1593 -12.4765 -2.5017 0.9489
6.0454 -11.3621 -2.5017 0.9489
7.3672 -10.5532 -2.5017 0.9489
8.5822 -9.5912 -2.5017 0.9489
9.6727 -8.4902 -2.5017 0.9489
11.4194 -5.9366 -2.5017 0.9489
12.0501 -4.5211 -2.5017 0.9489
12.2733 1.5172 -2.4038 0.9509
11.7308 2.9139 -2.3495 0.9519
3.9046 5.6534 -1.3355 0.9724
2.9786 5.6667 -1.2444 0.9743
-1.3869 5.6935 -1.1391 0.9764
-2.1410 5.6981 -1.1832 0.9755
-2.9406 5.6496 -1.2380 0.9744
-3.8186 5.5770 -1.3138 0.9728
-7.2893 2.8106 -1.5186 0.9687
-11.7189 2.9614 -2.3495 0.9519
-12.4148 1.5857 -2.4328 0.9503
-12.7869 -1.4631 -2.5017 0.9489
-9.1468 -2.1842 -1.8279 0.9624
-8.9756 -3.3261 -1.8606 0.9617
-9.7071 -8.4509 -2.5017 0.9489
-8.6210 -9.5564 -2.5017 0.9489
-7.4099 -10.5233 -2.5017 0.9489
-4.6845 -11.9875 -2.5017 0.9489
-1.6885 -12.7591 -2.5017 0.9489
-0.1428 -12.8695 -2.5017 0.9489
1.4051 -12.7934 -2.5017 0.9489
6.3629 -8.7713 -2.5017 0.9565
7.3711 -7.9430 -2.5017 0.9565
8.2723 -6.9995 -2.5017 0.9565
9.7036 -4.8232 -2.5017 0.9565
10.5743 -2.3682 -2.5017 0.9565
10.8339 0.2237 -2.5017 0.9565
9.8307 2.6321 -2.3495 0.9591
9.4431 3.7946 -2.3495 0.9591
6.2931 5.7871 -1.9738 0.9655
3.7606 5.6619 -1.5692 0.9725
2.0407 5.6724 -1.3918 0.9756
0.5951 5.6813 -1.3188 0.9768
-0.0916 5.6855 -1.3128 0.9769
-3.9228 5.5120 -1.5619 0.9726
-4.9480 5.4298 -1.6960 0.9703
-5.9644 5.1402 -1.8178 0.9682
-9.0719 4.6122 -2.3495 0.9591
-7.3668 2.6880 -1.8104 0.9683
-9.9104 2.3141 -2.3495 0.9591
-10.8355 -0.1255 -2.5017 0.9565
-10.7419 -1.4269 -2.5017 0.9565
-9.0009 -3.5224 -2.2315 0.9611
-9.5432 -5.1333 -2.5017 0.9565
-8.0425 -7.2623 -2.5017 0.9565
-6.0771 -8.9718 -2.5017 0.9565
-3.7605 -10.1628 -2.5017 0.9565
1.3781 -10.7482 -2.5017 0.9565
2.6600 -10.5047 -2.5017 0.9565
3.9033 -10.1088 -2.5017 0.9565
6.2028 -8.8853 -2.5017 0.9565
7.2258 -8.0754 -2.5017 0.9565
8.1440 -7.1483 -2.5017 0.9565
8.9441 -6.1177 -2.5017 0.9565
9.6146 -4.9983 -2.5017 0.9565
10.5296 -2.5596 -2.5017 0.9565
10.7609 -1.2754 -2.5017 0.9565
10.8362 0.0272 -2.5017 0.9565
9.8768 2.4534 -2.3495 0.9591
9.5103 3.6227 -2.3495 0.9591
8.3711 5.7876 -2.3495 0.9591
5.0950 5.7519 -1.7740 0.9689
2.9786 5.6667 -1.4780 0.9741
1.4030 5.6597 -1.3462 0.9763
0.6994 5.6807 -1.3214 0.9768
0.0115 5.6849 -1.3125 0.9769
-0.6771 5.6891 -1.3227 0.9768
-1.3869 5.6935 -1.3529 0.9762
-2.9406 5.6496 -1.4704 0.9742
-5.8095 5.1933 -1.7990 0.9685
-8.3475 5.8214 -2.3495 0.9591
-8.9867 4.7759 -2.3495 0.9591
-10.8360 0.0711 -2.5017 0.9565
-10.7660 -1.2318 -2.5017 0.9565
-9.6348 -4.9594 -2.5017 0.9565
-8.1729 -7.1153 -2.5017 0.9565
-5.1287 -9.5457 -2.5017 0.9565
-2.7025 -10.4938 -2.5017 0.9565
-0.1202 -10.8356 -2.5017 0.9565
7.1275 -6.0308 -2.5017 0.9621
7.8007 -5.1305 -2.5017 0.9621
8.3608 -4.1557 -2.5017 0.9621
9.2901 -0.9306 -2.5017 0.9621
9.0688 1.2884 -2.4544 0.9628
8.4702 2.2679 -2.3495 0.9643
8.1363 3.2695 -2.3495 0.9643
7.6843 4.2237 -2.3495 0.9643
7.1210 5.1166 -2.3495 0.9643
6.2931 5.7871 -2.2908 0.9652
5.0120 5.8692 -2.0680 0.9685
3.7606 5.6619 -1.8212 0.9722
-0.0916 5.6855 -1.5236 0.9767
-1.4970 5.6942 -1.5776 0.9759
-2.2601 5.6989 -1.6427 0.9749
-4.8794 5.3546 -1.9411 0.9704
-6.6107 5.6972 -2.3384 0.9645
-7.2821 4.8846 -2.3495 0.9643
-7.8164 3.9739 -2.3495 0.9643
-9.0405 -2.3329 -2.5017 0.9621
-8.6945 -3.4026 -2.5017 0.9621
-8.2226 -4.4229 -2.5017 0.9621
-6.9295 -6.2573 -2.5017 0.9621
-6.1272 -7.0448 -2.5017 0.9621
-5.2361 -7.7302 -2.5017 0.9621
-4.2690 -8.3035 -2.5017 0.9621
-3.2401 -8.7564 -2.5017 0.9621
-1.0569 -9.2766 -2.5017 0.9621
0.0657 -9.3364 -2.5017 0.9621
4.3856 -8.2425 -2.5017 0.9621
5.3444 -7.6557 -2.5017 0.9621
6.2258 -6.9578 -2.5017 0.9621
7.0170 -6.1591 -2.5017 0.9621
8.2840 -4.3066 -2.5017 0.9621
8.7416 -3.2797 -2.5017 0.9621
9.0724 -2.2053 -2.5017 0.9621
8.5100 2.1139 -2.3495 0.9643
8.1942 3.1214 -2.3495 0.9643
6.5610 5.8174 -2.3495 0.9643
5.0950 5.7518 -2.0589 0.9687
3.9046 5.6534 -1.8410 0.9719
2.9786 5.6667 -1.7154 0.9738
2.1573 5.6717 -1.6260 0.9752
0.6994 5.6807 -1.5336 0.9766
0.0115 5.6849 -1.5233 0.9767
-2.1410 5.6981 -1.6310 0.9751
-2.9406 5.6496 -1.7066 0.9740
-4.7321 5.3860 -1.9211 0.9707
-6.3805 5.7037 -2.2932 0.9652
-7.1923 5.0158 -2.3495 0.9643
-7.7431 4.1150 -2.3495 0.9643
-7.1506 2.7570 -2.0535 0.9688
-8.5014 2.1483 -2.3495 0.9643
-9.2591 1.1826 -2.5011 0.9621
-9.3364 0.0612 -2.5017 0.9621
-9.2761 -1.0614 -2.5017 0.9621
-8.7548 -3.2443 -2.5017 0.9621
-7.7277 -5.2398 -2.5017 0.9621
-6.2540 -6.9325 -2.5017 0.9621
-2.3285 -9.0416 -2.5017 0.9621
1.0193 -9.2808 -2.5017 0.9621
