ply
format ascii 1.0
element vertex 701
property float32 x
property float32 y
property float32 z
property float32 I
end_header
-15.1098 -74.7212 20.4267 0.7293
48.8689 -30.5917 15.4484 0.7876
37.3255 16.2002 10.9027 0.8449
1.8400 5.6737 1.5982 0.9756
0.4064 5.6825 1.5265 0.9767
-0.2829 5.6867 1.5256 0.9767
-0.9816 5.6910 1.5474 0.9764
-3.3746 5.7057 1.7762 0.9729
-4.3893 5.7119 1.9302 0.9706
-22.2903 22.6995 8.5245 0.8766
-24.7379 19.7356 8.4795 0.8772
-68.9410 -20.9800 19.3091 0.7420
-18.6737 -30.5412 9.5920 0.8622
48.9108 -29.6699 15.3284 0.7891
19.5375 1.1783 5.2446 0.9221
27.6676 16.7597 8.6676 0.8746
23.4381 23.5058 8.8944 0.8716
3.4087 5.6640 1.7713 0.9730
1.7525 5.6742 1.5913 0.9757
1.0243 5.6787 1.5462 0.9764
-0.3630 5.6872 1.5270 0.9767
-2.5942 5.7009 1.6783 0.9744
-4.5190 5.7127 1.9517 0.9703
-25.3985 19.6853 8.6103 0.8754
-15.5879 -77.0854 18.1568 0.7241
13.3716 -45.6613 10.9845 0.8226
19.6552 -45.7250 11.4904 0.8152
27.2841 -46.8800 12.5227 0.8004
48.8569 -50.4579 16.2151 0.7495
83.7090 14.1357 19.5993 0.7057
37.3256 16.2003 9.3940 0.8462
4.5161 5.6201 1.6645 0.9708
3.5176 5.6633 1.5392 0.9730
2.6322 5.6688 1.4429 0.9747
1.8400 5.6737 1.3770 0.9758
-1.7114 5.6955 1.3730 0.9759
-2.4979 5.7003 1.4368 0.9748
-3.3746 5.7057 1.5304 0.9732
-24.7379 19.7356 7.3060 0.8782
-19.9214 -32.5818 8.8167 0.8549
-20.0049 -43.8883 11.1353 0.8204
20.0913 -44.9869 11.3748 0.8169
48.9370 -49.1401 16.0110 0.7522
48.3491 -29.3292 13.0555 0.7928
83.5764 15.3237 19.6168 0.7055
49.0136 15.2927 11.8537 0.8100
35.9537 16.2087 9.1051 0.8505
27.8310 16.8587 7.5122 0.8750
24.0095 18.8557 7.0481 0.8822
4.4170 5.6578 1.6571 0.9710
-1.0642 5.6915 1.3368 0.9765
-1.7992 5.6960 1.3791 0.9758
-2.5942 5.7009 1.4460 0.9746
-3.4841 5.7064 1.5436 0.9729
-4.5190 5.7127 1.6816 0.9705
-5.7774 5.7205 1.8770 0.9672
-25.4694 19.7401 7.4393 0.8761
-15.7740 -78.0056 15.4697 0.7230
26.3204 -45.2241 10.1711 0.8080
48.8569 -50.4579 13.6524 0.7511
48.9136 -30.6196 11.2171 0.7905
37.3257 16.2003 7.9093 0.8472
28.5562 16.7543 6.4356 0.8738
24.4402 23.8316 6.6354 0.8701
2.6322 5.6688 1.2149 0.9749
1.1068 5.6782 1.1245 0.9767
-1.7114 5.6955 1.1560 0.9761
-2.4979 5.7003 1.2097 0.9750
-3.3746 5.7057 1.2885 0.9733
-5.6164 5.7195 1.5582 0.9679
-67.4139 -20.5153 13.6973 0.7504
-11.3262 -11.2004 3.0963 0.9372
-20.4518 -33.4494 7.6209 0.8523
-16.6996 -36.6369 7.8264 0.8487
13.3430 -43.2991 8.8070 0.8314
20.1304 -45.0746 9.5957 0.8178
27.2245 -45.3015 10.2735 0.8062
48.9372 -29.6860 11.1258 0.7920
35.9537 16.2087 7.6660 0.8515
27.6676 16.7597 6.2878 0.8765
23.9090 18.7768 5.9093 0.8835
4.4170 5.6578 1.3952 0.9712
3.4087 5.6640 1.2850 0.9734
2.5362 5.6694 1.2073 0.9750
1.0243 5.6787 1.1216 0.9768
-0.3630 5.6872 1.1077 0.9770
-1.0642 5.6915 1.1255 0.9767
-5.7774 5.7205 1.5804 0.9674
12.8520 -43.8871 7.2430 0.8309
35.1365 -46.3949 9.2177 0.7900
49.1278 -39.7615 10.0102 0.7742
26.6463 -16.6805 4.9791 0.8805
53.1102 -17.4302 8.8533 0.7974
53.2465 -3.9963 8.4571 0.8055
53.2862 2.4629 8.4487 0.8057
49.0090 14.5390 8.0966 0.8130
37.3257 16.2003 6.4446 0.8481
28.5562 16.7543 5.2439 0.8745
24.4402 23.8316 5.4066 0.8709
3.5176 5.6633 1.0559 0.9734
2.6322 5.6688 0.9899 0.9750
1.1068 5.6782 0.9163 0.9768
-0.2829 5.6867 0.9018 0.9772
-0.9816 5.6910 0.9147 0.9769
-2.4979 5.7003 0.9857 0.9751
-4.3893 5.7119 1.1409 0.9712
-24.7379 19.7356 5.0122 0.8797
-9.3179 5.7422 1.7335 0.9566
-30.1297 -1.6048 4.7788 0.8850
-91.0906 -16.0411 14.6493 0.6876
-61.7211 -27.3052 10.6896 0.7608
-69.3028 -68.5333 15.4372 0.6739
-28.7260 -36.2675 7.3278 0.8291
-16.3662 -87.2241 14.0560 0.6981
19.8748 -44.5021 7.7194 0.8209
35.8892 -46.0308 9.2447 0.7895
55.5944 -25.1053 9.6615 0.7811
53.1573 -9.7810 8.5606 0.8034
53.3337 -3.2502 8.4629 0.8054
53.3726 3.2189 8.4687 0.8053
53.2775 9.7684 8.5790 0.8030
49.0136 15.2927 8.1321 0.8123
35.9537 16.2087 6.2464 0.8524
24.4444 24.5150 5.4832 0.8692
4.4170 5.6578 1.1369 0.9713
3.4087 5.6640 1.0470 0.9736
1.7525 5.6742 0.9406 0.9762
-0.3630 5.6872 0.9026 0.9772
-1.0642 5.6915 0.9171 0.9768
-2.5942 5.7009 0.9920 0.9750
-5.7774 5.7205 1.2877 0.9676
-9.6209 5.7441 1.7747 0.9556
-87.4311 26.6670 14.4775 0.6906
-90.5699 4.8811 14.3657 0.6926
-15.7740 -78.0057 9.7717 0.7256
26.2552 -45.1120 6.4089 0.8103
34.3568 -45.3654 6.9873 0.7951
43.7852 -45.2200 7.7286 0.7759
50.3684 -23.6026 6.8298 0.7992
53.1637 -17.4478 6.8702 0.7981
53.2325 2.4605 6.5431 0.8067
53.2728 8.9960 6.6337 0.8043
49.2094 14.5984 6.3024 0.8131
37.3257 16.2003 4.9961 0.8488
23.4341 22.8506 4.0188 0.8764
2.6322 5.6688 0.7674 0.9751
1.8400 5.6737 0.7324 0.9762
-0.2829 5.6867 0.6991 0.9773
-0.9816 5.6910 0.7091 0.9770
-1.7114 5.6955 0.7302 0.9763
-3.3746 5.7057 0.8139 0.9736
-4.3893 5.7119 0.8845 0.9714
-9.3179 5.7422 1.3439 0.9568
-12.5243 5.7619 1.6927 0.9460
-91.0993 6.1942 11.2114 0.6921
-91.4727 -16.1084 11.4042 0.6878
-21.1085 -34.5234 4.9685 0.8495
-16.6996 -36.6369 4.9437 0.8502
-12.7925 -40.4110 5.2045 0.8430
-16.4868 -87.8665 10.9769 0.6975
13.1733 -42.7484 5.4924 0.8350
35.1474 -45.0794 7.0186 0.7942
44.9530 -45.1395 7.8220 0.7736
49.1864 -29.8371 7.0636 0.7931
49.6921 -22.4399 6.6947 0.8027
53.1573 -9.7810 6.6365 0.8043
53.1975 -3.2419 6.5439 0.8067
24.0096 18.8557 3.7484 0.8842
4.4170 5.6578 0.8813 0.9715
1.7525 5.6742 0.7292 0.9764
1.0243 5.6787 0.7085 0.9770
0.3263 5.6830 0.6989 0.9773
-0.3630 5.6872 0.6997 0.9773
-2.5942 5.7009 0.7691 0.9751
-5.7774 5.7205 0.9983 0.9678
-7.3936 5.7304 1.1486 0.9630
-90.7399 4.8902 11.1576 0.6934
-15.7740 -78.0057 6.9627 0.7265
13.8697 -32.2658 3.0726 0.8685
34.2019 -45.1609 4.9563 0.7965
46.9042 -21.9794 4.5318 0.8122
53.1175 -17.4326 4.8910 0.7989
53.2524 -10.5740 4.7499 0.8041
53.2928 -3.9998 4.6756 0.8069
53.2398 2.4608 4.6628 0.8073
37.3257 16.2003 3.5599 0.8493
23.9057 18.2371 2.6306 0.8863
23.4341 22.8506 2.8636 0.8768
4.5161 5.6201 0.6308 0.9715
2.6322 5.6688 0.5468 0.9752
1.8400 5.6737 0.5218 0.9763
-0.2829 5.6867 0.4981 0.9774
-1.7114 5.6955 0.5203 0.9764
-4.3893 5.7119 0.6302 0.9715
-5.6164 5.7195 0.7013 0.9683
-24.7379 19.7356 2.7687 0.8807
-9.3179 5.7422 0.9576 0.9570
-12.5243 5.7619 1.2061 0.9461
-18.0888 5.7962 1.6618 0.9266
-11.4744 -18.7666 1.9244 0.9155
-15.0816 -80.3779 7.1549 0.7201
10.3274 -57.4630 5.1079 0.7910
13.6681 -44.3542 4.0606 0.8300
20.2304 -45.2983 4.3404 0.8194
27.1139 -45.1175 4.6052 0.8095
45.0406 -45.2274 5.5843 0.7739
47.2641 -21.3435 4.5371 0.8120
53.2572 -9.7994 4.7376 0.8046
53.3776 9.7868 4.7478 0.8042
17.8686 5.5751 1.6376 0.9276
27.6676 16.7597 2.8301 0.8782
23.4382 23.5059 2.9041 0.8752
1.0243 5.6787 0.5048 0.9771
0.3263 5.6830 0.4980 0.9774
-0.3630 5.6872 0.4986 0.9774
-1.0642 5.6915 0.5066 0.9770
-1.7992 5.6960 0.5226 0.9763
-2.5942 5.7009 0.5480 0.9752
-4.5190 5.7127 0.6373 0.9712
-5.7774 5.7205 0.7113 0.9679
-7.3936 5.7304 0.8184 0.9631
-13.0090 5.7649 1.2449 0.9445
13.3726 -45.6649 2.4937 0.8265
26.2024 -45.0214 2.7300 0.8117
58.2041 -19.1020 3.2104 0.7824
58.1534 -11.5471 3.1072 0.7886
58.1057 -4.3610 3.0538 0.7918
58.0594 2.6836 3.0460 0.7923
37.3257 16.2003 2.1325 0.8496
28.5562 16.7543 1.7351 0.8758
23.9057 18.2371 1.5758 0.8865
3.9787 6.4057 0.3952 0.9702
2.6322 5.6688 0.3276 0.9753
1.8400 5.6737 0.3126 0.9764
-0.2829 5.6867 0.2984 0.9775
-1.7114 5.6955 0.3117 0.9765
-2.4979 5.7003 0.3262 0.9754
-4.3847 5.7059 0.3771 0.9716
-24.7379 19.7356 1.6585 0.8809
-9.3179 5.7422 0.5736 0.9571
-12.5243 5.7619 0.7225 0.9463
-30.7086 5.8737 1.6385 0.8823
-91.6607 -16.1415 4.8776 0.6888
-34.8903 -34.5029 2.5716 0.8216
-15.7572 -34.5694 1.9910 0.8588
20.1305 -45.0746 2.5871 0.8206
27.0593 -45.0267 2.7531 0.8102
23.3048 -29.8902 1.9863 0.8591
48.6869 -38.2854 3.2460 0.7803
47.3944 -21.4023 2.7253 0.8120
58.1980 -18.1984 3.1957 0.7833
58.1478 -10.6992 3.0985 0.7891
57.9852 10.6316 3.0895 0.7897
35.9537 16.2087 2.0669 0.8539
23.4382 23.5058 1.7396 0.8755
1.7525 5.6742 0.3112 0.9765
1.0243 5.6787 0.3024 0.9772
-1.0642 5.6915 0.3034 0.9771
-1.7992 5.6960 0.3131 0.9764
-2.5942 5.7009 0.3283 0.9752
-3.4793 5.6985 0.3499 0.9736
-4.5144 5.7070 0.3814 0.9713
-5.7717 5.7148 0.4257 0.9680
-7.3936 5.7304 0.4902 0.9632
-91.2471 4.9176 4.7890 0.6935
13.8665 -32.2584 0.6130 0.8689
24.5204 -42.1313 0.8509 0.8228
23.2994 -30.7650 0.6736 0.8569
33.7268 -27.2968 0.7574 0.8406
58.8454 -27.5750 1.1343 0.7711
18.7465 5.5613 0.3413 0.9248
38.7583 16.8221 0.7375 0.8445
23.5996 13.8462 0.4776 0.8963
24.0062 18.3138 0.5270 0.8862
24.4402 23.8316 0.5958 0.8723
4.5161 5.6201 0.1258 0.9716
2.6322 5.6688 0.1091 0.9753
1.1068 5.6782 0.1010 0.9771
-0.2829 5.6867 0.0994 0.9775
-0.9816 5.6910 0.1008 0.9772
-2.4979 5.7003 0.1086 0.9754
-3.3726 5.7023 0.1156 0.9738
-4.3717 5.6890 0.1252 0.9717
-18.0888 5.7962 0.3316 0.9268
-30.7086 5.8737 0.5457 0.8824
-15.5738 -34.1669 0.6554 0.8605
-12.3897 -39.1388 0.7166 0.8485
27.8638 -90.4201 1.6515 0.6849
20.3980 -45.6736 0.8731 0.8186
27.1437 -27.2563 0.6714 0.8574
48.6869 -38.2854 1.0811 0.7805
37.5235 -22.7622 0.7661 0.8390
61.0940 -27.5888 1.1701 0.7648
79.6604 4.8043 1.3930 0.7267
57.6648 10.5728 1.0233 0.7909
23.5861 10.6331 0.4516 0.9017
24.4444 24.5150 0.6043 0.8707
4.4716 5.7277 0.1268 0.9713
3.9147 6.5048 0.1325 0.9701
1.7525 5.6742 0.1037 0.9765
0.3263 5.6830 0.0994 0.9775
-1.0642 5.6915 0.1011 0.9771
-1.7992 5.6960 0.1043 0.9764
-2.5942 5.7009 0.1093 0.9753
-4.5009 5.6899 0.1266 0.9714
-9.6209 5.7441 0.1956 0.9562
-12.9754 5.7500 0.2477 0.9448
-18.8930 5.7625 0.3448 0.9240
-33.3228 5.8898 0.5907 0.8734
13.8638 -32.2521 -0.6128 0.8690
23.2994 -30.7650 -0.6736 0.8569
26.3870 -27.2516 -0.6621 0.8592
18.6342 5.5280 -0.3393 0.9252
28.5562 16.7543 -0.5779 0.8759
24.4402 23.8316 -0.5958 0.8723
4.5161 5.6201 -0.1258 0.9716
1.8400 5.6737 -0.1041 0.9764
-0.2829 5.6867 -0.0994 0.9775
-1.7114 5.6955 -0.1038 0.9765
-9.3179 5.7422 -0.1910 0.9572
-12.4204 5.7142 -0.2386 0.9468
-84.1933 -14.8265 -1.4922 0.7103
-68.6490 -20.8911 -1.2525 0.7505
-71.4596 -42.6036 -1.4522 0.7169
-23.1253 -22.8686 -0.5677 0.8780
-14.3820 -23.5220 -0.4812 0.8956
-9.4005 -29.6958 -0.5437 0.8828
27.8646 -90.4229 -1.6516 0.6849
23.2507 -38.6891 -0.7879 0.8348
27.1437 -27.2563 -0.6714 0.8574
45.1141 -27.3667 -0.9210 0.8097
86.1401 5.1951 -1.5063 0.7081
58.1365 10.6593 -1.0317 0.7894
34.9433 15.7532 -0.6690 0.8578
27.6677 16.7597 -0.5646 0.8786
23.9091 18.7768 -0.5306 0.8855
24.4444 24.5150 -0.6043 0.8707
3.9147 6.5048 -0.1325 0.9701
2.5362 5.6694 -0.1084 0.9755
0.3263 5.6830 -0.0994 0.9775
-0.3630 5.6872 -0.0995 0.9775
-1.7992 5.6960 -0.1043 0.9764
-3.4786 5.6973 -0.1165 0.9736
-4.4875 5.6729 -0.1263 0.9715
-5.7074 5.6511 -0.1402 0.9684
-9.6209 5.7441 -0.1956 0.9562
-33.3228 5.8898 -0.5907 0.8734
-65.6205 3.5365 -1.1471 0.7688
-8.7563 -43.3019 -2.3153 0.8378
-3.7399 -47.5896 -2.5018 0.8260
7.7832 -47.0975 -2.5018 0.8260
13.8160 -32.1409 -1.8335 0.8692
20.9450 -35.9880 -2.1822 0.8464
24.5227 -25.3262 -1.8475 0.8683
33.5963 -27.1911 -2.2651 0.8410
32.1865 -15.0826 -1.8628 0.8673
45.3562 -14.8854 -2.5018 0.8260
47.6025 -3.5727 -2.5018 0.8260
39.3205 6.6399 -2.0899 0.8524
18.1101 10.6254 -1.1004 0.9193
4.5161 5.6201 -0.3778 0.9715
2.6322 5.6688 -0.3276 0.9753
1.8400 5.6737 -0.3126 0.9764
1.1068 5.6782 -0.3032 0.9771
0.4064 5.6825 -0.2986 0.9774
-2.4979 5.7003 -0.3262 0.9754
-4.3468 5.6566 -0.3739 0.9718
-12.3849 5.6978 -0.7145 0.9469
-18.0888 5.7962 -0.9955 0.9267
-44.7747 -2.3848 -2.3499 0.8356
-44.1528 -7.7753 -2.3496 0.8356
-45.6685 -13.8978 -2.5018 0.8260
-43.6551 -19.3129 -2.5018 0.8260
-32.5551 -25.1992 -2.1575 0.8480
-22.9799 -22.7248 -1.6937 0.8786
-14.1906 -23.2090 -1.4257 0.8968
-9.4277 -29.7817 -1.6371 0.8824
-8.2678 -44.0632 -2.3496 0.8356
-3.0710 -47.6375 -2.5018 0.8260
2.7063 -47.6596 -2.5018 0.8260
13.2028 -42.8440 -2.3496 0.8356
18.2818 -40.9353 -2.3496 0.8356
23.0932 -38.4270 -2.3496 0.8356
25.1056 -25.2097 -1.8646 0.8672
37.7214 -22.8823 -2.3122 0.8380
33.3872 -15.0770 -1.9199 0.8635
46.9482 -8.6385 -2.5018 0.8260
18.0590 8.1414 -1.0382 0.9237
23.9413 24.0104 -1.7770 0.8730
4.4716 5.7277 -0.3808 0.9713
3.9147 6.5048 -0.3979 0.9700
-1.7992 5.6960 -0.3131 0.9764
-2.5942 5.7009 -0.3283 0.9752
-4.4741 5.6560 -0.3779 0.9715
-7.3936 5.7304 -0.4902 0.9632
-12.8253 5.6835 -0.7352 0.9454
-44.7308 -3.0131 -2.3496 0.8356
-5.6510 -27.9455 -2.4944 0.8918
1.2200 -28.5691 -2.5018 0.8915
8.0364 -27.4427 -2.5018 0.8915
13.5141 -23.2202 -2.3505 0.8977
24.2378 -15.1728 -2.5018 0.8915
25.8932 -12.1336 -2.5018 0.8915
28.5150 -2.1401 -2.5018 0.8915
28.5319 1.3188 -2.4989 0.8916
26.4806 4.4717 -2.3496 0.8978
12.9578 5.6240 -1.2358 0.9449
18.6482 14.2262 -2.0521 0.9101
19.5713 19.0840 -2.3916 0.8960
3.9818 6.4108 -0.6603 0.9702
2.6322 5.6688 -0.5468 0.9752
1.8400 5.6737 -0.5218 0.9763
-0.2829 5.6867 -0.4981 0.9774
-0.9816 5.6910 -0.5053 0.9771
-2.4979 5.7003 -0.5445 0.9753
-3.3726 5.7023 -0.5796 0.9737
-4.3468 5.6566 -0.6241 0.9718
-5.5219 5.6232 -0.6895 0.9689
-6.9690 5.5598 -0.7800 0.9648
-9.3179 5.7422 -0.9576 0.9570
-26.7937 1.8218 -2.3496 0.8978
-28.1618 -4.9593 -2.5018 0.8915
-24.5613 -14.6433 -2.5018 0.8915
-22.6125 -17.5032 -2.5018 0.8915
-19.0954 -18.8834 -2.3496 0.8978
-16.6744 -21.0519 -2.3496 0.8978
-5.2715 -28.0946 -2.5009 0.8916
-1.8396 -28.5359 -2.5018 0.8915
1.6193 -28.5172 -2.4990 0.8916
18.9504 -19.0290 -2.3496 0.8978
26.0611 -11.7687 -2.5018 0.8915
27.2920 -8.5342 -2.5018 0.8915
28.1231 -5.1747 -2.5018 0.8915
28.5422 -1.7394 -2.5018 0.8915
1.0243 5.6787 -0.5048 0.9771
0.3263 5.6830 -0.4980 0.9774
-1.7992 5.6960 -0.5226 0.9763
-2.5942 5.7009 -0.5480 0.9752
-4.4700 5.6508 -0.6304 0.9715
-7.3936 5.7304 -0.8184 0.9631
-18.8930 5.7625 -1.7281 0.9238
-26.4456 4.6742 -2.3496 0.8978
-28.5305 -1.9218 -2.5018 0.8915
-4.0384 -19.9709 -2.5018 0.9212
-1.5963 -20.3125 -2.5018 0.9212
5.7262 -19.5539 -2.5018 0.9212
15.8378 -12.8183 -2.5018 0.9212
17.2704 -10.8112 -2.5018 0.9212
19.3592 -6.3535 -2.5018 0.9212
19.9850 -3.9683 -2.5018 0.9212
20.3180 -1.5249 -2.5018 0.9212
20.3534 0.9408 -2.5018 0.9212
18.8685 3.1863 -2.3496 0.9258
17.5535 7.6187 -2.3496 0.9258
16.5549 9.7130 -2.3567 0.9256
15.3076 11.6778 -2.3640 0.9253
13.8239 13.4797 -2.3707 0.9251
1.8400 5.6737 -0.7324 0.9762
-5.5046 5.6057 -0.9647 0.9688
-12.1292 5.5802 -1.6393 0.9476
-19.0915 1.2981 -2.3496 0.9258
-20.3463 -1.0837 -2.5018 0.9212
-11.8124 -2.0802 -1.4727 0.9528
-17.5009 -10.4339 -2.5018 0.9212
-14.4876 -14.3267 -2.5018 0.9212
-10.6286 -17.3833 -2.5018 0.9212
-8.4508 -18.5400 -2.5018 0.9212
-6.1492 -19.4251 -2.5018 0.9212
-1.3108 -20.3329 -2.5018 0.9212
1.1551 -20.3424 -2.5018 0.9212
3.6041 -20.0539 -2.5018 0.9212
6.0003 -19.4716 -2.5018 0.9212
10.4953 -17.4641 -2.5018 0.9212
14.3775 -14.4372 -2.5018 0.9212
17.4205 -10.5675 -2.5018 0.9212
18.5695 -8.3856 -2.5018 0.9212
19.4466 -6.0809 -2.5018 0.9212
20.0388 -3.6872 -2.5018 0.9212
20.3277 1.2259 -2.5005 0.9212
18.8218 3.4510 -2.3496 0.9258
18.2671 5.6995 -2.3496 0.9258
17.4470 7.8655 -2.3499 0.9258
9.3258 5.6491 -1.3388 0.9570
15.1473 11.8958 -2.3648 0.9253
5.7686 5.7852 -1.0031 0.9676
4.4716 5.7277 -0.8922 0.9711
3.9147 6.5048 -0.9322 0.9699
2.5362 5.6694 -0.7626 0.9753
1.7525 5.6742 -0.7292 0.9764
1.0243 5.6787 -0.7085 0.9770
0.3263 5.6830 -0.6989 0.9773
-0.3630 5.6872 -0.6997 0.9773
-1.0642 5.6915 -0.7109 0.9769
-2.5942 5.7009 -0.7691 0.9751
-3.4786 5.6973 -0.8196 0.9735
-5.6535 5.5978 -0.9769 0.9684
-9.6209 5.7441 -1.3758 0.9558
-12.4898 5.5349 -1.6774 0.9464
-18.3032 5.5826 -2.3496 0.9258
-20.3291 -1.3694 -2.5018 0.9212
-3.1307 -15.4821 -2.5018 0.9380
-1.2375 -15.7469 -2.5018 0.9380
0.6739 -15.7810 -2.5018 0.9380
4.4392 -15.1588 -2.5018 0.9380
6.2379 -14.5115 -2.5018 0.9380
7.9453 -13.6517 -2.5018 0.9380
9.5363 -12.5919 -2.5018 0.9380
15.0079 -4.9254 -2.5018 0.9380
15.4930 -3.0763 -2.5018 0.9380
15.7511 -1.1822 -2.5018 0.9380
15.7786 0.7293 -2.5018 0.9380
14.6274 2.4701 -2.3496 0.9417
13.6080 5.9062 -2.3496 0.9417
12.7949 7.5069 -2.3496 0.9417
11.8173 9.0151 -2.3541 0.9416
4.5161 5.6201 -1.1419 0.9712
2.6322 5.6688 -0.9899 0.9750
-0.2829 5.6867 -0.9018 0.9772
-0.9816 5.6910 -0.9147 0.9769
-3.3702 5.6982 -1.0485 0.9735
-4.3287 5.6331 -1.1252 0.9716
-9.3179 5.7422 -1.7335 0.9566
-12.1292 5.5802 -2.1146 0.9474
-14.5704 2.7869 -2.3496 0.9417
-15.7731 -0.8401 -2.5018 0.9380
-11.3253 -1.9944 -1.8214 0.9545
-9.1773 -2.7928 -1.5194 0.9619
-12.4907 -9.6684 -2.5018 0.9380
-11.2312 -11.1065 -2.5018 0.9380
-9.8073 -12.3820 -2.5018 0.9380
-6.5513 -14.3728 -2.5018 0.9380
2.7940 -15.5464 -2.5018 0.9380
4.6517 -15.0950 -2.5018 0.9380
6.4411 -14.4225 -2.5018 0.9380
11.1459 -11.1922 -2.5018 0.9380
12.4164 -9.7637 -2.5018 0.9380
15.0756 -4.7141 -2.5018 0.9380
15.5347 -2.8584 -2.5018 0.9380
14.1612 4.4184 -2.3496 0.9417
5.6475 5.6638 -1.2668 0.9681
3.9147 6.5048 -1.2025 0.9697
2.5362 5.6694 -0.9837 0.9752
1.7525 5.6742 -0.9406 0.9762
0.3263 5.6830 -0.9016 0.9772
-1.7992 5.6960 -0.9461 0.9761
-4.4493 5.6247 -1.1359 0.9714
-6.8895 5.3398 -1.3806 0.9653
-9.6209 5.7441 -1.7747 0.9556
-14.6081 2.5820 -2.3496 0.9417
-15.7726 0.8500 -2.5018 0.9380
-2.5510 -12.6151 -2.5018 0.9489
-1.0083 -12.8308 -2.5018 0.9489
5.0827 -11.8243 -2.5018 0.9489
7.7703 -10.2601 -2.5018 0.9489
8.9529 -9.2463 -2.5018 0.9489
10.0043 -8.0970 -2.5018 0.9489
12.8343 -0.9633 -2.5018 0.9489
11.9187 2.0127 -2.3496 0.9519
11.5882 3.4378 -2.3496 0.9519
9.6102 7.3314 -2.3496 0.9519
8.6632 8.4475 -2.3520 0.9519
4.5161 5.6201 -1.4014 0.9710
3.9818 6.4108 -1.4669 0.9697
2.6322 5.6688 -1.2149 0.9749
1.1068 5.6782 -1.1245 0.9767
0.4064 5.6825 -1.1074 0.9771
-0.9816 5.6910 -1.1226 0.9767
-1.7114 5.6955 -1.1560 0.9761
-3.3679 5.6943 -1.2860 0.9734
-4.2855 5.5768 -1.3671 0.9717
-5.3928 5.4918 -1.4961 0.9691
-11.5109 3.6884 -2.3496 0.9519
-12.8522 -0.6845 -2.5018 0.9489
-11.4549 -2.0172 -2.2609 0.9537
-11.0548 -6.5908 -2.5018 0.9489
-9.1514 -9.0498 -2.5018 0.9489
-6.7138 -10.9805 -2.5018 0.9489
-5.3381 -11.7112 -2.5018 0.9489
-3.8843 -12.2703 -2.5018 0.9489
2.2766 -12.6674 -2.5018 0.9489
7.9137 -10.1499 -2.5018 0.9489
11.0040 -6.6752 -2.5018 0.9489
12.2838 -3.8411 -2.5018 0.9489
12.6579 -2.3291 -2.5018 0.9489
12.8068 0.7724 -2.4939 0.9491
5.7736 5.7903 -1.5894 0.9672
4.4716 5.7277 -1.4125 0.9708
2.5362 5.6694 -1.2073 0.9750
1.7525 5.6742 -1.1544 0.9761
1.0243 5.6787 -1.1216 0.9768
-0.3630 5.6872 -1.1077 0.9770
-1.0642 5.6915 -1.1255 0.9767
-2.5942 5.7009 -1.2175 0.9748
-5.5351 5.4806 -1.5141 0.9688
-11.9029 2.1038 -2.3496 0.9519
-2.1478 -10.6213 -2.5018 0.9565
1.7668 -10.6913 -2.5018 0.9565
4.2794 -9.9555 -2.5018 0.9565
6.5423 -8.6385 -2.5018 0.9565
7.5379 -7.7849 -2.5018 0.9565
8.4232 -6.8173 -2.5018 0.9565
9.1850 -5.7498 -2.5018 0.9565
9.8124 -4.5981 -2.5018 0.9565
10.2960 -3.3790 -2.5018 0.9565
10.8247 0.5003 -2.5018 0.9565
10.0350 1.6946 -2.3496 0.9591
9.3356 4.0519 -2.3496 0.9591
8.7778 5.1500 -2.3496 0.9591
8.0913 6.1727 -2.3496 0.9591
4.5161 5.6201 -1.6645 0.9708
2.6322 5.6688 -1.4429 0.9747
1.1068 5.6782 -1.3356 0.9765
0.4064 5.6825 -1.3153 0.9769
-0.2829 5.6867 -1.3145 0.9769
-2.4979 5.7003 -1.4368 0.9748
-3.3679 5.6943 -1.5274 0.9732
-8.6640 5.3393 -2.3496 0.9591
-9.6917 3.1055 -2.3496 0.9591
-9.9958 1.9119 -2.3496 0.9591
-10.8113 0.7351 -2.5018 0.9565
-10.6721 -1.8793 -2.5018 0.9565
-9.3076 -5.5491 -2.5018 0.9565
-6.7282 -8.4945 -2.5018 0.9565
-1.9984 -10.6504 -2.5018 0.9565
3.1912 -10.3557 -2.5018 0.9565
5.5818 -9.2881 -2.5018 0.9565
6.6629 -8.5458 -2.5018 0.9565
8.5181 -6.6983 -2.5018 0.9565
9.8760 -4.4598 -2.5018 0.9565
10.6574 -1.9610 -2.5018 0.9565
10.0102 1.8354 -2.3496 0.9591
9.2778 4.1826 -2.3496 0.9591
8.7046 5.2728 -2.3496 0.9591
8.0038 6.2857 -2.3496 0.9591
2.5362 5.6694 -1.4339 0.9748
-1.7992 5.6960 -1.3791 0.9758
-2.5942 5.7009 -1.4460 0.9746
-3.4657 5.6762 -1.5354 0.9731
-4.3599 5.5116 -1.6224 0.9716
-10.0532 1.7769 -2.3570 0.9590
-10.8206 0.5832 -2.5018 0.9565
-10.8118 -0.7283 -2.5018 0.9565
0.3983 -9.3282 -2.5018 0.9621
1.5223 -9.2117 -2.5018 0.9621
2.6240 -8.9604 -2.5018 0.9621
4.6964 -8.0695 -2.5018 0.9621
9.3105 -0.6988 -2.5018 0.9621
9.3267 0.4311 -2.5018 0.9621
8.0437 3.4912 -2.3496 0.9643
6.9716 5.3185 -2.3496 0.9643
4.5161 5.6201 -1.9319 0.9706
3.9818 6.4108 -2.0221 0.9692
2.6322 5.6688 -1.6747 0.9744
1.8400 5.6737 -1.5982 0.9756
1.1068 5.6782 -1.5501 0.9763
-0.2829 5.6867 -1.5256 0.9767
-0.9816 5.6910 -1.5474 0.9764
-1.7114 5.6955 -1.5935 0.9757
-2.4979 5.7003 -1.6676 0.9746
-3.3679 5.6943 -1.7727 0.9730
-5.2750 5.3718 -2.0173 0.9693
-6.8546 5.4685 -2.3496 0.9643
-7.4650 4.6004 -2.3496 0.9643
-7.9660 3.6649 -2.3496 0.9643
-8.0967 2.5944 -2.2782 0.9654
-9.3152 0.6334 -2.5018 0.9621
-9.1952 -1.6193 -2.5018 0.9621
-8.9322 -2.7182 -2.5018 0.9621
-8.0196 -4.7812 -2.5018 0.9621
-7.3833 -5.7150 -2.5018 0.9621
-6.6388 -6.5650 -2.5018 0.9621
-4.8704 -7.9657 -2.5018 0.9621
-3.8725 -8.4957 -2.5018 0.9621
-0.6007 -9.3173 -2.5018 0.9621
0.5293 -9.3217 -2.5018 0.9621
3.8073 -8.5251 -2.5018 0.9621
4.8093 -8.0027 -2.5018 0.9621
5.7409 -7.3631 -2.5018 0.9621
7.3393 -5.7713 -2.5018 0.9621
7.9827 -4.8424 -2.5018 0.9621
9.1825 -1.6896 -2.5018 0.9621
9.3194 -0.5679 -2.5018 0.9621
9.3197 0.5621 -2.5018 0.9621
8.7178 1.5984 -2.3749 0.9640
8.3707 2.6117 -2.3496 0.9643
7.9939 3.6038 -2.3496 0.9643
7.5000 4.5431 -2.3496 0.9643
5.7736 5.7903 -2.1910 0.9667
4.4716 5.7277 -1.9471 0.9704
3.9147 6.5048 -2.0343 0.9690
2.5362 5.6694 -1.6642 0.9746
0.3263 5.6830 -1.5253 0.9767
-0.3630 5.6872 -1.5270 0.9767
-1.0642 5.6915 -1.5515 0.9763
-2.5942 5.7009 -1.6783 0.9744
-3.4657 5.6762 -1.7820 0.9728
-4.3590 5.5105 -1.8826 0.9713
-5.3911 5.3380 -2.0329 0.9691
-7.5289 4.4951 -2.3496 0.9643
-8.0167 3.5526 -2.3496 0.9643
-9.3156 -0.6275 -2.5018 0.9621
