ply
format ascii 1.0
element vertex 747
property float32 x
property float32 y
property float32 z
property float32 I
end_header
3.3417 5.6644 1.7622 0.9731
2.4834 5.6697 1.6585 0.9747
-0.3861 5.6873 1.5274 0.9767
-2.6024 5.7010 1.6792 0.9744
-3.4860 5.7064 1.7918 0.9727
-25.3322 19.7393 8.6051 0.8755
-18.7579 -30.5549 9.6069 0.8620
-15.2535 -79.2618 21.6278 0.7159
20.3334 -46.7000 13.6479 0.8098
84.3958 13.7538 22.9121 0.7018
38.1085 16.1954 11.0950 0.8424
29.9799 17.2454 9.2673 0.8666
23.3095 22.2575 8.6358 0.8751
2.7242 5.6682 1.6851 0.9743
-0.8760 5.6904 1.5427 0.9764
-3.2151 5.7047 1.7546 0.9732
-24.6020 20.6012 8.5981 0.8756
-33.0167 -0.7860 8.8493 0.8722
-46.0736 -12.4597 12.7888 0.8207
-29.0474 -34.0750 11.9976 0.8308
-22.0394 -43.8636 13.1534 0.8160
-15.8052 -43.9173 12.5065 0.8242
-16.7754 -73.1942 20.1208 0.7327
43.6460 16.7619 12.5277 0.8240
32.5505 17.2296 9.8684 0.8585
24.1652 16.7812 7.8832 0.8853
2.4834 5.6697 1.4290 0.9749
0.2979 5.6831 1.3139 0.9769
-1.8126 5.6961 1.3800 0.9758
-5.7583 5.7204 1.8739 0.9672
-69.9677 -21.5892 16.9048 0.7404
-20.1503 -43.8872 11.1491 0.8202
27.5334 -46.9054 12.5568 0.7999
24.3155 23.2181 7.7619 0.8711
24.3548 29.6098 8.8513 0.8544
3.6151 5.6628 1.5510 0.9728
1.1966 5.6776 1.3396 0.9765
0.4967 5.6588 1.3114 0.9770
-0.1854 5.6861 1.3134 0.9769
-1.5939 5.6948 1.3653 0.9760
-8.0579 2.8202 1.9710 0.9656
-63.5110 -25.6816 15.8161 0.7549
-29.4108 -34.5013 10.4666 0.8302
-22.9124 -34.5360 9.5684 0.8435
-15.9140 -31.6727 8.1833 0.8646
-16.5318 -72.1312 17.0846 0.7380
25.2346 -46.6761 12.2500 0.8043
48.7155 -53.7902 16.7544 0.7424
47.3727 -32.0322 13.2024 0.7908
48.8743 12.2987 11.6353 0.8131
43.6460 16.7619 10.7940 0.8254
32.5505 17.2297 8.5027 0.8597
3.3417 5.6644 1.2784 0.9736
2.4834 5.6697 1.2032 0.9751
0.2979 5.6831 1.1062 0.9771
-0.3861 5.6873 1.1081 0.9770
-2.6025 5.7010 1.2182 0.9748
-3.4860 5.7064 1.2998 0.9731
-4.5124 5.7127 1.4151 0.9708
-7.3515 5.7284 1.8116 0.9627
-67.3132 -20.7702 13.6931 0.7505
-61.7200 -27.5213 13.1358 0.7593
-11.4380 -11.3131 3.1271 0.9365
-11.3128 -14.2577 3.5378 0.9285
-20.5430 -33.4627 7.6324 0.8521
-16.8210 -36.6361 7.8361 0.8485
19.6243 -45.0715 9.5554 0.8185
26.5583 -45.2443 10.1978 0.8075
38.7680 -50.8956 12.4363 0.7705
48.7379 -50.1508 13.5934 0.7520
48.8110 -30.5597 11.1940 0.7908
64.3193 10.4820 12.6673 0.7668
24.3549 29.6099 7.4524 0.8554
3.6151 5.6628 1.3059 0.9730
-0.8760 5.6904 1.1191 0.9768
-1.5939 5.6948 1.1495 0.9762
-2.3632 5.6995 1.1993 0.9752
-3.2151 5.7047 1.2729 0.9737
-8.0569 2.8198 1.6593 0.9658
-68.3118 -18.4735 13.7554 0.7495
-11.3487 -13.3129 3.4004 0.9312
-18.4030 -36.6265 7.9676 0.8462
-16.1533 -70.4800 14.0551 0.7448
14.2656 -54.6548 10.9797 0.7944
16.9173 -42.9190 8.9673 0.8286
24.3567 -45.0522 9.9551 0.8116
42.3822 -46.7972 12.2725 0.7732
48.5993 -32.8617 11.4037 0.7874
43.6460 16.7619 9.0881 0.8265
24.1652 16.7812 5.7188 0.8870
2.4834 5.6697 0.9804 0.9752
0.9896 5.6789 0.9130 0.9769
0.2979 5.6831 0.9014 0.9772
-3.4860 5.7064 1.0591 0.9733
-4.5124 5.7127 1.1530 0.9709
-5.7583 5.7204 1.2856 0.9677
-9.5431 5.7436 1.7641 0.9559
-68.6558 -21.1844 11.3799 0.7475
-61.7850 -27.5504 10.7146 0.7604
-28.8474 -36.3569 7.3508 0.8286
-15.8926 -34.6139 6.0326 0.8571
13.4950 -45.1411 7.4623 0.8263
26.4814 -45.1133 8.2853 0.8091
35.3481 -46.4059 9.2394 0.7896
43.9360 -45.2097 9.9848 0.7747
49.0079 -39.5928 9.9787 0.7748
49.0600 -30.7156 9.1676 0.7910
52.9889 -17.5052 8.8387 0.7977
53.0308 -10.6900 8.5682 0.8033
53.1244 -4.1928 8.4402 0.8059
53.2727 8.6817 8.5489 0.8036
48.8857 14.1474 8.0604 0.8137
29.9800 17.2455 5.4779 0.8693
24.3155 23.2181 5.3249 0.8727
3.6151 5.6628 1.0641 0.9732
1.9296 5.6731 0.9491 0.9760
1.1966 5.6776 0.9190 0.9768
0.4967 5.6588 0.8997 0.9773
-0.1854 5.6861 0.9011 0.9772
-0.8760 5.6904 0.9119 0.9770
-2.3632 5.6995 0.9772 0.9753
-5.3645 5.7179 1.2418 0.9687
-6.8392 5.7270 1.4129 0.9645
-8.8181 5.7392 1.6664 0.9583
-90.2600 -36.4981 15.4203 0.6742
-22.9124 -34.5361 6.5643 0.8455
-12.8851 -35.8033 6.0267 0.8572
24.3829 -45.1007 8.1204 0.8125
31.8818 -45.0592 8.7424 0.7997
40.9377 -45.2022 9.6590 0.7812
53.6359 -27.5429 9.5497 0.7833
53.0188 -12.6432 8.6328 0.8019
53.0592 -6.0719 8.4586 0.8055
53.2602 0.3309 8.4358 0.8060
53.2735 6.7680 8.5055 0.8045
48.8743 12.2987 7.9823 0.8154
43.6460 16.7619 7.4051 0.8275
32.5505 17.2297 5.8332 0.8614
24.1652 16.7812 4.6598 0.8877
0.2979 5.6831 0.6988 0.9773
-1.0824 5.6916 0.7114 0.9769
-1.8126 5.6961 0.7340 0.9762
-4.5124 5.7127 0.8939 0.9711
-5.7583 5.7204 0.9966 0.9678
-7.3515 5.7284 1.1443 0.9631
-9.5431 5.7436 1.3676 0.9561
-91.7659 -16.6168 11.4507 0.6867
-75.9968 -33.8875 10.2169 0.7151
-34.8840 -34.5029 6.0244 0.8206
-27.4126 -34.5486 5.4151 0.8372
-21.1938 -34.5228 4.9739 0.8494
-16.8211 -36.6362 4.9498 0.8500
-16.8946 -87.7894 10.9770 0.6975
19.4284 -44.6215 5.9756 0.8219
26.4814 -45.1133 6.4230 0.8099
34.5623 -45.3743 7.0034 0.7946
44.5447 -45.8360 7.8478 0.7729
49.0379 -30.7017 7.1038 0.7920
50.2194 -23.5946 6.8128 0.7996
53.0424 -17.5229 6.8590 0.7984
53.1498 8.6617 6.6121 0.8049
49.3365 14.2778 6.3063 0.8130
23.8826 17.8620 3.6618 0.8868
23.3096 22.2576 3.9573 0.8782
23.3473 28.3849 4.5127 0.8623
3.6151 5.6628 0.8249 0.9733
2.7242 5.6682 0.7722 0.9750
1.1966 5.6776 0.7124 0.9769
0.4967 5.6588 0.6975 0.9774
-1.5939 5.6948 0.7261 0.9764
-2.3632 5.6995 0.7576 0.9754
-4.1933 5.7107 0.8699 0.9719
-5.3646 5.7179 0.9627 0.9689
-6.8392 5.7270 1.0953 0.9647
-8.8181 5.7392 1.2918 0.9585
-11.7134 5.7570 1.6025 0.9488
-8.0550 2.8191 1.0479 0.9662
-69.2259 -18.7207 8.8052 0.7490
-13.7005 -38.0689 4.9678 0.8495
13.9213 -53.3357 6.7682 0.8008
16.9252 -42.9391 5.6670 0.8303
48.6989 -32.9290 7.2182 0.7891
53.0964 -27.2659 7.3288 0.7862
53.1313 -19.6507 6.9556 0.7959
53.0188 -12.6432 6.6924 0.8028
53.0592 -6.0719 6.5574 0.8064
53.0986 0.3299 6.5198 0.8074
2.4834 5.6697 0.5415 0.9755
-1.8126 5.6961 0.5230 0.9763
-3.4860 5.7064 0.5850 0.9735
-5.7583 5.7204 0.7101 0.9679
-12.8507 5.7639 1.2322 0.9450
-18.6508 5.7996 1.7088 0.9246
-28.8474 -36.3569 4.0604 0.8300
-16.8211 -36.6362 3.5270 0.8506
-13.9213 -43.4184 3.9891 0.8327
14.9824 -87.1021 7.7324 0.7013
13.2331 -44.2649 4.0420 0.8307
19.7217 -45.2952 4.3221 0.8201
26.4814 -45.1133 4.5767 0.8105
52.9962 -17.5076 4.8830 0.7992
19.2357 5.5667 1.7520 0.9227
38.1086 16.1954 3.6227 0.8468
23.3096 22.2576 2.8197 0.8786
2.7242 5.6682 0.5502 0.9751
1.9296 5.6731 0.5243 0.9762
0.4967 5.6588 0.4970 0.9774
-2.3632 5.6995 0.5398 0.9755
-3.2151 5.7047 0.5729 0.9740
-5.3646 5.7179 0.6860 0.9690
-11.7134 5.7570 1.1419 0.9489
-29.4108 -34.5014 3.9664 0.8336
-18.4031 -36.6265 3.5862 0.8482
-14.9664 -41.5865 3.8668 0.8374
-12.9479 -56.4941 5.0707 0.7924
12.0677 -46.2341 4.1805 0.8254
16.8473 -42.7414 4.0194 0.8315
31.4034 -44.3829 4.7567 0.8039
40.9378 -45.2023 5.3355 0.7828
48.6419 -42.2092 5.6345 0.7721
48.5993 -32.8617 5.1327 0.7901
43.7306 -22.4564 4.3009 0.8209
53.1186 -12.6670 4.7776 0.8031
53.1591 -6.0833 4.6812 0.8067
32.5505 17.2297 3.2221 0.8625
3.8139 6.4649 0.3934 0.9704
2.4834 5.6697 0.3244 0.9755
0.2979 5.6831 0.2982 0.9775
-1.0824 5.6916 0.3036 0.9771
-3.4842 5.7035 0.3503 0.9736
-5.7525 5.7146 0.4249 0.9680
-9.5431 5.7436 0.5837 0.9564
-18.6508 5.7996 1.0236 0.9247
-34.8840 -34.5030 2.5714 0.8216
-27.4126 -34.5486 2.3113 0.8381
-15.8718 -34.5687 1.9935 0.8587
-12.9125 -40.2722 2.2164 0.8442
-15.4400 -80.2312 4.2819 0.7209
13.4938 -45.1369 2.4690 0.8280
23.1805 -30.4320 2.0049 0.8579
26.4845 -27.2523 1.9916 0.8588
49.0080 -39.5928 3.3018 0.7770
49.0601 -30.7156 3.0335 0.7931
58.0335 -11.6984 3.1026 0.7889
57.9862 -4.5765 3.0484 0.7922
41.4609 6.7568 2.2015 0.8451
23.7821 17.7869 1.5564 0.8878
23.3096 22.2576 1.6891 0.8789
5.4884 6.6726 0.4528 0.9660
3.9758 6.2279 0.3872 0.9708
1.9296 5.6731 0.3140 0.9763
1.1966 5.6776 0.3041 0.9770
0.4967 5.6588 0.2977 0.9775
-0.1854 5.6861 0.2982 0.9775
-0.8760 5.6904 0.3017 0.9772
-2.3632 5.6995 0.3234 0.9756
-4.1886 5.7043 0.3709 0.9721
-8.8181 5.7392 0.5514 0.9587
-11.7134 5.7570 0.6840 0.9491
-8.0549 2.8191 0.4472 0.9664
-26.5894 5.8484 1.4268 0.8967
-37.4134 -34.4875 2.6667 0.8156
-22.9124 -34.5361 2.1721 0.8470
-12.8494 -35.7041 1.9887 0.8590
13.9368 -53.3950 2.8921 0.8017
17.7672 -45.0751 2.5392 0.8236
24.3557 -45.0504 2.6839 0.8145
23.1663 -32.7414 2.1020 0.8516
24.6711 -27.2411 1.9261 0.8631
48.6989 -32.9290 3.0809 0.7902
41.7185 -21.4231 2.4578 0.8287
58.0478 -13.8424 3.1275 0.7874
57.9537 0.3601 3.0373 0.7928
42.1069 16.1708 2.3639 0.8347
1.7099 5.6745 0.1034 0.9766
0.9896 5.6789 0.1006 0.9772
-0.3861 5.6873 0.0995 0.9775
-1.0824 5.6916 0.1011 0.9771
-4.4944 5.6898 0.1266 0.9714
-5.7137 5.6761 0.1406 0.9683
-7.3515 5.7284 0.1627 0.9634
-32.0834 5.8821 0.5693 0.8777
-91.1854 -5.3847 1.5944 0.6939
-34.5971 -34.2192 0.8494 0.8231
-28.8474 -36.3569 0.8101 0.8305
-20.9551 -34.1340 0.6991 0.8519
-12.5099 -39.0165 0.7152 0.8488
25.9120 -86.6759 1.5791 0.6963
19.8851 -45.6705 0.8695 0.8193
43.6972 -27.3580 0.8999 0.8136
58.6892 -27.5741 1.1319 0.7715
37.5800 6.1243 0.6646 0.8587
40.4281 17.1812 0.7668 0.8388
23.8826 17.8620 0.5206 0.8875
23.3473 28.3850 0.6415 0.8633
3.9834 6.2398 0.1292 0.9708
2.7242 5.6682 0.1098 0.9752
1.9296 5.6731 0.1046 0.9763
1.1966 5.6776 0.1013 0.9771
-3.2151 5.7047 0.1143 0.9741
-5.3416 5.6934 0.1363 0.9693
-6.7885 5.6846 0.1546 0.9652
-8.8181 5.7392 0.1836 0.9588
-11.6803 5.7407 0.2272 0.9493
-8.0548 2.8191 0.1490 0.9664
-26.5320 5.8358 0.4742 0.8970
-66.7543 -18.0523 1.2070 0.7583
-22.9124 -34.5361 0.7234 0.8472
-14.8183 -41.1749 0.7638 0.8394
23.5947 -90.3967 1.6307 0.6881
19.0437 -48.3136 0.9065 0.8124
23.1663 -32.7414 0.7001 0.8518
31.4406 -27.2827 0.7266 0.8466
40.4303 -27.3380 0.8519 0.8226
41.5877 -21.3557 0.8164 0.8294
39.1435 4.9729 0.6887 0.8540
22.0531 5.5494 0.3969 0.9130
3.8180 6.4718 -0.1312 0.9704
2.4834 5.6697 -0.1080 0.9755
1.7099 5.6745 -0.1034 0.9766
0.9896 5.6789 -0.1006 0.9772
-1.0824 5.6916 -0.1011 0.9771
-2.6025 5.7010 -0.1094 0.9752
-5.6957 5.6582 -0.1401 0.9684
-18.6508 5.7996 -0.3409 0.9248
-32.0834 5.8821 -0.5693 0.8777
-65.7384 4.0263 -1.1496 0.7684
-91.1738 -5.3840 -1.5942 0.6939
-84.1065 -15.2299 -1.4920 0.7104
-61.3422 -27.3529 -1.1724 0.7644
-71.5516 -42.8512 -1.4558 0.7163
-32.7158 -25.3779 -0.7227 0.8473
-14.4497 -23.5372 -0.4821 0.8954
-11.4590 -24.9576 -0.4794 0.8960
-9.5211 -29.6948 -0.5443 0.8827
27.0306 -90.4178 -1.6473 0.6855
18.4727 -42.4266 -0.8077 0.8310
23.1805 -30.4320 -0.6677 0.8581
33.7884 -27.2971 -0.7582 0.8405
58.6893 -27.5741 -1.1319 0.7715
41.0750 6.6939 -0.7264 0.8466
19.2189 5.5619 -0.3492 0.9231
40.4281 17.1812 -0.7668 0.8388
23.4493 13.4888 -0.4722 0.8974
1.9296 5.6731 -0.1046 0.9763
1.1966 5.6776 -0.1013 0.9771
0.4967 5.6588 -0.0992 0.9775
-0.8760 5.6904 -0.1005 0.9772
-1.5939 5.6948 -0.1032 0.9766
-2.3632 5.6995 -0.1077 0.9756
-3.2151 5.7047 -0.1143 0.9741
-11.6740 5.7376 -0.2271 0.9493
-26.0330 5.7260 -0.4653 0.8989
-64.4828 6.2323 -1.1308 0.7717
-65.4190 -26.4532 -1.2317 0.7540
-25.7409 -23.7279 -0.6111 0.8693
-12.3635 -24.6062 -0.4807 0.8957
-10.0860 -28.0255 -0.5199 0.8877
24.6711 -27.2411 -0.6415 0.8633
40.4303 -27.3380 -0.8519 0.8226
53.6359 -27.5429 -1.0524 0.7857
65.6386 0.4078 -1.1457 0.7690
22.0531 5.5494 -0.3969 0.9130
43.6461 16.7620 -0.8161 0.8294
2.4834 5.6697 -0.3244 0.9755
0.2979 5.6831 -0.2982 0.9775
-0.3861 5.6873 -0.2987 0.9774
-1.0824 5.6916 -0.3036 0.9771
-1.8126 5.6961 -0.3133 0.9763
-2.6025 5.7010 -0.3284 0.9752
-4.4686 5.6573 -0.3778 0.9715
-5.6778 5.6404 -0.4194 0.9685
-9.5431 5.7436 -0.5837 0.9564
-18.6508 5.7996 -1.0236 0.9247
-30.1008 5.5187 -1.6038 0.8846
-45.0324 2.7584 -2.3645 0.8347
-44.7537 -2.6428 -2.3495 0.8356
-44.1142 -7.9881 -2.3495 0.8356
-45.6137 -14.0745 -2.5017 0.8260
-23.0488 -22.7971 -1.6990 0.8782
-17.4050 -21.9359 -1.4675 0.8939
-11.4312 -24.8970 -1.4358 0.8961
-9.5495 -29.7835 -1.6392 0.8823
23.2845 -30.5685 -2.0139 0.8573
24.4687 -25.1781 -1.8400 0.8688
37.3943 -23.4119 -2.3122 0.8380
32.1009 -15.0820 -1.8588 0.8676
45.3265 -14.9739 -2.5017 0.8260
47.5878 -3.7558 -2.5017 0.8260
39.1980 6.3880 -2.0814 0.8529
17.9798 10.3426 -1.0871 0.9203
23.8126 22.7379 -1.7255 0.8764
23.8511 28.9975 -1.9677 0.8604
3.9834 6.2398 -0.3880 0.9708
2.7242 5.6682 -0.3296 0.9751
1.9296 5.6731 -0.3140 0.9763
-0.8760 5.6904 -0.3017 0.9772
-3.2151 5.7047 -0.3432 0.9741
-4.1645 5.6715 -0.3688 0.9722
-5.3090 5.6587 -0.4066 0.9694
-6.6894 5.6015 -0.4573 0.9657
-8.8181 5.7392 -0.5514 0.9587
-11.6740 5.7376 -0.6817 0.9492
-44.8592 4.3357 -2.3619 0.8348
-44.8950 -1.0688 -2.3535 0.8354
-41.7906 -23.0707 -2.5017 0.8260
-38.7239 -27.9136 -2.5017 0.8260
-25.9868 -23.9545 -1.8523 0.8680
-15.1665 -22.8606 -1.4378 0.8959
-10.0475 -27.9185 -1.5550 0.8879
-6.5654 -28.6459 -1.5402 0.8889
-5.0100 -47.4722 -2.5017 0.8260
0.7164 -47.7304 -2.5017 0.8260
6.4325 -47.3004 -2.5017 0.8260
12.0558 -46.1884 -2.5017 0.8260
14.7169 -37.3365 -2.1032 0.8515
21.3210 -39.4372 -2.3495 0.8356
20.3319 -28.7354 -1.8448 0.8685
29.7674 -25.8308 -2.0655 0.8540
37.1384 -25.1121 -2.3495 0.8356
46.4338 -11.0729 -2.5017 0.8260
47.4263 -5.4273 -2.5017 0.8260
47.7349 0.2966 -2.5017 0.8260
22.0531 5.5494 -1.1918 0.9129
17.9367 6.8885 -1.0070 0.9259
17.9620 9.5076 -1.0651 0.9218
0.9896 5.6789 -0.5043 0.9771
-0.3861 5.6873 -0.4987 0.9774
-2.6025 5.7010 -0.5483 0.9752
-3.4842 5.7035 -0.5847 0.9735
-4.4686 5.6573 -0.6307 0.9715
-5.6599 5.6226 -0.6980 0.9685
-7.1344 5.5593 -0.7913 0.9643
-9.5431 5.7436 -0.9745 0.9563
-12.5959 5.6497 -1.2078 0.9461
-18.6508 5.7996 -1.7088 0.9246
-27.3236 -8.4310 -2.5017 0.8915
-26.1161 -11.6453 -2.5017 0.8915
-16.6922 -21.0374 -2.3495 0.8978
-11.2056 -24.4057 -2.3495 0.8978
-8.1994 -25.5729 -2.3495 0.8978
-5.4015 -28.0678 -2.5007 0.8916
8.1903 -27.3968 -2.5017 0.8915
16.2728 -21.3634 -2.3495 0.8978
21.4320 -17.3146 -2.4105 0.8953
25.8807 -12.1596 -2.5017 0.8915
28.0310 -5.6505 -2.5017 0.8915
28.5062 -2.2499 -2.5017 0.8915
28.5640 1.1830 -2.5012 0.8916
19.0939 5.5257 -1.7390 0.9233
-0.1854 5.6861 -0.4977 0.9774
-2.3632 5.6995 -0.5398 0.9755
-4.1645 5.6715 -0.6156 0.9721
-5.2925 5.6411 -0.6767 0.9694
-8.8181 5.7392 -0.9205 0.9586
-11.6274 5.7147 -1.1335 0.9493
-8.0546 2.8190 -0.7466 0.9663
-26.7306 2.5836 -2.3495 0.8978
-28.2991 -4.1022 -2.5017 0.8915
-27.6033 -7.4647 -2.5017 0.8915
-23.1965 -16.7209 -2.5017 0.8915
-19.8316 -18.2807 -2.3597 0.8974
-17.4218 -20.4373 -2.3495 0.8978
-14.8465 -22.3782 -2.3495 0.8978
-12.0571 -23.9964 -2.3495 0.8978
-5.9994 -26.1765 -2.3495 0.8978
-3.0011 -28.4369 -2.5017 0.8915
3.8532 -28.3340 -2.5017 0.8915
7.2216 -27.6679 -2.5017 0.8915
10.4860 -26.6028 -2.5017 0.8915
15.5114 -21.9226 -2.3495 0.8978
18.0273 -19.9052 -2.3495 0.8978
23.6879 -16.0172 -2.5017 0.8915
27.8149 -6.6329 -2.5017 0.8915
28.4094 -3.2511 -2.5017 0.8915
26.6411 3.3846 -2.3495 0.8978
18.3346 7.0413 -1.7183 0.9242
18.7345 13.0099 -1.9955 0.9125
3.8180 6.4718 -0.9226 0.9702
-0.3861 5.6873 -0.6999 0.9773
-1.8126 5.6961 -0.7340 0.9762
-2.6025 5.7010 -0.7695 0.9751
-4.4686 5.6573 -0.8852 0.9714
-7.0599 5.5012 -1.0989 0.9646
-9.5431 5.7436 -1.3676 0.9561
-12.3863 5.5557 -1.6668 0.9468
-18.2723 5.6819 -2.3495 0.9258
-18.8216 3.4507 -2.3495 0.9258
-20.3395 -1.2011 -2.5017 0.9212
-18.6087 -8.2978 -2.5017 0.9212
-17.4799 -10.4685 -2.5017 0.9212
-16.0991 -12.4882 -2.5017 0.9212
-14.4862 -14.3279 -2.5017 0.9212
-10.6598 -17.3639 -2.5017 0.9212
-3.8504 -20.0078 -2.5017 0.9212
5.8359 -19.5213 -2.5017 0.9212
14.2000 -14.6116 -2.5017 0.9212
15.8490 -12.8042 -2.5017 0.9212
18.4410 -8.6642 -2.5017 0.9212
19.3466 -6.3913 -2.5017 0.9212
19.9732 -4.0262 -2.5017 0.9212
20.3118 -1.6031 -2.5017 0.9212
20.3575 0.8431 -2.5017 0.9212
18.3811 5.3194 -2.3495 0.9258
17.6110 7.4843 -2.3495 0.9258
15.4144 11.5286 -2.3634 0.9254
3.9834 6.2398 -0.9090 0.9706
2.7242 5.6682 -0.7722 0.9750
1.9296 5.6731 -0.7358 0.9761
-1.5939 5.6948 -0.7261 0.9764
-8.8181 5.7392 -1.2918 0.9585
-11.6004 5.7014 -1.5871 0.9492
-8.0545 2.8190 -1.0478 0.9662
-19.0466 1.8409 -2.3495 0.9258
-20.3692 -0.4849 -2.5017 0.9212
-9.7912 -2.6478 -1.2454 0.9599
-17.8373 -9.8472 -2.5017 0.9212
-14.9811 -13.8095 -2.5017 0.9212
-13.2179 -15.5057 -2.5017 0.9212
-11.2640 -16.9783 -2.5017 0.9212
-6.8994 -19.1712 -2.5017 0.9212
0.3058 -20.3726 -2.5017 0.9212
7.4717 -18.9555 -2.5017 0.9212
11.7684 -16.6325 -2.5017 0.9212
18.1248 -9.3074 -2.5017 0.9212
19.1098 -7.0678 -2.5017 0.9212
19.8192 -4.7262 -2.5017 0.9212
20.3745 0.1266 -2.5017 0.9212
18.9828 2.4116 -2.3495 0.9258
18.5568 4.6696 -2.3495 0.9258
8.1396 5.6525 -1.2168 0.9609
3.8180 6.4718 -1.1901 0.9700
2.4834 5.6697 -0.9804 0.9752
1.7099 5.6745 -0.9387 0.9763
-1.8126 5.6961 -0.9468 0.9761
-2.6025 5.7010 -0.9926 0.9749
-3.4805 5.6973 -1.0574 0.9733
-4.4480 5.6312 -1.1366 0.9714
-9.5431 5.7436 -1.7641 0.9559
-12.3863 5.5557 -2.1501 0.9465
-14.5911 2.6751 -2.3495 0.9417
-15.7678 -0.9311 -2.5017 0.9380
-11.0590 -2.0025 -1.7801 0.9555
-9.1101 -2.8110 -1.5100 0.9621
-9.8177 -12.3735 -2.5017 0.9380
-8.2638 -13.4610 -2.5017 0.9380
-6.5907 -14.3545 -2.5017 0.9380
-4.8226 -15.0410 -2.5017 0.9380
-2.9849 -15.5107 -2.5017 0.9380
-1.1042 -15.7566 -2.5017 0.9380
0.7924 -15.7754 -2.5017 0.9380
2.6776 -15.5667 -2.5017 0.9380
6.3055 -14.4821 -2.5017 0.9380
7.9960 -13.6218 -2.5017 0.9380
9.5711 -12.5652 -2.5017 0.9380
11.0082 -11.3274 -2.5017 0.9380
12.2866 -9.9262 -2.5017 0.9380
13.3878 -8.3819 -2.5017 0.9380
15.4838 -3.1212 -2.5017 0.9380
15.7817 0.6536 -2.5017 0.9380
12.8587 7.3967 -2.3495 0.9417
11.9003 8.9004 -2.3537 0.9416
3.9834 6.2398 -1.1725 0.9705
1.9296 5.6731 -0.9491 0.9760
1.1966 5.6776 -0.9190 0.9768
-0.8760 5.6904 -0.9119 0.9770
-1.5939 5.6948 -0.9366 0.9763
-3.2151 5.7047 -1.0372 0.9738
-5.2306 5.5752 -1.2108 0.9695
-11.6004 5.7014 -2.0472 0.9490
-8.0545 2.8189 -1.3516 0.9660
-15.4212 1.4905 -2.4539 0.9392
-9.1218 -3.6885 -1.5584 0.9609
-12.8133 -9.2363 -2.5017 0.9380
-11.6138 -10.7056 -2.5017 0.9380
-10.2469 -12.0205 -2.5017 0.9380
-8.7322 -13.1621 -2.5017 0.9380
-7.0915 -14.1138 -2.5017 0.9380
-3.5286 -15.3961 -2.5017 0.9380
-1.6577 -15.7080 -2.5017 0.9380
2.1284 -15.6512 -2.5017 0.9380
9.0718 -12.8214 -2.4876 0.9384
14.8145 -5.4792 -2.5017 0.9380
14.3858 3.6200 -2.3495 0.9417
13.8482 5.3183 -2.3495 0.9417
13.1109 6.9399 -2.3495 0.9417
12.1977 8.4706 -2.3521 0.9416
3.8180 6.4718 -1.4606 0.9698
0.2979 5.6831 -1.1062 0.9771
-0.3861 5.6873 -1.1081 0.9770
-2.6025 5.7010 -1.2182 0.9748
-3.4801 5.6967 -1.2976 0.9732
-4.4032 5.5744 -1.3808 0.9715
-6.7298 5.2440 -1.6584 0.9658
-11.0287 4.9467 -2.3495 0.9519
-12.8462 0.7868 -2.5017 0.9489
-12.8479 -0.7587 -2.5017 0.9489
-8.3579 -3.7268 -1.7788 0.9634
-9.1505 -9.0505 -2.5017 0.9489
-3.9296 -12.2557 -2.5017 0.9489
-0.8998 -12.8388 -2.5017 0.9489
0.6457 -12.8540 -2.5017 0.9489
2.1818 -12.6840 -2.5017 0.9489
3.6864 -12.3310 -2.5017 0.9489
5.1379 -11.8003 -2.5017 0.9489
6.5153 -11.0993 -2.5017 0.9489
7.7987 -10.2383 -2.5017 0.9489
8.9697 -9.2297 -2.5017 0.9489
11.6486 -5.4729 -2.5017 0.9489
12.6165 -2.5432 -2.5017 0.9489
11.1243 4.7276 -2.3495 0.9519
10.4775 6.0270 -2.3495 0.9519
8.7499 8.3550 -2.3516 0.9519
5.6527 6.8724 -1.7297 0.9644
3.9834 6.2398 -1.4390 0.9703
1.1966 5.6776 -1.1279 0.9766
0.4967 5.6588 -1.1042 0.9771
-0.1854 5.6861 -1.1059 0.9771
-0.8760 5.6904 -1.1191 0.9768
-5.1745 5.5154 -1.4700 0.9697
-8.8181 5.7392 -2.0451 0.9580
-10.8479 5.3316 -2.3495 0.9519
-8.0074 2.8025 -1.6491 0.9660
-11.8051 2.5966 -2.3495 0.9519
-11.2673 -6.2202 -2.5017 0.9489
-9.4632 -8.7231 -2.5017 0.9489
-7.1151 -10.7247 -2.5017 0.9489
-5.7783 -11.5002 -2.5017 0.9489
-4.3582 -12.1099 -2.5017 0.9489
0.1931 -12.8688 -2.5017 0.9489
6.1208 -11.3216 -2.5017 0.9489
10.6617 -7.2092 -2.5017 0.9489
11.4489 -5.8792 -2.5017 0.9489
12.0711 -4.4645 -2.5017 0.9489
12.5192 -2.9854 -2.5017 0.9489
10.6830 5.6547 -2.3495 0.9519
9.9281 6.8945 -2.3495 0.9519
0.9896 5.6789 -1.3308 0.9766
0.2979 5.6831 -1.3139 0.9769
-0.3861 5.6873 -1.3160 0.9769
-1.0824 5.6916 -1.3376 0.9765
-1.8126 5.6961 -1.3800 0.9758
-2.6025 5.7010 -1.4468 0.9746
-6.5731 5.1219 -1.9238 0.9664
-9.2856 4.1649 -2.3495 0.9591
-9.7179 3.0219 -2.3495 0.9591
-10.0101 1.8352 -2.3495 0.9591
-10.8159 0.6625 -2.5017 0.9565
-9.2965 -5.5675 -2.5017 0.9565
-8.5621 -6.6417 -2.5017 0.9565
-7.7043 -7.6201 -2.5017 0.9565
-6.7354 -8.4887 -2.5017 0.9565
-5.6693 -9.2348 -2.5017 0.9565
-2.0478 -10.6409 -2.5017 0.9565
-0.7575 -10.8097 -2.5017 0.9565
0.5436 -10.8225 -2.5017 0.9565
1.8369 -10.6793 -2.5017 0.9565
4.3258 -9.9353 -2.5017 0.9565
5.4855 -9.3451 -2.5017 0.9565
9.1846 -5.7503 -2.5017 0.9565
10.2892 -3.3991 -2.5017 0.9565
10.8026 -0.8526 -2.5017 0.9565
10.8269 0.4484 -2.5017 0.9565
10.0444 1.6369 -2.3495 0.9591
9.3662 3.9805 -2.3495 0.9591
2.7242 5.6682 -1.4519 0.9745
1.9296 5.6731 -1.3834 0.9757
-0.8760 5.6904 -1.3292 0.9766
-2.3632 5.6995 -1.4245 0.9750
-3.2151 5.7047 -1.5118 0.9735
-5.1188 5.4560 -1.7272 0.9698
-8.5295 5.5513 -2.3495 0.9591
-10.8331 -0.2579 -2.5017 0.9565
-8.1919 -2.2153 -1.9592 0.9658
-9.4866 -5.2371 -2.5017 0.9565
-8.7904 -6.3365 -2.5017 0.9565
-7.0298 -8.2465 -2.5017 0.9565
-5.9906 -9.0297 -2.5017 0.9565
-4.8651 -9.6826 -2.5017 0.9565
-3.6694 -10.1960 -2.5017 0.9565
-2.4208 -10.5623 -2.5017 0.9565
0.1626 -10.8350 -2.5017 0.9565
1.4602 -10.7373 -2.5017 0.9565
3.9737 -10.0813 -2.5017 0.9565
7.2741 -8.0318 -2.5017 0.9565
8.1844 -7.1020 -2.5017 0.9565
9.6395 -4.9500 -2.5017 0.9565
10.1633 -3.7589 -2.5017 0.9565
10.7659 -1.2320 -2.5017 0.9565
10.8360 0.0673 -2.5017 0.9565
10.5165 1.3361 -2.4474 0.9574
9.8692 2.4835 -2.3495 0.9591
3.8180 6.4718 -2.0134 0.9694
2.4834 5.6697 -1.6585 0.9747
0.9896 5.6789 -1.5446 0.9764
0.2979 5.6831 -1.5249 0.9767
-1.0824 5.6916 -1.5524 0.9763
-2.6024 5.7010 -1.6792 0.9744
-3.4801 5.6967 -1.7887 0.9727
-5.4001 5.3645 -2.0396 0.9690
-6.9167 5.3896 -2.3495 0.9643
-9.1872 -1.6636 -2.5017 0.9621
-8.5272 -3.8023 -2.5017 0.9621
-7.3772 -5.7226 -2.5017 0.9621
-6.6381 -6.5656 -2.5017 0.9621
-4.8848 -7.9568 -2.5017 0.9621
-3.8958 -8.4850 -2.5017 0.9621
-1.7644 -9.1683 -2.5017 0.9621
3.7272 -8.5603 -2.5017 0.9621
4.7264 -8.0519 -2.5017 0.9621
5.6575 -7.4273 -2.5017 0.9621
6.5070 -6.6956 -2.5017 0.9621
8.4504 -3.9702 -2.5017 0.9621
9.1525 -1.8450 -2.5017 0.9621
9.3076 -0.7346 -2.5017 0.9621
8.9630 1.4607 -2.4333 0.9631
8.4229 2.4376 -2.3495 0.9643
7.6007 4.3722 -2.3495 0.9643
6.3418 6.0555 -2.3495 0.9643
5.5702 6.7721 -2.3495 0.9643
3.9834 6.2398 -1.9836 0.9698
2.7242 5.6682 -1.6851 0.9743
-0.1854 5.6861 -1.5244 0.9767
-1.5939 5.6948 -1.5846 0.9758
-2.3632 5.6995 -1.6532 0.9748
-3.2151 5.7047 -1.7546 0.9732
-6.7228 5.6295 -2.3495 0.9643
-7.8694 3.8677 -2.3495 0.9643
-7.8521 2.7481 -2.2291 0.9661
-8.1983 -2.2171 -2.2756 0.9654
-8.1737 -4.5124 -2.5017 0.9621
-6.0569 -7.1053 -2.5017 0.9621
-3.1616 -8.7850 -2.5017 0.9621
-2.0858 -9.1006 -2.5017 0.9621
-0.9799 -9.2850 -2.5017 0.9621
0.1401 -9.3355 -2.5017 0.9621
3.4238 -8.6861 -2.5017 0.9621
5.3927 -7.6217 -2.5017 0.9621
6.2674 -6.9203 -2.5017 0.9621
7.0517 -6.1192 -2.5017 0.9621
8.3055 -4.2650 -2.5017 0.9621
8.7568 -3.2387 -2.5017 0.9621
9.0819 -2.1657 -2.5017 0.9621
9.2760 -1.0616 -2.5017 0.9621
8.5034 2.1398 -2.3495 0.9643
7.7498 4.1021 -2.3495 0.9643
7.2022 5.0015 -2.3495 0.9643
