ply
format ascii 1.0
element vertex 975
property float32 x
property float32 y
property float32 z
property float32 I
end_header
-29.3332 -0.1092 7.8599 0.8856
-45.0617 -11.2249 12.4432 0.8251
-65.7953 -25.0917 18.8683 0.7471
-12.9757 -14.6271 5.2392 0.9222
-20.5638 -29.7100 9.6817 0.8610
-16.7801 -43.9094 12.5953 0.8231
-10.6383 -42.5815 11.7604 0.8338
44.1602 -85.5730 25.8024 0.6711
46.7201 16.9520 13.3172 0.8140
26.4475 22.6719 9.3340 0.8657
27.4926 29.9944 10.9023 0.8449
4.0553 5.6601 1.8657 0.9716
2.2736 5.6710 1.6371 0.9750
1.5165 5.6756 1.5741 0.9760
0.8056 5.6800 1.5372 0.9765
0.1175 5.6843 1.5234 0.9767
-0.5680 5.6885 1.5318 0.9766
-1.2714 5.6928 1.5630 0.9761
-2.8262 5.7023 1.7053 0.9740
-3.7425 5.7080 1.8289 0.9721
-19.2152 22.7876 7.9869 0.8839
-21.6410 20.1623 7.9254 0.8847
-26.4055 19.2459 8.7552 0.8734
-4.9567 2.7702 1.5215 0.9768
-65.1919 -22.4614 18.4759 0.7516
-57.4067 -27.8730 17.0993 0.7678
-17.2927 -30.3596 9.3619 0.8653
-13.8644 -33.0171 9.5952 0.8622
-12.1056 -76.3979 20.7262 0.7259
51.1210 16.6883 14.4092 0.8004
27.4809 28.0900 10.5296 0.8498
2.4900 5.6697 1.6592 0.9747
0.9948 5.6789 1.5448 0.9764
-1.0781 5.6916 1.5522 0.9763
-1.8083 5.6961 1.6013 0.9756
-3.4815 5.7064 1.7911 0.9727
-21.5037 21.3825 8.1256 0.8820
-25.3036 19.7343 8.5983 0.8756
-27.0336 -34.0874 11.6574 0.8351
-13.9009 -30.3033 8.9333 0.8710
51.8036 -32.3649 16.3671 0.7765
-25.3098 -36.5670 10.2671 0.8331
-17.0910 -32.4137 8.4598 0.8603
-17.1096 -44.7718 11.0654 0.8214
-10.8521 -43.4372 10.3365 0.8321
32.2039 -47.4163 13.2331 0.7903
52.2153 -47.0845 16.2321 0.7493
46.7201 16.9520 11.4743 0.8154
34.0461 17.2204 8.8084 0.8550
27.0190 18.0313 7.4993 0.8752
0.8056 5.6800 1.3245 0.9767
-2.0150 5.6974 1.3952 0.9755
-2.8262 5.7023 1.4693 0.9742
-3.7425 5.7080 1.5758 0.9724
-4.8187 5.7146 1.7258 0.9698
-6.1424 5.7227 1.9382 0.9661
-67.1428 -14.4233 15.8548 0.7543
-25.7017 -34.6669 9.9632 0.8376
-12.7537 -44.7985 10.7535 0.8260
22.1890 -46.6621 11.9288 0.8089
50.9016 16.6167 12.3619 0.8027
36.7134 17.0934 9.3496 0.8468
26.9410 21.6153 7.9743 0.8678
3.3496 5.6644 1.5193 0.9733
0.9948 5.6789 1.3310 0.9766
-0.3816 5.6873 1.3160 0.9769
-1.0781 5.6916 1.3374 0.9765
-2.5981 5.7009 1.4464 0.9746
-3.4815 5.7064 1.5433 0.9729
-4.5075 5.7127 1.6800 0.9706
-25.9561 20.2432 7.5994 0.8736
-58.7827 -26.2141 14.8593 0.7678
-14.3803 -31.3484 7.9625 0.8680
-14.3413 -44.7888 10.8574 0.8244
-9.3656 -48.7823 11.4680 0.8155
27.1445 -46.1638 12.3637 0.8026
51.8542 -53.2668 17.1624 0.7370
-29.3827 -0.1093 5.7115 0.8872
-60.1418 -31.6584 13.2111 0.7581
-8.4364 -12.1887 2.8814 0.9414
-18.2541 -34.6195 7.6075 0.8526
-14.0072 -36.6534 7.6272 0.8522
-10.8521 -43.4372 8.7029 0.8332
-11.4270 -91.2219 17.8703 0.6875
16.2009 -43.5421 9.0306 0.8275
23.2240 -45.0031 9.8438 0.8135
41.9206 -48.1042 12.4029 0.7710
51.7128 -36.4185 12.2945 0.7728
51.7631 -27.8339 11.4241 0.7870
46.7201 16.9521 9.6608 0.8167
5.1816 5.6531 1.4906 0.9692
3.1063 5.6659 1.2560 0.9740
2.2736 5.6710 1.1876 0.9754
1.5165 5.6756 1.1419 0.9763
0.8056 5.6800 1.1151 0.9769
-0.5680 5.6885 1.1112 0.9770
-1.2714 5.6928 1.1338 0.9765
-2.8262 5.7023 1.2371 0.9744
-3.7425 5.7080 1.3267 0.9726
-6.1424 5.7227 1.6319 0.9664
-64.2729 -22.1447 13.2141 0.7580
-57.6433 -27.9879 12.4556 0.7702
-25.5963 -34.5247 8.3541 0.8393
-14.2114 -33.8435 7.1350 0.8611
-12.3740 -43.4647 8.7844 0.8318
-12.5461 -79.1781 15.5827 0.7213
30.3393 -90.4382 18.5422 0.6779
20.6693 -43.4664 9.3556 0.8219
51.6971 -38.9831 12.5857 0.7681
51.1210 16.6883 10.4530 0.8032
7.0318 5.6417 1.7524 0.9639
4.3394 5.6583 1.3861 0.9714
2.4900 5.6697 1.2037 0.9751
0.9948 5.6789 1.1207 0.9768
0.3027 5.6831 1.1063 0.9771
-0.3816 5.6873 1.1080 0.9770
-1.8083 5.6961 1.1617 0.9759
-2.5981 5.7009 1.2178 0.9748
-7.3473 5.7301 1.8111 0.9627
-73.4189 -32.7410 15.6259 0.7207
-34.4001 -43.3761 10.7611 0.7980
-9.8030 -51.0606 10.1064 0.8091
16.4985 -55.0583 11.1724 0.7912
18.3928 -42.1629 8.9415 0.8291
26.5473 -45.1481 10.1806 0.8078
45.9385 -47.1900 12.8014 0.7646
56.5948 -45.6380 14.1321 0.7436
-89.6081 21.6144 14.5996 0.6885
-29.3982 -0.1094 4.6562 0.8878
-70.4105 -37.0638 12.6026 0.7245
-65.1473 -45.0250 12.5428 0.7256
-25.3098 -36.5670 7.0436 0.8352
-10.8521 -43.4373 7.0912 0.8342
16.4328 -44.1653 7.4636 0.8263
22.1700 -42.9607 7.6569 0.8222
30.7342 -45.2522 8.6640 0.8013
51.8744 -36.5323 10.0491 0.7734
29.6626 -15.9501 5.3342 0.8725
70.6187 -27.6473 12.0115 0.7356
57.2223 -14.7915 9.3610 0.7871
56.4738 -7.5411 9.0240 0.7939
56.3576 6.0910 8.9781 0.7949
51.9582 12.0487 8.4477 0.8057
34.0462 17.2205 6.0429 0.8568
4.0553 5.6601 1.1028 0.9722
2.2736 5.6710 0.9677 0.9756
1.5165 5.6756 0.9305 0.9765
0.8056 5.6800 0.9086 0.9770
0.1175 5.6843 0.9005 0.9772
-1.2714 5.6928 0.9239 0.9767
-2.8262 5.7023 1.0080 0.9746
-3.7425 5.7080 1.0811 0.9727
-7.8661 5.7333 1.5417 0.9613
-85.0966 23.4798 13.9816 0.6994
-86.4457 2.4912 13.6973 0.7045
-65.5108 -22.5713 10.9745 0.7553
-25.7017 -34.6669 6.8351 0.8396
-19.6829 -34.5559 6.2987 0.8512
37.9707 -46.5455 9.5140 0.7841
51.8747 -49.9306 11.4037 0.7471
52.1980 -30.2966 9.5590 0.7832
64.7504 -27.8113 11.1614 0.7517
56.2580 4.2346 8.9356 0.7957
53.5517 10.5957 8.6462 0.8017
50.9017 16.6167 8.4807 0.8051
36.7134 17.0934 6.4142 0.8487
26.9811 16.7639 5.0311 0.8793
7.0318 5.6417 1.4279 0.9641
4.3394 5.6583 1.1294 0.9715
1.7157 5.6744 0.9389 0.9763
-1.8083 5.6961 0.9465 0.9761
-2.5981 5.7009 0.9923 0.9749
-3.4815 5.7064 1.0587 0.9733
-7.3473 5.7301 1.4758 0.9630
-9.5350 5.7436 1.7630 0.9559
-86.7535 5.3282 13.7663 0.7033
-87.0771 -15.7617 14.0158 0.6988
-65.5220 -20.2162 10.8604 0.7575
-68.4673 -67.7448 15.2553 0.6770
-22.4635 -36.6149 6.8036 0.8403
-15.8784 -34.6141 6.0316 0.8571
-11.0928 -34.6434 5.7614 0.8630
-9.6213 -50.1146 8.0823 0.8133
13.5471 -45.2088 7.4749 0.8260
18.9118 -43.3528 7.4913 0.8257
25.8568 -43.9738 8.0796 0.8134
34.3910 -45.0746 8.9798 0.7948
44.0085 -45.2074 9.9926 0.7745
51.6805 -41.6751 10.5152 0.7642
-46.1050 -11.4848 5.8340 0.8257
-72.5550 -38.1926 10.0675 0.7186
-65.2333 -45.0844 9.7364 0.7265
-30.6307 -34.5291 5.6674 0.8303
-18.6168 -35.3074 4.9009 0.8514
-14.0072 -36.6535 4.8179 0.8537
-9.8070 -39.2542 4.9679 0.8495
-11.0910 -88.5398 10.9563 0.6980
13.4940 -56.1130 7.0862 0.7925
15.9742 -42.9328 5.6245 0.8314
22.1925 -43.0042 5.9419 0.8228
30.6575 -45.1392 6.6998 0.8026
39.5171 -45.3462 7.3853 0.7847
50.2600 -45.3213 8.3096 0.7613
51.7129 -36.4185 7.7661 0.7750
54.1006 -21.1805 7.1337 0.7913
71.3889 -18.4534 9.0536 0.7429
56.2394 -7.5099 6.9666 0.7956
52.4833 5.6723 6.4817 0.8084
46.7201 16.9521 6.1024 0.8185
34.0462 17.2205 4.6847 0.8575
27.0190 18.0313 3.9884 0.8773
6.5845 5.6445 1.0649 0.9657
5.1816 5.6531 0.9416 0.9696
4.0553 5.6601 0.8549 0.9723
2.2736 5.6710 0.7502 0.9757
0.1175 5.6843 0.6981 0.9773
-0.5680 5.6885 0.7019 0.9772
-2.0150 5.6974 0.7420 0.9759
-2.8262 5.7023 0.7814 0.9747
-3.7425 5.7080 0.8381 0.9729
-7.8661 5.7333 1.1952 0.9615
-87.3063 24.0895 11.1204 0.6942
-19.6828 -34.5559 4.8829 0.8519
-15.3878 -36.6450 4.8800 0.8520
-11.0786 -38.9145 4.9679 0.8495
-12.5461 -79.1782 9.8431 0.7239
16.1436 -48.1225 6.2323 0.8150
28.5491 -45.1262 6.5565 0.8064
37.1070 -45.4867 7.2077 0.7893
47.7790 -45.9884 8.1425 0.7655
51.6971 -38.9831 7.9500 0.7703
53.3875 -22.9307 7.1342 0.7912
74.1924 -21.7756 9.4939 0.7323
56.3538 -9.3999 7.0150 0.7943
56.2700 -2.5381 6.9161 0.7969
56.2580 4.2346 6.9271 0.7966
36.7134 17.0935 4.9725 0.8494
7.0318 5.6417 1.1069 0.9643
2.4900 5.6697 0.7603 0.9754
1.7157 5.6744 0.7279 0.9764
-1.8083 5.6961 0.7338 0.9762
-2.5981 5.7009 0.7693 0.9751
-4.5075 5.7127 0.8935 0.9711
-5.7528 5.7203 0.9961 0.9678
-7.3473 5.7301 1.1441 0.9631
-9.5350 5.7436 1.3667 0.9561
-12.8394 5.7639 1.7281 0.9449
-41.1902 -12.7088 5.2928 0.8405
-88.6978 -39.5546 11.9246 0.6761
-27.3995 -34.5488 5.4142 0.8372
-21.1544 -34.4811 4.9670 0.8496
-16.8061 -36.6363 4.9491 0.8501
-11.8020 -36.8584 4.7520 0.8556
13.9786 -46.6488 5.9794 0.8218
18.8008 -43.0981 5.7734 0.8274
34.5749 -45.3157 6.9986 0.7948
44.0220 -45.2213 7.7489 0.7754
-15.5024 5.7803 1.4475 0.9357
-29.4116 -0.1094 2.5732 0.8886
-46.0893 -11.4809 4.1555 0.8264
-52.4688 -27.6194 5.1876 0.7881
-25.3098 -36.5670 3.8908 0.8365
-18.6168 -35.3074 3.4921 0.8519
-10.8521 -43.4373 3.9171 0.8355
-10.8215 -86.3885 7.6171 0.7050
13.5805 -56.4726 5.0816 0.7920
16.5030 -44.3539 4.1404 0.8269
23.3594 -45.2655 4.4564 0.8150
30.7893 -45.3333 4.7944 0.8025
39.1646 -44.9417 5.2154 0.7871
51.8744 -36.5323 5.5509 0.7751
51.7632 -27.8339 5.1419 0.7898
56.2857 -7.5161 4.9681 0.7961
49.6216 5.3630 4.3666 0.8184
52.0083 12.0604 4.6709 0.8071
34.0462 17.2205 3.3380 0.8580
26.9186 17.9643 2.8313 0.8781
6.5845 5.6445 0.7588 0.9658
5.1816 5.6531 0.6709 0.9697
2.2736 5.6710 0.5345 0.9758
0.1175 5.6843 0.4974 0.9774
-1.2714 5.6928 0.5103 0.9769
-2.8262 5.7023 0.5568 0.9748
-4.8187 5.7146 0.6540 0.9704
-6.1424 5.7227 0.7345 0.9669
-4.9551 2.7693 0.4966 0.9775
-14.0635 5.7714 1.3300 0.9408
-21.0087 5.7967 1.9067 0.9162
-15.3878 -36.6450 3.4772 0.8525
-11.8308 -41.5568 3.7802 0.8407
28.6719 -45.3202 4.6919 0.8063
56.3163 -2.5402 4.9320 0.7974
50.9018 16.6168 4.6846 0.8065
36.7134 17.0934 3.5431 0.8499
5.5284 5.6510 0.6916 0.9688
4.3394 5.6583 0.6239 0.9718
3.3496 5.6644 0.5757 0.9739
1.7157 5.6744 0.5186 0.9765
-1.0781 5.6916 0.5068 0.9770
-1.8083 5.6961 0.5229 0.9763
-2.5981 5.7009 0.5481 0.9752
-4.5075 5.7127 0.6366 0.9712
-5.7528 5.7203 0.7098 0.9679
-7.3473 5.7301 0.8152 0.9633
-9.5350 5.7436 0.9739 0.9563
-18.6325 5.7995 1.7073 0.9246
-88.4868 -16.0169 7.8674 0.6969
-16.8061 -36.6363 3.5264 0.8506
-11.8020 -36.8584 3.3860 0.8561
-9.8029 -51.0605 4.5488 0.8116
15.7035 -90.9705 8.0766 0.6903
18.6640 -42.7846 4.0838 0.8291
34.2518 -44.8922 4.9402 0.7971
44.0220 -45.2213 5.5214 0.7762
-24.0183 5.7935 1.2948 0.9058
-29.4183 -0.1095 1.5417 0.8888
-46.0687 -11.4758 2.4881 0.8268
-30.6307 -34.5291 2.4190 0.8312
-23.9276 -34.5700 2.2034 0.8450
-9.7339 -38.9617 2.1047 0.8514
-8.2258 -65.6669 3.4683 0.7671
23.2449 -45.0436 2.6564 0.8163
30.6573 -45.1390 2.8597 0.8037
26.3174 -30.1994 2.0993 0.8518
30.2476 -27.2754 2.1345 0.8495
51.8628 -27.8875 3.0860 0.7899
61.1979 -15.8191 3.3127 0.7763
61.1469 -8.1652 3.2330 0.7811
26.5998 13.4541 1.5622 0.8875
26.9186 17.9643 1.6960 0.8784
6.5788 5.6396 0.4541 0.9659
5.1816 5.6531 0.4019 0.9698
4.0553 5.6601 0.3649 0.9725
3.1063 5.6659 0.3386 0.9745
2.2736 5.6710 0.3202 0.9758
0.8056 5.6800 0.3007 0.9773
-1.2690 5.6819 0.3051 0.9770
-3.7327 5.6930 0.3568 0.9731
-4.8187 5.7146 0.3918 0.9705
-6.1424 5.7227 0.4400 0.9669
-4.9550 2.7693 0.2975 0.9775
-7.3939 3.0343 0.4189 0.9685
-21.0731 5.8145 1.1457 0.9162
-32.6864 -34.5165 2.4913 0.8266
-10.1280 -35.5755 1.9385 0.8623
-12.5461 -79.1784 4.2013 0.7253
18.3984 -89.1730 4.7718 0.6944
15.0283 -44.7977 2.4763 0.8276
21.3871 -44.9758 2.6100 0.8192
28.5490 -45.1261 2.7985 0.8074
26.3048 -32.2451 2.1809 0.8465
52.1980 -30.2966 3.1630 0.7853
51.7726 -22.2371 2.9530 0.7980
61.2123 -17.9659 3.3433 0.7745
61.1604 -10.2017 3.2496 0.7801
61.1111 -2.7565 3.2059 0.7827
61.0629 4.5963 3.2092 0.7825
50.9018 16.6167 2.8062 0.8070
26.9811 16.7639 1.6647 0.8805
7.0127 5.6264 0.4712 0.9646
5.5284 5.6510 0.4143 0.9688
4.3394 5.6583 0.3737 0.9718
2.4900 5.6697 0.3245 0.9755
1.7157 5.6744 0.3107 0.9765
0.9948 5.6789 0.3021 0.9772
-0.3813 5.6827 0.2985 0.9774
-1.0760 5.6806 0.3030 0.9771
-3.4717 5.6904 0.3493 0.9737
-4.5075 5.7127 0.3814 0.9713
-5.7528 5.7203 0.4252 0.9680
-7.3473 5.7301 0.4883 0.9634
-9.5350 5.7436 0.5834 0.9564
-12.8394 5.7639 0.7376 0.9452
-18.6325 5.7995 1.0227 0.9248
-88.4871 -16.0169 4.7128 0.6975
-15.8576 -34.5688 1.9932 0.8587
-11.2797 -35.2272 1.9385 0.8623
-9.8030 -51.0608 2.7249 0.8120
16.3722 -54.6365 2.9892 0.7958
34.1580 -44.7692 2.9512 0.7981
51.7356 -32.3223 3.1970 0.7832
-71.3521 -37.5595 1.4075 0.7243
-25.7169 -37.1552 0.7887 0.8346
-18.6169 -35.3075 0.6967 0.8524
-13.0629 -34.1824 0.6387 0.8638
22.1107 -59.4254 1.1067 0.7760
23.5801 -45.6931 0.8975 0.8141
26.3174 -30.1994 0.6992 0.8519
30.2476 -27.2754 0.7109 0.8496
70.4891 -27.5966 1.3213 0.7387
82.8107 -21.4059 1.4929 0.7102
42.5524 4.5990 0.7471 0.8426
23.8825 5.5382 0.4279 0.9066
46.7202 16.9521 0.8675 0.8197
26.5998 13.4541 0.5203 0.8876
26.9889 18.0112 0.5664 0.8783
7.1710 6.1473 0.1649 0.9629
5.1816 5.6531 0.1339 0.9698
3.1063 5.6659 0.1128 0.9745
0.1175 5.6843 0.0992 0.9775
-0.5666 5.6740 0.0995 0.9774
-4.8187 5.7146 0.1305 0.9705
-7.8661 5.7333 0.1699 0.9618
-4.9550 2.7692 0.0991 0.9775
-21.0517 5.8086 0.3812 0.9163
-71.0660 -34.5052 1.3789 0.7290
-32.3266 -34.1367 0.8206 0.8285
-25.5963 -34.5248 0.7502 0.8420
-11.6820 -41.0341 0.7447 0.8431
30.3382 -90.4350 1.6650 0.6828
22.1892 -46.6627 0.9019 0.8133
26.6609 -42.1416 0.8704 0.8191
26.3048 -32.2451 0.7264 0.8466
36.2050 -27.3011 0.7915 0.8341
47.1720 -27.3794 0.9520 0.8040
53.5515 10.5956 0.9529 0.8038
36.7123 17.0929 0.7069 0.8504
26.9811 16.7639 0.5545 0.8807
7.3496 5.8967 0.1645 0.9630
5.5284 5.6510 0.1380 0.9689
4.3394 5.6583 0.1245 0.9719
3.3496 5.6644 0.1149 0.9740
2.4900 5.6697 0.1081 0.9755
-1.0735 5.6671 0.1007 0.9772
-1.8006 5.6718 0.1039 0.9765
-4.5075 5.7127 0.1270 0.9713
-7.3473 5.7301 0.1626 0.9634
-12.8395 5.7639 0.2457 0.9453
-88.4923 -16.0179 1.5697 0.6978
-72.5189 -32.3396 1.3860 0.7278
-23.5045 -38.3117 0.7846 0.8354
-9.8029 -51.0605 0.9075 0.8122
33.8085 -27.2631 0.7581 0.8405
-15.5024 5.7803 -0.2888 0.9360
-62.5828 7.3231 -1.0998 0.7772
-29.4677 -0.1097 -0.5144 0.8888
-81.0190 -10.0921 -1.4251 0.7214
-69.2130 -47.8349 -1.4686 0.7142
-15.4971 -22.3899 -0.4753 0.8968
-12.1979 -23.1337 -0.4565 0.9007
-6.9227 -27.7093 -0.4985 0.8920
22.6071 -94.0084 -1.6876 0.6792
22.3399 -43.2900 -0.8503 0.8229
30.2476 -27.2754 -0.7109 0.8496
43.7124 -23.5049 -0.8663 0.8199
89.3059 -23.0849 -1.6101 0.6914
23.8825 5.5382 -0.4279 0.9066
46.7202 16.9521 -0.8675 0.8197
26.5998 13.4541 -0.5203 0.8876
5.1816 5.6531 -0.1339 0.9698
4.0553 5.6601 -0.1215 0.9725
3.1063 5.6659 -0.1128 0.9745
2.2736 5.6710 -0.1066 0.9759
0.8056 5.6800 -0.1001 0.9773
0.1175 5.6843 -0.0992 0.9775
-1.2629 5.6548 -0.1011 0.9771
-2.0014 5.6591 -0.1048 0.9763
-3.6906 5.6288 -0.1175 0.9734
-6.1424 5.7227 -0.1465 0.9670
-7.8661 5.7333 -0.1699 0.9618
-7.3826 3.0297 -0.1392 0.9686
-20.8917 5.7644 -0.3783 0.9169
-55.0403 -11.8235 -0.9826 0.7983
-68.6754 -44.2338 -1.4259 0.7212
-65.2904 -54.1527 -1.4806 0.7122
-7.6052 -26.7139 -0.4848 0.8948
30.3393 -90.4381 -1.6651 0.6828
17.2569 -36.2903 -0.7014 0.8515
26.5248 -41.9264 -0.8660 0.8200
28.3251 -27.2636 -0.6862 0.8545
55.7574 11.0321 -0.9921 0.7966
33.9468 15.8053 -0.6536 0.8609
5.5284 5.6510 -0.1380 0.9689
4.3394 5.6583 -0.1245 0.9719
2.4900 5.6697 -0.1081 0.9755
1.7157 5.6744 -0.1035 0.9766
-0.3813 5.6827 -0.0994 0.9775
-1.7962 5.6579 -0.1036 0.9765
-5.7528 5.7203 -0.1416 0.9681
-12.8395 5.7639 -0.2457 0.9453
-18.6325 5.7995 -0.3406 0.9249
-95.2436 -5.6130 -1.6654 0.6827
-81.0145 -14.6643 -1.4371 0.7194
-65.4388 -20.1905 -1.1954 0.7604
-81.1808 -36.2024 -1.5515 0.7008
-68.1021 -40.7932 -1.3857 0.7279
-26.1258 -25.8501 -0.6415 0.8633
-17.9198 -22.5956 -0.5034 0.8910
-13.6827 -22.3024 -0.4567 0.9006
-5.9700 -31.0958 -0.5527 0.8810
-6.1514 -88.4025 -1.5468 0.7015
16.5374 -95.8013 -1.6969 0.6778
27.0674 -90.3281 -1.6459 0.6857
43.7906 -27.3586 -0.9013 0.8134
-23.2052 5.5974 -1.2510 0.9088
-45.0410 5.2704 -2.3766 0.8339
-44.4842 -5.5411 -2.3493 0.8356
-44.5990 -17.0083 -2.5015 0.8260
-42.2377 -22.2337 -2.5015 0.8260
-39.2667 -27.1382 -2.5015 0.8260
-33.5552 -29.7254 -2.3493 0.8356
-20.2996 -22.8832 -1.6031 0.8847
-15.2734 -22.0667 -1.4065 0.8981
-9.2915 -24.3135 -1.3641 0.9010
-6.9294 -27.7361 -1.4983 0.8918
-3.5961 -28.7074 -1.5162 0.8906
5.5147 -47.4125 -2.5015 0.8260
11.1604 -46.4091 -2.5015 0.8260
20.5576 -39.8363 -2.3493 0.8356
30.1305 -27.1698 -2.1263 0.8500
39.8519 -15.6021 -2.2429 0.8425
46.2132 -11.9457 -2.5015 0.8260
47.7284 -0.5988 -2.5015 0.8260
23.8825 5.5382 -1.2848 0.9065
21.2363 7.7054 -1.1839 0.9135
5.1816 5.6531 -0.4019 0.9698
3.1063 5.6659 -0.3386 0.9745
2.2736 5.6710 -0.3202 0.9758
1.5165 5.6756 -0.3079 0.9767
0.8056 5.6800 -0.3007 0.9773
0.1175 5.6843 -0.2980 0.9775
-2.7833 5.6157 -0.3285 0.9752
-6.1424 5.7227 -0.4400 0.9669
-7.8661 5.7333 -0.5101 0.9618
-4.9549 2.7692 -0.2975 0.9775
-20.8125 5.7426 -1.1315 0.9172
-30.2397 4.5399 -1.6026 0.8847
-45.1310 1.3006 -2.3662 0.8346
-44.6677 -4.0939 -2.3507 0.8355
-43.8281 -9.4150 -2.3493 0.8356
-42.9385 -20.8482 -2.5015 0.8260
-40.1286 -25.8468 -2.5015 0.8260
-22.3227 -23.5726 -1.7014 0.8781
-12.8678 -22.5912 -1.3625 0.9011
-5.6757 -35.8192 -1.9006 0.8648
3.9697 -47.5668 -2.5015 0.8260
15.1812 -45.2536 -2.5015 0.8260
17.7633 -37.3553 -2.1678 0.8473
28.2155 -27.1580 -2.0524 0.8548
35.7924 -26.9899 -2.3493 0.8356
38.7706 -22.5031 -2.3493 0.8356
45.8002 -13.4425 -2.5015 0.8260
47.6837 -2.1508 -2.5015 0.8260
44.7015 3.3647 -2.3493 0.8356
21.2254 6.9290 -1.1701 0.9144
5.5284 5.6510 -0.4143 0.9688
0.9948 5.6789 -0.3021 0.9772
0.3027 5.6831 -0.2983 0.9775
-2.5642 5.6264 -0.3240 0.9755
-3.4146 5.5967 -0.3436 0.9741
-4.5075 5.7127 -0.3814 0.9713
-5.7528 5.7203 -0.4252 0.9680
-18.6325 5.7995 -1.0227 0.9248
-44.1112 -7.9845 -2.3493 0.8356
-45.5391 -14.0506 -2.4976 0.8262
-43.5938 -19.4406 -2.5015 0.8260
-40.9480 -24.5279 -2.5015 0.8260
-37.7113 -29.2612 -2.5015 0.8260
-25.7612 -25.4893 -1.8993 0.8649
-10.8315 -23.6121 -1.3614 0.9012
-7.9905 -24.9547 -1.3732 0.9004
-5.9661 -31.0757 -1.6583 0.8810
-3.1118 -44.7199 -2.3493 0.8356
2.4205 -47.6707 -2.5015 0.8260
8.1195 -47.0365 -2.5015 0.8260
13.7013 -45.7234 -2.5015 0.8260
22.7220 -38.6427 -2.3493 0.8356
26.1872 -34.3223 -2.2625 0.8412
26.6325 -27.3580 -2.0010 0.8582
33.7201 -27.1919 -2.2702 0.8407
38.0182 -23.7522 -2.3493 0.8356
-26.7158 -10.1884 -2.5015 0.8915
-23.5217 -16.2564 -2.5015 0.8915
-21.4025 -18.9598 -2.5015 0.8915
-12.6438 -18.2672 -1.9427 0.9147
-11.9241 -22.6145 -2.2367 0.9024
-3.3377 -26.6448 -2.3493 0.8978
3.3034 -28.4012 -2.5015 0.8915
6.6853 -27.8001 -2.5015 0.8915
16.0536 -23.6369 -2.4998 0.8916
23.3773 -16.4633 -2.5015 0.8915
26.6249 -10.4237 -2.5015 0.8915
28.3411 -3.7845 -2.5015 0.8915
28.5904 -0.3587 -2.5015 0.8915
26.6975 2.8854 -2.3493 0.8978
23.8825 5.5382 -2.1449 0.9063
21.6052 7.8393 -2.0108 0.9118
8.7059 5.8099 -0.9157 0.9588
7.1710 6.1473 -0.8263 0.9628
5.1816 5.6531 -0.6709 0.9697
4.0553 5.6601 -0.6092 0.9724
0.8056 5.6800 -0.5019 0.9772
0.1175 5.6843 -0.4974 0.9774
-1.9915 5.6311 -0.5226 0.9763
-2.7762 5.6015 -0.5470 0.9752
-3.6494 5.5660 -0.5823 0.9736
-4.8187 5.7146 -0.6540 0.9704
-6.1424 5.7227 -0.7345 0.9669
-7.8661 5.7333 -0.8516 0.9617
-4.9548 2.7692 -0.4966 0.9775
-20.6150 5.6881 -1.8710 0.9177
-26.8419 0.7735 -2.3493 0.8978
-27.0331 -9.3141 -2.5015 0.8915
-24.0379 -15.4828 -2.5015 0.8915
-22.0079 -18.2536 -2.5015 0.8915
-4.2025 -26.5221 -2.3493 0.8978
-1.0561 -28.5731 -2.5015 0.8915
5.7776 -28.0028 -2.5015 0.8915
17.2896 -21.1941 -2.3930 0.8960
19.4315 -18.7032 -2.3596 0.8974
26.2718 -11.2841 -2.5015 0.8915
28.2030 -4.7043 -2.5015 0.8915
26.3423 5.2120 -2.3493 0.8978
21.5897 7.0479 -1.9870 0.9128
5.5284 5.6510 -0.6916 0.9688
4.3394 5.6583 -0.6239 0.9718
1.7157 5.6744 -0.5186 0.9765
0.9948 5.6789 -0.5044 0.9771
-3.3985 5.5704 -0.5709 0.9741
-9.4241 5.6768 -0.9625 0.9568
-12.8395 5.7639 -1.2313 0.9451
-26.4117 4.8483 -2.3493 0.8978
-26.8065 -1.5798 -2.3493 0.8978
-28.1355 -5.0928 -2.5015 0.8915
-27.3218 -8.4299 -2.5015 0.8915
-24.5288 -14.6928 -2.5015 0.8915
-19.2352 -19.0322 -2.3674 0.8970
-16.6858 -21.0396 -2.3493 0.8978
-13.3954 -21.8342 -2.2411 0.9023
-10.6772 -23.2758 -2.2404 0.9023
1.4499 -28.5559 -2.5015 0.8915
14.4928 -24.6475 -2.5015 0.8915
-18.6003 4.4866 -2.3493 0.9258
-19.0041 2.2238 -2.3493 0.9258
-20.3598 -0.0758 -2.4999 0.9212
-19.7693 -4.9245 -2.5015 0.9212
-18.0282 -9.4900 -2.5015 0.9212
-16.7601 -11.5833 -2.5015 0.9212
-13.5201 -15.2408 -2.5015 0.9212
-4.9382 -19.7658 -2.5015 0.9212
-0.0899 -20.3732 -2.5015 0.9212
7.1046 -19.0945 -2.5015 0.9212
9.3430 -18.1048 -2.5015 0.9212
13.3851 -15.3595 -2.5015 0.9212
15.1303 -13.6436 -2.5015 0.9212
19.7250 -5.0988 -2.5015 0.9212
20.1941 -2.6966 -2.5015 0.9212
18.6392 4.3223 -2.3493 0.9258
17.9864 6.5262 -2.3493 0.9258
17.0978 8.6480 -2.3526 0.9257
8.4587 5.6450 -1.2486 0.9598
7.1710 6.1473 -1.1597 0.9627
5.1816 5.6531 -0.9416 0.9696
4.0553 5.6601 -0.8549 0.9723
3.1063 5.6659 -0.7934 0.9743
1.5165 5.6756 -0.7213 0.9766
0.8056 5.6800 -0.7044 0.9771
0.1175 5.6843 -0.6981 0.9773
-1.9866 5.6171 -0.7316 0.9763
-3.6343 5.5430 -0.8138 0.9736
-6.1424 5.7227 -1.0308 0.9667
-7.8661 5.7333 -1.1952 0.9615
-18.9218 2.8407 -2.3493 0.9258
-19.2382 0.5544 -2.3631 0.9254
-19.9189 -4.2789 -2.5015 0.9212
-8.0907 -2.7876 -1.0507 0.9661
-17.1279 -11.0321 -2.5015 0.9212
-15.6814 -13.0064 -2.5015 0.9212
-14.0086 -14.7930 -2.5015 0.9212
-3.1885 -20.1223 -2.5015 0.9212
1.6944 -20.3028 -2.5015 0.9212
6.4797 -19.3154 -2.5015 0.9212
8.7492 -18.3991 -2.5015 0.9212
12.8784 -15.7867 -2.5015 0.9212
17.6204 -10.2272 -2.5015 0.9212
18.7196 -8.0404 -2.5015 0.9212
19.5488 -5.7376 -2.5015 0.9212
20.3527 -0.9180 -2.5015 0.9212
20.2617 1.5251 -2.4949 0.9214
9.0974 5.6524 -1.3151 0.9578
7.3496 5.8967 -1.1570 0.9627
5.5284 5.6510 -0.9707 0.9686
3.3496 5.6644 -0.8080 0.9738
1.7157 5.6744 -0.7279 0.9764
0.9948 5.6789 -0.7079 0.9770
-1.0703 5.6504 -0.7061 0.9771
-1.7832 5.6169 -0.7236 0.9765
-2.5513 5.5982 -0.7554 0.9755
-5.7528 5.7203 -0.9961 0.9678
-7.3473 5.7301 -1.1441 0.9631
-9.3086 5.6072 -1.3343 0.9572
-18.2693 5.6864 -2.3493 0.9258
-20.3381 -1.1986 -2.5015 0.9212
-20.0476 -3.6288 -2.5015 0.9212
-17.4777 -10.4692 -2.5015 0.9212
-16.0962 -12.4895 -2.5015 0.9212
-14.4824 -14.3295 -2.5015 0.9212
-6.2017 -19.3682 -2.4971 0.9213
-1.4142 -20.3242 -2.5015 0.9212
3.4656 -20.0764 -2.5015 0.9212
5.8481 -19.5160 -2.5015 0.9212
10.3267 -17.5623 -2.5015 0.9212
12.3581 -16.1972 -2.5015 0.9212
17.2784 -10.7949 -2.5015 0.9212
-13.8984 5.1822 -2.3493 0.9417
-15.6729 -1.9523 -2.5015 0.9380
-7.2965 -2.7826 -1.2368 0.9689
-13.9760 -7.3569 -2.5015 0.9380
-12.9929 -8.9797 -2.5015 0.9380
-1.9631 -15.6716 -2.5015 0.9380
-0.0697 -15.7939 -2.5015 0.9380
1.8248 -15.6883 -2.5015 0.9380
8.8738 -13.0655 -2.5015 0.9380
10.3765 -11.9071 -2.5015 0.9380
11.7295 -10.5769 -2.5015 0.9380
12.9132 -9.0940 -2.5015 0.9380
13.9105 -7.4799 -2.5015 0.9380
14.7071 -5.7579 -2.5015 0.9380
15.2914 -3.9527 -2.5015 0.9380
15.7928 -0.1981 -2.5015 0.9380
14.4497 3.3508 -2.3493 0.9417
13.2363 6.6949 -2.3493 0.9417
8.6500 5.7726 -1.6471 0.9588
7.1710 6.1473 -1.4960 0.9625
2.2736 5.6710 -0.9677 0.9756
0.1175 5.6843 -0.9005 0.9772
-1.9832 5.6075 -0.9420 0.9762
-3.6203 5.5215 -1.0457 0.9736
-6.1424 5.7227 -1.3297 0.9666
-7.8661 5.7333 -1.5417 0.9613
-4.9547 2.7691 -0.8990 0.9773
-14.2988 3.9453 -2.3493 0.9417
-15.7281 -1.4415 -2.5015 0.9380
-15.4418 -3.3171 -2.5015 0.9380
-10.8599 -11.4680 -2.5015 0.9380
-9.4064 -12.6875 -2.5015 0.9380
-7.8171 -13.7239 -2.5015 0.9380
-6.1149 -14.5623 -2.5015 0.9380
-4.3246 -15.1904 -2.5015 0.9380
-2.4718 -15.5994 -2.5015 0.9380
5.0233 -14.9739 -2.5015 0.9380
8.4441 -13.3472 -2.5015 0.9380
11.3793 -10.9528 -2.5015 0.9380
13.6599 -7.9284 -2.5015 0.9380
14.5121 -6.2332 -2.5015 0.9380
15.1548 -4.4480 -2.5015 0.9380
15.5788 -2.5986 -2.5015 0.9380
15.7780 -0.7117 -2.5015 0.9380
15.5140 1.1678 -2.4641 0.9389
14.5510 2.8790 -2.3493 0.9417
14.1008 4.6031 -2.3493 0.9417
13.4470 6.2608 -2.3493 0.9417
7.3496 5.8967 -1.4924 0.9626
3.3496 5.6644 -1.0423 0.9737
2.4900 5.6697 -0.9808 0.9752
0.3027 5.6831 -0.9014 0.9772
-1.0703 5.6504 -0.9108 0.9770
-1.7832 5.6169 -0.9334 0.9764
-5.7528 5.7203 -1.2849 0.9677
-11.3737 5.1059 -1.9746 0.9508
-15.7329 0.9663 -2.4965 0.9382
-7.2531 -3.2345 -1.2578 0.9683
-13.5493 -8.1160 -2.5015 0.9380
-12.4783 -9.6822 -2.5015 0.9380
-8.2593 -13.4624 -2.5015 0.9380
-2.9779 -15.5108 -2.5015 0.9380
-1.0964 -15.7560 -2.5015 0.9380
9.5804 -12.5566 -2.5015 0.9380
12.2946 -9.9144 -2.5015 0.9380
13.3948 -8.3685 -2.5015 0.9380
-11.3247 4.2225 -2.3493 0.9519
-11.7493 2.8341 -2.3493 0.9519
-12.4910 1.4616 -2.4446 0.9500
-12.8692 -0.0479 -2.5015 0.9489
-8.2236 -2.0485 -1.6473 0.9661
-10.5869 -7.3169 -2.5015 0.9489
-6.0024 -11.3837 -2.5015 0.9489
-4.5940 -12.0214 -2.5015 0.9489
1.4869 -12.7831 -2.5015 0.9489
3.0090 -12.5125 -2.5015 0.9489
4.4877 -12.0614 -2.5015 0.9489
5.9017 -11.4362 -2.5015 0.9489
8.4550 -9.7021 -2.5015 0.9489
9.5574 -8.6182 -2.5015 0.9489
10.5219 -7.4100 -2.5015 0.9489
11.3345 -6.0948 -2.5015 0.9489
12.7560 -1.7034 -2.5015 0.9489
11.3615 4.1224 -2.3493 0.9519
10.7852 5.4551 -2.3493 0.9519
7.1710 6.1473 -1.8360 0.9622
5.1816 5.6531 -1.4906 0.9692
1.5165 5.6756 -1.1419 0.9763
0.8056 5.6800 -1.1151 0.9769
0.1175 5.6843 -1.1051 0.9771
-1.2549 5.6189 -1.1191 0.9768
-4.8187 5.7146 -1.4530 0.9700
-7.8661 5.7333 -1.8921 0.9611
-4.9466 2.7645 -1.1015 0.9772
-11.6509 3.2147 -2.3493 0.9519
-11.9523 1.7944 -2.3493 0.9519
-6.9233 -2.3854 -1.4234 0.9706
-6.7765 -3.2902 -1.4643 0.9698
-9.9055 -8.2158 -2.5015 0.9489
1.0703 -12.8247 -2.5015 0.9489
2.6004 -12.6038 -2.5015 0.9489
5.5266 -11.6222 -2.5015 0.9489
6.8804 -10.8755 -2.5015 0.9489
8.1349 -9.9720 -2.5015 0.9489
12.3484 -3.6243 -2.5015 0.9489
10.9569 5.1014 -2.3493 0.9519
10.2661 6.3785 -2.3493 0.9519
4.3394 5.6583 -1.3861 0.9714
3.3496 5.6644 -1.2791 0.9735
0.3027 5.6831 -1.1063 0.9771
-4.5075 5.7127 -1.4145 0.9708
-7.3473 5.7301 -1.8111 0.9627
-11.0262 4.9499 -2.3493 0.9519
-12.8470 -0.7571 -2.5015 0.9489
-7.0376 -2.1714 -1.4316 0.9704
-6.7648 -3.0168 -1.4398 0.9703
-6.7298 -10.9694 -2.5015 0.9489
0.6526 -12.8527 -2.5015 0.9489
2.1891 -12.6817 -2.5015 0.9489
3.6941 -12.3277 -2.5015 0.9489
6.5231 -11.0936 -2.5015 0.9489
7.8063 -10.2313 -2.5015 0.9489
8.9768 -9.2214 -2.5015 0.9489
10.9143 -6.8188 -2.5015 0.9489
-10.7502 1.2579 -2.4988 0.9565
-10.8353 -0.0403 -2.5015 0.9565
-10.7522 -1.3393 -2.5015 0.9565
-8.9137 -6.1605 -2.5015 0.9565
-8.1106 -7.1849 -2.5015 0.9565
-7.1905 -8.1056 -2.5015 0.9565
-6.1666 -8.9094 -2.5015 0.9565
-3.8679 -10.1214 -2.5015 0.9565
-2.6263 -10.5122 -2.5015 0.9565
1.2519 -10.7628 -2.5015 0.9565
2.5335 -10.5350 -2.5015 0.9565
4.9690 -9.6288 -2.5015 0.9565
7.1187 -8.1688 -2.5015 0.9565
8.0469 -7.2562 -2.5015 0.9565
8.8589 -6.2389 -2.5015 0.9565
9.5432 -5.1315 -2.5015 0.9565
10.4905 -2.7117 -2.5015 0.9565
10.7400 -1.4342 -2.5015 0.9565
10.8345 -0.1359 -2.5015 0.9565
10.6370 1.1496 -2.4700 0.9570
9.5658 3.4709 -2.3493 0.9591
9.0806 4.5929 -2.3493 0.9591
8.4643 5.6487 -2.3493 0.9591
7.1710 6.1473 -2.1806 0.9620
5.1816 5.6531 -1.7704 0.9690
4.0553 5.6601 -1.6075 0.9718
2.2736 5.6710 -1.4106 0.9752
1.5165 5.6756 -1.3563 0.9762
0.8056 5.6800 -1.3245 0.9767
-0.5629 5.6370 -1.3079 0.9770
-1.2443 5.5714 -1.3180 0.9768
-1.9552 5.5282 -1.3538 0.9762
-3.5126 5.3573 -1.4790 0.9740
-4.8187 5.7146 -1.7258 0.9698
-7.2834 2.9890 -1.8176 0.9682
-10.7901 -0.9889 -2.5015 0.9565
-6.4547 -2.2239 -1.5762 0.9724
-7.4503 -7.8674 -2.5015 0.9565
-5.3628 -9.4151 -2.5015 0.9565
-4.1951 -9.9903 -2.5015 0.9565
-2.9668 -10.4212 -2.5015 0.9565
-1.6958 -10.7018 -2.5015 0.9565
0.9011 -10.7978 -2.5015 0.9565
2.1895 -10.6118 -2.5015 0.9565
5.7930 -9.1567 -2.5015 0.9565
6.8492 -8.3960 -2.5015 0.9565
7.8066 -7.5141 -2.5015 0.9565
9.3712 -5.4392 -2.5015 0.9565
10.3968 -3.0515 -2.5015 0.9565
10.7657 0.8104 -2.4925 0.9566
9.9826 1.9751 -2.3493 0.9591
9.2252 4.2952 -2.3493 0.9591
8.6436 5.3704 -2.3493 0.9591
7.3496 5.8967 -2.1754 0.9621
5.5284 5.6510 -1.8251 0.9681
4.3394 5.6583 -1.6462 0.9712
2.4900 5.6697 -1.4296 0.9749
1.7157 5.6744 -1.3686 0.9760
0.9948 5.6789 -1.3310 0.9766
0.3027 5.6831 -1.3139 0.9769
-0.3805 5.6708 -1.3121 0.9769
-2.5029 5.4920 -1.3934 0.9755
-3.3071 5.4205 -1.4659 0.9743
-4.5075 5.7127 -1.6800 0.9706
-5.7528 5.7203 -1.8730 0.9672
-7.3473 5.7301 -2.1511 0.9625
-9.2835 4.1676 -2.3493 0.9591
-9.7163 3.0243 -2.3493 0.9591
-10.8150 0.6642 -2.5015 0.9565
-10.8166 -0.6375 -2.5015 0.9565
-10.6621 -1.9299 -2.5015 0.9565
-6.2477 -2.7862 -1.5793 0.9723
-6.0985 -3.6530 -1.6412 0.9712
-8.5606 -6.6424 -2.5015 0.9565
-5.6662 -9.2357 -2.5015 0.9565
-4.5178 -9.8485 -2.5015 0.9565
-2.0429 -10.6410 -2.5015 0.9565
-0.7521 -10.8092 -2.5015 0.9565
1.8432 -10.6774 -2.5015 0.9565
3.1102 -10.3794 -2.5015 0.9565
4.3324 -9.9315 -2.5015 0.9565
5.4921 -9.3403 -2.5015 0.9565
6.5725 -8.6143 -2.5015 0.9565
8.4346 -6.8016 -2.5015 0.9565
9.1893 -5.7411 -2.5015 0.9565
-7.5194 2.8037 -2.1503 0.9673
-9.3358 -0.0347 -2.5015 0.9621
-7.6801 -5.3079 -2.5015 0.9621
-6.9882 -6.1906 -2.5015 0.9621
-6.1954 -6.9839 -2.5015 0.9621
-5.3132 -7.6764 -2.5015 0.9621
-1.1604 -9.2635 -2.5015 0.9621
-0.0412 -9.3357 -2.5015 0.9621
2.1828 -9.0771 -2.5015 0.9621
5.2453 -7.7230 -2.5015 0.9621
6.1335 -7.0383 -2.5015 0.9621
6.9333 -6.2520 -2.5015 0.9621
7.6330 -5.3755 -2.5015 0.9621
8.2225 -4.4214 -2.5015 0.9621
9.2537 -1.2357 -2.5015 0.9621
8.5412 1.9806 -2.3493 0.9643
7.8240 3.9573 -2.3493 0.9643
5.1816 5.6531 -2.0548 0.9687
4.0553 5.6601 -1.8657 0.9716
1.5165 5.6756 -1.5741 0.9760
0.8056 5.6800 -1.5372 0.9765
0.1175 5.6843 -1.5234 0.9767
-0.5629 5.6370 -1.5179 0.9768
-1.9381 5.4799 -1.5575 0.9762
-3.4426 5.2505 -1.6823 0.9743
-7.0855 5.1644 -2.3493 0.9643
-9.2162 1.3836 -2.4972 0.9621
-9.1276 -1.9608 -2.5015 0.9621
-5.7849 -3.7261 -1.8438 0.9719
-7.1858 -5.9600 -2.5015 0.9621
-4.6207 -8.1122 -2.5015 0.9621
-3.6145 -8.6077 -2.5015 0.9621
2.9693 -8.8511 -2.5015 0.9621
4.0092 -8.4312 -2.5015 0.9621
6.7263 -6.4742 -2.5015 0.9621
7.4541 -5.6209 -2.5015 0.9621
8.5781 -3.6844 -2.5015 0.9621
8.9580 -2.6292 -2.5015 0.9621
9.3264 -0.4207 -2.5015 0.9621
9.3095 0.7007 -2.5015 0.9621
8.3350 2.7209 -2.3493 0.9643
7.9485 3.7008 -2.3493 0.9643
7.4474 4.6272 -2.3493 0.9643
5.5284 5.6510 -2.1183 0.9678
1.7157 5.6744 -1.5884 0.9757
-1.7437 5.4926 -1.5441 0.9764
-2.4804 5.4426 -1.6026 0.9755
-3.2417 5.3133 -1.6677 0.9746
-7.5105 4.5241 -2.3493 0.9643
-7.9988 3.5908 -2.3493 0.9643
-8.7288 1.6023 -2.3779 0.9639
-9.3183 0.5723 -2.5015 0.9621
-7.3759 -5.7231 -2.5015 0.9621
-6.6364 -6.5663 -2.5015 0.9621
-5.8011 -7.3147 -2.5015 0.9621
-4.8819 -7.9576 -2.5015 0.9621
-2.8469 -8.8912 -2.5015 0.9621
-0.6481 -9.3133 -2.5015 0.9621
4.7321 -8.0477 -2.5015 0.9621
6.5121 -6.6896 -2.5015 0.9621
7.2673 -5.8604 -2.5015 0.9621
7.9176 -4.9466 -2.5015 0.9621
