ply
format ascii 1.0
element vertex 987
property float32 x
property float32 y
property float32 z
property float32 I
end_header
19.9669 -46.6778 13.6035 0.8104
85.1521 13.6800 23.1090 0.6997
29.1943 16.7503 9.0187 0.8699
24.4708 18.2741 8.1835 0.8812
2.7187 5.6683 1.6845 0.9743
-0.1986 5.6862 1.5245 0.9767
-0.8918 5.6904 1.5434 0.9764
-1.6128 5.6949 1.5860 0.9758
-2.3864 5.6996 1.6557 0.9747
-3.2441 5.7049 1.7585 0.9732
-4.2223 5.6996 1.9006 0.9711
-24.0918 19.9707 8.3849 0.8785
-46.0923 -12.8626 12.8223 0.8202
-18.5493 -28.5950 9.1329 0.8684
-21.4567 -43.8665 13.0848 0.8169
-15.2593 -43.9207 12.4585 0.8249
19.7302 -48.1598 13.9453 0.8061
49.3569 -32.2877 15.8035 0.7833
31.1451 17.2383 9.5383 0.8629
24.4672 17.6918 8.0903 0.8825
3.7351 5.6620 1.8175 0.9723
2.0198 5.6726 1.6134 0.9754
0.5758 5.6814 1.5301 0.9766
-2.2838 5.6990 1.6451 0.9749
-4.0955 5.7101 1.8829 0.9713
-21.4774 23.3928 8.5092 0.8768
-28.9559 19.2616 9.3185 0.8659
-32.3267 -0.5071 8.6630 0.8747
-45.2003 -11.8673 12.5219 0.8241
-29.3681 -34.0731 12.0531 0.8300
-21.3216 -31.7868 10.2559 0.8534
-15.7939 -31.0692 9.3389 0.8656
-16.0190 -43.9160 12.5257 0.8240
-14.9428 -64.0406 17.6206 0.7616
44.2642 17.1479 12.7195 0.8215
32.2951 17.2312 9.8081 0.8593
24.4637 17.1224 8.0011 0.8837
19.7425 -46.1530 11.5892 0.8138
27.1285 -46.8640 12.5014 0.8007
49.4161 -51.3908 16.4597 0.7463
49.5220 14.2310 11.8958 0.8093
38.2649 16.1945 9.5927 0.8432
2.7187 5.6683 1.4514 0.9745
1.1825 5.6546 1.3337 0.9766
0.4877 5.6820 1.3166 0.9769
-0.1986 5.6862 1.3136 0.9769
-1.6128 5.6949 1.3665 0.9760
-2.3864 5.6996 1.4265 0.9750
-31.3226 20.1479 8.5982 0.8582
-60.9789 -25.2562 15.2378 0.7627
-28.8271 -34.5049 10.3803 0.8315
-23.7465 -36.6070 10.0738 0.8360
-15.7131 -32.1243 8.2561 0.8635
-15.5583 -44.7813 10.9448 0.8232
49.3569 -32.2876 13.6165 0.7850
86.8032 12.5788 20.2494 0.6976
49.5169 13.4085 11.8436 0.8101
42.3723 17.1692 10.5550 0.8289
25.0008 23.1316 7.8634 0.8695
4.7992 5.6555 1.7124 0.9700
3.7351 5.6620 1.5660 0.9725
2.8264 5.6676 1.4622 0.9743
2.0198 5.6726 1.3902 0.9756
0.5758 5.6814 1.3184 0.9768
-0.1110 5.6857 1.3129 0.9769
-1.5185 5.6943 1.3606 0.9761
-2.2838 5.6990 1.4174 0.9751
-3.1286 5.7042 1.5020 0.9736
-4.0955 5.7101 1.6223 0.9716
-24.2833 20.7679 7.3769 0.8771
-29.7301 19.7766 8.2436 0.8637
-48.1754 -12.6485 11.4991 0.8151
-60.9420 -33.1205 16.0132 0.7522
49.3961 -54.6390 17.0051 0.7391
54.6124 -47.4385 16.7008 0.7431
49.5119 12.5931 11.7947 0.8108
44.2643 17.1479 10.9593 0.8229
32.2951 17.2312 8.4508 0.8605
24.4637 17.1224 6.8938 0.8846
4.9500 5.6546 1.7350 0.9696
15.5628 -53.3821 10.8084 0.7973
26.1718 -45.2114 10.1545 0.8083
49.4161 -51.3908 13.8583 0.7479
49.2401 -40.1822 12.3538 0.7718
49.2930 -31.1737 11.3369 0.7885
58.0525 -27.5701 12.4922 0.7696
3.6118 5.6628 1.3056 0.9730
1.1825 5.6546 1.1229 0.9767
0.4877 5.6820 1.1085 0.9770
-0.1986 5.6862 1.1060 0.9771
-1.6128 5.6949 1.1505 0.9762
-6.9093 5.7274 1.7445 0.9641
-28.8271 -34.5049 8.7397 0.8326
-17.9167 -36.6294 7.9262 0.8469
-15.0951 -43.4480 8.9406 0.8291
-15.3454 -70.6611 14.0553 0.7448
15.0011 -54.5657 11.0000 0.7941
39.6575 -54.4035 13.0864 0.7601
43.7756 -46.9495 12.4776 0.7698
49.2864 -32.2415 11.4481 0.7866
55.7920 -27.5562 12.0955 0.7760
31.1451 17.2383 6.9194 0.8650
3.7351 5.6620 1.3185 0.9727
2.8264 5.6676 1.2311 0.9745
2.0198 5.6726 1.1704 0.9758
-0.8022 5.6899 1.1169 0.9769
-4.0955 5.7101 1.3659 0.9718
-5.2491 5.7172 1.5087 0.9689
-10.8797 -9.9120 2.8609 0.9418
14.1783 -54.8608 11.0142 0.7938
42.2984 -46.7879 12.2602 0.7734
49.2822 -33.3324 11.5649 0.7847
50.0127 12.7204 10.0310 0.8104
44.2643 17.1479 9.2272 0.8241
4.9500 5.6546 1.4608 0.9698
18.4300 -43.0847 7.4221 0.8271
34.9164 -46.3833 9.1953 0.7905
43.2996 -45.0299 9.8943 0.7765
49.6879 -40.5476 10.1576 0.7713
49.6005 -31.3682 9.2951 0.7885
53.7678 -17.9879 8.9799 0.7948
53.7146 -11.0178 8.6847 0.8009
53.7961 -4.4090 8.5490 0.8036
53.8355 8.6489 8.6360 0.8019
49.5721 14.2454 8.1692 0.8115
38.2650 16.1945 6.5810 0.8451
29.1943 16.7504 5.3310 0.8726
24.4709 18.2741 4.8373 0.8837
25.0052 23.8600 5.4742 0.8694
4.6522 5.6564 1.1600 0.9708
3.6118 5.6628 1.0638 0.9732
2.7187 5.6683 0.9957 0.9749
1.9223 5.6732 0.9487 0.9760
-0.8918 5.6904 0.9123 0.9769
-1.6128 5.6949 0.9375 0.9763
-2.3864 5.6996 0.9787 0.9753
-3.2441 5.7049 1.0394 0.9738
-4.2307 5.7110 1.1257 0.9716
-8.9233 5.7398 1.6805 0.9579
-88.0297 42.6396 15.4920 0.6729
-28.8271 -34.5049 7.1213 0.8335
-23.7465 -36.6070 6.9110 0.8380
-14.7738 -68.0287 11.0258 0.7543
12.1731 -44.2790 7.2733 0.8303
17.3771 -42.4162 7.2600 0.8306
25.1924 -45.1057 8.1828 0.8112
32.8503 -45.0651 8.8327 0.7978
49.3040 -41.5141 10.2085 0.7703
49.2864 -32.2415 9.3281 0.7878
56.7146 -28.0119 10.0186 0.7740
54.2071 -19.0671 9.1012 0.7924
53.7501 -5.2388 8.5535 0.8036
53.9254 1.2607 8.5433 0.8038
53.8303 7.8007 8.6149 0.8023
31.1451 17.2383 5.6381 0.8657
4.7992 5.6555 1.1748 0.9704
2.0198 5.6726 0.9537 0.9759
13.9522 61.9446 10.0569 0.7733
-0.1110 5.6857 0.9007 0.9772
-1.5185 5.6943 0.9334 0.9764
-2.2838 5.6990 0.9724 0.9754
-3.1286 5.7042 1.0304 0.9740
-4.0955 5.7101 1.1130 0.9719
-5.2491 5.7172 1.2293 0.9691
-8.6259 5.7380 1.6409 0.9589
-87.9222 44.2700 15.5911 0.6712
-66.6136 -17.4893 10.9081 0.7566
-89.4999 -35.4662 15.2478 0.6771
-66.7003 -47.4526 12.9650 0.7178
-31.5197 -36.5694 7.6466 0.8224
-24.5515 -36.6021 6.9806 0.8365
17.1887 -43.8681 7.4624 0.8263
31.7958 -45.0586 8.7345 0.7998
53.8673 -27.6444 9.5899 0.7825
53.5837 -19.7793 9.0466 0.7935
53.7450 -6.0743 8.5666 0.8033
44.2643 17.1479 7.5185 0.8251
32.2951 17.2312 5.7976 0.8622
18.2775 -42.7282 5.7062 0.8292
26.1138 -45.1111 6.4001 0.8105
34.1430 -45.3559 6.9706 0.7955
43.6279 -45.3713 7.7285 0.7760
49.2401 -40.1822 7.8035 0.7740
49.6005 -31.3682 7.2059 0.7894
53.6257 -25.4677 7.2892 0.7872
53.8415 -18.0127 6.9711 0.7955
53.7146 -11.0178 6.7326 0.8017
53.7552 -4.4058 6.6224 0.8046
53.7951 2.0860 6.6102 0.8050
50.0229 14.3750 6.3906 0.8108
38.2649 16.1945 5.1018 0.8458
4.6522 5.6564 0.8992 0.9709
1.9223 5.6732 0.7355 0.9761
1.1825 5.6546 0.7093 0.9770
-2.3864 5.6996 0.7587 0.9754
-3.2441 5.7049 0.8058 0.9739
-4.2307 5.7110 0.8727 0.9718
-6.9093 5.7274 1.1019 0.9645
-8.9233 5.7398 1.3027 0.9581
-11.8875 5.7580 1.6218 0.9482
-22.4713 -34.6411 5.0699 0.8467
-17.7778 -36.3454 4.9679 0.8495
-13.2786 -38.2194 4.9679 0.8495
17.5902 -42.9363 5.6972 0.8294
25.1922 -45.1054 6.3435 0.8120
33.0261 -45.3062 6.8840 0.7978
42.1534 -45.2097 7.5897 0.7795
49.2323 -41.4537 7.9024 0.7715
49.2865 -32.2415 7.2314 0.7887
53.7093 -11.8805 6.7541 0.8012
53.7900 1.2576 6.6064 0.8051
50.0178 13.5442 6.3626 0.8115
31.1451 17.2383 4.3708 0.8664
23.9950 22.2010 4.0138 0.8766
3.7351 5.6620 0.8328 0.9730
13.9522 61.9446 7.7964 0.7742
-0.1110 5.6857 0.6982 0.9773
-4.0955 5.7101 0.8628 0.9721
-8.6259 5.7380 1.2721 0.9591
-11.4301 5.7552 1.5713 0.9497
-23.1680 -34.5396 5.1066 0.8457
-13.8649 -38.0106 4.9679 0.8495
-14.7985 -63.4219 7.9964 0.7692
11.9025 -46.0551 5.8406 0.8256
16.9227 -43.1892 5.6955 0.8295
23.5848 -43.7968 6.1077 0.8183
41.0675 -45.4264 7.5191 0.7813
49.2822 -33.3324 7.3052 0.7868
53.6666 -27.5414 7.4065 0.7842
71.8169 -26.5096 9.3996 0.7345
53.7039 -12.7489 6.7773 0.8006
53.7850 0.4298 6.6042 0.8051
50.1366 6.4796 6.2072 0.8157
50.0127 12.7204 6.3363 0.8122
32.2951 17.2312 4.4945 0.8628
4.9500 5.6546 0.9227 0.9702
26.2261 -45.3052 4.5799 0.8104
33.1590 -44.0488 4.8236 0.8014
49.6879 -40.5476 5.6109 0.7730
53.6792 -17.9584 4.9522 0.7967
19.3687 5.5659 1.7631 0.9223
23.9993 22.9002 2.9022 0.8753
4.6522 5.6564 0.6407 0.9710
2.7187 5.6683 0.5500 0.9751
1.9223 5.6732 0.5241 0.9762
0.4877 5.6820 0.4989 0.9774
-0.1986 5.6862 0.4978 0.9774
-0.8918 5.6904 0.5039 0.9771
-2.3864 5.6996 0.5406 0.9755
-3.2441 5.7049 0.5742 0.9740
-5.4145 5.7183 0.6890 0.9689
-6.9093 5.7274 0.7852 0.9646
-8.9233 5.7398 0.9283 0.9583
-11.8875 5.7580 1.1556 0.9483
-68.0037 -18.9771 6.1769 0.7532
-23.7466 -36.6070 3.8175 0.8393
-14.1411 -40.7020 3.7698 0.8411
-12.2619 -56.4624 5.0550 0.7929
12.7253 -46.2874 4.1999 0.8247
17.5051 -42.7284 4.0398 0.8308
25.1923 -45.1057 4.5200 0.8127
49.3040 -41.5141 5.6390 0.7720
49.2865 -32.2416 5.1527 0.7894
47.8858 -23.6512 4.6726 0.8070
53.6735 -18.8794 4.9778 0.7958
53.8501 -5.2486 4.7336 0.8047
53.7973 1.2578 4.7079 0.8057
44.4511 6.4415 3.9296 0.8350
20.5284 5.5588 1.8607 0.9181
39.9414 16.1842 3.7704 0.8411
24.4673 17.6918 2.6416 0.8858
4.7992 5.6555 0.6489 0.9707
3.7351 5.6620 0.5934 0.9731
2.8264 5.6676 0.5541 0.9749
2.0198 5.6726 0.5268 0.9761
0.5758 5.6814 0.4996 0.9773
-0.1110 5.6857 0.4975 0.9774
-0.8022 5.6899 0.5027 0.9772
-1.5185 5.6943 0.5156 0.9766
-3.1286 5.7042 0.5692 0.9742
-5.2491 5.7172 0.6790 0.9693
-8.6259 5.7380 0.9064 0.9593
-11.4301 5.7552 1.1196 0.9499
-16.0472 5.7836 1.4923 0.9338
-91.0712 -36.0889 8.5705 0.6748
-18.5450 -36.4812 3.5804 0.8485
-14.2654 -39.1086 3.6421 0.8461
23.5180 -33.3280 3.5687 0.8489
40.8184 -45.1509 5.3251 0.7832
52.0471 -45.2102 6.0316 0.7582
53.6701 -27.5431 5.2778 0.7849
53.6678 -19.8103 5.0050 0.7948
53.8038 -12.7726 4.8380 0.8009
53.8449 -6.0856 4.7408 0.8045
43.9278 5.6772 3.8752 0.8371
41.7479 16.1730 3.9170 0.8355
24.2794 21.7806 2.8536 0.8772
4.9500 5.6546 0.6575 0.9703
13.3820 -45.9018 2.5058 0.8257
19.6937 -46.0389 2.6243 0.8183
23.8586 -31.6940 2.0790 0.8531
49.6879 -40.5476 3.3610 0.7735
49.6005 -31.3682 3.0756 0.7905
49.0041 -23.2729 2.8431 0.8047
58.7730 -19.6625 3.2480 0.7802
58.7219 -12.0449 3.1416 0.7865
19.3687 5.5659 1.0561 0.9225
24.4709 18.2741 1.6006 0.8849
4.8836 5.9378 0.4029 0.9697
3.6118 5.6628 0.3520 0.9735
2.7187 5.6683 0.3295 0.9751
1.9223 5.6732 0.3139 0.9763
1.1825 5.6546 0.3028 0.9771
-1.6128 5.6949 0.3102 0.9766
-2.3864 5.6996 0.3238 0.9756
-5.4074 5.7107 0.4122 0.9690
-8.9233 5.7398 0.5560 0.9584
-11.8875 5.7580 0.6922 0.9485
-27.4637 5.8538 1.4716 0.8936
-36.7085 -34.4918 2.6398 0.8173
-28.8272 -34.5050 2.3564 0.8352
-16.9056 -34.5623 2.0164 0.8572
-12.1593 -34.9978 1.9417 0.8621
-12.3033 -56.6529 3.0383 0.7928
14.6735 -53.3740 2.9010 0.8011
18.4670 -45.0764 2.5529 0.8227
23.8523 -32.7213 2.1221 0.8503
49.2865 -32.2415 3.0866 0.7899
43.1495 -21.3119 2.5222 0.8247
58.6799 -5.7193 3.0898 0.7897
58.6332 1.3708 3.0737 0.7906
41.7065 6.0438 2.2086 0.8447
39.9414 16.1842 2.2586 0.8415
31.1451 17.2383 1.8656 0.8671
24.4673 17.6918 1.5824 0.8861
23.9950 22.2010 1.7132 0.8773
4.9534 5.8372 0.4012 0.9698
3.7351 5.6620 0.3555 0.9732
2.0198 5.6726 0.3156 0.9762
14.1772 62.9433 3.3814 0.7723
0.5758 5.6814 0.2993 0.9774
-0.1110 5.6857 0.2980 0.9775
-0.8022 5.6899 0.3011 0.9772
-1.5185 5.6943 0.3089 0.9767
-5.2415 5.7089 0.4062 0.9694
-6.6784 5.7116 0.4605 0.9654
-8.6259 5.7380 0.5429 0.9594
-11.4301 5.7552 0.6707 0.9500
-16.0472 5.7836 0.8940 0.9340
-25.4777 5.8416 1.3699 0.9006
-32.1781 -0.5047 1.6866 0.8791
-91.0837 -36.0939 5.1346 0.6754
-37.8514 -34.4848 2.6835 0.8146
-23.1914 -34.5745 2.1818 0.8464
-17.5675 -34.5583 2.0317 0.8562
12.2940 -92.3315 4.8816 0.6886
23.5832 -43.7938 2.6068 0.8194
31.3635 -27.2436 2.1772 0.8467
42.2976 -21.7069 2.4916 0.8266
58.6391 0.4687 3.0732 0.7907
24.1237 9.3455 1.3558 0.9016
24.4638 17.1224 1.5649 0.8873
26.3580 -90.4110 1.6438 0.6861
24.3870 -42.1282 0.8497 0.8230
23.8586 -31.6940 0.6924 0.8532
58.0526 -27.5701 1.1218 0.7733
82.8578 -27.7201 1.5251 0.7050
24.1426 10.2176 0.4576 0.9004
24.5714 18.3492 0.5353 0.8845
4.8826 5.9364 0.1342 0.9697
1.9223 5.6732 0.1046 0.9763
-0.1986 5.6862 0.0993 0.9775
-1.6128 5.6949 0.1033 0.9766
-3.2306 5.6812 0.1141 0.9742
-5.3720 5.6734 0.1364 0.9692
-8.9233 5.7398 0.1852 0.9584
-28.8272 -34.5050 0.7848 0.8354
-22.4085 -34.5443 0.7187 0.8481
-14.1294 -40.6683 0.7515 0.8418
-12.6836 -58.4043 1.0432 0.7873
24.8538 -90.4044 1.6366 0.6872
23.4932 -42.0635 0.8410 0.8247
41.8034 -27.3464 0.8719 0.8189
78.7427 -27.6974 1.4570 0.7161
43.9463 6.3683 0.7751 0.8372
20.5284 5.5588 0.3712 0.9184
2.8264 5.6676 0.1105 0.9750
-0.1110 5.6857 0.0993 0.9775
-0.8022 5.6899 0.1003 0.9773
-1.5185 5.6943 0.1029 0.9767
-2.2838 5.6990 0.1072 0.9757
-3.1177 5.6843 0.1132 0.9744
-16.0472 5.7836 0.2977 0.9340
-25.4483 5.8348 0.4557 0.9008
-66.0367 -17.3378 1.1917 0.7610
-25.6892 -38.2982 0.8050 0.8315
-14.1173 -38.7027 0.7191 0.8481
-12.4265 -53.2564 0.9546 0.8035
19.7170 -50.3205 0.9433 0.8056
39.7537 5.1377 0.6997 0.8518
24.1237 9.3455 0.4516 0.9017
24.9965 22.4239 0.5861 0.8743
24.0392 -82.4572 -1.4992 0.7092
19.0517 -44.5382 -0.8456 0.8238
23.8586 -31.6940 -0.6924 0.8532
26.2034 -27.2505 -0.6599 0.8596
33.4479 -27.2950 -0.7536 0.8414
58.3121 -27.6933 -1.1268 0.7724
39.4296 16.6874 -0.7475 0.8426
24.4709 18.2741 -0.5331 0.8850
25.0053 23.8601 -0.6033 0.8709
1.1825 5.6546 -0.1008 0.9772
0.4877 5.6820 -0.0995 0.9774
-0.1986 5.6862 -0.0993 0.9775
-1.6128 5.6949 -0.1033 0.9766
-3.2294 5.6791 -0.1140 0.9742
-5.3391 5.6387 -0.1355 0.9694
-6.9093 5.7274 -0.1567 0.9647
-8.9233 5.7398 -0.1852 0.9584
-63.8013 5.7235 -1.1181 0.7739
-97.6770 -3.0354 -1.7058 0.6764
-83.3702 -12.7368 -1.4721 0.7136
-67.8357 -18.9302 -1.2293 0.7545
-25.7659 -24.2100 -0.6171 0.8681
-18.8235 -22.5310 -0.5125 0.8892
-12.1129 -24.7640 -0.4812 0.8956
-9.5432 -27.4678 -0.5076 0.8902
-8.4187 -38.7653 -0.6924 0.8533
-8.6874 -92.8278 -1.6274 0.6887
14.8614 -36.2756 -0.6843 0.8548
23.4048 -41.9051 -0.8378 0.8253
23.8523 -32.7213 -0.7068 0.8504
32.4092 -27.2887 -0.7395 0.8441
56.7146 -28.0119 -1.1041 0.7764
79.0019 -27.7886 -1.4618 0.7153
66.9306 1.5648 -1.1686 0.7650
41.7568 6.0511 -0.7365 0.8447
20.5284 5.5588 -0.3712 0.9184
31.1451 17.2383 -0.6214 0.8673
3.7351 5.6620 -0.1184 0.9732
2.0198 5.6726 -0.1051 0.9762
12.2943 54.5840 -0.9766 0.7994
0.5758 5.6814 -0.0997 0.9774
-0.1110 5.6857 -0.0993 0.9775
-1.5185 5.6943 -0.1029 0.9767
-2.2838 5.6990 -0.1072 0.9757
-4.0672 5.6706 -0.1218 0.9725
-5.1838 5.6461 -0.1338 0.9698
-8.6259 5.7380 -0.1808 0.9594
-25.0265 5.7381 -0.4482 0.9024
-97.5800 10.2690 -1.7127 0.6753
-69.1045 -37.5567 -1.3728 0.7300
-72.2693 -51.4146 -1.5481 0.7013
-28.1126 -25.6122 -0.6638 0.8589
-19.2405 -22.3231 -0.5144 0.8888
-25.6892 -38.2982 -0.8050 0.8315
-12.3819 -24.3572 -0.4769 0.8965
-8.4294 -36.1257 -0.6475 0.8621
-8.2403 -75.5111 -1.3259 0.7379
23.3385 -90.3052 -1.6281 0.6886
19.7171 -50.3208 -0.9434 0.8056
22.5619 -41.8972 -0.8306 0.8267
23.5089 -33.3151 -0.7117 0.8495
41.5878 -21.3426 -0.8159 0.8294
66.3191 0.5300 -1.1576 0.7670
21.8243 5.5508 -0.3931 0.9138
32.2951 17.2312 -0.6389 0.8638
5.0148 5.7285 -0.1329 0.9700
2.0330 -47.6896 -2.5016 0.8260
13.3455 -45.7765 -2.4989 0.8261
22.4588 -38.7972 -2.3494 0.8356
21.6374 -28.7434 -1.8855 0.8658
26.3048 -27.3560 -1.9889 0.8590
37.8468 -23.9349 -2.3468 0.8358
31.8282 -15.1157 -1.8466 0.8684
44.7951 1.7371 -2.3494 0.8356
19.2081 5.5198 -1.0474 0.9231
18.6924 10.7248 -1.1294 0.9173
24.5023 23.3801 -1.7749 0.8731
4.8826 5.9364 -0.4028 0.9697
2.7187 5.6683 -0.3295 0.9751
-0.1986 5.6862 -0.2982 0.9775
-3.2294 5.6791 -0.3424 0.9742
-4.1891 5.6549 -0.3688 0.9722
-5.3228 5.6214 -0.4057 0.9695
-6.9093 5.7274 -0.4703 0.9647
-8.9233 5.7398 -0.5560 0.9584
-11.7617 5.6971 -0.6849 0.9490
-16.8704 5.7887 -0.9347 0.9311
-45.0268 4.0393 -2.3692 0.8344
-44.4933 -1.3827 -2.3329 0.8367
-45.9763 -12.8301 -2.5016 0.8260
-44.1000 -18.2654 -2.5016 0.8260
-41.5837 -23.4356 -2.5016 0.8260
-38.4641 -28.2656 -2.5016 0.8260
-14.8067 -22.8256 -1.4259 0.8967
-11.8989 -24.3263 -1.4192 0.8972
-9.4666 -27.2476 -1.5117 0.8909
-8.1400 -37.4825 -2.0102 0.8576
1.2992 -47.7152 -2.5016 0.8260
15.2975 -37.3401 -2.1148 0.8508
20.9495 -28.7392 -1.8638 0.8672
25.4037 -27.2456 -1.9523 0.8614
37.5148 -24.5409 -2.3494 0.8356
30.9319 -15.2775 -1.8080 0.8709
45.0286 -15.8386 -2.5016 0.8260
47.7199 1.1157 -2.5016 0.8260
39.8801 5.7791 -2.1119 0.8509
20.5284 5.5588 -1.1146 0.9183
18.6291 7.5485 -1.0534 0.9226
18.6841 10.3414 -1.1192 0.9180
24.4979 22.6664 -1.7491 0.8749
4.9534 5.8371 -0.4012 0.9698
2.8264 5.6676 -0.3319 0.9750
-0.1110 5.6857 -0.2980 0.9775
-1.5185 5.6943 -0.3089 0.9767
-2.2838 5.6990 -0.3218 0.9757
-3.1177 5.6843 -0.3398 0.9744
-4.0555 5.6544 -0.3647 0.9725
-6.6784 5.7116 -0.4605 0.9654
-11.3528 5.7163 -0.6661 0.9504
-16.0472 5.7836 -0.8940 0.9340
-31.9570 -0.5013 -1.6750 0.8798
-44.3757 -17.5848 -2.5016 0.8260
-41.9394 -22.7931 -2.5016 0.8260
-38.8944 -27.6706 -2.5016 0.8260
-27.6409 -25.1825 -1.9596 0.8609
-19.2266 -22.3069 -1.5434 0.8887
-15.2238 -22.6961 -1.4323 0.8963
-9.6994 -26.5908 -1.4834 0.8928
-8.1162 -34.7838 -1.8719 0.8667
0.5650 -47.7296 -2.5016 0.8260
6.3001 -47.3153 -2.5016 0.8260
23.4167 -33.1844 -2.1285 0.8499
24.6141 -27.2266 -1.9235 0.8633
31.2868 -27.1769 -2.1719 0.8470
46.4422 -11.0250 -2.5016 0.8260
47.4310 -5.3607 -2.5016 0.8260
39.8762 5.1536 -2.1072 0.8512
21.8243 5.5508 -1.1802 0.9137
24.1920 21.7022 -1.7032 0.8779
5.0148 5.7285 -0.3990 0.9700
-2.2260 -28.5063 -2.5016 0.8915
1.2178 -28.5672 -2.5016 0.8915
4.6440 -28.2135 -2.5016 0.8915
8.0028 -27.4504 -2.5016 0.8915
13.9111 -24.0312 -2.4293 0.8945
21.2259 -17.3213 -2.3969 0.8958
28.4976 -2.3356 -2.5016 0.8915
28.5717 1.1079 -2.5016 0.8915
26.5135 4.2595 -2.3494 0.8978
19.1391 10.9811 -1.9305 0.9152
19.2355 14.3645 -2.1004 0.9081
19.7686 18.8632 -2.3906 0.8961
3.6118 5.6628 -0.5876 0.9734
2.7187 5.6683 -0.5500 0.9751
1.9223 5.6732 -0.5241 0.9762
1.1825 5.6546 -0.5054 0.9771
0.4877 5.6820 -0.4989 0.9774
-0.8918 5.6904 -0.5039 0.9771
-1.6128 5.6949 -0.5178 0.9765
-2.3864 5.6996 -0.5406 0.9755
-4.1770 5.6385 -0.6139 0.9722
-5.3064 5.6041 -0.6752 0.9695
-6.9093 5.7274 -0.7852 0.9646
-8.9233 5.7398 -0.9283 0.9583
-26.2635 5.5980 -2.3494 0.8978
-26.7461 2.3993 -2.3494 0.8978
-27.0729 -0.8413 -2.3697 0.8969
-28.2652 -4.3182 -2.5016 0.8915
-27.5409 -7.6855 -2.5016 0.8915
-26.4169 -10.9414 -2.5016 0.8915
-24.9096 -14.0384 -2.5016 0.8915
-14.5867 -22.4865 -2.3450 0.8980
-8.8129 -25.3661 -2.3494 0.8978
-5.6989 -26.2418 -2.3494 0.8978
-2.6643 -28.4687 -2.5016 0.8915
0.7782 -28.5825 -2.5016 0.8915
4.2094 -28.2816 -2.5016 0.8915
10.8397 -26.4588 -2.5016 0.8915
15.8183 -21.7000 -2.3494 0.8978
18.3128 -19.6405 -2.3494 0.8978
20.6037 -17.3483 -2.3565 0.8975
23.9281 -15.6529 -2.5016 0.8915
25.6366 -12.6622 -2.5016 0.8915
26.9731 -9.4877 -2.5016 0.8915
27.9183 -6.1755 -2.5016 0.8915
28.4583 -2.7737 -2.5016 0.8915
28.5853 0.6683 -2.5016 0.8915
19.9891 2.8967 -1.7671 0.9221
20.5284 5.5588 -1.8607 0.9181
13.8765 5.6227 -1.3099 0.9417
19.1288 10.5875 -1.9128 0.9160
20.0466 18.5478 -2.3894 0.8961
4.9534 5.8371 -0.6698 0.9697
3.7351 5.6620 -0.5934 0.9731
2.0198 5.6726 -0.5268 0.9761
0.5758 5.6814 -0.4996 0.9773
-0.1110 5.6857 -0.4975 0.9774
-0.8022 5.6899 -0.5027 0.9772
-1.5185 5.6943 -0.5156 0.9766
-2.2838 5.6990 -0.5371 0.9756
-3.1177 5.6843 -0.5672 0.9743
-5.1525 5.6120 -0.6665 0.9699
-11.3169 5.6982 -1.1085 0.9504
-16.0472 5.7836 -1.4923 0.9338
-26.7060 2.8104 -2.3494 0.8978
-26.8502 -0.4212 -2.3494 0.8978
-28.3283 -3.8829 -2.5016 0.8915
-25.1226 -13.6536 -2.5016 0.8915
-17.5319 -20.3406 -2.3494 0.8978
-14.9529 -22.2923 -2.3484 0.8978
-12.1010 -23.8047 -2.3363 0.8983
-3.1019 -28.4244 -2.5016 0.8915
15.4826 -21.9408 -2.3494 0.8978
18.0085 -19.9199 -2.3494 0.8978
20.2731 -17.6100 -2.3494 0.8978
23.6844 -16.0192 -2.5016 0.8915
25.4388 -13.0550 -2.5016 0.8915
26.8240 -9.9015 -2.5016 0.8915
28.4122 -3.2112 -2.5016 0.8915
26.6320 3.4419 -2.3494 0.8978
21.8243 5.5508 -1.9702 0.9135
19.0534 7.3813 -1.7877 0.9212
19.1189 10.2010 -1.8959 0.9167
20.3195 18.2282 -2.3882 0.8962
5.0148 5.7285 -0.6661 0.9699
-1.5861 -20.3119 -2.5016 0.9212
0.8677 -20.3552 -2.5016 0.9212
3.3090 -20.1032 -2.5016 0.9212
10.2070 -17.6325 -2.5016 0.9212
14.1215 -14.6858 -2.5016 0.9212
19.3211 -6.4639 -2.5016 0.9212
19.9582 -4.0938 -2.5016 0.9212
17.6210 7.4576 -2.3494 0.9258
16.6429 9.5489 -2.3559 0.9256
6.0592 5.7817 -1.0283 0.9668
4.8826 5.9364 -0.9438 0.9695
3.6118 5.6628 -0.8247 0.9733
2.7187 5.6683 -0.7719 0.9750
1.9223 5.6732 -0.7355 0.9761
0.4877 5.6820 -0.7002 0.9773
-0.8918 5.6904 -0.7072 0.9771
-2.3864 5.6996 -0.7587 0.9754
-3.2294 5.6791 -0.8022 0.9740
-5.2901 5.5869 -0.9447 0.9695
-8.9233 5.7398 -1.3027 0.9581
-11.5273 5.5836 -1.5727 0.9497
-16.8704 5.7887 -2.1900 0.9306
-18.7138 3.9888 -2.3494 0.9258
-20.1400 -3.0769 -2.5016 0.9212
-8.6139 -2.4038 -1.0981 0.9646
-8.4450 -3.4977 -1.1223 0.9638
-17.7490 -10.0029 -2.5016 0.9212
-14.8477 -13.9511 -2.5016 0.9212
-13.0624 -15.6352 -2.5016 0.9212
-6.6864 -19.2452 -2.5016 0.9212
-1.8984 -20.2850 -2.5016 0.9212
0.5545 -20.3661 -2.5016 0.9212
2.9994 -20.1517 -2.5016 0.9212
5.4007 -19.6448 -2.5016 0.9212
9.9346 -17.7874 -2.5016 0.9212
12.0013 -16.4638 -2.5016 0.9212
17.0497 -11.1533 -2.5016 0.9212
18.2671 -9.0223 -2.5016 0.9212
19.8928 -4.4003 -2.5016 0.9212
20.2776 -1.9764 -2.5016 0.9212
20.3681 0.4762 -2.5016 0.9212
18.4690 5.0012 -2.3494 0.9258
17.7336 7.1856 -2.3494 0.9258
16.7809 9.2879 -2.3550 0.9256
7.8232 5.6568 -1.1854 0.9618
6.2465 5.7795 -1.0449 0.9663
3.7351 5.6620 -0.8328 0.9730
2.8264 5.6676 -0.7776 0.9748
0.5758 5.6814 -0.7012 0.9772
-0.8022 5.6899 -0.7055 0.9771
-1.5185 5.6943 -0.7236 0.9765
-3.1177 5.6843 -0.7960 0.9742
-4.0457 5.6407 -0.8523 0.9724
-5.1369 5.5950 -0.9326 0.9699
-6.4463 5.5131 -1.0415 0.9664
-14.1678 5.1062 -1.8491 0.9411
-20.3712 -0.3195 -2.5016 0.9212
-8.6848 -2.2802 -1.1025 0.9645
-17.9008 -9.7287 -2.5016 0.9212
-15.0606 -13.7210 -2.5016 0.9212
-13.3014 -15.4324 -2.5016 0.9212
-9.2324 -18.1618 -2.5016 0.9212
-6.9816 -19.1401 -2.5016 0.9212
-4.6295 -19.8407 -2.5016 0.9212
-2.2102 -20.2534 -2.5016 0.9212
5.0979 -19.7256 -2.5016 0.9212
9.6598 -17.9381 -2.5016 0.9212
11.7466 -16.6464 -2.5016 0.9212
13.6630 -15.1132 -2.5016 0.9212
15.3812 -13.3607 -2.5016 0.9212
19.1131 -7.0552 -2.5016 0.9212
19.8228 -4.7058 -2.5016 0.9212
20.3731 0.1628 -2.5016 0.9212
18.9763 2.4525 -2.3494 0.9258
8.0760 5.6525 -1.2104 0.9611
7.9128 -13.6692 -2.5016 0.9380
12.2369 -9.9859 -2.5016 0.9380
13.3489 -8.4421 -2.5016 0.9380
15.4722 -3.1736 -2.5016 0.9380
15.7415 -1.2902 -2.5016 0.9380
15.7825 0.6120 -2.5016 0.9380
14.2564 4.0968 -2.3494 0.9417
5.9366 5.6647 -1.2997 0.9673
4.8826 5.9364 -1.2174 0.9694
3.6118 5.6628 -1.0638 0.9732
1.9223 5.6732 -0.9487 0.9760
1.1825 5.6546 -0.9150 0.9769
0.4877 5.6820 -0.9032 0.9772
-0.1986 5.6862 -0.9012 0.9772
-1.6128 5.6949 -0.9375 0.9763
-2.3864 5.6996 -0.9787 0.9753
-3.2285 5.6775 -1.0345 0.9739
-4.1594 5.6148 -1.1067 0.9721
-5.2435 5.5377 -1.2079 0.9696
-6.4411 5.3393 -1.3251 0.9667
-11.5273 5.5836 -2.0286 0.9495
-14.5075 3.0922 -2.3494 0.9417
-15.6132 -2.3853 -2.5016 0.9380
-7.9673 -2.2233 -1.3101 0.9671
-7.7939 -3.2281 -1.3361 0.9664
-12.7274 -9.3528 -2.5016 0.9380
-11.5104 -10.8153 -2.5016 0.9380
-8.5955 -13.2506 -2.5016 0.9380
-5.1835 -14.9195 -2.5016 0.9380
-3.3519 -15.4345 -2.5016 0.9380
4.1868 -15.2293 -2.5016 0.9380
5.9876 -14.6153 -2.5016 0.9380
7.7016 -13.7893 -2.5016 0.9380
9.3038 -12.7632 -2.5016 0.9380
10.7710 -11.5519 -2.5016 0.9380
14.8995 -5.2408 -2.5016 0.9380
15.4215 -3.4112 -2.5016 0.9380
15.7198 -1.5321 -2.5016 0.9380
14.3177 3.8770 -2.3494 0.9417
13.7476 5.5705 -2.3494 0.9417
12.0378 8.7043 -2.3528 0.9416
3.7351 5.6620 -1.0743 0.9729
2.8264 5.6676 -1.0031 0.9747
2.0198 5.6726 -0.9537 0.9759
3.2948 14.6280 -2.3749 0.9411
-0.1110 5.6857 -0.9007 0.9772
-1.5185 5.6943 -0.9334 0.9764
-2.2838 5.6990 -0.9724 0.9754
-8.6259 5.7380 -1.6409 0.9589
-11.2071 5.6429 -1.9873 0.9505
-13.9547 5.0294 -2.3494 0.9417
-14.4582 3.3150 -2.3494 0.9417
-14.7519 1.5525 -2.3494 0.9417
-15.7924 -0.2477 -2.5016 0.9380
-15.6480 -2.1448 -2.5016 0.9380
-7.7954 -3.0891 -1.3281 0.9666
-11.6754 -10.6370 -2.5016 0.9380
-7.1573 -14.0796 -2.5016 0.9380
-5.4124 -14.8380 -2.5016 0.9380
-3.5889 -15.3811 -2.5016 0.9380
0.1870 -15.7932 -2.5016 0.9380
2.0846 -15.6561 -2.5016 0.9380
3.9520 -15.2919 -2.5016 0.9380
7.4886 -13.9062 -2.5016 0.9380
10.5920 -11.7162 -2.5016 0.9380
11.9239 -10.3576 -2.5016 0.9380
14.8171 -5.4694 -2.5016 0.9380
15.3672 -3.6481 -2.5016 0.9380
14.3757 3.6563 -2.3494 0.9417
13.8317 5.3584 -2.3494 0.9417
6.3232 5.6724 -1.3454 0.9662
5.0148 5.7285 -1.2058 0.9696
-1.0019 -12.8304 -2.5016 0.9489
0.5481 -12.8578 -2.5016 0.9489
2.0902 -12.6986 -2.5016 0.9489
6.4475 -11.1379 -2.5016 0.9489
7.7400 -10.2819 -2.5016 0.9489
8.9201 -9.2766 -2.5016 0.9489
9.9708 -8.1367 -2.5016 0.9489
10.8769 -6.8787 -2.5016 0.9489
11.6251 -5.5209 -2.5016 0.9489
12.6070 -2.5859 -2.5016 0.9489
12.8598 0.4987 -2.5016 0.9489
11.9335 1.9172 -2.3494 0.9519
11.6164 3.3382 -2.3494 0.9519
11.1307 4.7107 -2.3494 0.9519
9.6842 7.2319 -2.3494 0.9519
6.0663 5.7885 -1.6299 0.9664
4.8826 5.9364 -1.4941 0.9692
2.7187 5.6683 -1.2220 0.9747
1.9223 5.6732 -1.1643 0.9759
-0.1986 5.6862 -1.1060 0.9771
-0.8918 5.6904 -1.1196 0.9768
-1.6128 5.6949 -1.1505 0.9762
-2.3864 5.6996 -1.2011 0.9751
-3.1987 5.6251 -1.2578 0.9740
-4.1184 5.5594 -1.3448 0.9722
-5.1870 5.4780 -1.4664 0.9697
-8.9233 5.7398 -2.0624 0.9577
-10.8776 5.2689 -2.3494 0.9519
-11.4322 3.9227 -2.3494 0.9519
-11.8209 2.5196 -2.3494 0.9519
-12.8154 1.1496 -2.5011 0.9489
-12.7219 -1.9436 -2.5016 0.9489
-10.3705 -7.6208 -2.5016 0.9489
-9.3789 -8.8125 -2.5016 0.9489
-8.2512 -9.8763 -2.5016 0.9489
-7.0038 -10.7968 -2.5016 0.9489
-2.7312 -12.5763 -2.5016 0.9489
1.8946 -12.7292 -2.5016 0.9489
6.2754 -11.2358 -2.5016 0.9489
12.5657 -2.7795 -2.5016 0.9489
12.8088 -1.2484 -2.5016 0.9489
12.8660 0.3008 -2.5016 0.9489
11.9615 1.7334 -2.3494 0.9519
11.2018 4.5389 -2.3494 0.9519
10.5748 5.8530 -2.3494 0.9519
9.7943 7.0821 -2.3494 0.9519
3.7351 5.6620 -1.3185 0.9727
2.8264 5.6676 -1.2311 0.9745
2.0198 5.6726 -1.1704 0.9758
2.6730 11.8675 -2.3646 0.9516
0.5758 5.6814 -1.1100 0.9770
-0.8022 5.6899 -1.1169 0.9769
-1.5185 5.6943 -1.1455 0.9763
-3.9939 5.5685 -1.3320 0.9725
-5.0400 5.4895 -1.4486 0.9701
-6.1534 5.2626 -1.5739 0.9675
-8.6259 5.7380 -2.0138 0.9587
-10.7953 5.4356 -2.3494 0.9519
-11.3705 4.0981 -2.3494 0.9519
-11.7808 2.7011 -2.3494 0.9519
-12.7793 1.3448 -2.4978 0.9490
-12.8679 -0.2019 -2.5016 0.9489
-12.7503 -1.7477 -2.5016 0.9489
-7.8723 -2.0669 -1.5821 0.9674
-11.3075 -6.1454 -2.5016 0.9489
-7.1690 -10.6878 -2.5016 0.9489
-5.8319 -11.4723 -2.5016 0.9489
1.6986 -12.7569 -2.5016 0.9489
4.6951 -11.9825 -2.5016 0.9489
6.1018 -11.3310 -2.5016 0.9489
8.6305 -9.5466 -2.5016 0.9489
9.7158 -8.4396 -2.5016 0.9489
10.6601 -7.2101 -2.5016 0.9489
11.4498 -5.8759 -2.5016 0.9489
12.7881 -1.4453 -2.5016 0.9489
12.8691 0.1028 -2.5016 0.9489
12.1377 1.5687 -2.3790 0.9514
11.7135 2.9793 -2.3494 0.9519
11.2703 4.3661 -2.3494 0.9519
9.0010 8.0747 -2.3505 0.9519
0.4615 -10.8257 -2.5016 0.9565
3.0327 -10.4024 -2.5016 0.9565
4.2615 -9.9623 -2.5016 0.9565
5.4285 -9.3776 -2.5016 0.9565
6.5167 -8.6568 -2.5016 0.9565
8.3950 -6.8507 -2.5016 0.9565
9.1578 -5.7916 -2.5016 0.9565
10.6145 -2.1772 -2.5016 0.9565
10.0891 1.6208 -2.3591 0.9589
9.3715 3.9662 -2.3494 0.9591
8.8266 5.0643 -2.3494 0.9591
8.1536 6.0889 -2.3494 0.9591
6.0663 5.7885 -1.9358 0.9662
4.8826 5.9364 -1.7745 0.9689
3.6118 5.6628 -1.5506 0.9728
2.7187 5.6683 -1.4514 0.9745
-0.8918 5.6904 -1.3298 0.9766
-1.6128 5.6949 -1.3665 0.9760
-4.0775 5.5042 -1.5815 0.9723
-6.1488 5.0970 -1.8439 0.9677
-9.1584 4.4362 -2.3494 0.9591
-10.7112 -1.6364 -2.5016 0.9565
-6.6677 -2.7616 -1.6662 0.9708
-6.6230 -3.7325 -1.7551 0.9693
-5.8969 -9.0904 -2.5016 0.9565
-2.2995 -10.5887 -2.5016 0.9565
0.2949 -10.8315 -2.5016 0.9565
8.2886 -6.9790 -2.5016 0.9565
9.7151 -4.7984 -2.5016 0.9565
10.5798 -2.3402 -2.5016 0.9565
10.7844 -1.0511 -2.5016 0.9565
10.8326 0.2533 -2.5016 0.9565
8.9035 4.9279 -2.3494 0.9591
8.2463 5.9628 -2.3494 0.9591
4.9534 5.8371 -1.7674 0.9691
3.7351 5.6620 -1.5660 0.9725
2.0198 5.6726 -1.3902 0.9756
0.5758 5.6814 -1.3184 0.9768
-0.8022 5.6899 -1.3266 0.9767
-2.2838 5.6990 -1.4174 0.9751
-4.9862 5.4309 -1.7021 0.9702
-8.4729 5.6362 -2.3494 0.9591
-9.0891 4.5765 -2.3494 0.9591
-7.4527 2.6861 -1.8289 0.9680
-10.7351 -1.4714 -2.5016 0.9565
-7.6987 -2.0213 -1.8376 0.9679
-6.6938 -2.6526 -1.6623 0.9709
-8.0098 -7.2974 -2.5016 0.9565
-7.0742 -8.2075 -2.5016 0.9565
-6.0360 -8.9986 -2.5016 0.9565
-4.9102 -9.6591 -2.5016 0.9565
-2.4621 -10.5521 -2.5016 0.9565
-1.1755 -10.7716 -2.5016 0.9565
1.4301 -10.7407 -2.5016 0.9565
2.7113 -10.4908 -2.5016 0.9565
5.1374 -9.5402 -2.5016 0.9565
7.2665 -8.0378 -2.5016 0.9565
8.1803 -7.1057 -2.5016 0.9565
9.6402 -4.9473 -2.5016 0.9565
10.1651 -3.7522 -2.5016 0.9565
10.5018 1.3573 -2.4447 0.9575
8.9782 4.7904 -2.3494 0.9591
8.3371 5.8352 -2.3494 0.9591
1.5163 -9.2120 -2.5016 0.9621
3.6718 -8.5837 -2.5016 0.9621
6.4710 -6.7296 -2.5016 0.9621
7.2332 -5.9027 -2.5016 0.9621
7.8905 -4.9901 -2.5016 0.9621
8.8537 -2.9620 -2.5016 0.9621
8.4269 2.4216 -2.3494 0.9643
8.0746 3.4173 -2.3494 0.9643
7.0253 5.2463 -2.3494 0.9643
4.8826 5.9364 -2.0596 0.9687
1.9223 5.6732 -1.6050 0.9755
1.1825 5.6546 -1.5479 0.9764
-0.1986 5.6862 -1.5245 0.9767
-0.8918 5.6904 -1.5434 0.9764
-3.1948 5.6182 -1.7318 0.9736
-5.0380 5.3206 -1.9634 0.9701
-7.6445 2.6230 -2.1655 0.9671
-9.3315 -0.2900 -2.5016 0.9621
-9.2289 -1.4099 -2.5016 0.9621
-6.3929 -3.6029 -1.9663 0.9701
-7.5231 -5.5284 -2.5016 0.9621
-6.8038 -6.3929 -2.5016 0.9621
-5.9857 -7.1647 -2.5016 0.9621
-5.0808 -7.8324 -2.5016 0.9621
-4.1021 -8.3865 -2.5016 0.9621
-3.0640 -8.8189 -2.5016 0.9621
-1.9813 -9.1233 -2.5016 0.9621
-0.8699 -9.2954 -2.5016 0.9621
2.4748 -9.0020 -2.5016 0.9621
3.5393 -8.6391 -2.5016 0.9621
5.4995 -7.5443 -2.5016 0.9621
6.3667 -6.8283 -2.5016 0.9621
9.2920 -0.9057 -2.5016 0.9621
9.0539 1.3120 -2.4513 0.9628
8.4632 2.2917 -2.3494 0.9643
7.6713 4.2460 -2.3494 0.9643
6.2550 5.7873 -2.2834 0.9653
4.9534 5.8371 -2.0513 0.9688
3.7351 5.6620 -1.8175 0.9723
2.8264 5.6676 -1.6970 0.9741
2.0198 5.6726 -1.6134 0.9754
1.9290 8.5643 -2.3523 0.9643
-0.1110 5.6857 -1.5238 0.9767
-0.8022 5.6899 -1.5397 0.9765
-1.5185 5.6943 -1.5791 0.9759
-3.0919 5.6373 -1.7228 0.9737
-3.9316 5.4815 -1.8075 0.9725
-6.6634 5.6988 -2.3494 0.9643
-7.3543 2.6506 -2.0946 0.9681
-9.3349 -0.1464 -2.5016 0.9621
-9.2495 -1.2678 -2.5016 0.9621
-6.3769 -2.5270 -1.8380 0.9720
-7.6073 -5.4120 -2.5016 0.9621
-6.9013 -6.2875 -2.5016 0.9621
-3.1993 -8.7707 -2.5016 0.9621
-1.0128 -9.2809 -2.5016 0.9621
0.1105 -9.3353 -2.5016 0.9621
1.2322 -9.2543 -2.5016 0.9621
2.3360 -9.0390 -2.5016 0.9621
3.4060 -8.6925 -2.5016 0.9621
7.0482 -6.1224 -2.5016 0.9621
8.7584 -3.2329 -2.5016 0.9621
9.0836 -2.1564 -2.5016 0.9621
9.2769 -1.0485 -2.5016 0.9621
9.1327 1.1803 -2.4674 0.9626
8.4974 2.1613 -2.3494 0.9643
8.1759 3.1673 -2.3494 0.9643
7.7357 4.1275 -2.3494 0.9643
7.1833 5.0277 -2.3494 0.9643
5.0148 5.7285 -2.0400 0.9690
