ply
format ascii 1.0
element vertex 671
property float32 x
property float32 y
property float32 z
property float32 I
end_header
-47.8499 -9.4659 13.0698 0.8171
-63.4436 -20.7674 17.8872 0.7585
-13.4705 -31.2361 9.1148 0.8686
-12.9247 -43.9350 12.2712 0.8272
26.8657 16.9920 8.5176 0.8767
26.6424 21.7661 9.2183 0.8672
27.4371 28.5942 10.6184 0.8487
1.6354 5.6749 1.5825 0.9758
-0.4706 5.6879 1.5293 0.9766
-1.1752 5.6922 1.5574 0.9762
-1.9172 5.6968 1.6106 0.9754
-2.7239 5.7017 1.6932 0.9742
-19.0757 23.2180 8.0517 0.8830
-25.2911 -34.0981 11.3754 0.8388
-12.0564 -42.7226 11.8946 0.8321
-12.1592 -78.3280 21.2393 0.7202
22.7013 -46.8503 13.9496 0.8061
51.8947 -29.3262 15.9719 0.7813
48.3860 16.7322 13.7183 0.8090
35.2747 17.2129 10.5171 0.8500
26.8683 17.4126 8.5790 0.8758
26.3968 22.0567 9.2172 0.8672
27.4201 29.2165 10.7362 0.8471
3.1809 5.6654 1.7410 0.9735
-68.1595 -13.4835 16.0408 0.7518
-56.2123 -26.2845 14.3263 0.7751
-18.0290 -30.8984 8.2590 0.8634
-13.1780 -44.7959 10.7802 0.8256
-12.6118 -75.7104 17.7200 0.7297
22.1400 -47.0097 11.9965 0.8079
29.6232 -47.1244 12.8505 0.7957
51.8273 -50.0060 16.6268 0.7440
51.8610 -30.0686 13.8399 0.7818
49.8490 16.6232 12.1316 0.8060
36.2745 17.2067 9.2690 0.8480
2.4081 5.6702 1.4222 0.9750
0.9138 5.6794 1.3280 0.9767
-1.1752 5.6922 1.3419 0.9764
-2.7239 5.7017 1.4588 0.9744
-3.6319 5.7073 1.5618 0.9726
-4.6944 5.7138 1.7073 0.9701
-5.9770 5.7035 1.9073 0.9667
-27.1451 20.2505 7.8187 0.8702
-57.9439 -27.8791 14.8453 0.7680
-25.7488 -34.7153 9.9786 0.8374
-17.7182 -31.1521 8.2739 0.8632
-13.3939 -32.0280 8.0148 0.8672
-12.6424 -44.7992 10.7466 0.8261
51.8947 -29.3262 13.7615 0.7829
22.6071 -0.6828 5.2216 0.9113
48.1019 16.6339 11.7504 0.8114
35.2747 17.2129 9.0616 0.8512
26.8682 17.4126 7.3917 0.8768
27.4021 22.8966 8.2441 0.8636
-64.3747 -21.0723 13.1665 0.7588
28.5505 -45.4179 10.4278 0.8036
41.8527 -51.5192 12.9024 0.7630
51.8273 -50.0060 13.9990 0.7457
51.6502 -38.9779 12.5778 0.7682
51.7031 -29.9770 11.6171 0.7839
50.1433 16.7213 10.2745 0.8062
26.8657 16.9920 6.1790 0.8785
5.4229 5.6517 1.5225 0.9686
3.2636 5.6649 1.2708 0.9737
2.4081 5.6702 1.1975 0.9752
0.9138 5.6794 1.1182 0.9768
-1.1752 5.6922 1.1298 0.9766
-2.7239 5.7017 1.2283 0.9746
-4.6944 5.7138 1.4374 0.9703
-4.9512 2.8342 1.1089 0.9770
-87.1904 3.1164 16.9589 0.7008
-26.8677 -2.2978 5.2416 0.8959
-64.4875 -21.9016 13.2383 0.7577
-57.8220 -27.8205 12.4727 0.7699
-25.6075 -34.5247 8.3554 0.8393
-18.5595 -32.6314 7.2971 0.8582
-12.2660 -43.4654 8.7788 0.8319
30.8944 -90.1465 18.5232 0.6782
29.2993 -45.4850 10.5169 0.8021
51.7077 -29.2205 11.5448 0.7850
35.2748 17.2129 7.6295 0.8522
26.8683 17.4126 6.2235 0.8777
6.7539 5.6435 1.7108 0.9648
3.1809 5.6654 1.2630 0.9739
-86.7140 25.7700 14.3278 0.6933
-89.1255 -17.6311 14.3897 0.6922
-67.1473 -69.2091 15.2729 0.6767
-26.2015 -34.5211 6.8641 0.8390
-14.9297 -34.6199 5.9714 0.8584
-10.1929 -34.6489 5.7204 0.8639
15.4718 -46.8273 7.8111 0.8190
28.4884 -45.3191 8.4782 0.8051
52.0982 -39.3159 10.3375 0.7677
52.1515 -30.2370 9.5479 0.7834
64.9874 -27.8127 11.1960 0.7511
58.7243 -17.0991 9.6873 0.7806
56.2127 4.4946 8.9316 0.7958
52.0918 10.6046 8.4198 0.8063
49.8490 16.6232 8.3227 0.8083
36.2745 17.2068 6.3589 0.8499
26.8657 16.9921 5.0348 0.8792
6.9067 5.6425 1.4126 0.9645
5.4229 5.6517 1.2406 0.9688
3.2636 5.6649 1.0355 0.9739
-1.9172 5.6968 0.9520 0.9760
-2.7239 5.7017 1.0008 0.9747
-3.6319 5.7073 1.0715 0.9730
-4.6944 5.7138 1.1712 0.9705
-5.9962 5.7218 1.3127 0.9670
-7.6838 5.7322 1.5183 0.9619
-4.9510 2.8342 0.9036 0.9772
-86.7120 3.0993 13.7426 0.7037
-65.5085 -22.2484 10.9576 0.7556
-19.6543 -34.5561 6.2965 0.8513
-9.7898 -34.6909 5.7091 0.8642
51.7552 -38.1663 10.1851 0.7707
52.1562 -29.4739 9.4885 0.7846
58.2638 -16.2683 9.5811 0.7827
56.2166 5.1211 8.9407 0.7956
48.1019 16.6339 8.0613 0.8137
5.3048 5.6524 1.2278 0.9691
4.1494 5.6595 1.1115 0.9720
3.1809 5.6654 1.0291 0.9740
-87.8674 26.1128 11.2551 0.6911
-33.4835 -34.5116 5.9041 0.8238
-20.3865 -34.9388 4.9668 0.8496
-11.4184 -38.8145 4.9678 0.8495
16.4303 -49.7282 6.4305 0.8097
46.8868 -45.2390 7.9998 0.7691
51.6503 -38.9779 7.9450 0.7705
52.2014 -30.2659 7.4089 0.7841
56.3062 -2.3243 6.9194 0.7968
53.3636 4.2668 6.5731 0.8059
52.0917 10.6046 6.5272 0.8072
49.8490 16.6232 6.4520 0.8092
4.2460 5.6589 0.8687 0.9719
3.2636 5.6649 0.8027 0.9740
2.4081 5.6702 0.7564 0.9755
0.9138 5.6794 0.7063 0.9771
0.2189 5.6836 0.6984 0.9773
-0.4706 5.6879 0.7008 0.9773
-1.9172 5.6968 0.7380 0.9761
-3.6319 5.7073 0.8306 0.9731
-4.6944 5.7138 0.9080 0.9706
-87.1486 24.8537 11.1271 0.6940
-58.3124 -28.0564 7.9455 0.7704
-32.7547 -34.5160 5.8426 0.8255
-25.6075 -34.5247 5.2779 0.8409
-19.6542 -34.5561 4.8812 0.8520
-15.3248 -36.6454 4.8771 0.8521
15.3470 -44.7811 5.8124 0.8263
29.0703 -45.1294 6.5913 0.8055
47.8211 -45.1300 8.0736 0.7672
51.6557 -38.0929 7.8806 0.7721
53.4599 -22.1830 7.1067 0.7919
56.0888 -15.6610 7.1503 0.7908
56.3119 -8.5822 6.9941 0.7949
53.0075 4.8288 6.5355 0.8069
48.1019 16.6339 6.2493 0.8146
35.2748 17.2129 4.8193 0.8537
6.7539 5.6435 1.0807 0.9652
4.1494 5.6595 0.8617 0.9721
3.1809 5.6654 0.7978 0.9742
-19.5334 5.8050 1.7828 0.9214
-26.2015 -34.5211 3.7916 0.8403
-21.3684 -36.6216 3.7095 0.8435
-11.8703 -40.3507 3.6798 0.8446
17.9236 -89.3067 7.9691 0.6937
35.7223 -43.9729 4.9566 0.7965
52.0982 -39.3159 5.7102 0.7695
56.0919 -16.3327 5.1112 0.7909
56.2708 -2.3228 4.9272 0.7976
36.2745 17.2068 3.5126 0.8511
6.9067 5.6425 0.7803 0.9648
5.4229 5.6517 0.6853 0.9690
4.2460 5.6589 0.6190 0.9720
3.2636 5.6649 0.5720 0.9741
2.4081 5.6702 0.5390 0.9756
1.6354 5.6749 0.5167 0.9766
-0.4706 5.6879 0.4993 0.9773
-1.1752 5.6922 0.5085 0.9769
-1.9172 5.6968 0.5259 0.9762
-3.6319 5.7073 0.5919 0.9732
-7.6838 5.7322 0.8387 0.9622
-4.9509 2.8341 0.4991 0.9774
-20.3732 5.8102 1.8535 0.9185
-58.2264 -28.0151 5.6531 0.7715
-25.7488 -34.7153 3.7814 0.8407
-19.6543 -34.5562 3.4781 0.8525
-15.3248 -36.6454 3.4751 0.8526
-11.8810 -42.1012 3.8272 0.8389
-12.4575 -80.2495 7.1050 0.7217
18.7496 -88.3467 7.9015 0.6958
15.2866 -44.6046 4.1252 0.8275
20.5429 -42.3959 4.1217 0.8277
47.9432 -45.2453 5.7674 0.7674
51.7553 -38.1663 5.6261 0.7724
56.0961 -15.6631 5.0955 0.7915
56.2324 -8.5700 4.9765 0.7958
56.1819 -1.6970 4.9175 0.7980
50.1124 4.5651 4.4024 0.8171
35.2748 17.2129 3.4340 0.8542
5.3048 5.6524 0.6782 0.9694
4.1494 5.6595 0.6140 0.9722
-19.5334 5.8050 1.0680 0.9216
-34.8181 5.8990 1.8507 0.8681
-33.4835 -34.5116 2.5200 0.8248
-20.6143 -27.1598 1.7869 0.8723
-20.1644 -34.5581 2.0969 0.8519
-14.9102 -34.5746 1.9733 0.8600
-10.4380 -35.4820 1.9383 0.8623
-12.9970 -78.0228 4.1453 0.7285
17.8908 -89.1429 4.7649 0.6948
14.8036 -44.8048 2.4730 0.8278
26.2575 -32.3220 2.1824 0.8464
28.2561 -27.2631 2.0578 0.8545
52.0982 -39.3159 3.4206 0.7699
52.1515 -30.2370 3.1593 0.7855
49.9927 -21.3956 2.8496 0.8043
61.1122 -10.0064 3.2454 0.7803
61.0626 -2.5206 3.2029 0.7829
49.8492 16.6232 2.7539 0.8102
36.2746 17.2068 2.1041 0.8514
6.8860 5.6257 0.4660 0.9650
5.4229 5.6517 0.4105 0.9691
3.2636 5.6649 0.3426 0.9742
2.4081 5.6702 0.3229 0.9756
-1.9138 5.6865 0.3144 0.9763
-3.6221 5.6919 0.3536 0.9733
-7.6838 5.7322 0.5024 0.9623
-4.9509 2.8341 0.2990 0.9774
-13.6888 5.7691 0.7785 0.9422
-20.3732 5.8102 1.1103 0.9186
-58.1533 -27.9799 3.3821 0.7722
-25.6075 -34.5247 2.2527 0.8418
-14.4600 -34.5774 1.9642 0.8606
-10.0450 -35.5952 1.9383 0.8623
-12.4575 -80.2495 4.2561 0.7223
22.0983 -45.6059 2.6559 0.8163
26.2619 -31.6067 2.1536 0.8482
51.5825 -21.4040 2.9268 0.7996
61.1595 -17.0769 3.3278 0.7754
61.1076 -9.3130 3.2395 0.7807
61.0582 -1.8443 3.2014 0.7830
51.5787 4.6986 2.7143 0.8127
35.2748 17.2129 2.0570 0.8545
6.7405 5.6322 0.4603 0.9654
5.3048 5.6524 0.4063 0.9694
4.1494 5.6595 0.3678 0.9723
-13.2708 5.7665 0.2526 0.9438
-19.5334 5.8050 0.3557 0.9217
-65.5867 -21.4689 1.2046 0.7587
-33.1520 -34.1700 0.8310 0.8266
-20.6237 -27.1722 0.5954 0.8724
-20.1643 -34.5581 0.6984 0.8521
-14.7366 -34.1721 0.6496 0.8617
-11.7216 -39.8452 0.7250 0.8469
-11.0682 -66.4441 1.1758 0.7638
29.8789 -90.4322 1.6624 0.6832
22.1402 -47.0103 0.9070 0.8123
26.4900 -42.1402 0.8688 0.8194
26.2575 -32.3220 0.7269 0.8465
47.2234 -27.3797 0.9528 0.8038
52.0917 10.6046 0.9279 0.8084
49.8492 16.6232 0.9172 0.8104
36.2746 17.2068 0.7008 0.8516
26.8657 16.9921 0.5549 0.8806
5.4229 5.6517 0.1367 0.9692
2.4081 5.6702 0.1075 0.9757
0.9138 5.6794 0.1004 0.9772
-1.1701 5.6677 0.1010 0.9771
-1.9091 5.6725 0.1045 0.9763
-3.6017 5.6599 0.1171 0.9735
-5.9962 5.7218 0.1447 0.9674
-32.3964 -34.1386 0.8215 0.8284
-25.6075 -34.5247 0.7503 0.8420
-14.2917 -34.1748 0.6466 0.8623
22.1482 -45.7088 0.8866 0.8161
26.2619 -31.6067 0.7173 0.8484
37.0230 -27.3022 0.8029 0.8319
25.6525 5.5183 0.4580 0.9003
48.1021 16.6340 0.8884 0.8158
35.2748 17.2129 0.6851 0.8547
5.3048 5.6524 0.1353 0.9695
4.1494 5.6595 0.1225 0.9723
3.1809 5.6654 0.1134 0.9743
-34.8181 5.8990 -0.6164 0.8682
-62.8622 2.9432 -1.0985 0.7774
-58.5475 -27.3764 -1.1281 0.7722
-23.6325 -24.3581 -0.5924 0.8730
-13.2286 -22.6714 -0.4582 0.9003
-7.6356 -25.9555 -0.4722 0.8974
-6.0201 -36.1396 -0.6395 0.8637
29.5837 -89.5385 -1.6460 0.6857
17.0910 -36.2893 -0.7002 0.8517
26.3547 -41.9249 -0.8644 0.8203
26.2575 -32.3220 -0.7269 0.8465
28.2561 -27.2631 -0.6854 0.8546
36.1915 -27.3119 -0.7914 0.8341
47.2234 -27.3797 -0.9528 0.8038
64.5942 -27.6445 -1.2264 0.7550
49.8492 16.6232 -0.9172 0.8104
5.4229 5.6517 -0.1367 0.9692
4.2460 5.6589 -0.1235 0.9721
3.2636 5.6649 -0.1141 0.9742
1.6354 5.6749 -0.1031 0.9766
0.2189 5.6836 -0.0993 0.9775
-0.4701 5.6810 -0.0995 0.9775
-1.1674 5.6542 -0.1008 0.9772
-3.5816 5.6283 -0.1164 0.9737
-5.9962 5.7218 -0.1447 0.9674
-13.6889 5.7691 -0.2593 0.9423
-95.3064 -8.1510 -1.6696 0.6820
-81.1395 -16.9858 -1.4470 0.7177
-68.7135 -43.9938 -1.4242 0.7215
-65.5207 -54.1352 -1.4835 0.7118
-22.8064 -24.0328 -0.5783 0.8759
-16.7790 -22.6221 -0.4916 0.8934
-19.6542 -34.5561 -0.6939 0.8530
-10.1073 -24.1691 -0.4573 0.9005
-7.5258 -26.6684 -0.4837 0.8951
23.2192 -67.7513 -1.2501 0.7509
17.5854 -36.2923 -0.7039 0.8510
66.5687 -27.6225 -1.2580 0.7495
48.1021 16.6340 -0.8884 0.8158
35.2748 17.2129 -0.6851 0.8547
7.2112 6.0255 -0.1640 0.9631
3.1809 5.6654 -0.1134 0.9743
-13.2708 5.7665 -0.7583 0.9437
-19.5334 5.8050 -1.0680 0.9216
-30.2829 5.1306 -1.6097 0.8842
-45.1439 2.1136 -2.3685 0.8344
-44.7769 -3.3311 -2.3531 0.8354
-45.3671 -14.8503 -2.5017 0.8260
-40.4841 -25.2931 -2.5017 0.8260
-23.5073 -24.2291 -1.7692 0.8735
-16.8359 -22.1818 -1.4594 0.8945
-10.3386 -23.9738 -1.3683 0.9007
-7.5335 -25.6085 -1.3990 0.8986
-5.7089 -34.2715 -1.8208 0.8701
19.1017 -40.5586 -2.3495 0.8356
23.8593 -37.9553 -2.3495 0.8356
26.1534 -32.1939 -2.1738 0.8469
28.1468 -27.1576 -2.0498 0.8550
35.7852 -27.0056 -2.3495 0.8356
47.1084 -7.7135 -2.5017 0.8260
21.1792 7.0627 -1.1700 0.9145
21.2249 10.0680 -1.2311 0.9102
7.2716 5.9407 -0.4921 0.9631
5.4229 5.6517 -0.4105 0.9691
4.2460 5.6589 -0.3708 0.9721
3.2636 5.6649 -0.3426 0.9742
2.4081 5.6702 -0.3229 0.9756
0.2189 5.6836 -0.2981 0.9775
-0.4701 5.6810 -0.2987 0.9774
-1.1661 5.6483 -0.3023 0.9772
-1.8997 5.6446 -0.3121 0.9764
-2.6863 5.6230 -0.3266 0.9753
-3.5617 5.5971 -0.3477 0.9738
-4.6944 5.7138 -0.3876 0.9708
-5.9962 5.7218 -0.4344 0.9673
-7.6838 5.7322 -0.5024 0.9623
-13.6888 5.7691 -0.7785 0.9422
-45.1389 1.6134 -2.3671 0.8345
-44.7102 -3.8238 -2.3517 0.8355
-43.8804 -9.1859 -2.3495 0.8356
-43.0157 -20.6966 -2.5017 0.8260
-36.7998 -30.4052 -2.5017 0.8260
-16.5030 -22.2499 -1.4518 0.8950
-12.8425 -22.5797 -1.3614 0.9012
-10.0217 -23.9644 -1.3613 0.9012
-5.7323 -36.9271 -1.9584 0.8610
9.9101 -46.6957 -2.5017 0.8260
15.4760 -45.1574 -2.5017 0.8260
19.5491 -40.3449 -2.3495 0.8356
24.2776 -37.6891 -2.3495 0.8356
28.7811 -27.1615 -2.0740 0.8534
45.9771 -12.8377 -2.5017 0.8260
47.7140 -1.4412 -2.5017 0.8260
25.6931 5.5271 -1.3773 0.9001
21.1829 7.3252 -1.1746 0.9141
5.3048 5.6524 -0.4063 0.9694
4.1494 5.6595 -0.3678 0.9723
3.1809 5.6654 -0.3405 0.9743
-26.4778 4.4859 -2.3495 0.8978
-28.0415 -2.0862 -2.4601 0.8932
-27.1759 -8.8957 -2.5017 0.8915
-25.9029 -12.1120 -2.5017 0.8915
-18.7002 -19.2744 -2.3495 0.8978
-10.1653 -23.5719 -2.2459 0.9021
-4.4127 -26.4901 -2.3495 0.8978
15.2181 -24.2089 -2.5017 0.8915
17.2322 -21.2123 -2.3910 0.8961
24.7376 -14.3427 -2.5017 0.8915
27.4546 -7.9942 -2.5017 0.8915
28.2190 -4.6205 -2.5017 0.8915
26.7697 2.1404 -2.3495 0.8978
26.3154 5.3572 -2.3495 0.8978
21.5436 7.1842 -1.9869 0.9128
21.6862 13.7162 -2.2449 0.9021
5.4229 5.6517 -0.6853 0.9690
2.4081 5.6702 -0.5390 0.9756
1.6354 5.6749 -0.5167 0.9766
0.9138 5.6794 -0.5033 0.9772
-0.4701 5.6810 -0.4987 0.9774
-1.8950 5.6307 -0.5198 0.9764
-3.5420 5.5661 -0.5772 0.9739
-7.6838 5.7322 -0.8387 0.9622
-13.6888 5.7691 -1.2996 0.9421
-20.2281 5.7688 -1.8403 0.9190
-26.8380 0.9593 -2.3495 0.8978
-28.4359 -2.4320 -2.4969 0.8917
-27.9881 -5.8590 -2.5017 0.8915
-27.0759 -9.1957 -2.5017 0.8915
-24.0819 -15.4184 -2.5017 0.8915
-22.0440 -18.2134 -2.5017 0.8915
-12.6556 -22.2511 -2.2396 0.9023
-9.9134 -23.7055 -2.2480 0.9020
-4.1195 -26.5373 -2.3495 0.8978
2.5154 -28.4840 -2.5017 0.8915
5.9364 -27.9718 -2.5017 0.8915
9.2705 -27.0503 -2.5017 0.8915
15.4849 -24.0392 -2.5017 0.8915
23.0020 -16.9625 -2.5004 0.8916
24.8947 -14.0682 -2.5017 0.8915
27.5414 -7.6901 -2.5017 0.8915
28.2684 -4.3082 -2.5017 0.8915
26.7444 2.4363 -2.3495 0.8978
21.5487 7.4517 -1.9948 0.9125
21.6165 10.5482 -2.1043 0.9079
7.2112 6.0255 -0.8221 0.9630
5.3048 5.6524 -0.6782 0.9694
3.1809 5.6654 -0.5684 0.9742
-11.9544 5.1946 -1.6004 0.9488
-18.8665 3.1964 -2.3495 0.9258
-20.3188 -1.5116 -2.5017 0.9212
-18.4568 -8.6303 -2.5017 0.9212
-14.1878 -14.6234 -2.5017 0.9212
-10.2501 -17.5669 -2.4973 0.9213
-7.9920 -18.5323 -2.4780 0.9219
-5.7468 -19.5351 -2.5002 0.9212
-3.3479 -20.0980 -2.5017 0.9212
6.3920 -19.3463 -2.5017 0.9212
10.8435 -17.2498 -2.5017 0.9212
17.6265 -10.2197 -2.5017 0.9212
18.7316 -8.0166 -2.5017 0.9212
20.3576 -0.8403 -2.5017 0.9212
19.8797 1.5895 -2.4487 0.9228
18.7507 3.8172 -2.3495 0.9258
18.1526 6.0534 -2.3495 0.9258
8.9369 5.6524 -1.2984 0.9583
7.2716 5.9407 -1.1529 0.9629
4.2460 5.6589 -0.8687 0.9719
2.4081 5.6702 -0.7564 0.9755
1.6354 5.6749 -0.7251 0.9765
0.9138 5.6794 -0.7063 0.9771
0.2189 5.6836 -0.6984 0.9773
-1.1661 5.6483 -0.7082 0.9770
-1.8903 5.6168 -0.7277 0.9764
-2.6728 5.5946 -0.7613 0.9753
-4.6944 5.7138 -0.9080 0.9706
-7.6838 5.7322 -1.1771 0.9621
-4.9507 2.8340 -0.7004 0.9773
-18.4016 5.2479 -2.3495 0.9258
-19.2926 -6.5523 -2.5017 0.9212
-15.7071 -12.9777 -2.5017 0.9212
-14.0252 -14.7794 -2.5017 0.9212
-12.1380 -16.3648 -2.5017 0.9212
4.2299 -19.9310 -2.5017 0.9212
6.6056 -19.2744 -2.5017 0.9212
11.0336 -17.1288 -2.5017 0.9212
14.8181 -13.9843 -2.5017 0.9212
17.7384 -10.0242 -2.5017 0.9212
20.3656 -0.6151 -2.5017 0.9212
19.0564 1.7360 -2.3495 0.9258
18.0846 6.2538 -2.3495 0.9258
8.7113 5.6456 -1.2746 0.9590
5.3048 5.6524 -0.9518 0.9692
-14.2197 4.2258 -2.3495 0.9417
-14.6259 2.4780 -2.3495 0.9417
-15.4950 -3.0653 -2.5017 0.9380
-15.0115 -4.9138 -2.5017 0.9380
-14.3083 -6.6905 -2.5017 0.9380
-12.2872 -9.9255 -2.5017 0.9380
-9.5495 -12.5816 -2.5017 0.9380
-7.9604 -13.6427 -2.5017 0.9380
-4.4577 -15.1532 -2.5017 0.9380
-2.5954 -15.5806 -2.5017 0.9380
-0.6951 -15.7799 -2.5017 0.9380
4.9553 -14.9978 -2.5017 0.9380
6.7300 -14.2897 -2.5017 0.9380
9.9594 -12.2597 -2.5017 0.9380
11.3669 -10.9674 -2.5017 0.9380
12.6080 -9.5146 -2.5017 0.9380
13.6646 -7.9226 -2.5017 0.9380
14.5213 -6.2147 -2.5017 0.9380
15.1654 -4.4158 -2.5017 0.9380
14.5361 2.9592 -2.3495 0.9417
13.4029 6.3576 -2.3495 0.9417
5.4229 5.6517 -1.2406 0.9688
4.2460 5.6589 -1.1205 0.9718
3.2636 5.6649 -1.0355 0.9739
2.4081 5.6702 -0.9757 0.9754
-0.4701 5.6810 -0.9029 0.9772
-1.1661 5.6483 -0.9135 0.9769
-1.8895 5.6144 -0.9382 0.9763
-4.9506 2.8339 -0.9035 0.9772
-14.6524 2.3161 -2.3495 0.9417
-15.7852 0.5642 -2.5017 0.9380
-15.7378 -1.3460 -2.5017 0.9380
-15.4601 -3.2364 -2.5017 0.9380
1.3895 -15.7340 -2.5017 0.9380
3.2791 -15.4511 -2.5017 0.9380
8.5536 -13.2788 -2.5017 0.9380
10.0944 -12.1488 -2.5017 0.9380
12.7124 -9.3746 -2.5017 0.9380
14.5891 -6.0537 -2.5017 0.9380
15.7880 -0.4769 -2.5017 0.9380
15.3200 1.3956 -2.4365 0.9396
14.0197 4.8481 -2.3495 0.9417
13.3317 6.5055 -2.3495 0.9417
12.4547 8.0716 -2.3507 0.9417
4.1494 5.6595 -1.1115 0.9720
-12.8562 0.6019 -2.5017 0.9489
-12.8348 -0.9549 -2.5017 0.9489
-12.2316 -4.0039 -2.5017 0.9489
-4.9830 -2.3300 -1.0692 0.9778
-4.6292 -2.8922 -1.0610 0.9780
-4.4463 -3.5916 -1.1110 0.9770
-8.9620 -9.2372 -2.5017 0.9489
-6.4863 -11.1163 -2.5017 0.9489
-5.0965 -11.8181 -2.5017 0.9489
-3.6322 -12.3471 -2.5017 0.9489
-2.1148 -12.6953 -2.5017 0.9489
4.0377 -12.2205 -2.5017 0.9489
12.7011 -2.0797 -2.5017 0.9489
11.8443 2.4112 -2.3495 0.9519
10.2155 6.4611 -2.3495 0.9519
7.2716 5.9407 -1.8252 0.9625
5.4229 5.6517 -1.5225 0.9686
2.4081 5.6702 -1.1975 0.9752
0.9138 5.6794 -1.1182 0.9768
-0.4686 5.6634 -1.1046 0.9771
-1.1617 5.6266 -1.1168 0.9769
-1.8795 5.5848 -1.1454 0.9763
-3.4862 5.4784 -1.2622 0.9739
-4.6944 5.7138 -1.4374 0.9703
-5.9962 5.7218 -1.6111 0.9668
-7.6838 5.7322 -1.8634 0.9617
-11.1385 4.6943 -2.3495 0.9519
-11.9390 1.8872 -2.3495 0.9519
-12.8234 -1.0967 -2.5017 0.9489
-12.5972 -2.6371 -2.5017 0.9489
-12.1866 -4.1389 -2.5017 0.9489
-4.9348 -2.3743 -1.0645 0.9779
-9.9218 -8.1977 -2.5017 0.9489
-8.8593 -9.3357 -2.5017 0.9489
-7.6672 -10.3371 -2.5017 0.9489
-6.3629 -11.1873 -2.5017 0.9489
-4.9655 -11.8738 -2.5017 0.9489
-3.4955 -12.3865 -2.5017 0.9489
-1.9743 -12.7179 -2.5017 0.9489
-0.4241 -12.8632 -2.5017 0.9489
1.1322 -12.8204 -2.5017 0.9489
2.6719 -12.5898 -2.5017 0.9489
4.1726 -12.1751 -2.5017 0.9489
5.6121 -11.5822 -2.5017 0.9489
6.9696 -10.8198 -2.5017 0.9489
8.2251 -9.8991 -2.5017 0.9489
9.3602 -8.8334 -2.5017 0.9489
11.2049 -6.3320 -2.5017 0.9489
11.8875 -4.9327 -2.5017 0.9489
12.7233 -1.9391 -2.5017 0.9489
12.6465 1.1521 -2.4684 0.9496
11.8169 2.5420 -2.3495 0.9519
11.4235 3.9503 -2.3495 0.9519
7.2112 6.0255 -1.8266 0.9624
5.3048 5.6524 -1.5068 0.9689
4.1494 5.6595 -1.3641 0.9718
3.1809 5.6654 -1.2630 0.9739
-9.7552 2.8991 -2.3495 0.9591
-10.0339 1.7000 -2.3495 0.9591
-10.8243 0.5068 -2.5017 0.9565
-10.8063 -0.8039 -2.5017 0.9565
-4.0429 -3.2658 -1.1999 0.9789
-7.5456 -7.7773 -2.5017 0.9565
-6.5513 -8.6315 -2.5017 0.9565
-5.4611 -9.3594 -2.5017 0.9565
-4.2910 -9.9503 -2.5017 0.9565
-1.7805 -10.6889 -2.5017 0.9565
-0.4769 -10.8256 -2.5017 0.9565
0.8338 -10.8040 -2.5017 0.9565
3.3995 -10.2891 -2.5017 0.9565
5.7670 -9.1741 -2.5017 0.9565
9.3744 -5.4352 -2.5017 0.9565
9.9622 -4.2635 -2.5017 0.9565
10.8269 -0.4469 -2.5017 0.9565
10.7526 0.8598 -2.4904 0.9567
9.1949 4.3616 -2.3495 0.9591
8.6009 5.4399 -2.3495 0.9591
5.4229 5.6517 -1.8083 0.9684
3.2636 5.6649 -1.5094 0.9735
2.4081 5.6702 -1.4222 0.9750
1.6354 5.6749 -1.3635 0.9760
-0.4686 5.6634 -1.3120 0.9769
-1.1519 5.5792 -1.3152 0.9769
-1.8633 5.5365 -1.3487 0.9763
-3.4323 5.3937 -1.4760 0.9741
-7.3112 3.0813 -1.8317 0.9680
-9.7867 2.7910 -2.3495 0.9591
-10.0641 1.5908 -2.3523 0.9590
-10.6062 -2.2203 -2.5017 0.9565
-6.2414 -2.1197 -1.5218 0.9733
-4.0301 -3.3298 -1.2069 0.9788
-7.4591 -7.8602 -2.5017 0.9565
-2.9430 -10.4288 -2.5017 0.9565
2.2496 -10.6001 -2.5017 0.9565
4.7252 -9.7517 -2.5017 0.9565
5.8681 -9.1098 -2.5017 0.9565
6.9251 -8.3346 -2.5017 0.9565
8.7212 -6.4314 -2.5017 0.9565
10.4369 -2.9142 -2.5017 0.9565
10.7186 0.9764 -2.4848 0.9568
9.6181 3.3260 -2.3495 0.9591
9.1461 4.4630 -2.3495 0.9591
5.3048 5.6524 -1.7896 0.9687
4.1494 5.6595 -1.6201 0.9716
-8.0421 3.4945 -2.3495 0.9643
-8.4052 2.4979 -2.3495 0.9643
-9.1591 -1.8119 -2.5017 0.9621
-4.6525 -2.1755 -1.3762 0.9790
-3.9543 -2.4705 -1.2493 0.9809
-3.7548 -3.0331 -1.2934 0.9802
-2.6350 -8.9570 -2.5017 0.9621
-0.4109 -9.3275 -2.5017 0.9621
0.7184 -9.3089 -2.5017 0.9621
3.9781 -8.4467 -2.5017 0.9621
4.9689 -7.9045 -2.5017 0.9621
5.8870 -7.2467 -2.5017 0.9621
6.7189 -6.4828 -2.5017 0.9621
7.4526 -5.6241 -2.5017 0.9621
8.5835 -3.6735 -2.5017 0.9621
8.9643 -2.6102 -2.5017 0.9621
9.3286 -0.3851 -2.5017 0.9621
9.2954 0.7433 -2.4986 0.9621
8.3182 2.7739 -2.3495 0.9643
7.9224 3.7580 -2.3495 0.9643
7.4107 4.6871 -2.3495 0.9643
3.2636 5.6649 -1.7518 0.9733
0.9138 5.6794 -1.5414 0.9765
0.2189 5.6836 -1.5241 0.9767
-1.8471 5.4883 -1.5516 0.9763
-3.3641 5.2865 -1.6790 0.9744
-5.9962 5.7218 -2.2208 0.9663
-7.0283 5.2432 -2.3495 0.9643
-4.9505 2.8338 -1.5284 0.9767
-9.3306 0.3335 -2.5017 0.9621
-4.5431 -2.1858 -1.3509 0.9793
-6.4269 -6.7725 -2.5017 0.9621
-4.6159 -8.1157 -2.5017 0.9621
-3.6022 -8.6137 -2.5017 0.9621
-1.4322 -9.2261 -2.5017 0.9621
5.0560 -7.8491 -2.5017 0.9621
5.9668 -7.1811 -2.5017 0.9621
7.5143 -5.5413 -2.5017 0.9621
8.1284 -4.5934 -2.5017 0.9621
8.6236 -3.5783 -2.5017 0.9621
9.2300 -1.4067 -2.5017 0.9621
9.3323 -0.2819 -2.5017 0.9621
8.5724 1.8441 -2.3495 0.9643
7.3584 4.7688 -2.3495 0.9643
