ply
format ascii 1.0
element vertex 613
property float32 x
property float32 y
property float32 z
property float32 I
end_header
26.2252 16.7686 8.3407 0.8791
4.2214 5.6568 1.8913 0.9712
2.4010 5.6702 1.6499 0.9748
0.2260 5.6836 1.5241 0.9767
-0.4591 5.6878 1.5290 0.9766
-1.8946 5.6966 1.6086 0.9754
-20.0569 24.7069 8.5270 0.8765
-22.9137 22.1580 8.5409 0.8763
-25.5767 19.3776 8.5980 0.8756
-47.9868 -9.4049 13.1026 0.8167
-68.4415 -22.2113 19.2804 0.7423
-59.7984 -27.7204 17.6608 0.7611
-20.9393 -27.2246 9.2029 0.8674
-18.0458 -30.4240 9.4782 0.8637
-19.3448 -43.8956 12.8533 0.8198
-12.9266 -42.5675 11.9202 0.8317
21.2635 -46.7577 13.7633 0.8084
49.0104 -29.5543 15.3352 0.7890
84.1658 15.2278 22.9183 0.7017
36.3361 16.2063 10.6607 0.8481
27.9689 16.7579 8.7365 0.8737
23.5311 23.2946 8.8721 0.8719
2.5974 5.6690 1.6709 0.9745
1.8135 5.6738 1.5961 0.9756
1.0867 5.6783 1.5491 0.9763
-1.7120 5.6955 1.5936 0.9757
-2.4929 5.7003 1.6671 0.9746
-3.3625 5.7056 1.7746 0.9729
-4.3674 5.7118 1.9266 0.9707
-24.5636 19.7604 8.4472 0.8776
-31.7461 19.7788 10.0222 0.8565
48.8123 16.6295 11.9052 0.8092
33.9887 16.3606 8.7087 0.8565
4.2230 5.6590 1.6302 0.9714
2.4010 5.6702 1.4216 0.9750
1.6336 5.6749 1.3634 0.9760
-0.4591 5.6878 1.3174 0.9768
-1.1586 5.6921 1.3411 0.9764
-2.6936 5.7015 1.4558 0.9744
-3.5909 5.7070 1.5567 0.9727
-33.9281 19.7922 9.0683 0.8511
-67.7681 -21.9928 16.4488 0.7464
-61.1856 -28.3634 15.5698 0.7582
-19.4404 -44.1126 11.1293 0.8205
-13.1863 -43.4229 10.4770 0.8300
49.0735 -48.8562 15.9869 0.7526
48.4261 -29.2019 13.0555 0.7928
83.6187 15.1289 19.6183 0.7055
49.1071 15.1508 11.8646 0.8098
28.0845 16.8271 7.5586 0.8742
24.1030 18.7093 7.0443 0.8823
24.4806 24.2345 7.9528 0.8681
4.4838 5.6574 1.6666 0.9708
3.4717 5.6636 1.5337 0.9731
2.5974 5.6690 1.4396 0.9747
-3.3625 5.7056 1.5290 0.9732
-5.5800 5.7193 1.8447 0.9677
-24.5636 19.7604 7.2782 0.8786
-31.7461 19.7788 8.6352 0.8577
52.3506 11.0531 10.4003 0.8041
33.9887 16.3606 7.3323 0.8575
26.2252 16.7686 6.0507 0.8809
24.0096 19.7822 6.0471 0.8809
24.5464 25.7557 6.9159 0.8650
4.2230 5.6590 1.3725 0.9716
3.2497 5.6650 1.2695 0.9737
1.6336 5.6749 1.1479 0.9762
0.9165 5.6787 1.1181 0.9768
0.2260 5.6836 1.1056 0.9771
-0.4591 5.6878 1.1092 0.9770
-1.8946 5.6966 1.1669 0.9758
-4.6382 5.7135 1.4305 0.9705
-5.9165 5.7213 1.5998 0.9670
-7.5650 5.7315 1.8449 0.9621
-67.1509 -21.7925 13.7230 0.7500
-60.5704 -28.0783 12.9772 0.7618
-11.3681 -19.1657 4.3315 0.9132
-13.1863 -43.4229 8.8212 0.8312
27.6132 -45.3353 10.3182 0.8055
39.0845 -49.6031 12.2753 0.7731
48.8718 -48.6553 13.4049 0.7550
49.0323 -29.5675 11.1297 0.7919
49.2073 15.1817 10.0098 0.8107
36.3362 16.2064 7.7337 0.8503
3.4717 5.6636 1.2913 0.9733
2.5974 5.6690 1.2121 0.9749
1.8135 5.6738 1.1578 0.9760
1.0867 5.6783 1.1238 0.9767
0.3917 5.6826 1.1072 0.9771
-0.9870 5.6910 1.1227 0.9767
-1.7120 5.6955 1.1560 0.9761
-5.5800 5.7193 1.5532 0.9680
-24.5637 19.7604 6.1279 0.8794
53.2201 -14.9015 8.7534 0.7995
53.3469 -8.2118 8.5488 0.8036
53.4761 4.7077 8.5025 0.8046
33.9887 16.3606 5.9745 0.8583
24.0096 19.7822 4.9273 0.8816
4.2230 5.6590 1.1184 0.9718
0.9165 5.6787 0.9110 0.9770
-1.1586 5.6921 0.9200 0.9767
-1.8946 5.6966 0.9508 0.9760
-2.6936 5.7015 0.9987 0.9748
-5.9165 5.7213 1.3036 0.9672
-9.8490 5.7455 1.8060 0.9549
-88.8671 26.2822 14.6778 0.6871
-89.0977 4.1914 14.1273 0.6968
-90.4486 -17.7269 14.5982 0.6885
-61.2383 -28.3879 10.6907 0.7608
-28.1350 -36.5801 7.3092 0.8295
-11.3662 -19.1626 3.5288 0.9137
-13.1863 -43.4229 7.1876 0.8321
-15.4959 -87.8724 14.1324 0.6967
13.9509 -44.0774 7.3225 0.8292
49.2814 -29.7177 9.1147 0.7921
53.2098 -16.5819 8.8273 0.7979
53.2515 -9.7905 8.5756 0.8031
53.4269 -3.2927 8.4780 0.8051
53.3711 9.6562 8.5904 0.8028
49.1071 15.1508 8.1396 0.8121
3.4717 5.6636 1.0521 0.9735
2.5974 5.6690 0.9876 0.9751
-0.9870 5.6910 0.9148 0.9769
-3.3625 5.7056 1.0489 0.9735
-4.3674 5.7118 1.1388 0.9713
-9.2156 5.7416 1.7197 0.9570
53.2613 -8.1987 6.6167 0.8048
52.3504 11.0530 6.5695 0.8060
48.8124 16.6296 6.3317 0.8124
33.9887 16.3607 4.6316 0.8590
26.3802 16.8677 3.8446 0.8814
4.2230 5.6590 0.8670 0.9719
-1.1586 5.6921 0.7132 0.9769
-4.6382 5.7135 0.9036 0.9708
-7.5650 5.7315 1.1654 0.9625
-13.3482 5.7670 1.7854 0.9431
-90.3861 4.2520 11.1103 0.6944
-94.0320 -18.4292 11.7653 0.6797
-74.9056 -34.7235 10.1374 0.7170
-26.5764 -34.5537 5.3524 0.8389
-11.3524 -19.1393 2.7323 0.9142
17.1161 -90.8272 11.3485 0.6890
20.2402 -44.5075 6.0034 0.8212
26.2790 -33.3514 5.2135 0.8427
48.8820 -38.1658 7.6147 0.7789
49.2814 -29.7177 7.0660 0.7930
49.8309 -22.3946 6.7080 0.8024
53.2098 -16.5819 6.8432 0.7988
53.2916 -3.2844 6.5558 0.8064
53.3711 9.6563 6.6595 0.8037
36.3362 16.2064 4.8852 0.8519
28.1341 16.8569 4.0270 0.8762
4.4838 5.6574 0.8864 0.9713
2.5974 5.6690 0.7657 0.9752
1.8135 5.6738 0.7314 0.9763
0.3917 5.6826 0.6994 0.9773
-2.4929 5.7003 0.7639 0.9752
-4.3674 5.7118 0.8828 0.9714
-24.5637 19.7604 3.8708 0.8807
53.3612 -8.2141 4.7235 0.8051
53.3084 -1.7312 4.6663 0.8072
50.2793 10.6158 4.4958 0.8136
16.3913 5.5842 1.5150 0.9328
26.2252 16.7686 2.7233 0.8825
3.2497 5.6650 0.5714 0.9741
1.6336 5.6749 0.5167 0.9766
0.2260 5.6836 0.4976 0.9774
-1.8946 5.6966 0.5252 0.9762
-4.6382 5.7135 0.6438 0.9709
-5.9165 5.7213 0.7201 0.9675
-75.6029 -35.0468 7.2905 0.7156
-28.1350 -36.5801 4.0375 0.8309
-16.1474 -36.6403 3.5031 0.8515
-13.1864 -43.4229 3.9703 0.8334
10.6600 -56.5674 5.0361 0.7936
35.5909 -45.1693 5.0312 0.7938
48.8820 -38.1658 5.4258 0.7796
47.3956 -21.3002 4.5461 0.8117
53.2171 -16.5842 4.8767 0.7995
53.3514 -9.8089 4.7459 0.8043
53.3915 -3.2905 4.6800 0.8067
24.0025 18.6313 2.6583 0.8851
23.5312 23.2946 2.8969 0.8755
4.4838 5.6574 0.6316 0.9714
3.4717 5.6636 0.5812 0.9737
2.5974 5.6690 0.5456 0.9753
1.0867 5.6783 0.5058 0.9771
-0.2928 5.6868 0.4982 0.9774
-0.9870 5.6910 0.5053 0.9771
-1.7120 5.6955 0.5203 0.9764
-2.4929 5.7003 0.5443 0.9753
-4.3674 5.7118 0.6291 0.9715
-24.5637 19.7604 2.7581 0.8811
-9.2156 5.7416 0.9499 0.9573
58.1838 -1.8895 3.0509 0.7920
16.3913 5.5842 0.9075 0.9330
33.9887 16.3607 1.9769 0.8598
26.2252 16.7686 1.6313 0.8828
23.5399 24.6996 1.7882 0.8723
4.4133 5.9141 0.3867 0.9709
2.4010 5.6702 0.3227 0.9756
1.6336 5.6749 0.3095 0.9766
-0.4591 5.6878 0.2991 0.9774
-1.1586 5.6921 0.3044 0.9770
-1.8946 5.6966 0.3146 0.9762
-3.5861 5.6994 0.3529 0.9734
-7.5650 5.7315 0.4974 0.9627
-34.8275 5.8809 1.8511 0.8681
-26.5764 -34.5537 2.2846 0.8398
-15.2361 -34.5725 1.9800 0.8596
-11.5914 -65.7311 3.4980 0.7654
11.1375 -59.1017 3.1519 0.7859
14.5951 -46.1127 2.5348 0.8239
27.3790 -27.2577 2.0247 0.8566
48.8820 -38.1658 3.2502 0.7800
58.1950 -3.5865 3.0557 0.7917
58.1490 3.4184 3.0527 0.7919
18.0663 5.5739 0.9909 0.9271
36.3362 16.2064 2.0851 0.8527
27.9689 16.7579 1.7088 0.8776
3.9971 6.5208 0.4008 0.9698
2.5974 5.6690 0.3268 0.9753
0.3917 5.6826 0.2985 0.9774
-1.7120 5.6955 0.3117 0.9765
-3.3579 5.6980 0.3466 0.9739
-5.5735 5.7126 0.4183 0.9685
-9.2156 5.7416 0.5690 0.9574
79.5883 -22.2844 1.4426 0.7185
79.7582 7.0215 1.3976 0.7259
24.5464 25.7557 0.6210 0.8673
4.4219 5.9255 0.1291 0.9709
3.2497 5.6650 0.1140 0.9742
1.6336 5.6749 0.1031 0.9767
0.9165 5.6787 0.1004 0.9773
0.2260 5.6836 0.0993 0.9775
-0.4591 5.6878 0.0996 0.9774
-2.6936 5.7015 0.1101 0.9751
-3.5787 5.6876 0.1173 0.9735
-4.6197 5.6907 0.1279 0.9711
-5.8709 5.6773 0.1426 0.9679
-13.2803 5.7377 0.2525 0.9438
-10.3057 3.0479 0.1876 0.9579
-34.8275 5.8809 0.6165 0.8682
-73.9849 -34.2967 1.4234 0.7216
-15.0587 -34.1701 0.6518 0.8612
-11.8218 -67.0375 1.1882 0.7616
23.3443 -38.3266 0.7833 0.8357
27.3790 -27.2577 0.6744 0.8568
48.7825 -38.0881 1.0803 0.7807
37.6183 -22.6846 0.7668 0.8388
61.3927 -27.5906 1.1749 0.7639
79.7541 4.6884 1.3945 0.7264
39.7762 7.1966 0.7056 0.8507
18.0371 5.5649 0.3295 0.9273
23.6790 10.5611 0.4526 0.9015
23.7008 14.2006 0.4823 0.8954
2.5974 5.6690 0.1088 0.9754
1.8135 5.6738 0.1040 0.9765
1.0867 5.6783 0.1009 0.9771
-0.2928 5.6868 0.0994 0.9775
-2.4929 5.7003 0.1086 0.9754
-3.3579 5.6980 0.1154 0.9739
-24.5637 19.7604 0.5503 0.8815
52.3504 11.0530 -0.9339 0.8073
26.2253 16.7686 -0.5433 0.8829
24.5464 25.7557 -0.6210 0.8673
4.4219 5.9255 -0.1291 0.9709
3.2497 5.6650 -0.1140 0.9742
0.9165 5.6787 -0.1004 0.9773
0.2260 5.6836 -0.0993 0.9775
-0.4591 5.6878 -0.0996 0.9774
-1.1586 5.6921 -0.1014 0.9770
-1.8946 5.6966 -0.1048 0.9763
-2.6936 5.7015 -0.1101 0.9751
-5.8324 5.6401 -0.1416 0.9681
-9.8490 5.7455 -0.1990 0.9554
-13.2057 5.7055 -0.2511 0.9441
-65.7346 3.0923 -1.1487 0.7685
-98.1738 -7.2054 -1.7182 0.6745
-83.8454 -27.2103 -1.5387 0.7028
-69.3005 -55.4265 -1.5489 0.7012
-22.3879 -22.8171 -0.5580 0.8800
-17.0208 -22.1299 -0.4873 0.8943
-11.3491 -19.1338 -0.3883 0.9148
-11.1436 -25.2862 -0.4823 0.8953
-9.2538 -30.4730 -0.5559 0.8804
18.2045 -57.5164 -1.0530 0.7856
23.4003 -29.6979 -0.6600 0.8596
34.9710 -27.3044 -0.7744 0.8374
86.2336 5.0693 -1.5078 0.7078
38.8414 7.0274 -0.6890 0.8539
17.8978 5.5220 -0.3269 0.9278
24.0025 18.6313 -0.5304 0.8855
24.4806 24.2345 -0.6012 0.8713
3.9972 6.5209 -0.1335 0.9699
1.8135 5.6738 -0.1040 0.9765
0.3917 5.6826 -0.0994 0.9775
-0.2928 5.6868 -0.0994 0.9775
-24.5637 19.7604 -0.5503 0.8815
45.9686 -12.8711 -2.5018 0.8260
47.1809 -7.2627 -2.5018 0.8260
47.7114 -1.5494 -2.5018 0.8260
44.6597 3.9316 -2.3496 0.8356
43.9693 9.2835 -2.3551 0.8353
15.8686 5.4062 -0.8786 0.9351
18.1677 8.7451 -1.0567 0.9224
18.2301 11.6564 -1.1340 0.9170
18.3907 15.1526 -1.2488 0.9090
24.0432 25.2277 -1.8264 0.8697
4.4219 5.9255 -0.3875 0.9708
3.2497 5.6650 -0.3423 0.9742
2.4010 5.6702 -0.3227 0.9756
0.9165 5.6787 -0.3015 0.9772
0.2260 5.6836 -0.2981 0.9775
-0.4591 5.6878 -0.2991 0.9774
-1.1586 5.6921 -0.3044 0.9770
-1.8946 5.6966 -0.3146 0.9762
-2.6936 5.7015 -0.3305 0.9751
-3.5787 5.6876 -0.3522 0.9734
-7.5650 5.7315 -0.4974 0.9627
-9.8490 5.7455 -0.5976 0.9554
-44.6923 2.1025 -2.3448 0.8359
-44.7121 -3.2816 -2.3496 0.8356
-43.3094 -20.0767 -2.5018 0.8260
-40.5877 -25.1280 -2.5018 0.8260
-16.8615 -21.9228 -1.4494 0.8951
-11.3440 -19.1251 -1.1654 0.9148
-9.2355 -30.4124 -1.6657 0.8805
-2.5899 -47.6662 -2.5018 0.8260
3.1479 -47.6326 -2.5018 0.8260
8.8402 -46.9109 -2.5018 0.8260
18.5590 -40.8107 -2.3496 0.8356
23.2434 -38.1610 -2.3417 0.8361
25.3268 -25.2146 -1.8730 0.8666
37.7816 -22.7831 -2.3122 0.8380
45.5748 -14.2026 -2.5018 0.8260
46.9496 -8.6319 -2.5018 0.8260
47.6462 -2.9364 -2.5018 0.8260
44.7551 2.6310 -2.3496 0.8356
38.8214 7.0238 -2.0676 0.8538
18.2133 10.9127 -1.1127 0.9185
18.3719 14.2607 -1.2189 0.9111
2.5974 5.6690 -0.3268 0.9753
1.8135 5.6738 -0.3122 0.9764
-0.2928 5.6868 -0.2984 0.9774
-0.9870 5.6910 -0.3027 0.9771
-2.4929 5.7003 -0.3261 0.9754
-3.3579 5.6980 -0.3466 0.9739
-24.2652 19.5203 -1.6321 0.8827
26.7522 2.3551 -2.3496 0.8978
26.2764 5.5479 -2.3496 0.8978
19.8924 9.5754 -1.9315 0.9152
18.6785 11.9432 -1.9397 0.9148
18.7847 15.4773 -2.1294 0.9069
18.8805 19.8107 -2.3943 0.8959
1.6336 5.6749 -0.5167 0.9766
-2.6936 5.7015 -0.5517 0.9750
-3.5787 5.6876 -0.5879 0.9734
-5.7953 5.6042 -0.7053 0.9681
-7.5650 5.7315 -0.8304 0.9626
-9.8490 5.7455 -0.9976 0.9552
-12.9883 5.6115 -1.2379 0.9448
-28.5186 -2.0931 -2.5018 0.8915
-27.1989 -8.8268 -2.5018 0.8915
-25.9434 -12.0264 -2.5018 0.8915
-22.3314 -17.8606 -2.5018 0.8915
-18.8087 -19.1692 -2.3496 0.8978
-16.3729 -21.2874 -2.3496 0.8978
-11.2606 -18.9846 -1.9311 0.9152
-7.8035 -25.6969 -2.3496 0.8978
-1.5514 -28.5532 -2.5018 0.8915
1.8803 -28.4517 -2.4946 0.8918
8.6288 -27.2623 -2.5018 0.8915
11.8374 -26.0301 -2.5018 0.8915
13.9701 -22.9361 -2.3496 0.8978
16.6211 -21.0942 -2.3496 0.8978
26.0824 -11.7218 -2.5018 0.8915
27.3004 -8.5077 -2.5018 0.8915
28.5411 -1.7590 -2.5018 0.8915
27.4696 1.6148 -2.4074 0.8954
26.4266 4.7813 -2.3496 0.8978
17.2497 5.3220 -1.5793 0.9301
12.6106 5.6245 -1.2080 0.9461
18.6574 11.1788 -1.9029 0.9164
19.4313 19.2360 -2.3921 0.8960
4.5426 5.7317 -0.6398 0.9711
3.9972 6.5209 -0.6692 0.9698
1.8135 5.6738 -0.5211 0.9764
1.0867 5.6783 -0.5058 0.9771
-0.2928 5.6868 -0.4982 0.9774
-2.4929 5.7003 -0.5443 0.9753
-4.3223 5.6527 -0.6226 0.9718
-9.2156 5.7416 -0.9499 0.9573
20.1381 -3.0999 -2.5018 0.9212
17.2564 8.3065 -2.3515 0.9257
5.5164 5.7882 -0.9818 0.9683
4.4219 5.9255 -0.9078 0.9706
3.2497 5.6650 -0.8019 0.9740
1.6336 5.6749 -0.7251 0.9765
0.2260 5.6836 -0.6984 0.9773
-0.4591 5.6878 -0.7006 0.9773
-2.6936 5.7015 -0.7743 0.9749
-7.5650 5.7315 -1.1654 0.9625
-12.7534 5.5100 -1.7058 0.9456
-10.2887 3.0429 -1.3174 0.9577
-18.8686 3.1861 -2.3496 0.9258
-8.3543 -2.7112 -1.0784 0.9652
-18.4856 -8.5693 -2.5018 0.9212
-17.3239 -10.7253 -2.5018 0.9212
-14.2701 -14.5436 -2.5018 0.9212
-8.2168 -18.6450 -2.5018 0.9212
-5.9204 -19.4961 -2.5018 0.9212
-3.5385 -20.0656 -2.5018 0.9212
1.3436 -20.3309 -2.5018 0.9212
3.7732 -20.0228 -2.5018 0.9212
8.4346 -18.5474 -2.5018 0.9212
10.5990 -17.4015 -2.5018 0.9212
16.0599 -12.5392 -2.5018 0.9212
18.5846 -8.3513 -2.5018 0.9212
20.3367 -1.2533 -2.5018 0.9212
20.3338 1.1953 -2.5010 0.9212
18.2852 5.6415 -2.3496 0.9258
17.4765 7.7947 -2.3496 0.9258
15.2124 11.8083 -2.3645 0.9253
2.5974 5.6690 -0.7657 0.9752
-0.2928 5.6868 -0.6992 0.9773
-0.9870 5.6910 -0.7092 0.9770
-2.4929 5.7003 -0.7639 0.9752
-4.3223 5.6527 -0.8737 0.9717
-5.4662 5.6027 -0.9611 0.9689
-6.8500 5.5105 -1.0794 0.9652
-9.2156 5.7416 -1.3332 0.9572
15.2105 -4.2589 -2.5018 0.9380
15.6116 -2.4031 -2.5018 0.9380
15.7872 -0.5127 -2.5018 0.9380
4.4219 5.9255 -1.1710 0.9705
1.6336 5.6749 -0.9353 0.9764
0.9165 5.6787 -0.9110 0.9770
0.2260 5.6836 -0.9009 0.9772
-1.1586 5.6921 -0.9200 0.9767
-2.6936 5.7015 -0.9987 0.9748
-3.5737 5.6797 -1.0628 0.9732
-4.5559 5.6122 -1.1449 0.9711
-13.6179 5.8835 -2.3496 0.9417
-10.2169 3.0216 -1.6875 0.9578
-15.7781 0.7422 -2.5018 0.9380
-15.7531 -1.1562 -2.5018 0.9380
-15.5006 -3.0379 -2.5018 0.9380
-7.7015 -2.4994 -1.2824 0.9677
-13.4301 -8.3146 -2.5018 0.9380
-12.3354 -9.8659 -2.5018 0.9380
-11.0626 -11.2746 -2.5018 0.9380
-9.6299 -12.5205 -2.5018 0.9380
-8.0582 -13.5854 -2.5018 0.9380
-0.8570 -15.7722 -2.5018 0.9380
6.5388 -14.3785 -2.5018 0.9380
8.2167 -13.4902 -2.5018 0.9380
9.7759 -12.4068 -2.5018 0.9380
13.5265 -8.1567 -2.5018 0.9380
15.0802 -4.6995 -2.5018 0.9380
15.7656 -0.9716 -2.5018 0.9380
14.5976 2.6411 -2.3496 0.9417
13.5481 6.0426 -2.3496 0.9417
3.9972 6.5209 -1.2114 0.9695
1.8135 5.6738 -0.9434 0.9762
1.0867 5.6783 -0.9157 0.9769
0.3917 5.6826 -0.9022 0.9772
-0.2928 5.6868 -0.9019 0.9772
-0.9870 5.6910 -0.9148 0.9769
-3.3557 5.6942 -1.0468 0.9736
-4.3047 5.6298 -1.1225 0.9717
-5.4151 5.5503 -1.2282 0.9691
-6.6886 5.3807 -1.3596 0.9658
-9.2156 5.7416 -1.7197 0.9570
12.6730 1.1157 -2.4729 0.9495
11.8267 2.4970 -2.3496 0.9519
5.5199 5.7919 -1.5552 0.9679
3.2497 5.6650 -1.2695 0.9737
1.6336 5.6749 -1.1479 0.9762
0.9165 5.6787 -1.1181 0.9768
-1.1586 5.6921 -1.1291 0.9766
-1.8946 5.6966 -1.1669 0.9758
-3.5503 5.6424 -1.2958 0.9732
-5.6526 5.4662 -1.5285 0.9685
-6.8123 5.1612 -1.6613 0.9658
-9.8490 5.7455 -2.2164 0.9546
-11.0961 4.7940 -2.3496 0.9519
-12.8359 -0.9421 -2.5018 0.9489
-7.2753 -2.3611 -1.4868 0.9693
-10.9430 -6.7749 -2.5018 0.9489
-10.0511 -8.0389 -2.5018 0.9489
-6.5659 -11.0697 -2.5018 0.9489
-3.7398 -12.3151 -2.5018 0.9489
2.3835 -12.6478 -2.5018 0.9489
9.1210 -9.0806 -2.5018 0.9489
11.0216 -6.6463 -2.5018 0.9489
11.7394 -5.2758 -2.5018 0.9489
12.2876 -3.8292 -2.5018 0.9489
12.6583 -2.3273 -2.5018 0.9489
12.8461 -0.7917 -2.5018 0.9489
11.8944 2.1520 -2.3496 0.9519
11.5502 3.5635 -2.3496 0.9519
10.3687 6.2125 -2.3496 0.9519
4.5426 5.7317 -1.4216 0.9706
3.9972 6.5209 -1.4867 0.9693
2.5974 5.6690 -1.2121 0.9749
1.0867 5.6783 -1.1238 0.9767
-0.2928 5.6868 -1.1069 0.9771
-0.9870 5.6910 -1.1227 0.9767
-1.7120 5.6955 -1.1560 0.9761
-2.4929 5.7003 -1.2093 0.9750
10.4350 -2.9218 -2.5018 0.9565
9.9576 2.1024 -2.3496 0.9591
9.6334 3.2819 -2.3496 0.9591
9.1700 4.4140 -2.3496 0.9591
5.5199 5.7919 -1.8472 0.9677
4.4219 5.9255 -1.7069 0.9701
2.4010 5.6702 -1.4216 0.9750
1.6336 5.6749 -1.3634 0.9760
0.2260 5.6836 -1.3132 0.9769
-0.4591 5.6878 -1.3174 0.9768
-1.1586 5.6921 -1.3411 0.9764
-1.8946 5.6966 -1.3860 0.9757
-3.5502 5.6424 -1.5391 0.9730
-4.4635 5.4984 -1.6350 0.9713
-9.7592 2.8863 -2.3496 0.9591
-10.0350 1.6945 -2.3496 0.9591
-10.8244 0.5092 -2.5018 0.9565
-6.7005 -2.1745 -1.6264 0.9715
-8.4626 -6.7684 -2.5018 0.9565
-6.6065 -8.5895 -2.5018 0.9565
-5.5282 -9.3201 -2.5018 0.9565
-4.3700 -9.9161 -2.5018 0.9565
-3.1487 -10.3688 -2.5018 0.9565
-1.8819 -10.6717 -2.5018 0.9565
-0.5879 -10.8204 -2.5018 0.9565
0.7146 -10.8127 -2.5018 0.9565
2.0068 -10.6489 -2.5018 0.9565
3.2699 -10.3312 -2.5018 0.9565
4.4858 -9.8642 -2.5018 0.9565
8.5413 -6.6688 -2.5018 0.9565
9.2797 -5.5958 -2.5018 0.9565
9.8841 -4.4420 -2.5018 0.9565
10.6577 -1.9595 -2.5018 0.9565
10.8158 -0.6666 -2.5018 0.9565
10.0145 1.8119 -2.3496 0.9591
9.7248 3.0004 -2.3496 0.9591
9.2945 4.1455 -2.3496 0.9591
8.0394 6.2403 -2.3496 0.9591
5.8486 5.7898 -1.9000 0.9668
4.5426 5.7317 -1.6885 0.9704
2.5974 5.6690 -1.4396 0.9747
1.0867 5.6783 -1.3347 0.9765
0.3917 5.6826 -1.3150 0.9769
-0.2928 5.6868 -1.3146 0.9769
-0.9870 5.6910 -1.3335 0.9766
-1.7120 5.6955 -1.3730 0.9759
-4.2195 5.5183 -1.6038 0.9719
-5.2975 5.4297 -1.7513 0.9693
-6.3823 5.1343 -1.8911 0.9669
-8.6378 5.3816 -2.3496 0.9591
9.3318 -0.3030 -2.5018 0.9621
9.2678 0.8159 -2.4929 0.9622
6.7675 5.5760 -2.3496 0.9643
5.5199 5.7919 -2.1438 0.9674
3.2497 5.6650 -1.7500 0.9733
2.4010 5.6702 -1.6499 0.9748
1.6336 5.6749 -1.5823 0.9758
0.9165 5.6787 -1.5413 0.9765
0.2260 5.6836 -1.5241 0.9767
-1.1586 5.6921 -1.5565 0.9762
-1.8946 5.6966 -1.6086 0.9754
-2.6936 5.7015 -1.6896 0.9742
-4.4456 5.4763 -1.8900 0.9712
-5.4684 5.2881 -2.0383 0.9690
-8.0496 3.4778 -2.3496 0.9643
-8.4087 2.4869 -2.3496 0.9643
-9.1814 1.5503 -2.4950 0.9622
-9.3117 -0.6834 -2.5018 0.9621
-9.1624 -1.7957 -2.5018 0.9621
-6.3934 -2.0748 -1.8011 0.9725
-6.1094 -2.8321 -1.8043 0.9725
-7.9385 -4.9147 -2.5018 0.9621
-7.2915 -5.8317 -2.5018 0.9621
-6.5391 -6.6644 -2.5018 0.9621
-5.6922 -7.4008 -2.5018 0.9621
-3.7653 -8.5438 -2.5018 0.9621
-2.7130 -8.9339 -2.5018 0.9621
-0.5066 -9.3230 -2.5018 0.9621
2.8174 -8.9015 -2.5018 0.9621
3.8651 -8.4992 -2.5018 0.9621
4.8569 -7.9740 -2.5018 0.9621
6.6167 -6.5874 -2.5018 0.9621
7.3593 -5.7459 -2.5018 0.9621
8.9139 -2.7779 -2.5018 0.9621
9.1828 -1.6883 -2.5018 0.9621
9.3206 0.5479 -2.5018 0.9621
8.7490 1.5829 -2.3823 0.9639
8.3790 2.5851 -2.3496 0.9643
8.0083 3.5718 -2.3496 0.9643
7.5219 4.5068 -2.3496 0.9643
6.9268 5.3768 -2.3496 0.9643
5.8486 5.7898 -2.2052 0.9665
4.5426 5.7317 -1.9596 0.9702
2.5974 5.6690 -1.6709 0.9745
1.8135 5.6738 -1.5961 0.9756
-0.2928 5.6868 -1.5258 0.9767
-1.7120 5.6955 -1.5936 0.9757
-2.4929 5.7003 -1.6671 0.9746
-4.2195 5.5183 -1.8613 0.9716
-5.2371 5.3679 -2.0095 0.9694
-6.8323 5.4963 -2.3496 0.9643
-7.4424 4.6369 -2.3496 0.9643
