ply
format ascii 1.0
element vertex 553
property float32 x
property float32 y
property float32 z
property float32 I
end_header
-48.2877 -11.3665 13.2923 0.8143
-20.0150 -28.4718 9.3254 0.8658
-17.0522 -43.9097 12.6216 0.8228
-15.7378 -61.8217 17.0934 0.7678
3.9098 5.6609 1.8435 0.9719
-0.0075 5.6850 1.5233 0.9767
-0.7002 5.6893 1.5359 0.9765
-1.4152 5.6937 1.5720 0.9760
-3.0123 5.7035 1.7283 0.9736
-28.1297 19.2565 9.1342 0.8683
-24.1708 -27.7096 9.8525 0.8588
-19.3574 -28.5300 9.2381 0.8670
-16.2218 -43.9148 12.5441 0.8238
-17.3164 -73.0680 20.1208 0.7327
48.3228 -32.4950 15.6033 0.7857
-62.1421 -31.8385 16.1200 0.7508
-25.7253 -36.5948 10.3272 0.8322
-17.3863 -44.7700 11.0880 0.8211
-12.8501 -50.4781 12.0255 0.8075
48.3684 -55.1565 16.9366 0.7400
52.7231 -47.1568 16.3305 0.7480
44.1732 16.6581 10.8992 0.8238
32.8100 17.1550 8.5477 0.8590
24.5183 16.8791 6.8722 0.8850
23.6332 26.6442 8.2224 0.8640
2.1487 5.6718 1.4002 0.9754
1.3950 5.6764 1.3495 0.9763
-0.7002 5.6893 1.3234 0.9767
-3.0123 5.7035 1.4891 0.9739
-24.3286 21.3998 7.4804 0.8755
-29.6038 20.2656 8.2826 0.8631
-32.8688 -0.1794 7.5884 0.8738
-48.7520 -12.3321 11.6098 0.8135
-64.0315 -24.7549 15.8491 0.7544
-20.8228 -30.6898 8.5622 0.8588
-16.2922 -31.6805 8.2245 0.8639
18.7079 -47.8004 11.8507 0.8100
25.1440 -46.6673 12.2383 0.8044
48.3795 -53.3585 16.6284 0.7440
-49.3569 -11.6182 9.8562 0.8133
-38.3468 -42.5173 11.1293 0.7919
-24.3002 -34.5676 8.2134 0.8418
-17.8382 -70.0725 14.0551 0.7448
13.1557 -54.8686 10.9677 0.7946
16.0069 -42.9850 8.9160 0.8295
40.8974 -46.6370 12.0572 0.7767
48.2559 -33.6248 11.4326 0.7869
51.9396 -27.5325 11.4268 0.7870
32.9481 17.2272 7.2271 0.8594
23.4616 20.7468 6.0878 0.8802
23.6332 26.6442 6.9229 0.8649
2.9738 5.6667 1.2440 0.9743
1.3950 5.6764 1.1362 0.9765
0.6840 5.6808 1.1122 0.9770
-0.0075 5.6850 1.1051 0.9771
-1.4152 5.6937 1.1404 0.9764
-2.1759 5.6983 1.1857 0.9755
-3.0123 5.7035 1.2538 0.9741
-3.9654 5.7093 1.3512 0.9721
-5.0972 5.7163 1.4887 0.9693
-32.8565 -0.1794 6.3868 0.8747
-48.7321 -12.3271 9.7709 0.8148
-72.1490 -38.4885 15.8951 0.7166
-30.0915 -34.4971 8.8982 0.8298
-21.9445 -32.3430 7.5973 0.8528
-16.6742 -70.3585 14.0551 0.7448
24.2544 -45.0161 9.9395 0.8119
38.6315 -54.6485 13.0087 0.7613
42.4357 -46.8030 12.2803 0.7730
48.2062 -41.6994 12.3896 0.7713
48.2606 -32.4532 11.3047 0.7890
54.1137 -27.5458 11.8030 0.7808
-49.3850 -11.6248 8.0356 0.8143
-11.9501 -13.2499 2.8260 0.9303
-19.5290 -36.4751 6.5530 0.8457
-13.4480 -34.6289 5.8837 0.8603
-17.1736 -67.4618 11.0257 0.7543
22.6660 -43.7911 7.8098 0.8190
39.6323 -45.1944 9.5205 0.7839
50.5365 -45.2011 10.7387 0.7599
52.9492 6.2943 8.4454 0.8058
48.5329 11.8495 7.9126 0.8168
24.3743 16.7800 4.6869 0.8871
23.6332 26.6442 5.6409 0.8657
3.9098 5.6609 1.0897 0.9725
1.3950 5.6764 0.9258 0.9766
0.6840 5.6808 0.9062 0.9771
-0.7002 5.6893 0.9079 0.9771
-1.4152 5.6937 0.9292 0.9765
-3.0123 5.7035 1.0216 0.9742
-5.0972 5.7163 1.2130 0.9695
-8.3798 5.7365 1.6084 0.9597
-32.8837 -0.1795 5.2083 0.8753
-66.3020 -46.4587 12.8227 0.7205
-71.6919 -64.4629 15.2701 0.6768
-11.9174 -13.6622 2.8714 0.9292
-16.0530 -67.7372 11.0257 0.7543
11.4245 -44.3899 7.2598 0.8306
31.8526 -45.0590 8.7398 0.7997
40.9845 -45.2024 9.6640 0.7811
48.2063 -41.6994 10.0953 0.7725
54.1137 -27.5459 9.6173 0.7820
-76.2287 -39.0558 10.5167 0.7081
-16.3057 -18.0791 2.9908 0.9065
-11.9537 -17.0045 2.5522 0.9196
11.3851 -47.4837 5.9955 0.8214
15.9662 -42.8759 5.6177 0.8316
22.6660 -43.7912 6.0544 0.8198
30.9052 -45.2932 6.7326 0.8017
50.5365 -45.2011 8.3250 0.7609
52.2899 -27.7182 7.2666 0.7878
52.6768 -13.1776 6.6672 0.8035
52.7569 -0.1493 6.4778 0.8085
48.3079 5.7426 5.9732 0.8220
48.9835 11.9595 6.1911 0.8161
44.1732 16.6581 5.7966 0.8267
32.9481 17.2272 4.5651 0.8608
23.5622 20.8357 3.8620 0.8809
2.9738 5.6667 0.7858 0.9745
1.3950 5.6764 0.7177 0.9767
-0.0075 5.6850 0.6980 0.9773
-0.7002 5.6893 0.7038 0.9772
-1.4152 5.6937 0.7204 0.9766
-3.0123 5.7035 0.7920 0.9743
-3.9654 5.7093 0.8535 0.9724
-5.0972 5.7163 0.9404 0.9696
-8.3798 5.7365 1.2469 0.9599
-11.0738 5.7530 1.5322 0.9510
-23.4337 -34.5379 5.1247 0.8452
-18.5033 -35.9801 4.9677 0.8495
-14.0194 -37.9525 4.9677 0.8495
-15.9884 -67.4647 8.5131 0.7562
11.6154 -45.1314 5.7220 0.8288
16.7400 -42.7722 5.6397 0.8310
40.9844 -45.2024 7.4919 0.7820
48.2607 -32.4532 7.1409 0.7911
-16.3023 -18.0754 2.1296 0.9069
-25.7253 -36.5949 3.9136 0.8356
-14.0080 -55.0266 4.9677 0.7961
11.2655 -46.9852 4.2272 0.8237
16.0432 -43.0826 4.0221 0.8314
22.6566 -43.7730 4.3122 0.8204
39.6290 -45.1907 5.2585 0.7856
50.5365 -45.2010 5.9319 0.7617
48.2559 -33.6248 5.1457 0.7897
52.7766 -13.2025 4.7596 0.8038
52.8173 -6.5820 4.6567 0.8076
52.7642 -0.1493 4.6163 0.8091
42.8687 16.1661 4.0083 0.8320
32.9481 17.2272 3.2528 0.8613
24.3744 16.7800 2.5889 0.8880
23.4616 20.7468 2.7401 0.8818
22.9934 25.9230 3.0316 0.8701
3.9098 5.6609 0.6019 0.9728
2.9738 5.6667 0.5599 0.9746
1.3950 5.6764 0.5114 0.9768
0.6840 5.6808 0.5006 0.9773
-0.7002 5.6893 0.5015 0.9772
-1.4152 5.6937 0.5133 0.9767
-2.1759 5.6983 0.5336 0.9758
-3.0123 5.7035 0.5643 0.9744
-3.9654 5.7093 0.6082 0.9725
-8.3798 5.7365 0.8885 0.9600
-24.8330 -36.6003 3.8696 0.8373
-15.3041 -41.4304 3.8641 0.8375
12.1157 -92.1341 8.1301 0.6886
16.7110 -42.6982 4.0115 0.8318
24.2997 -45.1003 4.4820 0.8141
31.0821 -43.9690 4.7109 0.8056
40.9844 -45.2024 5.3382 0.7827
48.2607 -32.4532 5.0881 0.7917
-16.3000 -18.0728 1.2757 0.9071
-24.3002 -34.5677 2.2144 0.8443
-18.5053 -34.5631 2.0547 0.8547
-13.4305 -34.5836 1.9443 0.8619
-12.2637 -95.1936 5.0301 0.6808
22.6802 -43.8186 2.5858 0.8207
23.8843 -27.2363 1.8985 0.8649
30.4966 -27.2769 2.1443 0.8488
48.7040 -33.9370 3.1110 0.7884
57.7649 -22.1578 3.2424 0.7805
57.6646 -7.1861 3.0454 0.7923
57.6182 -0.1630 3.0197 0.7939
40.9591 4.8690 2.1617 0.8477
24.3743 16.7799 1.5508 0.8882
22.9934 25.9230 1.8160 0.8704
3.9832 5.7673 0.3673 0.9723
2.1487 5.6718 0.3179 0.9760
1.3950 5.6764 0.3063 0.9769
-0.7002 5.6893 0.3004 0.9773
-3.0123 5.7035 0.3380 0.9745
-5.0932 5.7118 0.4011 0.9698
-8.3798 5.7365 0.5322 0.9601
-15.3775 5.7529 0.8604 0.9364
-32.9065 -0.1796 1.7246 0.8765
-23.4337 -34.5380 2.1874 0.8460
-17.7715 -34.5570 2.0365 0.8559
11.5699 -44.9548 2.4328 0.8303
24.2726 -45.0499 2.6818 0.8147
31.5407 -27.2833 2.1856 0.8462
48.2607 -32.4532 3.0479 0.7922
-16.2957 -18.0680 0.4247 0.9072
-18.2843 -34.1503 0.6762 0.8564
-15.1436 -38.9950 0.7302 0.8459
20.7748 -86.6454 1.5553 0.7002
18.6932 -50.1990 0.9350 0.8071
21.7945 -42.1073 0.8276 0.8272
22.8233 -33.4487 0.7068 0.8504
30.4966 -27.2769 0.7142 0.8490
42.7435 -22.6578 0.8444 0.8240
71.9673 -27.6057 1.3454 0.7346
84.9475 -21.2504 1.5284 0.7045
23.1315 12.0945 0.4556 0.9008
24.5184 16.8791 0.5196 0.8877
23.5320 20.8091 0.5483 0.8819
3.9832 5.7673 0.1223 0.9723
2.1487 5.6718 0.1059 0.9760
1.3950 5.6764 0.1020 0.9769
0.6840 5.6808 0.0999 0.9774
-0.0075 5.6850 0.0992 0.9775
-1.4152 5.6937 0.1024 0.9768
-2.1759 5.6983 0.1065 0.9759
-3.0123 5.7035 0.1126 0.9745
-5.0772 5.6939 0.1332 0.9699
-8.3798 5.7365 0.1773 0.9602
-11.0738 5.7530 0.2178 0.9513
-67.0330 -16.9563 1.2069 0.7583
-92.1477 -35.6247 1.7245 0.6735
-30.0916 -34.4972 0.7990 0.8327
-17.5646 -34.1547 0.6704 0.8576
-15.1561 -41.0296 0.7635 0.8395
18.8087 -48.0579 0.9008 0.8135
22.8304 -32.2961 0.6904 0.8537
24.6993 -27.2413 0.6418 0.8632
31.5407 -27.2833 0.7279 0.8463
40.6559 -27.3393 0.8552 0.8220
42.7491 -21.7608 0.8373 0.8254
-84.4552 -31.0517 -1.5706 0.6977
-66.5753 -45.0236 -1.4029 0.7250
-16.0383 -22.8148 -0.4868 0.8944
-9.5092 -37.3543 -0.6728 0.8571
21.6498 -90.2948 -1.6208 0.6897
22.8233 -33.4487 -0.7068 0.8504
23.8843 -27.2363 -0.6323 0.8651
30.4966 -27.2769 -0.7142 0.8490
39.2228 -27.3305 -0.8344 0.8259
40.2469 -21.3343 -0.7951 0.8334
72.4274 -27.7822 -1.3540 0.7332
22.7127 5.5454 -0.4081 0.9107
44.1734 16.6581 -0.8240 0.8279
32.9481 17.2272 -0.6490 0.8618
24.3744 16.7800 -0.5165 0.8884
23.6333 26.6443 -0.6217 0.8672
3.9832 5.7673 -0.1223 0.9723
3.4321 6.5400 -0.1289 0.9709
2.1487 5.6718 -0.1059 0.9760
-0.0075 5.6850 -0.0992 0.9775
-1.4152 5.6937 -0.1024 0.9768
-2.1759 5.6983 -0.1065 0.9759
-5.0613 5.6760 -0.1327 0.9700
-6.4138 5.6417 -0.1491 0.9664
-8.3798 5.7365 -0.1773 0.9602
-11.0738 5.7530 -0.2178 0.9513
-91.8455 10.6735 -1.6139 0.6908
-84.5757 -10.7655 -1.4882 0.7110
-66.9837 -16.9438 -1.2060 0.7585
-70.1796 -37.4380 -1.3884 0.7274
-73.3463 -51.3947 -1.5633 0.6989
-26.9135 -24.1997 -0.6318 0.8652
-19.3885 -22.2272 -0.5148 0.8887
-15.6850 -23.1175 -0.4876 0.8943
-12.6779 -24.6525 -0.4839 0.8950
-10.4288 -28.2323 -0.5253 0.8866
-9.3973 -39.6526 -0.7113 0.8496
14.1877 -36.2508 -0.6795 0.8558
22.8304 -32.2961 -0.6904 0.8537
24.6993 -27.2413 -0.6418 0.8632
-44.5607 -4.9230 -2.3495 0.8356
-45.8956 -10.8034 -2.4710 0.8279
-44.8036 -16.4730 -2.5017 0.8260
-42.4844 -21.7669 -2.5017 0.8260
-39.5424 -26.7418 -2.5017 0.8260
-9.1510 -35.9473 -1.9440 0.8619
-6.0895 -47.2679 -2.4977 0.8262
-0.3329 -47.7348 -2.5017 0.8260
11.1301 -46.4203 -2.5017 0.8260
13.4887 -36.2226 -2.0257 0.8566
20.6078 -39.8147 -2.3495 0.8356
30.3786 -27.1713 -2.1360 0.8494
26.0981 -18.1852 -1.6670 0.8804
29.7260 -15.7574 -1.7632 0.8739
39.4123 -15.1180 -2.2123 0.8444
47.7358 -0.1351 -2.5017 0.8260
22.7127 5.5454 -1.2253 0.9106
17.6738 12.1671 -1.1245 0.9176
23.1599 20.4800 -1.6203 0.8835
23.4970 26.4907 -1.8558 0.8678
3.9832 5.7673 -0.3673 0.9723
1.3950 5.6764 -0.3063 0.9769
0.6840 5.6808 -0.2999 0.9773
-0.0075 5.6850 -0.2979 0.9775
-0.7002 5.6893 -0.3004 0.9773
-1.4152 5.6937 -0.3075 0.9768
-2.1759 5.6983 -0.3197 0.9759
-5.0455 5.6583 -0.3973 0.9701
-11.0738 5.7530 -0.6540 0.9512
-23.8431 5.7550 -1.2854 0.9064
-44.4730 -5.6609 -2.3495 0.8356
-44.5245 -17.2133 -2.5017 0.8260
-42.1178 -22.4681 -2.5017 0.8260
-39.0938 -27.3935 -2.5017 0.8260
-12.5247 -24.3545 -1.4353 0.8961
-5.3138 -47.4393 -2.5017 0.8260
0.4584 -47.7338 -2.5017 0.8260
6.2237 -47.3285 -2.5017 0.8260
16.3393 -41.7483 -2.3495 0.8356
20.3137 -28.7359 -1.8443 0.8685
24.6888 -27.2297 -1.9263 0.8631
31.4186 -27.1777 -2.1771 0.8467
37.2026 -25.0172 -2.3495 0.8356
29.9326 -15.2368 -1.7602 0.8741
-26.8537 0.2986 -2.3495 0.8978
-28.4220 -3.1400 -2.5017 0.8915
-27.8342 -6.5519 -2.5017 0.8915
-26.8384 -9.8677 -2.5017 0.8915
-25.4492 -13.0389 -2.5017 0.8915
-16.1726 -17.9315 -2.1126 0.9076
-15.4444 -21.9700 -2.3495 0.8978
-12.6760 -23.6755 -2.3495 0.8978
-3.6537 -28.3606 -2.5017 0.8915
-0.1994 -28.5943 -2.5017 0.8915
3.2578 -28.4088 -2.5017 0.8915
9.9788 -26.7973 -2.5017 0.8915
12.8230 -24.7743 -2.4406 0.8940
17.7064 -20.1914 -2.3495 0.8978
25.2648 -13.3926 -2.5017 0.8915
26.6982 -10.2411 -2.5017 0.8915
28.3755 -3.5361 -2.5017 0.8915
28.5949 -0.0809 -2.5017 0.8915
18.3318 9.5849 -1.8098 0.9203
18.8966 13.0089 -2.0071 0.9120
3.9832 5.7673 -0.6132 0.9722
2.1487 5.6718 -0.5306 0.9759
-2.1759 5.6983 -0.5337 0.9758
-3.9584 5.6992 -0.6071 0.9725
-5.0368 5.6486 -0.6621 0.9701
-8.3798 5.7365 -0.8885 0.9600
-23.8431 5.7550 -2.1459 0.9062
-26.6758 3.1000 -2.3495 0.8978
-26.8549 -0.1466 -2.3495 0.8978
-28.3661 -3.6107 -2.5017 0.8915
-26.6712 -10.3112 -2.5017 0.8915
-15.0781 -22.2230 -2.3495 0.8978
-12.2818 -23.8823 -2.3495 0.8978
-3.1831 -28.4172 -2.5017 0.8915
0.2746 -28.5937 -2.5017 0.8915
7.1271 -27.6925 -2.5017 0.8915
10.4216 -26.6282 -2.5017 0.8915
12.9068 -23.9550 -2.3806 0.8965
15.5020 -21.9293 -2.3495 0.8978
20.3108 -17.5693 -2.3495 0.8978
25.4833 -12.9720 -2.5017 0.8915
-20.3738 0.2265 -2.5017 0.9212
-20.2518 -2.2374 -2.5017 0.9212
-9.5309 -2.2435 -1.2022 0.9613
-15.2894 -13.2960 -2.4879 0.9216
-13.6461 -15.1303 -2.5017 0.9212
-11.7176 -16.6685 -2.5017 0.9212
-7.3759 -18.9931 -2.5017 0.9212
2.3213 -20.2424 -2.5017 0.9212
7.1103 -19.0941 -2.5017 0.9212
11.4839 -16.8303 -2.5017 0.9212
13.4338 -15.3191 -2.5017 0.9212
15.1867 -13.5833 -2.5017 0.9212
16.7169 -11.6484 -2.5017 0.9212
18.0022 -9.5427 -2.5017 0.9212
19.7659 -4.9446 -2.5017 0.9212
20.3749 -0.0577 -2.5017 0.9212
18.5894 4.5387 -2.3495 0.9258
17.9046 6.7520 -2.3495 0.9258
16.9868 8.8817 -2.3536 0.9257
8.2107 5.6525 -1.2239 0.9606
5.1380 5.7926 -0.9507 0.9693
3.9832 5.7673 -0.8606 0.9721
1.3950 5.6764 -0.7177 0.9767
-0.0075 5.6850 -0.6980 0.9773
-0.7002 5.6893 -0.7038 0.9772
-1.4152 5.6937 -0.7204 0.9766
-3.0123 5.7035 -0.7920 0.9743
-3.9584 5.6992 -0.8520 0.9724
-6.3452 5.5813 -1.0376 0.9665
-8.3798 5.7365 -1.2469 0.9599
-11.0738 5.7530 -1.5322 0.9510
-19.0075 2.2089 -2.3495 0.9258
-20.3747 -0.1112 -2.5017 0.9212
-17.9770 -9.5900 -2.5017 0.9212
-9.3182 -18.1194 -2.5017 0.9212
-7.0601 -19.1127 -2.5017 0.9212
0.1956 -20.3740 -2.5017 0.9212
2.6565 -20.2011 -2.5017 0.9212
7.4258 -18.9736 -2.5017 0.9212
11.7613 -16.6377 -2.5017 0.9212
15.4097 -13.3297 -2.5017 0.9212
16.9077 -11.3697 -2.5017 0.9212
18.1579 -9.2430 -2.5017 0.9212
-8.9664 -2.1106 -1.4590 0.9634
-13.0842 -8.8486 -2.5017 0.9380
-11.9189 -10.3650 -2.5017 0.9380
-10.5789 -11.7294 -2.5017 0.9380
-9.0838 -12.9219 -2.5017 0.9380
-7.4556 -13.9250 -2.5017 0.9380
-5.7180 -14.7240 -2.5017 0.9380
-3.8967 -15.3071 -2.5017 0.9380
-2.0182 -15.6659 -2.5017 0.9380
1.7995 -15.6925 -2.5017 0.9380
7.2606 -14.0277 -2.5017 0.9380
12.9595 -9.0302 -2.5017 0.9380
13.9558 -7.3978 -2.5017 0.9380
14.7476 -5.6570 -2.5017 0.9380
15.3231 -3.8332 -2.5017 0.9380
15.6741 -1.9533 -2.5017 0.9380
14.7307 1.7511 -2.3495 0.9417
13.8802 5.2343 -2.3495 0.9417
13.1459 6.8734 -2.3495 0.9417
6.4326 5.6883 -1.3600 0.9658
5.0221 5.6619 -1.1987 0.9698
-0.7002 5.6893 -0.9079 0.9771
-1.4152 5.6937 -0.9292 0.9765
-2.1759 5.6983 -0.9661 0.9756
-5.0022 5.6098 -1.1904 0.9700
-6.2711 5.5161 -1.3228 0.9667
-14.4203 3.4806 -2.3495 0.9417
-14.7352 1.7124 -2.3495 0.9417
-13.9363 -7.4345 -2.5017 0.9380
-7.2237 -14.0467 -2.5017 0.9380
3.9369 -15.2968 -2.5017 0.9380
11.9461 -10.3336 -2.5017 0.9380
14.0765 -7.1655 -2.5017 0.9380
-12.7925 -1.4133 -2.5017 0.9489
-7.3545 -2.7040 -1.5231 0.9686
-3.1751 -12.4725 -2.5017 0.9489
-0.0898 -12.8700 -2.5017 0.9489
1.4663 -12.7865 -2.5017 0.9489
4.4914 -12.0612 -2.5017 0.9489
7.2541 -10.6312 -2.5017 0.9489
8.4857 -9.6766 -2.5017 0.9489
10.5596 -7.3579 -2.5017 0.9489
12.0166 -4.6094 -2.5017 0.9489
12.4856 -3.1234 -2.5017 0.9489
12.7715 -1.5916 -2.5017 0.9489
12.3892 1.4728 -2.4252 0.9504
11.3098 4.2650 -2.3495 0.9519
9.9561 6.8541 -2.3495 0.9519
5.1394 5.7942 -1.5055 0.9689
3.4321 6.5400 -1.4357 0.9704
2.1487 5.6718 -1.1789 0.9756
1.3950 5.6764 -1.1362 0.9765
-1.4152 5.6937 -1.1404 0.9764
-7.4357 5.0902 -1.7516 0.9639
-10.7262 5.5724 -2.3495 0.9519
-11.7499 2.8361 -2.3495 0.9519
-8.1252 -2.0553 -1.6291 0.9664
-10.5402 -7.3857 -2.5017 0.9489
-7.2261 -10.6503 -2.5017 0.9489
-4.4597 -12.0730 -2.5017 0.9489
-2.9679 -12.5234 -2.5017 0.9489
0.1236 -12.8697 -2.5017 0.9489
1.6780 -12.7605 -2.5017 0.9489
3.2079 -12.4641 -2.5017 0.9489
6.1047 -11.3304 -2.5017 0.9489
8.6449 -9.5347 -2.5017 0.9489
9.7339 -8.4200 -2.5017 0.9489
10.6801 -7.1819 -2.5017 0.9489
-10.8355 0.1205 -2.5017 0.9565
-6.7352 -2.4763 -1.6567 0.9710
-6.5856 -3.3741 -1.7083 0.9701
-8.9762 -6.0705 -2.5017 0.9565
-8.1768 -7.1108 -2.5017 0.9565
-7.2575 -8.0468 -2.5017 0.9565
-6.2318 -8.8650 -2.5017 0.9565
-2.6733 -10.5013 -2.5017 0.9565
-1.3846 -10.7474 -2.5017 0.9565
1.2345 -10.7657 -2.5017 0.9565
2.5266 -10.5375 -2.5017 0.9565
7.1446 -8.1473 -2.5017 0.9565
9.5742 -5.0752 -2.5017 0.9565
10.5688 1.2564 -2.4572 0.9572
9.8865 2.4138 -2.3495 0.9591
9.5224 3.5909 -2.3495 0.9591
9.0186 4.7154 -2.3495 0.9591
8.3826 5.7708 -2.3495 0.9591
7.6237 6.7416 -2.3495 0.9591
2.1487 5.6718 -1.4002 0.9754
-0.0075 5.6850 -1.3125 0.9769
-1.4152 5.6937 -1.3545 0.9762
-3.0123 5.7035 -1.4891 0.9739
-3.9422 5.6759 -1.5954 0.9720
-4.9024 5.4978 -1.7006 0.9702
-9.0310 4.6917 -2.3495 0.9591
-9.5318 3.5659 -2.3495 0.9591
-10.7495 -1.3683 -2.5017 0.9565
-7.9792 -2.0184 -1.9002 0.9668
-8.8744 -6.2184 -2.5017 0.9565
-8.0578 -7.2453 -2.5017 0.9565
-6.0841 -8.9670 -2.5017 0.9565
-4.9558 -9.6366 -2.5017 0.9565
-3.7548 -10.1649 -2.5017 0.9565
-1.2062 -10.7689 -2.5017 0.9565
1.4128 -10.7437 -2.5017 0.9565
5.1399 -9.5396 -2.5017 0.9565
7.2787 -8.0277 -2.5017 0.9565
8.1955 -7.0893 -2.5017 0.9565
8.9922 -6.0469 -2.5017 0.9565
-9.3360 0.1038 -2.5017 0.9621
-6.4145 -2.3584 -1.8313 0.9721
-6.2532 -6.9333 -2.5017 0.9621
-5.3694 -7.6382 -2.5017 0.9621
-2.3033 -9.0480 -2.5017 0.9621
-1.1930 -9.2601 -2.5017 0.9621
1.0637 -9.2758 -2.5017 0.9621
4.2918 -8.2918 -2.5017 0.9621
5.2624 -7.7123 -2.5017 0.9621
6.9591 -6.2244 -2.5017 0.9621
7.6603 -5.3377 -2.5017 0.9621
8.2493 -4.3728 -2.5017 0.9621
9.2649 -1.1546 -2.5017 0.9621
9.3366 -0.0264 -2.5017 0.9621
9.1850 1.0919 -2.4784 0.9624
8.2046 3.0940 -2.3495 0.9643
7.7705 4.0629 -2.3495 0.9643
6.5687 5.8086 -2.3495 0.9643
5.1394 5.7942 -2.0753 0.9684
3.4321 6.5400 -1.9790 0.9699
-2.1759 5.6983 -1.6344 0.9751
-3.0123 5.7035 -1.7283 0.9736
-4.9024 5.4978 -1.9737 0.9700
-6.5840 5.7913 -2.3495 0.9643
-7.2356 4.9532 -2.3495 0.9643
-8.1889 3.0635 -2.3427 0.9644
-8.5238 2.0574 -2.3495 0.9643
-9.2742 1.0778 -2.5017 0.9621
-9.3365 -0.0509 -2.5017 0.9621
-6.3895 -2.4702 -1.8356 0.9720
-6.9427 -6.2426 -2.5017 0.9621
-6.1374 -7.0360 -2.5017 0.9621
-5.2421 -7.7261 -2.5017 0.9621
-4.2699 -8.3030 -2.5017 0.9621
-3.2352 -8.7582 -2.5017 0.9621
-2.1531 -9.0850 -2.5017 0.9621
-1.0393 -9.2786 -2.5017 0.9621
4.4286 -8.2195 -2.5017 0.9621
7.0613 -6.1082 -2.5017 0.9621
8.3206 -4.2355 -2.5017 0.9621
