ply
format ascii 1.0
element vertex 780
property float32 x
property float32 y
property float32 z
property float32 I
end_header
24.8265 16.7905 8.0308 0.8833
3.9945 5.6604 1.8563 0.9717
2.2222 5.6713 1.6321 0.9751
1.4669 5.6760 1.5708 0.9760
-0.6208 5.6888 1.5334 0.9766
-1.3285 5.6931 1.5665 0.9761
-2.8991 5.7028 1.7142 0.9739
-3.8293 5.7085 1.8419 0.9719
-20.2187 -28.1948 9.2965 0.8662
-11.4547 -42.9726 11.9165 0.8318
23.3946 -46.8965 14.0426 0.8049
49.5612 -35.8262 16.3862 0.7763
47.2781 16.6390 13.4298 0.8126
24.8520 20.9333 8.7066 0.8741
24.3842 26.1620 9.5828 0.8623
2.3219 5.6707 1.6419 0.9749
0.8442 5.6798 1.5386 0.9765
-0.5336 5.6883 1.5309 0.9766
-1.2376 5.6926 1.5610 0.9762
-1.9808 5.6971 1.6162 0.9753
-22.7759 21.3903 8.3722 0.8786
-66.5363 -22.8510 18.8505 0.7473
22.4836 -46.8360 13.9208 0.8064
49.8893 -28.6007 15.4087 0.7881
24.8265 16.7905 6.9194 0.8842
3.9945 5.6604 1.5994 0.9720
1.4669 5.6760 1.3535 0.9762
0.0673 5.6846 1.3125 0.9769
-1.3285 5.6931 1.3497 0.9763
-2.0784 5.6978 1.4002 0.9754
-2.8991 5.7028 1.4770 0.9741
-3.8293 5.7085 1.5870 0.9722
-4.9263 5.7153 1.7420 0.9695
-23.4846 21.3946 7.3344 0.8777
-7.0175 2.7805 1.7427 0.9695
-47.1258 -10.8083 11.1623 0.8200
-60.2761 -30.3551 15.5809 0.7580
-20.2052 -28.1760 8.0046 0.8673
-16.9915 -30.9865 8.1588 0.8650
-17.9273 -44.7492 11.1294 0.8205
50.6668 -46.8660 15.9342 0.7533
49.5612 -35.8262 14.1185 0.7780
50.4259 -27.9005 13.3049 0.7893
34.6287 17.1110 8.9174 0.8534
4.1239 5.6596 1.6167 0.9717
0.8442 5.6798 1.3257 0.9767
-0.5336 5.6883 1.3190 0.9768
-1.2376 5.6926 1.3449 0.9764
-2.7907 5.7021 1.4656 0.9743
-4.7763 5.7143 1.7194 0.9699
-27.5747 20.2531 7.8988 0.8690
-68.7468 -14.6727 16.2289 0.7493
49.5103 -36.9459 14.2621 0.7760
50.9831 -29.2277 13.5674 0.7856
51.6155 10.6076 12.1654 0.8055
24.8265 16.7905 5.8258 0.8850
0.0673 5.6846 1.1050 0.9771
-0.6208 5.6888 1.1124 0.9770
-2.8991 5.7028 1.2435 0.9743
-4.9263 5.7153 1.4667 0.9697
-8.0534 5.7290 1.9211 0.9605
-7.0346 2.7873 1.4708 0.9696
-77.6769 -17.8150 15.4909 0.7227
-61.7279 -31.0863 13.4343 0.7546
-20.2162 -28.1913 6.7432 0.8682
-10.4921 -19.1338 4.2417 0.9149
-14.6823 -36.6493 7.6743 0.8514
-11.8524 -44.4648 8.9449 0.8290
21.1475 -93.8395 18.6979 0.6757
15.4184 -43.2849 8.9316 0.8292
30.0620 -45.5586 10.6099 0.8006
39.8428 -46.9390 11.9678 0.7781
49.8134 -46.0766 13.1899 0.7584
49.7363 -27.5189 11.0489 0.7932
34.6287 17.1110 7.5081 0.8544
25.6290 16.7722 5.9537 0.8827
24.8520 20.9333 6.3161 0.8760
4.1239 5.6596 1.3612 0.9719
3.1628 5.6655 1.2613 0.9739
0.8442 5.6798 1.1162 0.9769
0.1536 5.6840 1.1053 0.9771
-0.5336 5.6883 1.1105 0.9770
-1.2376 5.6926 1.1324 0.9765
-1.9808 5.6971 1.1724 0.9757
-2.7907 5.7021 1.2340 0.9745
-3.7044 5.7077 1.3227 0.9727
-6.0847 5.7145 1.6226 0.9666
-7.8054 5.7329 1.8825 0.9613
-6.9910 2.8935 1.4707 0.9696
-88.7808 2.7355 17.2654 0.6963
-67.8328 -14.4776 13.4823 0.7538
-59.7841 -28.9789 12.9141 0.7628
-66.5104 -42.8088 15.3748 0.7245
-17.3963 -30.6136 6.8444 0.8663
-15.3300 -36.6453 7.7213 0.8506
49.6243 -37.0309 12.0357 0.7770
49.6744 -28.4775 11.1299 0.7919
53.7373 11.0436 10.6638 0.7997
33.5642 17.2234 5.9751 0.8583
24.8265 16.7905 4.7470 0.8857
24.8561 21.5898 5.2145 0.8752
1.4669 5.6760 0.9285 0.9765
0.7564 5.6803 0.9076 0.9771
0.0673 5.6846 0.9004 0.9772
-1.3285 5.6931 0.9259 0.9766
-2.0784 5.6978 0.9606 0.9757
-2.8991 5.7028 1.0132 0.9744
-23.4846 21.3946 5.0317 0.8793
-8.0611 5.7345 1.5669 0.9607
-10.5556 5.7362 1.9028 0.9525
-90.4714 23.7487 14.8147 0.6847
-68.3277 -15.6708 11.1030 0.7528
-73.7925 -37.1621 13.0860 0.7156
-66.9546 -44.5457 12.7371 0.7220
-10.5324 -14.6874 2.8626 0.9294
-13.8719 -34.6263 5.9080 0.8598
12.9773 -57.5852 9.3493 0.7874
29.7818 -45.1339 8.5645 0.8033
50.1120 -46.3528 10.8117 0.7585
49.7363 -27.5189 9.0029 0.7944
54.0572 -14.6292 8.8698 0.7971
54.0990 -7.8310 8.6577 0.8014
34.6287 17.1110 6.1177 0.8552
25.6290 16.7722 4.8512 0.8833
24.8520 20.9333 5.1465 0.8767
4.1239 5.6596 1.1091 0.9720
3.1628 5.6655 1.0277 0.9741
2.3219 5.6707 0.9705 0.9755
0.8442 5.6798 0.9095 0.9770
0.1536 5.6840 0.9006 0.9772
-1.2376 5.6926 0.9227 0.9767
-1.9808 5.6971 0.9553 0.9759
-3.7044 5.7077 1.0777 0.9728
-6.0847 5.7145 1.3221 0.9668
-10.2435 5.7696 1.8621 0.9535
-88.6727 2.7322 14.0510 0.6982
-69.3569 -14.8029 11.2325 0.7504
-60.7526 -29.4483 10.6931 0.7608
-66.6895 -42.9241 12.5614 0.7253
-34.4517 -36.4058 7.9387 0.8163
-27.0864 -36.5865 7.2100 0.8316
-14.4838 -34.6226 5.9442 0.8590
-12.2848 -43.4284 7.1483 0.8330
11.8846 -56.7368 9.1813 0.7908
21.6424 -45.0836 7.9207 0.8167
37.1123 -45.0914 9.2497 0.7894
49.7238 -37.1052 9.8265 0.7778
65.3144 -27.6147 11.2314 0.7504
54.0518 -15.5116 8.9065 0.7963
54.0938 -8.6701 8.6770 0.8010
54.1344 -2.0791 8.5804 0.8030
54.1746 4.4605 8.6095 0.8024
33.5642 17.2234 4.6321 0.8590
5.1113 5.6536 0.9358 0.9698
3.9945 5.6604 0.8506 0.9725
3.0514 5.6662 0.7902 0.9744
0.0673 5.6846 0.6980 0.9773
-0.6208 5.6888 0.7026 0.9772
-2.8991 5.7028 0.7855 0.9745
-4.9263 5.7153 0.9265 0.9700
-10.5810 5.7500 1.4786 0.9526
-67.2784 -44.7611 9.9220 0.7221
-31.6907 -34.5225 5.7540 0.8279
-14.6823 -36.6493 4.8476 0.8529
-12.2793 -87.1596 10.8075 0.7014
12.1359 -53.8517 6.7780 0.8005
15.0371 -42.2145 5.5023 0.8348
22.2410 -44.5839 6.1176 0.8181
29.7816 -45.1337 6.6394 0.8042
38.4855 -45.3399 7.3022 0.7869
54.1923 -14.6658 6.8933 0.7975
54.1394 -1.2571 6.6493 0.8039
50.4852 4.9289 6.2283 0.8151
34.6287 17.1110 4.7426 0.8558
25.7805 16.8714 3.7830 0.8832
24.9224 20.9926 4.0010 0.8769
5.2685 5.6526 0.9488 0.9693
0.1535 5.6840 0.6982 0.9773
-0.5336 5.6883 0.7015 0.9772
-1.2376 5.6926 0.7153 0.9768
-2.7907 5.7021 0.7795 0.9747
-3.7044 5.7077 0.8355 0.9730
-4.7763 5.7143 0.9145 0.9704
-6.0847 5.7145 1.0249 0.9669
-7.8054 5.7329 1.1891 0.9617
-6.9895 2.8929 0.9288 0.9700
-89.1301 24.8479 11.3611 0.6887
-75.2641 -36.4824 10.2697 0.7139
-32.6639 -34.5166 5.8349 0.8257
-25.5859 -34.5598 5.2798 0.8409
-19.9892 -35.1764 4.9678 0.8495
21.5506 -44.8926 6.1143 0.8182
28.8046 -45.1277 6.5735 0.8059
27.3169 -33.1899 5.2780 0.8409
47.5445 -45.3356 8.0663 0.7674
49.7239 -37.1052 7.6177 0.7788
51.3042 -21.6912 6.8392 0.7989
54.0518 -15.5116 6.9046 0.7972
50.9494 4.1950 6.2770 0.8138
53.7373 11.0436 6.7360 0.8016
24.8265 16.7905 2.6221 0.8866
24.8561 21.5899 2.8804 0.8762
5.1113 5.6536 0.6668 0.9699
3.9945 5.6604 0.6061 0.9726
3.0514 5.6662 0.5630 0.9745
2.2222 5.6713 0.5329 0.9758
1.4669 5.6760 0.5129 0.9767
0.7564 5.6803 0.5013 0.9773
0.0673 5.6846 0.4974 0.9774
-1.3285 5.6931 0.5115 0.9768
-2.8991 5.7028 0.5597 0.9746
-4.9263 5.7153 0.6601 0.9702
-7.0329 2.7866 0.6618 0.9701
-26.2402 -36.5917 3.9394 0.8346
-10.5097 -19.1659 1.9123 0.9160
-14.6823 -36.6493 3.4541 0.8534
-11.8524 -44.4649 4.0260 0.8313
-12.2793 -87.1596 7.7008 0.7023
47.5076 -43.9437 5.6618 0.7712
54.1467 -1.2573 4.7385 0.8045
49.9173 11.0505 4.4729 0.8144
34.6287 17.1110 3.3793 0.8563
5.2685 5.6526 0.6760 0.9694
4.1239 5.6596 0.6127 0.9723
3.1628 5.6655 0.5677 0.9743
1.5547 5.6596 0.5135 0.9767
0.8442 5.6798 0.5024 0.9772
0.1536 5.6840 0.4975 0.9774
-0.5336 5.6883 0.4998 0.9773
-1.9808 5.6971 0.5277 0.9761
-3.7044 5.7077 0.5953 0.9730
-6.0847 5.7145 0.7303 0.9670
-7.8054 5.7329 0.8473 0.9619
-6.9894 2.8928 0.6618 0.9701
-27.0864 -36.5866 3.9827 0.8329
21.6423 -45.0836 4.3752 0.8181
46.9195 -44.7396 5.6720 0.7708
49.7239 -37.1052 5.4279 0.7795
54.1065 -22.8761 5.1394 0.7899
53.8139 4.4308 4.7240 0.8051
51.6153 10.6075 4.6101 0.8093
24.8265 16.7905 1.5707 0.8869
3.9945 5.6604 0.3631 0.9726
2.2222 5.6713 0.3192 0.9759
1.4669 5.6760 0.3072 0.9768
0.7564 5.6803 0.3003 0.9773
-0.6208 5.6888 0.2999 0.9773
-1.3285 5.6931 0.3064 0.9769
-2.0784 5.6978 0.3179 0.9760
-2.8946 5.6939 0.3347 0.9747
-3.8244 5.7013 0.3598 0.9729
-4.9178 5.7054 0.3948 0.9703
-8.0611 5.7345 0.5185 0.9611
-10.5810 5.7500 0.6311 0.9529
-7.0329 2.7866 0.3965 0.9702
-22.0465 5.7872 1.1946 0.9127
-73.6480 -37.0893 4.3215 0.7187
-31.6907 -34.5225 2.4560 0.8289
-24.7866 -34.5647 2.2291 0.8434
-13.8538 -34.5810 1.9523 0.8614
-11.8524 -44.4649 2.4117 0.8317
15.7066 -44.0939 2.4531 0.8290
29.7815 -45.1336 2.8339 0.8053
24.2427 -28.5604 1.9633 0.8607
42.9282 -23.7520 2.5712 0.8216
59.1134 -15.9975 3.2094 0.7825
49.2289 4.8063 2.5922 0.8203
47.2783 16.6390 2.6267 0.8181
25.6290 16.7722 1.6052 0.8845
6.2150 6.6681 0.4777 0.9641
0.1535 5.6840 0.2980 0.9775
-0.5336 5.6883 0.2994 0.9774
-1.2376 5.6926 0.3053 0.9769
-1.9808 5.6971 0.3161 0.9761
-2.7863 5.6931 0.3322 0.9749
-4.7675 5.7038 0.3896 0.9707
-6.0847 5.7145 0.4375 0.9671
-7.8054 5.7329 0.5075 0.9620
-10.2435 5.7696 0.6161 0.9540
-6.9893 2.8928 0.3964 0.9702
-25.5859 -34.5598 2.2535 0.8418
-19.6367 -34.5562 2.0830 0.8528
-11.8723 -41.9701 2.2859 0.8397
12.0854 -57.6956 3.0893 0.7897
20.0838 -59.2095 3.2767 0.7785
21.6254 -45.0482 2.6188 0.8186
28.8045 -45.1276 2.8057 0.8070
28.5937 -27.2652 2.0706 0.8536
49.7239 -37.1052 3.2514 0.7800
49.6744 -28.4775 3.0008 0.7951
59.1743 -25.0187 3.3670 0.7731
59.1199 -16.9660 3.2234 0.7816
59.0221 -2.2668 3.0955 0.7893
53.7373 11.0436 2.8751 0.8027
24.8561 21.5899 0.5747 0.8766
5.2993 5.8614 0.1379 0.9689
3.9945 5.6604 0.1209 0.9727
3.0514 5.6662 0.1123 0.9746
2.2222 5.6713 0.1063 0.9759
1.4669 5.6760 0.1023 0.9768
0.7564 5.6803 0.1000 0.9773
-1.3285 5.6931 0.1020 0.9769
-2.0784 5.6978 0.1059 0.9760
-2.8870 5.6789 0.1112 0.9748
-4.8870 5.6696 0.1307 0.9705
-8.0611 5.7345 0.1727 0.9612
-7.0328 2.7866 0.1320 0.9702
-22.0465 5.7872 0.3979 0.9128
-67.5665 -15.4962 1.2100 0.7578
-73.6518 -37.0912 1.4394 0.7190
-31.3334 -34.1334 0.8088 0.8308
-10.5075 -19.1619 0.3815 0.9163
-11.8525 -44.4651 0.8032 0.8319
24.2427 -28.5604 0.6539 0.8608
29.4823 -27.2707 0.7010 0.8516
39.9648 -22.1126 0.7970 0.8330
68.0990 -27.5819 1.2825 0.7453
49.9173 11.0505 0.8924 0.8150
24.5017 8.6231 0.4534 0.9013
5.3703 5.7618 0.1375 0.9690
3.1628 5.6655 0.1133 0.9744
0.1536 5.6840 0.0993 0.9775
-0.5336 5.6883 0.0997 0.9774
-1.2376 5.6926 0.1017 0.9770
-1.9808 5.6971 0.1053 0.9762
-2.7803 5.6808 0.1104 0.9750
-4.7380 5.6685 0.1290 0.9709
-20.8518 5.8131 0.3778 0.9170
-72.5290 -35.1567 1.4069 0.7244
-32.3697 -34.2057 0.8220 0.8283
-27.8042 -37.5561 0.8156 0.8295
-17.7567 -31.2479 0.6273 0.8661
-14.2965 -34.1748 0.6466 0.8623
-10.9555 -70.0526 1.2376 0.7530
20.0030 -58.9711 1.0869 0.7795
21.6635 -45.1276 0.8737 0.8185
24.1812 -37.8844 0.7845 0.8354
24.2372 -29.4481 0.6657 0.8585
28.5937 -27.2652 0.6896 0.8538
51.6153 10.6075 0.9198 0.8099
33.5642 17.2234 -0.6585 0.8599
24.8265 16.7905 -0.5231 0.8870
24.8561 21.5899 -0.5747 0.8766
5.2993 5.8614 -0.1379 0.9689
3.9945 5.6604 -0.1209 0.9727
3.0514 5.6662 -0.1123 0.9746
1.4669 5.6760 -0.1023 0.9768
0.7564 5.6803 -0.1000 0.9773
0.0673 5.6846 -0.0992 0.9775
-0.6208 5.6888 -0.0999 0.9774
-2.0784 5.6978 -0.1059 0.9760
-3.8029 5.6692 -0.1192 0.9731
-23.4846 21.3946 -0.5545 0.8807
-7.0327 2.7866 -0.1320 0.9702
-37.4221 5.1275 -0.6593 0.8598
-64.7063 1.0114 -1.1296 0.7719
-83.1965 -19.0809 -1.4899 0.7107
-67.5168 -34.0016 -1.3195 0.7390
-71.2912 -47.4309 -1.4946 0.7099
-15.8426 -22.0923 -0.4745 0.8969
-10.5074 -19.1617 -0.3815 0.9163
-8.2083 -30.7937 -0.5563 0.8803
-8.1622 -57.9361 -1.0213 0.7913
20.0452 -56.2739 -1.0427 0.7874
20.8495 -41.7946 -0.8153 0.8296
24.1929 -36.6640 -0.7667 0.8388
24.2427 -28.5604 -0.6539 0.8608
41.7763 -23.1147 -0.8334 0.8261
87.2180 -23.6033 -1.5771 0.6966
25.6291 16.7723 -0.5346 0.8847
24.8521 20.9333 -0.5672 0.8781
5.3703 5.7618 -0.1375 0.9690
4.1239 5.6596 -0.1222 0.9724
3.1628 5.6655 -0.1133 0.9744
1.5547 5.6596 -0.1024 0.9768
0.8442 5.6798 -0.1002 0.9773
0.1536 5.6840 -0.0993 0.9775
-1.9808 5.6971 -0.1053 0.9762
-2.7803 5.6808 -0.1104 0.9750
-3.6790 5.6685 -0.1180 0.9733
-6.0049 5.6396 -0.1438 0.9676
-6.9892 2.8927 -0.1320 0.9702
-20.8518 5.8131 -0.3778 0.9170
-64.9059 1.9999 -1.1335 0.7712
-57.0623 -12.1788 -1.0184 0.7918
-67.2008 -32.5740 -1.3035 0.7417
-71.0240 -45.7139 -1.4743 0.7133
-68.6029 -56.9013 -1.5558 0.7001
-16.3314 -22.0595 -0.4791 0.8960
-13.3803 -23.5462 -0.4727 0.8973
-10.5120 -25.1281 -0.4754 0.8968
-8.5044 -30.0640 -0.5454 0.8825
-7.9810 -51.0325 -0.9016 0.8133
24.1853 -37.8908 -0.7846 0.8354
24.2372 -29.4481 -0.6657 0.8585
28.5937 -27.2652 -0.6896 0.8538
41.4355 -23.7542 -0.8337 0.8261
65.3146 -27.6148 -1.2378 0.7530
19.2535 13.0214 -1.2181 0.9111
5.2993 5.8614 -0.4141 0.9688
3.9945 5.6604 -0.3631 0.9726
0.7564 5.6803 -0.3003 0.9773
-1.3285 5.6931 -0.3064 0.9769
-3.7922 5.6533 -0.3568 0.9731
-4.8489 5.6254 -0.3892 0.9707
-10.5524 5.7345 -0.6294 0.9530
-7.0327 2.7865 -0.3964 0.9702
-43.6970 -10.0218 -2.3495 0.8356
-42.6345 -21.4708 -2.5017 0.8260
-39.7433 -26.4417 -2.5017 0.8260
-20.8140 -22.6740 -1.6130 0.8840
-15.7727 -21.9949 -1.4184 0.8973
-10.4905 -19.1310 -1.1435 0.9163
-8.1683 -30.6437 -1.6620 0.8807
-5.8461 -41.4963 -2.1962 0.8455
15.0434 -42.2322 -2.3495 0.8356
24.3468 -28.6830 -1.9717 0.8601
27.2261 -25.1837 -1.9437 0.8620
36.3329 -26.2638 -2.3495 0.8356
38.6034 -21.3592 -2.3121 0.8380
37.8689 -15.3379 -2.1412 0.8490
47.2433 -6.8386 -2.5017 0.8260
47.7228 -1.1081 -2.5017 0.8260
43.9061 9.7197 -2.3567 0.8352
19.2244 9.4993 -1.1238 0.9177
19.8693 13.0030 -1.2445 0.9093
24.5505 20.6793 -1.6822 0.8793
5.3703 5.7618 -0.4128 0.9689
4.1239 5.6596 -0.3670 0.9723
3.1628 5.6655 -0.3401 0.9743
0.1535 5.6840 -0.2980 0.9775
-0.5336 5.6883 -0.2994 0.9774
-1.9808 5.6971 -0.3161 0.9761
-2.7803 5.6808 -0.3315 0.9750
-32.3221 4.9294 -1.7135 0.8773
-45.0629 1.3885 -2.3628 0.8348
-43.8441 -9.3577 -2.3495 0.8356
-45.1474 -15.5052 -2.5017 0.8260
-42.9553 -20.8215 -2.5017 0.8260
-34.5067 -28.6209 -2.3495 0.8356
-16.2591 -21.9619 -1.4321 0.8963
-8.4923 -30.0214 -1.6351 0.8825
-1.6511 -47.7071 -2.5017 0.8260
4.0975 -47.5595 -2.5017 0.8260
9.7867 -46.7217 -2.5017 0.8260
14.4009 -42.4556 -2.3495 0.8356
19.4016 -40.4159 -2.3495 0.8356
35.9302 -26.8120 -2.3495 0.8356
45.8837 -13.1675 -2.5017 0.8260
47.1341 -7.5546 -2.5017 0.8260
47.7005 -1.8320 -2.5017 0.8260
44.6803 3.6788 -2.3495 0.8356
44.0015 9.0428 -2.3542 0.8353
19.4917 10.0022 -1.9167 0.9158
5.2993 5.8615 -0.6913 0.9688
3.9945 5.6604 -0.6061 0.9726
0.7564 5.6803 -0.5014 0.9773
0.0673 5.6846 -0.4974 0.9774
-0.6208 5.6888 -0.5007 0.9773
-2.0784 5.6978 -0.5306 0.9759
-3.7815 5.6374 -0.5939 0.9731
-4.8346 5.6088 -0.6478 0.9707
-6.1056 5.5622 -0.7226 0.9674
-8.0611 5.7345 -0.8655 0.9611
-10.5441 5.7300 -1.0499 0.9530
-7.0326 2.7865 -0.6618 0.9701
-22.0465 5.7872 -1.9942 0.9125
-26.6065 3.6455 -2.3495 0.8978
-26.8518 0.4197 -2.3495 0.8978
-27.8712 -6.3922 -2.5017 0.8915
-26.9003 -9.6972 -2.5017 0.8915
-21.7298 -18.5870 -2.5017 0.8915
-18.1607 -19.7835 -2.3495 0.8978
-15.6399 -21.8098 -2.3480 0.8978
-9.9228 -24.7687 -2.3344 0.8984
-6.9169 -25.9491 -2.3495 0.8978
-3.9891 -28.3151 -2.5017 0.8915
12.7646 -25.5876 -2.5017 0.8915
16.7433 -19.7253 -2.2636 0.9013
25.0203 -13.8436 -2.5017 0.8915
26.5034 -10.7346 -2.5017 0.8915
27.6019 -7.4697 -2.5017 0.8915
28.2998 -4.0965 -2.5017 0.8915
28.5871 -0.6638 -2.5017 0.8915
26.7280 2.6095 -2.3495 0.8978
26.2203 5.8045 -2.3495 0.8978
19.4209 6.8350 -1.8013 0.9207
4.1239 5.6596 -0.6127 0.9723
3.1628 5.6655 -0.5677 0.9743
0.1536 5.6840 -0.4975 0.9774
-1.2376 5.6926 -0.5097 0.9769
-1.9808 5.6971 -0.5277 0.9761
-2.7803 5.6808 -0.5533 0.9749
-7.8054 5.7329 -0.8473 0.9619
-20.8518 5.8131 -1.8939 0.9168
-26.8424 0.8271 -2.3495 0.8978
-27.9649 -5.9686 -2.5017 0.8915
-25.7312 -12.4726 -2.5017 0.8915
-24.0447 -15.4762 -2.5017 0.8915
-22.0093 -18.2552 -2.5017 0.8915
-15.9793 -21.5838 -2.3495 0.8978
17.0660 -20.7352 -2.3495 0.8978
24.8074 -14.2216 -2.5017 0.8915
27.4854 -7.8877 -2.5017 0.8915
28.2344 -4.5254 -2.5017 0.8915
26.7645 2.2037 -2.3495 0.8978
26.3054 5.4061 -2.3495 0.8978
17.0508 8.7496 -2.3531 0.9257
6.6482 5.7745 -1.0812 0.9651
3.9945 5.6604 -0.8506 0.9725
3.0514 5.6662 -0.7902 0.9744
0.7564 5.6803 -0.7036 0.9772
0.0673 5.6846 -0.6980 0.9773
-0.6208 5.6888 -0.7026 0.9772
-1.3285 5.6931 -0.7178 0.9767
-2.0784 5.6978 -0.7447 0.9759
-3.7792 5.6339 -0.8330 0.9730
-4.8203 5.5922 -0.9065 0.9707
-8.0611 5.7345 -1.2147 0.9609
-10.4975 5.7047 -1.4670 0.9530
-7.0325 2.7865 -0.9288 0.9700
-18.9582 2.5976 -2.3495 0.9258
-20.3657 0.3183 -2.5009 0.9212
-19.8593 -4.5547 -2.5017 0.9212
-16.9635 -11.2860 -2.5017 0.9212
-15.4833 -13.2440 -2.5017 0.9212
-11.8736 -16.5576 -2.5017 0.9212
-7.5771 -18.9136 -2.5017 0.9212
-2.8424 -20.1756 -2.5017 0.9212
-0.3957 -20.3710 -2.5017 0.9212
11.2216 -17.0062 -2.5017 0.9212
14.9573 -13.8353 -2.5017 0.9212
16.5124 -11.9363 -2.5017 0.9212
18.8847 -7.6488 -2.5017 0.9212
20.1647 -2.9189 -2.5017 0.9212
20.3694 -0.4730 -2.5017 0.9212
19.0448 1.8594 -2.3495 0.9258
18.6830 4.1359 -2.3495 0.9258
18.0501 6.3525 -2.3495 0.9258
8.6372 5.6524 -1.2674 0.9593
4.1239 5.6596 -0.8598 0.9722
3.1628 5.6655 -0.7967 0.9742
2.3219 5.6707 -0.7524 0.9756
1.5547 5.6596 -0.7207 0.9766
0.1535 5.6840 -0.6982 0.9773
-1.9808 5.6971 -0.7406 0.9760
-5.8941 5.5355 -0.9928 0.9679
-18.4324 5.1386 -2.3495 0.9258
-18.9166 2.8849 -2.3495 0.9258
-20.2929 -1.8259 -2.5017 0.9212
-19.9261 -4.2529 -2.5017 0.9212
-19.2701 -6.6180 -2.5017 0.9212
-18.3345 -8.8872 -2.5017 0.9212
-17.1328 -11.0274 -2.5017 0.9212
-14.0046 -14.7989 -2.5017 0.9212
-12.1234 -16.3755 -2.5017 0.9212
-7.8632 -18.7964 -2.5017 0.9212
-0.7047 -20.3627 -2.5017 0.9212
1.7489 -20.2997 -2.5017 0.9212
4.1772 -19.9421 -2.5017 0.9212
14.7457 -14.0606 -2.5017 0.9212
20.3599 -0.7820 -2.5017 0.9212
19.5481 1.6095 -2.4083 0.9240
18.7436 3.8520 -2.3495 0.9258
12.2984 8.3175 -2.3515 0.9416
6.5481 5.6876 -1.3737 0.9655
3.9945 5.6604 -1.0973 0.9723
2.2222 5.6713 -0.9647 0.9756
0.7564 5.6803 -0.9076 0.9771
0.0673 5.6846 -0.9004 0.9772
-0.6208 5.6888 -0.9064 0.9771
-2.0784 5.6978 -0.9606 0.9757
-4.7851 5.5514 -1.1608 0.9708
-10.4975 5.7047 -1.8923 0.9528
-14.3482 3.7664 -2.3495 0.9417
-15.3955 -3.5309 -2.5017 0.9380
-6.7849 -2.4459 -1.1423 0.9712
-6.6435 -3.3456 -1.1781 0.9703
-12.0031 -10.2671 -2.5017 0.9380
-10.6815 -11.6360 -2.5017 0.9380
-9.2048 -12.8359 -2.5017 0.9380
-4.0683 -15.2623 -2.5017 0.9380
-2.2035 -15.6408 -2.5017 0.9380
-0.3068 -15.7922 -2.5017 0.9380
1.5944 -15.7145 -2.5017 0.9380
10.2215 -12.0420 -2.5017 0.9380
11.5954 -10.7255 -2.5017 0.9380
12.8009 -9.2534 -2.5017 0.9380
13.8207 -7.6470 -2.5017 0.9380
15.6323 -2.2628 -2.5017 0.9380
15.7910 -0.3667 -2.5017 0.9380
14.4836 3.2063 -2.3495 0.9417
13.2993 6.5715 -2.3495 0.9417
12.4194 8.1275 -2.3508 0.9417
6.7508 5.6863 -1.3980 0.9649
1.5547 5.6596 -0.9296 0.9765
0.8442 5.6798 -0.9095 0.9770
0.1536 5.6840 -0.9006 0.9772
-0.5336 5.6883 -0.9049 0.9771
-1.2376 5.6926 -0.9227 0.9767
-1.9808 5.6971 -0.9553 0.9759
-2.7803 5.6808 -1.0017 0.9747
-3.6540 5.6300 -1.0630 0.9732
-5.8030 5.4500 -1.2609 0.9683
-7.8054 5.7329 -1.5339 0.9615
-10.2435 5.7696 -1.8621 0.9535
-6.9889 2.8926 -1.1980 0.9698
-14.2894 3.9836 -2.3495 0.9417
-14.6647 2.2365 -2.3495 0.9417
-15.4473 -3.2969 -2.5017 0.9380
-6.6461 -3.2215 -1.1698 0.9705
-9.3984 -12.6948 -2.5017 0.9380
-7.8037 -13.7328 -2.5017 0.9380
-2.4406 -15.6055 -2.5017 0.9380
1.3558 -15.7369 -2.5017 0.9380
3.2383 -15.4597 -2.5017 0.9380
8.4983 -13.3142 -2.5017 0.9380
10.0376 -12.1957 -2.5017 0.9380
12.6591 -9.4465 -2.5017 0.9380
14.5483 -6.1510 -2.5017 0.9380
15.7836 -0.6062 -2.5017 0.9380
15.1395 1.2465 -2.4060 0.9403
10.7540 5.5184 -2.3495 0.9519
3.9945 5.6604 -1.3467 0.9722
2.2222 5.6713 -1.1840 0.9755
1.4669 5.6760 -1.1395 0.9764
0.7564 5.6803 -1.1139 0.9769
0.0673 5.6846 -1.1050 0.9771
-0.6208 5.6888 -1.1124 0.9770
-2.0784 5.6978 -1.1789 0.9756
-2.8615 5.6289 -1.2274 0.9746
-4.7354 5.4937 -1.4098 0.9709
-7.0324 2.7864 -1.4704 0.9696
-12.5445 -2.8771 -2.5017 0.9489
-8.7034 -9.4812 -2.5017 0.9489
-7.5002 -10.4589 -2.5017 0.9489
-6.1881 -11.2850 -2.5017 0.9489
-4.7862 -11.9472 -2.5017 0.9489
-3.3149 -12.4360 -2.5017 0.9489
2.8294 -12.5553 -2.5017 0.9489
4.3187 -12.1240 -2.5017 0.9489
8.3287 -9.8120 -2.5017 0.9489
9.4481 -8.7393 -2.5017 0.9489
10.4304 -7.5398 -2.5017 0.9489
11.9289 -4.8315 -2.5017 0.9489
12.7375 -1.8438 -2.5017 0.9489
11.8015 2.6126 -2.3495 0.9519
11.4017 4.0127 -2.3495 0.9519
9.2448 7.7870 -2.3495 0.9519
3.1628 5.6655 -1.2613 0.9739
0.1536 5.6840 -1.1053 0.9771
-1.2376 5.6926 -1.1324 0.9765
-1.9808 5.6971 -1.1724 0.9757
-2.7583 5.6358 -1.2196 0.9748
-3.6192 5.5764 -1.2922 0.9733
-4.6005 5.5040 -1.3944 0.9712
-5.6739 5.3287 -1.5130 0.9688
-7.8054 5.7329 -1.8825 0.9613
-10.2435 5.7696 -2.2853 0.9532
-11.9491 1.8223 -2.3495 0.9519
-12.8184 -1.1534 -2.5017 0.9489
-9.9062 -8.2165 -2.5017 0.9489
-8.8463 -9.3480 -2.5017 0.9489
-6.3586 -11.1898 -2.5017 0.9489
-4.9670 -11.8732 -2.5017 0.9489
-3.5032 -12.3843 -2.5017 0.9489
1.1048 -12.8227 -2.5017 0.9489
2.6386 -12.5968 -2.5017 0.9489
4.1342 -12.1881 -2.5017 0.9489
5.5698 -11.6026 -2.5017 0.9489
11.1656 -6.4010 -2.5017 0.9489
12.3709 -3.5502 -2.5017 0.9489
12.7080 -2.0368 -2.5017 0.9489
12.8607 -0.4940 -2.5017 0.9489
12.7201 1.0473 -2.4809 0.9493
3.9945 5.6604 -1.5994 0.9720
2.2222 5.6713 -1.4063 0.9753
0.7564 5.6803 -1.3230 0.9767
0.0673 5.6846 -1.3125 0.9769
-0.6208 5.6888 -1.3212 0.9768
-2.8528 5.6117 -1.4534 0.9745
-8.2927 5.8992 -2.3495 0.9591
-10.7123 1.4678 -2.4962 0.9566
-10.8348 0.1694 -2.5017 0.9565
-10.7766 -1.1347 -2.5017 0.9565
-8.7275 -2.0017 -2.0672 0.9639
-6.3148 -8.8059 -2.5017 0.9565
-5.2101 -9.5014 -2.5017 0.9565
-0.2105 -10.8341 -2.5017 0.9565
1.0938 -10.7808 -2.5017 0.9565
2.3823 -10.5710 -2.5017 0.9565
3.6361 -10.2079 -2.5017 0.9565
4.8372 -9.6966 -2.5017 0.9565
5.9681 -9.0446 -2.5017 0.9565
9.4816 -5.2461 -2.5017 0.9565
10.4599 -2.8307 -2.5017 0.9565
10.7244 -1.5524 -2.5017 0.9565
10.8332 -0.2515 -2.5017 0.9565
10.6982 1.0445 -2.4816 0.9568
7.7836 6.5563 -2.3495 0.9591
5.3703 5.7618 -1.8184 0.9682
4.1239 5.6596 -1.6167 0.9717
3.1628 5.6655 -1.4980 0.9737
2.3219 5.6707 -1.4147 0.9752
0.1535 5.6840 -1.3127 0.9769
-0.5336 5.6883 -1.3190 0.9768
-1.2376 5.6926 -1.3449 0.9764
-1.9808 5.6971 -1.3925 0.9755
-3.5846 5.5231 -1.5201 0.9733
-4.5531 5.4473 -1.6391 0.9713
-6.9099 2.8599 -1.7265 0.9698
-10.5004 1.6014 -2.4522 0.9573
-10.7925 -0.9711 -2.5017 0.9565
-10.5975 -2.2618 -2.5017 0.9565
-6.1716 -2.1195 -1.5065 0.9736
-5.7006 -3.6691 -1.5651 0.9726
-2.9495 -10.4270 -2.5017 0.9565
-1.6743 -10.7060 -2.5017 0.9565
3.4808 -10.2619 -2.5017 0.9565
5.8302 -9.1341 -2.5017 0.9565
6.8862 -8.3667 -2.5017 0.9565
8.6846 -6.4807 -2.5017 0.9565
9.9807 -4.2198 -2.5017 0.9565
9.9685 2.0486 -2.3495 0.9591
7.2633 4.9123 -2.3495 0.9643
5.2993 5.8614 -2.1173 0.9678
3.9945 5.6604 -1.8563 0.9717
2.2222 5.6713 -1.6321 0.9751
1.4669 5.6760 -1.5708 0.9760
0.7564 5.6803 -1.5355 0.9765
0.0673 5.6846 -1.5233 0.9767
-0.6208 5.6888 -1.5334 0.9766
-2.0784 5.6978 -1.6251 0.9752
-2.8528 5.6117 -1.6868 0.9743
-4.6286 5.3698 -1.8996 0.9711
-7.7044 4.1868 -2.3495 0.9643
-6.8771 2.7249 -1.9821 0.9698
-9.2425 1.2664 -2.4996 0.9621
-9.3354 0.1459 -2.5017 0.9621
-9.1003 -2.0871 -2.5017 0.9621
-5.7248 -2.0637 -1.6306 0.9751
-5.3335 -2.6859 -1.6001 0.9756
-5.1473 -3.4246 -1.6566 0.9747
-4.4891 -8.1865 -2.5017 0.9621
-3.4721 -8.6669 -2.5017 0.9621
-1.3025 -9.2452 -2.5017 0.9621
-0.1813 -9.3348 -2.5017 0.9621
2.0526 -9.1081 -2.5017 0.9621
4.1678 -8.3547 -2.5017 0.9621
5.1422 -7.7929 -2.5017 0.9621
6.8540 -6.3398 -2.5017 0.9621
7.5666 -5.4697 -2.5017 0.9621
8.5612 1.8953 -2.3495 0.9643
7.8612 3.8844 -2.3495 0.9643
6.7064 5.6489 -2.3495 0.9643
5.3703 5.7618 -2.1105 0.9679
3.1628 5.6655 -1.7386 0.9735
2.3219 5.6707 -1.6419 0.9749
0.8442 5.6798 -1.5386 0.9765
-2.7553 5.6298 -1.6795 0.9744
-3.5573 5.4810 -1.7508 0.9733
-4.5059 5.3908 -1.8826 0.9713
-5.4272 5.0970 -1.9950 0.9696
-6.8749 2.8454 -1.9937 0.9697
-9.2135 1.4051 -2.4973 0.9621
-9.3321 0.2875 -2.5017 0.9621
-9.1309 -1.9488 -2.5017 0.9621
-5.9843 -2.0552 -1.6954 0.9741
-5.1637 -3.3236 -1.6454 0.9749
-6.4174 -6.7814 -2.5017 0.9621
-5.5554 -7.5039 -2.5017 0.9621
-4.6128 -8.1175 -2.5017 0.9621
-3.6032 -8.6132 -2.5017 0.9621
0.8014 -9.3021 -2.5017 0.9621
2.9991 -8.8417 -2.5017 0.9621
4.0405 -8.4169 -2.5017 0.9621
5.0233 -7.8700 -2.5017 0.9621
7.4828 -5.5838 -2.5017 0.9621
8.5995 -3.6359 -2.5017 0.9621
8.9743 -2.5754 -2.5017 0.9621
