ply
format ascii 1.0
element vertex 679
property float32 x
property float32 y
property float32 z
property float32 I
end_header
-14.2163 -30.4185 8.9968 0.8702
-14.3978 -43.9260 12.3861 0.8258
-9.5253 -47.9038 13.0871 0.8169
51.6300 -32.5509 16.3542 0.7767
29.1484 16.7506 9.0081 0.8700
26.7660 20.0134 8.9551 0.8708
26.2974 25.1196 9.7445 0.8602
2.7167 5.6683 1.6842 0.9743
1.1866 5.6777 1.5542 0.9763
0.4874 5.6820 1.5281 0.9767
-1.6117 5.6949 1.5859 0.9758
-2.3847 5.6996 1.6555 0.9747
-30.6948 19.7723 9.7833 0.8597
-45.1286 -12.5352 12.5500 0.8237
-18.3364 -28.1634 9.0048 0.8701
-14.3881 -29.2853 8.7429 0.8736
-15.3494 -43.9202 12.4664 0.8248
-9.4973 -43.3329 11.8866 0.8322
51.5673 -33.9326 16.5405 0.7744
40.3207 16.1818 11.6415 0.8353
30.4938 16.7423 9.3213 0.8658
26.7610 19.2087 8.8266 0.8725
27.0218 31.6088 11.1426 0.8418
3.7653 5.6618 1.8219 0.9722
2.8533 5.6674 1.7002 0.9741
2.0446 5.6724 1.6156 0.9753
1.3023 5.6770 1.5607 0.9762
-64.5147 -19.2808 15.5453 0.7585
-58.3178 -25.4068 14.6859 0.7702
26.8165 -46.1429 12.3213 0.8032
51.6871 -53.5857 17.1884 0.7367
51.6300 -32.5509 14.0909 0.7784
22.3887 0.8906 5.1729 0.9121
86.7079 14.0121 20.2778 0.6973
5.9135 5.6486 1.8880 0.9670
4.6480 5.6564 1.6902 0.9704
3.6011 5.6506 1.5469 0.9729
2.7167 5.6683 1.4512 0.9745
1.9209 5.6732 1.3828 0.9757
1.1866 5.6777 1.3391 0.9765
0.4874 5.6820 1.3166 0.9769
-0.1985 5.6862 1.3136 0.9769
-3.2416 5.7049 1.5148 0.9734
-45.9736 -12.7698 11.0157 0.8221
-35.6316 -42.5115 12.8061 0.7964
-18.3463 -28.1787 7.7629 0.8711
18.1260 -44.5363 11.1010 0.8209
51.8542 13.8607 12.3918 0.8022
4.8346 5.6553 1.7177 0.9699
3.7653 5.6618 1.5698 0.9725
2.8533 5.6674 1.4649 0.9743
2.0446 5.6724 1.3921 0.9756
1.3023 5.6770 1.3447 0.9764
-73.7940 -32.1492 15.6462 0.7204
-34.9382 -43.3728 10.8259 0.7970
-14.7057 -31.4657 6.7513 0.8680
-12.0180 -36.6656 7.5002 0.8545
16.1605 -55.0496 11.1521 0.7915
26.2278 -45.1300 10.1462 0.8084
45.4672 -47.1374 12.7304 0.7658
58.2529 -27.5713 12.5275 0.7690
64.9522 10.4963 12.7892 0.7648
51.9611 14.9794 10.5115 0.8022
38.1847 16.1950 8.0623 0.8445
29.1484 16.7506 6.5348 0.8720
26.7660 20.0134 6.4964 0.8727
5.9135 5.6486 1.5896 0.9672
3.6011 5.6506 1.3025 0.9731
2.7167 5.6683 1.2218 0.9747
1.1866 5.6777 1.1275 0.9766
-2.3847 5.6996 1.2010 0.9751
-4.1974 5.6709 1.3714 0.9717
-68.7304 -38.6116 15.3237 0.7253
-16.6108 -33.8093 7.3222 0.8577
-9.9742 -45.5085 9.0559 0.8271
24.6763 -90.5465 18.2423 0.6822
43.5281 -46.9224 12.4410 0.7704
53.4638 -45.2566 13.6157 0.7517
51.5630 -33.9298 11.9981 0.7776
52.3049 13.9812 10.5240 0.8020
40.3209 16.1819 8.4452 0.8377
26.7611 19.2087 6.4031 0.8744
3.7653 5.6618 1.3217 0.9727
2.8533 5.6674 1.2334 0.9745
2.0446 5.6724 1.1720 0.9757
1.3023 5.6770 1.1322 0.9765
-86.4069 6.1416 13.7200 0.7041
-88.5069 -15.1887 14.2230 0.6951
-29.4680 -36.5820 7.4400 0.8268
13.2686 -45.1983 7.4608 0.8263
18.5417 -43.1322 7.4360 0.8268
25.5548 -43.9720 8.0552 0.8139
34.0449 -45.0725 8.9464 0.7955
43.5030 -45.1009 9.9248 0.7759
51.6134 -41.9924 10.5385 0.7638
56.5296 -11.5269 9.1377 0.7916
56.0389 -4.5320 8.9047 0.7964
56.5260 9.1347 9.0690 0.7930
38.1847 16.1950 6.5693 0.8454
29.1484 16.7506 5.3247 0.8727
4.6480 5.6564 1.1596 0.9708
2.7167 5.6683 0.9956 0.9749
1.1866 5.6777 0.9187 0.9768
-0.1985 5.6862 0.9012 0.9772
-5.4091 5.7182 1.2467 0.9686
-6.9012 5.7274 1.4204 0.9643
-86.8285 42.1361 15.2861 0.6765
-64.4357 -47.2084 12.6515 0.7236
-69.8335 -65.4172 15.1554 0.6787
-30.6557 -36.5747 7.5586 0.8243
-15.2691 -31.0784 5.4843 0.8692
-10.8085 -49.3153 7.9962 0.8151
33.5871 -46.3149 9.0614 0.7932
53.4194 -45.2190 11.0851 0.7532
29.4529 -14.6490 5.2100 0.8753
56.0548 -12.5720 9.0988 0.7924
56.0322 -5.6318 8.9193 0.7961
56.0372 7.9391 8.9641 0.7952
26.7611 19.2087 5.2174 0.8751
6.1225 5.6244 1.3168 0.9669
4.8346 5.6553 1.1784 0.9703
1.3023 5.6770 0.9225 0.9767
-88.4379 6.2859 10.8862 0.6996
-35.3991 -34.4791 6.0675 0.8194
-21.4355 -34.3694 4.9735 0.8494
-17.0809 -36.5479 4.9534 0.8499
-12.0181 -36.6657 4.7376 0.8560
13.9704 -47.5891 6.0898 0.8188
51.5139 -41.9114 8.1541 0.7652
73.5258 -24.4970 9.5157 0.7317
56.2159 2.2363 6.9079 0.7971
56.1226 9.0695 6.9804 0.7952
38.1847 16.1950 5.0927 0.8461
29.1484 16.7506 4.1278 0.8733
26.7661 20.0135 4.1036 0.8740
5.9135 5.6486 1.0041 0.9676
2.7167 5.6683 0.7718 0.9750
1.1866 5.6777 0.7122 0.9769
0.4874 5.6820 0.7002 0.9773
-0.8912 5.6904 0.7072 0.9771
-2.3847 5.6996 0.7586 0.9754
-3.2416 5.7049 0.8057 0.9739
-5.4091 5.7182 0.9665 0.9688
-6.9012 5.7274 1.1012 0.9645
-8.9104 5.7397 1.3014 0.9582
-66.4584 -18.4597 8.4690 0.7573
-28.9497 -34.5394 5.5336 0.8339
-8.6234 -17.5518 2.4011 0.9242
-9.9742 -45.5085 5.7204 0.8288
24.4501 -44.0229 6.1830 0.8163
32.7543 -45.1666 6.8505 0.7986
53.4195 -45.2190 8.5935 0.7542
71.1689 -25.2620 9.2726 0.7376
56.0431 -12.5694 7.0522 0.7934
52.3049 13.9812 6.6477 0.8040
30.4938 16.7424 4.2714 0.8692
4.8346 5.6553 0.9135 0.9705
2.8533 5.6674 0.7791 0.9748
-67.0127 -20.0274 6.1191 0.7552
-22.8346 -36.6127 3.7751 0.8409
-17.1214 -36.6344 3.5379 0.8501
-12.0181 -36.6657 3.3758 0.8565
13.8820 -47.2881 4.3118 0.8205
18.3475 -42.6806 4.0645 0.8298
33.8708 -44.8419 4.9165 0.7980
51.5693 -32.5126 5.3336 0.7829
55.9595 -18.6443 5.1604 0.7891
56.0965 -11.4386 5.0088 0.7946
56.1389 -4.5400 4.9276 0.7976
56.0878 2.2312 4.9109 0.7982
56.2227 9.0857 4.9827 0.7956
19.3086 5.5663 1.7581 0.9225
38.1847 16.1950 3.6288 0.8466
29.1484 16.7506 2.9413 0.8737
26.7661 20.0135 2.9240 0.8744
5.9135 5.6486 0.7155 0.9677
2.7167 5.6683 0.5499 0.9751
1.9209 5.6732 0.5240 0.9762
1.1866 5.6777 0.5075 0.9770
-0.8912 5.6904 0.5039 0.9771
-1.6117 5.6949 0.5178 0.9765
-4.1974 5.6709 0.6173 0.9721
-5.4091 5.7182 0.6886 0.9689
-6.9012 5.7274 0.7846 0.9646
-8.9104 5.7397 0.9273 0.9583
-30.6557 -36.5748 4.1752 0.8256
-15.3656 -31.2748 3.0486 0.8694
-12.8124 -36.6608 3.3976 0.8556
14.8549 -54.5080 4.9428 0.7970
17.5086 -43.0193 4.0635 0.8299
24.4623 -44.0447 4.4078 0.8169
32.9063 -45.3762 4.9039 0.7985
40.7262 -43.9021 5.2391 0.7863
55.5992 -27.6533 5.4327 0.7793
55.9520 -19.8606 5.1944 0.7879
56.0810 1.1376 4.9075 0.7983
50.2508 7.1193 4.4403 0.8156
20.7900 5.5572 1.8828 0.9172
40.3208 16.1819 3.8011 0.8399
30.4938 16.7423 3.0435 0.8696
6.1225 5.6244 0.7274 0.9672
4.8346 5.6553 0.6509 0.9706
2.0446 5.6724 0.5275 0.9761
1.3023 5.6770 0.5096 0.9769
-30.2972 5.8712 1.6173 0.8837
-66.8173 -19.9690 3.6548 0.7563
-21.5697 -34.5845 2.1361 0.8494
-11.5194 -35.1443 1.9383 0.8623
15.2706 -91.6594 4.8699 0.6892
16.6797 -56.8180 3.1034 0.7888
19.1285 -44.4974 2.5384 0.8237
26.2855 -27.2510 1.9843 0.8593
44.9871 -21.2925 2.6084 0.8193
61.0631 -20.3447 3.3731 0.7727
60.9118 2.4231 3.1948 0.7834
19.3086 5.5663 1.0531 0.9227
38.1847 16.1950 2.1737 0.8469
29.1484 16.7506 1.7619 0.8740
5.9135 5.6486 0.4286 0.9678
2.7167 5.6683 0.3294 0.9751
1.1866 5.6777 0.3040 0.9770
-1.6088 5.6843 0.3096 0.9766
-2.3795 5.6873 0.3231 0.9756
-3.2320 5.6881 0.3429 0.9741
-4.1974 5.6709 0.3698 0.9721
-5.4091 5.7182 0.4125 0.9690
-11.8651 5.7579 0.6912 0.9485
-27.3410 5.8530 1.4653 0.8940
-42.2816 -1.2697 2.2169 0.8441
-22.5132 -34.5787 2.1624 0.8477
-9.9742 -45.5086 2.4416 0.8298
-8.7569 -91.6064 4.8228 0.6917
13.6787 -93.2763 4.9407 0.6855
14.9707 -54.9329 2.9839 0.7961
17.9356 -44.0685 2.4935 0.8265
24.4501 -44.0229 2.6391 0.8173
32.7437 -45.1520 2.9230 0.7998
26.1645 -28.2048 2.0162 0.8572
52.0112 -34.2248 3.2630 0.7793
44.5136 -22.1397 2.6055 0.8194
61.0721 -21.6780 3.3963 0.7714
61.0184 -13.6852 3.2773 0.7784
44.3951 6.2897 2.3499 0.8356
30.4939 16.7424 1.8231 0.8699
4.8346 5.6553 0.3899 0.9706
3.7653 5.6618 0.3563 0.9731
2.8533 5.6674 0.3325 0.9749
2.0446 5.6724 0.3160 0.9761
-17.9765 5.7954 0.3297 0.9272
-65.2726 -19.5074 1.1891 0.7614
-17.8004 -28.5409 0.5871 0.8741
-11.9708 -36.5215 0.6709 0.8575
26.5425 -90.4148 1.6448 0.6859
22.1933 -51.6268 0.9809 0.7987
24.4796 -42.1218 0.8504 0.8229
26.1253 -34.5875 0.7566 0.8408
26.2855 -27.2510 0.6609 0.8594
33.5495 -27.2957 0.7549 0.8411
46.0578 -21.7993 0.8894 0.8156
83.2064 -27.7223 1.5309 0.7041
40.5088 17.1807 0.7680 0.8386
4.6480 5.6564 0.1278 0.9711
2.7167 5.6683 0.1097 0.9752
1.1866 5.6777 0.1012 0.9771
-3.2144 5.6571 0.1136 0.9743
-4.1925 5.6644 0.1230 0.9722
-5.4091 5.7182 0.1374 0.9690
-6.9012 5.7274 0.1565 0.9648
-16.8252 5.7884 0.3106 0.9313
-27.3411 5.8530 0.4881 0.8942
-63.7902 -17.7186 1.1556 0.7673
-28.6203 -34.1464 0.7777 0.8367
-16.7829 -34.1596 0.6643 0.8588
-12.7620 -36.5166 0.6752 0.8566
-8.4650 -88.5530 1.5527 0.7006
23.6358 -86.7284 1.5690 0.6979
21.9787 -54.0027 1.0177 0.7920
26.1165 -36.0134 0.7765 0.8370
26.1645 -28.2048 0.6715 0.8573
32.2362 -27.2876 0.7372 0.8445
41.5559 -27.3449 0.8683 0.8195
42.5171 -21.1467 0.8289 0.8270
78.0174 -27.6929 1.4450 0.7181
41.6354 16.7094 0.7831 0.8357
6.1225 5.6244 0.1451 0.9673
2.0446 5.6724 0.1052 0.9762
1.3023 5.6770 0.1017 0.9770
-17.9765 5.7954 -0.3297 0.9272
-62.9711 4.4758 -1.1019 0.7768
-81.0127 -13.9026 -1.4347 0.7198
-65.6290 -19.6139 -1.1956 0.7603
-81.2582 -35.4011 -1.5471 0.7015
-26.9180 -26.2185 -0.6559 0.8604
-13.8833 -22.2602 -0.4579 0.9004
-6.1726 -31.0423 -0.5525 0.8811
17.0222 -39.5976 -0.7523 0.8416
26.2855 -27.2510 -0.6609 0.8594
33.5495 -27.2957 -0.7549 0.8411
43.3904 -27.3562 -0.8953 0.8145
59.2163 -28.0273 -1.1435 0.7694
29.1485 16.7507 -0.5868 0.8742
26.7661 20.0135 -0.5834 0.8748
1.1866 5.6777 -0.1012 0.9771
0.4874 5.6820 -0.0995 0.9774
-0.1985 5.6862 -0.0993 0.9775
-1.6010 5.6568 -0.1026 0.9768
-3.1970 5.6265 -0.1130 0.9744
-4.1679 5.6312 -0.1223 0.9724
-6.9012 5.7274 -0.1565 0.9648
-16.8252 5.7884 -0.3106 0.9313
-26.8360 5.7449 -0.4790 0.8960
-61.5216 5.5789 -1.0783 0.7810
-81.2799 -12.3240 -1.4350 0.7197
-63.7790 -17.7155 -1.1554 0.7673
-67.0669 -37.6771 -1.3427 0.7351
-14.4636 -22.2152 -0.4627 0.8994
-11.5822 -23.5741 -0.4585 0.9003
-6.5806 -30.0248 -0.5365 0.8843
-6.2048 -64.9091 -1.1382 0.7704
26.1165 -36.0134 -0.7765 0.8370
26.1645 -28.2048 -0.6715 0.8573
32.2362 -27.2876 -0.7372 0.8445
41.5559 -27.3449 -0.8683 0.8195
42.9425 -21.3583 -0.8372 0.8254
68.7720 1.3951 -1.2007 0.7594
30.4939 16.7424 -0.6072 0.8701
26.7611 19.2087 -0.5750 0.8765
4.8346 5.6553 -0.1299 0.9707
3.7653 5.6618 -0.1187 0.9732
2.8533 5.6674 -0.1108 0.9749
2.0446 5.6724 -0.1052 0.9762
1.3023 5.6770 -0.1017 0.9770
-45.1315 3.2078 -2.3712 0.8342
-44.9048 -2.2246 -2.3562 0.8352
-44.1871 -7.5829 -2.3496 0.8356
-45.5962 -13.6269 -2.4940 0.8264
-43.7642 -19.0664 -2.5018 0.8260
-41.1560 -24.1871 -2.5018 0.8260
-37.9513 -28.9574 -2.5018 0.8260
-26.4367 -25.7497 -1.9341 0.8626
-18.1107 -22.4829 -1.5130 0.8908
-11.0194 -23.5780 -1.3640 0.9010
-3.3963 -44.7042 -2.3496 0.8356
2.1298 -47.6896 -2.5018 0.8260
7.8450 -47.0881 -2.5018 0.8260
17.7061 -41.1885 -2.3496 0.8356
26.0213 -34.4498 -2.2626 0.8412
33.4196 -27.1900 -2.2579 0.8415
37.9248 -23.9103 -2.3496 0.8356
33.0228 -15.6298 -1.9147 0.8639
46.7746 -9.5378 -2.5018 0.8260
41.8632 6.7652 -2.2224 0.8438
18.6435 5.3746 -1.0169 0.9252
22.5385 9.5591 -1.2830 0.9066
22.5978 12.9862 -1.3659 0.9009
5.9135 5.6486 -0.4286 0.9678
1.9209 5.6732 -0.3139 0.9763
0.4874 5.6820 -0.2989 0.9774
-0.8876 5.6677 -0.3007 0.9773
-1.5971 5.6431 -0.3074 0.9768
-5.4091 5.7182 -0.4125 0.9690
-6.9012 5.7274 -0.4700 0.9647
-8.8669 5.7117 -0.5528 0.9586
-26.3342 5.6375 -1.4114 0.8977
-42.1934 -1.2671 -2.2123 0.8444
-44.2376 -12.2876 -2.4062 0.8320
-44.1273 -18.2104 -2.5018 0.8260
-32.7194 -30.6502 -2.3496 0.8356
-11.4075 -23.2185 -1.3558 0.9016
-6.5385 -29.8326 -1.6006 0.8849
21.7680 -39.1937 -2.3496 0.8356
26.0125 -35.8700 -2.3221 0.8374
37.4520 -24.6444 -2.3496 0.8356
43.2466 -15.3507 -2.4050 0.8321
46.5800 -10.4470 -2.5018 0.8260
47.7273 0.9682 -2.5018 0.8260
41.8581 5.9303 -2.2156 0.8442
20.3371 5.4361 -1.1032 0.9191
21.1303 11.6014 -1.2633 0.9080
6.1225 5.6244 -0.4357 0.9672
2.8533 5.6674 -0.3325 0.9749
2.0446 5.6724 -0.3160 0.9761
1.3023 5.6770 -0.3052 0.9769
-26.3655 5.1093 -2.3496 0.8978
-26.8231 -1.3288 -2.3496 0.8978
-27.3983 -8.1883 -2.5018 0.8915
-22.7337 -17.3461 -2.5018 0.8915
-16.8473 -20.9144 -2.3496 0.8978
-13.6076 -21.8183 -2.2497 0.9019
-8.1048 -24.7267 -2.2765 0.9008
-5.2376 -26.3403 -2.3496 0.8978
-2.1662 -28.5135 -2.5018 0.8915
1.2758 -28.5672 -2.5018 0.8915
8.0547 -27.4378 -2.5018 0.8915
11.2934 -26.2711 -2.5018 0.8915
18.6445 -19.3294 -2.3496 0.8978
21.5890 -17.5647 -2.4350 0.8943
25.8468 -12.2334 -2.5018 0.8915
28.0191 -5.7134 -2.5018 0.8915
28.5026 -2.3048 -2.5018 0.8915
28.5722 1.1366 -2.5017 0.8915
21.7194 6.2613 -1.9776 0.9132
21.7987 16.2993 -2.3813 0.8965
5.9135 5.6486 -0.7155 0.9677
3.6011 5.6506 -0.5862 0.9735
2.7167 5.6683 -0.5499 0.9751
1.1866 5.6777 -0.5075 0.9770
-0.1985 5.6862 -0.4978 0.9774
-0.8876 5.6677 -0.5019 0.9772
-2.3560 5.6311 -0.5340 0.9758
-3.1765 5.5903 -0.5625 0.9745
-5.4091 5.7182 -0.6886 0.9689
-6.9012 5.7274 -0.7846 0.9646
-11.4661 5.5643 -1.1150 0.9501
-26.2798 5.6258 -2.3513 0.8977
-28.2725 -4.2868 -2.5018 0.8915
-24.9309 -14.0058 -2.5018 0.8915
-20.8084 -19.4925 -2.4945 0.8918
-17.2514 -20.5824 -2.3496 0.8978
-14.2509 -21.8885 -2.2851 0.9004
-11.3126 -23.0254 -2.2445 0.9021
0.7192 -28.5866 -2.5018 0.8915
7.5188 -27.5894 -2.5018 0.8915
18.2645 -19.6888 -2.3496 0.8978
20.9864 -17.7648 -2.4056 0.8955
26.9483 -9.5655 -2.5018 0.8915
27.9025 -6.2580 -2.5018 0.8915
28.4523 -2.8597 -2.5018 0.8915
28.5898 0.5800 -2.5018 0.8915
23.3859 6.2511 -2.1178 0.9074
14.0099 5.6225 -1.3207 0.9412
8.5053 6.1050 -0.9160 0.9588
4.8346 5.6553 -0.6509 0.9706
3.7653 5.6618 -0.5949 0.9731
2.8533 5.6674 -0.5551 0.9748
2.0446 5.6724 -0.5275 0.9761
-18.2128 5.8716 -2.3496 0.9258
-18.7864 3.6406 -2.3496 0.9258
-19.0878 1.3567 -2.3496 0.9258
-20.0819 -3.4463 -2.5018 0.9212
-8.2265 -3.5840 -1.1018 0.9645
-17.5665 -10.3237 -2.5018 0.9212
-14.5961 -14.2167 -2.5018 0.9212
-3.9737 -19.9843 -2.5018 0.9212
3.3484 -20.0985 -2.5018 0.9212
5.7393 -19.5505 -2.5018 0.9212
8.0470 -18.7192 -2.5018 0.9212
19.3308 -6.4405 -2.5018 0.9212
19.9647 -4.0710 -2.5018 0.9212
20.3594 0.8099 -2.5018 0.9212
18.3871 5.3007 -2.3496 0.9258
16.6386 9.5616 -2.3563 0.9256
3.6011 5.6506 -0.8227 0.9734
2.7167 5.6683 -0.7718 0.9750
1.1866 5.6777 -0.7122 0.9769
-0.1985 5.6862 -0.6986 0.9773
-1.5947 5.6345 -0.7190 0.9767
-5.4091 5.7182 -0.9665 0.9688
-6.9012 5.7274 -1.1012 0.9645
-16.8252 5.7884 -2.1847 0.9308
-18.7120 4.0057 -2.3496 0.9258
-19.0577 1.7282 -2.3496 0.9258
-20.1452 -3.0545 -2.5018 0.9212
-8.1884 -3.3792 -1.0877 0.9649
-17.7642 -9.9796 -2.5018 0.9212
-14.8702 -13.9298 -2.5018 0.9212
-13.0885 -15.6157 -2.5018 0.9212
-11.1172 -17.0754 -2.5018 0.9212
-4.3622 -19.9031 -2.5018 0.9212
-1.9389 -20.2830 -2.5018 0.9212
2.9564 -20.1599 -2.5018 0.9212
5.3575 -19.6585 -2.5018 0.9212
7.6809 -18.8723 -2.5018 0.9212
9.8930 -17.8126 -2.5018 0.9212
11.9618 -16.4947 -2.5018 0.9212
13.8572 -14.9378 -2.5018 0.9212
19.2017 -6.8158 -2.5018 0.9212
20.2733 -2.0377 -2.5018 0.9212
18.4869 4.9416 -2.3496 0.9258
17.7591 7.1272 -2.3496 0.9258
16.8129 9.2309 -2.3550 0.9256
8.0973 5.8121 -1.2238 0.9606
2.8533 5.6674 -0.7791 0.9748
2.0446 5.6724 -0.7403 0.9760
1.3023 5.6770 -0.7151 0.9768
-7.6409 -2.2836 -1.2631 0.9682
-12.5577 -9.5817 -2.5018 0.9380
-11.3153 -11.0212 -2.5018 0.9380
-9.9089 -12.3011 -2.5018 0.9380
-8.3590 -13.4027 -2.5018 0.9380
12.2527 -9.9687 -2.5018 0.9380
13.3618 -8.4242 -2.5018 0.9380
15.4772 -3.1560 -2.5018 0.9380
15.7443 -1.2733 -2.5018 0.9380
14.6448 2.3666 -2.3496 0.9417
13.6572 5.7923 -2.3496 0.9417
5.9135 5.6486 -1.2952 0.9674
4.6480 5.6564 -1.1596 0.9708
2.7167 5.6683 -0.9956 0.9749
1.9209 5.6732 -0.9487 0.9760
1.1866 5.6777 -0.9187 0.9768
-0.8876 5.6677 -0.9086 0.9770
-5.4091 5.7182 -1.2467 0.9686
-6.9012 5.7274 -1.4204 0.9643
-10.9267 5.3025 -1.9236 0.9520
-14.0278 4.8260 -2.3496 0.9417
-14.5061 3.1054 -2.3496 0.9417
-14.7741 1.3398 -2.3496 0.9417
-15.7886 -0.4741 -2.5018 0.9380
-7.9056 -2.1959 -1.2995 0.9673
-7.4759 -3.0851 -1.2809 0.9678
-13.7714 -7.7365 -2.5018 0.9380
-12.7419 -9.3353 -2.5018 0.9380
-6.9653 -14.1771 -2.5018 0.9380
9.2732 -12.7872 -2.5018 0.9380
13.1952 -8.6828 -2.5018 0.9380
15.4128 -3.4568 -2.5018 0.9380
15.7165 -1.5797 -2.5018 0.9380
15.7925 0.3204 -2.5018 0.9380
13.7674 5.5252 -2.3496 0.9417
8.0973 5.8121 -1.5787 0.9604
4.8346 5.6553 -1.1784 0.9703
3.7653 5.6618 -1.0769 0.9728
2.8533 5.6674 -1.0050 0.9746
1.3023 5.6770 -0.9225 0.9767
-11.5045 3.7089 -2.3496 0.9519
-11.8668 2.2996 -2.3496 0.9519
-12.8382 0.9125 -2.5018 0.9489
-12.6852 -2.1769 -2.5018 0.9489
-6.9792 -3.0405 -1.4798 0.9695
-10.2322 -7.8073 -2.5018 0.9489
-9.2199 -8.9803 -2.5018 0.9489
-8.0740 -10.0232 -2.5018 0.9489
-6.8111 -10.9207 -2.5018 0.9489
-4.0088 -12.2304 -2.5018 0.9489
-2.5101 -12.6235 -2.5018 0.9489
-0.9750 -12.8336 -2.5018 0.9489
0.5742 -12.8578 -2.5018 0.9489
2.1151 -12.6956 -2.5018 0.9489
3.6254 -12.3495 -2.5018 0.9489
5.0830 -11.8244 -2.5018 0.9489
6.4671 -11.1279 -2.5018 0.9489
7.7574 -10.2701 -2.5018 0.9489
8.9353 -9.2635 -2.5018 0.9489
9.9837 -8.1227 -2.5018 0.9489
10.8874 -6.8641 -2.5018 0.9489
11.6334 -5.5061 -2.5018 0.9489
12.2107 -4.0683 -2.5018 0.9489
12.6111 -2.5715 -2.5018 0.9489
12.8604 0.5116 -2.5018 0.9489
11.9328 1.9284 -2.3496 0.9519
11.1281 4.7197 -2.3496 0.9519
8.0899 6.0490 -1.9635 0.9597
5.9135 5.6486 -1.5896 0.9672
4.6480 5.6564 -1.4231 0.9706
1.9209 5.6732 -1.1642 0.9759
1.1866 5.6777 -1.1275 0.9766
0.4874 5.6820 -1.1085 0.9770
-0.1985 5.6862 -1.1060 0.9771
-1.5873 5.6085 -1.1330 0.9765
-2.3275 5.5630 -1.1722 0.9757
-3.1306 5.5096 -1.2318 0.9745
-3.9859 5.3852 -1.3023 0.9731
-11.4301 3.9323 -2.3496 0.9519
-11.8198 2.5303 -2.3496 0.9519
-12.8036 1.1611 -2.4990 0.9490
-12.8648 -0.3863 -2.5018 0.9489
-12.7252 -1.9294 -2.5018 0.9489
-6.9934 -2.8860 -1.4706 0.9696
-11.2212 -6.3039 -2.5018 0.9489
-10.3823 -7.6066 -2.5018 0.9489
-8.2677 -9.8640 -2.5018 0.9489
-5.6755 -11.5517 -2.5018 0.9489
0.3237 -12.8666 -2.5018 0.9489
1.8675 -12.7344 -2.5018 0.9489
6.2492 -11.2517 -2.5018 0.9489
7.5559 -10.4192 -2.5018 0.9489
10.7517 -7.0749 -2.5018 0.9489
11.5239 -5.7316 -2.5018 0.9489
12.5586 -2.8167 -2.5018 0.9489
12.8680 0.2610 -2.5018 0.9489
11.9681 1.6956 -2.3496 0.9519
11.6776 3.1214 -2.3496 0.9519
8.0973 5.8121 -1.9374 0.9602
6.1225 5.6244 -1.6160 0.9667
4.8346 5.6553 -1.4462 0.9701
2.8533 5.6674 -1.2334 0.9745
-10.8092 0.7683 -2.5018 0.9565
-10.8232 -0.5362 -2.5018 0.9565
-10.6803 -1.8329 -2.5018 0.9565
-6.2879 -3.6953 -1.6838 0.9705
-8.6151 -6.5734 -2.5018 0.9565
-5.7346 -9.1947 -2.5018 0.9565
-4.5882 -9.8172 -2.5018 0.9565
0.4835 -10.8257 -2.5018 0.9565
5.4450 -9.3692 -2.5018 0.9565
7.5231 -7.7995 -2.5018 0.9565
8.4058 -6.8389 -2.5018 0.9565
9.1667 -5.7793 -2.5018 0.9565
10.2809 -3.4253 -2.5018 0.9565
10.8279 0.4307 -2.5018 0.9565
9.3694 3.9738 -2.3496 0.9591
8.0899 6.0490 -2.3321 0.9594
5.9135 5.6486 -1.8880 0.9670
2.7167 5.6683 -1.4512 0.9745
1.9209 5.6732 -1.3828 0.9757
0.4874 5.6820 -1.3166 0.9769
-0.1985 5.6862 -1.3136 0.9769
-3.1015 5.4585 -1.4494 0.9746
-5.4091 5.7182 -1.8172 0.9682
-6.9012 5.7274 -2.0705 0.9639
-8.5558 5.5113 -2.3496 0.9591
-10.8316 -0.3253 -2.5018 0.9565
-7.3230 -2.0341 -1.7547 0.9693
-6.4473 -2.6607 -1.6102 0.9718
-7.9085 -7.4084 -2.5018 0.9565
-6.9610 -8.3050 -2.5018 0.9565
-5.9126 -9.0813 -2.5018 0.9565
-4.7785 -9.7260 -2.5018 0.9565
-3.5751 -10.2297 -2.5018 0.9565
-1.0312 -10.7873 -2.5018 0.9565
0.2725 -10.8330 -2.5018 0.9565
2.8493 -10.4552 -2.5018 0.9565
4.0850 -10.0370 -2.5018 0.9565
6.3617 -8.7725 -2.5018 0.9565
7.3698 -7.9445 -2.5018 0.9565
8.2710 -7.0013 -2.5018 0.9565
10.5738 -2.3715 -2.5018 0.9565
10.4192 1.4762 -2.4295 0.9577
9.8320 2.6281 -2.3496 0.9591
8.0973 5.8121 -2.3011 0.9599
4.8346 5.6553 -1.7177 0.9699
2.8533 5.6674 -1.4649 0.9743
2.0446 5.6724 -1.3921 0.9756
1.3023 5.6770 -1.3447 0.9764
-9.3254 -0.4620 -2.5018 0.9621
-5.9537 -3.4989 -1.8504 0.9718
-5.8572 -7.2712 -2.5018 0.9621
-3.9532 -8.4586 -2.5018 0.9621
-2.9081 -8.8724 -2.5018 0.9621
-0.7073 -9.3100 -2.5018 0.9621
5.6275 -7.4503 -2.5018 0.9621
6.4820 -6.7201 -2.5018 0.9621
7.8981 -4.9795 -2.5018 0.9621
8.4393 -3.9943 -2.5018 0.9621
8.8581 -2.9513 -2.5018 0.9621
9.3064 -0.7526 -2.5018 0.9621
9.3294 0.3711 -2.5018 0.9621
8.4257 2.4290 -2.3496 0.9643
7.0227 5.2510 -2.3496 0.9643
1.9209 5.6732 -1.6049 0.9755
-0.1985 5.6862 -1.5245 0.9767
-2.2864 5.4649 -1.5873 0.9758
-3.8253 5.1683 -1.7229 0.9737
-6.7477 5.6000 -2.3496 0.9643
-7.3718 4.7486 -2.3496 0.9643
-7.8890 3.8283 -2.3496 0.9643
-8.2918 2.8526 -2.3496 0.9643
-8.5745 1.8356 -2.3496 0.9643
-9.2987 0.8432 -2.5018 0.9621
-7.2891 -2.0246 -2.0270 0.9692
-6.0595 -2.5006 -1.7564 0.9732
-7.5317 -5.5181 -2.5018 0.9621
-6.8141 -6.3832 -2.5018 0.9621
-5.9977 -7.1557 -2.5018 0.9621
-4.1172 -8.3800 -2.5018 0.9621
-1.9989 -9.1203 -2.5018 0.9621
0.2348 -9.3339 -2.5018 0.9621
1.3547 -9.2380 -2.5018 0.9621
2.4550 -9.0083 -2.5018 0.9621
5.4814 -7.5585 -2.5018 0.9621
6.3499 -6.8451 -2.5018 0.9621
8.7990 -3.1233 -2.5018 0.9621
9.2900 -0.9337 -2.5018 0.9621
9.3349 0.1894 -2.5018 0.9621
8.7053 1.2333 -2.3559 0.9642
8.1379 3.2660 -2.3496 0.9643
6.1225 5.6244 -2.2277 0.9662
2.8533 5.6674 -1.7002 0.9741
