ply
format ascii 1.0
element vertex 697
property float32 x
property float32 y
property float32 z
property float32 I
end_header
37.6761 -88.9040 25.8726 0.6704
51.1478 -32.5707 16.2479 0.7779
86.9151 13.7113 23.5768 0.6946
3.6315 5.6627 1.8025 0.9725
2.7357 5.6682 1.6864 0.9743
1.9373 5.6731 1.6063 0.9755
1.2012 5.6776 1.5550 0.9763
0.5008 5.6819 1.5284 0.9767
-0.1859 5.6861 1.5244 0.9767
-3.2287 5.7048 1.7564 0.9732
-4.2061 5.7015 1.8984 0.9711
-20.7382 21.9871 8.0986 0.8824
-30.6136 19.7718 9.7650 0.8599
51.1068 -33.4739 16.3699 0.7765
39.9613 16.1840 11.5524 0.8365
26.2786 18.9983 8.6887 0.8743
26.7852 31.5654 11.0926 0.8425
3.7345 5.6620 1.8174 0.9723
0.5743 5.6815 1.5301 0.9766
-0.8028 5.6790 1.5368 0.9765
-2.2868 5.6990 1.6454 0.9749
-4.1004 5.7102 1.8837 0.9713
-20.5455 22.3504 8.1346 0.8819
-29.7606 19.7666 9.5730 0.8625
18.4889 -43.6280 10.9395 0.8232
26.4952 -46.1223 12.2801 0.8038
51.2058 -53.5964 17.1132 0.7376
51.3776 14.6099 12.3317 0.8031
38.5535 16.1927 9.6540 0.8423
29.3745 16.7492 7.8066 0.8704
5.9463 5.6447 1.8928 0.9669
3.6315 5.6627 1.5531 0.9728
2.7357 5.6682 1.4530 0.9745
-3.2287 5.7048 1.5134 0.9734
-24.3144 20.2331 7.3028 0.8782
-31.2846 20.2052 8.5980 0.8582
-18.4469 -28.3621 7.8110 0.8703
-15.6139 -44.7810 10.9489 0.8231
-10.1909 -46.6876 11.0325 0.8219
25.0980 -45.0176 11.8992 0.8093
51.1973 -54.9828 17.3447 0.7346
87.8987 12.7129 20.5042 0.6945
39.9614 16.1840 9.9537 0.8378
26.3790 19.0710 7.5149 0.8749
6.0935 5.6375 1.9165 0.9665
1.2774 5.6771 1.3434 0.9764
0.5743 5.6815 1.3183 0.9768
-0.8028 5.6790 1.3241 0.9767
-3.1324 5.7042 1.5024 0.9736
-4.1004 5.7102 1.6230 0.9716
-5.5704 2.7995 1.4393 0.9747
55.3849 -45.4900 13.9316 0.7467
51.0904 -32.5342 11.7736 0.7813
57.5892 -27.5672 12.4106 0.7709
51.3776 14.6099 10.3827 0.8044
38.5535 16.1927 8.1282 0.8433
29.3744 16.7492 6.5728 0.8713
5.9502 5.6484 1.5947 0.9671
2.7357 5.6682 1.2234 0.9747
1.9373 5.6731 1.1653 0.9759
0.5008 5.6819 1.1087 0.9770
-1.5997 5.6948 1.1498 0.9762
-3.2287 5.7048 1.2742 0.9736
-4.2130 5.7109 1.3795 0.9715
-5.3933 5.7181 1.5279 0.9685
-6.8826 5.7273 1.7405 0.9642
-69.0061 -38.7625 15.3848 0.7243
-22.4290 -34.4846 7.9962 0.8457
-14.9077 -30.3886 6.5794 0.8712
15.0923 -55.0832 11.1017 0.7924
41.2219 -56.6346 13.6160 0.7517
51.0847 -33.4594 11.8702 0.7797
55.7181 -27.5557 12.0826 0.7762
90.2414 13.0517 17.7237 0.6897
39.9615 16.1841 8.3806 0.8389
30.4395 16.8427 6.7622 0.8678
4.7990 5.6555 1.4418 0.9702
3.7345 5.6620 1.3184 0.9727
2.8256 5.6676 1.2310 0.9745
2.0188 5.6726 1.1704 0.9758
1.2774 5.6771 1.1311 0.9766
0.5743 5.6815 1.1100 0.9770
-0.1128 5.6857 1.1054 0.9771
-2.2868 5.6990 1.1936 0.9753
-3.1324 5.7042 1.2650 0.9738
-6.7044 5.7262 1.7138 0.9647
-5.5697 2.7992 1.2117 0.9749
-26.6595 -3.6813 5.2313 0.8961
13.0092 -45.1969 7.4491 0.8266
18.5844 -43.8534 7.5437 0.8246
33.6977 -45.0703 8.9131 0.7962
42.8856 -44.8877 9.8327 0.7777
51.0904 -32.5342 9.5933 0.7825
58.5416 -28.0231 10.2796 0.7689
51.3275 14.5957 8.4518 0.8056
29.3745 16.7492 5.3556 0.8720
4.6762 5.6562 1.1624 0.9707
3.6315 5.6627 1.0655 0.9731
2.7357 5.6682 0.9968 0.9748
1.9373 5.6731 0.9495 0.9760
-0.1859 5.6861 0.9011 0.9772
-2.3724 5.6996 0.9778 0.9753
-3.2287 5.7048 1.0382 0.9738
-6.8826 5.7273 1.4181 0.9644
-86.5637 42.1217 15.2473 0.6771
-64.8341 -47.5088 12.7306 0.7222
-16.7436 -34.1310 6.0213 0.8573
-12.0771 -34.6373 5.8099 0.8619
-10.7666 -49.3247 7.9962 0.8151
17.7681 -43.4713 7.4381 0.8268
33.0055 -45.3462 8.8831 0.7968
18.3892 -19.7488 4.2740 0.8965
53.6379 -45.2200 11.1116 0.7527
55.8183 -27.6053 9.8628 0.7771
55.5935 1.2817 8.8075 0.7984
51.3232 13.8852 8.4210 0.8063
26.2786 18.9984 5.1359 0.8769
6.1042 5.6475 1.3171 0.9669
4.7990 5.6555 1.1748 0.9704
3.7345 5.6620 1.0743 0.9729
2.8256 5.6676 1.0030 0.9747
2.0188 5.6726 0.9536 0.9759
1.2774 5.6771 0.9216 0.9767
0.5743 5.6815 0.9044 0.9771
-0.1128 5.6857 0.9007 0.9772
-1.5210 5.6943 0.9335 0.9764
-2.2868 5.6990 0.9726 0.9754
-3.1324 5.7042 1.0307 0.9740
-4.1004 5.7102 1.1134 0.9719
-8.6165 5.7229 1.6383 0.9590
13.6897 -47.5611 6.0769 0.8192
25.1433 -43.7688 6.1978 0.8159
51.0327 -41.9154 8.1086 0.7663
57.5892 -27.5672 7.8394 0.7731
55.5566 -4.7170 6.8460 0.7988
55.5979 1.9958 6.8310 0.7992
51.3776 14.6099 6.5585 0.8063
29.3744 16.7492 4.1518 0.8726
2.7357 5.6682 0.7728 0.9750
1.9373 5.6731 0.7361 0.9761
1.2012 5.6776 0.7126 0.9769
0.5008 5.6819 0.7004 0.9773
-0.1859 5.6861 0.6985 0.9773
-9.7455 63.0905 7.8384 0.7732
-2.3724 5.6996 0.7580 0.9754
-3.2287 5.7048 0.8049 0.9739
-4.2130 5.7109 0.8714 0.9718
-6.8826 5.7273 1.0994 0.9646
-88.0858 -36.3335 11.6995 0.6811
-10.4704 -47.9679 6.0284 0.8205
-9.0075 -95.2110 11.7427 0.6802
24.4181 -43.7981 6.1570 0.8170
32.9762 -45.3059 6.8804 0.7979
18.3874 -19.7469 3.3130 0.8970
55.4706 -27.4333 7.5983 0.7793
73.0353 -25.7285 9.5078 0.7319
55.6451 -12.3333 6.9981 0.7948
55.7706 8.0662 6.9190 0.7968
39.9615 16.1841 5.2938 0.8405
30.2607 16.7438 4.2464 0.8699
6.1042 5.6475 1.0211 0.9670
3.7345 5.6620 0.8328 0.9730
2.8256 5.6676 0.7776 0.9748
2.0188 5.6726 0.7393 0.9760
0.5743 5.6815 0.7011 0.9772
-0.1128 5.6857 0.6982 0.9773
-0.8028 5.6790 0.7042 0.9772
-1.5210 5.6943 0.7237 0.9765
-2.2868 5.6990 0.7540 0.9756
-3.1324 5.7042 0.7990 0.9741
-4.1004 5.7102 0.8632 0.9721
-5.2556 5.7173 0.9535 0.9692
-6.7044 5.7262 1.0826 0.9651
13.4677 -46.7899 4.2598 0.8224
18.1873 -42.9164 4.0779 0.8293
25.2762 -44.0003 4.4395 0.8157
43.1995 -45.2163 5.4712 0.7779
51.0904 -32.5342 5.2992 0.7841
50.1455 -24.0040 4.8639 0.7999
55.4776 -18.7468 5.1233 0.7905
55.6051 1.9961 4.8679 0.7998
19.5690 5.5647 1.7799 0.9216
26.2818 19.5190 2.8641 0.8768
2.7357 5.6682 0.5506 0.9750
1.9373 5.6731 0.5245 0.9762
-0.1859 5.6861 0.4977 0.9774
-9.7456 63.0905 5.5852 0.7739
-1.5997 5.6948 0.5175 0.9765
-2.3724 5.6996 0.5401 0.9755
-3.2287 5.7048 0.5735 0.9740
-4.2130 5.7109 0.6209 0.9719
-5.3933 5.7181 0.6877 0.9689
-42.4689 -39.8000 5.0922 0.7916
-30.6346 -36.5749 4.1740 0.8257
-17.9692 -36.6292 3.5695 0.8489
-11.0456 -50.6028 4.5314 0.8122
24.4101 -43.7838 4.3857 0.8177
32.8363 -45.1138 4.8817 0.7993
18.3856 -19.7450 2.3604 0.8973
53.6379 -45.2200 6.1379 0.7545
51.0847 -33.4594 5.3427 0.7825
55.4171 -27.4069 5.4089 0.7802
55.6098 -12.3255 4.9833 0.7956
55.6007 1.2819 4.8657 0.7999
20.5464 5.5587 1.8622 0.9181
39.9615 16.1841 3.7720 0.8410
26.2786 18.9984 2.8370 0.8779
6.1042 5.6475 0.7275 0.9672
4.7990 5.6555 0.6489 0.9707
0.5743 5.6815 0.4996 0.9773
-0.1128 5.6857 0.4975 0.9774
-0.8028 5.6790 0.5018 0.9772
-1.5210 5.6943 0.5157 0.9766
-2.2868 5.6990 0.5372 0.9756
-6.7044 5.7262 0.7714 0.9652
14.7621 -91.6650 4.8659 0.6894
15.7278 -54.6422 2.9799 0.7963
19.0286 -44.9017 2.5558 0.8226
26.0341 -27.2495 1.9751 0.8599
33.2250 -27.2891 2.2533 0.8418
51.0904 -32.5342 3.1743 0.7846
44.4716 -21.2880 2.5839 0.8208
60.5826 -20.4718 3.3514 0.7740
60.5298 -12.6034 3.2403 0.7806
60.4801 -5.1350 3.1810 0.7842
60.4321 2.1694 3.1691 0.7849
44.2996 6.9885 2.3504 0.8356
38.5536 16.1927 2.1915 0.8458
7.0192 6.6632 0.5072 0.9620
4.6762 5.6562 0.3846 0.9710
3.6315 5.6627 0.3526 0.9734
1.9373 5.6731 0.3142 0.9763
0.5008 5.6819 0.2989 0.9774
-9.5909 62.0896 3.2926 0.7775
-1.5967 5.6842 0.3094 0.9766
-2.3683 5.6899 0.3230 0.9756
-4.2034 5.6978 0.3711 0.9720
-8.8240 5.6990 0.5505 0.9588
-11.8326 5.7577 0.6896 0.9487
-16.7139 5.7676 0.9266 0.9316
-27.2300 5.8523 1.4596 0.8944
-42.7626 -1.2604 2.2421 0.8425
-18.4250 -28.3286 1.7710 0.8734
-16.9551 -34.5621 2.0175 0.8571
13.3811 -90.4691 4.7929 0.6933
15.6686 -57.1868 3.1075 0.7886
25.6105 -35.1863 2.2808 0.8400
32.3683 -27.2884 2.2188 0.8440
44.1259 -21.8227 2.5799 0.8210
60.5885 -21.3438 3.3666 0.7731
60.4372 1.3934 3.1682 0.7849
39.9615 16.1841 2.2595 0.8414
26.2786 18.9984 1.6994 0.8782
1.2774 5.6771 0.3050 0.9770
0.5743 5.6815 0.2993 0.9774
-1.5181 5.6837 0.3083 0.9767
-3.1229 5.6870 0.3400 0.9743
-4.0907 5.6967 0.3675 0.9723
-6.6901 5.7140 0.4611 0.9654
-8.6165 5.7229 0.5421 0.9594
-5.5692 2.7989 0.3267 0.9753
-25.5807 5.8422 1.3751 0.9002
-30.3363 -0.5047 1.5901 0.8856
26.0235 -90.4116 1.6422 0.6863
21.5174 -50.7743 0.9625 0.8020
25.6458 -34.3010 0.7476 0.8425
33.2306 -27.2937 0.7506 0.8419
45.5765 -21.8169 0.8820 0.8170
41.7678 6.5891 0.7381 0.8444
19.5165 5.5498 0.3542 0.9220
29.4960 16.8185 0.5927 0.8730
26.3522 19.5712 0.5730 0.8769
6.5066 6.1766 0.1566 0.9647
4.6762 5.6562 0.1281 0.9711
2.7357 5.6682 0.1099 0.9751
1.9373 5.6731 0.1046 0.9763
-0.1859 5.6861 0.0993 0.9775
-9.4363 61.0886 1.0789 0.7809
-2.3623 5.6755 0.1073 0.9757
-4.1786 5.6643 0.1229 0.9722
-5.3933 5.7181 0.1372 0.9690
-6.8826 5.7273 0.1563 0.9648
-11.7656 5.7251 0.2284 0.9490
-42.8044 -1.2617 0.7475 0.8426
-64.2735 -17.8321 1.1643 0.7658
-28.6006 -34.1465 0.7775 0.8368
-18.3932 -28.2796 0.5888 0.8738
-12.7324 -36.5168 0.6750 0.8567
-11.0456 -50.6028 0.9041 0.8128
21.5060 -52.6166 0.9922 0.7966
25.6105 -35.1863 0.7596 0.8402
41.7511 -27.3461 0.8712 0.8190
40.7937 5.9000 0.7195 0.8480
20.5231 5.5524 0.3711 0.9185
41.1778 16.6767 0.7753 0.8372
4.7990 5.6555 0.1295 0.9708
2.8256 5.6676 0.1105 0.9750
-0.1128 5.6857 0.0993 0.9775
-0.8028 5.6790 0.1001 0.9773
-3.1105 5.6643 0.1128 0.9745
-4.0668 5.6634 0.1217 0.9725
-5.2556 5.7173 0.1356 0.9694
-6.7044 5.7262 0.1539 0.9653
-5.5691 2.7989 0.1088 0.9754
-16.0885 5.7839 0.2984 0.9339
25.9975 -90.3215 -1.6406 0.6866
24.0729 -41.9056 -0.8436 0.8242
25.6458 -34.3010 -0.7476 0.8425
26.0341 -27.2495 -0.6578 0.8600
42.9549 -27.3535 -0.8889 0.8157
82.0173 -27.7150 -1.5111 0.7073
26.2818 19.5190 -0.5714 0.8772
3.6315 5.6627 -0.1174 0.9734
2.7357 5.6682 -0.1099 0.9751
1.9373 5.6731 -0.1046 0.9763
-3.1949 5.6452 -0.1132 0.9744
-4.1542 5.6311 -0.1221 0.9724
-6.8826 5.7273 -0.1563 0.9648
-11.6382 5.6631 -0.2259 0.9495
-26.8474 5.7701 -0.4793 0.8960
-65.0018 -18.0342 -1.1775 0.7635
-70.4895 -51.6529 -1.5254 0.7050
-18.9503 -22.6250 -0.5151 0.8886
-11.6745 -23.7978 -0.4627 0.8994
23.3593 -41.8989 -0.8373 0.8254
25.6105 -35.1863 -0.7596 0.8402
18.3771 -19.7359 -0.4707 0.8977
41.7511 -27.3461 -0.8712 0.8190
79.2000 -27.9001 -1.4657 0.7147
43.5616 6.3004 -0.7683 0.8385
20.3449 5.5042 -0.3679 0.9191
26.2786 18.9984 -0.5660 0.8783
6.5740 6.0821 -0.1563 0.9648
3.7345 5.6620 -0.1184 0.9732
2.8256 5.6676 -0.1105 0.9750
2.0188 5.6726 -0.1051 0.9762
1.2774 5.6771 -0.1016 0.9770
0.5743 5.6815 -0.0997 0.9774
-0.1128 5.6857 -0.0993 0.9775
-3.1024 5.6497 -0.1125 0.9745
-5.2556 5.7173 -0.1356 0.9694
-5.5691 2.7989 -0.1088 0.9754
-16.0885 5.7839 -0.2984 0.9339
-25.4045 5.8020 -0.4549 0.9010
-61.9964 6.4677 -1.0880 0.7793
7.5900 -47.1295 -2.5018 0.8260
13.2041 -45.8742 -2.5018 0.8260
17.4933 -41.2789 -2.3496 0.8356
32.5706 -15.5911 -1.8924 0.8653
47.5656 -4.0385 -2.5018 0.8260
44.9106 1.6122 -2.3552 0.8353
41.3806 6.5280 -2.1955 0.8455
19.0440 5.4154 -1.0376 0.9238
-7.2719 47.0767 -2.4964 0.8263
-1.5900 5.6603 -0.3081 0.9767
-4.1300 5.5983 -0.3646 0.9725
-5.3933 5.7181 -0.4119 0.9690
-8.8240 5.6990 -0.5505 0.9588
-16.7139 5.7676 -0.9266 0.9316
-42.6614 -1.2575 -2.2368 0.8429
-44.3288 -6.7020 -2.3496 0.8356
-44.1300 -18.2027 -2.5018 0.8260
-41.6199 -23.3790 -2.5018 0.8260
-38.5054 -28.2158 -2.5018 0.8260
-14.3064 -21.9962 -1.3751 0.9002
1.2533 -47.7203 -2.5018 0.8260
6.9846 -47.2230 -2.5018 0.8260
16.6854 -40.8224 -2.3112 0.8381
21.8312 -39.1581 -2.3496 0.8356
25.5362 -35.0841 -2.2742 0.8405
18.3738 -19.7323 -1.4130 0.8976
30.1806 -25.4440 -2.0688 0.8538
32.4980 -16.0721 -1.9000 0.8648
42.9849 -15.1425 -2.3884 0.8331
46.6057 -10.3298 -2.5018 0.8260
47.5099 -4.6485 -2.5018 0.8260
20.5849 8.3367 -1.1639 0.9149
0.5743 5.6815 -0.2993 0.9774
-1.5128 5.6639 -0.3072 0.9768
-4.0199 5.5981 -0.3612 0.9728
-5.2556 5.7173 -0.4070 0.9694
-6.7044 5.7262 -0.4621 0.9653
-16.0885 5.7839 -0.8960 0.9338
-45.0628 4.7012 -2.3745 0.8340
-44.4112 -6.1326 -2.3496 0.8356
1.1175 -28.5736 -2.5018 0.8915
4.5466 -28.2316 -2.5018 0.8915
11.1577 -26.3287 -2.5018 0.8915
14.2438 -24.7954 -2.5018 0.8915
16.3284 -21.8391 -2.3857 0.8963
18.5519 -19.4180 -2.3496 0.8978
24.1201 -15.3596 -2.5018 0.8915
27.0905 -9.1543 -2.5018 0.8915
28.4929 -2.4192 -2.5018 0.8915
28.5770 1.0258 -2.5018 0.8915
26.5277 4.1849 -2.3496 0.8978
22.0124 6.2595 -2.0022 0.9122
21.0321 11.9924 -2.1182 0.9074
21.8486 16.2265 -2.3810 0.8965
6.5066 6.1766 -0.7849 0.9646
4.6762 5.6562 -0.6421 0.9710
3.6315 5.6627 -0.5885 0.9734
2.7357 5.6682 -0.5506 0.9750
1.9373 5.6731 -0.5245 0.9762
1.2012 5.6776 -0.5077 0.9770
0.5008 5.6819 -0.4990 0.9774
-0.1859 5.6861 -0.4977 0.9774
-4.2274 27.3674 -2.4227 0.8948
-1.5900 5.6603 -0.5144 0.9767
-2.3445 5.6326 -0.5338 0.9758
-3.1783 5.6159 -0.5646 0.9744
-4.1084 5.5690 -0.6055 0.9726
-6.8826 5.7273 -0.7834 0.9647
-8.8240 5.6990 -0.9190 0.9587
-16.7139 5.7676 -1.5469 0.9315
-26.7444 2.4437 -2.3496 0.8978
-26.8441 -0.7912 -2.3496 0.8978
-28.2741 -4.2747 -2.5018 0.8915
-24.9313 -14.0046 -2.5018 0.8915
-23.0656 -16.9019 -2.5018 0.8915
-20.5247 -19.2349 -2.4610 0.8932
-17.2443 -20.5880 -2.3496 0.8978
-9.3228 -19.0039 -1.8519 0.9185
-8.6151 -24.7083 -2.2893 0.9003
-5.7272 -26.2380 -2.3496 0.8978
-2.6933 -28.4683 -2.5018 0.8915
13.9245 -24.9761 -2.5018 0.8915
16.1756 -22.2236 -2.4048 0.8955
18.2892 -19.6415 -2.3480 0.8978
20.9108 -17.6290 -2.3928 0.8960
23.9211 -15.6678 -2.5018 0.8915
26.9708 -9.5011 -2.5018 0.8915
27.9179 -6.1878 -2.5018 0.8915
28.4595 -2.7846 -2.5018 0.8915
26.5792 3.8442 -2.3496 0.8978
13.8835 5.6227 -1.3105 0.9416
4.7990 5.6555 -0.6489 0.9707
3.7345 5.6620 -0.5934 0.9731
1.2774 5.6771 -0.5091 0.9769
0.5743 5.6815 -0.4996 0.9773
-1.5129 5.6639 -0.5129 0.9767
-2.2600 5.6322 -0.5309 0.9759
-4.0029 5.5744 -0.6004 0.9728
-6.7044 5.7262 -0.7714 0.9652
-8.6165 5.7229 -0.9050 0.9593
-5.5690 2.7988 -0.5453 0.9753
-26.7108 2.7866 -2.3496 0.8978
-26.8521 -0.4468 -2.3496 0.8978
-28.3266 -3.9116 -2.5018 0.8915
3.2396 -20.1161 -2.5018 0.9212
14.0752 -14.7323 -2.5018 0.9212
15.7452 -12.9322 -2.5018 0.9212
17.1865 -10.9443 -2.5018 0.9212
19.9475 -4.1534 -2.5018 0.9212
20.3023 -1.7238 -2.5018 0.9212
18.4060 5.2340 -2.3496 0.9258
17.6428 7.4101 -2.3496 0.9258
4.6762 5.6562 -0.9011 0.9709
1.2012 5.6776 -0.7126 0.9769
-0.1859 5.6861 -0.6985 0.9773
-2.9746 19.2566 -2.3924 0.9245
-1.5900 5.6603 -0.7219 0.9766
-3.1700 5.6012 -0.7902 0.9744
-6.8826 5.7273 -1.0994 0.9646
-16.7139 5.7676 -2.1710 0.9312
-19.0564 1.7412 -2.3496 0.9258
-20.3665 -0.6003 -2.5018 0.9212
-18.8359 -7.7694 -2.5018 0.9212
-17.7645 -9.9788 -2.5018 0.9212
-14.8671 -13.9328 -2.5018 0.9212
-13.0831 -15.6200 -2.5018 0.9212
-4.3452 -19.9066 -2.5018 0.9212
0.5350 -20.3683 -2.5018 0.9212
2.9812 -20.1561 -2.5018 0.9212
5.3842 -19.6511 -2.5018 0.9212
15.5780 -13.1332 -2.5018 0.9212
18.2638 -9.0325 -2.5018 0.9212
19.2178 -6.7699 -2.5018 0.9212
20.3699 0.4696 -2.5018 0.9212
18.9387 2.7391 -2.3496 0.9258
18.4717 4.9974 -2.3496 0.9258
17.7364 7.1831 -2.3496 0.9258
16.7838 9.2867 -2.3552 0.9256
6.5740 6.0821 -1.0997 0.9646
4.7990 5.6555 -0.9107 0.9706
2.8256 5.6676 -0.7776 0.9748
2.0188 5.6726 -0.7393 0.9760
0.5743 5.6815 -0.7011 0.9772
-0.1128 5.6857 -0.6982 0.9773
-0.8028 5.6790 -0.7042 0.9772
-3.9918 5.5589 -0.8403 0.9728
-8.6165 5.7229 -1.2701 0.9592
-5.5689 2.7988 -0.7653 0.9752
-19.0325 1.9855 -2.3496 0.9258
-20.1838 -2.7871 -2.5018 0.9212
2.5114 -15.5946 -2.5018 0.9380
4.3691 -15.1793 -2.5018 0.9380
6.1633 -14.5435 -2.5018 0.9380
12.2062 -10.0254 -2.5018 0.9380
15.4639 -3.2199 -2.5018 0.9380
14.6534 2.3117 -2.3496 0.9417
13.6772 5.7445 -2.3496 0.9417
12.8869 7.3481 -2.3496 0.9417
6.5066 6.1766 -1.4209 0.9643
0.5008 5.6819 -0.9034 0.9772
-0.1859 5.6861 -0.9011 0.9772
-1.5900 5.6603 -0.9312 0.9765
-2.3413 5.6250 -0.9650 0.9756
-3.1616 5.5863 -1.0167 0.9743
-5.3933 5.7181 -1.2450 0.9687
-6.8826 5.7273 -1.4181 0.9644
-11.0620 5.3827 -1.9485 0.9514
-14.7731 1.3498 -2.3496 0.9417
-5.8198 -3.2692 -1.0572 0.9733
-10.1424 -12.1091 -2.5018 0.9380
-5.2004 -14.9149 -2.5018 0.9380
-1.4877 -15.7254 -2.5018 0.9380
2.3111 -15.6256 -2.5018 0.9380
4.1740 -15.2341 -2.5018 0.9380
5.9762 -14.6214 -2.5018 0.9380
7.6917 -13.7963 -2.5018 0.9380
9.2954 -12.7709 -2.5018 0.9380
10.7641 -11.5600 -2.5018 0.9380
14.1587 -7.0023 -2.5018 0.9380
14.8982 -5.2483 -2.5018 0.9380
15.7205 -1.5381 -2.5018 0.9380
15.7914 0.3641 -2.5018 0.9380
14.6819 2.1235 -2.3496 0.9417
13.7498 5.5686 -2.3496 0.9417
7.9903 5.7767 -1.5616 0.9609
4.7990 5.6555 -1.1748 0.9704
3.7345 5.6620 -1.0743 0.9729
2.8256 5.6676 -1.0030 0.9747
0.5743 5.6815 -0.9044 0.9771
-0.1128 5.6857 -0.9007 0.9772
-3.0703 5.5912 -1.0103 0.9745
-5.2556 5.7173 -1.2300 0.9690
-6.7044 5.7262 -1.3965 0.9649
-8.6165 5.7229 -1.6383 0.9590
-13.9599 5.0186 -2.3496 0.9417
-15.7934 -0.2628 -2.5018 0.9380
2.0464 -12.7068 -2.5018 0.9489
7.7069 -10.3079 -2.5018 0.9489
11.6090 -5.5571 -2.5018 0.9489
12.6003 -2.6236 -2.5018 0.9489
12.8244 -1.0889 -2.5018 0.9489
11.9399 1.8836 -2.3496 0.9519
11.1444 4.6808 -2.3496 0.9519
7.7799 5.7780 -1.8837 0.9613
3.6315 5.6627 -1.3076 0.9730
1.9373 5.6731 -1.1653 0.9759
1.2012 5.6776 -1.1280 0.9766
0.5008 5.6819 -1.1087 0.9770
-2.3261 5.5884 -1.1766 0.9756
-5.6311 2.7401 -1.2173 0.9748
-11.4263 3.9430 -2.3496 0.9519
-11.8177 2.5399 -2.3496 0.9519
-12.8045 1.1700 -2.4993 0.9490
-10.3816 -7.6074 -2.5018 0.9489
-9.3911 -8.8010 -2.5018 0.9489
-8.2642 -9.8667 -2.5018 0.9489
-4.2374 -12.1530 -2.5018 0.9489
-2.7447 -12.5744 -2.5018 0.9489
-1.2122 -12.8133 -2.5018 0.9489
1.8832 -12.7320 -2.5018 0.9489
11.5367 -5.7056 -2.5018 0.9489
12.1393 -4.2764 -2.5018 0.9489
12.8671 0.2967 -2.5018 0.9489
11.6680 3.1567 -2.3496 0.9519
10.5764 5.8521 -2.3496 0.9519
7.9903 5.7767 -1.9165 0.9606
6.5740 6.0821 -1.7409 0.9642
4.7990 5.6555 -1.4418 0.9702
3.7345 5.6620 -1.3184 0.9727
2.0188 5.6726 -1.1704 0.9758
1.2774 5.6771 -1.1311 0.9766
0.5743 5.6815 -1.1100 0.9770
-0.1128 5.6857 -1.1054 0.9771
-0.8028 5.6790 -1.1149 0.9769
-2.2445 5.5936 -1.1715 0.9757
-3.0427 5.5409 -1.2288 0.9746
-3.9335 5.4778 -1.3109 0.9729
-5.2556 5.7173 -1.5095 0.9689
-6.7044 5.7262 -1.7138 0.9647
-5.5688 2.7987 -1.2115 0.9749
-11.7841 2.6913 -2.3496 0.9519
-12.7745 1.3327 -2.4966 0.9490
-12.7495 -1.7606 -2.5018 0.9489
0.4235 -10.8281 -2.5018 0.9565
1.7229 -10.6985 -2.5018 0.9565
4.2283 -9.9774 -2.5018 0.9565
5.3978 -9.3963 -2.5018 0.9565
8.3739 -6.8778 -2.5018 0.9565
9.1404 -5.8206 -2.5018 0.9565
10.6088 -2.2090 -2.5018 0.9565
10.7975 -0.9168 -2.5018 0.9565
10.8294 0.3888 -2.5018 0.9565
9.7890 2.7836 -2.3496 0.9591
9.3831 3.9410 -2.3496 0.9591
6.5066 6.1766 -2.0712 0.9638
4.6762 5.6562 -1.6943 0.9703
3.6315 5.6627 -1.5531 0.9728
2.7357 5.6682 -1.4530 0.9745
1.9373 5.6731 -1.3840 0.9757
1.2012 5.6776 -1.3398 0.9765
0.5008 5.6819 -1.3169 0.9769
-1.5594 10.0950 -2.3582 0.9589
-1.5691 5.5859 -1.3395 0.9765
-2.3056 5.5391 -1.3851 0.9757
-3.1034 5.4835 -1.4546 0.9745
-6.8826 5.7273 -2.0672 0.9639
-8.5491 5.5215 -2.3496 0.9591
-9.1512 4.4530 -2.3496 0.9591
-9.9499 2.1385 -2.3496 0.9591
-10.7914 0.9860 -2.5018 0.9565
-10.8317 -0.3193 -2.5018 0.9565
-10.7146 -1.6199 -2.5018 0.9565
-5.3325 -2.1995 -1.3317 0.9766
-4.9005 -2.7527 -1.2976 0.9772
-5.9083 -9.0840 -2.5018 0.9565
-4.7726 -9.7288 -2.5018 0.9565
2.8635 -10.4512 -2.5018 0.9565
4.0999 -10.0308 -2.5018 0.9565
9.7134 -4.8038 -2.5018 0.9565
10.2207 -3.6005 -2.5018 0.9565
10.5796 -2.3449 -2.5018 0.9565
5.9978 -0.5868 -1.3913 0.9756
8.9049 4.9272 -2.3496 0.9591
7.9903 5.7767 -2.2763 0.9603
6.5740 6.0821 -2.0676 0.9639
3.7345 5.6620 -1.5659 0.9725
2.8256 5.6676 -1.4621 0.9743
2.0188 5.6726 -1.3901 0.9756
-0.1128 5.6857 -1.3129 0.9769
-0.8028 5.6790 -1.3241 0.9767
-1.4932 5.5905 -1.3359 0.9765
-3.0147 5.4899 -1.4460 0.9746
-5.2556 5.7173 -1.7929 0.9686
-6.7044 5.7262 -2.0355 0.9645
-8.4776 5.6307 -2.3496 0.9591
-7.9142 2.8452 -1.9416 0.9661
-9.9217 2.2659 -2.3496 0.9591
-10.7770 1.1243 -2.5016 0.9565
-10.7345 -1.4823 -2.5018 0.9565
1.4845 -9.2180 -2.5018 0.9621
3.6431 -8.5967 -2.5018 0.9621
5.5909 -7.4778 -2.5018 0.9621
6.4498 -6.7509 -2.5018 0.9621
8.4216 -4.0313 -2.5018 0.9621
9.1407 -1.9033 -2.5018 0.9621
9.3307 0.3350 -2.5018 0.9621
8.4344 2.3984 -2.3496 0.9643
8.0846 3.3956 -2.3496 0.9643
3.6315 5.6627 -1.8025 0.9725
2.7357 5.6682 -1.6864 0.9743
1.9373 5.6731 -1.6063 0.9755
0.5008 5.6819 -1.5284 0.9767
-0.1859 5.6861 -1.5244 0.9767
-1.3406 8.6785 -2.3530 0.9643
-2.2851 5.4898 -1.5933 0.9757
-3.0744 5.4323 -1.6725 0.9745
-5.3933 5.7181 -2.1062 0.9680
-6.7403 5.6089 -2.3496 0.9643
-5.5867 2.7184 -1.6648 0.9746
-8.5730 1.8425 -2.3496 0.9643
-9.3327 -0.2751 -2.5018 0.9621
-4.6349 -2.6036 -1.4244 0.9782
-4.4860 -3.2872 -1.4902 0.9772
-6.8127 -6.3845 -2.5018 0.9621
-5.0907 -7.8269 -2.5018 0.9621
-4.1122 -8.3824 -2.5018 0.9621
-3.0740 -8.8162 -2.5018 0.9621
-1.9911 -9.1220 -2.5018 0.9621
-0.8794 -9.2953 -2.5018 0.9621
1.3661 -9.2362 -2.5018 0.9621
2.4672 -9.0049 -2.5018 0.9621
3.5325 -8.6427 -2.5018 0.9621
5.4945 -7.5489 -2.5018 0.9621
6.3627 -6.8331 -2.5018 0.9621
7.8105 -5.1157 -2.5018 0.9621
8.8063 -3.1022 -2.5018 0.9621
5.8931 -0.5766 -1.5866 0.9758
8.7016 1.2585 -2.3558 0.9642
8.4644 2.2900 -2.3496 0.9643
8.1275 3.2916 -2.3496 0.9643
7.6725 4.2453 -2.3496 0.9643
7.1061 5.1375 -2.3496 0.9643
4.7990 5.6555 -1.9874 0.9698
2.0188 5.6726 -1.6133 0.9754
1.2774 5.6771 -1.5592 0.9762
0.5743 5.6815 -1.5301 0.9766
-2.2051 5.4953 -1.5866 0.9758
-2.9867 5.4390 -1.6626 0.9746
-6.6677 5.6949 -2.3496 0.9643
-5.5230 2.7757 -1.6563 0.9747
-9.2864 0.9688 -2.5018 0.9621
-9.2490 -1.2772 -2.5018 0.9621
