ply
format ascii 1.0
element vertex 614
property float32 x
property float32 y
property float32 z
property float32 I
end_header
83.6319 14.5059 22.7437 0.7036
28.4345 16.7550 8.8433 0.8723
22.9818 22.4174 8.6024 0.8755
1.8603 5.6735 1.5999 0.9756
0.4347 5.6823 1.5270 0.9767
-0.2497 5.6865 1.5252 0.9767
-0.9425 5.6908 1.5456 0.9764
-1.6647 5.6952 1.5899 0.9757
-3.3036 5.7053 1.7665 0.9731
-22.2307 23.1400 8.5981 0.8756
-18.5318 -28.7504 9.1653 0.8679
19.1347 -46.6284 13.5051 0.8116
42.7561 17.1668 12.3454 0.8263
31.3985 17.2367 9.5976 0.8621
23.4765 21.5458 8.5381 0.8764
3.7726 5.6618 1.8230 0.9722
2.8409 5.6272 1.6891 0.9742
2.0531 5.6724 1.6164 0.9753
0.6090 5.6812 1.5310 0.9766
-0.0765 5.6854 1.5235 0.9767
-1.4779 5.6941 1.5763 0.9759
20.1480 -45.1365 11.4116 0.8163
48.2178 -29.5448 13.0555 0.7928
83.6378 14.5069 19.5976 0.7058
48.5598 14.5959 11.7064 0.8121
28.4345 16.7550 7.6195 0.8733
23.5547 18.0078 6.8452 0.8854
23.9879 23.3988 7.7364 0.8715
2.6486 5.6687 1.4445 0.9746
1.8603 5.6735 1.3785 0.9758
0.4347 5.6823 1.3157 0.9769
-5.4940 5.7187 1.8308 0.9680
-25.3019 20.6788 7.5441 0.8745
-8.3876 2.8211 2.0430 0.9643
-47.3440 -13.4487 11.3626 0.8171
-61.9774 -25.9860 15.5154 0.7589
-19.9195 -30.9032 8.4883 0.8599
-14.9698 -43.4120 10.6016 0.8282
-16.0216 -74.5044 17.5939 0.7314
18.7448 -45.6783 11.3991 0.8165
42.7561 17.1668 10.6369 0.8277
31.3986 17.2368 8.2694 0.8633
23.4765 21.5458 7.3566 0.8774
3.7726 5.6618 1.5707 0.9725
2.8409 5.6272 1.4553 0.9745
2.0531 5.6724 1.3927 0.9755
1.3114 5.6769 1.3451 0.9764
-2.2379 5.6987 1.4135 0.9752
13.4155 -43.4314 8.8358 0.8309
38.6045 -49.7077 12.2339 0.7738
48.4875 -29.7101 11.0536 0.7932
60.5656 10.5051 11.9485 0.7784
48.6591 14.6258 9.8764 0.8130
23.4543 17.9310 5.7387 0.8867
3.5296 5.6633 1.2971 0.9732
1.8603 5.6735 1.1606 0.9760
-0.2497 5.6865 1.1064 0.9771
-0.9425 5.6908 1.1212 0.9768
-2.4410 5.7000 1.2053 0.9750
-5.4940 5.7187 1.5415 0.9682
-7.0087 5.7281 1.7595 0.9638
-31.1983 19.7754 7.1800 0.8603
-69.6882 -19.7959 14.0819 0.7444
-21.4444 -33.2691 7.6939 0.8510
-17.7987 -36.6301 7.9162 0.8471
-14.9697 -43.4119 8.9260 0.8293
-16.0216 -74.5045 14.8133 0.7331
12.4742 -45.2193 9.1181 0.8260
18.7306 -45.6436 9.5902 0.8179
25.2249 -45.1325 10.0501 0.8100
48.2756 -31.6397 11.2196 0.7904
55.6287 -27.5552 12.0670 0.7765
49.0007 13.1171 9.8601 0.8133
31.3986 17.2368 6.9624 0.8642
23.4474 16.8207 5.6092 0.8891
24.0166 28.0543 7.1785 0.8603
2.0531 5.6724 1.1726 0.9757
1.3114 5.6769 1.1325 0.9765
0.6090 5.6812 1.1106 0.9770
-2.2379 5.6987 1.1901 0.9754
9.9286 -32.1427 5.3282 0.8726
19.1261 -42.8474 7.4318 0.8269
27.1659 -45.3110 8.3675 0.8074
46.5837 -47.0353 10.4850 0.7648
48.2377 -38.2147 9.7471 0.7794
48.4875 -29.7100 9.0067 0.7943
52.6644 -16.8258 8.7566 0.7994
52.9598 2.7296 8.3991 0.8067
52.8242 9.1623 8.4915 0.8048
23.4543 17.9310 4.6760 0.8873
24.0277 29.8602 6.0704 0.8562
3.5296 5.6633 1.0569 0.9733
1.1309 5.6780 0.9170 0.9768
0.4347 5.6823 0.9026 0.9772
-0.9425 5.6908 0.9136 0.9769
-1.6647 5.6952 0.9398 0.9763
-5.4940 5.7187 1.2560 0.9684
-7.0087 5.7281 1.4336 0.9640
-8.3855 2.8204 1.4013 0.9648
-91.7031 -14.4724 14.7041 0.6866
-67.9609 -19.3052 11.1898 0.7512
-29.1687 -35.1409 7.2333 0.8311
-22.2636 -34.5400 6.5086 0.8467
-14.9697 -43.4120 7.2731 0.8303
25.2850 -45.2400 8.2085 0.8107
33.7687 -46.3242 9.0795 0.7928
41.5163 -44.5515 9.6451 0.7814
48.6704 -41.0282 10.0822 0.7728
52.6956 -11.7519 8.5512 0.8036
52.9104 -5.2648 8.4216 0.8063
52.9101 1.1149 8.3820 0.8071
48.5499 12.9964 7.9603 0.8158
42.7561 17.1668 7.2973 0.8298
31.3986 17.2368 5.6731 0.8650
23.4474 16.8207 4.5705 0.8897
23.4765 21.5458 5.0469 0.8789
24.0166 28.0543 5.8492 0.8611
-1.4779 5.6941 0.9317 0.9765
13.2346 -42.8457 5.5060 0.8347
20.0005 -44.8062 6.0247 0.8206
27.0495 -45.1169 6.4590 0.8090
25.8777 -33.3204 5.1802 0.8436
49.1218 -22.4977 6.6339 0.8043
52.7058 -10.0815 6.5888 0.8055
52.7455 -3.6320 6.4917 0.8081
52.7846 2.7206 6.4897 0.8082
52.8242 9.1623 6.5828 0.8057
48.6590 14.6258 6.2386 0.8148
37.0511 16.2020 4.9652 0.8496
23.5548 18.0078 3.6405 0.8874
22.9819 22.4175 3.9420 0.8786
23.0200 28.6079 4.5086 0.8624
3.5296 5.6633 0.8194 0.9735
1.8603 5.6735 0.7331 0.9762
-0.2497 5.6865 0.6989 0.9773
-0.9425 5.6908 0.7083 0.9770
-1.6647 5.6952 0.7285 0.9764
-3.3036 5.7053 0.8095 0.9738
-5.4940 5.7187 0.9737 0.9685
-7.0087 5.7281 1.1114 0.9642
-12.0857 5.7592 1.6438 0.9475
-8.3780 2.8179 1.0853 0.9650
-80.1960 -33.6247 10.6773 0.7044
-17.6822 -36.3905 4.9677 0.8495
17.5048 -42.6567 5.6614 0.8304
24.3231 -33.3667 5.0699 0.8467
42.3388 -45.4342 7.6253 0.7786
48.2757 -31.6397 7.0871 0.7925
52.7885 -18.6535 6.8744 0.7980
52.6956 -11.7519 6.6291 0.8045
42.7561 17.1668 5.6571 0.8305
31.3986 17.2368 4.3980 0.8656
23.4474 16.8207 3.5432 0.8902
23.4766 21.5458 3.9125 0.8795
23.0093 26.8777 4.3443 0.8671
2.8409 5.6272 0.7740 0.9749
2.0531 5.6724 0.7407 0.9760
-0.7653 5.6897 0.7049 0.9771
-1.4779 5.6941 0.7223 0.9766
-2.2379 5.6987 0.7517 0.9756
13.7104 -44.3860 4.0643 0.8298
20.1605 -45.1646 4.3272 0.8199
35.0775 -45.1662 5.0033 0.7948
48.2883 -29.5880 4.9547 0.7966
52.6717 -16.8281 4.8376 0.8009
52.8455 -3.6389 4.6343 0.8084
37.0511 16.2020 3.5379 0.8501
22.9819 22.4175 2.8088 0.8791
5.3243 6.6168 0.7430 0.9665
3.5296 5.6633 0.5838 0.9736
1.1309 5.6780 0.5065 0.9770
-0.2497 5.6865 0.4980 0.9774
-0.9425 5.6908 0.5047 0.9771
-1.6647 5.6952 0.5191 0.9765
-3.3036 5.7053 0.5768 0.9739
-5.4940 5.7187 0.6938 0.9687
-9.0566 5.7406 0.9381 0.9579
-70.3713 -19.9899 6.4003 0.7455
-71.8006 -67.9366 8.6480 0.6724
-29.1687 -35.1409 3.9956 0.8325
12.3541 -44.7841 4.0644 0.8298
17.8907 -43.5970 4.1229 0.8276
25.2850 -45.2401 4.5342 0.8121
42.0821 -45.1586 5.4004 0.7805
48.4217 -40.8185 5.5407 0.7755
52.7819 1.1122 4.6188 0.8090
43.0133 6.1191 3.8011 0.8399
23.4766 21.5458 2.7878 0.8799
2.8409 5.6272 0.5515 0.9750
2.0531 5.6724 0.5278 0.9761
-0.0765 5.6854 0.4975 0.9774
-1.4779 5.6941 0.5147 0.9767
20.1203 -45.0746 2.5869 0.8206
26.9952 -45.0263 2.7513 0.8104
22.8580 -29.4323 1.9530 0.8613
26.9937 -27.2554 2.0104 0.8576
46.6949 -21.3862 2.6916 0.8141
37.0511 16.2020 2.1193 0.8505
5.3698 6.6733 0.4489 0.9663
2.6486 5.6687 0.3279 0.9752
1.1309 5.6780 0.3034 0.9771
0.4347 5.6823 0.2987 0.9774
-0.2497 5.6865 0.2983 0.9775
-0.9425 5.6908 0.3023 0.9772
-1.6647 5.6952 0.3110 0.9765
-2.4410 5.7000 0.3250 0.9755
-4.2932 5.7051 0.3742 0.9718
-5.4907 5.7152 0.4154 0.9688
-12.0857 5.7592 0.7016 0.9478
-8.3843 2.8200 0.4636 0.9652
-70.1636 -19.9309 3.8226 0.7467
-28.6706 -34.5409 2.3526 0.8354
-16.7942 -34.5630 2.0139 0.8573
-13.1937 -38.2615 2.1210 0.8503
-16.7732 -77.9996 4.1812 0.7265
13.5065 -90.0246 4.7708 0.6945
18.7310 -45.6447 2.5857 0.8207
22.8463 -31.3408 2.0326 0.8561
25.3893 -27.2455 1.9517 0.8614
47.9866 -23.7697 2.8065 0.8069
57.7125 -12.8707 3.0989 0.7891
57.6650 -5.7379 3.0370 0.7929
40.4288 5.7515 2.1401 0.8491
23.4474 16.8207 1.5123 0.8908
5.6408 6.5891 0.4546 0.9659
2.8409 5.6272 0.3304 0.9751
0.6090 5.6812 0.2994 0.9774
-0.0765 5.6854 0.2980 0.9775
-1.4779 5.6941 0.3083 0.9767
-2.2379 5.6987 0.3209 0.9758
20.2823 -45.4375 0.8685 0.8195
48.2378 -38.2147 1.0742 0.7818
60.2261 -27.5835 1.1563 0.7672
38.9659 6.7586 0.6903 0.8537
23.1399 13.6352 0.4688 0.8981
23.5548 18.0078 0.5175 0.8881
1.8603 5.6735 0.1042 0.9764
1.1309 5.6780 0.1011 0.9771
0.4347 5.6823 0.0995 0.9775
-1.6647 5.6952 0.1036 0.9765
-2.4410 5.7000 0.1082 0.9755
-3.3036 5.7053 0.1151 0.9740
-5.4728 5.6966 0.1379 0.9689
-9.0566 5.7406 0.1872 0.9580
-12.0524 5.7434 0.2330 0.9480
-36.1963 -34.2484 0.8698 0.8193
-22.2636 -34.5400 0.7173 0.8484
-16.5987 -34.1606 0.6629 0.8590
-12.8274 -37.1992 0.6868 0.8543
-14.2840 -66.4243 1.1859 0.7620
23.5432 -42.1236 0.8423 0.8244
22.8463 -31.3408 0.6770 0.8563
25.3893 -27.2455 0.6501 0.8616
32.3714 -27.2884 0.7390 0.8442
41.7242 -27.3459 0.8708 0.8191
78.3684 -27.6925 1.4508 0.7171
37.2463 5.2987 0.6567 0.8603
20.7604 5.5574 0.3751 0.9176
23.1401 12.7031 0.4608 0.8998
23.4766 21.5458 0.5562 0.8803
23.0094 26.8777 0.6176 0.8680
2.0531 5.6724 0.1053 0.9762
-0.0765 5.6854 0.0992 0.9775
-0.7653 5.6897 0.1002 0.9773
-1.4779 5.6941 0.1027 0.9767
17.6626 -57.1809 -1.0446 0.7871
18.7978 -42.1118 -0.8049 0.8315
22.8580 -29.4322 -0.6505 0.8615
26.9937 -27.2554 -0.6696 0.8577
61.3210 -28.0850 -1.1773 0.7635
87.0691 4.4876 -1.5218 0.7055
38.3277 16.7602 -0.7302 0.8459
23.0200 28.6080 -0.6409 0.8634
2.6486 5.6687 -0.1092 0.9753
1.1309 5.6780 -0.1011 0.9771
0.4347 5.6823 -0.0995 0.9775
-0.2497 5.6865 -0.0994 0.9775
-0.9425 5.6908 -0.1007 0.9772
-2.4410 5.7000 -0.1082 0.9755
-4.2771 5.6837 -0.1242 0.9719
-6.9052 5.6435 -0.1557 0.9650
-9.0566 5.7406 -0.1872 0.9580
-12.0408 5.7379 -0.2328 0.9480
-8.3842 2.8200 -0.1544 0.9652
-28.1220 5.8240 -0.5013 0.8915
-68.4322 -19.4391 -1.2417 0.7523
-66.4156 -27.8468 -1.2571 0.7497
-15.0836 -23.4008 -0.4860 0.8946
-12.0792 -24.8594 -0.4824 0.8953
-9.3563 -43.5090 -0.7768 0.8369
23.4229 -41.9085 -0.8380 0.8252
22.8463 -31.3408 -0.6770 0.8563
41.7242 -27.3459 -0.8708 0.8191
65.4878 1.3799 -1.1433 0.7695
20.7604 5.5574 -0.3751 0.9176
31.3986 17.2368 -0.6252 0.8665
23.4474 16.8207 -0.5037 0.8910
23.4766 21.5458 -0.5562 0.8803
23.0094 26.8777 -0.6176 0.8680
3.9155 5.8763 -0.1233 0.9721
-0.7653 5.6897 -0.1002 0.9773
-1.4779 5.6941 -0.1027 0.9767
-2.2379 5.6987 -0.1069 0.9758
18.2741 -40.9386 -2.3495 0.8356
20.0945 -33.5163 -2.0480 0.8551
22.8580 -29.4323 -1.9530 0.8613
24.9660 -25.2080 -1.8594 0.8675
32.9153 -15.0752 -1.8973 0.8650
45.4717 -14.5278 -2.5017 0.8260
46.8861 -8.9683 -2.5017 0.8260
47.6233 -3.2793 -2.5017 0.8260
18.4405 5.5428 -1.0091 0.9258
17.6128 7.7018 -1.0074 0.9259
17.6435 10.3964 -1.0732 0.9212
17.8042 13.6115 -1.1745 0.9141
23.4849 22.9082 -1.7194 0.8769
3.7804 6.0657 -0.3746 0.9718
2.6486 5.6687 -0.3279 0.9752
1.8603 5.6735 -0.3129 0.9764
1.1309 5.6780 -0.3034 0.9771
-1.6647 5.6952 -0.3110 0.9765
-3.3036 5.7053 -0.3455 0.9739
-5.4373 5.6597 -0.4113 0.9691
-6.8540 5.6017 -0.4639 0.9652
-8.3841 2.8199 -0.4636 0.9652
-45.0002 3.7873 -2.3667 0.8345
-44.8342 -1.6274 -2.3512 0.8355
-44.2839 -6.9888 -2.3495 0.8356
-45.9194 -13.0440 -2.5017 0.8260
-24.4142 -23.1004 -1.7615 0.8740
-18.1721 -21.8928 -1.4911 0.8923
-14.9402 -23.1784 -1.4452 0.8954
-11.9773 -24.6495 -1.4363 0.8960
-10.0284 -29.0822 -1.6122 0.8841
12.6250 -45.7658 -2.4881 0.8268
17.0201 -41.4755 -2.3495 0.8356
21.8725 -39.1344 -2.3495 0.8356
24.0773 -25.8376 -1.8509 0.8681
30.7471 -15.2303 -1.7982 0.8716
45.0087 -15.9044 -2.5017 0.8260
47.7255 1.0056 -2.5017 0.8260
20.7604 5.5574 -1.1263 0.9175
17.6171 7.0734 -0.9949 0.9268
18.1405 13.0136 -1.1700 0.9145
23.1748 21.2689 -1.6485 0.8816
2.8409 5.6272 -0.3304 0.9751
1.3114 5.6769 -0.3053 0.9769
0.6090 5.6812 -0.2994 0.9774
-0.0765 5.6854 -0.2980 0.9775
-2.2379 5.6987 -0.3209 0.9758
8.4393 -27.3213 -2.5017 0.8915
11.6557 -26.1117 -2.5017 0.8915
13.8092 -23.0329 -2.3495 0.8978
15.3423 -19.7549 -2.1883 0.9044
18.8978 -19.0810 -2.3495 0.8978
25.9980 -11.9071 -2.5017 0.8915
28.0859 -5.3722 -2.5017 0.8915
28.5275 -1.9644 -2.5017 0.8915
17.8620 5.3689 -1.6318 0.9278
12.8614 5.6241 -1.2281 0.9452
18.1741 13.8942 -2.0015 0.9122
3.7804 6.0657 -0.6253 0.9717
2.6486 5.6687 -0.5474 0.9752
1.8603 5.6735 -0.5224 0.9763
1.1309 5.6780 -0.5065 0.9770
0.4347 5.6823 -0.4986 0.9774
-0.2497 5.6865 -0.4980 0.9774
-2.4410 5.7000 -0.5425 0.9754
-3.3036 5.7053 -0.5768 0.9739
-4.2771 5.6837 -0.6223 0.9718
-9.0566 5.7406 -0.9381 0.9579
-8.3840 2.8199 -0.7739 0.9651
-28.2455 -4.4577 -2.5017 0.8915
-12.4434 -3.5347 -1.1317 0.9494
-26.3709 -11.0568 -2.5017 0.8915
-24.8541 -14.1404 -2.5017 0.8915
-22.9784 -17.0196 -2.5017 0.8915
-14.5497 -22.5725 -2.3495 0.8978
-11.7369 -24.1549 -2.3495 0.8978
-5.9982 -27.8931 -2.4961 0.8918
0.8198 -28.5833 -2.5017 0.8915
7.6042 -27.5654 -2.5017 0.8915
10.8559 -26.4542 -2.5017 0.8915
26.9613 -9.5271 -2.5017 0.8915
28.4545 -2.8314 -2.5017 0.8915
28.5887 0.6024 -2.5017 0.8915
19.0013 2.7031 -1.6791 0.9258
20.7604 5.5574 -1.8803 0.9173
17.9974 7.2261 -1.6967 0.9251
18.0611 9.9149 -1.8026 0.9206
18.1759 13.0390 -1.9570 0.9141
20.1201 18.4654 -2.3892 0.8961
17.8249 20.8216 -2.3980 0.8958
3.9155 5.8763 -0.6178 0.9720
2.8409 5.6272 -0.5515 0.9750
2.0531 5.6724 -0.5278 0.9761
1.3114 5.6769 -0.5097 0.9769
-0.0765 5.6854 -0.4975 0.9774
-0.7653 5.6897 -0.5023 0.9772
-1.4779 5.6941 -0.5147 0.9767
-2.2379 5.6987 -0.5356 0.9757
6.0133 -19.4675 -2.5017 0.9212
8.3051 -18.6056 -2.5017 0.9212
10.4770 -17.4750 -2.5017 0.9212
15.9707 -12.6522 -2.5017 0.9212
17.3731 -10.6451 -2.5017 0.9212
20.3269 -1.3997 -2.5017 0.9212
20.3481 1.0487 -2.5017 0.9212
17.5325 7.6667 -2.3495 0.9258
16.5373 9.7446 -2.3568 0.9256
4.7940 5.9578 -0.9389 0.9697
3.7804 6.0657 -0.8776 0.9716
1.8603 5.6735 -0.7331 0.9762
0.4347 5.6823 -0.6997 0.9773
-0.2497 5.6865 -0.6989 0.9773
-0.9425 5.6908 -0.7083 0.9770
-2.4410 5.7000 -0.7613 0.9753
-3.3036 5.7053 -0.8095 0.9738
-5.4093 5.6306 -0.9587 0.9690
-9.0566 5.7406 -1.3166 0.9577
-8.3839 2.8199 -1.0861 0.9650
-18.7379 3.8805 -2.3495 0.9258
-19.0681 1.6048 -2.3495 0.9258
-20.3616 -0.7391 -2.5017 0.9212
-11.9749 -1.8899 -1.4885 0.9523
-17.7095 -10.0755 -2.5017 0.9212
-16.3730 -12.1271 -2.5017 0.9212
-8.9047 -18.3262 -2.5017 0.9212
-6.6421 -19.2620 -2.5017 0.9212
0.5842 -20.3667 -2.5017 0.9212
3.0231 -20.1495 -2.5017 0.9212
7.7352 -18.8496 -2.5017 0.9212
9.9405 -17.7857 -2.5017 0.9212
15.5784 -13.1323 -2.5017 0.9212
20.2749 -2.0175 -2.5017 0.9212
20.3705 0.4292 -2.5017 0.9212
18.4847 4.9482 -2.3495 0.9258
17.7576 7.1298 -2.3495 0.9258
16.8124 9.2294 -2.3549 0.9256
7.8821 5.6545 -1.1911 0.9617
2.8409 5.6272 -0.7740 0.9749
-1.4779 5.6941 -0.7223 0.9766
-2.2379 5.6987 -0.7517 0.9756
6.4384 -14.4236 -2.5017 0.9380
8.1221 -13.5471 -2.5017 0.9380
9.6885 -12.4750 -2.5017 0.9380
11.1150 -11.2228 -2.5017 0.9380
15.0461 -4.8071 -2.5017 0.9380
15.7581 -1.0851 -2.5017 0.9380
15.7744 0.8130 -2.5017 0.9380
14.2065 4.2701 -2.3495 0.9417
13.5917 5.9435 -2.3495 0.9417
12.7806 7.5310 -2.3495 0.9417
11.8081 9.0274 -2.3542 0.9416
4.7904 5.9532 -1.2102 0.9695
2.6486 5.6687 -0.9910 0.9750
1.8603 5.6735 -0.9457 0.9761
0.4347 5.6823 -0.9026 0.9772
-0.2497 5.6865 -0.9015 0.9772
-0.9425 5.6908 -0.9136 0.9769
-1.6647 5.6952 -0.9398 0.9763
-5.3636 5.5830 -1.2262 0.9691
-6.7081 5.4824 -1.3722 0.9655
-11.9575 5.6982 -2.0979 0.9478
-8.3839 2.8199 -1.4010 0.9648
-14.5262 3.0083 -2.3495 0.9417
-15.7094 1.3221 -2.4969 0.9381
-15.7850 -0.5730 -2.5017 0.9380
-12.5298 -1.9774 -2.0091 0.9499
-14.5668 -6.1076 -2.5017 0.9380
-13.7289 -7.8109 -2.5017 0.9380
-12.6929 -9.4013 -2.5017 0.9380
-10.0884 -12.1539 -2.5017 0.9380
-8.5576 -13.2763 -2.5017 0.9380
-5.1492 -14.9325 -2.5017 0.9380
0.4529 -15.7889 -2.5017 0.9380
4.2004 -15.2266 -2.5017 0.9380
9.3045 -12.7640 -2.5017 0.9380
12.0768 -10.1805 -2.5017 0.9380
15.7177 -1.5640 -2.5017 0.9380
14.3299 3.8360 -2.3495 0.9417
13.7662 5.5272 -2.3495 0.9417
13.0038 7.1387 -2.3495 0.9417
6.1793 5.6711 -1.3284 0.9666
3.9155 5.8763 -1.1184 0.9718
2.8409 5.6272 -0.9984 0.9748
0.6090 5.6812 -0.9050 0.9771
-2.2379 5.6987 -0.9697 0.9755
5.2461 -11.7526 -2.5017 0.9489
6.6180 -11.0384 -2.5017 0.9489
7.8944 -10.1649 -2.5017 0.9489
11.7015 -5.3593 -2.5017 0.9489
12.2598 -3.9169 -2.5017 0.9489
12.6412 -2.4180 -2.5017 0.9489
12.8399 0.6618 -2.4991 0.9490
11.0748 4.8428 -2.3495 0.9519
10.4139 6.1364 -2.3495 0.9519
9.6026 7.3412 -2.3495 0.9519
4.7904 5.9532 -1.4853 0.9693
3.7804 6.0657 -1.3893 0.9713
1.8603 5.6735 -1.1606 0.9760
1.1309 5.6780 -1.1254 0.9767
-0.9425 5.6908 -1.1212 0.9768
-2.4410 5.7000 -1.2053 0.9750
-5.3055 5.5225 -1.4886 0.9693
-6.5804 5.3780 -1.6519 0.9660
-10.9117 5.1998 -2.3495 0.9519
-8.2930 2.7893 -1.7007 0.9650
-12.8250 1.0794 -2.5017 0.9489
-11.8693 -4.9766 -2.5017 0.9489
-8.2202 -9.9032 -2.5017 0.9489
-6.9729 -10.8178 -2.5017 0.9489
-4.1956 -12.1673 -2.5017 0.9489
-1.1769 -12.8164 -2.5017 0.9489
0.3690 -12.8651 -2.5017 0.9489
1.9096 -12.7279 -2.5017 0.9489
3.4226 -12.4069 -2.5017 0.9489
4.8861 -11.9068 -2.5017 0.9489
6.2791 -11.2347 -2.5017 0.9489
7.5815 -10.4003 -2.5017 0.9489
12.8675 0.2711 -2.5017 0.9489
11.2170 4.5037 -2.3495 0.9519
10.5957 5.8167 -2.3495 0.9519
9.8215 7.0457 -2.3495 0.9519
4.9612 5.7953 -1.4829 0.9694
2.8409 5.6272 -1.2253 0.9746
2.0531 5.6724 -1.1726 0.9757
1.3114 5.6769 -1.1325 0.9765
-1.4779 5.6941 -1.1435 0.9763
-2.2379 5.6987 -1.1901 0.9754
4.4170 -9.8951 -2.5017 0.9565
5.5721 -9.2939 -2.5017 0.9565
6.6467 -8.5584 -2.5017 0.9565
7.6253 -7.6992 -2.5017 0.9565
9.2397 -5.6615 -2.5017 0.9565
9.8521 -4.5122 -2.5017 0.9565
10.3222 -3.2979 -2.5017 0.9565
10.6433 -2.0358 -2.5017 0.9565
10.8106 -0.7444 -2.5017 0.9565
9.3245 4.0775 -2.3495 0.9591
4.7904 5.9532 -1.7641 0.9691
3.7804 6.0657 -1.6501 0.9711
2.6486 5.6687 -1.4445 0.9746
0.4347 5.6823 -1.3157 0.9769
-0.9425 5.6908 -1.3317 0.9766
-2.4410 5.7000 -1.4315 0.9749
-4.2296 5.6206 -1.6240 0.9715
-6.4294 5.2546 -1.9170 0.9665
-10.7981 0.9088 -2.5017 0.9565
-10.7038 -1.6892 -2.5017 0.9565
-10.4238 -2.9610 -2.5017 0.9565
-9.9934 -4.1900 -2.5017 0.9565
-9.4186 -5.3585 -2.5017 0.9565
-8.7078 -6.4497 -2.5017 0.9565
-5.8708 -9.1081 -2.5017 0.9565
-4.7359 -9.7466 -2.5017 0.9565
-3.5325 -10.2443 -2.5017 0.9565
-2.2782 -10.5940 -2.5017 0.9565
-0.9909 -10.7908 -2.5017 0.9565
4.1139 -10.0250 -2.5017 0.9565
5.2868 -9.4591 -2.5017 0.9565
9.7102 -4.8099 -2.5017 0.9565
10.5764 -2.3587 -2.5017 0.9565
10.8338 0.2283 -2.5017 0.9565
10.4086 1.4807 -2.4272 0.9578
8.9211 4.8974 -2.3495 0.9591
8.2692 5.9322 -2.3495 0.9591
4.9612 5.7953 -1.7613 0.9692
2.8409 5.6272 -1.4553 0.9745
2.0531 5.6724 -1.3927 0.9755
1.3114 5.6769 -1.3451 0.9764
0.6090 5.6812 -1.3191 0.9768
-2.2379 5.6987 -1.4135 0.9752
3.8057 -8.5258 -2.5017 0.9621
5.7269 -7.3740 -2.5017 0.9621
6.5701 -6.6338 -2.5017 0.9621
8.4887 -3.8878 -2.5017 0.9621
9.1704 -1.7541 -2.5017 0.9621
8.3975 2.5241 -2.3495 0.9643
4.7904 5.9532 -2.0474 0.9689
2.6486 5.6687 -1.6765 0.9744
1.8603 5.6735 -1.5999 0.9756
1.1309 5.6780 -1.5513 0.9763
0.4347 5.6823 -1.5270 0.9767
-0.2497 5.6865 -1.5252 0.9767
-1.6647 5.6952 -1.5899 0.9757
-2.4410 5.7000 -1.6615 0.9746
-4.2296 5.6206 -1.8848 0.9713
-7.4061 4.6945 -2.3495 0.9643
-7.9158 3.7721 -2.3495 0.9643
-8.1808 2.7515 -2.3127 0.9649
-9.3037 0.7830 -2.5017 0.9621
-9.2225 -1.4555 -2.5017 0.9621
-8.9813 -2.5513 -2.5017 0.9621
-8.6104 -3.6102 -2.5017 0.9621
-8.1152 -4.6170 -2.5017 0.9621
-3.0437 -8.8266 -2.5017 0.9621
1.3853 -9.2333 -2.5017 0.9621
2.4829 -9.0004 -2.5017 0.9621
3.5446 -8.6376 -2.5017 0.9621
6.3652 -6.8306 -2.5017 0.9621
7.1386 -6.0177 -2.5017 0.9621
8.3665 -4.1443 -2.5017 0.9621
8.8032 -3.1107 -2.5017 0.9621
9.2907 -0.9245 -2.5017 0.9621
9.3346 0.1967 -2.5017 0.9621
9.0679 1.2900 -2.4542 0.9628
8.4704 2.2675 -2.3495 0.9643
7.6866 4.2196 -2.3495 0.9643
7.1249 5.1112 -2.3495 0.9643
2.0531 5.6724 -1.6164 0.9753
1.3114 5.6769 -1.5612 0.9762
0.6090 5.6812 -1.5310 0.9766
-1.4779 5.6941 -1.5763 0.9759
