ply
format ascii 1.0
element vertex 705
property float32 x
property float32 y
property float32 z
property float32 I
end_header
-27.3953 -34.0852 11.7174 0.8344
51.7192 -32.0084 16.2974 0.7773
36.9164 16.2028 10.8025 0.8462
26.8344 20.6349 9.0703 0.8692
26.4111 33.1104 11.3487 0.8391
2.6093 5.6689 1.6722 0.9745
1.8200 5.6738 1.5966 0.9756
0.3896 5.6826 1.5262 0.9767
-1.7273 5.6956 1.5948 0.9757
-3.3924 5.7058 1.7787 0.9729
-21.0807 21.3798 8.0451 0.8831
-44.0162 -13.4381 12.3315 0.8265
-56.5522 -25.0705 16.5754 0.7740
-21.4738 -35.1308 11.0325 0.8432
-14.6634 -32.1697 9.4731 0.8638
-13.8671 -73.8005 20.1208 0.7327
38.4574 -86.3189 25.3207 0.6762
27.8346 16.7587 8.7057 0.8741
26.8363 20.9537 9.1230 0.8685
26.3692 26.2899 9.9772 0.8571
2.5589 5.6692 1.6666 0.9746
1.0453 5.6786 1.5471 0.9764
0.3475 5.6828 1.5256 0.9767
-1.0408 5.6914 1.5503 0.9763
-1.7735 5.6959 1.5985 0.9756
-21.3964 21.3818 8.1051 0.8823
-25.2691 19.7774 8.5981 0.8756
-34.1750 -42.5204 12.5943 0.7994
-14.5237 -31.2495 7.9556 0.8681
-14.5491 -44.7875 10.8719 0.8242
27.6617 -46.9186 12.5744 0.7996
51.7192 -32.0084 14.0420 0.7790
86.5297 14.9998 20.2749 0.6973
51.8796 15.6295 12.5091 0.8006
36.9165 16.2028 9.3076 0.8475
28.3183 16.7661 7.5977 0.8736
26.8344 20.6349 7.8151 0.8703
5.7510 5.6496 1.8612 0.9674
3.4834 5.6517 1.5327 0.9731
-1.7274 5.6956 1.3741 0.9759
-2.5145 5.7004 1.4384 0.9747
-3.3924 5.7058 1.5325 0.9731
-4.4092 5.7121 1.6659 0.9708
-5.6396 5.7196 1.8544 0.9676
-25.4705 20.2402 7.5109 0.8750
-32.2287 19.7818 8.7304 0.8562
-66.5686 -20.3232 16.0688 0.7515
-22.3812 -36.6154 9.9075 0.8385
-14.1849 -44.7897 10.8467 0.8246
51.7424 -31.4966 13.9848 0.7798
22.4458 1.3046 5.1908 0.9118
51.8822 16.0492 12.5379 0.8002
5.6672 5.6501 1.8475 0.9677
4.4449 5.6577 1.6611 0.9709
3.4334 5.6639 1.5291 0.9732
1.7740 5.6741 1.3725 0.9759
0.3475 5.6828 1.3144 0.9769
-1.0408 5.6914 1.3357 0.9765
-1.7735 5.6959 1.3773 0.9758
-5.7241 5.7201 1.8683 0.9673
-34.8604 -43.3733 10.8165 0.7971
-14.6285 -31.4749 6.7466 0.8681
-9.9009 -50.6289 10.0277 0.8104
41.7804 -54.5410 13.3548 0.7558
46.2180 -47.2215 12.8438 0.7640
66.6532 -53.3689 16.5975 0.7061
60.5995 10.5049 11.9550 0.7783
5.7510 5.6496 1.5671 0.9677
4.5126 5.6572 1.4066 0.9709
3.4834 5.6517 1.2905 0.9733
1.8200 5.6738 1.1582 0.9760
1.0887 5.6783 1.1239 0.9767
0.3896 5.6826 1.1072 0.9771
-0.9974 5.6911 1.1231 0.9767
-2.5145 5.7004 1.2111 0.9749
-3.3924 5.7058 1.2903 0.9733
-66.4029 -20.2727 13.4955 0.7536
-73.5601 -32.6104 15.6407 0.7204
-34.3386 -43.3765 10.7537 0.7982
-21.4546 -35.0995 7.9963 0.8457
-13.3529 -71.0639 14.0551 0.7448
19.0361 -42.7270 9.0923 0.8265
41.7854 -53.7208 13.2292 0.7578
47.0066 -47.3228 12.9655 0.7620
51.5906 -31.4041 11.7400 0.7818
58.3991 10.5684 11.5360 0.7852
52.0325 16.0957 10.5869 0.8010
27.8346 16.7587 6.3155 0.8760
5.6672 5.6501 1.5555 0.9679
4.4450 5.6577 1.3985 0.9711
2.5589 5.6692 1.2090 0.9750
1.0453 5.6786 1.1223 0.9767
-3.7218 62.0534 12.0836 0.7762
-1.0408 5.6914 1.1246 0.9767
-5.7241 5.7201 1.5730 0.9676
-7.3211 5.7300 1.8071 0.9628
-22.7531 -36.6131 6.8275 0.8398
-9.7194 -49.7007 8.0209 0.8146
19.1471 -43.8448 7.5776 0.8239
34.5294 -45.0754 8.9932 0.7946
51.7368 -32.0193 9.6367 0.7816
56.7298 9.8340 9.1191 0.7920
36.9165 16.2028 6.3854 0.8494
28.3009 16.7558 5.2091 0.8753
7.3343 5.6399 1.4654 0.9632
5.7510 5.6496 1.2769 0.9679
4.5126 5.6572 1.1462 0.9711
3.4834 5.6517 1.0515 0.9735
1.0887 5.6783 0.9157 0.9769
0.3896 5.6826 0.9021 0.9772
-3.2617 62.0506 9.8414 0.7775
-1.7274 5.6956 0.9427 0.9762
-4.4092 5.7121 1.1429 0.9712
-5.6396 5.7196 1.2722 0.9680
-9.3557 5.7425 1.7387 0.9565
-86.6132 -15.3441 13.9318 0.7003
-65.5409 -20.0095 10.8537 0.7577
-87.5928 -38.8313 15.1755 0.6784
-68.4363 -67.7285 15.2499 0.6771
-28.9623 -36.5851 7.3904 0.8278
-22.3812 -36.6154 6.7969 0.8405
-15.7779 -34.6147 6.0251 0.8572
27.0508 -45.1171 8.3318 0.8081
35.0634 -45.0787 9.0453 0.7935
51.8002 -31.5317 9.6049 0.7822
60.8199 -27.5871 10.5776 0.7630
56.6046 -10.5278 9.1190 0.7920
56.7297 10.2663 9.1310 0.7918
27.8346 16.7587 5.1460 0.8767
7.2241 5.6406 1.4517 0.9636
3.4334 5.6639 1.0490 0.9735
2.5589 5.6692 0.9851 0.9751
1.7740 5.6741 0.9416 0.9762
0.3475 5.6828 0.9018 0.9772
-3.7218 62.0534 9.8460 0.7774
-2.5651 5.7007 0.9901 0.9750
-3.4500 5.7062 1.0561 0.9734
-4.4773 5.7125 1.1496 0.9710
-5.7241 5.7201 1.2817 0.9678
-7.3211 5.7300 1.4725 0.9630
-27.7661 -34.5466 5.4420 0.8364
-21.3590 -34.3698 4.9686 0.8495
-9.9010 -50.6293 6.3342 0.8123
14.2253 -47.5366 6.0925 0.8188
18.8064 -43.0645 5.7699 0.8275
25.8071 -43.7729 6.2392 0.8148
34.7142 -45.3166 7.0091 0.7945
44.2615 -45.2226 7.7696 0.7749
51.7368 -32.0193 7.4707 0.7825
55.9721 -25.8884 7.5720 0.7799
56.1606 -3.9547 6.9127 0.7970
56.2842 2.8544 6.9197 0.7968
51.9297 15.6445 6.6592 0.8037
36.9166 16.2028 4.9502 0.8500
7.3343 5.6399 1.1360 0.9634
5.7510 5.6496 0.9899 0.9680
0.3896 5.6826 0.6994 0.9773
-0.9974 5.6911 0.7094 0.9770
-3.3924 5.7058 0.8151 0.9736
-4.4092 5.7121 0.8860 0.9713
-5.6396 5.7196 0.9863 0.9681
-7.2098 5.7293 1.1307 0.9636
-34.8637 -34.5031 6.0226 0.8206
-27.3506 -34.5491 5.4105 0.8373
-21.0970 -34.5145 4.9668 0.8496
-11.9072 -37.5976 4.8424 0.8531
14.1424 -46.0187 5.9112 0.8236
44.9068 -45.2088 7.8240 0.7735
51.5860 -40.6829 8.0667 0.7674
51.8002 -31.5317 7.4460 0.7832
56.0067 -25.4039 7.5511 0.7805
56.0764 -17.6456 7.2182 0.7891
56.2868 3.2716 6.9228 0.7967
52.0325 16.0957 6.6874 0.8029
36.8090 16.4810 4.9519 0.8500
27.9991 16.8577 4.0129 0.8766
5.6672 5.6501 0.9826 0.9683
4.4449 5.6577 0.8834 0.9714
1.7740 5.6741 0.7299 0.9763
0.3475 5.6828 0.6991 0.9773
-1.7735 5.6959 0.7325 0.9762
-2.5651 5.7007 0.7676 0.9751
-3.4500 5.7062 0.8187 0.9735
-4.4773 5.7125 0.8912 0.9712
-5.7241 5.7201 0.9936 0.9679
-7.3211 5.7300 1.1415 0.9632
-29.4024 -36.5825 4.1062 0.8282
-22.7531 -36.6132 3.7714 0.8411
-17.0267 -36.6350 3.5344 0.8503
-9.9009 -50.6290 4.5134 0.8129
15.5974 -90.9751 8.0754 0.6903
25.8292 -43.8104 4.4495 0.8153
51.7812 -41.4610 5.8035 0.7662
56.1644 -10.8758 5.0050 0.7948
56.2070 -3.9580 4.9296 0.7975
56.1561 2.8479 4.9193 0.7979
18.5990 5.6032 1.6994 0.9250
7.3343 5.6399 0.8095 0.9635
4.5126 5.6572 0.6331 0.9714
1.8200 5.6738 0.5213 0.9764
1.0887 5.6783 0.5058 0.9771
-3.2617 62.0506 5.4362 0.7792
-1.7274 5.6956 0.5207 0.9764
-7.2098 5.7293 0.8057 0.9637
-9.3557 5.7425 0.9604 0.9569
-12.5801 5.7623 1.2106 0.9460
-18.1868 5.7967 1.6700 0.9262
-66.8587 -20.4118 6.1159 0.7553
-22.3812 -36.6154 3.7545 0.8417
16.3259 -91.1752 8.1037 0.6894
19.0196 -42.6900 4.0888 0.8289
49.7953 -22.5865 4.7837 0.8029
56.0302 -17.6310 5.1390 0.7899
56.1671 -10.4464 4.9982 0.7950
56.2095 -3.5411 4.9274 0.7976
51.9323 16.0647 4.7559 0.8039
36.8090 16.4810 3.5284 0.8505
27.8346 16.7587 2.8425 0.8777
4.4449 5.6577 0.6295 0.9715
3.4334 5.6639 0.5795 0.9738
2.5589 5.6692 0.5442 0.9753
0.3475 5.6828 0.4981 0.9774
-1.0408 5.6914 0.5062 0.9770
-1.7735 5.6959 0.5219 0.9763
-3.4500 5.7062 0.5834 0.9736
-5.7241 5.7201 0.7080 0.9680
-7.3211 5.7300 0.8134 0.9634
-27.7662 -34.5466 2.3228 0.8373
-16.0658 -34.5675 1.9977 0.8584
-11.4269 -35.1762 1.9383 0.8623
-9.9010 -50.6291 2.7036 0.8133
15.6954 -91.5467 4.8678 0.6893
16.3433 -54.6140 2.9876 0.7959
19.6184 -44.9239 2.5691 0.8217
25.8071 -43.7729 2.6631 0.8158
51.7812 -41.4610 3.4765 0.7667
61.1236 -19.7311 3.3661 0.7732
60.8986 10.5567 3.2391 0.7807
18.5990 5.6032 1.0180 0.9251
36.9166 16.2028 2.1129 0.8509
7.3321 5.6382 0.4847 0.9636
4.5126 5.6572 0.3793 0.9714
3.4834 5.6517 0.3479 0.9738
2.6093 5.6689 0.3271 0.9753
0.3896 5.6826 0.2985 0.9774
-0.9954 5.6800 0.3022 0.9772
-3.3827 5.6895 0.3469 0.9738
-9.3557 5.7425 0.5753 0.9570
-12.5801 5.7623 0.7252 0.9461
-88.7100 -15.7156 4.7215 0.6971
-66.7241 -20.3707 3.6562 0.7562
-11.1667 -35.2596 1.9383 0.8623
-9.9500 -52.9540 2.8238 0.8059
26.9962 -45.0262 2.7514 0.8104
26.1811 -33.6594 2.2348 0.8430
27.0738 -27.2559 2.0134 0.8574
51.8002 -31.5317 3.1781 0.7843
61.1202 -19.2327 3.3580 0.7736
61.0674 -11.3578 3.2553 0.7797
60.9691 3.5437 3.2006 0.7830
36.8090 16.4810 2.1136 0.8508
27.8346 16.7587 1.7027 0.8780
7.2156 5.6339 0.4798 0.9640
5.6672 5.6501 0.4194 0.9685
4.4449 5.6577 0.3771 0.9716
3.4334 5.6639 0.3471 0.9738
1.7740 5.6741 0.3116 0.9765
0.3475 5.6828 0.2984 0.9775
-1.0388 5.6803 0.3026 0.9771
-1.7703 5.6855 0.3121 0.9764
-3.4402 5.6901 0.3485 0.9737
-4.4773 5.7125 0.3804 0.9713
-5.7241 5.7201 0.4241 0.9681
-11.8641 -36.5221 0.6703 0.8576
-9.9009 -50.6288 0.9005 0.8135
26.1922 -34.1919 0.7518 0.8417
46.2051 -21.3710 0.8886 0.8157
85.9305 -27.7390 1.5761 0.6968
52.4545 2.6602 0.9168 0.8105
60.8778 10.5531 1.0785 0.7810
18.5990 5.6032 0.3391 0.9252
39.1635 17.1890 0.7465 0.8427
5.7510 5.6496 0.1407 0.9683
4.5126 5.6572 0.1263 0.9715
3.4834 5.6517 0.1159 0.9738
2.6093 5.6689 0.1089 0.9753
1.8200 5.6738 0.1040 0.9764
1.0887 5.6783 0.1009 0.9771
0.3896 5.6826 0.0994 0.9775
-3.2091 61.0503 1.0671 0.7830
-0.9931 5.6666 0.1004 0.9772
-2.4984 5.6638 0.1081 0.9755
-5.6396 5.7196 0.1402 0.9684
-7.2098 5.7293 0.1607 0.9638
-9.3253 5.7238 0.1910 0.9572
-18.1868 5.7967 0.3332 0.9265
-88.5383 -15.6851 1.5695 0.6979
-65.1906 -19.9025 1.1897 0.7613
-72.9471 -32.3386 1.3928 0.7267
-23.4184 -38.3122 0.7838 0.8356
-15.5738 -34.1670 0.6554 0.8605
-11.7587 -37.1289 0.6798 0.8557
-10.0649 -53.5653 0.9513 0.8041
25.2591 -42.1289 0.8574 0.8216
27.0738 -27.2559 0.6706 0.8575
44.9163 -27.3414 0.9178 0.8103
60.8199 -27.5871 1.1657 0.7655
82.5743 4.7995 1.4438 0.7183
58.3988 10.5683 1.0359 0.7887
26.4850 8.1929 0.4839 0.8950
7.3578 5.7449 0.1629 0.9633
4.4450 5.6577 0.1256 0.9716
2.5589 5.6692 0.1086 0.9754
1.7740 5.6741 0.1038 0.9765
-3.6618 61.0531 1.0676 0.7829
-2.5475 5.6615 0.1084 0.9755
-4.4773 5.7125 0.1267 0.9714
-8.1559 -25.1067 -0.4608 0.8998
-6.0813 -31.0968 -0.5531 0.8809
16.4244 -95.7987 -1.6966 0.6778
17.2931 -39.5993 -0.7542 0.8412
24.7087 -41.9098 -0.8492 0.8231
26.6742 -27.2534 -0.6656 0.8585
34.0942 -27.2990 -0.7624 0.8397
44.2102 -27.3612 -0.9075 0.8122
18.5990 5.6032 -0.3391 0.9252
35.7827 15.7051 -0.6821 0.8553
28.3010 16.7559 -0.5741 0.8767
5.7510 5.6496 -0.1407 0.9683
3.4834 5.6517 -0.1159 0.9738
1.8200 5.6738 -0.1040 0.9764
-3.2091 61.0503 -1.0671 0.7830
-1.7158 5.6574 -0.1032 0.9766
-2.4921 5.6497 -0.1078 0.9756
-4.4092 5.7121 -0.1260 0.9715
-5.6396 5.7196 -0.1402 0.9684
-7.2098 5.7293 -0.1607 0.9638
-9.2835 5.6981 -0.1901 0.9574
-18.1868 5.7967 -0.3332 0.9265
-30.9527 5.8752 -0.5499 0.8816
-81.2411 -14.3924 -1.4401 0.7189
-65.5283 -20.0056 -1.1959 0.7603
-68.1712 -40.7022 -1.3859 0.7279
-26.0014 -25.7325 -0.6385 0.8639
-18.0753 -22.8327 -0.5083 0.8900
-13.6874 -22.3924 -0.4581 0.9003
-8.0304 -25.3564 -0.4643 0.8991
17.6243 -39.5583 -0.7559 0.8409
25.1301 -41.9137 -0.8530 0.8224
27.0738 -27.2559 -0.6706 0.8575
44.9163 -27.3414 -0.9178 0.8103
60.8199 -27.5871 -1.1657 0.7655
58.7317 10.6286 -1.0418 0.7876
52.0325 16.0957 -0.9507 0.8042
27.8347 16.7587 -0.5671 0.8781
5.6672 5.6501 -0.1397 0.9685
2.5589 5.6692 -0.1086 0.9754
0.3475 5.6828 -0.0994 0.9775
-1.0346 5.6574 -0.1004 0.9773
-1.7616 5.6577 -0.1034 0.9766
-2.5411 5.6474 -0.1081 0.9755
-3.4024 5.6275 -0.1148 0.9740
-18.1114 -22.5342 -1.5151 0.8907
-10.9585 -23.5784 -1.3626 0.9011
2.3297 -47.6787 -2.5017 0.8260
8.0664 -47.0491 -2.5017 0.8260
22.7687 -38.6192 -2.3495 0.8356
25.6881 -33.5337 -2.2138 0.8443
26.7775 -27.3589 -2.0063 0.8578
33.9622 -27.1933 -2.2801 0.8401
33.1862 -15.3494 -1.9162 0.8638
45.4273 -14.6643 -2.5017 0.8260
47.6176 -3.3531 -2.5017 0.8260
41.0520 7.1163 -2.1835 0.8463
18.5990 5.6032 -1.0180 0.9251
21.7899 9.5637 -1.2471 0.9091
21.9407 12.9902 -1.3363 0.9029
5.7510 5.6496 -0.4225 0.9682
4.5126 5.6572 -0.3793 0.9714
3.4834 5.6517 -0.3479 0.9738
1.8200 5.6738 -0.3123 0.9764
0.3896 5.6826 -0.2985 0.9774
-2.5023 47.6030 -2.4982 0.8262
-1.7116 5.6437 -0.3091 0.9767
-7.2098 5.7293 -0.4826 0.9638
-18.1868 5.7967 -1.0004 0.9264
-27.8115 5.2790 -1.4836 0.8928
-45.1361 3.0109 -2.3707 0.8343
-25.6406 -25.3754 -1.8906 0.8655
-17.8131 -22.5016 -1.5040 0.8914
-10.8273 -23.7538 -1.3681 0.9007
-5.9056 -31.4293 -1.6760 0.8798
2.6818 -47.6602 -2.5017 0.8260
23.0534 -38.4500 -2.3495 0.8356
25.8340 -33.2131 -2.2052 0.8449
32.7603 -25.8361 -2.1866 0.8461
33.3890 -15.1448 -1.9214 0.8634
46.9308 -8.7286 -2.5017 0.8260
21.1170 6.5324 -1.1584 0.9153
21.3656 9.5663 -1.2268 0.9105
5.6672 5.6501 -0.4194 0.9685
4.4449 5.6577 -0.3771 0.9716
3.4334 5.6639 -0.3471 0.9738
1.7740 5.6741 -0.3116 0.9765
0.3475 5.6828 -0.2984 0.9775
-2.8538 47.5819 -2.4981 0.8262
-1.7573 5.6439 -0.3098 0.9766
-2.5347 5.6332 -0.3237 0.9756
-3.3837 5.5967 -0.3427 0.9741
-7.3211 5.7300 -0.4872 0.9634
-16.8238 -20.9321 -2.3495 0.8978
-10.8097 -23.2583 -2.2439 0.9021
-8.0337 -24.7306 -2.2749 0.9009
-5.1541 -26.3558 -2.3495 0.8978
-2.0613 -28.5203 -2.5017 0.8915
1.3955 -28.5606 -2.5017 0.8915
4.8320 -28.1835 -2.5017 0.8915
16.8182 -21.9548 -2.4196 0.8949
21.8699 -17.5111 -2.4511 0.8936
27.2120 -8.7842 -2.5017 0.8915
28.0732 -5.4362 -2.5017 0.8915
28.5241 -2.0086 -2.5017 0.8915
28.4974 1.4452 -2.4964 0.8917
21.9407 12.9902 -2.2308 0.9027
21.5861 16.5991 -2.3823 0.8964
5.7510 5.6496 -0.7053 0.9681
0.3896 5.6826 -0.4983 0.9774
-1.7074 5.6299 -0.5147 0.9767
-2.4797 5.6216 -0.5375 0.9756
-3.3175 5.5798 -0.5679 0.9743
-4.4092 5.7121 -0.6313 0.9714
-24.5516 -14.6587 -2.5017 0.8915
-22.6032 -17.5144 -2.5017 0.8915
-13.3826 -21.8938 -2.2450 0.9021
-8.6622 -19.0037 -1.8272 0.9196
-4.9593 -26.3932 -2.3495 0.8978
1.6065 -28.5495 -2.5017 0.8915
11.6370 -26.1197 -2.5017 0.8915
14.7041 -24.5244 -2.5017 0.8915
18.9256 -19.0529 -2.3495 0.8978
22.1273 -17.4505 -2.4655 0.8930
24.4253 -14.8681 -2.5017 0.8915
28.1126 -5.2286 -2.5017 0.8915
12.5620 5.6246 -1.2042 0.9462
21.6455 13.0323 -2.2105 0.9035
5.6672 5.6501 -0.7001 0.9684
4.4449 5.6577 -0.6295 0.9715
3.4334 5.6639 -0.5795 0.9738
2.5589 5.6692 -0.5442 0.9753
1.7740 5.6741 -0.5201 0.9764
0.3475 5.6828 -0.4981 0.9774
-1.6586 27.6537 -2.4237 0.8947
-1.0346 5.6574 -0.5032 0.9772
-1.7530 5.6301 -0.5159 0.9766
-5.7241 5.7201 -0.7080 0.9680
3.4430 -20.0818 -2.5017 0.9212
10.3478 -17.5515 -2.5017 0.9212
15.9047 -12.7348 -2.5017 0.9212
17.3252 -10.7224 -2.5017 0.9212
18.4926 -8.5533 -2.5017 0.9212
20.3245 -1.4312 -2.5017 0.9212
18.8541 3.2683 -2.3495 0.9258
17.5219 7.6904 -2.3495 0.9258
9.5750 5.6690 -1.3663 0.9561
15.2643 11.7378 -2.3643 0.9253
4.5126 5.6572 -0.8885 0.9713
3.4834 5.6517 -0.8152 0.9736
2.6093 5.6689 -0.7663 0.9752
1.8200 5.6738 -0.7316 0.9763
0.3896 5.6826 -0.6994 0.9773
-0.9918 5.6594 -0.7055 0.9771
-2.4735 5.6075 -0.7525 0.9756
-3.3087 5.5651 -0.7950 0.9742
-4.4092 5.7121 -0.8860 0.9713
-5.6396 5.7196 -0.9863 0.9681
-9.1617 5.6234 -1.3199 0.9576
-11.6145 5.3200 -1.5686 0.9498
-18.2316 5.8110 -2.3495 0.9258
-18.7996 3.5684 -2.3495 0.9258
-19.0928 1.2736 -2.3495 0.9258
-20.3447 -1.1071 -2.5017 0.9212
-20.0624 -3.5542 -2.5017 0.9212
-8.1833 -2.4983 -1.0506 0.9661
-8.0478 -3.5677 -1.0809 0.9651
-17.4939 -10.4449 -2.5017 0.9212
-16.1056 -12.4797 -2.5017 0.9212
-14.4819 -14.3321 -2.5017 0.9212
-12.6465 -15.9750 -2.5017 0.9212
-10.6172 -17.3696 -2.4996 0.9212
-8.3795 -18.3835 -2.4806 0.9218
-3.7626 -20.0244 -2.5017 0.9212
-1.3186 -20.3321 -2.5017 0.9212
3.5912 -20.0558 -2.5017 0.9212
8.2918 -18.6113 -2.5017 0.9212
10.4772 -17.4746 -2.5017 0.9212
12.5094 -16.0825 -2.5017 0.9212
17.4040 -10.5941 -2.5017 0.9212
18.5553 -8.4164 -2.5017 0.9212
19.4353 -6.1157 -2.5017 0.9212
20.0313 -3.7256 -2.5017 0.9212
20.3336 1.1819 -2.5009 0.9212
18.8294 3.4075 -2.3495 0.9258
18.2806 5.6549 -2.3495 0.9258
17.4661 7.8203 -2.3497 0.9258
3.4334 5.6639 -0.8132 0.9737
2.5589 5.6692 -0.7637 0.9752
1.7740 5.6741 -0.7299 0.9763
1.0453 5.6786 -0.7090 0.9770
0.3475 5.6828 -0.6991 0.9773
-1.0346 5.6574 -0.7062 0.9771
-1.7510 5.6237 -0.7232 0.9765
-2.5221 5.6050 -0.7547 0.9755
-4.4773 5.7125 -0.8912 0.9712
-7.3211 5.7300 -1.1415 0.9632
-4.8800 -15.0224 -2.5017 0.9380
-3.0315 -15.5016 -2.5017 0.9380
2.6691 -15.5680 -2.5017 0.9380
4.5283 -15.1322 -2.5017 0.9380
9.6053 -12.5390 -2.5017 0.9380
11.0483 -11.2882 -2.5017 0.9380
13.4311 -8.3123 -2.5017 0.9380
15.0314 -4.8523 -2.5017 0.9380
15.5071 -3.0029 -2.5017 0.9380
15.7562 -1.1095 -2.5017 0.9380
14.2037 4.2791 -2.3495 0.9417
13.5835 5.9618 -2.3495 0.9417
12.7647 7.5575 -2.3495 0.9417
5.7510 5.6496 -1.2769 0.9679
1.0887 5.6783 -0.9157 0.9769
0.3896 5.6826 -0.9021 0.9772
-0.7876 14.9835 -2.3764 0.9410
-2.4673 5.5934 -0.9683 0.9755
-3.2988 5.5484 -1.0224 0.9742
-7.2098 5.7293 -1.4586 0.9634
-9.0977 5.5841 -1.6907 0.9577
-15.7215 1.0487 -2.4956 0.9382
-7.2148 -3.1984 -1.2500 0.9685
-12.4856 -9.6746 -2.5017 0.9380
-11.2268 -11.1107 -2.5017 0.9380
-9.8039 -12.3843 -2.5017 0.9380
-6.5512 -14.3725 -2.5017 0.9380
-1.0222 -15.7621 -2.5017 0.9380
4.6400 -15.0983 -2.5017 0.9380
8.1223 -13.5468 -2.5017 0.9380
9.6977 -12.4677 -2.5017 0.9380
13.4921 -8.2129 -2.5017 0.9380
14.3846 -6.5247 -2.5017 0.9380
15.5289 -2.8882 -2.5017 0.9380
15.7639 -0.9931 -2.5017 0.9380
13.5391 6.0620 -2.3495 0.9417
7.3578 5.7449 -1.4785 0.9629
5.6672 5.6501 -1.2675 0.9681
4.4449 5.6577 -1.1396 0.9713
0.3475 5.6828 -0.9018 0.9772
-1.0346 5.6574 -0.9109 0.9770
-1.7510 5.6237 -0.9329 0.9764
-4.4773 5.7125 -1.1496 0.9710
-5.7241 5.7201 -1.2817 0.9678
-7.3211 5.7300 -1.4725 0.9630
-8.0627 -10.0317 -2.5017 0.9489
-6.7932 -10.9313 -2.5017 0.9489
-3.9763 -12.2405 -2.5017 0.9489
-2.4701 -12.6309 -2.5017 0.9489
0.6281 -12.8549 -2.5017 0.9489
2.1748 -12.6851 -2.5017 0.9489
5.1507 -11.7946 -2.5017 0.9489
6.5364 -11.0868 -2.5017 0.9489
7.8266 -10.2170 -2.5017 0.9489
11.6812 -5.4028 -2.5017 0.9489
12.8384 -0.9041 -2.5017 0.9489
12.8428 0.6513 -2.4996 0.9489
11.0681 4.8578 -2.3495 0.9519
9.5818 7.3681 -2.3495 0.9519
4.5126 5.6572 -1.4066 0.9709
3.4834 5.6517 -1.2905 0.9733
2.6093 5.6689 -1.2131 0.9749
-0.6389 12.1546 -2.3659 0.9516
-3.2681 5.4966 -1.2430 0.9743
-7.2098 5.7293 -1.7901 0.9632
-10.9892 5.0336 -2.3495 0.9519
-11.5164 3.6706 -2.3495 0.9519
-12.8417 0.8566 -2.5017 0.9489
-10.1735 -7.8831 -2.5017 0.9489
-9.1478 -9.0532 -2.5017 0.9489
-6.7123 -10.9812 -2.5017 0.9489
-5.3380 -11.7110 -2.5017 0.9489
-3.8858 -12.2696 -2.5017 0.9489
-0.8329 -12.8432 -2.5017 0.9489
0.7231 -12.8499 -2.5017 0.9489
3.7807 -12.3024 -2.5017 0.9489
7.9018 -10.1589 -2.5017 0.9489
12.2767 -3.8631 -2.5017 0.9489
12.8150 0.7449 -2.4952 0.9490
11.0319 4.9394 -2.3495 0.9519
7.3578 5.7449 -1.8145 0.9627
4.4450 5.6577 -1.3985 0.9711
3.4334 5.6639 -1.2874 0.9734
2.5589 5.6692 -1.2090 0.9750
1.7740 5.6741 -1.1556 0.9761
1.0453 5.6786 -1.1223 0.9767
0.3475 5.6828 -1.1067 0.9771
-1.7424 5.5959 -1.1392 0.9764
-2.4967 5.5487 -1.1827 0.9755
-4.4773 5.7125 -1.4108 0.9709
-5.7241 5.7201 -1.5730 0.9676
-7.3211 5.7300 -1.8071 0.9628
-5.7196 -9.2037 -2.5017 0.9565
-3.3479 -10.3060 -2.5017 0.9565
-0.7811 -10.8079 -2.5017 0.9565
0.5288 -10.8232 -2.5017 0.9565
1.8311 -10.6803 -2.5017 0.9565
5.5034 -9.3346 -2.5017 0.9565
6.5896 -8.6022 -2.5017 0.9565
9.8351 -4.5489 -2.5017 0.9565
10.6385 -2.0601 -2.5017 0.9565
10.8093 -0.7612 -2.5017 0.9565
10.8222 0.5488 -2.5017 0.9565
9.7443 2.9356 -2.3495 0.9591
8.0674 6.2036 -2.3495 0.9591
3.4834 5.6517 -1.5327 0.9731
0.3896 5.6826 -1.3150 0.9769
-2.4272 5.5024 -1.3884 0.9756
-4.0293 5.2199 -1.5224 0.9733
-5.6396 5.7196 -1.8544 0.9676
-8.6734 5.3236 -2.3495 0.9591
-9.6962 3.0905 -2.3495 0.9591
-10.8121 0.7212 -2.5017 0.9565
-6.7575 -2.0630 -1.6312 0.9714
-6.0727 -3.6258 -1.6329 0.9714
-8.5656 -6.6372 -2.5017 0.9565
-7.7020 -7.6224 -2.5017 0.9565
-3.2716 -10.3304 -2.5017 0.9565
4.4099 -9.8982 -2.5017 0.9565
5.5722 -9.2937 -2.5017 0.9565
6.6530 -8.5533 -2.5017 0.9565
7.6366 -7.6879 -2.5017 0.9565
6.5976 -0.4156 -1.5262 0.9732
10.8159 0.6287 -2.5013 0.9565
10.0142 1.8122 -2.3495 0.9591
8.7186 5.2493 -2.3495 0.9591
7.3578 5.7449 -2.1551 0.9624
5.6672 5.6501 -1.8475 0.9677
3.4334 5.6639 -1.5291 0.9732
-2.4744 5.4992 -1.3922 0.9755
-3.2898 5.4413 -1.4680 0.9742
-7.3211 5.7300 -2.1463 0.9626
-4.9280 -7.9300 -2.5017 0.9621
-2.8846 -8.8798 -2.5017 0.9621
-1.7919 -9.1629 -2.5017 0.9621
-0.6730 -9.3122 -2.5017 0.9621
0.4557 -9.3254 -2.5017 0.9621
1.5777 -9.2023 -2.5017 0.9621
3.7365 -8.5562 -2.5017 0.9621
4.7418 -8.0428 -2.5017 0.9621
5.6777 -7.4118 -2.5017 0.9621
6.5306 -6.6724 -2.5017 0.9621
7.2881 -5.8356 -2.5017 0.9621
8.4740 -3.9194 -2.5017 0.9621
8.8851 -2.8682 -2.5017 0.9621
9.1662 -1.7750 -2.5017 0.9621
9.3135 -0.6558 -2.5017 0.9621
9.3245 0.4729 -2.5017 0.9621
8.3958 2.5293 -2.3495 0.9643
7.5452 4.4672 -2.3495 0.9643
6.9510 5.3451 -2.3495 0.9643
4.5126 5.6572 -1.9390 0.9705
3.4834 5.6517 -1.7789 0.9729
2.6093 5.6689 -1.6722 0.9745
1.0887 5.6783 -1.5492 0.9763
0.3896 5.6826 -1.5262 0.9767
-1.6688 5.5026 -1.5407 0.9765
-2.4054 5.4532 -1.5970 0.9756
-5.6396 5.7196 -2.1523 0.9673
-6.8649 5.4552 -2.3495 0.9643
-7.4731 4.5869 -2.3495 0.9643
-8.3544 2.6628 -2.3495 0.9643
-8.6147 1.6352 -2.3495 0.9643
-9.1934 -1.6287 -2.5017 0.9621
-6.5681 -2.0052 -1.8401 0.9720
-5.8029 -2.5725 -1.7008 0.9741
-5.6687 -3.3846 -1.7691 0.9730
-7.3802 -5.7187 -2.5017 0.9621
-6.6362 -6.5675 -2.5017 0.9621
-5.7951 -7.3203 -2.5017 0.9621
-3.8724 -8.4956 -2.5017 0.9621
-2.8189 -8.9008 -2.5017 0.9621
-1.7242 -9.1759 -2.5017 0.9621
-0.6042 -9.3169 -2.5017 0.9621
2.7427 -8.9246 -2.5017 0.9621
3.7996 -8.5284 -2.5017 0.9621
4.8010 -8.0075 -2.5017 0.9621
6.5798 -6.6240 -2.5017 0.9621
7.3310 -5.7816 -2.5017 0.9621
7.9752 -4.8546 -2.5017 0.9621
8.5027 -3.8567 -2.5017 0.9621
9.1791 -1.7072 -2.5017 0.9621
6.6053 -0.4161 -1.7734 0.9730
8.0029 3.5832 -2.3495 0.9643
7.5120 4.5229 -2.3495 0.9643
1.7740 5.6741 -1.5929 0.9757
1.0453 5.6786 -1.5471 0.9764
-3.2294 5.3413 -1.6725 0.9745
-3.9952 5.0974 -1.7354 0.9735
-5.7241 5.7201 -2.1683 0.9670
-6.9050 5.4044 -2.3495 0.9643
