ply
format ascii 1.0
element vertex 947
property float32 x
property float32 y
property float32 z
property float32 I
end_header
-4.1766 5.6806 1.8892 0.9712
-20.3638 21.6565 7.9653 0.8842
-24.2420 20.2326 8.4607 0.8774
-30.5201 19.7713 9.7438 0.8602
-44.9401 -12.4268 12.4935 0.8244
-12.8341 -15.3076 5.3525 0.9206
-17.9513 -27.5755 8.8165 0.8726
-15.3267 -43.9203 12.4644 0.8248
39.8304 16.1848 11.5200 0.8369
1.2669 5.6772 1.5586 0.9762
0.5638 5.6815 1.5298 0.9766
-1.5336 5.6944 1.5802 0.9759
-2.3010 5.6991 1.6468 0.9749
-3.1489 5.7043 1.7459 0.9734
-17.2810 23.9498 7.9135 0.8849
-23.8028 20.2299 8.3702 0.8787
-55.6704 -30.5685 17.0177 0.7687
-12.7842 -14.9740 5.2756 0.9217
-15.0688 -30.0095 8.9978 0.8702
-15.7676 -43.9176 12.5031 0.8243
-9.7133 -42.6283 11.7150 0.8344
30.8128 16.7404 9.3961 0.8648
27.0173 19.2202 8.8842 0.8717
26.6437 39.7515 12.8226 0.8202
2.0652 5.6723 1.6175 0.9753
1.3203 5.6769 1.5617 0.9762
-0.0728 5.6820 1.5226 0.9767
-0.7639 5.6897 1.5382 0.9765
-1.4790 5.6941 1.5763 0.9759
-2.2418 5.6988 1.6409 0.9750
-17.2640 24.3827 8.0052 0.8836
-19.9180 21.9563 7.9432 0.8845
-29.3453 19.7640 9.4801 0.8637
-45.4248 -11.6905 12.5682 0.8235
-56.2760 -30.2493 17.1194 0.7675
-12.8252 -14.7529 5.2379 0.9222
-16.2114 -43.9149 12.5431 0.8238
-10.1048 -42.5848 11.7274 0.8342
-4.1766 5.6806 1.6278 0.9715
-5.3767 5.7180 1.8121 0.9683
-24.2420 20.2326 7.2898 0.8784
-35.6421 -42.5115 12.8076 0.7963
-18.4767 -28.3825 7.8187 0.8702
18.1403 -44.3582 11.0642 0.8214
25.2145 -45.1986 11.9488 0.8086
51.9301 -55.7237 17.5852 0.7315
51.8249 -33.9026 14.2974 0.7755
88.1461 12.8397 20.5649 0.6937
52.1122 14.1594 12.4672 0.8012
27.0196 19.5880 7.7047 0.8720
6.0718 5.6332 1.9122 0.9666
4.7849 5.6556 1.7103 0.9700
2.0080 5.6726 1.3893 0.9756
-1.5336 5.6944 1.3615 0.9761
-5.2806 5.7174 1.7968 0.9686
-45.2701 -12.0833 10.8173 0.8250
-9.8990 -43.4431 10.2867 0.8328
55.4388 -47.5458 16.8614 0.7409
52.1091 13.6594 12.4368 0.8016
30.8129 16.7404 8.0958 0.8659
27.4206 24.9871 8.5647 0.8587
27.6530 41.2574 11.4667 0.8155
2.0652 5.6723 1.3936 0.9755
-17.2640 24.3827 6.8974 0.8846
-5.1861 5.7168 1.7820 0.9688
-23.3728 20.2273 7.1361 0.8808
-30.8902 20.8045 8.5982 0.8582
-16.5291 -44.7754 11.0191 0.8221
-5.3767 5.7180 1.5257 0.9685
-6.8621 5.7272 1.7374 0.9642
-65.0911 -17.9988 13.1272 0.7594
-22.4436 -34.4761 7.9964 0.8457
-15.3456 -31.2546 6.7681 0.8677
-12.7934 -36.6609 7.5476 0.8537
17.6244 -43.0968 9.0506 0.8272
25.2479 -45.2586 10.0737 0.8096
41.9533 -57.5987 13.8511 0.7480
51.8194 -33.8990 12.0365 0.7770
89.3904 13.0209 17.5591 0.6920
39.8306 16.1849 8.3571 0.8393
30.3519 16.8432 6.7473 0.8681
4.7849 5.6556 1.4400 0.9703
2.8143 5.6677 1.2300 0.9745
-3.1489 5.7043 1.2665 0.9738
-5.2806 5.7174 1.5128 0.9688
-6.7377 5.7264 1.7188 0.9646
-65.3843 -17.4520 13.1544 0.7590
-68.6833 -37.7139 15.2310 0.7267
-64.6020 -46.3945 15.4601 0.7232
-22.8086 -34.3609 8.0166 0.8453
-15.5907 -31.0490 6.7535 0.8680
-9.8990 -43.4431 8.6609 0.8340
52.4994 -45.0248 13.4438 0.7544
51.8153 -34.5619 12.1069 0.7758
52.5599 13.7775 10.5618 0.8014
30.9948 16.8393 6.8565 0.8661
6.1968 5.6469 1.6296 0.9664
27.6530 41.2574 9.6544 0.8168
2.8775 5.6673 1.2355 0.9744
2.0652 5.6723 1.1734 0.9757
-0.7639 5.6897 1.1159 0.9769
-1.4790 5.6941 1.1435 0.9763
-2.2418 5.6988 1.1904 0.9754
-3.0824 5.7039 1.2603 0.9739
-6.6160 5.7256 1.7007 0.9650
-29.4452 -0.3113 5.7239 0.8869
-45.7896 -11.7844 9.1906 0.8248
-17.7378 -34.5509 7.5494 0.8536
-10.3079 -43.4406 8.6785 0.8337
-10.6193 -94.1477 18.4165 0.6797
-5.3767 5.7180 1.2431 0.9687
-6.8621 5.7272 1.4156 0.9644
-8.8597 5.7394 1.6720 0.9581
-87.8056 -36.1375 15.0388 0.6808
-64.2345 -47.0068 12.6070 0.7244
-69.7147 -65.2605 15.1247 0.6793
-23.8305 -36.6065 6.9182 0.8379
-16.9622 -34.5471 6.0957 0.8557
-9.6755 -44.2867 7.1798 0.8323
24.7626 -44.3887 8.0505 0.8140
33.7402 -46.3226 9.0767 0.7929
56.8374 -12.5507 9.2190 0.7900
56.2894 -5.4586 8.9572 0.7953
56.3313 1.3515 8.9246 0.7960
56.9142 8.2903 9.1095 0.7922
52.1122 14.1594 8.5530 0.8036
30.1737 16.7443 5.4656 0.8696
27.0196 19.5880 5.2857 0.8736
6.0873 5.6476 1.3152 0.9669
4.7849 5.6556 1.1733 0.9704
3.6987 5.6266 1.0665 0.9731
2.8143 5.6677 1.0022 0.9747
2.0080 5.6726 0.9531 0.9759
1.2669 5.6772 0.9213 0.9767
-1.5336 5.6944 0.9340 0.9764
-3.1489 5.7043 1.0320 0.9740
-5.2806 5.7174 1.2327 0.9690
-8.6869 5.7384 1.6490 0.9587
-72.0341 -66.2330 15.4988 0.6728
-31.2229 -36.5713 7.6162 0.8230
-24.2973 -36.6037 6.9585 0.8370
-12.4350 -34.6352 5.8285 0.8615
-9.8990 -43.4431 7.0571 0.8349
15.0909 -57.0502 9.3466 0.7874
24.4779 -44.8155 8.0879 0.8132
41.9350 -45.8130 9.8369 0.7776
52.2635 -34.8608 9.9502 0.7754
29.6243 -14.9584 5.2563 0.8742
57.1082 -13.1471 9.2816 0.7887
52.0591 13.6463 8.5239 0.8042
6.1968 5.6469 1.3279 0.9666
4.8719 5.6550 1.1822 0.9702
26.6437 39.7516 7.5795 0.8238
2.8775 5.6673 1.0067 0.9746
2.0652 5.6723 0.9561 0.9758
1.3203 5.6769 0.9231 0.9767
0.6151 5.6812 0.9051 0.9771
-0.7639 5.6897 0.9092 0.9770
-1.4790 5.6941 0.9318 0.9765
-3.0824 5.7039 1.0269 0.9741
-17.2640 24.3828 4.7319 0.8860
-5.1861 5.7168 1.2225 0.9692
-6.6160 5.7256 1.3858 0.9652
-29.3485 -0.3103 4.6486 0.8879
-45.8735 -11.8060 7.5024 0.8254
-62.8465 -44.2874 12.1771 0.7324
-31.7896 -36.5678 7.6744 0.8218
-24.7698 -36.6008 6.9997 0.8361
-12.7849 -34.6330 5.8472 0.8611
-10.3079 -43.4406 7.0714 0.8346
-5.3767 5.7180 0.9637 0.9689
-6.8621 5.7272 1.0974 0.9646
-8.8597 5.7394 1.2961 0.9583
-11.7880 5.7551 1.6107 0.9485
-22.3703 -34.3636 5.0346 0.8477
-17.8319 -36.3186 4.9679 0.8495
-12.7934 -36.6609 4.7676 0.8551
-9.6755 -44.2867 5.5660 0.8330
15.0208 -54.7979 6.9765 0.7953
17.2445 -42.1676 5.5937 0.8323
42.1319 -45.2097 7.5879 0.7795
55.8559 -27.5796 7.6487 0.7780
71.4209 -25.1027 9.2953 0.7371
56.3002 -12.4321 7.0793 0.7927
56.2894 -5.4586 6.9439 0.7962
56.4679 1.3548 6.9354 0.7964
56.5533 8.2377 7.0171 0.7943
39.8306 16.1849 5.2789 0.8409
30.1736 16.7443 4.2371 0.8702
6.0873 5.6476 1.0196 0.9671
4.7849 5.6556 0.9096 0.9706
1.2669 5.6772 0.7142 0.9768
0.5638 5.6815 0.7010 0.9773
-1.3497 62.0388 7.6192 0.7787
-3.1489 5.7043 0.8000 0.9741
-17.2810 23.9498 3.6262 0.8878
-6.7377 5.7264 1.0857 0.9650
-8.6869 5.7384 1.2783 0.9589
-67.2537 -17.9510 8.5468 0.7554
-88.4673 -35.4881 11.7038 0.6810
-18.1560 -36.1577 4.9679 0.8495
14.2018 -53.6889 6.8189 0.7995
16.8307 -42.2298 5.5818 0.8326
41.8370 -45.7059 7.6080 0.7790
52.6994 -45.1965 8.5244 0.7559
52.0145 -34.6948 7.6770 0.7773
56.3331 -20.3675 7.3550 0.7855
74.3904 -17.1257 9.3729 0.7352
56.2863 -5.9667 6.9498 0.7960
56.3818 0.8484 6.9236 0.7967
56.5501 7.7216 7.0079 0.7945
40.8589 16.1786 5.3958 0.8377
30.8128 16.7404 4.3056 0.8682
27.0877 19.2702 4.0817 0.8746
4.8719 5.6550 0.9165 0.9704
26.6437 39.7517 5.8758 0.8246
2.8775 5.6673 0.7804 0.9747
2.0652 5.6723 0.7412 0.9760
-0.0728 5.6820 0.6977 0.9774
-0.7639 5.6897 0.7049 0.9771
-1.4790 5.6941 0.7223 0.9766
-2.2418 5.6988 0.7519 0.9756
-3.0824 5.7039 0.7961 0.9742
-17.2640 24.3828 3.6683 0.8866
-5.1861 5.7168 0.9477 0.9694
-29.3476 -0.3103 3.6036 0.8884
-45.9567 -11.8274 5.8267 0.8259
-30.0206 -34.5328 5.6183 0.8316
-23.3740 -34.5384 5.1206 0.8453
-18.4786 -35.9939 4.9679 0.8495
-13.5319 -36.6564 4.7977 0.8543
-9.6534 -40.6825 5.1339 0.8449
-9.8328 -87.1746 10.7716 0.7022
-3.2160 5.7047 0.5729 0.9740
-4.1766 5.6806 0.6169 0.9721
-5.3767 5.7180 0.6867 0.9690
-6.8621 5.7272 0.7820 0.9647
-8.8597 5.7394 0.9236 0.9585
-11.7880 5.7551 1.1477 0.9487
-16.7051 5.7876 1.5467 0.9315
-30.6646 -36.5747 4.1757 0.8256
-23.8305 -36.6066 3.8215 0.8391
-15.3144 -31.1911 3.0400 0.8698
-12.7934 -36.6609 3.3971 0.8556
-8.4884 -89.6185 7.8757 0.6967
14.9685 -54.6074 4.9538 0.7966
17.4744 -42.7298 4.0389 0.8308
33.0514 -45.3770 4.9114 0.7982
40.9144 -43.9033 5.2504 0.7859
53.6914 -45.2203 6.1415 0.7544
56.2088 -19.7560 5.2125 0.7872
56.3385 1.3517 4.9304 0.7975
56.4736 8.2261 4.9929 0.7952
20.4602 5.5592 1.8549 0.9184
27.0196 19.5881 2.9198 0.8746
1.2669 5.6772 0.5089 0.9769
0.5638 5.6815 0.4995 0.9773
-1.3497 62.0389 5.4290 0.7795
-0.8158 5.6900 0.5029 0.9772
-1.5336 5.6944 0.5159 0.9766
-2.3010 5.6991 0.5377 0.9756
-17.2810 23.9498 2.5838 0.8882
-6.7377 5.7264 0.7736 0.9651
-8.6869 5.7384 0.9109 0.9591
-11.5269 5.7558 1.1272 0.9496
-16.2260 5.7847 1.5071 0.9332
-24.2974 -36.6037 3.8437 0.8383
-9.0446 -87.1795 7.6682 0.7033
32.2715 -45.1491 4.8553 0.8002
40.3606 -44.0930 5.2297 0.7866
52.0145 -34.6948 5.4701 0.7780
54.5585 -27.5486 5.3472 0.7824
56.2053 -20.3213 5.2289 0.7866
56.3432 -12.9710 5.0583 0.7928
56.3862 -5.9773 4.9608 0.7964
50.3880 6.8802 4.4493 0.8153
40.8589 16.1786 3.8447 0.8382
27.0174 19.2202 2.9008 0.8753
6.1968 5.6469 0.7335 0.9669
26.6437 39.7517 4.1868 0.8252
2.0652 5.6723 0.5281 0.9761
1.3203 5.6769 0.5099 0.9769
0.6151 5.6812 0.4999 0.9773
-0.0728 5.6820 0.4971 0.9774
-2.2418 5.6988 0.5358 0.9757
-3.0824 5.7039 0.5672 0.9743
-17.2640 24.3827 2.6138 0.8870
-5.1861 5.7168 0.6753 0.9695
-8.5187 5.7373 0.8986 0.9596
-11.2705 5.7542 1.1071 0.9505
-45.9941 -11.8371 4.1551 0.8264
-31.7897 -36.5678 4.2392 0.8232
-13.5319 -36.6564 3.4186 0.8548
-10.3079 -43.4406 3.9061 0.8359
-3.2064 5.6878 0.3422 0.9742
-4.1766 5.6806 0.3695 0.9722
-5.3767 5.7180 0.4113 0.9691
-8.8597 5.7394 0.5532 0.9586
-11.7880 5.7551 0.6875 0.9488
-16.7051 5.7876 0.9265 0.9316
-27.0729 5.8514 1.4516 0.8950
-28.9582 -34.5393 2.3622 0.8348
-22.5104 -34.5787 2.1624 0.8477
-12.1867 -34.9222 1.9384 0.8623
-9.6755 -44.2867 2.3757 0.8340
-8.6626 -91.4575 4.8145 0.6921
17.9945 -44.0017 2.4914 0.8266
26.4198 -28.3498 2.0309 0.8562
52.2676 -34.1922 3.2733 0.7787
61.3276 -21.5551 3.4068 0.7708
61.2232 -5.9370 3.2236 0.7816
61.1744 1.4677 3.2069 0.7826
20.4602 5.5592 1.1111 0.9186
39.8306 16.1849 2.2532 0.8418
30.1737 16.7443 1.8085 0.8709
9.0600 6.5681 0.5865 0.9562
3.6987 5.6266 0.3529 0.9734
2.0080 5.6726 0.3154 0.9762
1.2669 5.6772 0.3048 0.9770
0.5638 5.6815 0.2992 0.9774
-1.3497 62.0389 3.2521 0.7799
-2.2930 5.6793 0.3210 0.9758
-3.1394 5.6871 0.3404 0.9743
-5.2806 5.7174 0.4079 0.9693
-6.7221 5.7131 0.4623 0.9653
-25.9155 5.8443 1.3923 0.8991
-17.3536 -34.5596 2.0267 0.8565
-12.4984 -34.8119 1.9384 0.8623
15.2854 -57.7852 3.1325 0.7871
24.3620 -44.6032 2.6635 0.8158
52.2635 -34.8609 3.2924 0.7775
44.5338 -22.4867 2.6145 0.8189
61.3318 -22.1748 3.4179 0.7701
61.2268 -6.4905 3.2267 0.7814
61.1780 0.9206 3.2066 0.7826
44.4787 6.0733 2.3527 0.8354
21.1907 5.5547 1.1481 0.9160
30.8129 16.7404 1.8378 0.8690
27.0174 19.2202 1.7377 0.8756
6.1968 5.6469 0.4394 0.9670
4.8719 5.6550 0.3912 0.9705
6.6436 9.9120 0.6254 0.9533
2.8775 5.6673 0.3331 0.9749
1.3203 5.6769 0.3055 0.9769
-0.0728 5.6820 0.2978 0.9775
-2.2345 5.6802 0.3199 0.9758
-3.0730 5.6865 0.3387 0.9744
-17.2640 24.3828 1.5657 0.8872
-6.6059 5.7169 0.4578 0.9656
-8.5187 5.7373 0.5383 0.9597
-15.7546 5.7759 0.8794 0.9350
-29.3610 -0.3105 1.5388 0.8890
-64.9502 -45.7698 4.1642 0.7274
-30.0206 -34.5328 2.3980 0.8325
-23.3976 -34.5732 2.1878 0.8460
-9.8328 -87.1746 4.5976 0.7037
-3.1890 5.6569 0.1133 0.9744
-4.1766 5.6806 0.1231 0.9722
-8.8302 5.7203 0.1836 0.9588
-11.7258 5.7247 0.2278 0.9491
-27.0568 5.8479 0.4832 0.8952
-63.5282 -17.5666 1.1505 0.7682
-24.9348 -38.3029 0.7978 0.8329
-15.3658 -31.2957 0.6086 0.8698
24.7808 -90.4040 1.6362 0.6873
22.2327 -54.3653 1.0252 0.7906
23.4925 -42.1118 0.8417 0.8246
26.3702 -36.2042 0.7818 0.8359
26.4198 -28.3498 0.6764 0.8564
32.4006 -27.2886 0.7394 0.8441
42.7900 -21.1282 0.8330 0.8262
20.4125 5.5463 0.3692 0.9189
41.8094 16.9889 0.7877 0.8348
30.1737 16.7444 0.6023 0.8711
6.0873 5.6476 0.1449 0.9673
4.7849 5.6556 0.1293 0.9708
3.6987 5.6266 0.1175 0.9734
2.0080 5.6726 0.1050 0.9762
0.5638 5.6815 0.0997 0.9774
-1.3497 62.0388 1.0831 0.7802
-2.2866 5.6635 0.1066 0.9759
-3.1224 5.6564 0.1128 0.9745
-8.6576 5.7191 0.1811 0.9593
-11.4603 5.7225 0.2236 0.9500
-29.6879 -0.5794 0.5183 0.8880
-63.4959 -16.9480 1.1471 0.7688
-88.6874 -35.5764 1.6679 0.6823
-29.1499 -34.1432 0.7836 0.8356
-25.3142 -38.1356 0.7989 0.8327
-17.1516 -34.1573 0.6672 0.8582
-12.2741 -34.1872 0.6340 0.8647
-9.2942 -40.7890 0.7302 0.8459
23.9123 -90.3987 1.6322 0.6879
18.5645 -46.5802 0.8753 0.8182
22.9987 -42.1072 0.8375 0.8254
26.3567 -36.8741 0.7912 0.8342
31.8145 -27.2850 0.7316 0.8456
40.9903 -27.3414 0.8600 0.8211
42.5827 -21.5016 0.8327 0.8263
21.1694 5.5492 0.3820 0.9162
43.3457 17.1633 0.8138 0.8299
30.8129 16.7404 0.6121 0.8691
27.0877 19.2702 0.5803 0.8755
6.1968 5.6469 0.1463 0.9670
4.8719 5.6550 0.1303 0.9706
6.4262 9.5877 0.2015 0.9549
2.0652 5.6723 0.1054 0.9761
1.3203 5.6769 0.1017 0.9770
0.6151 5.6812 0.0997 0.9774
-0.0728 5.6820 0.0992 0.9775
-0.7606 5.6651 0.0998 0.9774
-2.2290 5.6662 0.1063 0.9759
-6.6160 5.7256 0.1527 0.9656
-8.4898 5.7179 0.1787 0.9599
-11.2042 5.7204 0.2196 0.9509
-15.7546 5.7759 0.2929 0.9351
-29.3676 -0.3105 0.5126 0.8891
-3.1718 5.6263 -0.1127 0.9745
-4.1766 5.6806 -0.1231 0.9722
-5.3767 5.7180 -0.1370 0.9691
-6.8621 5.7272 -0.1560 0.9649
-11.5993 5.6629 -0.2253 0.9497
-16.7051 5.7876 -0.3086 0.9317
-26.5753 5.7438 -0.4746 0.8969
-80.9687 -12.1641 -1.4292 0.7207
-63.5111 -17.5619 -1.1502 0.7683
-81.0355 -33.3512 -1.5296 0.7043
-66.7209 -37.4167 -1.3352 0.7364
-69.7937 -51.0749 -1.5096 0.7075
-19.1564 -22.8485 -0.5204 0.8876
-14.3905 -22.1057 -0.4604 0.8999
-6.5207 -29.8464 -0.5333 0.8850
-5.9440 -62.7550 -1.1003 0.7771
22.9195 -83.6137 -1.5133 0.7069
21.8630 -53.4612 -1.0082 0.7937
23.3725 -41.8967 -0.8374 0.8254
26.3715 -36.2060 -0.7818 0.8359
26.4198 -28.3498 -0.6764 0.8564
32.4006 -27.2886 -0.7394 0.8441
41.8028 -27.3464 -0.8719 0.8189
79.3834 -27.9013 -1.4687 0.7142
44.2999 6.4529 -0.7814 0.8360
20.1625 5.4783 -0.3647 0.9198
4.7849 5.6556 -0.1293 0.9708
2.8143 5.6677 -0.1105 0.9750
2.0080 5.6726 -0.1050 0.9762
0.5638 5.6815 -0.0997 0.9774
-1.3497 62.0388 -1.0831 0.7802
-0.8112 5.6577 -0.0998 0.9774
-1.5233 5.6563 -0.1022 0.9768
-17.2810 23.9498 -0.5155 0.8886
-5.2806 5.7174 -0.1359 0.9693
-6.7377 5.7264 -0.1543 0.9652
-8.6419 5.7087 -0.1808 0.9594
-11.3388 5.6619 -0.2212 0.9506
-61.2618 6.2174 -1.0748 0.7817
-66.0184 -36.2506 -1.3146 0.7398
-69.6589 -50.0261 -1.4970 0.7096
-19.5368 -22.8834 -0.5252 0.8866
-11.7282 -23.3567 -0.4562 0.9007
-8.8713 -24.7091 -0.4583 0.9003
18.6259 -46.7341 -0.8781 0.8177
26.3673 -36.8889 -0.7915 0.8341
26.4167 -28.8596 -0.6829 0.8551
31.8145 -27.2850 -0.7316 0.8456
40.9903 -27.3414 -0.8600 0.8211
43.7668 -22.0994 -0.8558 0.8219
76.5693 -27.6840 -1.4212 0.7220
43.3457 17.1633 -0.8138 0.8299
30.8129 16.7404 -0.6121 0.8691
4.8719 5.6550 -0.1303 0.9706
2.8775 5.6673 -0.1109 0.9749
1.3203 5.6769 -0.1017 0.9770
-2.2235 5.6523 -0.1060 0.9760
-17.2640 24.3828 -0.5215 0.8873
-5.1861 5.7168 -0.1347 0.9696
-15.7546 5.7759 -0.2929 0.9351
-29.3742 -0.3106 -0.5128 0.8891
-11.9911 -23.3570 -0.4583 0.9003
-6.8287 -28.7783 -0.5163 0.8884
-3.1547 5.5960 -0.3367 0.9746
-4.1766 5.6806 -0.3695 0.9722
-5.3767 5.7180 -0.4113 0.9691
-16.7051 5.7876 -0.9265 0.9316
-26.0878 5.6384 -1.3988 0.8986
-41.9383 -1.1938 -2.1988 0.8453
-44.3321 -6.6601 -2.3494 0.8356
-44.1415 -18.1670 -2.5016 0.8260
-38.5208 -28.1895 -2.5016 0.8260
-19.0055 -22.6685 -1.5503 0.8883
-11.4017 -23.2220 -1.3558 0.9016
-4.2272 -44.6298 -2.3494 0.8356
6.9860 -47.2197 -2.5016 0.8260
12.6189 -46.0355 -2.5016 0.8260
16.9689 -41.4939 -2.3494 0.8356
32.2752 -27.1830 -2.2115 0.8445
37.5153 -24.5416 -2.3494 0.8356
33.2546 -16.4199 -1.9437 0.8620
47.5108 -4.6073 -2.5016 0.8260
47.7154 1.1448 -2.5014 0.8260
42.1156 6.1347 -2.2305 0.8433
19.8966 5.4061 -1.0805 0.9207
21.3968 11.8737 -1.2824 0.9066
26.7183 19.3696 -1.7295 0.8762
4.7849 5.6556 -0.3882 0.9708
3.6987 5.6266 -0.3529 0.9734
2.0080 5.6726 -0.3154 0.9762
0.5638 5.6815 -0.2992 0.9774
-1.0369 47.6588 -2.4983 0.8262
-1.5196 5.6427 -0.3063 0.9769
-2.2753 5.6356 -0.3185 0.9760
-6.7377 5.7264 -0.4634 0.9652
-16.2261 5.7847 -0.9028 0.9333
-25.2333 5.6904 -1.3556 0.9016
-44.3021 -17.7715 -2.5016 0.8260
-38.7714 -27.8440 -2.5016 0.8260
-14.4887 -21.8271 -1.3730 0.9004
-11.6708 -23.2425 -1.3630 0.9011
-8.8071 -24.5303 -1.3659 0.9009
-4.6261 -44.5902 -2.3494 0.8356
21.4891 -39.3434 -2.3494 0.8356
23.9114 -33.4530 -2.1550 0.8481
29.3721 -25.1903 -2.0279 0.8564
40.0174 -20.2062 -2.3494 0.8356
47.4677 -5.0319 -2.5016 0.8260
47.7283 0.7182 -2.5016 0.8260
20.7406 5.4367 -1.1237 0.9177
21.3403 8.4500 -1.2029 0.9122
6.1968 5.6469 -0.4394 0.9670
23.5078 35.0729 -2.2128 0.8444
0.6151 5.6812 -0.2995 0.9774
-1.4656 5.6424 -0.3055 0.9769
-2.2180 5.6384 -0.3175 0.9760
-5.1861 5.7168 -0.4045 0.9696
-6.6160 5.7256 -0.4585 0.9656
-8.4869 5.7159 -0.5363 0.9598
-11.0109 5.6217 -0.6479 0.9517
-15.7546 5.7759 -0.8794 0.9350
-23.4651 5.5126 -1.2632 0.9080
-45.0652 4.9811 -2.3761 0.8339
-29.3809 -0.3107 -1.5399 0.8890
-44.4441 -5.8662 -2.3494 0.8356
-42.0447 -22.5997 -2.5016 0.8260
-39.0188 -27.4962 -2.5016 0.8260
-19.7909 -22.7656 -1.5809 0.8862
-14.9885 -22.1477 -1.4015 0.8984
-4.1766 5.6806 -0.6169 0.9721
-6.8621 5.7272 -0.7820 0.9647
-8.8007 5.7012 -0.9174 0.9588
-16.7051 5.7876 -1.5467 0.9315
-26.7399 2.4724 -2.3494 0.8978
-26.8431 -0.7641 -2.3494 0.8978
-28.2763 -4.2480 -2.5016 0.8915
-27.5594 -7.6206 -2.5016 0.8915
-26.4418 -10.8824 -2.5016 0.8915
-24.9396 -13.9860 -2.5016 0.8915
-20.8279 -19.4971 -2.4960 0.8918
-17.2531 -20.5783 -2.3494 0.8978
-14.2730 -21.9251 -2.2888 0.9003
-8.5074 -24.3789 -2.2590 0.9015
-5.7317 -26.2351 -2.3494 0.8978
0.7497 -28.5837 -2.5016 0.8915
10.8233 -26.4660 -2.5016 0.8915
18.3996 -19.7437 -2.3612 0.8973
21.1379 -17.8029 -2.4178 0.8950
25.6385 -12.6594 -2.5016 0.8915
27.9210 -6.1654 -2.5016 0.8915
28.4601 -2.7599 -2.5016 0.8915
13.8376 5.6228 -1.3068 0.9418
8.4747 6.1438 -0.9158 0.9588
6.0873 5.6476 -0.7265 0.9672
4.7849 5.6556 -0.6481 0.9707
3.6987 5.6266 -0.5891 0.9733
2.8143 5.6677 -0.5536 0.9749
-0.6026 27.6973 -2.4238 0.8947
-2.2697 5.6217 -0.5304 0.9760
-3.0810 5.5814 -0.5578 0.9747
-16.0825 22.2887 -2.4046 0.8955
-6.7377 5.7264 -0.7736 0.9651
-8.6419 5.7087 -0.9061 0.9593
-11.1569 5.5710 -1.0910 0.9512
-16.2260 5.7847 -1.5071 0.9332
-26.2284 5.9148 -2.3523 0.8977
-26.8488 -0.5240 -2.3494 0.8978
-28.3131 -3.9950 -2.5016 0.8915
-26.5380 -10.6456 -2.5016 0.8915
-23.2249 -16.6792 -2.5016 0.8915
-14.5794 -21.9638 -2.3064 0.8996
-8.7134 -24.2696 -2.2560 0.9016
-2.7711 -26.7106 -2.3494 0.8978
0.4941 -28.5893 -2.5016 0.8915
10.5862 -26.5617 -2.5016 0.8915
13.7064 -25.0944 -2.5016 0.8915
16.5787 -23.1942 -2.4943 0.8918
20.8827 -17.9096 -2.4069 0.8954
25.5243 -12.8881 -2.5016 0.8915
26.8900 -9.7222 -2.5016 0.8915
28.4343 -3.0142 -2.5016 0.8915
14.1885 5.6181 -1.3351 0.9406
15.3081 22.8393 -2.4055 0.8955
2.8775 5.6673 -0.5561 0.9748
-0.0728 5.6820 -0.4971 0.9774
-0.7600 5.6601 -0.4996 0.9773
-1.4620 5.6288 -0.5088 0.9769
-2.2126 5.6246 -0.5288 0.9760
-6.6160 5.7256 -0.7655 0.9655
-22.5292 5.2927 -2.0247 0.9113
-26.6914 2.9503 -2.3494 0.8978
-26.8524 -0.2839 -2.3494 0.8978
-28.3477 -3.7417 -2.5016 0.8915
-27.6912 -7.1266 -2.5016 0.8915
-26.6321 -10.4078 -2.5016 0.8915
-21.2207 -19.1644 -2.5016 0.8915
-17.6183 -20.2664 -2.3494 0.8978
-14.8906 -22.0030 -2.3244 0.8988
-11.6579 -22.7080 -2.2332 0.9026
-8.9190 -24.1606 -2.2532 0.9018
-6.1999 -26.1284 -2.3494 0.8978
-3.0099 -26.6847 -2.3494 0.8978
-4.1766 5.6806 -0.8657 0.9720
-5.3767 5.7180 -0.9637 0.9689
-6.8621 5.7272 -1.0974 0.9646
-8.7147 5.6455 -1.2749 0.9590
-11.1215 5.4297 -1.5196 0.9513
-8.7281 -3.5921 -1.1589 0.9627
-16.4417 -12.0321 -2.5016 0.9212
-14.8739 -13.9236 -2.5016 0.9212
-11.1155 -17.0748 -2.5016 0.9212
-8.8913 -18.1091 -2.4771 0.9219
-1.9212 -20.2832 -2.5016 0.9212
2.9818 -20.1546 -2.5016 0.9212
5.3861 -19.6492 -2.5016 0.9212
11.9953 -16.4686 -2.5016 0.9212
17.0499 -11.1536 -2.5016 0.9212
19.2213 -6.7558 -2.5016 0.9212
20.2789 -1.9665 -2.5016 0.9212
20.3682 0.4887 -2.5016 0.9212
18.9346 2.7581 -2.3494 0.9258
18.4650 5.0171 -2.3494 0.9258
17.7269 7.2032 -2.3494 0.9258
8.3461 6.0506 -1.2657 0.9593
6.0873 5.6476 -1.0196 0.9671
4.7849 5.6556 -0.9096 0.9706
3.6987 5.6266 -0.8268 0.9732
0.5638 5.6815 -0.7010 0.9773
-0.4239 19.4859 -2.3931 0.9245
-2.2641 5.6078 -0.7426 0.9759
-3.0730 5.5669 -0.7808 0.9747
-11.3387 15.7143 -2.3793 0.9249
-5.2806 5.7174 -0.9556 0.9691
-6.7377 5.7264 -1.0857 0.9650
-8.5628 5.6564 -1.2601 0.9595
-10.9714 5.4784 -1.5057 0.9518
-18.6657 4.2094 -2.3494 0.9258
-20.3702 -0.3976 -2.5016 0.9212
-8.7120 -3.4948 -1.1526 0.9629
-16.5487 -11.8846 -2.5016 0.9212
-14.9979 -13.7901 -2.5016 0.9212
-2.1025 -20.2652 -2.5016 0.9212
0.3521 -20.3710 -2.5016 0.9212
5.2101 -19.6966 -2.5016 0.9212
13.7565 -15.0286 -2.5016 0.9212
15.4654 -13.2636 -2.5016 0.9212
19.1602 -6.9274 -2.5016 0.9212
20.2605 -2.1477 -2.5016 0.9212
18.5091 4.8518 -2.3494 0.9258
17.7906 7.0444 -2.3494 0.9258
4.8719 5.6550 -0.9165 0.9704
10.7941 16.1044 -2.3805 0.9248
1.3203 5.6769 -0.7156 0.9768
0.6151 5.6812 -0.7016 0.9772
-3.9183 5.5340 -0.8326 0.9730
-10.7634 5.4954 -1.4839 0.9525
-15.7546 5.7759 -2.0603 0.9346
-19.0186 2.1022 -2.3494 0.9258
-20.1988 -2.6661 -2.5016 0.9212
-8.8513 -2.2780 -1.1222 0.9638
-8.6960 -3.3984 -1.1464 0.9631
-16.6543 -11.7361 -2.5016 0.9212
-13.3670 -15.3761 -2.5016 0.9212
-11.4191 -16.8733 -2.5016 0.9212
-9.2364 -17.9913 -2.4832 0.9217
-7.0116 -18.9937 -2.4860 0.9216
-4.1766 5.6806 -1.1167 0.9718
-10.8067 5.2760 -1.9047 0.9525
-8.2170 -2.2721 -1.3503 0.9661
-8.0618 -3.3179 -1.3808 0.9653
-13.7762 -7.7256 -2.5016 0.9380
-11.5307 -10.7940 -2.5016 0.9380
-8.6171 -13.2369 -2.5016 0.9380
-6.9611 -14.1778 -2.5016 0.9380
-3.3712 -15.4306 -2.5016 0.9380
4.1755 -15.2327 -2.5016 0.9380
7.6948 -13.7934 -2.5016 0.9380
12.0807 -10.1747 -2.5016 0.9380
13.2176 -8.6466 -2.5016 0.9380
14.9010 -5.2373 -2.5016 0.9380
15.4230 -3.4057 -2.5016 0.9380
14.3146 3.8894 -2.3494 0.9417
13.7424 5.5841 -2.3494 0.9417
6.0873 5.6476 -1.3152 0.9669
4.7849 5.6556 -1.1733 0.9704
3.6987 5.6266 -1.0665 0.9731
2.8143 5.6677 -1.0022 0.9747
2.0080 5.6726 -0.9531 0.9759
1.2669 5.6772 -0.9213 0.9767
0.5638 5.6815 -0.9043 0.9771
-0.3264 15.0005 -2.3764 0.9410
-1.5148 5.6247 -0.9226 0.9767
-2.2585 5.5939 -0.9555 0.9759
-3.0650 5.5523 -1.0045 0.9746
-6.7377 5.7264 -1.4005 0.9648
-10.6637 5.3248 -1.8878 0.9529
-14.4702 3.2632 -2.3494 0.9417
-14.7578 1.4978 -2.3494 0.9417
-8.0627 -3.2343 -1.3759 0.9654
-13.8447 -7.6021 -2.5016 0.9380
-11.6268 -10.6905 -2.5016 0.9380
-10.2555 -12.0122 -2.5016 0.9380
-7.0876 -14.1150 -2.5016 0.9380
-5.3371 -14.8655 -2.5016 0.9380
-3.5090 -15.3998 -2.5016 0.9380
5.8476 -14.6722 -2.5016 0.9380
9.1846 -12.8496 -2.5016 0.9380
11.9893 -10.2823 -2.5016 0.9380
13.1397 -8.7645 -2.5016 0.9380
14.8535 -5.3704 -2.5016 0.9380
15.7928 0.2376 -2.5016 0.9380
14.6972 2.0068 -2.3494 0.9417
14.3488 3.7613 -2.3494 0.9417
13.0342 7.0814 -2.3494 0.9417
8.3454 5.9369 -1.6221 0.9594
2.8775 5.6673 -1.0067 0.9746
2.0652 5.6723 -0.9561 0.9758
1.3203 5.6769 -0.9231 0.9767
-0.0728 5.6820 -0.9000 0.9772
-1.4616 5.6272 -0.9208 0.9767
-2.2016 5.5967 -0.9526 0.9759
-5.1861 5.7168 -1.2225 0.9692
-6.6160 5.7256 -1.3858 0.9652
-8.4226 5.6726 -1.6083 0.9597
-14.4405 3.3925 -2.3494 0.9417
-14.7438 1.6296 -2.3494 0.9417
-15.7937 -0.1670 -2.5016 0.9380
-8.4310 -2.1698 -1.3789 0.9654
-12.9109 -9.0982 -2.5016 0.9380
-11.7219 -10.5860 -2.5016 0.9380
-7.2136 -14.0511 -2.5016 0.9380
-5.4698 -14.8172 -2.5016 0.9380
-3.6466 -15.3678 -2.5016 0.9380
-5.3767 5.7180 -1.5257 0.9685
-8.6822 5.6244 -2.0108 0.9587
-11.4207 3.9568 -2.3494 0.9519
-11.8139 2.5534 -2.3494 0.9519
-12.8645 -0.3662 -2.5016 0.9489
-12.7269 -1.9120 -2.5016 0.9489
-11.2251 -6.2950 -2.5016 0.9489
-10.3858 -7.6003 -2.5016 0.9489
-5.6720 -11.5523 -2.5016 0.9489
-2.7469 -12.5731 -2.5016 0.9489
-1.2136 -12.8123 -2.5016 0.9489
0.3374 -12.8653 -2.5016 0.9489
9.8436 -8.2905 -2.5016 0.9489
10.7699 -7.0454 -2.5016 0.9489
11.5396 -5.6979 -2.5016 0.9489
12.8660 0.3087 -2.5016 0.9489
11.9605 1.7422 -2.3494 0.9519
11.6638 3.1692 -2.3494 0.9519
11.1976 4.5500 -2.3494 0.9519
10.5685 5.8648 -2.3494 0.9519
8.3461 6.0506 -2.0038 0.9589
6.0873 5.6476 -1.6141 0.9667
3.6987 5.6266 -1.3088 0.9729
2.0080 5.6726 -1.1697 0.9758
0.5638 5.6815 -1.1098 0.9770
-0.2647 12.1683 -2.3658 0.9516
-0.8085 5.6385 -1.1072 0.9771
-3.8661 5.3581 -1.2843 0.9734
-8.5512 5.6487 -1.9921 0.9591
-11.7906 2.6589 -2.3494 0.9519
-12.8673 -0.2511 -2.5016 0.9489
-7.8687 -2.1003 -1.5831 0.9674
-7.4500 -2.9885 -1.5603 0.9678
-11.2809 -6.1943 -2.5016 0.9489
-9.4737 -8.7108 -2.5016 0.9489
-5.7751 -11.5012 -2.5016 0.9489
-4.3488 -12.1127 -2.5016 0.9489
3.2911 -12.4418 -2.5016 0.9489
4.7647 -11.9552 -2.5016 0.9489
6.1691 -11.2947 -2.5016 0.9489
7.4838 -10.4700 -2.5016 0.9489
8.6896 -9.4932 -2.5016 0.9489
9.7691 -8.3782 -2.5016 0.9489
12.5416 -2.8873 -2.5016 0.9489
6.7484 0.1016 -1.3119 0.9729
11.6917 3.0647 -2.3494 0.9519
10.6205 5.7700 -2.3494 0.9519
8.3454 5.9369 -1.9908 0.9591
6.1968 5.6469 -1.6296 0.9664
4.8719 5.6550 -1.4509 0.9700
6.7541 10.0769 -2.3580 0.9518
2.8775 5.6673 -1.2355 0.9744
2.0652 5.6723 -1.1734 0.9757
1.3203 5.6769 -1.1329 0.9765
0.6151 5.6812 -1.1108 0.9770
-0.7574 5.6412 -1.1064 0.9771
-2.9758 5.5067 -1.2167 0.9748
-3.8067 5.3764 -1.2805 0.9735
-8.4226 5.6726 -1.9739 0.9595
-11.3481 4.1604 -2.3494 0.9519
-11.7664 2.7642 -2.3494 0.9519
-7.9985 -2.0585 -1.6054 0.9669
-10.5200 -7.4134 -2.5016 0.9489
-7.2131 -10.6583 -2.5016 0.9489
-1.4425 -12.7886 -2.5016 0.9489
-3.0708 5.4473 -1.4437 0.9747
-3.8459 5.2309 -1.4989 0.9737
-8.5409 5.5329 -2.3494 0.9591
-9.9468 2.1498 -2.3494 0.9591
-10.7897 0.9976 -2.5016 0.9565
-8.7443 -6.3991 -2.5016 0.9565
-6.9617 -8.3034 -2.5016 0.9565
-5.9116 -9.0810 -2.5016 0.9565
-4.7756 -9.7266 -2.5016 0.9565
-3.5701 -10.2306 -2.5016 0.9565
-2.3128 -10.5860 -2.5016 0.9565
-1.0218 -10.7874 -2.5016 0.9565
1.5858 -10.7190 -2.5016 0.9565
5.2789 -9.4628 -2.5016 0.9565
9.0678 -5.9319 -2.5016 0.9565
9.7158 -4.7973 -2.5016 0.9565
6.7237 0.1613 -1.5527 0.9728
10.3482 1.5074 -2.4143 0.9580
9.8204 2.6683 -2.3494 0.9591
9.4278 3.8309 -2.3494 0.9591
8.2391 5.9730 -2.3494 0.9591
6.0873 5.6476 -1.9170 0.9665
4.7849 5.6556 -1.7103 0.9700
3.6987 5.6266 -1.5545 0.9727
1.2669 5.6772 -1.3429 0.9764
-1.4952 5.5520 -1.3274 0.9767
-2.2230 5.5061 -1.3709 0.9759
-3.7876 5.2493 -1.4944 0.9738
-5.2806 5.7174 -1.7968 0.9686
-9.5855 3.4173 -2.3494 0.9591
-9.9271 2.2387 -2.3494 0.9591
-10.7801 1.0941 -2.5016 0.9565
-10.7294 -1.5139 -2.5016 0.9565
-8.8012 -6.3207 -2.5016 0.9565
-7.0357 -8.2408 -2.5016 0.9565
-5.9926 -9.0278 -2.5016 0.9565
-3.6615 -10.1983 -2.5016 0.9565
-2.4073 -10.5649 -2.5016 0.9565
2.7709 -10.4754 -2.5016 0.9565
4.0117 -10.0657 -2.5016 0.9565
6.3010 -8.8153 -2.5016 0.9565
6.6286 0.0997 -1.5305 0.9732
10.4550 1.4276 -2.4361 0.9576
9.4617 3.7465 -2.3494 0.9591
8.9420 4.8581 -2.3494 0.9591
8.2922 5.8991 -2.3494 0.9591
2.0652 5.6723 -1.3936 0.9755
-2.1674 5.5097 -1.3669 0.9760
-2.9485 5.4561 -1.4318 0.9749
-6.6160 5.7256 -2.0200 0.9647
-8.4406 5.6847 -2.3494 0.9591
-10.7630 1.1896 -2.5000 0.9565
-8.8574 -6.2417 -2.5016 0.9565
-7.1091 -8.1776 -2.5016 0.9565
-4.9488 -9.6396 -2.5016 0.9565
-3.0212 5.3593 -1.6485 0.9748
-5.3767 5.7180 -2.1031 0.9680
-6.7316 5.6183 -2.3494 0.9643
-9.2965 0.8596 -2.5016 0.9621
-8.1431 -4.5666 -2.5016 0.9621
-7.5342 -5.5135 -2.5016 0.9621
-6.8158 -6.3803 -2.5016 0.9621
-5.0935 -7.8243 -2.5016 0.9621
-4.1147 -8.3805 -2.5016 0.9621
-3.0761 -8.8148 -2.5016 0.9621
-0.8804 -9.2946 -2.5016 0.9621
2.4681 -9.0040 -2.5016 0.9621
3.5339 -8.6415 -2.5016 0.9621
4.5484 -8.1533 -2.5016 0.9621
7.8129 -5.1110 -2.5016 0.9621
8.3713 -4.1334 -2.5016 0.9621
8.8079 -3.0958 -2.5016 0.9621
9.1165 -2.0131 -2.5016 0.9621
6.7433 0.1618 -1.8074 0.9725
8.9009 1.2966 -2.4102 0.9634
7.6668 4.2545 -2.3494 0.9643
7.0989 5.1464 -2.3494 0.9643
4.7849 5.6556 -1.9850 0.9698
2.8143 5.6677 -1.6956 0.9741
2.0080 5.6726 -1.6124 0.9754
1.2669 5.6772 -1.5586 0.9762
0.5638 5.6815 -1.5298 0.9766
-0.7994 5.5756 -1.5093 0.9769
-1.4824 5.5043 -1.5274 0.9767
-2.2033 5.4573 -1.5770 0.9759
-2.9674 5.3757 -1.6453 0.9749
-5.2806 5.7174 -2.0854 0.9683
-6.6811 5.6783 -2.3494 0.9643
-7.3160 4.8328 -2.3494 0.9643
-7.8445 3.9171 -2.3494 0.9643
-8.2590 2.9444 -2.3494 0.9643
-8.5533 1.9289 -2.3494 0.9643
-9.3344 -0.1822 -2.5016 0.9621
-9.2446 -1.3044 -2.5016 0.9621
-7.4545 -1.9897 -2.0673 0.9686
-6.8543 -3.7637 -2.0953 0.9681
-7.5832 -5.4460 -2.5016 0.9621
-6.8726 -6.3191 -2.5016 0.9621
-5.1633 -7.7784 -2.5016 0.9621
-4.1895 -8.3434 -2.5016 0.9621
0.1613 -9.3348 -2.5016 0.9621
4.4753 -8.1936 -2.5016 0.9621
6.3038 -6.8867 -2.5016 0.9621
8.7799 -3.1744 -2.5016 0.9621
9.2841 -0.9842 -2.5016 0.9621
6.6138 0.0995 -1.7724 0.9730
8.9023 1.2156 -2.4075 0.9635
8.4816 2.2233 -2.3494 0.9643
7.7045 4.1858 -2.3494 0.9643
7.1447 5.0827 -2.3494 0.9643
4.8818 7.2834 -2.3494 0.9643
2.8775 5.6673 -1.7031 0.9740
2.0652 5.6723 -1.6175 0.9753
0.6151 5.6812 -1.5312 0.9766
-0.7499 5.5848 -1.5099 0.9769
-2.9138 5.3920 -1.6422 0.9749
-3.6544 5.1613 -1.6945 0.9742
-6.6301 5.7378 -2.3494 0.9643
-7.2725 4.8980 -2.3494 0.9643
-7.8092 3.9871 -2.3494 0.9643
-8.2323 3.0181 -2.3494 0.9643
-8.5358 2.0053 -2.3494 0.9643
-9.3356 -0.0987 -2.5016 0.9621
-9.2559 -1.2217 -2.5016 0.9621
-7.7312 -1.9897 -2.1391 0.9675
-6.6547 -2.6007 -1.9145 0.9708
-6.7712 -3.6396 -2.0598 0.9687
-6.1253 -7.0459 -2.5016 0.9621
-5.2327 -7.7320 -2.5016 0.9621
-4.2639 -8.3056 -2.5016 0.9621
-3.2332 -8.7584 -2.5016 0.9621
-2.1555 -9.0839 -2.5016 0.9621
