ply
format ascii 1.0
element vertex 715
property float32 x
property float32 y
property float32 z
property float32 I
end_header
-28.3567 -34.0793 11.8792 0.8323
-16.0184 -33.0028 9.8297 0.8591
20.0599 -48.0386 13.9491 0.8061
49.7057 -31.8536 15.8188 0.7831
29.2775 16.7498 9.0380 0.8696
4.9476 6.0198 2.0879 0.9682
3.6049 5.6628 1.7987 0.9726
2.7090 5.6683 1.6834 0.9743
1.1728 5.6778 1.5535 0.9763
-0.2186 5.6863 1.5248 0.9767
-1.6411 5.6951 1.5881 0.9758
-4.2721 5.6932 1.9072 0.9710
-24.1565 19.7321 8.3576 0.8788
-31.2738 19.7759 9.9146 0.8579
-46.1595 -13.4524 12.8829 0.8195
-27.6695 -34.0835 11.7632 0.8338
-20.6433 -43.8746 12.9924 0.8181
-14.7456 -73.6301 20.1209 0.7327
49.7429 -31.0352 15.7100 0.7844
84.9842 14.4623 23.0988 0.6998
37.2053 16.2010 10.8733 0.8453
28.4813 16.7547 8.8541 0.8721
24.3337 23.7793 9.1165 0.8686
5.2480 6.5451 2.2479 0.9659
2.6255 5.6688 1.6740 0.9745
1.1015 5.6782 1.5498 0.9763
-0.9862 5.6910 1.5476 0.9764
-3.3798 5.7057 1.7769 0.9729
-28.7114 -34.5056 10.3633 0.8317
-19.7512 -30.6164 8.4116 0.8611
49.7385 -52.4617 16.6899 0.7432
85.1655 13.4354 19.9052 0.7019
49.8508 14.2016 11.9669 0.8083
29.2775 16.7498 7.7872 0.8707
25.3361 24.1668 8.0835 0.8661
4.6490 5.6564 1.6904 0.9704
3.6049 5.6628 1.5498 0.9728
2.7090 5.6683 1.4504 0.9745
1.1728 5.6778 1.3385 0.9765
0.4706 5.6821 1.3163 0.9769
-0.2186 5.6863 1.3138 0.9769
-1.6411 5.6951 1.3683 0.9760
-3.2869 5.7052 1.5201 0.9733
-4.2856 5.7113 1.6485 0.9711
-24.1565 19.7321 7.2010 0.8798
-65.4442 -19.0725 15.7375 0.7559
-60.4094 -25.8717 15.1718 0.7635
-14.5315 -72.5608 17.0846 0.7380
20.0695 -46.4727 11.6868 0.8124
84.6492 14.4053 19.8238 0.7029
37.2053 16.2010 9.3685 0.8465
4.5360 5.6571 1.6740 0.9707
3.5097 5.6634 1.5382 0.9730
1.1015 5.6782 1.3354 0.9765
0.4015 5.6825 1.3152 0.9769
-0.2876 5.6867 1.3146 0.9769
-1.7161 5.6955 1.3733 0.9759
-3.3798 5.7057 1.5310 0.9731
-4.3951 5.7120 1.6639 0.9708
-71.1662 -67.0646 19.0079 0.6713
-28.7114 -34.5056 8.7255 0.8328
-22.3007 -34.5683 7.9963 0.8457
-15.0553 -70.7229 14.0552 0.7448
15.3553 -54.5258 11.0110 0.7939
17.9057 -42.8798 9.0325 0.8275
25.6602 -45.1686 10.0978 0.8092
39.7658 -53.6674 12.9835 0.7617
44.5987 -47.0405 12.6001 0.7679
50.3517 14.3443 10.1768 0.8079
38.4516 16.1933 8.1100 0.8437
29.2775 16.7498 6.5565 0.8716
24.8012 18.4933 6.0136 0.8816
2.7090 5.6683 1.2212 0.9747
1.9101 5.6732 1.1636 0.9759
1.1728 5.6778 1.1269 0.9767
-3.2869 5.7052 1.2799 0.9735
-7.0125 5.7281 1.7600 0.9638
-17.2364 -36.6336 7.8697 0.8479
-14.3378 -43.4527 8.8943 0.8299
18.9674 -43.9205 9.2994 0.8229
39.7739 -52.3429 12.7785 0.7650
49.6233 -30.9606 11.3692 0.7879
37.2054 16.2010 7.8879 0.8476
3.5097 5.6634 1.2951 0.9732
2.6255 5.6688 1.2144 0.9749
1.1015 5.6782 1.1243 0.9767
0.4015 5.6825 1.1073 0.9771
-0.2876 5.6867 1.1068 0.9771
-0.9862 5.6910 1.1227 0.9767
-1.7161 5.6955 1.1563 0.9761
-3.3798 5.7057 1.2891 0.9733
-4.3951 5.7120 1.4009 0.9711
-70.8726 -66.7879 15.4240 0.6741
-11.8959 -34.6384 5.8007 0.8622
42.3982 -44.7196 9.7602 0.7791
58.1786 -28.0209 10.2277 0.7699
54.0828 -4.6441 8.5974 0.8027
54.1231 1.9170 8.5776 0.8031
54.1639 8.5447 8.6848 0.8009
29.2775 16.7498 5.3424 0.8723
25.3361 24.1668 5.5456 0.8678
3.6049 5.6628 1.0632 0.9732
2.7090 5.6683 0.9950 0.9749
1.9101 5.6732 0.9481 0.9760
0.4706 5.6821 0.9030 0.9772
-0.2186 5.6863 0.9013 0.9772
-0.9154 5.6906 0.9129 0.9769
-1.6411 5.6951 0.9387 0.9763
-3.2869 5.7052 1.0428 0.9737
-5.4879 5.7187 1.2553 0.9684
-9.0785 5.7408 1.7013 0.9574
-88.4004 41.9201 15.4957 0.6729
-90.3625 -14.8159 14.5031 0.6902
-66.5393 -19.3917 10.9772 0.7553
-79.3854 -33.9987 13.6780 0.7049
-69.7332 -67.3250 15.3522 0.6753
-28.0156 -34.5099 7.0402 0.8353
-21.6975 -34.5436 6.4609 0.8477
-16.2850 -34.6115 6.0584 0.8565
-11.8714 -35.9780 6.0005 0.8578
-14.6704 -73.2547 11.8328 0.7389
18.0831 -41.8729 7.2240 0.8313
26.4685 -45.3067 8.3107 0.8086
43.9017 -45.1977 9.9797 0.7748
50.0716 -31.2403 9.3475 0.7874
59.2898 -27.6777 10.3634 0.7672
54.5467 -17.8157 9.0885 0.7926
54.1271 2.5729 8.5826 0.8030
54.1680 9.2181 8.7027 0.8005
49.9049 14.8719 8.2477 0.8099
37.2054 16.2010 6.4272 0.8485
24.8041 18.9665 4.9455 0.8812
25.3398 24.7625 5.6116 0.8663
4.5360 5.6571 1.1485 0.9711
3.5097 5.6634 1.0553 0.9734
-0.2876 5.6867 0.9018 0.9772
-0.9862 5.6910 0.9148 0.9769
-1.7161 5.6955 0.9421 0.9762
-2.5027 5.7004 0.9860 0.9751
-3.3798 5.7057 1.0503 0.9735
-71.5266 -67.4043 12.0675 0.6730
-28.7114 -34.5056 5.5116 0.8345
-17.6667 -36.3987 4.9678 0.8495
-14.6430 -68.7863 8.6351 0.7532
14.9125 -52.9533 6.7547 0.8012
17.9261 -42.9286 5.7121 0.8290
42.8665 -45.2135 7.6500 0.7780
49.5642 -40.9883 7.8971 0.7717
54.1777 -18.4233 7.0263 0.7940
54.0416 -11.3335 6.7798 0.8005
54.1231 1.9170 6.6496 0.8039
50.3517 14.3443 6.4284 0.8098
38.4516 16.1933 5.1229 0.8452
29.2775 16.7498 4.1415 0.8729
4.6490 5.6564 0.8990 0.9709
3.6049 5.6628 0.8242 0.9733
2.7090 5.6683 0.7714 0.9750
1.1728 5.6778 0.7119 0.9769
-2.4066 5.6666 0.7559 0.9755
-3.2869 5.7052 0.8084 0.9738
-4.2856 5.7113 0.8767 0.9716
-9.0785 5.7408 1.3189 0.9576
-12.1458 5.7596 1.6505 0.9473
-21.6976 -34.5435 5.0087 0.8484
-12.6778 -38.4220 4.9678 0.8495
-15.6221 -78.0066 9.7682 0.7257
26.3552 -45.1126 6.4151 0.8101
49.5703 -39.9938 7.8204 0.7736
54.1288 -25.2684 7.3347 0.7860
54.0564 -17.6556 6.9823 0.7952
54.1271 2.5729 6.6535 0.8038
54.1680 9.2181 6.7466 0.8014
37.2054 16.2010 4.9826 0.8491
28.5990 16.8240 4.0741 0.8748
3.5097 5.6634 0.8181 0.9735
1.8341 5.6737 0.7321 0.9763
1.1015 5.6782 0.7102 0.9770
0.4015 5.6825 0.6995 0.9773
-3.3798 5.7057 0.8143 0.9736
-17.7791 -36.6303 3.5623 0.8492
-13.9456 -40.6068 3.7563 0.8416
-11.9304 -56.0433 5.0130 0.7945
13.0418 -46.3107 4.2093 0.8243
17.8378 -42.7172 4.0500 0.8304
32.5018 -43.8641 4.7763 0.8032
42.8672 -45.2142 5.4510 0.7787
49.6182 -31.7975 5.1559 0.7893
47.7577 -23.0018 4.6376 0.8083
54.0057 -18.3648 4.9906 0.7953
54.2640 8.5605 4.8062 0.8021
29.2775 16.7498 2.9510 0.8733
24.8012 18.4933 2.7066 0.8832
3.6049 5.6628 0.5873 0.9734
1.9101 5.6732 0.5237 0.9763
0.4706 5.6821 0.4988 0.9774
-0.2186 5.6863 0.4979 0.9774
-0.9154 5.6906 0.5043 0.9771
-4.2856 5.7113 0.6247 0.9717
-12.1458 5.7596 1.1760 0.9475
-68.8903 -20.0768 6.2779 0.7497
-13.9559 -42.2954 3.8966 0.8362
-11.9771 -59.8059 5.3362 0.7828
14.9356 -89.3991 7.9298 0.6949
13.2492 -44.9561 4.1004 0.8285
26.4686 -45.3067 4.5907 0.8100
33.4729 -44.0507 4.8403 0.8008
50.0181 -40.3551 5.6227 0.7726
54.0102 -17.6405 4.9709 0.7960
18.6914 5.5701 1.7064 0.9247
24.8041 18.9666 2.7318 0.8822
3.5097 5.6634 0.5829 0.9736
1.8341 5.6737 0.5217 0.9763
0.4015 5.6825 0.4984 0.9774
-0.2876 5.6867 0.4982 0.9774
-0.9862 5.6910 0.5053 0.9771
-1.7161 5.6955 0.5204 0.9764
-2.5027 5.7004 0.5447 0.9753
-3.3798 5.7057 0.5802 0.9737
-36.6020 -34.4925 2.6358 0.8175
-22.6071 -27.1693 1.8523 0.8680
-16.7758 -34.5631 2.0135 0.8574
-12.0135 -34.9809 1.9384 0.8623
-11.9907 -56.3267 3.0181 0.7940
15.0280 -53.3633 2.9054 0.8009
25.5796 -45.0267 2.7140 0.8127
24.1818 -32.6354 2.1287 0.8498
25.8338 -27.2483 1.9678 0.8604
49.3302 -23.7591 2.8695 0.8031
59.1051 -20.0988 3.2718 0.7788
42.5318 6.7097 2.2566 0.8416
38.4516 16.1933 2.1866 0.8461
29.2775 16.7498 1.7677 0.8736
24.8012 18.4933 1.6213 0.8835
5.4842 6.6726 0.4527 0.9660
1.9101 5.6732 0.3137 0.9763
-0.2186 5.6863 0.2982 0.9775
-3.2822 5.6969 0.3446 0.9740
-9.0785 5.7408 0.5629 0.9579
-17.3760 5.7918 0.9599 0.9293
-28.8186 5.8621 1.5412 0.8889
-44.0586 -1.8273 2.3110 0.8381
-68.7347 -20.0314 3.7521 0.7507
-28.0157 -34.5099 2.3295 0.8369
-16.2637 -34.5663 2.0020 0.8581
-11.8356 -35.8695 1.9795 0.8596
-15.6221 -78.0066 4.1693 0.7271
13.4217 -45.5411 2.4882 0.8268
50.0716 -31.2404 3.0930 0.7895
49.3346 -23.0304 2.8534 0.8041
59.0998 -19.3028 3.2583 0.7796
59.0484 -11.6398 3.1541 0.7858
28.4813 16.7547 1.7318 0.8760
24.8041 18.9665 1.6364 0.8824
6.8198 6.6644 0.4997 0.9625
2.6255 5.6688 0.3274 0.9753
1.8341 5.6737 0.3125 0.9764
1.1015 5.6782 0.3031 0.9771
-0.2876 5.6867 0.2984 0.9775
-28.7115 -34.5057 0.7835 0.8356
-24.7108 -38.3042 0.7957 0.8333
-12.3413 -57.9737 1.0346 0.7889
25.4604 -90.4082 1.6395 0.6868
20.0712 -48.0656 0.9092 0.8119
23.8938 -42.0592 0.8443 0.8241
24.1818 -32.6354 0.7090 0.8500
25.8338 -27.2483 0.6554 0.8605
42.6809 -27.3518 0.8848 0.8164
44.3213 -21.3467 0.8587 0.8213
81.4925 -27.7117 1.5024 0.7087
38.5946 6.0886 0.6820 0.8553
19.5081 5.5575 0.3541 0.9221
24.4663 10.3036 0.4634 0.8992
29.2775 16.7498 0.5888 0.8738
24.9017 18.5683 0.5422 0.8831
5.0563 6.1520 0.1390 0.9686
2.7090 5.6683 0.1097 0.9752
1.9101 5.6732 0.1045 0.9763
0.4706 5.6821 0.0995 0.9774
-0.2186 5.6863 0.0993 0.9775
-0.9154 5.6906 0.1006 0.9772
-2.4066 5.6666 0.1075 0.9757
-3.2733 5.6815 0.1145 0.9741
-7.0125 5.7281 0.1580 0.9644
-9.0785 5.7408 0.1875 0.9579
-28.8186 5.8621 0.5133 0.8890
-67.2079 -19.5865 1.2219 0.7557
-75.4442 -32.3107 1.4326 0.7201
-35.4652 -34.2404 0.8605 0.8210
-28.0157 -34.5099 0.7759 0.8371
-21.6976 -34.5435 0.7120 0.8494
-16.0744 -34.1639 0.6590 0.8598
-13.8076 -41.8458 0.7692 0.8384
-13.3037 -66.4303 1.1826 0.7626
26.6460 -90.4127 1.6453 0.6859
20.0698 -46.4733 0.8836 0.8167
24.6123 -42.1293 0.8517 0.8227
33.8338 -27.2974 0.7588 0.8404
43.8506 -27.3590 0.9022 0.8132
59.0727 -27.5764 1.1379 0.7704
40.4162 6.8779 0.7156 0.8487
24.4660 10.6537 0.4658 0.8987
28.5991 16.8240 0.5792 0.8757
3.5097 5.6634 0.1163 0.9737
2.6255 5.6688 0.1090 0.9753
-1.7161 5.6955 0.1038 0.9765
-2.5007 5.6958 0.1086 0.9754
-14.7135 -22.8074 -0.4738 0.8971
-11.8118 -24.3358 -0.4722 0.8974
-9.3542 -27.2375 -0.5027 0.8912
-8.0173 -37.6613 -0.6721 0.8572
15.1487 -36.2773 -0.6862 0.8545
23.8078 -41.9078 -0.8413 0.8246
24.1818 -32.6354 -0.7090 0.8500
33.0026 -27.2923 -0.7475 0.8425
42.6809 -27.3518 -0.8848 0.8164
58.1786 -28.0209 -1.1272 0.7723
42.0894 6.6399 -0.7438 0.8433
39.6828 16.7118 -0.7516 0.8418
24.8012 18.4933 -0.5400 0.8836
25.3362 24.1669 -0.6112 0.8693
5.0563 6.1520 -0.1390 0.9686
2.7090 5.6683 -0.1097 0.9752
1.9101 5.6732 -0.1045 0.9763
1.1728 5.6778 -0.1012 0.9771
-0.2186 5.6863 -0.0993 0.9775
-1.6411 5.6951 -0.1035 0.9766
-3.2645 5.6662 -0.1141 0.9742
-5.4094 5.6369 -0.1364 0.9692
-7.0125 5.7281 -0.1580 0.9644
-17.3760 5.7918 -0.3197 0.9293
-63.4770 5.0643 -1.1115 0.7751
-83.1624 -13.6353 -1.4710 0.7138
-65.0706 -27.8680 -1.2356 0.7534
-70.1312 -40.6873 -1.4152 0.7230
-11.4928 -24.4264 -0.4712 0.8976
-9.1176 -27.6322 -0.5079 0.8901
-8.0440 -40.1665 -0.7150 0.8488
24.2903 -82.4196 -1.4998 0.7091
24.4866 -41.9141 -0.8473 0.8235
24.1867 -31.8300 -0.6978 0.8522
33.8337 -27.2974 -0.7588 0.8404
43.8506 -27.3590 -0.9022 0.8132
40.7849 6.9406 -0.7221 0.8475
24.8041 18.9666 -0.5450 0.8826
25.3399 24.7625 -0.6184 0.8678
4.9982 6.2335 -0.1395 0.9685
2.6255 5.6688 -0.1090 0.9753
1.8341 5.6737 -0.1041 0.9764
1.1015 5.6782 -0.1010 0.9771
0.4015 5.6825 -0.0994 0.9775
-0.2876 5.6867 -0.0994 0.9775
-1.7161 5.6955 -0.1038 0.9765
-2.5007 5.6958 -0.1086 0.9754
-3.3567 5.6667 -0.1150 0.9740
-38.4393 -28.3026 -2.5017 0.8260
-26.0260 -24.5260 -1.8742 0.8665
-14.6257 -22.6714 -1.4139 0.8976
-9.2389 -26.9017 -1.4907 0.8923
-4.2277 -47.5473 -2.5017 0.8260
7.2959 -47.1740 -2.5017 0.8260
12.9396 -45.9476 -2.5017 0.8260
15.6363 -37.4450 -2.1266 0.8500
22.1444 -38.9798 -2.3495 0.8356
21.3099 -28.7595 -1.8759 0.8664
32.8748 -27.1867 -2.2357 0.8429
45.1934 -15.3681 -2.5017 0.8260
46.7185 -9.7978 -2.5017 0.8260
47.5599 -4.0839 -2.5017 0.8260
18.9755 7.9913 -1.0791 0.9208
19.1224 10.9401 -1.1546 0.9155
5.0563 6.1520 -0.4173 0.9686
2.7090 5.6683 -0.3292 0.9751
0.4706 5.6821 -0.2988 0.9774
-0.9154 5.6906 -0.3021 0.9772
-2.4066 5.6666 -0.3226 0.9756
-9.0785 5.7408 -0.5629 0.9579
-11.9800 5.6810 -0.6949 0.9483
-17.3760 5.7918 -0.9599 0.9293
-44.6237 -1.8508 -2.3407 0.8362
-45.8284 -13.3558 -2.5017 0.8260
-43.8800 -18.7926 -2.5017 0.8260
-41.2893 -23.9544 -2.5017 0.8260
-38.0942 -28.7655 -2.5017 0.8260
-24.4795 -23.6341 -1.7833 0.8726
-17.9418 -22.1010 -1.4919 0.8922
-14.3151 -22.7903 -1.4105 0.8978
-11.4466 -24.3282 -1.4091 0.8979
7.8659 -47.0823 -2.5017 0.8260
15.6487 -36.2359 -2.0686 0.8538
22.6142 -38.7091 -2.3495 0.8356
33.7028 -27.1917 -2.2695 0.8408
38.0349 -23.7305 -2.3495 0.8356
32.2612 -15.0602 -1.8659 0.8671
45.3759 -14.8204 -2.5017 0.8260
18.9806 8.2651 -1.0849 0.9204
19.1281 11.2525 -1.1631 0.9149
19.1952 14.6776 -1.2664 0.9077
4.9982 6.2335 -0.4187 0.9685
3.5097 5.6634 -0.3492 0.9737
2.6255 5.6688 -0.3274 0.9753
1.8341 5.6737 -0.3125 0.9764
1.1015 5.6782 -0.3031 0.9771
-0.2876 5.6867 -0.2984 0.9775
-0.9862 5.6910 -0.3027 0.9771
-4.3490 5.6521 -0.3738 0.9718
-23.0260 -16.9539 -2.5017 0.8915
-19.6181 -18.4875 -2.3584 0.8974
-14.9591 -17.9779 -2.0461 0.9104
-11.5994 -23.8983 -2.3241 0.8988
-8.7226 -25.3986 -2.3495 0.8978
-5.5915 -26.2661 -2.3495 0.8978
7.7511 -27.5237 -2.5017 0.8915
11.0183 -26.3862 -2.5017 0.8915
18.4766 -19.4882 -2.3495 0.8978
20.9701 -17.3418 -2.3807 0.8965
24.0749 -15.4283 -2.5017 0.8915
25.7620 -12.4079 -2.5017 0.8915
27.0719 -9.2058 -2.5017 0.8915
28.4895 -2.4464 -2.5017 0.8915
28.5764 1.0121 -2.5017 0.8915
13.3531 5.6235 -1.2676 0.9435
19.4839 11.1469 -1.9639 0.9138
19.7729 18.8604 -2.3907 0.8961
5.0563 6.1520 -0.6967 0.9685
3.6049 5.6628 -0.5873 0.9734
2.7090 5.6683 -0.5496 0.9751
1.9101 5.6732 -0.5237 0.9763
1.1728 5.6778 -0.5072 0.9770
0.4706 5.6821 -0.4988 0.9774
-0.2186 5.6863 -0.4979 0.9774
-0.9154 5.6906 -0.5043 0.9771
-2.4066 5.6666 -0.5386 0.9756
-4.2311 5.6386 -0.6168 0.9721
-7.0125 5.7281 -0.7922 0.9643
-26.3157 5.3530 -2.3495 0.8978
-28.2175 -4.6266 -2.5017 0.8915
-26.2851 -11.2572 -2.5017 0.8915
-24.7332 -14.3492 -2.5017 0.8915
-11.3152 -24.0490 -2.3253 0.8988
-8.4148 -25.5022 -2.3495 0.8978
-5.2734 -26.3318 -2.3495 0.8978
-2.1879 -28.5105 -2.5017 0.8915
1.2713 -28.5660 -2.5017 0.8915
4.7119 -28.2034 -2.5017 0.8915
24.2598 -15.1360 -2.5017 0.8915
26.4740 4.5052 -2.3495 0.8978
12.9156 5.6241 -1.2324 0.9450
19.5939 14.9825 -2.1580 0.9057
3.5097 5.6634 -0.5829 0.9736
2.6255 5.6688 -0.5466 0.9752
1.8341 5.6737 -0.5217 0.9763
0.4015 5.6825 -0.4984 0.9774
-0.2876 5.6867 -0.4982 0.9774
-0.9862 5.6910 -0.5053 0.9771
-1.7161 5.6955 -0.5204 0.9764
-3.3503 5.6559 -0.5751 0.9740
-16.4069 -12.0803 -2.5017 0.9212
-13.0319 -15.6618 -2.5017 0.9212
-11.0451 -17.1210 -2.5017 0.9212
-6.6178 -19.2698 -2.5017 0.9212
-1.8045 -20.2945 -2.5017 0.9212
0.6596 -20.3639 -2.5017 0.9212
3.1141 -20.1351 -2.5017 0.9212
5.5230 -19.6117 -2.5017 0.9212
17.1543 -10.9932 -2.5017 0.9212
20.3618 0.7212 -2.5017 0.9212
18.9012 2.9818 -2.3495 0.9258
16.6549 9.5284 -2.3560 0.9256
4.9769 6.0554 -0.9624 0.9689
3.6049 5.6628 -0.8242 0.9733
1.9101 5.6732 -0.7350 0.9762
-0.9154 5.6906 -0.7077 0.9770
-1.6411 5.6951 -0.7277 0.9764
-3.2609 5.6601 -0.8021 0.9740
-7.0125 5.7281 -1.1118 0.9642
-11.6949 5.5458 -1.5892 0.9492
-17.3383 5.7792 -2.2440 0.9290
-18.7510 3.8142 -2.3495 0.9258
-20.3570 -0.8443 -2.5017 0.9212
-20.1061 -3.2966 -2.5017 0.9212
-8.4051 -2.4495 -1.0749 0.9653
-8.2368 -3.5276 -1.1002 0.9645
-17.6234 -10.2244 -2.5017 0.9212
-16.2596 -12.2779 -2.5017 0.9212
-12.8415 -15.8183 -2.5017 0.9212
-10.8372 -17.2533 -2.5017 0.9212
-8.6742 -18.4358 -2.5017 0.9212
-6.3843 -19.3484 -2.5017 0.9212
-4.0009 -19.9778 -2.5017 0.9212
0.9058 -20.3544 -2.5017 0.9212
3.3574 -20.0960 -2.5017 0.9212
8.0778 -18.7048 -2.5017 0.9212
10.2776 -17.5924 -2.5017 0.9212
12.3270 -16.2224 -2.5017 0.9212
14.1959 -14.6150 -2.5017 0.9212
15.8570 -12.7936 -2.5017 0.9212
18.4620 -8.6184 -2.5017 0.9212
19.3676 -6.3258 -2.5017 0.9212
18.3380 5.4648 -2.3495 0.9258
9.6360 5.6686 -1.3727 0.9559
15.2946 11.6951 -2.3640 0.9253
3.5097 5.6634 -0.8181 0.9735
1.8341 5.6737 -0.7321 0.9763
-0.2876 5.6867 -0.6991 0.9773
-1.7161 5.6955 -0.7304 0.9763
-3.3503 5.6559 -0.8071 0.9739
-12.7192 -9.3650 -2.5017 0.9380
-3.2887 -15.4488 -2.5017 0.9380
-1.3989 -15.7329 -2.5017 0.9380
0.5114 -15.7867 -2.5017 0.9380
2.4141 -15.6094 -2.5017 0.9380
4.2816 -15.2036 -2.5017 0.9380
7.8020 -13.7335 -2.5017 0.9380
9.4035 -12.6908 -2.5017 0.9380
10.8673 -11.4622 -2.5017 0.9380
12.1720 -10.0659 -2.5017 0.9380
13.2985 -8.5223 -2.5017 0.9380
14.9540 -5.0851 -2.5017 0.9380
15.7851 0.5591 -2.5017 0.9380
14.6528 2.3116 -2.3495 0.9417
14.2664 4.0642 -2.3495 0.9417
13.6711 5.7574 -2.3495 0.9417
6.1332 5.8501 -1.3424 0.9663
5.0563 6.1520 -1.2613 0.9683
2.7090 5.6683 -0.9950 0.9749
-0.2186 5.6863 -0.9013 0.9772
-0.9154 5.6906 -0.9129 0.9769
-1.6411 5.6951 -0.9387 0.9763
-2.4066 5.6666 -0.9751 0.9754
-4.1981 5.5947 -1.1078 0.9721
-5.2938 5.5165 -1.2110 0.9695
-7.0124 5.7281 -1.4341 0.9640
-9.0785 5.7408 -1.7013 0.9574
-11.6095 5.5053 -2.0350 0.9493
-14.5363 2.9569 -2.3495 0.9417
-15.7814 -0.6545 -2.5017 0.9380
-7.5069 -3.2150 -1.2934 0.9675
-13.6622 -7.9262 -2.5017 0.9380
-12.6050 -9.5182 -2.5017 0.9380
-11.3632 -10.9708 -2.5017 0.9380
-9.9551 -12.2628 -2.5017 0.9380
-8.4013 -13.3753 -2.5017 0.9380
-6.7245 -14.2920 -2.5017 0.9380
-1.2085 -15.7486 -2.5017 0.9380
0.7022 -15.7793 -2.5017 0.9380
2.6027 -15.5790 -2.5017 0.9380
6.2621 -14.5006 -2.5017 0.9380
9.5562 -12.5761 -2.5017 0.9380
12.2928 -9.9180 -2.5017 0.9380
13.4006 -8.3608 -2.5017 0.9380
15.0144 -4.9039 -2.5017 0.9380
15.4967 -3.0548 -2.5017 0.9380
15.7522 -1.1609 -2.5017 0.9380
15.7501 0.7487 -2.4974 0.9381
14.6238 2.4886 -2.3495 0.9417
13.6005 5.9223 -2.3495 0.9417
12.7857 7.5215 -2.3495 0.9417
6.1341 5.9943 -1.3584 0.9659
3.5097 5.6634 -1.0553 0.9734
1.1015 5.6782 -0.9161 0.9768
-2.5007 5.6958 -0.9852 0.9751
-3.3481 5.6523 -1.0405 0.9737
-10.3638 -7.6308 -2.5017 0.9489
-9.3664 -8.8265 -2.5017 0.9489
-4.1803 -12.1722 -2.5017 0.9489
-2.6797 -12.5879 -2.5017 0.9489
-1.1399 -12.8194 -2.5017 0.9489
4.9592 -11.8762 -2.5017 0.9489
7.6621 -10.3407 -2.5017 0.9489
11.5952 -5.5847 -2.5017 0.9489
12.1848 -4.1435 -2.5017 0.9489
12.5960 -2.6416 -2.5017 0.9489
12.8228 -1.1011 -2.5017 0.9489
12.8619 0.4556 -2.5017 0.9489
11.6245 3.3116 -2.3495 0.9519
5.0563 6.1520 -1.5479 0.9681
3.6049 5.6628 -1.3049 0.9730
-0.2186 5.6863 -1.1061 0.9771
-0.9154 5.6906 -1.1204 0.9768
-2.4066 5.6666 -1.1967 0.9752
-3.2296 5.6057 -1.2575 0.9740
-4.1565 5.5392 -1.3461 0.9722
-5.2365 5.4567 -1.4701 0.9697
-9.0785 5.7408 -2.0879 0.9572
-9.3834 3.1277 -1.9226 0.9605
-12.8293 1.0235 -2.5017 0.9489
-12.8590 -0.5333 -2.5017 0.9489
-12.7004 -2.0824 -2.5017 0.9489
-7.3395 -2.1389 -1.4860 0.9693
-7.0092 -3.0018 -1.4821 0.9694
-5.4792 -11.6454 -2.5017 0.9489
-2.5273 -12.6194 -2.5017 0.9489
-0.9847 -12.8323 -2.5017 0.9489
0.5722 -12.8573 -2.5017 0.9489
2.1208 -12.6941 -2.5017 0.9489
3.6383 -12.3450 -2.5017 0.9489
5.1025 -11.8153 -2.5017 0.9489
6.4921 -11.1126 -2.5017 0.9489
8.9671 -9.2319 -2.5017 0.9489
10.0164 -8.0813 -2.5017 0.9489
10.9191 -6.8126 -2.5017 0.9489
11.6619 -5.4440 -2.5017 0.9489
12.6270 -2.4891 -2.5017 0.9489
12.8544 0.6110 -2.5015 0.9489
11.5836 3.4520 -2.3495 0.9519
9.6017 7.3419 -2.3495 0.9519
4.9982 6.2335 -1.5531 0.9680
3.5097 5.6634 -1.2951 0.9732
1.8341 5.6737 -1.1591 0.9760
0.4015 5.6825 -1.1073 0.9771
-0.2876 5.6867 -1.1068 0.9771
-0.9862 5.6910 -1.1227 0.9767
-2.4959 5.6848 -1.2068 0.9750
-3.3169 5.5996 -1.2651 0.9738
-8.7258 -6.4248 -2.5017 0.9565
-7.8861 -7.4315 -2.5017 0.9565
-3.5196 -10.2484 -2.5017 0.9565
-2.2562 -10.5985 -2.5017 0.9565
-0.9597 -10.7934 -2.5017 0.9565
0.3508 -10.8303 -2.5017 0.9565
4.1754 -9.9992 -2.5017 0.9565
6.4511 -8.7064 -2.5017 0.9565
9.1233 -5.8466 -2.5017 0.9565
10.7962 -0.9271 -2.5017 0.9565
10.8292 0.3836 -2.5017 0.9565
10.1399 1.5996 -2.3699 0.9587
9.7873 2.7882 -2.3495 0.9591
9.3789 3.9498 -2.3495 0.9591
8.1583 6.0834 -2.3495 0.9591
6.1332 5.8501 -1.9568 0.9658
5.0563 6.1520 -1.8385 0.9678
1.9101 5.6732 -1.3820 0.9757
1.1728 5.6778 -1.3385 0.9765
0.4706 5.6821 -1.3163 0.9769
-0.9154 5.6906 -1.3307 0.9766
-3.1999 5.5542 -1.4799 0.9740
-4.1151 5.4841 -1.5829 0.9722
-6.1418 5.0169 -1.8309 0.9680
-9.1952 4.3604 -2.3495 0.9591
-9.9725 2.0285 -2.3495 0.9591
-10.8016 0.8618 -2.5017 0.9565
-10.8267 -0.4490 -2.5017 0.9565
-7.0219 -2.0464 -1.6886 0.9704
-6.4434 -2.7595 -1.6182 0.9716
-6.3135 -3.6629 -1.6851 0.9705
-8.6475 -6.5298 -2.5017 0.9565
-7.7956 -7.5264 -2.5017 0.9565
-0.8291 -10.8042 -2.5017 0.9565
0.4818 -10.8252 -2.5017 0.9565
1.7856 -10.6878 -2.5017 0.9565
4.2961 -9.9479 -2.5017 0.9565
5.4660 -9.3563 -2.5017 0.9565
6.5560 -8.6277 -2.5017 0.9565
7.5499 -7.7728 -2.5017 0.9565
10.6314 -2.0957 -2.5017 0.9565
10.8237 0.5145 -2.5017 0.9565
10.0325 1.7073 -2.3495 0.9591
8.0841 6.1816 -2.3495 0.9591
3.5097 5.6634 -1.5382 0.9730
1.1015 5.6782 -1.3354 0.9765
0.4015 5.6825 -1.3152 0.9769
-1.7161 5.6955 -1.3733 0.9759
-2.4959 5.6848 -1.4334 0.9748
-5.9717 -7.1768 -2.5017 0.9621
-4.0767 -8.3993 -2.5017 0.9621
-3.0325 -8.8302 -2.5017 0.9621
-0.8269 -9.2997 -2.5017 0.9621
0.3023 -9.3315 -2.5017 0.9621
1.4270 -9.2267 -2.5017 0.9621
3.5976 -8.6154 -2.5017 0.9621
4.6117 -8.1179 -2.5017 0.9621
7.8608 -5.0375 -2.5017 0.9621
9.1376 -1.9163 -2.5017 0.9621
9.3022 -0.7988 -2.5017 0.9621
9.3305 0.3305 -2.5017 0.9621
8.9893 1.4181 -2.4385 0.9630
8.4328 2.4024 -2.3495 0.9643
7.6109 4.3542 -2.3495 0.9643
7.0293 5.2415 -2.3495 0.9643
5.0563 6.1520 -2.1338 0.9676
2.7090 5.6683 -1.6834 0.9743
1.9101 5.6732 -1.6040 0.9755
1.1728 5.6778 -1.5535 0.9763
0.4706 5.6821 -1.5277 0.9767
-0.2186 5.6863 -1.5248 0.9767
-0.9154 5.6906 -1.5444 0.9764
-4.0739 5.4292 -1.8187 0.9723
-5.0310 5.2426 -1.9469 0.9704
-7.4110 4.6863 -2.3495 0.9643
-7.9227 3.7570 -2.3495 0.9643
-5.9923 -3.4765 -1.8563 0.9717
-7.4508 -5.6262 -2.5017 0.9621
-5.8845 -7.2485 -2.5017 0.9621
-4.9660 -7.9061 -2.5017 0.9621
-3.9749 -8.4480 -2.5017 0.9621
-1.8334 -9.1546 -2.5017 0.9621
0.4151 -9.3272 -2.5017 0.9621
3.7015 -8.5713 -2.5017 0.9621
5.6487 -7.4337 -2.5017 0.9621
6.5051 -6.6971 -2.5017 0.9621
7.2663 -5.8625 -2.5017 0.9621
7.9211 -4.9421 -2.5017 0.9621
8.4600 -3.9493 -2.5017 0.9621
9.3259 0.4433 -2.5017 0.9621
8.0392 3.5007 -2.3495 0.9643
7.5576 4.4459 -2.3495 0.9643
6.9654 5.3261 -2.3495 0.9643
6.1341 5.9943 -2.2981 0.9651
4.9982 6.2335 -2.1409 0.9675
3.5097 5.6634 -1.7853 0.9728
1.1015 5.6782 -1.5498 0.9763
0.4015 5.6825 -1.5264 0.9767
-2.4959 5.6848 -1.6636 0.9746
-3.2811 5.5391 -1.7250 0.9737
-4.1712 5.4210 -1.8328 0.9721
