ply
format ascii 1.0
element vertex 687
property float32 x
property float32 y
property float32 z
property float32 I
end_header
-25.4920 19.4889 8.5980 0.8756
-49.3260 -9.6781 13.4689 0.8121
-58.8410 -27.3849 17.3903 0.7643
-25.9995 -34.0937 11.4886 0.8373
-17.4781 -29.7903 9.2547 0.8667
-19.0594 -43.8924 12.8219 0.8202
21.8477 -46.7949 13.8379 0.8075
26.8035 16.7650 8.4711 0.8773
25.1266 20.3134 8.6576 0.8748
2.4457 5.6700 1.6546 0.9748
-0.4357 5.6877 1.5285 0.9767
-1.8771 5.6965 1.6071 0.9755
-2.6788 5.7014 1.6879 0.9743
-3.5792 5.7070 1.8050 0.9725
-19.4208 23.9629 8.2648 0.8801
-25.5864 19.3649 8.5980 0.8756
-34.0188 19.7928 10.5459 0.8496
-46.7642 -9.4115 12.7817 0.8207
-58.8837 -27.7534 17.4425 0.7637
-22.1124 -29.2903 9.8337 0.8590
-17.3440 -29.8934 9.2605 0.8667
-18.8080 -43.8955 12.7960 0.8206
50.1489 -29.0149 15.5244 0.7867
49.8364 16.6232 14.0769 0.8045
35.1042 16.6498 10.4105 0.8514
25.1279 20.5169 8.6923 0.8743
24.6596 25.6790 9.5395 0.8629
4.2464 5.6534 1.8946 0.9711
-6.7438 2.9381 1.6983 0.9703
-68.4911 -22.2926 16.6289 0.7440
-20.4201 -34.8048 9.3162 0.8473
-19.2006 -44.2176 11.1293 0.8205
-12.8988 -43.4247 10.4583 0.8303
21.3335 -45.6935 11.6423 0.8130
29.3795 -47.0984 12.8156 0.7962
53.3248 10.5971 12.5517 0.8000
50.2291 16.4836 12.2048 0.8049
4.2935 5.6586 1.6399 0.9713
3.3050 5.6647 1.5141 0.9734
0.2529 5.6834 1.3134 0.9769
-1.8771 5.6965 1.3847 0.9757
-2.6788 5.7014 1.4543 0.9745
-22.2607 21.5334 7.1503 0.8806
-34.0188 19.7928 9.0864 0.8508
-27.5091 -36.4389 10.5407 0.8291
-12.6701 -43.4261 10.4437 0.8305
21.2143 -44.8686 11.4582 0.8157
50.0789 -48.2079 16.0481 0.7517
51.2729 -29.6652 13.6758 0.7841
35.1042 16.6499 8.9698 0.8526
25.2284 20.5990 7.5193 0.8748
5.4273 5.6516 1.8090 0.9683
4.2505 5.6588 1.6339 0.9714
-6.7393 2.9362 1.4289 0.9705
-65.9983 -21.4813 13.4912 0.7537
-59.6437 -27.7584 12.7877 0.7649
-19.5463 -33.3155 7.5082 0.8544
-12.8988 -43.4247 8.8054 0.8314
14.3176 -43.8083 8.9587 0.8288
21.0472 -45.0803 9.6707 0.8165
50.0760 -48.6757 13.5746 0.7523
49.8970 -37.9552 12.1861 0.7746
49.9482 -29.2234 11.2486 0.7899
54.1940 10.7698 10.7402 0.7984
35.1030 16.4409 7.5346 0.8539
5.4799 5.6513 1.5301 0.9684
3.3050 5.6647 1.2748 0.9736
1.6706 5.6747 1.1499 0.9762
0.9479 5.6791 1.1192 0.9768
-0.4357 5.6877 1.1088 0.9770
-1.8771 5.6965 1.1659 0.9759
-2.6788 5.7014 1.2245 0.9747
-3.5792 5.7070 1.3094 0.9729
-4.6305 5.7134 1.4295 0.9705
-7.5729 5.7315 1.8461 0.9620
-6.7111 2.8852 1.4200 0.9707
-65.8077 -21.7732 13.4737 0.7539
-59.4537 -28.0220 12.7759 0.7650
-66.8686 -42.0511 15.3545 0.7248
-26.0881 -34.5567 8.4164 0.8383
-20.1697 -34.7636 7.8124 0.8489
21.3152 -45.0819 9.6932 0.8161
50.0789 -48.2078 13.5117 0.7533
49.9502 -28.8999 11.2173 0.7905
53.9573 10.9954 10.7038 0.7990
49.8364 16.6232 10.2119 0.8073
35.1042 16.6499 7.5522 0.8536
-7.4964 5.7310 1.4945 0.9625
-9.7627 5.7437 1.7940 0.9552
-6.7349 2.9343 1.1634 0.9707
-87.8837 26.2211 14.5258 0.6898
-89.8527 4.3256 14.2478 0.6947
-89.4379 -17.5481 14.4357 0.6913
14.7182 -45.0341 7.5040 0.8254
19.7798 -42.3657 7.4054 0.8275
50.3743 -48.9657 11.1267 0.7524
49.9965 -38.0309 9.9493 0.7754
27.8568 -16.2983 5.1118 0.8775
63.9530 -27.6780 11.0371 0.7541
26.8035 16.7650 5.0073 0.8798
5.4799 5.6513 1.2468 0.9686
1.6706 5.6747 0.9369 0.9763
-2.6788 5.7014 0.9977 0.9748
-9.8032 5.7037 1.7964 0.9551
-6.7102 2.8848 1.1568 0.9709
-87.5094 25.6474 14.4432 0.6912
-88.7320 3.8400 14.0669 0.6979
-66.2196 -21.9094 11.0473 0.7539
-35.1269 -36.4017 8.0121 0.8148
-20.4225 -35.1994 6.4455 0.8481
-12.6701 -43.4261 7.1648 0.8326
14.7256 -44.3267 7.3979 0.8277
37.1643 -45.6295 9.3208 0.7879
49.8993 -37.5759 9.8935 0.7765
64.6569 -27.6107 11.1353 0.7522
54.4119 -2.2224 8.6252 0.8021
54.4524 4.3712 8.6522 0.8015
51.8031 10.5564 8.3734 0.8073
49.8364 16.6232 8.3208 0.8083
35.1043 16.6499 6.1537 0.8544
26.5190 16.7668 4.9693 0.8807
25.1279 20.5169 5.1380 0.8769
5.4273 5.6516 1.2410 0.9688
4.2505 5.6588 1.1210 0.9717
-7.4964 5.7310 1.1586 0.9627
-9.7627 5.7437 1.3908 0.9554
-26.3513 -34.5551 5.3358 0.8393
-14.9323 -88.1439 10.9769 0.6975
10.9691 -55.5494 6.9523 0.7960
46.6340 -45.3300 7.9853 0.7694
49.9966 -38.0309 7.7131 0.7763
50.3169 -29.4391 7.1579 0.7906
54.3693 -9.1427 6.7694 0.8008
54.4508 4.1050 6.7047 0.8025
54.1940 10.7698 6.7843 0.8004
35.1030 16.4409 4.7594 0.8554
26.9619 16.8641 3.9047 0.8797
3.3050 5.6647 0.8053 0.9739
2.4457 5.6700 0.7582 0.9754
1.6706 5.6747 0.7263 0.9764
0.2529 5.6834 0.6985 0.9773
-0.4357 5.6877 0.7004 0.9773
-3.5792 5.7070 0.8271 0.9732
-4.6305 5.7134 0.9030 0.9708
-7.5729 5.7315 1.1661 0.9624
-60.1352 -28.3432 8.1627 0.7650
-31.3097 -25.4380 4.9532 0.8500
-33.3040 -34.5127 5.8889 0.8242
-26.0881 -34.5567 5.3164 0.8399
-20.3041 -34.9952 4.9677 0.8495
-15.7005 -36.6431 4.8948 0.8516
-14.5040 -88.2155 10.9769 0.6975
27.1302 -33.3098 5.2749 0.8410
47.0923 -45.3328 8.0260 0.7684
49.8993 -37.5759 7.6698 0.7774
50.3189 -29.1132 7.1380 0.7911
51.4706 -21.9797 6.8719 0.7981
54.3285 -15.7795 6.9464 0.7961
54.3710 -8.8717 6.7642 0.8009
54.0155 11.0073 6.7686 0.8008
49.8365 16.6233 6.4506 0.8092
35.1043 16.6499 4.7705 0.8551
25.2284 20.5990 3.9991 0.8770
4.2505 5.6588 0.8690 0.9719
-7.4964 5.7310 0.8256 0.9628
-19.4548 5.8045 1.7762 0.9217
-60.0321 -27.9392 5.7931 0.7665
-15.9109 -36.6418 3.4949 0.8518
-12.8989 -43.4247 3.9632 0.8337
14.4547 -44.2278 4.0708 0.8296
28.1478 -45.1237 4.6529 0.8077
49.9482 -29.2234 5.0629 0.7927
48.7935 -21.1169 4.6520 0.8078
54.3340 -16.0676 4.9571 0.7965
54.5102 -2.4916 4.7740 0.8032
53.3247 10.5970 4.7565 0.8039
35.1030 16.4409 3.3913 0.8559
26.8035 16.7650 2.7659 0.8808
3.3050 5.6647 0.5738 0.9740
1.6706 5.6747 0.5175 0.9765
0.2529 5.6834 0.4977 0.9774
-1.1383 5.6920 0.5078 0.9770
-1.8771 5.6965 0.5247 0.9762
-3.5792 5.7070 0.5894 0.9733
-9.8032 5.7037 0.9923 0.9555
-6.7098 2.8846 0.6390 0.9711
-19.8127 5.8067 1.8063 0.9204
-74.4739 -35.1015 7.2031 0.7185
-15.7005 -36.6431 3.4877 0.8521
-12.6701 -43.4261 3.9577 0.8339
-13.2173 -80.3893 7.1276 0.7210
11.9968 -59.2387 5.2879 0.7845
14.6901 -44.2198 4.0766 0.8294
28.4543 -45.1258 4.6673 0.8072
46.9761 -45.2210 5.7047 0.7697
49.8994 -37.5759 5.4650 0.7782
54.5119 -2.2265 4.7731 0.8033
49.8366 16.6233 4.5963 0.8098
25.1279 20.5170 2.8381 0.8779
5.4273 5.6516 0.6855 0.9690
-7.4964 5.7310 0.4945 0.9629
-9.7627 5.7437 0.5936 0.9556
-6.7336 2.9337 0.3849 0.9710
-19.4547 5.8045 1.0640 0.9219
-59.9265 -27.8901 3.4641 0.7674
-26.3514 -34.5551 2.2774 0.8402
-20.2720 -34.5523 2.0995 0.8518
-11.5396 -38.8488 2.1239 0.8502
-13.6182 -80.3869 4.2729 0.7214
17.2634 -87.4251 4.6702 0.6998
15.0704 -32.2788 1.8670 0.8670
28.1477 -45.1236 2.7872 0.8081
28.0461 -27.2618 2.0498 0.8550
50.3966 -29.4858 3.0600 0.7915
49.3864 -21.3738 2.8202 0.8061
59.3517 -9.9806 3.1542 0.7858
59.2564 4.4673 3.1143 0.7882
16.8965 5.5449 0.9320 0.9312
35.1030 16.4409 2.0314 0.8562
3.3050 5.6647 0.3437 0.9741
2.4457 5.6700 0.3236 0.9756
0.9479 5.6791 0.3017 0.9772
-1.1383 5.6920 0.3042 0.9770
-1.8771 5.6965 0.3143 0.9763
-22.2580 21.5308 1.6229 0.8833
-9.8032 5.7037 0.5944 0.9556
-35.6192 5.9008 1.8922 0.8654
-33.3040 -34.5127 2.5135 0.8252
-26.0882 -34.5567 2.2692 0.8408
-20.0479 -34.5536 2.0936 0.8521
-14.8144 -34.5752 1.9713 0.8601
-11.5440 -39.5665 2.1600 0.8478
-13.2173 -80.3893 4.2696 0.7216
17.8146 -87.9665 4.7037 0.6980
14.9536 -45.0128 2.4858 0.8270
21.3062 -45.0629 2.6123 0.8190
24.5116 -30.0948 2.0341 0.8560
50.3986 -29.1593 3.0515 0.7920
59.4553 -25.3894 3.3881 0.7719
59.3497 -9.6841 3.1515 0.7859
54.0155 11.0073 2.8890 0.8019
35.1043 16.6499 2.0362 0.8559
26.5190 16.7668 1.6443 0.8819
25.1279 20.5170 1.7001 0.8781
6.4023 6.6669 0.4844 0.9637
4.2505 5.6588 0.3709 0.9720
-7.4964 5.7310 0.1647 0.9630
-9.7627 5.7437 0.1977 0.9557
-6.7335 2.9336 0.1282 0.9710
-19.4548 5.8045 0.3544 0.9220
-34.5568 5.8974 0.6119 0.8691
-59.8217 -27.8413 1.1517 0.7680
-33.3072 -34.1822 0.8331 0.8262
-27.5168 -36.0833 0.7921 0.8340
-11.1723 -37.6120 0.6849 0.8547
-11.2560 -66.4429 1.1763 0.7637
15.0684 -32.2746 0.6217 0.8672
28.0461 -27.2618 0.6827 0.8552
35.8936 -27.3032 0.7872 0.8349
80.5835 -23.8301 1.4668 0.7145
53.3246 10.5970 0.9490 0.8045
16.8965 5.5449 0.3104 0.9313
25.1970 20.3703 0.5656 0.8784
5.6219 5.7977 0.1410 0.9682
4.2935 5.6586 0.1240 0.9720
3.3050 5.6647 0.1145 0.9741
2.4457 5.6700 0.1078 0.9756
1.6706 5.6747 0.1033 0.9766
0.9479 5.6791 0.1005 0.9772
-1.1383 5.6920 0.1013 0.9770
-1.8771 5.6965 0.1047 0.9763
-4.5931 5.6674 0.1273 0.9712
-22.2580 21.5308 0.5405 0.8835
-7.5729 5.7315 0.1658 0.9627
-9.8032 5.7037 0.1980 0.9556
-6.7096 2.8846 0.1275 0.9712
-35.6385 5.9040 0.6305 0.8654
-72.8790 -34.3497 1.4063 0.7245
-31.3121 -25.4399 0.7042 0.8510
-32.9874 -34.1846 0.8292 0.8269
-20.4226 -35.1995 0.7103 0.8498
-14.6420 -34.1727 0.6489 0.8618
30.0425 -90.4332 1.6633 0.6830
24.4404 -38.7601 0.7998 0.8325
36.2539 -27.3004 0.7922 0.8340
38.7338 -22.4104 0.7811 0.8361
64.6570 -27.6108 1.2272 0.7548
80.8789 6.4926 1.4163 0.7228
24.7964 11.7608 0.4790 0.8960
26.6288 16.8362 0.5499 0.8816
4.2505 5.6588 0.1235 0.9721
-9.7627 5.7437 -0.1977 0.9557
-6.7334 2.9336 -0.1282 0.9710
-19.4548 5.8045 -0.3544 0.9220
-64.4151 3.1010 -1.1257 0.7726
-82.8112 -26.9535 -1.5201 0.7058
-70.5730 -43.9039 -1.4508 0.7171
-13.6631 -23.2880 -0.4713 0.8976
-10.6843 -24.6051 -0.4682 0.8982
-8.5630 -28.8276 -0.5249 0.8866
-7.7434 -45.7088 -0.8092 0.8307
29.5559 -90.4333 -1.6607 0.6834
24.4249 -39.1557 -0.8055 0.8314
24.5098 -30.3928 -0.6815 0.8554
28.0461 -27.2618 -0.6827 0.8552
40.6604 -23.7893 -0.8223 0.8282
64.1001 -27.7417 -1.2192 0.7562
54.1940 10.7698 -0.9644 0.8017
26.8036 16.7651 -0.5518 0.8812
25.1267 20.3134 -0.5640 0.8787
5.6219 5.7977 -0.1410 0.9682
4.2935 5.6586 -0.1240 0.9720
3.3050 5.6647 -0.1145 0.9741
2.4457 5.6700 -0.1078 0.9756
1.6706 5.6747 -0.1033 0.9766
0.9479 5.6791 -0.1005 0.9772
0.2529 5.6834 -0.0993 0.9775
-1.1383 5.6920 -0.1013 0.9770
-1.8771 5.6965 -0.1047 0.9763
-2.6647 5.6714 -0.1094 0.9752
-3.5547 5.6678 -0.1168 0.9736
-7.5729 5.7315 -0.1658 0.9627
-19.8127 5.8067 -0.3604 0.9207
-83.0077 -16.7055 -1.4779 0.7127
-82.9751 -27.4532 -1.5255 0.7049
-66.5020 -31.3441 -1.2833 0.7452
-31.3061 -25.4351 -0.7041 0.8510
-13.4701 -23.2165 -0.4685 0.8982
-8.5135 -29.1794 -0.5306 0.8855
20.0357 -42.3757 -0.8182 0.8290
24.5116 -30.0948 -0.6775 0.8562
54.0155 11.0073 -0.9622 0.8021
49.8366 16.6233 -0.9170 0.8104
26.5191 16.7668 -0.5476 0.8820
25.1279 20.5170 -0.5662 0.8783
5.5987 5.8302 -0.1411 0.9682
-7.4964 5.7310 -0.4945 0.9629
-19.4547 5.8045 -1.0640 0.9219
-43.9936 -8.6318 -2.3496 0.8356
-43.2790 -20.1422 -2.5018 0.8260
-31.3443 -25.2144 -2.1082 0.8512
-7.4883 -44.2026 -2.3496 0.8356
-2.2376 -47.6841 -2.5018 0.8260
3.5309 -47.6058 -2.5018 0.8260
9.2478 -46.8322 -2.5018 0.8260
23.7280 -38.0385 -2.3496 0.8356
24.4186 -30.2797 -2.0386 0.8557
27.9375 -27.1563 -2.0419 0.8555
34.9275 -15.1162 -1.9945 0.8586
45.7769 -13.5371 -2.5018 0.8260
47.0756 -7.9162 -2.5018 0.8260
44.0403 8.7520 -2.3532 0.8354
20.4372 9.5720 -1.1827 0.9136
20.7799 12.9974 -1.2845 0.9065
5.6219 5.7977 -0.4232 0.9682
3.3050 5.6647 -0.3437 0.9741
2.4457 5.6700 -0.3236 0.9756
1.6706 5.6747 -0.3100 0.9766
0.2529 5.6834 -0.2981 0.9775
-0.4357 5.6877 -0.2990 0.9774
-1.1383 5.6920 -0.3042 0.9770
-1.8771 5.6965 -0.3143 0.9763
-2.6647 5.6714 -0.3284 0.9752
-3.5449 5.6522 -0.3497 0.9736
-4.5587 5.6249 -0.3794 0.9714
-5.7899 5.6007 -0.4222 0.9682
-7.5729 5.7315 -0.4977 0.9627
-19.8127 5.8067 -1.0820 0.9206
-44.6879 -3.4781 -2.3491 0.8357
-40.4102 -25.4124 -2.5018 0.8260
-31.2158 -25.3617 -2.1078 0.8512
-21.9855 -22.7834 -1.6593 0.8809
-13.4680 -23.2128 -1.4065 0.8981
-8.4290 -28.8897 -1.5772 0.8864
-7.2735 -44.2385 -2.3496 0.8356
-2.0060 -47.6944 -2.5018 0.8260
14.3261 -43.1240 -2.3815 0.8336
22.6949 -35.9919 -2.2299 0.8433
35.8137 -26.9689 -2.3496 0.8356
47.1135 -7.6875 -2.5018 0.8260
47.6968 -1.9481 -2.5018 0.8260
19.2718 6.4282 -1.0647 0.9218
20.1847 9.5736 -1.1708 0.9144
20.5593 12.9987 -1.2748 0.9072
24.8264 20.2708 -1.6797 0.8795
5.5987 5.8302 -0.4236 0.9681
4.2505 5.6588 -0.3709 0.9720
-7.4964 5.7310 -0.8256 0.9628
-26.8246 1.2914 -2.3496 0.8978
-28.5195 -2.0804 -2.5018 0.8915
-18.7420 -19.2344 -2.3496 0.8978
-16.2849 -21.3548 -2.3496 0.8978
-13.3728 -22.7931 -2.3120 0.8993
-7.6470 -25.7439 -2.3496 0.8978
-1.3404 -28.5639 -2.5018 0.8915
2.1151 -28.5170 -2.5018 0.8915
8.8832 -27.1805 -2.5018 0.8915
16.8585 -20.9049 -2.3496 0.8978
19.2571 -18.7186 -2.3496 0.8978
22.6964 -17.2645 -2.4949 0.8918
24.6813 -14.4404 -2.5018 0.8915
26.2430 -11.3576 -2.5018 0.8915
27.4214 -8.1091 -2.5018 0.8915
28.5655 -1.3057 -2.5018 0.8915
26.3406 5.2346 -2.3496 0.8978
20.4372 9.5720 -1.9744 0.9134
20.7799 12.9974 -2.1443 0.9063
5.6219 5.7977 -0.7065 0.9681
4.2935 5.6586 -0.6214 0.9719
3.3050 5.6647 -0.5738 0.9740
-0.4357 5.6877 -0.4991 0.9774
-1.1383 5.6920 -0.5078 0.9770
-1.8771 5.6965 -0.5247 0.9762
-2.6647 5.6714 -0.5482 0.9752
-3.5351 5.6367 -0.5821 0.9736
-9.8032 5.7037 -0.9923 0.9555
-26.8305 1.1611 -2.3496 0.8978
-28.5091 -2.2189 -2.5018 0.8915
-27.1480 -8.9822 -2.5018 0.8915
-25.8662 -12.1914 -2.5018 0.8915
-24.2067 -15.2226 -2.5018 0.8915
-22.1936 -18.0315 -2.5018 0.8915
-18.6484 -19.3252 -2.3496 0.8978
-10.4340 -24.3517 -2.3178 0.8991
-7.5219 -25.7808 -2.3496 0.8978
-4.4676 -27.1725 -2.4092 0.8953
-1.2017 -28.5700 -2.5018 0.8915
2.2535 -28.5064 -2.5018 0.8915
5.6758 -28.0263 -2.5018 0.8915
9.0151 -27.1370 -2.5018 0.8915
12.2228 -25.8514 -2.5018 0.8915
14.6881 -23.2940 -2.4093 0.8953
19.3478 -18.6250 -2.3496 0.8978
26.2978 -11.2301 -2.5018 0.8915
27.4605 -7.9758 -2.5018 0.8915
28.2221 -4.6050 -2.5018 0.8915
26.7695 2.1489 -2.3496 0.8978
19.7048 6.5726 -1.8173 0.9200
20.5593 12.9987 -2.1281 0.9070
21.1137 17.2393 -2.3847 0.8963
5.5987 5.8302 -0.7072 0.9681
-7.4964 5.7310 -1.1586 0.9627
-18.3369 5.4710 -2.3496 0.9258
-18.8630 3.2191 -2.3496 0.9258
-19.1505 0.9219 -2.3541 0.9256
-20.3213 -1.4824 -2.5018 0.9212
-8.5129 -2.7708 -1.0992 0.9646
-14.2195 -14.5931 -2.5018 0.9212
-10.3107 -17.5739 -2.5018 0.9212
-5.8017 -19.5318 -2.5018 0.9212
-3.4032 -20.0890 -2.5018 0.9212
6.3297 -19.3671 -2.5018 0.9212
8.6197 -18.4622 -2.5018 0.9212
10.7838 -17.2876 -2.5018 0.9212
16.2168 -12.3356 -2.5018 0.9212
18.6991 -8.0927 -2.5018 0.9212
20.0931 -3.3789 -2.5018 0.9212
20.3540 -0.9303 -2.5018 0.9212
16.8965 5.5449 -2.1835 0.9308
14.9831 12.1130 -2.3657 0.9253
4.2935 5.6586 -0.8721 0.9718
-0.4357 5.6877 -0.7004 0.9773
-1.1383 5.6920 -0.7127 0.9769
-3.5314 5.6307 -0.8161 0.9736
-5.7169 5.5301 -0.9766 0.9685
-7.5729 5.7315 -1.1661 0.9624
-6.7094 2.8844 -0.8967 0.9710
-18.3633 5.3819 -2.3496 0.9258
-18.8784 3.1275 -2.3496 0.9258
-20.3138 -1.5810 -2.5018 0.9212
-8.5040 -2.8136 -1.0998 0.9645
-15.8138 -12.8482 -2.5018 0.9212
-14.1485 -14.6619 -2.5018 0.9212
-12.2765 -16.2616 -2.5018 0.9212
-8.0246 -18.7285 -2.5018 0.9212
-3.3056 -20.1053 -2.5018 0.9212
1.6057 -20.3119 -2.5018 0.9212
8.7092 -18.4201 -2.5018 0.9212
12.8673 -15.7982 -2.5018 0.9212
14.6791 -14.1306 -2.5018 0.9212
17.6361 -10.2038 -2.5018 0.9212
18.7382 -8.0019 -2.5018 0.9212
19.5666 -5.6831 -2.5018 0.9212
20.1093 -3.2812 -2.5018 0.9212
19.9231 1.5993 -2.4541 0.9226
18.7503 3.8209 -2.3496 0.9258
8.9401 5.6524 -1.2987 0.9583
14.9259 12.1870 -2.3660 0.9253
4.2505 5.6588 -0.8690 0.9719
-9.7627 5.7437 -1.7940 0.9552
-6.7330 2.9334 -1.1632 0.9707
-14.2153 4.2413 -2.3496 0.9417
-15.7773 0.7595 -2.5018 0.9380
-7.9201 -2.5779 -1.3192 0.9668
-7.8936 -3.6737 -1.3790 0.9654
-12.3076 -9.9006 -2.5018 0.9380
-11.0234 -11.3130 -2.5018 0.9380
-7.9931 -13.6238 -2.5018 0.9380
-4.4977 -15.1416 -2.5018 0.9380
-2.6383 -15.5736 -2.5018 0.9380
1.1683 -15.7522 -2.5018 0.9380
3.0600 -15.4963 -2.5018 0.9380
6.6822 -14.3124 -2.5018 0.9380
8.3599 -13.4018 -2.5018 0.9380
11.3263 -11.0096 -2.5018 0.9380
13.6335 -7.9766 -2.5018 0.9380
15.5768 -2.6194 -2.5018 0.9380
14.5500 2.8915 -2.3496 0.9417
13.4341 6.2920 -2.3496 0.9417
12.5788 7.8678 -2.3499 0.9417
11.5649 9.3496 -2.3554 0.9416
5.6219 5.7977 -1.2791 0.9678
1.6706 5.6747 -0.9369 0.9763
0.2529 5.6834 -0.9011 0.9772
-2.6647 5.6714 -0.9925 0.9749
-3.5270 5.6237 -1.0514 0.9735
-7.5729 5.7315 -1.5042 0.9623
-9.8032 5.7037 -1.7964 0.9551
-6.7093 2.8844 -1.1567 0.9709
-14.2358 4.1722 -2.3496 0.9417
-15.7807 0.6829 -2.5018 0.9380
-15.7479 -1.2257 -2.5018 0.9380
-7.9133 -2.6182 -1.3202 0.9668
-13.3713 -8.4087 -2.5018 0.9380
-12.2593 -9.9603 -2.5018 0.9380
-10.9683 -11.3664 -2.5018 0.9380
-9.5171 -12.6065 -2.5018 0.9380
-6.2209 -14.5189 -2.5018 0.9380
-4.4241 -15.1633 -2.5018 0.9380
-2.5626 -15.5862 -2.5018 0.9380
1.2448 -15.7464 -2.5018 0.9380
4.9798 -14.9900 -2.5018 0.9380
6.7517 -14.2798 -2.5018 0.9380
9.9751 -12.2472 -2.5018 0.9380
15.1686 -4.4057 -2.5018 0.9380
15.3784 1.2345 -2.4435 0.9394
14.5358 2.9621 -2.3496 0.9417
14.0724 4.6939 -2.3496 0.9417
-9.7627 5.7437 -2.2017 0.9549
-6.7329 2.9334 -1.4276 0.9705
-11.9152 2.0334 -2.3496 0.9519
-12.8364 -0.9364 -2.5018 0.9489
-7.4906 -2.4381 -1.5312 0.9684
-8.9820 -9.2180 -2.5018 0.9489
-7.8045 -10.2342 -2.5018 0.9489
-5.1263 -11.8055 -2.5018 0.9489
-2.1497 -12.6896 -2.5018 0.9489
0.9520 -12.8352 -2.5018 0.9489
6.8118 -10.9201 -2.5018 0.9489
8.0794 -10.0186 -2.5018 0.9489
11.1088 -6.4995 -2.5018 0.9489
11.8117 -5.1120 -2.5018 0.9489
12.3421 -3.6498 -2.5018 0.9489
12.8570 -0.5877 -2.5018 0.9489
11.8556 2.3560 -2.3496 0.9519
11.4848 3.7690 -2.3496 0.9519
10.2479 6.4099 -2.3496 0.9519
9.3999 7.5993 -2.3496 0.9519
5.6219 5.7977 -1.5698 0.9676
2.4457 5.6700 -1.2003 0.9752
1.6706 5.6747 -1.1499 0.9762
0.2529 5.6834 -1.1058 0.9771
-0.4357 5.6877 -1.1088 0.9770
-1.1383 5.6920 -1.1283 0.9766
-1.8771 5.6965 -1.1659 0.9759
-2.6446 5.6287 -1.2088 0.9750
-3.4937 5.5706 -1.2782 0.9736
-9.8032 5.7037 -2.2046 0.9548
-11.5995 3.3996 -2.3496 0.9519
-12.8317 -0.9987 -2.5018 0.9489
-9.8950 -1.9914 -1.9620 0.9597
-7.4796 -2.4747 -1.5314 0.9684
-7.2857 -3.4339 -1.5656 0.9677
-7.7547 -10.2720 -2.5018 0.9489
-6.4590 -11.1324 -2.5018 0.9489
-5.0689 -11.8303 -2.5018 0.9489
4.0576 -12.2141 -2.5018 0.9489
8.1279 -9.9793 -2.5018 0.9489
9.2724 -8.9259 -2.5018 0.9489
10.2814 -7.7422 -2.5018 0.9489
11.1402 -6.4454 -2.5018 0.9489
4.2505 5.6588 -1.3757 0.9716
-7.4964 5.7310 -2.1785 0.9620
-9.7523 2.9097 -2.3496 0.9591
-10.0321 1.7120 -2.3496 0.9591
-10.8076 -0.7884 -2.5018 0.9565
-6.8499 -2.2295 -1.6631 0.9709
-8.4435 -6.7922 -2.5018 0.9565
-7.5625 -7.7611 -2.5018 0.9565
-5.4836 -9.3465 -2.5018 0.9565
-4.3161 -9.9397 -2.5018 0.9565
-3.0856 -10.3877 -2.5018 0.9565
0.8015 -10.8067 -2.5018 0.9565
6.8024 -8.4352 -2.5018 0.9565
7.7703 -7.5530 -2.5018 0.9565
9.3531 -5.4723 -2.5018 0.9565
9.9449 -4.3040 -2.5018 0.9565
10.3915 -3.0730 -2.5018 0.9565
10.6863 -1.7970 -2.5018 0.9565
10.8250 -0.4948 -2.5018 0.9565
9.9819 1.9837 -2.3496 0.9591
9.6697 3.1733 -2.3496 0.9591
9.2163 4.3166 -2.3496 0.9591
8.6283 5.3968 -2.3496 0.9591
3.3050 5.6647 -1.5141 0.9734
-3.4606 5.5178 -1.5037 0.9736
-7.5729 5.7315 -2.1926 0.9618
-9.7663 2.8623 -2.3496 0.9591
-10.0402 1.6633 -2.3496 0.9591
-10.8262 0.4685 -2.5018 0.9565
-6.8365 -2.2619 -1.6625 0.9709
-9.1732 -5.7687 -2.5018 0.9565
-7.5247 -7.7978 -2.5018 0.9565
-6.5291 -8.6485 -2.5018 0.9565
-5.4382 -9.3730 -2.5018 0.9565
-3.0351 -10.4026 -2.5018 0.9565
-1.7581 -10.6928 -2.5018 0.9565
-0.4554 -10.8268 -2.5018 0.9565
0.8540 -10.8026 -2.5018 0.9565
3.4163 -10.2837 -2.5018 0.9565
5.7798 -9.1662 -2.5018 0.9565
7.8069 -7.5152 -2.5018 0.9565
8.6564 -6.5186 -2.5018 0.9565
9.3796 -5.4268 -2.5018 0.9565
9.9657 -4.2557 -2.5018 0.9565
10.6949 -1.7451 -2.5018 0.9565
10.8273 -0.4422 -2.5018 0.9565
10.7518 0.8631 -2.4902 0.9567
9.9721 2.0321 -2.3496 0.9591
9.6542 3.2202 -2.3496 0.9591
9.1952 4.3613 -2.3496 0.9591
8.6020 5.4387 -2.3496 0.9591
7.8831 6.4366 -2.3496 0.9591
5.5987 5.8302 -1.8661 0.9674
4.2505 5.6588 -1.6339 0.9714
-6.9661 5.3257 -2.3496 0.9643
-7.5577 4.4465 -2.3496 0.9643
-6.6046 2.8775 -1.9304 0.9706
-8.4027 2.5070 -2.3496 0.9643
-9.1772 1.5662 -2.4946 0.9622
-9.3120 -0.6793 -2.5018 0.9621
-9.1620 -1.7976 -2.5018 0.9621
-6.3445 -2.9528 -1.8751 0.9714
-7.2750 -5.8522 -2.5018 0.9621
-6.5159 -6.6871 -2.5018 0.9621
-5.6617 -7.4243 -2.5018 0.9621
-2.6586 -8.9502 -2.5018 0.9621
-1.5595 -9.2055 -2.5018 0.9621
-0.4376 -9.3264 -2.5018 0.9621
0.6906 -9.3112 -2.5018 0.9621
2.9005 -8.8748 -2.5018 0.9621
3.9499 -8.4601 -2.5018 0.9621
4.9416 -7.9218 -2.5018 0.9621
5.8611 -7.2679 -2.5018 0.9621
8.9534 -2.6477 -2.5018 0.9621
9.2074 -1.5483 -2.5018 0.9621
9.3270 -0.4263 -2.5018 0.9621
9.2975 0.7009 -2.4983 0.9621
8.6005 1.7092 -2.3496 0.9643
7.9409 3.7192 -2.3496 0.9643
7.4342 4.6500 -2.3496 0.9643
6.8190 5.5128 -2.3496 0.9643
4.2935 5.6586 -1.9033 0.9710
2.4457 5.6700 -1.6546 0.9748
-0.4357 5.6877 -1.5285 0.9767
-1.1383 5.6920 -1.5554 0.9762
-3.4276 5.4652 -1.7286 0.9736
-4.3668 5.3882 -1.8584 0.9717
-7.5792 4.4097 -2.3496 0.9643
-6.6053 2.8397 -1.9265 0.9707
-9.1875 1.5220 -2.4953 0.9622
-9.3086 -0.7245 -2.5018 0.9621
-9.1532 -1.8421 -2.5018 0.9621
-6.5881 -2.1797 -1.8594 0.9717
-7.2465 -5.8875 -2.5018 0.9621
-6.4834 -6.7186 -2.5018 0.9621
-5.6256 -7.4517 -2.5018 0.9621
-3.6772 -8.5821 -2.5018 0.9621
1.8532 -9.1509 -2.5018 0.9621
2.9435 -8.8606 -2.5018 0.9621
3.9909 -8.4408 -2.5018 0.9621
6.7265 -6.4752 -2.5018 0.9621
7.4585 -5.6165 -2.5018 0.9621
8.9662 -2.6042 -2.5018 0.9621
9.2148 -1.5036 -2.5018 0.9621
8.3182 2.7746 -2.3496 0.9643
5.5987 5.8302 -2.1659 0.9671
