ply
format ascii 1.0
element vertex 711
property float32 x
property float32 y
property float32 z
property float32 I
end_header
31.2441 24.8906 10.7037 0.8475
31.3414 40.6793 13.7599 0.8084
32.3655 54.5315 16.9915 0.7690
-11.9917 37.4227 10.5296 0.8498
-12.5540 27.3069 8.0531 0.8830
-15.3994 25.0192 7.8720 0.8854
-23.0915 22.7256 8.6812 0.8744
-40.1419 -7.6848 10.9513 0.8443
-30.4825 -39.5431 13.3783 0.8132
-19.9722 -33.6302 10.4805 0.8505
41.7480 19.1731 12.3096 0.8268
31.2440 24.8635 10.6991 0.8476
-11.9913 37.4895 10.5466 0.8496
-12.5538 27.3443 8.0622 0.8829
-23.0670 22.7255 8.6765 0.8745
-44.9966 -8.5895 12.2745 0.8272
-19.9960 -33.6300 10.4837 0.8504
29.6985 -92.5964 22.4503 0.6709
26.9895 -43.8233 11.8822 0.8095
35.3198 -44.3234 13.0844 0.7924
57.8503 -44.5585 16.8583 0.7410
56.4196 -33.4761 15.1458 0.7639
91.8572 17.6101 21.5931 0.6812
31.2441 24.8906 9.2224 0.8488
32.2930 32.8216 10.6302 0.8278
-11.9917 37.4227 9.0724 0.8510
-18.4751 23.1972 6.8465 0.8854
-23.0915 22.7256 7.4798 0.8755
-64.5700 -12.3612 15.1779 0.7635
-30.4825 -39.5431 11.5269 0.8147
-18.7674 -31.6016 8.4854 0.8599
-13.3481 -30.2894 7.6418 0.8729
-10.1625 -33.5326 8.0893 0.8660
26.9891 -43.8746 11.8923 0.8094
35.2775 -44.3183 13.0774 0.7925
57.7721 -44.5468 16.8424 0.7412
56.4178 -33.5152 15.1500 0.7638
32.0876 19.7326 8.6967 0.8567
31.2440 24.8635 9.2185 0.8488
32.0030 41.4929 12.0977 0.8064
32.4043 54.5313 14.6446 0.7707
-12.5538 27.3444 6.9464 0.8838
-23.0670 22.7255 7.4758 0.8755
-64.5381 -20.6337 15.6428 0.7572
-53.6248 -24.6106 13.6218 0.7849
-18.7899 -31.6015 8.4880 0.8599
28.2931 -88.2145 18.0075 0.6856
19.7267 -42.8788 9.1745 0.8250
33.9111 -42.5556 10.5771 0.8011
56.8292 18.2186 11.6002 0.7841
41.7092 19.1820 8.9237 0.8294
32.0500 19.7328 7.3160 0.8578
32.2491 25.6913 8.0146 0.8453
5.1360 8.6535 1.9560 0.9598
2.6247 8.6689 1.7606 0.9638
1.5177 8.6757 1.7120 0.9647
0.4550 8.6822 1.6900 0.9652
-1.6658 8.6953 1.7209 0.9646
-2.7885 8.7022 1.7763 0.9634
-18.4751 23.1972 5.7644 0.8862
-62.1314 -11.8943 12.2964 0.7728
-53.9523 -24.7953 11.5418 0.7851
-31.1401 -40.3961 9.9144 0.8123
-19.9722 -33.6302 7.6029 0.8527
-13.9219 -31.5912 6.7105 0.8688
-10.2061 -33.6768 6.8401 0.8664
19.7073 -42.8963 9.1760 0.8250
46.7165 -46.0006 12.7441 0.7656
56.6958 -43.7169 13.9163 0.7470
57.0223 -33.8743 12.8923 0.7632
56.5640 -24.9360 12.0159 0.7773
92.3711 17.6582 18.2803 0.6817
41.7481 19.1732 8.9299 0.8293
32.2928 32.7868 8.9453 0.8290
32.3492 41.9417 10.2959 0.8059
3.8198 8.6616 1.8401 0.9622
1.5224 8.6757 1.7121 0.9647
-3.9986 8.7096 1.8629 0.9617
-15.3768 25.0118 5.7071 0.8872
-18.4550 23.1971 5.7620 0.8862
-23.0670 22.7254 6.2942 0.8764
-62.1308 -11.8602 12.2951 0.7728
-19.9961 -33.6301 7.6053 0.8526
19.1577 -41.6420 7.2599 0.8306
33.5855 -42.1470 8.5357 0.8039
27.3648 5.2462 4.4131 0.8933
32.0501 19.7328 5.9612 0.8586
32.2491 25.6913 6.5305 0.8462
32.2930 32.8216 7.2927 0.8299
3.8143 8.6616 1.4990 0.9624
2.6247 8.6689 1.4346 0.9640
1.5177 8.6757 1.3950 0.9650
-1.6658 8.6953 1.4022 0.9648
-4.0041 8.7096 1.5183 0.9619
-5.3660 8.7180 1.6214 0.9594
-22.5802 22.2225 5.0178 0.8796
-83.3797 25.2572 13.7986 0.7027
-60.9532 -11.6688 9.8294 0.7778
-60.4795 -19.3713 10.0584 0.7732
-69.2594 -31.8301 12.0726 0.7344
-83.0196 -51.0841 15.4389 0.6738
-26.2764 -20.9217 5.3198 0.8728
-63.7745 -64.7843 14.3983 0.6920
-25.9042 -33.6039 6.7201 0.8421
-9.5927 -31.6526 5.2385 0.8746
24.7136 -40.1754 7.4707 0.8261
33.5460 -42.1430 8.5313 0.8040
44.1918 -43.5146 9.8229 0.7779
56.5134 -33.5720 10.4111 0.7663
56.9291 18.2175 9.4671 0.7850
32.0876 19.7326 5.9663 0.8585
6.6671 8.6441 1.7290 0.9568
1.5224 8.6757 1.3951 0.9650
0.4596 8.6822 1.3771 0.9654
-2.7835 8.7021 1.4471 0.9637
-3.9986 8.7096 1.5179 0.9619
-5.3596 8.7180 1.6209 0.9594
-6.9435 8.7277 1.7664 0.9558
-22.5563 22.2223 5.0151 0.8796
-60.9164 -11.6284 9.8224 0.7779
-25.9323 -33.6037 6.7229 0.8421
-18.7899 -31.6015 5.8231 0.8617
25.4180 -79.2502 10.2189 0.7150
24.6879 -40.0863 5.7805 0.8272
42.8273 -42.1265 7.3761 0.7850
54.8349 -42.2360 8.4986 0.7566
34.4535 -15.1670 4.6221 0.8592
60.9953 -3.1885 7.4995 0.7818
61.2205 4.2059 7.5346 0.7809
61.2225 11.7371 7.6541 0.7778
56.9294 18.2507 7.3405 0.7859
41.7093 19.1820 5.6369 0.8311
32.0501 19.7328 4.6213 0.8593
32.2930 32.8216 5.6536 0.8306
5.1360 8.6535 1.2356 0.9603
2.6247 8.6689 1.1121 0.9642
1.5177 8.6757 1.0814 0.9651
-0.5958 8.6887 1.0693 0.9655
-1.6658 8.6953 1.0871 0.9649
-2.7885 8.7022 1.1220 0.9638
-11.3602 8.7548 1.7610 0.9438
-31.0353 -31.5266 5.4319 0.8367
-24.7013 -32.0434 4.9677 0.8495
-13.9219 -31.5913 4.2389 0.8701
-10.2062 -33.6768 4.3207 0.8678
-6.9622 -39.7375 4.9535 0.8499
-4.4353 -84.2077 10.3537 0.7119
19.8539 -43.2153 5.8394 0.8256
24.6726 -40.1088 5.7819 0.8271
33.5571 -42.1569 6.6159 0.8048
42.7819 -42.1262 7.3721 0.7851
54.8064 -42.2601 8.4976 0.7566
56.5134 -33.5720 8.0710 0.7673
34.4389 -15.1823 4.6212 0.8593
63.4219 -19.2299 8.1373 0.7656
63.4717 -11.1291 7.9122 0.7713
61.2107 4.1728 7.5332 0.7809
41.7481 19.1732 5.6408 0.8310
32.0876 19.7326 4.6252 0.8592
10.8301 8.6185 1.6994 0.9457
6.6671 8.6441 1.3404 0.9570
3.8198 8.6616 1.1623 0.9626
1.5224 8.6757 1.0815 0.9651
0.4596 8.6822 1.0675 0.9656
-0.5912 8.6887 1.0693 0.9655
-2.7835 8.7021 1.1218 0.9638
-6.9435 8.7277 1.3694 0.9560
-8.8709 8.7395 1.5290 0.9511
-11.3477 8.7548 1.7598 0.9439
-69.5367 -31.9131 9.3943 0.7347
-64.3886 -65.3390 11.2635 0.6909
19.9644 -43.3956 4.1791 0.8255
24.4418 -39.6867 4.0778 0.8293
33.5883 -42.1505 4.7153 0.8054
51.7890 -30.7285 5.2685 0.7852
60.9016 -18.4307 5.5668 0.7745
60.9953 -3.1885 5.3437 0.7825
57.3546 3.9403 5.0297 0.7939
41.7093 19.1820 4.0165 0.8317
31.2867 31.7989 3.9028 0.8360
5.1360 8.6535 0.8804 0.9604
-1.6658 8.6953 0.7746 0.9651
-2.7885 8.7022 0.7995 0.9640
-6.9511 8.7278 0.9762 0.9562
-11.3602 8.7548 1.2548 0.9440
-14.7817 8.7759 1.5040 0.9333
-50.6393 -23.2727 4.8758 0.7995
-25.9042 -33.6039 3.7121 0.8434
-19.9722 -33.6302 3.4220 0.8547
-7.3978 -24.4101 2.2315 0.9027
-4.4353 -84.2077 7.3774 0.7128
24.4281 -39.7112 4.0790 0.8293
42.8710 -42.2140 5.2638 0.7854
53.9646 -41.6110 5.9619 0.7606
34.4361 -15.1810 3.2925 0.8598
60.9014 -18.4657 5.5677 0.7745
60.9493 -10.6868 5.4137 0.7800
60.9951 -3.2208 5.3438 0.7825
61.0868 11.6777 5.4412 0.7790
56.8290 18.1855 5.2203 0.7870
10.8301 8.6185 1.2109 0.9459
31.2865 31.7651 3.9007 0.8361
5.1422 8.6534 0.8807 0.9604
2.6297 8.6689 0.7926 0.9643
1.5224 8.6757 0.7706 0.9653
0.4596 8.6822 0.7607 0.9657
-1.6610 8.6952 0.7745 0.9651
-5.3596 8.7180 0.8953 0.9597
-6.9435 8.7277 0.9757 0.9562
-11.3477 8.7548 1.2539 0.9441
-14.7638 8.7758 1.5026 0.9334
-50.6515 -23.2460 4.8758 0.7995
-19.9961 -33.6301 3.4231 0.8546
24.1719 -52.5410 3.0310 0.7932
42.9167 -42.2144 3.1549 0.7857
34.4471 -15.1642 1.9726 0.8601
65.9927 -11.5352 3.5110 0.7646
65.9391 -3.4469 3.4604 0.7676
65.8868 4.5265 3.4611 0.7676
49.9981 9.5852 2.6680 0.8155
10.8185 8.6185 0.7249 0.9461
6.6598 8.6441 0.5719 0.9572
1.5156 8.6638 0.4609 0.9654
0.4547 8.6759 0.4553 0.9658
-2.7860 8.6942 0.4785 0.9641
-4.0041 8.7096 0.5024 0.9623
-5.3660 8.7180 0.5365 0.9598
-6.9511 8.7278 0.5847 0.9563
-11.3602 8.7548 0.7516 0.9442
-14.7817 8.7759 0.9009 0.9335
-29.2650 8.8649 1.6025 0.8847
-31.0353 -31.5267 2.3185 0.8376
-18.1543 -30.5692 1.8633 0.8673
-7.3729 -24.3279 1.3322 0.9032
-6.3827 -36.4302 1.9383 0.8623
33.5569 -42.1568 2.8238 0.8059
56.5134 -33.5720 3.4449 0.7685
34.4333 -15.1798 1.9721 0.8601
66.0496 -20.0266 3.6171 0.7585
32.0876 19.7326 1.9742 0.8599
10.8301 8.6185 0.7254 0.9461
6.6671 8.6441 0.5721 0.9572
3.8198 8.6616 0.4961 0.9628
1.5203 8.6637 0.4610 0.9654
-2.7809 8.6941 0.4784 0.9641
-3.9986 8.7096 0.5023 0.9623
-6.9435 8.7277 0.5845 0.9563
-11.3477 8.7548 0.7511 0.9442
-19.9649 8.8077 1.1436 0.9163
-18.1760 -30.5691 1.8639 0.8672
38.5251 -83.7398 1.6089 0.6916
26.9897 -43.8238 0.8984 0.8139
31.0980 -30.5891 0.7614 0.8399
31.5268 -24.2832 0.6946 0.8528
41.0246 -24.3416 0.8326 0.8263
45.5145 8.7257 0.8089 0.8308
26.5816 8.5217 0.4872 0.8943
43.8366 20.1603 0.8422 0.8245
32.0501 19.7329 0.6570 0.8602
10.8185 8.6185 0.2414 0.9462
11.1288 11.3110 0.2770 0.9385
2.6182 8.6472 0.1577 0.9645
0.4550 8.6822 0.1518 0.9658
-2.7885 8.7022 0.1595 0.9641
-3.9949 8.6895 0.1669 0.9625
-5.3506 8.6931 0.1782 0.9600
-6.9216 8.6907 0.1939 0.9565
-19.9806 8.8021 0.3811 0.9164
-29.2650 8.8649 0.5337 0.8849
-24.0315 -31.1746 0.6871 0.8543
-20.7344 -34.9137 0.7088 0.8501
-13.9219 -31.5912 0.6026 0.8710
-9.4569 -31.2045 0.5691 0.8777
34.4294 -15.1781 0.6568 0.8603
81.5098 -24.7143 1.4867 0.7112
45.5143 8.7008 0.8088 0.8308
43.8968 20.1600 0.8432 0.8243
10.8301 8.6185 0.2416 0.9461
5.1422 8.6534 0.1757 0.9605
3.8109 8.6414 0.1649 0.9629
1.5149 8.6334 0.1530 0.9655
0.4596 8.6822 0.1518 0.9658
-0.5912 8.6887 0.1520 0.9658
-3.9893 8.6895 0.1669 0.9625
-14.7638 8.7758 0.2998 0.9336
-19.9516 8.8018 0.3806 0.9165
-24.0576 -31.1744 0.6873 0.8542
22.5313 -36.5845 -0.7500 0.8421
39.9904 18.3915 -0.7683 0.8385
11.5588 11.7480 -0.2877 0.9362
6.6598 8.6441 -0.1905 0.9573
5.1360 8.6535 -0.1756 0.9605
1.5031 8.5923 -0.1523 0.9657
-0.5958 8.6887 -0.1520 0.9658
-2.7885 8.7022 -0.1595 0.9641
-3.9892 8.6771 -0.1667 0.9625
-5.3364 8.6700 -0.1777 0.9601
-8.8803 8.7396 -0.2175 0.9514
-11.3602 8.7548 -0.2503 0.9442
-14.7817 8.7759 -0.3001 0.9335
-19.9095 8.7708 -0.3797 0.9166
-57.7826 10.1159 -1.0239 0.7908
-66.8598 -4.5756 -1.1698 0.7648
-76.2815 -24.4325 -1.3981 0.7258
-50.6454 -23.2755 -0.9729 0.8001
-63.7072 -39.2006 -1.3057 0.7414
-15.3729 -19.9424 -0.4395 0.9042
-11.5919 -19.5192 -0.3963 0.9132
-8.6354 -19.5953 -0.3738 0.9179
-6.2518 -20.6289 -0.3763 0.9174
-3.8383 -21.9077 -0.3882 0.9149
-1.4724 -27.9551 -0.4886 0.8941
28.2039 -88.0960 -1.6146 0.6907
36.6745 -79.8281 -1.5334 0.7037
22.5531 -36.6631 -0.7513 0.8418
31.0066 -38.9529 -0.8690 0.8194
31.0978 -30.6212 -0.7618 0.8398
31.4922 -24.2830 -0.6941 0.8529
40.9748 -24.3412 -0.8319 0.8264
81.5098 -24.7143 -1.4867 0.7112
86.5229 -15.1709 -1.5333 0.7037
26.5084 8.4828 -0.4858 0.8946
40.0398 18.3886 -0.7691 0.8384
32.0877 19.7326 -0.6575 0.8601
6.6671 8.6441 -0.1905 0.9573
5.1422 8.6534 -0.1757 0.9605
3.8033 8.6243 -0.1645 0.9630
2.6167 8.6261 -0.1573 0.9646
0.4596 8.6822 -0.1518 0.9658
-0.5912 8.6887 -0.1520 0.9658
-1.6610 8.6952 -0.1545 0.9652
-2.7835 8.7021 -0.1595 0.9641
-11.3477 8.7548 -0.2502 0.9443
-14.7638 8.7758 -0.2998 0.9336
-19.8838 8.7720 -0.3793 0.9167
-26.8843 8.1592 -0.4904 0.8937
-57.7824 10.1472 -1.0240 0.7908
-67.8285 -4.6060 -1.1867 0.7619
-50.5408 -9.6478 -0.8981 0.8140
-76.2851 -24.3894 -1.3980 0.7259
-63.6016 -39.0894 -1.3031 0.7418
-26.7352 -27.1298 -0.6648 0.8587
19.9512 -43.3669 -2.5017 0.8260
22.5313 -36.5845 -2.2518 0.8419
31.3896 -24.1775 -2.0765 0.8532
38.5559 -22.8768 -2.3495 0.8356
47.0232 -8.2195 -2.5017 0.8260
47.6710 -2.4920 -2.5017 0.8260
44.0301 8.4411 -2.3495 0.8356
27.2457 12.5302 -1.5716 0.8868
26.2638 16.1703 -1.6164 0.8838
10.8185 8.6185 -0.7249 0.9461
5.1360 8.6535 -0.5274 0.9605
3.7978 8.6240 -0.4938 0.9630
2.6052 8.6046 -0.4712 0.9646
0.4550 8.6822 -0.4556 0.9658
-5.3223 8.6470 -0.5321 0.9601
-6.8387 8.5866 -0.5753 0.9570
-8.8803 8.7396 -0.6530 0.9513
-19.8551 8.7468 -1.1371 0.9168
-25.5775 7.7479 -1.4006 0.8985
-44.8619 -3.0702 -2.3566 0.8352
-40.9067 -7.8312 -2.1828 0.8463
-37.3444 -29.7343 -2.5017 0.8260
-8.4735 -19.2280 -1.1012 0.9193
-3.8077 -21.7332 -1.1563 0.9154
-1.4523 -27.5723 -1.4470 0.8953
3.2530 -47.6252 -2.5017 0.8260
14.5550 -45.4631 -2.5017 0.8260
27.9208 -35.0762 -2.3495 0.8356
38.5438 -22.8971 -2.3495 0.8356
40.0024 -12.1290 -2.1907 0.8458
47.0188 -8.2443 -2.5017 0.8260
44.0346 8.4179 -2.3495 0.8356
26.1419 8.3655 -1.4385 0.8959
26.2634 16.1509 -1.6158 0.8838
10.8301 8.6185 -0.7254 0.9461
3.8033 8.6243 -0.4940 0.9629
1.5009 8.5533 -0.4551 0.9658
0.4596 8.6822 -0.4557 0.9658
-0.5912 8.6887 -0.4564 0.9657
-6.8313 8.5866 -0.5750 0.9570
-11.3477 8.7548 -0.7511 0.9442
-14.7638 8.7758 -0.9001 0.9335
-44.7117 7.8519 -2.3791 0.8337
-45.0781 2.3921 -2.3658 0.8346
-44.8647 -3.0466 -2.3567 0.8352
-40.9246 -7.8122 -2.1835 0.8463
-43.6578 -13.9580 -2.4021 0.8323
-40.6692 -24.9952 -2.5017 0.8260
-37.3601 -29.7146 -2.5017 0.8260
-15.3471 -19.8872 -1.3165 0.9043
-11.4539 -19.2637 -1.1745 0.9141
11.9512 -25.9778 -2.5017 0.8915
14.9952 -24.3479 -2.5017 0.8915
17.8204 -22.3631 -2.5017 0.8915
26.1714 -11.5211 -2.5017 0.8915
28.5561 -1.4928 -2.5017 0.8915
28.5278 1.9599 -2.5017 0.8915
24.4179 11.2297 -2.3514 0.8977
10.8185 8.6185 -1.2101 0.9460
6.6598 8.6441 -0.9547 0.9571
5.1360 8.6535 -0.8804 0.9604
3.7978 8.6240 -0.8244 0.9629
-0.5958 8.6887 -0.7619 0.9656
-5.3081 8.6240 -0.8860 0.9602
-11.3602 8.7548 -1.2548 0.9440
-18.6172 8.2015 -1.7798 0.9216
-25.6951 7.7835 -2.3489 0.8978
-25.4017 1.3346 -2.2254 0.9029
-22.3702 -17.8116 -2.5017 0.8915
-18.8399 -19.1382 -2.3495 0.8978
-11.3934 -19.1849 -1.9521 0.9143
-8.3666 -18.9854 -1.8151 0.9201
-6.1153 -20.1783 -1.8447 0.9188
-1.3924 -26.4355 -2.3160 0.8992
1.8300 -26.7929 -2.3495 0.8978
8.7188 -27.2334 -2.5017 0.8915
17.8086 -22.3725 -2.5017 0.8915
27.3648 -8.2972 -2.5017 0.8915
28.5288 1.9449 -2.5017 0.8915
24.4233 11.2166 -2.3513 0.8977
10.8301 8.6185 -1.2109 0.9459
6.6671 8.6441 -0.9551 0.9571
5.1422 8.6534 -0.8807 0.9604
3.8033 8.6243 -0.8246 0.9629
2.6038 8.5836 -0.7848 0.9646
1.4973 8.5329 -0.7579 0.9658
0.4596 8.6822 -0.7607 0.9657
-2.7835 8.7021 -0.7993 0.9640
-3.9838 8.6773 -0.8354 0.9624
-6.8010 8.5486 -0.9557 0.9571
-8.8709 8.7395 -1.0895 0.9512
-11.3477 8.7548 -1.2539 0.9441
-18.6016 8.2063 -1.7788 0.9216
-26.4506 4.6450 -2.3495 0.8978
-28.4993 -1.9353 -2.4991 0.8916
-28.0879 -5.3617 -2.5017 0.8915
-27.2369 -8.7080 -2.5017 0.8915
-22.3796 -17.7998 -2.5017 0.8915
-18.8500 -19.1283 -2.3495 0.8978
8.5157 -18.5102 -2.5017 0.9212
12.6977 -15.9346 -2.5017 0.9212
14.5257 -14.2880 -2.5017 0.9212
16.1419 -12.4331 -2.5017 0.9212
18.6481 -8.2092 -2.5017 0.9212
20.3473 -1.0636 -2.5017 0.9212
18.2220 5.8417 -2.3495 0.9258
11.4422 11.6295 -2.0032 0.9364
2.5882 8.5483 -1.0967 0.9646
0.4550 8.6822 -1.0675 0.9656
-0.5958 8.6887 -1.0693 0.9655
-2.7885 8.7022 -1.1220 0.9638
-5.2716 8.5646 -1.2348 0.9603
-8.8803 8.7396 -1.5298 0.9510
-17.5116 7.7144 -2.3495 0.9258
-18.8488 3.2998 -2.3495 0.9258
-20.3470 1.0690 -2.5017 0.9212
-20.3275 -1.3912 -2.5017 0.9212
-17.3531 -10.6778 -2.5017 0.9212
-5.5500 -18.3130 -2.3495 0.9258
-3.3023 -18.8484 -2.3495 0.9258
-1.0065 -19.1090 -2.3495 0.9258
1.3773 -20.1651 -2.4817 0.9218
14.5182 -14.2957 -2.5017 0.9212
16.1353 -12.4416 -2.5017 0.9212
17.5173 -10.4062 -2.5017 0.9212
20.0689 -3.5189 -2.5017 0.9212
20.3467 -1.0744 -2.5017 0.9212
20.3279 1.3858 -2.5017 0.9212
18.2251 5.8321 -2.3495 0.9258
2.5932 8.5485 -1.0969 0.9646
1.4922 8.5038 -1.0601 0.9658
-1.6610 8.6952 -1.0869 0.9650
-3.9685 8.6442 -1.1679 0.9624
-6.7148 8.4402 -1.3243 0.9575
-8.8709 8.7395 -1.5290 0.9511
-11.3477 8.7548 -1.7598 0.9439
-14.7638 8.7758 -2.1088 0.9331
-17.5075 7.7236 -2.3495 0.9258
-18.8471 3.3098 -2.3495 0.9258
-20.3464 1.0797 -2.5017 0.9212
-20.3283 -1.3804 -2.5017 0.9212
-20.0137 -3.8204 -2.5017 0.9212
-19.4073 -6.2048 -2.5017 0.9212
-17.3587 -10.6686 -2.5017 0.9212
-15.9463 -12.6830 -2.5017 0.9212
-14.3014 -14.5125 -2.5017 0.9212
-11.8119 -15.3062 -2.3739 0.9250
-9.7796 -16.4477 -2.3495 0.9258
6.6016 -14.3496 -2.5017 0.9380
9.8437 -12.3530 -2.5017 0.9380
11.2608 -11.0765 -2.5017 0.9380
13.5842 -8.0600 -2.5017 0.9380
14.4566 -6.3640 -2.5017 0.9380
15.1182 -4.5752 -2.5017 0.9380
15.7738 -0.8246 -2.5017 0.9380
15.7582 1.0826 -2.5017 0.9380
13.4775 6.1982 -2.3495 0.9417
12.6321 7.7775 -2.3495 0.9417
6.6598 8.6441 -1.7283 0.9568
5.1360 8.6535 -1.5938 0.9601
3.7507 8.5170 -1.4740 0.9630
1.4750 8.4316 -1.3557 0.9659
0.4550 8.6822 -1.3770 0.9654
-2.7885 8.7022 -1.4473 0.9637
-3.9533 8.5990 -1.4990 0.9624
-5.2221 8.4842 -1.5779 0.9605
-6.5795 8.2612 -1.6727 0.9581
-8.8803 8.7396 -1.9734 0.9508
-11.7500 9.0552 -2.3495 0.9417
-12.7557 7.5730 -2.3495 0.9417
-14.1973 4.3006 -2.3495 0.9417
-15.5587 2.7238 -2.5017 0.9380
-15.7736 0.8287 -2.5017 0.9380
-15.7585 -1.0785 -2.5017 0.9380
-14.3522 -6.5960 -2.5017 0.9380
-13.4526 -8.2777 -2.5017 0.9380
-12.3569 -9.8388 -2.5017 0.9380
-9.6435 -12.5099 -2.5017 0.9380
-8.0654 -13.5810 -2.5017 0.9380
-6.3591 -14.4299 -2.4975 0.9381
-4.5496 -15.0120 -2.4845 0.9384
-0.8308 -15.7735 -2.5017 0.9380
1.0764 -15.7587 -2.5017 0.9380
8.2760 -13.4537 -2.5017 0.9380
9.8371 -12.3582 -2.5017 0.9380
15.5580 -2.7279 -2.5017 0.9380
15.7734 -0.8329 -2.5017 0.9380
10.8301 8.6185 -2.1922 0.9455
10.4096 10.5688 -2.3495 0.9417
6.6671 8.6441 -1.7290 0.9568
5.1422 8.6534 -1.5943 0.9601
-0.5912 8.6887 -1.3793 0.9653
-1.6610 8.6952 -1.4021 0.9648
-2.7835 8.7021 -1.4471 0.9637
-5.2162 8.4846 -1.5775 0.9605
-6.5738 8.2629 -1.6724 0.9581
-8.8709 8.7395 -1.9723 0.9508
-13.5723 5.9876 -2.3495 0.9417
-14.1951 4.3081 -2.3495 0.9417
-15.5573 2.7320 -2.5017 0.9380
-15.7591 -1.0701 -2.5017 0.9380
-15.0452 -4.8102 -2.5017 0.9380
-14.3557 -6.5884 -2.5017 0.9380
-13.4570 -8.2706 -2.5017 0.9380
-11.0869 -11.2505 -2.5017 0.9380
-9.6501 -12.5048 -2.5017 0.9380
-8.0726 -13.5767 -2.5017 0.9380
5.3791 -11.6923 -2.5017 0.9489
8.0208 -10.0654 -2.5017 0.9489
10.1964 -7.8536 -2.5017 0.9489
11.7795 -5.1855 -2.5017 0.9489
12.3186 -3.7280 -2.5017 0.9489
12.8401 0.8821 -2.5017 0.9489
12.2560 3.9291 -2.5017 0.9489
4.5785 2.8189 -1.0451 0.9783
8.4774 8.6161 -2.3495 0.9519
6.6598 8.6441 -2.1211 0.9565
0.4550 8.6822 -1.6900 0.9652
-0.5958 8.6887 -1.6929 0.9651
-1.6658 8.6953 -1.7209 0.9646
-3.9533 8.5990 -1.8397 0.9622
-5.1730 8.4045 -1.9183 0.9606
-7.5303 9.4550 -2.3495 0.9519
-9.5741 7.3784 -2.3495 0.9519
-10.3936 6.1706 -2.3495 0.9519
-12.2939 3.7240 -2.4969 0.9490
-12.6775 2.2194 -2.5017 0.9489
-12.8403 -0.8788 -2.5017 0.9489
-12.2570 -3.9259 -2.5017 0.9489
-10.9614 -6.7449 -2.5017 0.9489
-6.5718 -11.0660 -2.5017 0.9489
-5.1902 -11.7775 -2.5017 0.9489
-3.7329 -12.3171 -2.5017 0.9489
-0.6770 -12.8525 -2.5017 0.9489
0.8771 -12.8404 -2.5017 0.9489
2.4183 -12.6411 -2.5017 0.9489
3.9242 -12.2575 -2.5017 0.9489
5.3730 -11.6952 -2.5017 0.9489
8.0155 -10.0696 -2.5017 0.9489
9.1707 -9.0302 -2.5017 0.9489
10.1922 -7.8590 -2.5017 0.9489
11.7767 -5.1917 -2.5017 0.9489
12.3166 -3.7345 -2.5017 0.9489
12.8524 -0.6787 -2.5017 0.9489
11.3955 2.1784 -2.2552 0.9538
5.0415 2.3154 -1.0784 0.9776
4.4380 3.5317 -1.1025 0.9772
8.4819 8.6117 -2.3495 0.9519
6.6671 8.6441 -2.1219 0.9565
5.1422 8.6534 -1.9566 0.9598
3.7565 8.5181 -1.8096 0.9628
1.4523 8.2765 -1.6334 0.9663
-1.6610 8.6952 -1.7207 0.9646
-2.7835 8.7021 -1.7759 0.9635
-3.9482 8.5999 -1.8394 0.9622
-9.5702 7.3834 -2.3495 0.9519
-10.3903 6.1761 -2.3495 0.9519
-12.6764 2.2261 -2.5017 0.9489
-12.8408 -0.8720 -2.5017 0.9489
-11.6973 -5.3683 -2.5017 0.9489
-10.0728 -8.0115 -2.5017 0.9489
-7.8631 -10.1891 -2.5017 0.9489
6.7531 -8.4746 -2.5017 0.9565
7.7253 -7.5989 -2.5017 0.9565
8.5849 -6.6124 -2.5017 0.9565
10.3717 -3.1388 -2.5017 0.9565
10.8215 -0.5657 -2.5017 0.9565
10.8108 0.7427 -2.5017 0.9565
10.6424 2.0403 -2.5017 0.9565
6.0413 1.9367 -1.4647 0.9743
4.8638 2.2368 -1.2359 0.9783
4.1754 2.5707 -1.1320 0.9801
3.9516 3.1481 -1.1664 0.9795
7.1376 7.2544 -2.3495 0.9591
1.4175 8.1029 -1.8991 0.9668
-0.5958 8.6887 -2.0107 0.9649
-1.6658 8.6953 -2.0440 0.9643
-5.3345 8.6668 -2.3495 0.9591
-6.3402 7.9607 -2.3495 0.9591
-7.2535 7.1385 -2.3495 0.9591
-8.0610 6.2122 -2.3495 0.9591
-10.8110 -0.7399 -2.5017 0.9565
-10.6430 -2.0375 -2.5017 0.9565
-10.3198 -3.3054 -2.5017 0.9565
-9.2290 -5.6789 -2.5017 0.9565
-8.4773 -6.7498 -2.5017 0.9565
-7.6020 -7.7223 -2.5017 0.9565
-6.6158 -8.5823 -2.5017 0.9565
-5.5332 -9.3171 -2.5017 0.9565
-3.1429 -10.3705 -2.5017 0.9565
-1.8701 -10.6737 -2.5017 0.9565
3.3040 -10.3202 -2.5017 0.9565
4.5238 -9.8468 -2.5017 0.9565
5.6776 -9.2298 -2.5017 0.9565
6.7487 -8.4782 -2.5017 0.9565
8.5814 -6.6169 -2.5017 0.9565
9.3163 -5.5344 -2.5017 0.9565
9.9155 -4.3712 -2.5017 0.9565
10.8111 0.7370 -2.5017 0.9565
10.6435 2.0347 -2.5017 0.9565
4.1768 2.5685 -1.1320 0.9801
3.9523 3.1452 -1.1661 0.9795
7.1414 7.2506 -2.3495 0.9591
6.2154 8.0585 -2.3495 0.9591
5.1989 8.7489 -2.3495 0.9591
2.5255 8.3252 -2.0085 0.9649
1.4220 8.1039 -1.8995 0.9668
-1.6610 8.6952 -2.0438 0.9643
-2.7835 8.7021 -2.1093 0.9632
-5.3299 8.6697 -2.3495 0.9591
-6.3360 7.9641 -2.3495 0.9591
-7.2497 7.1424 -2.3495 0.9591
-8.0577 6.2165 -2.3495 0.9591
-8.7482 5.2000 -2.3495 0.9591
-9.6569 4.2603 -2.4368 0.9576
-10.3692 3.1470 -2.5017 0.9565
-10.6729 1.8743 -2.5017 0.9565
-10.8210 0.5742 -2.5017 0.9565
-10.6440 -2.0319 -2.5017 0.9565
-9.8486 -4.5199 -2.5017 0.9565
-8.4809 -6.7453 -2.5017 0.9565
2.8515 -8.8906 -2.5017 0.9621
5.8186 -7.3018 -2.5017 0.9621
7.3968 -5.6973 -2.5017 0.9621
8.0296 -4.7643 -2.5017 0.9621
9.3147 0.6399 -2.5017 0.9621
9.1696 1.7579 -2.5017 0.9621
6.3729 2.0431 -1.7932 0.9727
4.6998 2.1614 -1.3861 0.9788
3.9045 2.4039 -1.2286 0.9812
3.6541 2.9111 -1.2518 0.9808
0.4589 8.7566 -2.3495 0.9643
-5.4628 6.8591 -2.3495 0.9643
-6.9454 5.3525 -2.3495 0.9643
-8.5443 3.7640 -2.5017 0.9621
-9.3238 0.4899 -2.5017 0.9621
-9.3149 -0.6375 -2.5017 0.9621
-9.1701 -1.7555 -2.5017 0.9621
-8.4836 -3.8989 -2.5017 0.9621
-7.9518 -4.8930 -2.5017 0.9621
-7.3041 -5.8157 -2.5017 0.9621
-6.5499 -6.6537 -2.5017 0.9621
-4.7675 -8.0277 -2.5017 0.9621
-2.7079 -8.9353 -2.5017 0.9621
-0.4911 -9.3237 -2.5017 0.9621
0.6362 -9.3149 -2.5017 0.9621
2.8468 -8.8921 -2.5017 0.9621
4.8919 -7.9525 -2.5017 0.9621
5.8147 -7.3049 -2.5017 0.9621
6.6528 -6.5508 -2.5017 0.9621
7.3938 -5.7012 -2.5017 0.9621
9.3150 0.6350 -2.5017 0.9621
3.6551 2.9087 -1.2516 0.9808
6.1531 6.2472 -2.3495 0.9643
3.5382 8.0231 -2.3495 0.9643
0.4635 8.7564 -2.3495 0.9643
-0.5952 8.7484 -2.3495 0.9643
-2.6714 8.3518 -2.3495 0.9643
-6.2464 6.1539 -2.3495 0.9643
-6.9426 5.3562 -2.3495 0.9643
-8.5423 3.7685 -2.5017 0.9621
-9.3235 0.4948 -2.5017 0.9621
-9.1710 -1.7507 -2.5017 0.9621
-8.8932 -2.8433 -2.5017 0.9621
-8.4857 -3.8944 -2.5017 0.9621
-7.3072 -5.8118 -2.5017 0.9621
-6.5535 -6.6502 -2.5017 0.9621
-5.7042 -7.3916 -2.5017 0.9621
-4.7717 -8.0252 -2.5017 0.9621
