ply
format ascii 1.0
element vertex 741
property float32 x
property float32 y
property float32 z
property float32 I
end_header
-50.7951 -23.1192 14.9540 0.7937
-9.1396 -29.2682 8.2159 0.8808
-5.3758 -29.1232 7.9354 0.8846
49.3271 -82.6047 25.7799 0.6714
44.1725 19.1582 12.9013 0.8192
9.7722 5.7175 3.0337 0.9542
35.5945 56.6659 17.9306 0.7580
-11.0730 26.1698 7.6140 0.8890
-22.1229 23.2433 8.5981 0.8756
-25.8770 -39.6042 12.6763 0.8221
-16.6142 -33.6508 10.0558 0.8561
-4.0717 -41.3354 11.1294 0.8420
45.8917 -83.5027 25.5309 0.6740
34.4893 39.5785 14.0666 0.8046
35.4670 52.2161 16.9136 0.7700
-10.3422 27.1072 7.7740 0.8868
-12.8094 24.3291 7.3673 0.8924
-16.0226 23.1822 7.5509 0.8899
-20.1140 22.7073 8.1282 0.8820
-9.8359 -31.4980 7.6182 0.8733
25.5044 -42.7105 11.4848 0.8153
32.5420 -42.0634 12.2780 0.8039
95.8257 16.3450 22.4426 0.6709
44.8656 19.4588 11.2903 0.8181
9.7722 5.7175 2.6139 0.9546
34.4065 26.1294 9.9743 0.8375
35.4572 34.3579 11.3986 0.8165
34.5846 55.0582 15.0109 0.7657
-8.8775 30.8565 7.4127 0.8765
-13.6805 23.8702 6.3518 0.8932
-17.2862 23.1899 6.6776 0.8880
-52.8511 55.5279 17.6981 0.7300
-64.9024 53.5607 19.4273 0.7079
-19.3566 1.7320 4.4867 0.9233
-56.3230 -15.6600 13.4964 0.7866
-61.6984 -34.6309 16.3346 0.7479
-26.3682 -40.3559 11.1294 0.8205
-11.1267 -31.6084 7.7363 0.8715
-4.1225 -41.8515 9.7089 0.8414
45.8917 -83.5027 21.9977 0.6763
30.9729 -43.1413 12.2610 0.8041
59.7258 -30.1558 15.4467 0.7598
10.7127 5.7633 2.8084 0.9513
34.8970 24.5837 9.8550 0.8393
35.4424 31.9653 11.0188 0.8221
34.4893 39.5786 12.1200 0.8061
35.4671 52.2162 14.5729 0.7717
-10.3422 27.1072 6.6982 0.8877
-60.2667 53.4736 18.6010 0.7184
-64.6517 -29.4260 13.8075 0.7487
-15.1455 -33.6598 7.1746 0.8604
-6.2209 -33.7012 6.6615 0.8697
-2.5294 -40.4883 7.8855 0.8476
24.0903 -40.3424 9.1335 0.8257
32.7285 -42.3046 10.3968 0.8042
59.8267 -47.5980 14.8606 0.7323
95.1574 16.2310 18.7639 0.6748
34.8712 20.4021 7.8532 0.8482
35.2251 26.7511 8.5977 0.8351
34.5846 55.0582 12.6385 0.7672
4.0845 8.6599 1.8612 0.9617
-0.3464 8.6872 1.6900 0.9652
-4.9952 8.7157 1.9527 0.9599
-52.8511 55.5278 14.9010 0.7317
-64.9024 53.5607 16.3569 0.7097
-56.6461 -41.4417 13.6429 0.7513
-16.6142 -33.6508 7.2949 0.8582
-11.1267 -31.6084 6.5136 0.8724
-3.7244 -37.8095 7.3850 0.8566
30.0773 -54.7274 12.1386 0.7753
52.1174 -44.6016 13.3339 0.7561
74.8242 -49.8506 17.4767 0.6932
59.9673 15.5226 12.0406 0.7769
48.8228 19.1296 10.1927 0.8076
35.4424 31.9653 9.2773 0.8233
34.4893 39.5786 10.2045 0.8074
35.4671 52.2162 12.2698 0.7732
2.9490 5.7131 1.2497 0.9741
3.2257 8.6652 1.7973 0.9630
1.0120 8.6788 1.6984 0.9650
-0.0351 8.6496 1.6813 0.9654
-2.1687 8.6984 1.7425 0.9641
-3.3214 8.7054 1.8111 0.9627
-16.0226 23.1822 5.4777 0.8915
-20.1140 22.7073 5.8965 0.8837
-60.2936 53.4975 15.6682 0.7200
-62.4679 -62.7376 14.0224 0.6987
-14.2319 -31.6295 5.4934 0.8690
-5.8405 -31.6408 5.0961 0.8778
42.1290 -42.7054 9.5012 0.7843
76.4722 -24.6332 12.7249 0.7223
59.9815 17.8396 9.9114 0.7761
44.8656 19.4588 7.7456 0.8203
35.4112 26.8925 7.0426 0.8352
1.7623 8.6742 1.4019 0.9648
0.6985 8.6807 1.3793 0.9653
-1.4029 8.6937 1.3948 0.9650
-2.5031 8.7004 1.4339 0.9640
-3.6844 8.7077 1.4975 0.9624
-6.5038 8.7250 1.7236 0.9569
-8.2985 8.7188 1.9064 0.9524
-78.4885 -32.3851 13.4480 0.7090
-15.6120 -31.6210 5.5854 0.8669
-7.0184 -31.6336 5.1321 0.8770
22.4653 -55.8594 9.5360 0.7836
22.5708 -41.0689 7.4223 0.8271
28.5876 -39.8188 7.7637 0.8199
63.7545 -42.4756 12.1335 0.7333
59.7889 -30.1876 10.6082 0.7624
60.4180 15.6393 9.8847 0.7767
36.6267 19.7047 6.5873 0.8450
35.4425 31.9653 7.5594 0.8242
7.5279 8.6388 1.8149 0.9547
5.8747 8.6489 1.6560 0.9585
2.0876 8.6722 1.4128 0.9645
1.0120 8.6788 1.3839 0.9652
-3.3214 8.7054 1.4758 0.9630
-6.0284 8.7221 1.6793 0.9580
-7.7353 8.7326 1.8477 0.9539
-60.3331 53.5326 12.7751 0.7213
-67.1415 -30.5591 9.0577 0.7428
-10.5157 -33.6750 4.3317 0.8675
22.3082 -50.2000 6.7450 0.8014
23.8466 -39.9343 5.7110 0.8291
41.7882 -42.3600 7.3061 0.7868
59.6487 -36.7278 8.6010 0.7540
78.0547 -25.1430 10.0689 0.7186
66.7148 3.2584 8.2013 0.7640
59.9815 17.8396 7.6836 0.7771
44.8657 19.4588 6.0046 0.8211
34.8713 20.4022 4.9606 0.8497
5.4345 8.6516 1.2545 0.9597
-1.4029 8.6937 1.0813 0.9651
-2.5031 8.7004 1.1116 0.9642
-3.6844 8.7077 1.1609 0.9626
-4.9952 8.7157 1.2335 0.9603
-80.4711 27.5204 10.4424 0.7098
-80.8379 7.2331 9.9653 0.7210
-62.9596 -35.3388 8.8650 0.7475
28.3541 -39.4936 5.9695 0.8221
49.1187 -42.0354 7.9381 0.7706
59.6892 -30.1373 8.2101 0.7638
64.0271 -23.1847 8.3611 0.7600
64.2291 -14.8546 8.0945 0.7667
66.6507 -7.1681 8.2309 0.7633
66.7002 0.8675 8.1904 0.7643
60.2548 15.5970 7.6422 0.7782
48.8229 19.1297 6.4384 0.8095
36.6267 19.7047 5.1067 0.8457
12.2219 8.6099 1.8356 0.9415
9.5646 8.6262 1.5815 0.9494
5.8747 8.6489 1.2838 0.9587
2.9487 5.7125 0.7893 0.9744
3.2257 8.6652 1.1353 0.9634
2.0876 8.6722 1.0952 0.9647
1.0120 8.6788 1.0728 0.9654
-1.0851 8.6917 1.0755 0.9653
-3.3214 8.7054 1.1440 0.9631
-4.5875 8.7132 1.2091 0.9611
-7.7353 8.7326 1.4324 0.9541
-9.8566 8.7456 1.6180 0.9483
-12.6547 8.7620 1.8899 0.9399
-14.2162 -31.5946 3.0311 0.8701
-9.8837 -31.6509 2.9010 0.8753
-5.8470 -31.6757 2.8181 0.8787
24.9944 -41.8563 4.2652 0.8222
32.3819 -41.8564 4.6299 0.8086
41.6368 -42.2065 5.1870 0.7882
53.1389 -42.2772 5.9409 0.7614
60.0970 -37.0039 6.1746 0.7532
60.1516 -27.7155 5.7943 0.7665
59.1672 -19.0589 5.4384 0.7791
64.1415 -4.5837 5.6260 0.7724
64.1889 3.1350 5.6225 0.7726
64.2370 10.9569 5.7012 0.7698
59.9815 17.8396 5.4749 0.7778
11.3444 8.6153 1.2463 0.9444
8.9064 8.6303 1.0850 0.9514
7.0028 8.6420 0.9731 0.9563
4.0845 8.6599 0.8377 0.9623
2.8778 8.6673 0.7990 0.9640
1.7623 8.6742 0.7744 0.9651
0.6985 8.6807 0.7619 0.9656
-1.4029 8.6937 0.7704 0.9653
-2.5031 8.7004 0.7921 0.9643
-8.3150 8.7361 1.0552 0.9527
-10.6031 8.7502 1.2027 0.9463
-21.9723 -33.6281 3.5144 0.8510
-15.5948 -31.5862 3.0819 0.8681
-11.1267 -31.6085 2.9317 0.8741
23.6467 -88.0957 7.9802 0.6933
21.5423 -53.5642 5.0511 0.7931
23.1893 -42.1943 4.2123 0.8242
38.9184 -42.3831 5.0342 0.7937
47.7857 -40.8946 5.5026 0.7768
63.4617 -42.2805 6.6716 0.7362
64.0785 -14.8197 5.7541 0.7679
64.1272 -6.8967 5.6428 0.7718
64.1748 0.8347 5.6150 0.7728
59.9673 15.5226 5.4194 0.7798
36.8105 19.8036 3.6570 0.8455
12.2219 8.6099 1.3080 0.9417
9.5646 8.6262 1.1269 0.9496
5.8747 8.6489 0.9147 0.9589
2.9487 5.7124 0.5624 0.9745
3.2257 8.6652 0.8089 0.9636
1.0120 8.6788 0.7644 0.9655
-1.0851 8.6917 0.7663 0.9654
-3.3214 8.7054 0.8152 0.9633
-6.0284 8.7221 0.9276 0.9583
-7.7353 8.7326 1.0206 0.9542
-16.6564 8.7874 1.6476 0.9272
-24.6284 -31.5308 2.0968 0.8519
-2.3061 -36.9138 1.9383 0.8623
23.0971 -51.9751 2.9807 0.7963
26.1379 -43.7712 2.6718 0.8153
32.2006 -41.6222 2.7579 0.8099
53.1163 -42.2592 3.5572 0.7619
60.0173 -36.9548 3.6938 0.7540
60.0407 -19.3403 3.3058 0.7767
68.3527 -13.2508 3.6489 0.7566
69.0505 3.3725 3.6231 0.7581
28.6103 8.5092 1.5643 0.8873
14.6901 8.5947 0.8920 0.9341
5.4345 8.6516 0.5354 0.9599
4.0845 8.6599 0.5018 0.9624
2.8750 8.6591 0.4782 0.9641
0.6979 8.6737 0.4560 0.9657
-0.3461 8.6809 0.4553 0.9658
-1.4010 8.6818 0.4609 0.9654
-2.4995 8.6877 0.4738 0.9644
-3.6844 8.7077 0.4955 0.9628
-6.5038 8.7250 0.5703 0.9573
-8.3150 8.7361 0.6321 0.9528
-10.6031 8.7502 0.7205 0.9464
-18.2269 8.7971 1.0607 0.9221
-25.8602 8.8440 1.4323 0.8963
-26.5185 -31.5544 2.1601 0.8478
-20.6193 -31.5573 1.9756 0.8599
-15.1020 -30.5880 1.7878 0.8723
-7.4086 -33.3922 1.7926 0.8720
23.7835 -88.6050 4.8080 0.6925
22.0878 -54.9207 3.1023 0.7889
47.9045 -40.9962 3.3044 0.7768
63.7999 -42.5058 4.0177 0.7356
67.8347 -15.6884 3.6489 0.7566
69.0667 0.8983 3.6199 0.7583
48.8229 19.1297 2.7481 0.8106
12.2219 8.6099 0.7835 0.9419
7.5279 8.6388 0.6005 0.9551
1.0110 8.6704 0.4575 0.9656
-0.0351 8.6496 0.4533 0.9659
-1.0839 8.6822 0.4585 0.9656
-4.5875 8.7132 0.5161 0.9613
-7.7353 8.7326 0.6114 0.9543
-9.8566 8.7456 0.6906 0.9486
-12.6558 8.7628 0.8067 0.9402
-16.6564 8.7874 0.9870 0.9273
-23.0776 8.8269 1.2949 0.9058
-64.7316 -29.4623 1.2414 0.7524
-15.9097 -35.3583 0.6768 0.8563
-5.7642 -31.2272 0.5543 0.8807
-2.5294 -40.4884 0.7081 0.8502
38.8781 -87.4872 1.6711 0.6818
26.1316 -43.7608 0.8897 0.8155
32.6098 -42.1510 0.9302 0.8080
96.3033 -18.6692 1.7123 0.6754
28.6103 8.5092 0.5210 0.8874
46.4462 20.1443 0.8837 0.8167
15.2517 8.9233 0.3084 0.9317
11.3444 8.6153 0.2486 0.9446
8.9064 8.6303 0.2165 0.9516
5.4100 8.6127 0.1775 0.9601
4.0654 8.6195 0.1663 0.9626
-0.3461 8.6806 0.1516 0.9658
-1.3995 8.6727 0.1533 0.9655
-2.4911 8.6586 0.1573 0.9646
-3.6671 8.6667 0.1643 0.9631
-6.5038 8.7250 0.1900 0.9574
-8.3150 8.7361 0.2105 0.9529
-10.6031 8.7502 0.2400 0.9465
-57.2544 -15.9189 1.0373 0.7884
-73.7279 -30.4209 1.3922 0.7268
-20.3838 -31.1970 0.6505 0.8615
-17.3713 -35.1843 0.6849 0.8547
-3.7245 -37.8103 0.6632 0.8590
31.9033 -79.3266 1.4924 0.7103
30.0772 -54.7272 1.0900 0.7789
30.2519 -42.1370 0.9054 0.8126
35.9985 -39.2034 0.9290 0.8082
34.2540 -29.3142 0.7870 0.8350
36.4941 -24.3137 0.7654 0.8391
48.2989 -24.3863 0.9444 0.8054
50.7077 -18.3616 0.9413 0.8059
51.3357 20.1142 0.9624 0.8021
7.5215 8.6314 0.1998 0.9552
3.2257 8.6652 0.1614 0.9637
1.0120 8.6788 0.1525 0.9656
-0.0351 8.6496 0.1510 0.9660
-6.0284 8.7221 0.1851 0.9585
-7.7352 8.7326 0.2036 0.9544
-9.8566 8.7456 0.2300 0.9486
-12.6365 8.7494 0.2683 0.9404
-16.6386 8.7780 0.3284 0.9275
-23.0776 8.8269 0.4313 0.9059
-12.1654 -20.1595 -0.4110 0.9101
38.8796 -87.4906 -1.6711 0.6818
25.7607 -33.2980 -0.7348 0.8450
39.5174 -24.3323 -0.8100 0.8306
52.9611 -24.4024 -1.0178 0.7919
77.5677 -24.9862 -1.4225 0.7218
71.0396 3.4696 -1.2415 0.7524
51.8488 8.8438 -0.9181 0.8102
28.3637 8.4359 -0.5165 0.8884
15.2517 8.9233 -0.3084 0.9317
8.9064 8.6303 -0.2165 0.9516
5.3942 8.5875 -0.1770 0.9602
4.0444 8.5749 -0.1655 0.9628
1.7623 8.6742 -0.1545 0.9652
-0.3461 8.6806 -0.1516 0.9658
-1.3962 8.6522 -0.1530 0.9655
-2.4851 8.6376 -0.1569 0.9647
-3.6483 8.6225 -0.1634 0.9632
-18.0943 8.7330 -0.3507 0.9228
-87.3546 -13.2958 -1.5423 0.7022
-57.3615 -15.9487 -1.0392 0.7881
-61.4799 -44.9781 -1.3297 0.7373
-13.5117 -20.6794 -0.4312 0.9059
-9.8941 -20.0398 -0.3901 0.9145
-4.4947 -20.2585 -0.3622 0.9203
31.8951 -79.3061 -1.4920 0.7104
29.3996 -40.9499 -0.8799 0.8174
36.4941 -24.3137 -0.7654 0.8391
51.6796 -18.7136 -0.9594 0.8026
32.7741 8.4836 -0.5909 0.8733
50.9041 19.9451 -0.9543 0.8035
36.6267 19.7048 -0.7260 0.8467
12.2219 8.6099 -0.2610 0.9419
9.5646 8.6262 -0.2248 0.9498
5.8454 8.6058 -0.1816 0.9592
2.9486 5.7123 -0.1122 0.9746
3.2257 8.6652 -0.1614 0.9637
2.0876 8.6722 -0.1557 0.9649
1.0120 8.6788 -0.1525 0.9656
-1.0799 8.6503 -0.1522 0.9657
-2.1574 8.6532 -0.1557 0.9650
-4.5875 8.7132 -0.1719 0.9614
-6.0284 8.7221 -0.1851 0.9585
-7.7352 8.7326 -0.2036 0.9544
-9.8566 8.7456 -0.2300 0.9486
-12.6098 8.7309 -0.2677 0.9405
-23.0776 8.8269 -0.4313 0.9059
-87.1338 21.8018 -1.5678 0.6981
-17.6261 -22.5661 -1.5006 0.8916
-8.7076 -19.3522 -1.1121 0.9185
-5.9591 -19.0832 -1.0477 0.9230
1.5370 -26.5861 -1.3956 0.8988
14.0171 -45.6310 -2.5017 0.8260
25.7607 -33.2980 -2.2063 0.8448
32.4967 -25.8543 -2.1763 0.8468
40.7170 -18.7608 -2.3495 0.8356
46.8630 -9.0848 -2.5017 0.8260
15.2517 8.9233 -0.9261 0.9317
11.3444 8.6153 -0.7465 0.9445
8.9064 8.6303 -0.6500 0.9515
6.9733 8.6056 -0.5805 0.9566
5.3790 8.5632 -0.5300 0.9603
2.8778 8.6673 -0.4786 0.9641
1.7623 8.6742 -0.4639 0.9652
0.6985 8.6807 -0.4564 0.9657
-0.3461 8.6806 -0.4553 0.9658
-1.3929 8.6318 -0.4582 0.9656
-3.6298 8.5786 -0.4882 0.9634
-8.3150 8.7361 -0.6321 0.9528
-10.6031 8.7502 -0.7205 0.9464
-13.5577 8.6864 -0.8439 0.9375
-17.9968 8.6860 -1.0473 0.9231
-45.1445 4.0394 -2.3754 0.8340
-45.1629 -1.3962 -2.3680 0.8344
-43.1928 -12.0093 -2.3495 0.8356
-34.7642 -32.5005 -2.4941 0.8264
-20.3883 -24.2601 -1.6608 0.8808
-13.1462 -20.1200 -1.2596 0.9082
-9.6170 -19.4787 -1.1385 0.9167
-4.3833 -19.7565 -1.0606 0.9221
-2.0624 -20.9377 -1.1026 0.9192
0.4966 -22.6165 -1.1856 0.9134
6.7603 -47.2543 -2.5017 0.8260
12.3751 -46.1034 -2.5017 0.8260
22.9912 -41.8339 -2.5017 0.8260
30.3220 -33.0214 -2.3495 0.8356
40.0195 -20.2060 -2.3495 0.8356
42.1528 -15.2638 -2.3495 0.8356
46.5078 -10.7561 -2.5017 0.8260
47.4617 -5.1044 -2.5017 0.8260
47.7314 0.6208 -2.5017 0.8260
44.4345 5.9516 -2.3495 0.8356
32.7741 8.4836 -1.7742 0.8732
12.2219 8.6099 -0.7835 0.9419
9.5646 8.6262 -0.6750 0.9497
7.5215 8.6314 -0.6000 0.9552
2.9486 5.7122 -0.3369 0.9746
2.0876 8.6722 -0.4675 0.9649
-0.0351 8.6496 -0.4533 0.9659
-1.0794 8.6462 -0.4566 0.9657
-3.2730 8.5786 -0.4812 0.9639
-4.5875 8.7132 -0.5161 0.9613
-6.0284 8.7221 -0.5557 0.9584
-7.7353 8.7326 -0.6114 0.9543
-9.8566 8.7456 -0.6906 0.9486
-16.6017 8.7586 -0.9837 0.9276
-23.0776 8.8269 -1.2949 0.9058
-26.0257 -11.8455 -2.5017 0.8915
-22.4590 -17.6987 -2.5017 0.8915
-11.8650 -19.6616 -2.0091 0.9119
1.4754 -25.5200 -2.2364 0.9025
4.6239 -25.7176 -2.2861 0.9004
11.6121 -26.1306 -2.5017 0.8915
14.6603 -24.5505 -2.5017 0.8915
24.3490 -14.9925 -2.5017 0.8915
25.9704 -11.9662 -2.5017 0.8915
27.2174 -8.7673 -2.5017 0.8915
26.7044 4.5549 -2.3701 0.8969
24.6375 10.6856 -2.3495 0.8978
6.9733 8.6056 -0.9690 0.9565
5.3637 8.5390 -0.8822 0.9603
4.0029 8.4869 -0.8210 0.9630
2.8778 8.6673 -0.7990 0.9640
1.7623 8.6742 -0.7744 0.9651
-0.3461 8.6806 -0.7601 0.9657
-6.5038 8.7250 -0.9521 0.9572
-8.3150 8.7361 -1.0552 0.9527
-26.2945 5.5875 -2.3518 0.8977
-20.9727 1.8768 -1.8423 0.9189
-28.2690 -4.3027 -2.5017 0.8915
-27.5496 -7.6598 -2.5017 0.8915
-26.4329 -10.9065 -2.5017 0.8915
-24.9352 -13.9960 -2.5017 0.8915
-20.8881 -19.5279 -2.5017 0.8915
-13.1780 -20.1686 -2.1078 0.9078
-6.7885 -19.2845 -1.7887 0.9212
-4.4058 -19.8579 -1.7796 0.9216
-2.0378 -20.6872 -1.8187 0.9199
0.4898 -22.3071 -1.9521 0.9143
3.8032 -26.5843 -2.3495 0.8978
21.7252 -18.5922 -2.5017 0.8915
25.5255 -12.8879 -2.5017 0.8915
26.8862 -9.7357 -2.5017 0.8915
27.8593 -6.4431 -2.5017 0.8915
28.4307 -3.0576 -2.5017 0.8915
28.5922 0.3719 -2.5017 0.8915
28.3415 3.7961 -2.5017 0.8915
25.9981 6.7296 -2.3495 0.8978
16.2422 8.7381 -1.6136 0.9286
12.2219 8.6099 -1.3080 0.9417
9.5646 8.6262 -1.1269 0.9496
7.5215 8.6314 -1.0016 0.9551
2.9486 5.7122 -0.5624 0.9745
2.0876 8.6722 -0.7804 0.9648
-0.0351 8.6496 -0.7567 0.9659
-3.2650 8.5576 -0.8013 0.9639
-6.0284 8.7221 -0.9276 0.9583
-7.7353 8.7326 -1.0206 0.9542
-12.5158 8.6658 -1.3318 0.9407
-22.1292 8.4641 -2.0728 0.9093
-26.1075 6.5324 -2.3545 0.8976
-18.5443 -8.4404 -2.5017 0.9212
-16.0029 -12.6110 -2.5017 0.9212
-14.3761 -14.4381 -2.5017 0.9212
-9.8866 -16.3832 -2.3495 0.9258
-7.8518 -17.4501 -2.3495 0.9258
1.1045 -19.1033 -2.3495 0.9258
3.3861 -18.8332 -2.3495 0.9258
5.9829 -19.4765 -2.5017 0.9212
8.2741 -18.6191 -2.5017 0.9212
14.3089 -14.5047 -2.5017 0.9212
17.3496 -10.6828 -2.5017 0.9212
20.0024 -3.8776 -2.5017 0.9212
18.3412 5.4550 -2.3495 0.9258
7.8471 3.4034 -1.0502 0.9661
15.2517 8.9233 -2.1696 0.9313
11.3444 8.6153 -1.7491 0.9442
8.9064 8.6303 -1.5228 0.9512
5.3246 8.4766 -1.2291 0.9605
3.9565 8.3885 -1.1388 0.9633
2.8778 8.6673 -1.1213 0.9639
-0.3458 8.6722 -1.0657 0.9656
-1.3910 8.6198 -1.0721 0.9654
-2.4634 8.5624 -1.0940 0.9647
-4.9952 8.7157 -1.2335 0.9603
-10.6031 8.7502 -1.6880 0.9461
-13.2989 8.5206 -1.9393 0.9383
-18.1057 6.1920 -2.3495 0.9258
-19.0590 1.7053 -2.3495 0.9258
-20.1428 -3.0658 -2.5017 0.9212
-19.6301 -5.4579 -2.5017 0.9212
-18.8345 -7.7713 -2.5017 0.9212
-16.4440 -12.0302 -2.5017 0.9212
-14.8836 -13.9144 -2.5017 0.9212
-13.1086 -15.5979 -2.5017 0.9212
-10.4666 -16.0189 -2.3495 0.9258
-8.4712 -17.1579 -2.3495 0.9258
5.2820 -19.6782 -2.5017 0.9212
7.6025 -18.9033 -2.5017 0.9212
9.8133 -17.8558 -2.5017 0.9212
13.7806 -15.0075 -2.5017 0.9212
15.4800 -13.2476 -2.5017 0.9212
16.9562 -11.2968 -2.5017 0.9212
18.1879 -9.1831 -2.5017 0.9212
20.1944 2.7049 -2.5017 0.9212
7.8226 3.0650 -1.0316 0.9667
16.2422 8.7381 -2.2646 0.9284
5.7671 8.4906 -1.2603 0.9595
2.0876 8.6722 -1.0952 0.9647
-1.0781 8.6359 -1.0686 0.9655
-2.1392 8.5801 -1.0858 0.9650
-6.0284 8.7221 -1.3018 0.9582
-7.7353 8.7326 -1.4324 0.9541
-18.5629 4.6447 -2.3495 0.9258
-13.4883 -8.2191 -2.5017 0.9380
-12.4059 -9.7765 -2.5017 0.9380
-9.7229 -12.4479 -2.5017 0.9380
-8.1609 -13.5235 -2.5017 0.9380
-6.4791 -14.3993 -2.5009 0.9381
-2.7212 -14.7418 -2.3743 0.9411
-0.9494 -15.1963 -2.4116 0.9402
6.4143 -14.4341 -2.5017 0.9380
11.0927 -11.2445 -2.5017 0.9380
12.3604 -9.8339 -2.5017 0.9380
13.4500 -8.2816 -2.5017 0.9380
14.3456 -6.6099 -2.5017 0.9380
15.0344 -4.8429 -2.5017 0.9380
15.7550 -1.1259 -2.5017 0.9380
15.7763 0.7705 -2.5017 0.9380
7.4894 2.2275 -1.2376 0.9689
12.8038 7.4911 -2.3495 0.9417
11.3215 8.5979 -2.2516 0.9441
8.9064 8.6303 -1.9643 0.9510
6.8823 8.4934 -1.7314 0.9567
5.2713 8.3918 -1.5696 0.9607
6.3558 13.4755 -2.3598 0.9414
-0.3454 8.6637 -1.3733 0.9655
-1.3794 8.5482 -1.3714 0.9655
-3.5362 8.3574 -1.4373 0.9639
-4.9952 8.7157 -1.5911 0.9601
-15.7323 1.4077 -2.5017 0.9380
-15.7876 -0.4880 -2.5017 0.9380
-15.2179 -4.2311 -2.5017 0.9380
-14.6011 -6.0245 -2.5017 0.9380
-13.7737 -7.7311 -2.5017 0.9380
-11.5382 -10.7868 -2.5017 0.9380
-8.6397 -13.2228 -2.5017 0.9380
-3.2544 -14.6685 -2.3797 0.9410
0.3457 -15.7440 -2.4942 0.9382
2.2369 -15.6359 -2.5017 0.9380
4.0948 -15.2551 -2.5017 0.9380
5.8936 -14.6544 -2.5017 0.9380
7.6075 -13.8424 -2.5017 0.9380
13.1450 -8.7576 -2.5017 0.9380
15.3889 -3.5591 -2.5017 0.9380
15.7046 -1.6890 -2.5017 0.9380
15.7938 0.2054 -2.5017 0.9380
15.6553 2.0969 -2.5017 0.9380
8.3353 2.1576 -1.3637 0.9657
6.8067 2.6670 -1.1579 0.9708
9.5646 8.6262 -2.0400 0.9492
7.5013 8.6082 -1.8084 0.9548
2.0876 8.6722 -1.4128 0.9645
1.0120 8.6788 -1.3839 0.9652
-0.0351 8.6496 -1.3700 0.9656
-2.1212 8.5079 -1.3888 0.9651
-4.5875 8.7132 -1.5596 0.9609
-6.0284 8.7221 -1.6793 0.9580
-7.7353 8.7326 -1.8477 0.9539
-9.8566 8.7456 -2.0871 0.9480
-12.1961 8.4445 -2.3495 0.9417
-13.1203 6.9218 -2.3495 0.9417
-13.8553 5.2995 -2.3495 0.9417
-14.3906 3.6007 -2.3495 0.9417
-11.7139 -5.3315 -2.5017 0.9489
-10.1086 -7.9660 -2.5017 0.9489
-9.0810 -9.1201 -2.5017 0.9489
-5.2810 -11.7368 -2.5017 0.9489
-3.8363 -12.2851 -2.5017 0.9489
-2.3362 -12.6563 -2.5017 0.9489
0.7429 -12.8487 -2.5017 0.9489
2.2775 -12.6670 -2.5017 0.9489
3.7792 -12.3028 -2.5017 0.9489
10.0715 -8.0129 -2.5017 0.9489
11.6890 -5.3858 -2.5017 0.9489
12.8374 -0.9174 -2.5017 0.9489
12.8548 0.6279 -2.5017 0.9489
12.6869 2.1640 -2.5017 0.9489
7.1138 2.1158 -1.4426 0.9702
6.2615 2.7157 -1.3267 0.9726
10.4327 6.1039 -2.3495 0.9519
9.6260 7.3103 -2.3495 0.9519
8.6804 8.4113 -2.3495 0.9519
1.7623 8.6742 -1.7205 0.9646
0.4769 5.9270 -1.1558 0.9761
-3.4675 8.1952 -1.7297 0.9644
-6.5038 8.7250 -2.1153 0.9566
-8.3333 8.7553 -2.3495 0.9519
-9.3226 7.6935 -2.3495 0.9519
-12.5891 2.6751 -2.5017 0.9489
-12.7236 -1.9366 -2.5017 0.9489
-11.8972 -4.9089 -2.5017 0.9489
-10.3872 -7.5992 -2.5017 0.9489
-8.2803 -9.8528 -2.5017 0.9489
-7.0398 -10.7742 -2.5017 0.9489
-5.6977 -11.5402 -2.5017 0.9489
-2.7877 -12.5646 -2.5017 0.9489
11.4888 -5.8007 -2.5017 0.9489
12.7964 -1.3762 -2.5017 0.9489
12.7562 1.7086 -2.5017 0.9489
7.9561 2.0595 -1.5975 0.9671
6.2079 3.3398 -1.3702 0.9717
9.8814 6.9611 -2.3495 0.9519
8.9759 8.0953 -2.3495 0.9519
5.6495 8.3174 -1.9544 0.9599
3.2257 8.6652 -1.7973 0.9630
2.0876 8.6722 -1.7339 0.9643
-1.0649 8.5302 -1.6710 0.9656
-2.1033 8.4361 -1.6900 0.9652
-3.1597 8.2817 -1.7230 0.9645
-4.5876 8.7132 -1.9141 0.9607
-6.0283 8.7221 -2.0609 0.9577
-9.0412 8.0222 -2.3495 0.9519
-9.9376 6.8807 -2.3495 0.9519
-11.2895 4.3181 -2.3495 0.9519
-12.4562 3.1167 -2.4959 0.9490
-9.8626 -4.4889 -2.5017 0.9565
-8.5110 -6.7070 -2.5017 0.9565
-7.6457 -7.6787 -2.5017 0.9565
-5.5987 -9.2776 -2.5017 0.9565
-1.9670 -10.6561 -2.5017 0.9565
-0.6756 -10.8150 -2.5017 0.9565
1.9175 -10.6651 -2.5017 0.9565
4.4005 -9.9023 -2.5017 0.9565
6.6306 -8.5706 -2.5017 0.9565
7.6100 -7.7141 -2.5017 0.9565
10.6380 -2.0623 -2.5017 0.9565
10.8232 0.5286 -2.5017 0.9565
10.6818 1.8220 -2.5017 0.9565
6.0262 2.6137 -1.5165 0.9734
8.1046 6.1549 -2.3495 0.9591
7.3085 7.0819 -2.3495 0.9591
6.4070 7.9068 -2.3495 0.9591
5.4132 8.6177 -2.3495 0.9591
4.3413 9.2044 -2.3495 0.9591
1.7623 8.6742 -2.0435 0.9643
-1.3675 8.4741 -1.9817 0.9654
-2.3929 8.3171 -1.9981 0.9651
-3.9656 9.3724 -2.3495 0.9591
-5.0604 8.8295 -2.3495 0.9591
-7.0162 7.3716 -2.3495 0.9591
-9.1652 4.4235 -2.3495 0.9591
-10.8309 -0.3348 -2.5017 0.9565
-9.4493 -5.3038 -2.5017 0.9565
-8.7455 -6.3981 -2.5017 0.9565
-6.9716 -8.2956 -2.5017 0.9565
-5.9272 -9.0713 -2.5017 0.9565
-4.7972 -9.7164 -2.5017 0.9565
-3.5981 -10.2213 -2.5017 0.9565
-2.3471 -10.5788 -2.5017 0.9565
0.2379 -10.8334 -2.5017 0.9565
1.5346 -10.7268 -2.5017 0.9565
4.0433 -10.0535 -2.5017 0.9565
7.3291 -7.9815 -2.5017 0.9565
8.2329 -7.0456 -2.5017 0.9565
9.0179 -6.0081 -2.5017 0.9565
10.8352 0.1409 -2.5017 0.9565
7.5573 6.8158 -2.3495 0.9591
6.6859 7.6725 -2.3495 0.9591
5.7181 8.4185 -2.3495 0.9591
3.2257 8.6652 -2.1346 0.9628
2.0876 8.6722 -2.0593 0.9640
-0.0351 8.6496 -1.9969 0.9651
-2.0855 8.3645 -1.9902 0.9652
-4.7411 9.0050 -2.3495 0.9591
-5.7862 8.3718 -2.3495 0.9591
-6.7479 7.6180 -2.3495 0.9591
-8.3670 5.7932 -2.3495 0.9591
-10.5120 2.6302 -2.5017 0.9565
-7.3331 -5.7788 -2.5017 0.9621
-5.7472 -7.3580 -2.5017 0.9621
-1.6948 -9.1814 -2.5017 0.9621
-0.5821 -9.3183 -2.5017 0.9621
0.5389 -9.3209 -2.5017 0.9621
2.7416 -8.9249 -2.5017 0.9621
3.7915 -8.5320 -2.5017 0.9621
4.7868 -8.0160 -2.5017 0.9621
7.3062 -5.8128 -2.5017 0.9621
7.9503 -4.8952 -2.5017 0.9621
8.4797 -3.9071 -2.5017 0.9621
8.8868 -2.8626 -2.5017 0.9621
6.7052 1.9942 -1.8744 0.9714
5.9894 2.5977 -1.7493 0.9733
6.0292 3.5275 -1.8717 0.9715
6.9830 5.3032 -2.3495 0.9643
4.6641 7.4251 -2.3495 0.9643
2.7864 5.9078 -1.7502 0.9733
1.7457 8.5929 -2.3495 0.9643
-0.3494 8.7615 -2.3495 0.9643
-1.3969 8.6565 -2.3495 0.9643
-2.4244 8.4267 -2.3495 0.9643
-6.7629 5.5811 -2.3495 0.9643
-7.3831 4.7303 -2.3495 0.9643
-8.2978 4.0049 -2.4688 0.9626
-8.8342 3.0212 -2.5017 0.9621
-9.1326 1.9406 -2.5017 0.9621
-9.2993 0.8321 -2.5017 0.9621
-9.3320 -0.2885 -2.5017 0.9621
-9.2302 -1.4049 -2.5017 0.9621
-8.6307 -3.5611 -2.5017 0.9621
-8.1417 -4.5698 -2.5017 0.9621
-7.5353 -5.5127 -2.5017 0.9621
-6.8202 -6.3761 -2.5017 0.9621
-6.0069 -7.1476 -2.5017 0.9621
-5.1069 -7.8160 -2.5017 0.9621
-2.0223 -9.1148 -2.5017 0.9621
0.2050 -9.3342 -2.5017 0.9621
4.4968 -8.1822 -2.5017 0.9621
5.4451 -7.5843 -2.5017 0.9621
7.7700 -5.1766 -2.5017 0.9621
8.7787 -3.1788 -2.5017 0.9621
9.0964 -2.1037 -2.5017 0.9621
9.2539 1.2395 -2.5017 0.9621
7.7454 2.0049 -2.1438 0.9674
5.9633 3.2082 -1.8144 0.9723
6.5114 5.8726 -2.3495 0.9643
2.9109 5.6393 -1.7005 0.9741
3.0591 8.2176 -2.3495 0.9643
1.0156 8.7095 -2.3495 0.9643
-3.1257 8.1925 -2.3495 0.9643
-4.9855 7.2132 -2.3495 0.9643
-5.8141 6.5637 -2.3495 0.9643
-6.5589 5.8196 -2.3495 0.9643
-7.2091 4.9915 -2.3495 0.9643
-7.7745 4.1016 -2.3553 0.9643
-9.0573 2.2662 -2.5017 0.9621
