ply
format ascii 1.0
element vertex 526
property float32 x
property float32 y
property float32 z
property float32 I
end_header
-48.5951 -25.0702 14.6517 0.7974
-27.6774 -39.5603 12.9369 0.8188
-12.2010 -31.6018 9.0769 0.8691
-6.9128 -27.3639 7.5625 0.8897
37.7502 19.6978 11.4093 0.8383
33.9008 38.1233 13.6697 0.8096
33.9680 49.0349 15.9834 0.7811
13.0410 24.7572 7.4977 0.8906
0.0046 5.9146 1.5848 0.9758
-9.4115 38.2542 10.5558 0.8495
-10.1965 26.9063 7.7099 0.8877
-12.9222 24.6255 7.4517 0.8912
-16.0051 23.1821 7.5482 0.8899
-20.1286 22.7074 8.1308 0.8819
-38.6786 -9.6112 10.6791 0.8479
-48.4283 -25.5563 14.6723 0.7971
-27.1360 -39.5637 12.8550 0.8198
-6.9353 -28.5677 7.8770 0.8854
-4.8548 -41.2503 11.1293 0.8420
-6.9472 -27.5000 6.5483 0.8901
-4.3602 -34.3015 7.9828 0.8677
53.4167 20.1013 13.1765 0.7911
34.3113 23.5714 9.6105 0.8429
34.8555 30.7529 10.7314 0.8263
-10.1965 26.9063 6.6429 0.8886
-12.9222 24.6255 6.4205 0.8921
-20.1286 22.7074 7.0056 0.8829
-22.0900 2.6518 5.1365 0.9127
-52.1762 -27.5341 13.6202 0.7849
-7.9015 -32.5476 7.7325 0.8715
-4.9249 -41.8465 9.7277 0.8412
59.1251 -30.6202 15.3720 0.7608
-23.5204 -33.6185 7.9753 0.8460
-8.5094 -33.6842 6.7532 0.8680
-4.4315 -34.8622 6.8311 0.8666
32.6711 -87.4344 18.1433 0.6836
49.5840 -44.2988 12.9244 0.7627
59.5978 -31.5704 13.1096 0.7597
59.3812 14.4631 11.8800 0.7795
37.7503 19.6978 8.2768 0.8407
34.3112 23.5714 8.0916 0.8440
34.8555 30.7529 9.0353 0.8274
34.4725 49.7632 11.7670 0.7814
2.1479 8.6718 1.7366 0.9643
0.0046 5.9129 1.1493 0.9762
-2.1400 8.6982 1.7412 0.9642
-3.2990 8.7053 1.8096 0.9628
-16.0051 23.1821 5.4758 0.8916
-60.4834 53.5335 15.7004 0.7195
-57.5499 -14.3004 11.5267 0.7853
-58.6548 -40.6972 13.8770 0.7476
-23.0603 -33.6214 7.9248 0.8469
-17.5237 -33.6453 7.3739 0.8568
29.5654 -42.4006 10.0476 0.8101
50.6676 -44.4278 13.0988 0.7599
-64.6039 -33.3291 11.5137 0.7450
-57.2399 -38.9331 10.9643 0.7555
-22.0707 -31.5465 6.0979 0.8556
-16.8405 -31.6135 5.6732 0.8650
-4.0204 -31.6282 5.0497 0.8789
29.4762 -78.8843 13.3378 0.7110
37.0399 -42.1782 8.8906 0.7967
49.3009 -44.0458 10.4709 0.7651
59.4713 -31.5033 10.6593 0.7614
59.3812 14.4631 9.6800 0.7807
53.4167 20.1013 9.0396 0.7936
37.9396 19.7966 6.7779 0.8409
34.3113 23.5714 6.5932 0.8449
34.8555 30.7529 7.3621 0.8284
7.6811 8.6378 1.8308 0.9543
5.9909 8.6482 1.6663 0.9583
4.5601 8.6570 1.5497 0.9611
24.7033 64.8786 10.9954 0.7549
0.0046 5.9112 0.9363 0.9763
-1.0500 8.6915 1.3866 0.9652
-2.1400 8.6982 1.4187 0.9644
-6.0218 8.7220 1.6787 0.9580
-7.7409 8.7326 1.8483 0.9538
-22.0622 2.6484 3.5194 0.9139
-58.7237 -14.5921 9.5838 0.7827
-57.0514 -39.5847 10.9981 0.7549
-16.4667 -31.6158 5.6459 0.8656
-11.8658 -31.6039 5.3467 0.8722
-7.6787 -31.6295 5.1551 0.8765
21.8385 -41.1515 7.3787 0.8281
28.5433 -40.9348 7.9040 0.8170
37.6978 -42.1317 8.9543 0.7954
49.3085 -43.2360 10.3868 0.7668
61.9378 -42.2710 11.8769 0.7381
59.3062 -30.7140 10.5781 0.7630
66.3601 -24.7396 11.2171 0.7506
-66.1797 -34.1421 9.1435 0.7407
-23.1930 -33.1507 4.9677 0.8495
-17.9215 -33.6428 4.6804 0.8576
-12.2011 -31.6019 4.1594 0.8724
-8.5094 -33.6842 4.2658 0.8693
-4.4315 -34.8622 4.3150 0.8679
27.6579 -40.4606 6.0177 0.8208
37.0399 -42.1782 6.8923 0.7975
60.6350 -42.2124 9.0715 0.7425
59.0527 -31.2816 8.2052 0.7639
63.6276 -15.9168 8.0532 0.7677
63.5414 -7.9272 7.8624 0.7725
12.5301 8.6080 1.8666 0.9406
7.6811 8.6378 1.4193 0.9545
24.7033 64.8786 8.5240 0.7560
2.1479 8.6718 1.0969 0.9646
1.0623 8.6785 1.0735 0.9654
0.0046 5.9095 0.7256 0.9765
-3.2990 8.7053 1.1431 0.9632
-7.7409 8.7326 1.4328 0.9541
-9.8812 8.7458 1.6202 0.9482
-22.0672 2.6491 2.7290 0.9143
-22.8842 -33.3646 4.9677 0.8495
-4.4442 -37.7615 4.6685 0.8579
4.8620 -38.7353 4.7934 0.8544
20.2212 -52.6206 6.9216 0.7968
37.7435 -42.1828 6.9500 0.7960
61.9379 -42.2710 9.2073 0.7392
59.1068 -30.6107 8.1729 0.7647
66.0367 -24.6191 8.6534 0.7527
-17.9215 -33.6428 3.3349 0.8581
-4.0279 -31.6868 2.7945 0.8796
20.9148 -86.7453 7.8067 0.6989
29.0698 -77.7967 7.2660 0.7164
22.5034 -43.3724 4.2749 0.8218
27.0796 -39.6147 4.1982 0.8247
37.0399 -42.1782 4.9110 0.7982
46.5457 -41.5843 5.4607 0.7783
59.5510 -31.5456 5.8959 0.7629
63.4406 -24.3245 5.9443 0.7612
63.4925 -15.8830 5.7260 0.7689
63.5414 -7.9272 5.6022 0.7733
59.3813 14.4631 5.3471 0.7824
12.5301 8.6080 1.3300 0.9408
5.9909 8.6482 0.9204 0.9586
4.5601 8.6570 0.8560 0.9615
24.7033 64.8786 6.0737 0.7567
2.1479 8.6718 0.7816 0.9648
0.0046 5.9077 0.5169 0.9766
-3.2990 8.7053 0.8145 0.9633
-6.0218 8.7220 0.9273 0.9583
-12.7131 8.7632 1.3509 0.9399
-16.7779 8.7881 1.6570 0.9268
-23.0603 -33.6214 3.5669 0.8490
-17.5237 -33.6453 3.3189 0.8587
-11.8658 -31.6039 2.9534 0.8732
-3.7294 -31.6886 2.7915 0.8798
21.2454 -55.2857 5.1817 0.7883
37.7273 -42.1647 4.9500 0.7968
63.4447 -23.6528 5.9239 0.7619
-8.4341 -33.3859 1.8047 0.8712
-4.2785 -33.6584 1.7782 0.8729
-0.3406 -62.7385 3.2880 0.7778
26.4463 -50.9718 3.0095 0.7945
29.4782 -43.1236 2.7376 0.8112
37.0399 -42.1782 2.9418 0.7986
59.5510 -31.5456 3.5318 0.7634
52.5813 -20.1608 2.9513 0.7981
67.5419 -16.8960 3.6488 0.7566
68.4399 8.1069 3.6119 0.7588
33.9619 12.7803 1.9017 0.8647
37.7503 19.6978 2.2315 0.8432
9.7756 8.6250 0.6832 0.9491
5.9909 8.6482 0.5514 0.9587
4.5601 8.6570 0.5128 0.9616
1.0612 8.6697 0.4578 0.9656
0.0046 5.9060 0.3095 0.9766
-1.0489 8.6821 0.4583 0.9656
-2.1356 8.6803 0.4685 0.9648
-3.2990 8.7053 0.4879 0.9634
-4.5595 8.6890 0.5143 0.9615
-6.0218 8.7220 0.5555 0.9584
-7.7409 8.7326 0.6116 0.9543
-9.8812 8.7458 0.6916 0.9485
-23.3493 8.8285 1.3082 0.9048
-64.1720 -33.8645 3.8027 0.7478
-21.6403 -31.5510 2.0051 0.8579
-11.8658 -31.6039 1.7692 0.8735
-8.1055 -33.3880 1.8006 0.8714
-4.0036 -34.0181 1.7951 0.8718
23.8277 -94.9487 5.1303 0.6756
22.2110 -41.8535 2.4832 0.8271
46.8659 -41.0943 3.2666 0.7791
67.6959 -16.2680 3.6488 0.7566
-21.8200 -31.1882 0.6644 0.8588
-18.3420 -34.4321 0.6810 0.8555
-12.2010 -31.6018 0.5913 0.8733
-7.8854 -31.2142 0.5620 0.8792
-4.2786 -33.6588 0.5922 0.8731
29.4848 -56.8279 1.1175 0.7740
29.5684 -43.2555 0.9146 0.8109
59.3813 14.4631 1.0668 0.7831
37.7503 19.6978 0.7432 0.8434
12.5301 8.6080 0.2654 0.9410
7.6811 8.6378 0.2018 0.9548
24.7033 64.8787 1.2118 0.7575
2.1479 8.6718 0.1559 0.9649
1.0623 8.6785 0.1526 0.9656
0.0046 5.9043 0.1031 0.9767
-1.0484 8.6784 0.1526 0.9656
-2.1348 8.6774 0.1560 0.9649
-4.5595 8.6890 0.1713 0.9615
-7.7409 8.7326 0.2037 0.9544
-12.7045 8.7572 0.2693 0.9401
-16.7655 8.7816 0.3304 0.9271
-22.0820 2.6508 0.3882 0.9149
-32.9352 -37.3855 0.8697 0.8193
-21.3932 -31.1908 0.6602 0.8596
-18.1925 -34.9293 0.6874 0.8542
29.7002 -55.9656 1.1059 0.7761
29.5734 -42.4121 0.9025 0.8131
33.6781 -29.5306 0.7818 0.8359
35.6180 -24.3083 0.7527 0.8415
47.0733 -24.3787 0.9253 0.8089
49.9642 -18.6271 0.9308 0.8079
-61.5251 -41.8477 -1.2988 0.7425
-58.5101 -51.1421 -1.3564 0.7328
-14.6006 -20.8692 -0.4446 0.9031
-10.6108 -19.9190 -0.3939 0.9137
-7.4906 -19.4015 -0.3630 0.9202
-5.1039 -20.2035 -0.3637 0.9200
-2.7060 -21.2882 -0.3746 0.9177
-0.1236 -22.7567 -0.3972 0.9130
25.0152 -36.5947 -0.7737 0.8375
34.2267 -38.9747 -0.9054 0.8126
33.6763 -30.0867 -0.7882 0.8347
46.0093 -24.3722 -0.9088 0.8120
50.3562 -12.5969 -0.9061 0.8125
59.3813 14.4631 -1.0668 0.7831
37.7503 19.6978 -0.7432 0.8434
7.6811 8.6378 -0.2018 0.9548
5.9609 8.6050 -0.1827 0.9590
4.5183 8.5776 -0.1692 0.9620
21.9207 57.5707 -1.0753 0.7816
1.0623 8.6785 -0.1526 0.9656
-3.2709 8.6311 -0.1611 0.9637
-6.0218 8.7220 -0.1850 0.9585
-9.8812 8.7458 -0.2303 0.9486
-12.7045 8.7572 -0.2693 0.9401
-22.0870 2.6514 -0.3883 0.9148
-87.8513 -0.1349 -1.5334 0.7037
-87.9186 -10.8283 -1.5462 0.7016
-63.6566 -33.5925 -1.2563 0.7498
-14.1670 -20.6551 -0.4372 0.9047
-10.2603 -19.6998 -0.3877 0.9150
-4.2960 -36.5023 -0.6415 0.8633
28.5062 -53.7158 -1.0615 0.7841
51.0980 -19.0498 -0.9519 0.8040
-39.4722 -26.8479 -2.5018 0.8260
-29.9475 -33.3642 -2.3496 0.8356
-14.3676 -20.5362 -1.3135 0.9045
-7.3941 -19.1514 -1.0759 0.9211
-5.0635 -20.0437 -1.0834 0.9205
-2.6619 -20.9406 -1.1063 0.9189
5.5053 -47.4189 -2.5018 0.8260
16.7093 -44.7176 -2.5018 0.8260
29.5835 -33.6874 -2.3496 0.8356
33.4337 -29.8699 -2.3496 0.8356
34.7589 -24.1982 -2.2196 0.8440
41.8617 -16.0507 -2.3496 0.8356
47.3702 -5.9098 -2.5018 0.8260
44.5220 5.2737 -2.3496 0.8356
28.8936 15.0765 -1.7080 0.8776
9.7756 8.6250 -0.6832 0.9491
7.6811 8.6378 -0.6058 0.9548
4.5061 8.5545 -0.5067 0.9620
9.7234 25.5369 -1.4321 0.8963
2.1479 8.6718 -0.4682 0.9648
1.0623 8.6785 -0.4582 0.9656
-1.0484 8.6784 -0.4581 0.9656
-2.1246 8.6358 -0.4661 0.9650
-6.0218 8.7220 -0.5555 0.9584
-7.7409 8.7326 -0.6116 0.9543
-12.7045 8.7572 -0.8087 0.9401
-23.3493 8.8285 -1.3082 0.9048
-34.4617 8.4510 -1.8596 0.8675
-22.0919 2.6520 -1.1661 0.9147
-40.8668 -5.0332 -2.1579 0.8480
-42.2194 -22.2798 -2.5018 0.8260
-39.2212 -27.2133 -2.5018 0.8260
-23.0178 -26.1281 -1.8249 0.8698
-13.9294 -20.3087 -1.2906 0.9061
-7.1353 -19.0046 -1.0639 0.9219
-2.4711 -20.9966 -1.1080 0.9188
0.0906 -23.4799 -1.2305 0.9102
11.6196 -46.3017 -2.5018 0.8260
17.1239 -44.5605 -2.5018 0.8260
25.6432 -36.7757 -2.3496 0.8356
29.8950 -33.4111 -2.3496 0.8356
35.4629 -24.2025 -2.2501 0.8420
42.0089 -15.6613 -2.3496 0.8356
-25.4132 -13.1107 -2.5018 0.8915
-17.9392 -19.9860 -2.3496 0.8978
-10.3297 -19.3913 -1.9222 0.9156
-7.4041 -19.1775 -1.7985 0.9208
-5.0416 -19.9571 -1.8009 0.9207
-2.6284 -20.6777 -1.8236 0.9197
10.0093 -26.7869 -2.5018 0.8915
16.1374 -23.6073 -2.5018 0.8915
25.2694 -13.3858 -2.5018 0.8915
26.7005 -10.2375 -2.5018 0.8915
28.5957 -0.0888 -2.5018 0.8915
28.3973 3.3637 -2.5018 0.8915
26.0934 6.3554 -2.3496 0.8978
25.1354 9.4587 -2.3496 0.8978
12.5301 8.6080 -1.3300 0.9408
9.7756 8.6250 -1.1405 0.9490
5.9494 8.5883 -0.9141 0.9589
9.7836 25.6947 -2.4054 0.8955
2.1479 8.6718 -0.7816 0.9648
1.0623 8.6785 -0.7649 0.9655
0.0046 5.8991 -0.5161 0.9766
-2.1227 8.6280 -0.7774 0.9650
-3.2549 8.5889 -0.8036 0.9638
-4.4793 8.5360 -0.8434 0.9620
-7.7409 8.7326 -1.0210 0.9542
-12.6869 8.7451 -1.3481 0.9400
-15.9292 8.3436 -1.5732 0.9303
-26.1253 6.4066 -2.3534 0.8976
-26.7165 -10.1956 -2.5018 0.8915
-21.3548 -19.0183 -2.5018 0.8915
-17.7529 -20.1517 -2.3496 0.8978
-13.8706 -20.2229 -2.1455 0.9062
6.9604 -27.7358 -2.5018 0.8915
10.2576 -26.6928 -2.5018 0.8915
16.3559 -23.4565 -2.5018 0.8915
21.5009 -18.8530 -2.5018 0.8915
25.3926 -13.1505 -2.5018 0.8915
-18.1079 -9.3418 -2.5018 0.9212
-16.8478 -11.4594 -2.5018 0.9212
-13.6104 -15.1632 -2.5018 0.9212
-8.9969 -16.8892 -2.3496 0.9258
-4.6870 -18.5532 -2.3496 0.9258
4.7758 -19.8080 -2.5018 0.9212
7.1320 -19.0867 -2.5018 0.9212
13.4450 -15.3101 -2.5018 0.9212
15.1948 -13.5751 -2.5018 0.9212
16.7224 -11.6416 -2.5018 0.9212
19.0251 -7.2946 -2.5018 0.9212
20.2189 -2.5225 -2.5018 0.9212
20.3755 -0.0633 -2.5018 0.9212
9.2174 2.2450 -1.1648 0.9625
8.3266 3.1334 -1.0924 0.9648
16.9654 8.8524 -2.3496 0.9258
7.6811 8.6378 -1.4193 0.9545
5.9062 8.5260 -1.2735 0.9591
6.8891 18.0929 -2.3771 0.9249
2.1479 8.6718 -1.0969 0.9646
1.0623 8.6785 -1.0735 0.9654
0.0046 5.8974 -0.7241 0.9765
-1.0472 8.6683 -1.0721 0.9654
-2.1188 8.6121 -1.0890 0.9649
-7.7409 8.7326 -1.4328 0.9541
-12.6869 8.7451 -1.8920 0.9398
-18.5854 4.5577 -2.3496 0.9258
-18.9997 2.2808 -2.3496 0.9258
-20.3756 -0.0313 -2.5018 0.9212
-20.2228 -2.4907 -2.5018 0.9212
-16.7406 -11.6154 -2.5018 0.9212
-15.2161 -13.5513 -2.5018 0.9212
-13.4690 -15.2890 -2.5018 0.9212
0.0738 -19.1359 -2.3496 0.9258
7.3089 -19.0196 -2.5018 0.9212
9.5514 -17.9982 -2.5018 0.9212
11.6542 -16.7136 -2.5018 0.9212
13.5866 -15.1846 -2.5018 0.9212
-7.4265 -13.9412 -2.5018 0.9380
-5.6383 -14.6037 -2.4794 0.9386
-0.0855 -15.7543 -2.4953 0.9382
1.8216 -15.6904 -2.5018 0.9380
5.5289 -14.7966 -2.5018 0.9380
8.9140 -13.0403 -2.5018 0.9380
12.9637 -9.0250 -2.5018 0.9380
13.9583 -7.3941 -2.5018 0.9380
15.3236 -3.8333 -2.5018 0.9380
15.6743 -1.9555 -2.5018 0.9380
15.7957 -0.0491 -2.5018 0.9380
7.6139 2.8652 -1.2885 0.9676
5.8452 8.4380 -1.6258 0.9593
4.4239 8.3984 -1.5034 0.9623
2.1479 8.6718 -1.4150 0.9645
1.0623 8.6785 -1.3848 0.9652
0.0046 5.8956 -0.9338 0.9764
-1.0444 8.6451 -1.3792 0.9653
-2.1010 8.5397 -1.3929 0.9650
-4.3419 8.2741 -1.4800 0.9629
-6.0218 8.7220 -1.6787 0.9580
-7.7409 8.7326 -1.8483 0.9538
-9.8812 8.7458 -2.0900 0.9480
-14.4079 3.5332 -2.3496 0.9417
-10.4416 -11.8525 -2.5018 0.9380
-5.4815 -14.5996 -2.4700 0.9388
0.0608 -15.7610 -2.4963 0.9382
1.9673 -15.6728 -2.5018 0.9380
3.8448 -15.3207 -2.5018 0.9380
9.0347 -12.9569 -2.5018 0.9380
11.8767 -10.4140 -2.5018 0.9380
14.0264 -7.2641 -2.5018 0.9380
14.8007 -5.5178 -2.5018 0.9380
15.3586 -3.6908 -2.5018 0.9380
-11.4382 -5.9010 -2.5018 0.9489
-10.6423 -7.2386 -2.5018 0.9489
-9.6906 -8.4703 -2.5018 0.9489
-8.5973 -9.5782 -2.5018 0.9489
-6.0512 -11.3595 -2.5018 0.9489
-3.1524 -12.4787 -2.5018 0.9489
-0.0699 -12.8705 -2.5018 0.9489
1.4843 -12.7848 -2.5018 0.9489
3.0168 -12.5122 -2.5018 0.9489
4.5051 -12.0565 -2.5018 0.9489
7.2633 -10.6254 -2.5018 0.9489
8.4928 -9.6709 -2.5018 0.9489
9.5981 -8.5750 -2.5018 0.9489
10.5631 -7.3537 -2.5018 0.9489
11.3735 -6.0248 -2.5018 0.9489
12.0176 -4.6078 -2.5018 0.9489
12.4860 -3.1234 -2.5018 0.9489
12.7717 -1.5933 -2.5018 0.9489
12.8706 -0.0400 -2.5018 0.9489
12.7813 1.5140 -2.5018 0.9489
8.2562 2.0109 -1.6518 0.9660
7.2575 2.7311 -1.5073 0.9689
10.7165 5.5918 -2.3496 0.9519
9.9632 6.8446 -2.3496 0.9519
9.0641 7.9972 -2.3496 0.9519
5.8247 8.4083 -1.9883 0.9592
4.3379 8.2352 -1.8093 0.9628
2.1479 8.6718 -1.7366 0.9643
0.0046 5.8938 -1.1456 0.9763
-1.0444 8.6451 -1.6927 0.9651
-2.0832 8.4676 -1.6950 0.9651
-6.0218 8.7220 -2.0602 0.9577
-7.7398 8.7314 -2.2680 0.9536
-9.0515 8.0114 -2.3496 0.9519
-9.9524 6.8602 -2.3496 0.9519
-11.3065 4.2750 -2.3496 0.9519
-12.4863 3.0620 -2.4990 0.9490
-12.7789 1.5340 -2.5018 0.9489
-12.8707 -0.0198 -2.5018 0.9489
-10.5746 -7.3371 -2.5018 0.9489
-9.6116 -8.5599 -2.5018 0.9489
-8.5080 -9.6576 -2.5018 0.9489
-7.2800 -10.6140 -2.5018 0.9489
-5.9455 -11.4152 -2.5018 0.9489
-3.0364 -12.5074 -2.5018 0.9489
-1.5044 -12.7825 -2.5018 0.9489
0.0497 -12.8706 -2.5018 0.9489
3.1328 -12.4836 -2.5018 0.9489
6.0334 -11.3690 -2.5018 0.9489
10.6309 -7.2553 -2.5018 0.9489
11.4290 -5.9189 -2.5018 0.9489
-10.1598 -3.7695 -2.5018 0.9565
-9.6305 -4.9684 -2.5018 0.9565
-7.2385 -8.0644 -2.5018 0.9565
-6.2121 -8.8792 -2.5018 0.9565
-3.9030 -10.1092 -2.5018 0.9565
-1.3665 -10.7500 -2.5018 0.9565
-0.0588 -10.8364 -2.5018 0.9565
1.2497 -10.7642 -2.5018 0.9565
4.9907 -9.6189 -2.5018 0.9565
6.1153 -8.9461 -2.5018 0.9565
7.1506 -8.1425 -2.5018 0.9565
8.8936 -6.1915 -2.5018 0.9565
10.8365 -0.0337 -2.5018 0.9565
10.7613 1.2747 -2.5018 0.9565
8.1561 1.9865 -1.9380 0.9661
8.3885 5.7628 -2.3496 0.9591
7.6315 6.7333 -2.3496 0.9591
4.5528 8.6431 -2.2553 0.9607
3.6215 9.5112 -2.3496 0.9591
-1.0444 8.6451 -2.0104 0.9649
-5.7823 8.3751 -2.3496 0.9591
-7.6209 6.7453 -2.3496 0.9591
-8.3795 5.7760 -2.3496 0.9591
-9.0154 4.7222 -2.3496 0.9591
-10.5247 2.5809 -2.5018 0.9565
-10.7553 -1.3246 -2.5018 0.9565
-9.5839 -5.0576 -2.5018 0.9565
-8.0925 -7.2071 -2.5018 0.9565
-7.1633 -8.1313 -2.5018 0.9565
-3.8090 -10.1451 -2.5018 0.9565
-2.5565 -10.5306 -2.5018 0.9565
0.0418 -10.8365 -2.5018 0.9565
1.3496 -10.7521 -2.5018 0.9565
6.1982 -8.8889 -2.5018 0.9565
8.1479 -7.1444 -2.5018 0.9565
8.9507 -6.1086 -2.5018 0.9565
9.6227 -4.9835 -2.5018 0.9565
-7.7203 -5.2511 -2.5018 0.9621
-6.2368 -6.9484 -2.5018 0.9621
-5.3524 -7.6504 -2.5018 0.9621
-2.2869 -9.0525 -2.5018 0.9621
-1.1774 -9.2624 -2.5018 0.9621
-0.0507 -9.3367 -2.5018 0.9621
1.0768 -9.2746 -2.5018 0.9621
2.1885 -9.0768 -2.5018 0.9621
4.3001 -8.2878 -2.5018 0.9621
5.2691 -7.7081 -2.5018 0.9621
6.9628 -6.2206 -2.5018 0.9621
7.6628 -5.3346 -2.5018 0.9621
8.7180 -3.3427 -2.5018 0.9621
9.0578 -2.2658 -2.5018 0.9621
9.2651 -1.1559 -2.5018 0.9621
7.2475 2.7273 -2.0749 0.9684
6.5754 5.8015 -2.3496 0.9643
5.8270 6.5528 -2.3496 0.9643
2.2240 5.8410 -1.6747 0.9744
1.0654 8.7039 -2.3496 0.9643
-1.0517 8.7056 -2.3496 0.9643
-2.0949 8.5150 -2.3496 0.9643
-3.1074 8.1998 -2.3496 0.9643
-6.5663 5.8118 -2.3496 0.9643
-9.0682 2.2238 -2.5018 0.9621
-9.2669 -1.1413 -2.5018 0.9621
-8.7233 -3.3290 -2.5018 0.9621
-8.2576 -4.3577 -2.5018 0.9621
-6.9726 -6.2097 -2.5018 0.9621
-1.0913 -9.2729 -2.5018 0.9621
0.0360 -9.3368 -2.5018 0.9621
2.2727 -9.0561 -2.5018 0.9621
3.3492 -8.7155 -2.5018 0.9621
4.3768 -8.2475 -2.5018 0.9621
6.2259 -6.9581 -2.5018 0.9621
7.0203 -6.1557 -2.5018 0.9621
8.2910 -4.2938 -2.5018 0.9621
