ply
format ascii 1.0
element vertex 722
property float32 x
property float32 y
property float32 z
property float32 I
end_header
-57.4698 -16.0713 15.9898 0.7810
-52.2161 -29.5473 16.0760 0.7800
-12.4542 -25.7688 7.6689 0.8882
-3.5233 -40.4822 10.8882 0.8451
33.8712 32.5162 12.5809 0.8233
32.9192 40.3213 13.9475 0.8061
-14.1735 24.3786 7.5560 0.8898
-17.5483 23.1915 7.7926 0.8865
-57.3891 -17.0169 16.0391 0.7805
-11.7173 -25.2401 7.4563 0.8912
-9.0545 -27.9297 7.8672 0.8855
-2.9575 -41.4464 11.1338 0.8419
48.8889 -82.6020 25.7192 0.6720
43.2409 19.1639 12.6733 0.8221
32.9273 41.6386 14.2240 0.8027
34.0141 55.7319 17.4948 0.7631
-10.4343 33.7383 9.4626 0.8639
-18.1260 23.1951 7.8877 0.8852
-3.5233 -40.4822 9.3814 0.8464
24.1972 -42.3755 11.2657 0.8185
45.0986 19.1525 11.3118 0.8178
33.8712 32.5162 10.8399 0.8247
-10.4482 35.7465 8.5980 0.8582
-11.6401 27.1152 6.8125 0.8859
-14.1735 24.3786 6.5104 0.8907
-17.5483 23.1915 6.7142 0.8875
-66.0941 53.5332 19.6363 0.7053
-9.1511 -28.2279 6.8508 0.8853
24.4678 -41.3405 11.0906 0.8210
33.3085 -43.3148 12.6149 0.7991
93.9930 16.6107 22.0362 0.6758
43.2893 19.1854 10.9317 0.8233
9.4961 5.6704 2.5535 0.9556
32.8276 25.4481 9.5894 0.8432
33.8776 33.5519 11.0079 0.8222
33.3996 54.7252 14.8014 0.7686
-1.0671 5.9041 1.3851 0.9757
-11.0038 35.5794 8.5980 0.8582
-14.6633 24.3405 6.5603 0.8899
-18.1260 23.1951 6.7962 0.8862
-80.0886 -12.2314 15.7481 0.7188
-58.3096 -16.3062 11.7691 0.7814
-57.7085 -42.6152 13.9444 0.7465
-20.2867 -31.5574 7.2923 0.8582
-16.2647 -33.6530 7.2654 0.8587
-10.6369 -31.1483 6.3979 0.8745
-3.5233 -40.4822 7.8987 0.8474
23.1828 -40.5990 9.0876 0.8265
31.4897 -42.2969 10.2500 0.8066
48.2679 -50.6728 13.6032 0.7519
58.1264 -27.8141 12.5255 0.7691
58.3506 16.8088 11.8034 0.7808
45.0987 19.1525 9.5241 0.8190
34.2237 19.7195 7.6777 0.8513
4.1025 8.6598 1.8626 0.9617
2.8846 8.6673 1.7756 0.9635
1.7598 8.6742 1.7204 0.9646
0.6874 8.6808 1.6927 0.9651
-0.3660 8.6873 1.6901 0.9652
-2.5431 8.7007 1.7620 0.9637
-3.7382 8.7080 1.8420 0.9621
-5.0675 8.7162 1.9598 0.9597
-53.7287 55.5332 15.0198 0.7299
-65.3684 -28.3637 13.8509 0.7480
-19.6014 -31.5616 7.2218 0.8595
-10.0078 -30.8704 6.3080 0.8761
-3.4207 -47.9371 9.3417 0.8221
23.8628 -40.3183 9.1069 0.8262
32.3970 -42.1295 10.3305 0.8053
48.2774 -49.1272 13.3885 0.7553
23.0852 -14.2129 5.2696 0.8954
94.2863 16.6625 18.6114 0.6770
58.4067 17.8147 11.8695 0.7797
33.8325 26.2270 8.3210 0.8399
33.8776 33.5519 9.2681 0.8234
3.9389 8.6608 1.8494 0.9620
2.7357 8.6682 1.7669 0.9636
-1.0670 5.9033 1.1661 0.9759
-18.1260 23.1951 5.7221 0.8870
-81.1078 7.3774 12.8993 0.7190
-79.8543 -12.1956 12.7943 0.7210
-81.0116 -33.6618 13.8946 0.7010
-15.2836 -31.6230 5.5629 0.8674
-6.6749 -31.6356 5.1209 0.8773
-3.5233 -40.4822 6.4360 0.8483
21.6389 -51.5099 8.8490 0.7975
30.9534 -41.5766 8.2097 0.8106
40.3590 -42.3698 9.2679 0.7890
73.1514 -24.6628 12.2268 0.7315
33.8712 32.5162 7.4366 0.8268
5.4669 8.6514 1.6209 0.9594
4.1025 8.6598 1.5177 0.9619
0.6874 8.6808 1.3792 0.9653
-0.3660 8.6873 1.3772 0.9654
-1.4319 8.6938 1.3955 0.9649
-2.5431 8.7007 1.4357 0.9640
-3.7382 8.7080 1.5009 0.9623
-6.6024 8.7256 1.7330 0.9567
-8.4518 8.7357 1.9252 0.9520
-79.7315 6.0016 12.6640 0.7234
-26.9962 -33.5972 6.8263 0.8398
-19.6014 -31.5616 5.8845 0.8603
-6.1625 -31.6388 5.1053 0.8776
34.5094 -78.6915 13.6093 0.7061
24.0700 -40.6684 7.4849 0.8258
58.5781 -36.0648 10.8953 0.7569
58.4067 17.8147 9.6715 0.7809
33.2934 19.8806 6.1417 0.8547
33.8325 26.2270 6.7801 0.8408
6.8348 8.6430 1.7452 0.9564
-0.5017 8.6881 1.3784 0.9654
-1.0667 5.9021 0.9499 0.9760
-3.9004 8.7090 1.5114 0.9621
-5.2515 8.7173 1.6119 0.9596
-6.8197 8.7269 1.7542 0.9561
-82.2615 7.4823 10.1421 0.7169
-58.6899 -43.3400 8.9581 0.7453
-11.4976 -33.6689 4.3684 0.8664
21.8068 -51.9097 6.9133 0.7970
30.8349 -41.4174 6.3400 0.8121
51.3606 -42.2664 8.1671 0.7649
58.1264 -27.8141 7.9120 0.7713
62.5191 -21.0782 8.1009 0.7665
62.5155 -12.9363 7.8385 0.7732
65.0869 -5.4094 8.0192 0.7686
58.8493 16.9524 7.5196 0.7813
45.0987 19.1526 6.0161 0.8208
11.4774 8.6145 1.7620 0.9438
8.9894 8.6298 1.5300 0.9510
7.0553 8.6417 1.3698 0.9560
4.1025 8.6598 1.1766 0.9621
1.7598 8.6742 1.0868 0.9650
-0.3660 8.6873 1.0676 0.9656
-1.4319 8.6938 1.0818 0.9651
-2.5431 8.7007 1.1130 0.9641
-6.6024 8.7256 1.3435 0.9569
-8.4531 8.7370 1.4927 0.9522
-82.1704 -13.8625 10.2318 0.7147
-11.7377 -25.2839 3.4227 0.8937
23.1898 -39.1812 5.5903 0.8324
41.5674 -42.2991 7.2817 0.7874
53.0357 -42.2768 8.3278 0.7608
58.1332 -26.7127 7.8554 0.7727
65.0439 -12.4063 8.1304 0.7658
65.1418 3.5072 8.0100 0.7688
43.2893 19.1854 5.8139 0.8263
11.1154 8.6167 1.7269 0.9449
8.7153 8.6315 1.5061 0.9518
6.8348 8.6430 1.3530 0.9566
1.6197 8.6751 1.0836 0.9651
-5.2515 8.7173 1.2496 0.9598
-6.8197 8.7269 1.3599 0.9563
-10.7953 -31.6121 2.9227 0.8745
-6.6823 -31.6705 2.8318 0.8781
-3.5233 -40.4823 3.5551 0.8495
58.5751 -28.0288 5.6811 0.7705
57.1805 -19.2783 5.2793 0.7848
62.6097 2.3936 5.4816 0.7776
58.4006 16.8231 5.3172 0.7835
34.3955 19.8185 3.4730 0.8527
11.4774 8.6145 1.2555 0.9440
8.9894 8.6298 1.0902 0.9512
7.0553 8.6417 0.9760 0.9562
5.4669 8.6514 0.8954 0.9597
2.8846 8.6673 0.7992 0.9640
1.7598 8.6742 0.7744 0.9651
0.6874 8.6808 0.7618 0.9656
-0.3660 8.6873 0.7607 0.9657
-1.4319 8.6938 0.7709 0.9652
-3.7382 8.7080 0.8291 0.9627
-5.0675 8.7162 0.8821 0.9603
-6.6024 8.7256 0.9573 0.9570
-8.4531 8.7370 1.0636 0.9524
-10.8049 8.7514 1.2165 0.9457
-18.7651 8.8004 1.8133 0.9201
-11.7749 -25.3642 2.4465 0.8938
-9.1655 -28.2721 2.6002 0.8875
25.4444 -84.6008 7.7291 0.7014
23.6404 -39.9425 4.0607 0.8300
31.3951 -40.8267 4.5059 0.8132
58.5283 -36.0342 6.0132 0.7588
58.5819 -26.9189 5.6405 0.7719
57.7213 -18.4644 5.3020 0.7840
62.5217 -11.9252 5.5686 0.7745
62.5691 -4.2200 5.4865 0.7774
62.6158 3.3712 5.4861 0.7774
62.6631 11.0740 5.5673 0.7745
43.2894 19.1854 4.1426 0.8269
33.2934 19.8806 3.3926 0.8558
11.1154 8.6167 1.2305 0.9451
8.7152 8.6315 1.0731 0.9519
3.9389 8.6608 0.8324 0.9625
2.7357 8.6682 0.7952 0.9642
1.6197 8.6751 0.7721 0.9652
-0.5017 8.6881 0.7614 0.9657
-1.0662 5.8992 0.5245 0.9762
-2.6912 8.7016 0.7969 0.9641
-3.9004 8.7090 0.8349 0.9624
-6.8197 8.7269 0.9690 0.9565
-60.4096 -16.8935 3.2874 0.7778
-14.7843 -30.5899 1.7806 0.8728
-10.5087 -30.7730 1.7042 0.8779
21.5543 -51.3086 2.9166 0.8002
24.1725 -42.3322 2.5547 0.8226
30.7983 -41.3683 2.7029 0.8134
40.1951 -42.1978 3.0542 0.7918
67.5899 -13.9863 3.6173 0.7585
67.5342 -5.6128 3.5515 0.7623
67.4803 2.5798 3.5391 0.7630
29.5199 8.5036 1.6100 0.8842
45.0987 19.1526 2.5678 0.8218
34.2237 19.7195 2.0700 0.8537
7.0553 8.6417 0.5847 0.9563
5.4668 8.6514 0.5363 0.9598
4.1024 8.6598 0.5022 0.9623
1.7569 8.6601 0.4631 0.9652
-0.3657 8.6809 0.4553 0.9658
-1.4299 8.6817 0.4611 0.9654
-2.5396 8.6887 0.4744 0.9644
-5.0675 8.7162 0.5284 0.9604
-6.6024 8.7256 0.5734 0.9571
-8.4531 8.7370 0.6371 0.9525
-14.0009 8.7711 0.8658 0.9360
-26.9428 8.8506 1.4862 0.8926
-25.3323 -31.5265 2.1195 0.8504
-11.8122 -25.4445 1.4702 0.8937
-4.7204 -24.2350 1.2940 0.9058
-3.4207 -47.9377 2.5187 0.8249
24.2849 -41.0315 2.4988 0.8261
31.3768 -40.8029 2.6975 0.8137
40.7431 -41.4603 3.0464 0.7923
58.5283 -36.0342 3.6021 0.7593
58.5819 -26.9189 3.3788 0.7724
57.6703 -18.4481 3.1732 0.7846
67.5272 -4.5544 3.5470 0.7625
67.4734 3.6327 3.5412 0.7629
27.9121 8.5135 1.5293 0.8897
32.9888 14.6203 1.8911 0.8654
11.1154 8.6167 0.7371 0.9452
6.8348 8.6430 0.5775 0.9568
3.9389 8.6608 0.4986 0.9626
-0.5013 8.6813 0.4557 0.9658
-1.0660 5.8978 0.3141 0.9763
-2.6882 8.6920 0.4768 0.9642
-5.2515 8.7173 0.5334 0.9601
-6.8197 8.7269 0.5804 0.9566
-81.8825 7.4478 1.4352 0.7197
-81.6692 -2.4853 1.4262 0.7212
-58.7917 -16.4410 1.0656 0.7833
-25.8496 -31.1635 0.7067 0.8505
-17.0854 -35.3511 0.6853 0.8546
-6.5877 -31.2221 0.5570 0.8802
25.1224 -88.5056 1.6059 0.6921
35.1906 -83.7687 1.5860 0.6952
24.9483 -43.6908 0.8782 0.8177
29.0925 -39.0770 0.8504 0.8229
32.6554 -34.2824 0.8264 0.8274
38.1487 -24.3145 0.7896 0.8345
95.3204 -19.7246 1.6991 0.6775
34.2238 19.7195 0.6894 0.8538
11.4774 8.6145 0.2505 0.9442
5.4547 8.6322 0.1782 0.9600
2.8708 8.6258 0.1587 0.9643
-0.3660 8.6873 0.1518 0.9658
-2.5370 8.6800 0.1578 0.9645
-5.0445 8.6767 0.1752 0.9606
-18.7498 8.7932 0.3615 0.9205
-26.9428 8.8506 0.4950 0.8927
-25.0446 -31.1684 0.6979 0.8522
-19.6015 -31.5616 0.6485 0.8619
-16.3367 -35.1906 0.6772 0.8562
-9.1630 -28.2644 0.5186 0.8879
28.7404 -48.5593 0.9849 0.7979
30.1085 -39.1535 0.8621 0.8207
39.5087 -24.3244 0.8098 0.8306
53.1350 -24.4160 1.0207 0.7914
77.0162 -24.6366 1.4114 0.7236
33.2934 19.8806 0.6769 0.8563
11.1154 8.6167 0.2455 0.9453
8.7152 8.6315 0.2141 0.9521
5.2690 8.6332 0.1765 0.9603
3.9226 8.6250 0.1654 0.9628
2.7226 8.6266 0.1579 0.9645
1.6197 8.6751 0.1540 0.9653
0.5516 8.6816 0.1518 0.9658
-1.0657 5.8964 0.1046 0.9763
-2.6848 8.6809 0.1586 0.9643
-56.1904 12.0846 -1.0032 0.7946
-56.4388 5.1335 -0.9892 0.7971
-81.6586 -2.4850 -1.4260 0.7212
-74.7663 -11.4186 -1.3202 0.7389
-74.7813 -31.0730 -1.4135 0.7233
-74.8340 -42.3461 -1.5009 0.7089
-58.5675 -43.2496 -1.2708 0.7473
-9.4449 -19.5423 -0.3789 0.9168
-10.9073 -31.9402 -0.5892 0.8737
25.0287 -88.1752 -1.5999 0.6930
36.7486 -87.4775 -1.6562 0.6841
28.5317 -49.9664 -1.0043 0.7944
32.6554 -34.2824 -0.8264 0.8274
32.7007 -26.9105 -0.7392 0.8441
73.1516 -24.6629 -1.3475 0.7343
95.6892 -19.8009 -1.7056 0.6764
75.1811 2.8742 -1.3132 0.7401
50.2695 8.0784 -0.8887 0.8157
29.5199 8.5036 -0.5362 0.8844
42.9078 18.2221 -0.8137 0.8299
34.2238 19.7195 -0.6894 0.8538
11.4774 8.6145 -0.2505 0.9442
8.9894 8.6298 -0.2175 0.9514
7.0553 8.6417 -0.1947 0.9564
5.4454 8.6175 -0.1779 0.9600
2.8567 8.5833 -0.1579 0.9645
0.6874 8.6808 -0.1520 0.9658
-0.9781 5.9388 -0.1051 0.9762
-6.6024 8.7256 -0.1910 0.9572
-13.9684 8.7507 -0.2877 0.9362
-26.9428 8.8506 -0.4950 0.8927
-56.1960 11.1729 -1.0001 0.7952
-74.7482 -32.4336 -1.4223 0.7218
-61.2456 -35.9276 -1.2394 0.7527
-63.5636 -48.4869 -1.3954 0.7263
-17.2952 -21.5242 -0.4820 0.8954
-12.4088 -19.9802 -0.4105 0.9102
28.4404 -94.5619 -1.7236 0.6736
39.5216 -24.3323 -0.8101 0.8305
27.7234 8.4559 -0.5059 0.8905
41.3241 18.3144 -0.7890 0.8346
33.2934 19.8806 -0.6769 0.8563
8.7152 8.6315 -0.2141 0.9521
6.8348 8.6430 -0.1923 0.9569
5.2547 8.6098 -0.1761 0.9605
3.9124 8.6024 -0.1650 0.9629
1.6197 8.6751 -0.1540 0.9653
-0.5017 8.6881 -0.1519 0.9658
-2.6782 8.6597 -0.1582 0.9644
-3.8764 8.6554 -0.1655 0.9628
-6.8197 8.7269 -0.1933 0.9567
-45.0661 4.0991 -2.3716 0.8342
-45.0971 -1.3724 -2.3645 0.8347
-43.3364 -6.6185 -2.2975 0.8390
-43.1764 -12.0742 -2.3496 0.8356
-12.7488 -19.8317 -1.2356 0.9099
1.5382 -44.8064 -2.3496 0.8356
7.3907 -47.1614 -2.5018 0.8260
22.5206 -39.4393 -2.3802 0.8337
32.5964 -26.8247 -2.2124 0.8444
37.8066 -24.0965 -2.3496 0.8356
39.5881 -13.3470 -2.1895 0.8459
44.2649 7.1135 -2.3496 0.8356
29.5199 8.5036 -1.6100 0.8842
15.1687 8.7401 -0.9175 0.9323
7.0553 8.6417 -0.5847 0.9563
4.0682 8.5876 -0.4980 0.9627
2.8426 8.5411 -0.4718 0.9646
1.7598 8.6742 -0.4639 0.9652
-0.3660 8.6873 -0.4557 0.9658
-0.9776 5.9359 -0.3153 0.9762
-2.5317 8.6616 -0.4729 0.9645
-3.7096 8.6414 -0.4928 0.9630
-4.9899 8.5827 -0.5203 0.9610
-6.6024 8.7256 -0.5734 0.9571
-10.8049 8.7514 -0.7287 0.9458
-13.9684 8.7507 -0.8638 0.9361
-18.6243 8.7344 -1.0781 0.9209
-24.0410 7.8974 -1.3262 0.9036
-44.6172 8.8709 -2.3841 0.8334
-45.0377 -2.0731 -2.3628 0.8348
-43.7117 -7.3743 -2.3232 0.8373
-43.7922 -19.0017 -2.5018 0.8260
-41.1753 -24.1540 -2.5018 0.8260
-37.9550 -28.9524 -2.5018 0.8260
-23.0273 -22.4534 -1.6856 0.8791
-17.0432 -21.2105 -1.4260 0.8967
-8.8802 -19.1289 -1.1053 0.9190
-6.3838 -19.6919 -1.0849 0.9204
13.7490 -45.7142 -2.5018 0.8260
22.8350 -38.5817 -2.3496 0.8356
27.3296 -35.5398 -2.3496 0.8356
38.1774 -23.5047 -2.3496 0.8356
39.5709 -12.6583 -2.1773 0.8467
47.6680 2.5664 -2.5018 0.8260
27.2802 8.3208 -1.4947 0.8920
15.0057 8.9604 -0.9160 0.9324
8.7152 8.6315 -0.6428 0.9521
0.5516 8.6816 -0.4559 0.9658
-0.5017 8.6881 -0.4561 0.9657
-1.0652 5.8936 -0.3139 0.9763
-2.6767 8.6548 -0.4748 0.9644
-3.8667 8.6338 -0.4958 0.9628
-6.8197 8.7269 -0.5804 0.9566
-26.2568 5.6469 -2.3497 0.8978
-22.1330 2.0132 -1.9444 0.9146
-26.8435 -0.8169 -2.3496 0.8978
-28.2678 -4.3171 -2.5018 0.8915
-26.4067 -10.9724 -2.5018 0.8915
-20.7571 -19.6184 -2.4988 0.8917
-17.1458 -20.6703 -2.3496 0.8978
-12.5621 -19.5412 -2.0324 0.9109
-9.2420 -19.1226 -1.8582 0.9183
-1.8796 -21.5965 -1.8966 0.9166
0.9214 -26.8401 -2.3496 0.8978
7.8084 -27.5088 -2.5018 0.8915
19.7228 -20.7055 -2.5018 0.8915
22.0802 -18.1706 -2.5018 0.8915
24.1141 -15.3694 -2.5018 0.8915
25.7945 -12.3430 -2.5018 0.8915
28.0023 -5.7945 -2.5018 0.8915
28.4973 -2.3684 -2.5018 0.8915
28.5747 1.0924 -2.5018 0.8915
28.1507 4.5239 -2.4945 0.8918
25.8065 7.4339 -2.3496 0.8978
15.1558 8.7327 -1.5303 0.9322
8.9894 8.6298 -1.0902 0.9512
4.0575 8.5649 -0.8292 0.9627
2.8322 8.5098 -0.7847 0.9646
1.7598 8.6742 -0.7744 0.9651
0.6874 8.6808 -0.7618 0.9656
-0.3660 8.6873 -0.7607 0.9657
-0.9772 5.9330 -0.5261 0.9761
-2.5317 8.6616 -0.7895 0.9644
-6.6024 8.7256 -0.9573 0.9570
-8.4531 8.7370 -1.0636 0.9524
-10.8049 8.7514 -1.2165 0.9457
-18.4354 8.6458 -1.7815 0.9215
-26.3403 5.2370 -2.3496 0.8978
-26.8275 -1.2349 -2.3496 0.8978
-28.1971 -4.7570 -2.5018 0.8915
-26.2325 -11.3824 -2.5018 0.8915
-24.6649 -14.4688 -2.5018 0.8915
-22.7359 -17.3432 -2.5018 0.8915
-19.8977 -19.4017 -2.4314 0.8944
-16.8217 -20.9349 -2.3496 0.8978
-8.8546 -19.0737 -1.8398 0.9190
-6.3545 -19.6013 -1.8028 0.9206
-1.5534 -21.7695 -1.9094 0.9161
4.8667 -28.1784 -2.5018 0.8915
14.5648 -24.6084 -2.5018 0.8915
25.9836 -11.9397 -2.5018 0.8915
27.2360 -8.7125 -2.5018 0.8915
28.5307 -1.9243 -2.5018 0.8915
28.5542 1.5373 -2.5018 0.8915
14.6610 8.7545 -1.4939 0.9337
11.1154 8.6167 -1.2305 0.9451
8.7152 8.6315 -1.0731 0.9519
2.6836 8.5031 -0.7801 0.9648
0.5516 8.6816 -0.7611 0.9657
-3.8570 8.6122 -0.8256 0.9628
-5.1494 8.5478 -0.8730 0.9607
-6.8197 8.7269 -0.9690 0.9565
-18.7081 4.0235 -2.3496 0.9258
-19.2876 1.7544 -2.3780 0.9249
-20.1419 -3.0761 -2.5018 0.9212
-14.8081 -13.9957 -2.5018 0.9212
-13.0039 -15.6770 -2.5009 0.9212
-1.6592 -19.0638 -2.3496 0.9258
0.6566 -19.1246 -2.3496 0.9258
5.5638 -19.6011 -2.5018 0.9212
7.8915 -18.7852 -2.5018 0.9212
10.1036 -17.6940 -2.5018 0.9212
12.1676 -16.3435 -2.5018 0.9212
15.7330 -12.9472 -2.5018 0.9212
18.3796 -8.7948 -2.5018 0.9212
19.9527 -4.1288 -2.5018 0.9212
20.3054 -1.6876 -2.5018 0.9212
20.3606 0.7784 -2.5018 0.9212
20.1173 3.2329 -2.5018 0.9212
18.3881 5.2970 -2.3496 0.9258
5.4113 8.5636 -1.2438 0.9600
2.8200 8.4731 -1.0965 0.9647
1.7598 8.6742 -1.0868 0.9650
0.6874 8.6808 -1.0692 0.9655
-0.3660 8.6873 -1.0676 0.9656
-0.9767 5.9300 -0.7379 0.9761
-2.5262 8.6428 -1.1056 0.9644
-3.6819 8.5768 -1.1460 0.9631
-6.6024 8.7256 -1.3435 0.9569
-8.4531 8.7370 -1.4927 0.9522
-10.8049 8.7514 -1.7072 0.9455
-13.9036 8.7101 -2.0145 0.9360
-18.1801 5.9721 -2.3496 0.9258
-19.9564 1.5022 -2.4573 0.9225
-20.0915 -3.3895 -2.5018 0.9212
-17.5747 -10.3096 -2.5018 0.9212
-14.5883 -14.2246 -2.5018 0.9212
-12.7363 -15.8505 -2.4966 0.9213
-8.0576 -17.3567 -2.3496 0.9258
-3.6585 -18.7829 -2.3496 0.9258
-1.3620 -19.0873 -2.3496 0.9258
0.9544 -19.1121 -2.3496 0.9258
5.8684 -19.5120 -2.5018 0.9212
8.1831 -18.6600 -2.5018 0.9212
12.4206 -16.1520 -2.5018 0.9212
14.2814 -14.5328 -2.5018 0.9212
19.4067 -6.2080 -2.5018 0.9212
20.0146 -3.8175 -2.5018 0.9212
20.3293 -1.3711 -2.5018 0.9212
20.3460 1.0954 -2.5018 0.9212
17.4947 7.7535 -2.3496 0.9258
11.1154 8.6167 -1.7269 0.9449
5.2228 8.5575 -1.2310 0.9604
0.5516 8.6816 -1.0681 0.9655
-0.5017 8.6881 -1.0685 0.9655
-1.0647 5.8908 -0.7350 0.9762
-2.6705 8.6348 -1.1098 0.9642
-3.8371 8.5677 -1.1527 0.9629
-6.8197 8.7269 -1.3599 0.9563
-14.5708 3.1337 -2.3606 0.9414
-15.7307 1.4308 -2.5018 0.9380
-15.2120 -4.2540 -2.5018 0.9380
-14.5865 -6.0610 -2.5018 0.9380
-13.7473 -7.7791 -2.5018 0.9380
-11.4797 -10.8499 -2.5018 0.9380
-6.8711 -14.2168 -2.5009 0.9381
-4.9953 -14.6280 -2.4482 0.9393
-1.3641 -15.6730 -2.4917 0.9383
2.4455 -15.6052 -2.5018 0.9380
6.1177 -14.5628 -2.5018 0.9380
7.8326 -13.7169 -2.5018 0.9380
9.4327 -12.6699 -2.5018 0.9380
12.1967 -10.0371 -2.5018 0.9380
13.3202 -8.4898 -2.5018 0.9380
14.2484 -6.8180 -2.5018 0.9380
14.9679 -5.0464 -2.5018 0.9380
15.4680 -3.2008 -2.5018 0.9380
5.8316 3.3601 -1.0660 0.9731
11.8646 8.9051 -2.3496 0.9417
8.9894 8.6298 -1.9737 0.9508
5.3818 8.5168 -1.5957 0.9600
3.9974 8.4381 -1.4788 0.9629
2.7780 8.3470 -1.3933 0.9650
1.7598 8.6742 -1.4018 0.9648
-3.6495 8.5014 -1.4653 0.9632
-6.6024 8.7256 -1.7330 0.9567
-8.4531 8.7370 -1.9255 0.9520
-14.0938 4.6298 -2.3496 0.9417
-15.7790 -0.7263 -2.5018 0.9380
-14.4904 -6.2875 -2.5018 0.9380
-13.6245 -7.9923 -2.5018 0.9380
-9.8939 -12.3131 -2.5018 0.9380
-8.3336 -13.4184 -2.5018 0.9380
0.7878 -15.7760 -2.5018 0.9380
4.5494 -15.1263 -2.5018 0.9380
6.3438 -14.4658 -2.5018 0.9380
9.6289 -12.5215 -2.5018 0.9380
11.0713 -11.2662 -2.5018 0.9380
12.3516 -9.8459 -2.5018 0.9380
14.3529 -6.5953 -2.5018 0.9380
15.0447 -4.8126 -2.5018 0.9380
12.9781 2.2935 -2.0874 0.9480
5.8407 3.4877 -1.0775 0.9728
11.1154 8.6167 -2.2275 0.9446
8.7152 8.6315 -1.9428 0.9515
6.8348 8.6430 -1.7452 0.9564
5.1745 8.4784 -1.5732 0.9606
2.6238 8.3135 -1.3807 0.9653
1.6197 8.6751 -1.3977 0.9649
-0.5017 8.6881 -1.3784 0.9654
-2.6477 8.5612 -1.4193 0.9644
-3.8031 8.4919 -1.4737 0.9630
-5.0174 8.3287 -1.5400 0.9614
-6.8197 8.7269 -1.7542 0.9561
-12.5829 2.7061 -2.5018 0.9489
-12.8177 1.1659 -2.5018 0.9489
-11.8854 -4.9386 -2.5018 0.9489
-11.2015 -6.3386 -2.5018 0.9489
-9.3538 -8.8407 -2.5018 0.9489
-8.2170 -9.9062 -2.5018 0.9489
3.5145 -12.3814 -2.5018 0.9489
4.9848 -11.8661 -2.5018 0.9489
7.6859 -10.3237 -2.5018 0.9489
8.8770 -9.3193 -2.5018 0.9489
9.9381 -8.1784 -2.5018 0.9489
11.6099 -5.5554 -2.5018 0.9489
12.6036 -2.6080 -2.5018 0.9489
12.7075 2.0421 -2.5018 0.9489
5.5006 2.3360 -1.1616 0.9759
5.2106 3.0023 -1.1689 0.9758
9.6675 7.2560 -2.3496 0.9519
8.7198 8.3710 -2.3496 0.9519
7.0553 8.6417 -2.1685 0.9556
1.7598 8.6742 -1.7204 0.9646
-0.9757 5.9241 -1.1670 0.9758
-2.5035 8.5651 -1.7346 0.9643
-3.6173 8.4264 -1.7825 0.9633
-4.7710 8.2062 -1.8451 0.9621
-6.6024 8.7256 -2.1269 0.9564
-8.4049 8.6872 -2.3496 0.9519
-10.9439 5.1324 -2.3496 0.9519
-11.4997 3.7776 -2.3528 0.9519
-12.6912 -2.1411 -2.5018 0.9489
-12.3396 -3.6589 -2.5018 0.9489
-11.8070 -5.1231 -2.5018 0.9489
-10.2332 -7.8060 -2.5018 0.9489
-8.0617 -10.0330 -2.5018 0.9489
-6.7903 -10.9336 -2.5018 0.9489
-5.4194 -11.6740 -2.5018 0.9489
-3.9691 -12.2433 -2.5018 0.9489
-2.4606 -12.6332 -2.5018 0.9489
-0.9161 -12.8379 -2.5018 0.9489
0.6419 -12.8546 -2.5018 0.9489
2.1905 -12.6828 -2.5018 0.9489
3.7069 -12.3252 -2.5018 0.9489
6.5555 -11.0760 -2.5018 0.9489
7.8458 -10.2027 -2.5018 0.9489
10.9599 -6.7477 -2.5018 0.9489
11.6950 -5.3739 -2.5018 0.9489
12.2586 -3.9214 -2.5018 0.9489
12.8414 -0.8661 -2.5018 0.9489
12.8520 0.6919 -2.5018 0.9489
12.6742 2.2398 -2.5018 0.9489
8.5884 8.5058 -2.3496 0.9519
5.1745 8.4784 -1.9307 0.9603
1.6197 8.6751 -1.7154 0.9647
0.5516 8.6816 -1.6909 0.9652
-0.5017 8.6881 -1.6916 0.9652
-1.0642 5.8880 -1.1630 0.9759
-2.6411 8.5396 -1.7375 0.9642
-3.7694 8.4165 -1.7926 0.9631
-4.9173 8.1626 -1.8523 0.9619
-6.8197 8.7269 -2.1529 0.9559
-10.4360 -2.9184 -2.5018 0.9565
-10.0069 -4.1581 -2.5018 0.9565
-6.9184 -8.3405 -2.5018 0.9565
-4.7155 -9.7567 -2.5018 0.9565
-3.5020 -10.2550 -2.5018 0.9565
-2.2372 -10.6030 -2.5018 0.9565
2.9590 -10.4246 -2.5018 0.9565
6.4712 -8.6921 -2.5018 0.9565
8.3674 -6.8858 -2.5018 0.9565
9.7750 -4.6774 -2.5018 0.9565
10.6116 -2.1959 -2.5018 0.9565
10.7992 -0.8975 -2.5018 0.9565
10.8285 0.4140 -2.5018 0.9565
7.1175 2.0503 -1.7100 0.9701
-0.3660 8.6873 -2.0074 0.9649
-4.0146 9.3519 -2.3496 0.9591
-6.1409 8.1157 -2.3496 0.9591
-7.0765 7.3142 -2.3496 0.9591
-8.6246 5.4030 -2.3496 0.9591
-9.2142 4.3212 -2.3496 0.9591
-10.2952 3.3819 -2.5018 0.9565
-10.8059 0.8134 -2.5018 0.9565
-10.6854 -1.8027 -2.5018 0.9565
-10.3893 -3.0806 -2.5018 0.9565
-8.6159 -6.5723 -2.5018 0.9565
-7.7586 -7.5652 -2.5018 0.9565
-6.7876 -8.4473 -2.5018 0.9565
-5.7172 -9.2056 -2.5018 0.9565
-4.5629 -9.8289 -2.5018 0.9565
-2.0717 -10.6365 -2.5018 0.9565
-0.7713 -10.8089 -2.5018 0.9565
1.8443 -10.6783 -2.5018 0.9565
3.1211 -10.3773 -2.5018 0.9565
4.3521 -9.9241 -2.5018 0.9565
6.6058 -8.5902 -2.5018 0.9565
7.5954 -7.7291 -2.5018 0.9565
9.2278 -5.6813 -2.5018 0.9565
10.6445 -2.0303 -2.5018 0.9565
10.8119 -0.7292 -2.5018 0.9565
10.6711 1.8858 -2.5018 0.9565
5.1678 2.2903 -1.3050 0.9771
8.0434 6.2353 -2.3496 0.9591
7.2310 7.1615 -2.3496 0.9591
1.6197 8.6751 -2.0374 0.9644
-0.5017 8.6881 -2.0092 0.9649
-1.0639 5.8865 -1.3811 0.9757
-4.1598 9.2882 -2.3496 0.9591
-6.2665 8.0191 -2.3496 0.9591
-9.1281 1.9631 -2.5018 0.9621
-9.2984 0.8458 -2.5018 0.9621
-9.3325 -0.2840 -2.5018 0.9621
-9.2298 -1.4096 -2.5018 0.9621
-8.6221 -3.5826 -2.5018 0.9621
-6.7856 -6.4134 -2.5018 0.9621
-5.9609 -7.1863 -2.5018 0.9621
-5.0489 -7.8539 -2.5018 0.9621
-4.0629 -8.4065 -2.5018 0.9621
-1.9276 -9.1357 -2.5018 0.9621
1.4455 -9.2242 -2.5018 0.9621
5.5756 -7.4892 -2.5018 0.9621
8.4222 -4.0301 -2.5018 0.9621
8.8475 -2.9829 -2.5018 0.9621
9.3047 -0.7733 -2.5018 0.9621
9.3300 0.3567 -2.5018 0.9621
9.2185 1.4815 -2.5018 0.9621
7.0092 2.0191 -1.9545 0.9702
5.0576 2.1479 -1.4723 0.9775
4.5417 3.4088 -1.5216 0.9768
6.3257 6.0726 -2.3496 0.9643
4.6842 7.4128 -2.3496 0.9643
1.7434 8.5937 -2.3496 0.9643
0.6922 8.7414 -2.3496 0.9643
-0.3691 8.7610 -2.3496 0.9643
-5.2911 6.9926 -2.3496 0.9643
-9.1576 1.8207 -2.5018 0.9621
-9.3105 0.7008 -2.5018 0.9621
-9.3269 -0.4293 -2.5018 0.9621
-8.9516 -2.6543 -2.5018 0.9621
-8.5652 -3.7165 -2.5018 0.9621
-7.4235 -5.6628 -2.5018 0.9621
-5.8483 -7.2783 -2.5018 0.9621
-3.9315 -8.4687 -2.5018 0.9621
-2.8793 -8.8817 -2.5018 0.9621
-1.7850 -9.1646 -2.5018 0.9621
0.4656 -9.3252 -2.5018 0.9621
3.7498 -8.5507 -2.5018 0.9621
6.5443 -6.6595 -2.5018 0.9621
7.9507 -4.8950 -2.5018 0.9621
9.3156 -0.6283 -2.5018 0.9621
9.3233 0.5020 -2.5018 0.9621
9.1943 1.6248 -2.5018 0.9621
4.9494 2.1935 -1.4506 0.9778
4.4961 2.6848 -1.4032 0.9785
4.5864 3.5554 -1.5549 0.9763
4.5682 7.4849 -2.3496 0.9643
3.6302 7.9820 -2.3496 0.9643
2.6391 8.3622 -2.3496 0.9643
1.6094 8.6198 -2.3496 0.9643
-3.5841 8.0029 -2.3496 0.9643
-4.5249 7.5111 -2.3496 0.9643
-5.3993 6.9093 -2.3496 0.9643
