ply
format ascii 1.0
element vertex 570
property float32 x
property float32 y
property float32 z
property float32 I
end_header
40.4909 19.9734 12.0977 0.8295
8.7610 5.7237 2.8041 0.9576
33.1699 27.8902 11.6122 0.8357
33.2788 45.5693 15.1196 0.7916
-10.1343 29.3214 8.3127 0.8794
-19.3103 23.2024 8.0885 0.8825
-24.0971 22.7318 8.8764 0.8718
-40.0604 -8.4252 10.9690 0.8441
-50.0000 -24.0403 14.8656 0.7947
-8.0549 -28.0622 7.8229 0.8861
-6.5796 -41.0107 11.1293 0.8420
40.9395 19.1781 12.1137 0.8293
33.7280 21.0769 10.6569 0.8481
33.7117 34.6705 12.9575 0.8185
33.2671 43.6759 14.7111 0.7966
1.7049 5.7213 1.5996 0.9756
40.9062 20.1783 10.5304 0.8292
8.7609 5.7237 2.4160 0.9579
33.1699 27.8902 10.0052 0.8370
33.2172 35.5699 11.2359 0.8189
-10.0285 46.5180 10.9863 0.8225
-10.1343 29.3215 7.1623 0.8804
-12.5412 25.7505 6.6125 0.8891
-14.9325 23.1102 6.3523 0.8932
-19.3103 23.2024 6.9692 0.8834
-56.6871 53.4754 17.9915 0.7262
-39.8357 -8.3780 9.3980 0.8461
-51.3805 -24.7040 13.1620 0.7913
-8.2541 -28.7563 6.9070 0.8844
28.8852 -45.7087 12.4832 0.8009
58.3122 -33.8107 15.5617 0.7583
59.8130 -25.6424 15.0244 0.7656
93.9554 18.7725 22.1200 0.6748
43.0465 20.1652 10.9745 0.8227
33.1630 26.7615 9.8382 0.8395
33.2671 43.6759 12.6752 0.7982
33.3482 56.8521 15.2168 0.7629
1.7047 5.7206 1.3781 0.9758
26.1862 -39.6440 9.2353 0.8240
48.6303 -44.9568 12.8732 0.7635
58.9187 -32.5927 13.0882 0.7600
60.7017 -24.5863 12.7303 0.7658
55.7583 19.5869 11.4876 0.7860
40.9063 20.1783 8.8661 0.8304
33.6335 21.9733 7.8093 0.8490
33.2172 35.5699 9.4602 0.8201
4.8451 8.6553 1.9281 0.9604
3.5598 8.6632 1.8206 0.9626
1.3025 8.6770 1.7055 0.9649
-0.8008 8.6900 1.6963 0.9651
-1.8748 8.6966 1.7293 0.9644
-56.6871 53.4753 15.1480 0.7279
-19.0020 -33.1563 7.4283 0.8558
-9.6675 -33.6801 6.8111 0.8669
30.1877 -90.2802 18.5038 0.6785
25.5020 -40.3550 9.2793 0.8232
58.1039 -33.6899 13.0555 0.7606
43.0466 20.1652 9.2400 0.8239
34.1680 27.5725 8.5344 0.8362
33.7117 34.6705 9.4000 0.8211
33.9476 44.5693 10.8903 0.7959
3.7652 8.6619 1.8359 0.9622
1.4818 8.6759 1.7108 0.9648
28.5783 -80.0609 13.4641 0.7087
47.5260 -43.9360 10.2512 0.7694
58.6114 -42.3518 11.4530 0.7461
61.8299 -25.0432 10.5657 0.7633
62.5595 13.8172 10.1472 0.7715
6.3142 8.6462 1.6957 0.9576
3.5598 8.6632 1.4834 0.9628
2.3943 8.6703 1.4246 0.9642
1.3025 8.6770 1.3897 0.9651
-0.8008 8.6900 1.3822 0.9653
-1.8748 8.6966 1.4090 0.9646
-66.2528 -31.8547 11.6433 0.7425
-81.5191 -52.0925 15.3224 0.6758
-25.0679 -33.6091 6.6408 0.8438
-13.3589 -31.5998 5.4338 0.8703
-3.2224 -83.3582 13.2125 0.7133
30.1877 -90.2803 15.0772 0.6801
34.3760 -42.1622 8.6161 0.8023
43.0466 20.1652 7.5289 0.8249
34.1680 27.5725 6.9540 0.8371
6.5657 8.6201 1.7162 0.9571
5.0761 8.6538 1.5890 0.9602
3.7652 8.6619 1.4959 0.9625
1.7044 5.7196 0.9453 0.9761
1.4818 8.6759 1.3940 0.9650
23.2496 -46.5395 6.3877 0.8109
26.4693 -40.0725 5.8968 0.8240
58.6114 -42.3518 8.8787 0.7472
58.3786 -32.2939 8.1916 0.7642
63.1574 6.1412 7.7913 0.7744
62.1672 13.7305 7.8171 0.7737
40.9063 20.1784 5.6005 0.8321
10.2542 8.6220 1.6450 0.9474
6.3142 8.6462 1.3146 0.9578
4.8451 8.6553 1.2179 0.9608
3.5598 8.6632 1.1500 0.9630
2.3943 8.6703 1.1044 0.9644
0.2480 8.6835 1.0666 0.9656
-1.8748 8.6966 1.0923 0.9648
-4.2426 8.7111 1.1897 0.9617
-5.6342 8.7197 1.2747 0.9590
-11.8664 8.7580 1.8109 0.9423
-51.8119 -24.9115 7.0588 0.7932
-24.1894 -32.4313 4.9677 0.8495
-9.6675 -33.6801 4.3024 0.8683
-5.4077 -33.7062 4.1915 0.8715
21.1300 -44.5205 6.0509 0.8199
55.9968 -42.2072 8.6099 0.7538
58.4705 -25.0668 7.8112 0.7738
65.3809 -10.8279 8.1371 0.7656
63.1352 12.6146 7.9052 0.7715
33.6277 21.0142 4.8689 0.8523
10.6812 8.6194 1.6852 0.9462
1.7044 5.7195 0.7328 0.9762
1.4818 8.6759 1.0807 0.9652
26.0839 -39.4891 4.1405 0.8269
35.8230 -42.1709 4.8410 0.8008
45.5834 -42.1401 5.4311 0.7794
58.8769 -32.5695 5.8867 0.7633
62.8177 -17.0069 5.6937 0.7700
62.8662 -9.1128 5.5576 0.7749
62.2211 13.7424 5.5748 0.7743
55.7584 19.5870 5.1705 0.7888
8.0643 8.6355 1.0337 0.9537
4.8451 8.6553 0.8678 0.9610
2.3943 8.6703 0.7869 0.9645
1.3025 8.6770 0.7676 0.9654
0.2480 8.6835 0.7600 0.9657
-0.8008 8.6900 0.7635 0.9656
-54.3387 51.2599 6.5355 0.7409
-11.8664 8.7580 1.2903 0.9425
-15.5013 8.7803 1.5586 0.9310
-51.5832 -24.8015 5.0075 0.7947
-19.0020 -33.1563 3.3434 0.8577
-13.3589 -31.5998 3.0015 0.8713
-3.2555 -84.2150 7.3734 0.7129
20.7999 -43.8250 4.2441 0.8230
25.1007 -39.7199 4.1108 0.8281
42.4959 -40.9058 5.1605 0.7891
55.6727 -41.9629 6.0994 0.7558
58.5703 -25.1096 5.5753 0.7742
62.8093 -18.3720 5.7254 0.7689
62.9520 4.8419 5.5239 0.7761
62.9997 12.5875 5.6207 0.7726
58.7432 19.3137 5.4100 0.7801
13.7627 8.6004 1.4199 0.9369
6.5657 8.6201 0.9480 0.9574
1.4818 8.6759 0.7700 0.9653
31.2135 -87.4435 4.8659 0.6894
27.4633 -41.5774 2.6114 0.8191
35.8228 -42.1708 2.8998 0.8012
45.5833 -42.1400 3.2533 0.7799
33.6238 -24.2961 2.1740 0.8469
61.8300 -25.0433 3.4961 0.7655
67.8897 -9.8410 3.5951 0.7597
67.7815 6.5908 3.5690 0.7613
62.5595 13.8172 3.3576 0.7737
55.7585 19.5870 3.0972 0.7892
33.2967 16.4247 1.9458 0.8618
13.1699 8.6041 0.8244 0.9389
4.8451 8.6553 0.5198 0.9610
3.5598 8.6632 0.4909 0.9632
-1.8713 8.6802 0.4654 0.9651
-3.0068 8.6995 0.4824 0.9638
-5.6342 8.7197 0.5441 0.9593
-7.2653 8.7297 0.5952 0.9555
-52.5609 49.5829 3.7868 0.7487
-39.5438 -8.3166 2.1177 0.8506
-13.8736 -24.2079 1.4623 0.8943
-8.5802 -29.8920 1.6298 0.8829
-5.3593 -33.4048 1.7731 0.8733
33.0403 -24.9039 2.1684 0.8473
58.5185 -33.9303 3.5451 0.7627
58.5703 -25.1096 3.3397 0.7747
67.8990 -11.2449 3.6069 0.7591
67.8442 -2.9653 3.5590 0.7618
67.7905 5.2141 3.5632 0.7616
67.7078 13.5282 3.6185 0.7584
13.7627 8.6004 0.8505 0.9371
10.6812 8.6194 0.7193 0.9465
8.3947 8.6334 0.6311 0.9529
6.5657 8.6201 0.5679 0.9575
1.7043 5.7194 0.3128 0.9764
1.4798 8.6643 0.4607 0.9654
43.7202 -87.5161 1.7076 0.6761
33.2840 -39.1820 0.8974 0.8141
33.0017 -30.5088 0.7845 0.8354
33.6238 -24.2961 0.7241 0.8471
44.0364 -24.3601 0.8784 0.8176
61.3401 13.5478 1.0965 0.7778
33.2967 16.4247 0.6481 0.8620
13.8982 9.0799 0.2898 0.9357
6.3102 8.6407 0.1868 0.9581
3.5430 8.6222 0.1627 0.9634
2.3943 8.6703 0.1570 0.9647
1.3025 8.6770 0.1532 0.9655
0.2480 8.6835 0.1516 0.9658
-4.2229 8.6707 0.1683 0.9622
-5.6342 8.7197 0.1812 0.9593
-7.2653 8.7297 0.1982 0.9556
-11.8664 8.7580 0.2574 0.9427
-74.8728 -6.5189 1.3118 0.7403
-39.5258 -8.3128 0.7050 0.8508
-51.4027 -24.7147 0.9956 0.7960
-66.0817 -69.3468 1.6720 0.6817
-23.2556 -31.1793 0.6789 0.8559
-8.9578 -31.2076 0.5667 0.8782
-2.5735 -66.5725 1.1629 0.7660
30.1878 -90.2803 1.6616 0.6833
41.5301 -87.5030 1.6907 0.6788
32.9795 -31.7455 0.7990 0.8327
41.9914 -24.3475 0.8473 0.8235
58.4705 -25.0668 1.1104 0.7753
84.5563 -24.7330 1.5378 0.7030
95.0981 7.3144 1.6648 0.6828
49.5225 9.8947 0.8815 0.8171
25.8997 8.5153 0.4759 0.8967
43.0466 20.1652 0.8297 0.8268
14.0930 8.8068 0.2901 0.9357
10.6812 8.6194 0.2396 0.9466
5.0647 8.6344 0.1747 0.9607
1.7043 5.7194 0.1042 0.9764
1.4818 8.6759 0.1536 0.9654
39.7648 -79.5985 -1.5531 0.7005
24.2031 -36.6417 -0.7665 0.8389
33.0058 -30.5126 -0.7846 0.8354
50.4217 -20.4225 -0.9496 0.8044
48.4261 -13.1106 -0.8757 0.8182
96.1957 9.3537 -1.6870 0.6793
62.5595 13.8172 -1.1183 0.7739
13.8982 9.0799 -0.2898 0.9357
10.2542 8.6220 -0.2338 0.9478
8.0643 8.6355 -0.2062 0.9538
3.5251 8.5786 -0.1619 0.9636
1.3025 8.6770 -0.1532 0.9655
-2.9937 8.6616 -0.1600 0.9640
-4.2008 8.6253 -0.1675 0.9623
-5.6342 8.7197 -0.1812 0.9593
-7.2653 8.7297 -0.1982 0.9556
-29.0094 27.3658 -0.6961 0.8525
-20.8654 8.6972 -0.3946 0.9135
-28.9507 8.1522 -0.5250 0.8866
-88.4996 2.9743 -1.5456 0.7017
-39.5079 -8.3090 -0.7047 0.8509
-51.3131 -24.6716 -0.9938 0.7963
-61.8197 -39.5041 -1.2806 0.7456
-3.4248 -21.3467 -0.3774 0.9171
30.0994 -90.0161 -1.6567 0.6841
23.1352 -36.6097 -0.7559 0.8409
31.7602 -38.9538 -0.8773 0.8179
32.9981 -31.7634 -0.7995 0.8326
33.0403 -24.9039 -0.7222 0.8474
41.9913 -24.3475 -0.8473 0.8235
58.5703 -25.1096 -1.1123 0.7750
85.2546 -24.9373 -1.5505 0.7009
89.1144 -14.7584 -1.5766 0.6967
68.0082 13.5882 -1.2105 0.7577
25.5543 8.4018 -0.4695 0.8980
39.3404 18.4290 -0.7583 0.8405
14.0930 8.8068 -0.2901 0.9357
10.6812 8.6194 -0.2396 0.9466
8.3947 8.6334 -0.2102 0.9530
6.5657 8.6201 -0.1891 0.9576
1.7043 5.7193 -0.1042 0.9764
1.4818 8.6759 -0.1536 0.9654
24.7095 -37.4083 -2.3496 0.8356
29.0251 -34.1685 -2.3496 0.8356
39.2300 -21.7013 -2.3496 0.8356
41.5533 -16.8305 -2.3496 0.8356
47.7233 -1.1222 -2.5018 0.8260
46.7488 4.5457 -2.4616 0.8285
28.1079 9.8738 -1.5613 0.8875
13.8982 9.0799 -0.8700 0.9357
10.2542 8.6220 -0.7021 0.9478
8.0643 8.6355 -0.6192 0.9538
4.8084 8.5898 -0.5159 0.9613
3.5111 8.5446 -0.4841 0.9637
1.3025 8.6770 -0.4598 0.9655
-0.8008 8.6900 -0.4574 0.9656
-2.9863 8.6402 -0.4791 0.9640
-4.1887 8.6006 -0.5014 0.9624
-5.6342 8.7197 -0.5441 0.9593
-7.2653 8.7297 -0.5952 0.9555
-18.2179 17.1857 -1.3125 0.9046
-20.6244 8.5967 -1.1710 0.9144
-25.5819 7.2036 -1.3928 0.8990
-38.7164 -8.1425 -2.0734 0.8534
-42.4462 -14.4314 -2.3496 0.8356
-36.8451 -30.3515 -2.5018 0.8260
-30.9280 -32.4562 -2.3496 0.8356
-11.3476 -19.8003 -1.1960 0.9126
-8.0759 -19.1033 -1.0869 0.9203
-0.8672 -22.4312 -1.1764 0.9140
23.1352 -36.6097 -2.2696 0.8407
28.3301 -34.7469 -2.3496 0.8356
32.9359 -24.8252 -2.1615 0.8477
38.7844 -22.4880 -2.3496 0.8356
41.2054 -17.6651 -2.3496 0.8356
41.5864 -12.1642 -2.2708 0.8407
43.9634 8.7840 -2.3496 0.8356
6.5657 8.6201 -0.5679 0.9575
5.0376 8.5880 -0.5218 0.9609
1.7043 5.7193 -0.3128 0.9764
1.4818 8.6759 -0.4613 0.9654
6.3078 -27.8909 -2.5018 0.8915
9.6132 -26.9310 -2.5018 0.8915
20.9974 -19.4113 -2.5018 0.8915
25.0220 -13.8417 -2.5018 0.8915
26.5038 -10.7350 -2.5018 0.8915
28.2995 -4.1022 -2.5018 0.8915
28.5874 -0.6722 -2.5018 0.8915
28.4610 2.7675 -2.5018 0.8915
26.2236 5.7919 -2.3496 0.8978
24.1297 11.9027 -2.3539 0.8976
10.2542 8.6220 -1.1721 0.9476
8.0643 8.6355 -1.0337 0.9537
4.7972 8.5697 -0.8592 0.9613
3.5021 8.5226 -0.8061 0.9637
2.3943 8.6703 -0.7869 0.9645
1.3025 8.6770 -0.7676 0.9654
-2.9804 8.6232 -0.7982 0.9640
-4.1781 8.5788 -0.8348 0.9624
-7.2653 8.7297 -0.9937 0.9554
-18.9195 17.8476 -2.2755 0.9008
-11.8664 8.7580 -1.2903 0.9425
-15.1104 8.5589 -1.5193 0.9326
-20.0139 8.3422 -1.8970 0.9166
-25.8490 7.2788 -2.3494 0.8978
-26.8405 0.9021 -2.3496 0.8978
-28.0931 -2.4460 -2.4671 0.8929
-27.9831 -5.8852 -2.5018 0.8915
-25.7712 -12.3909 -2.5018 0.8915
-24.0957 -15.3976 -2.5018 0.8915
-18.5266 -19.4420 -2.3496 0.8978
-8.0787 -19.1098 -1.8151 0.9201
-3.3152 -20.6636 -1.8309 0.9194
5.7440 -28.0124 -2.5018 0.8915
12.2608 -25.8334 -2.5018 0.8915
24.7377 -14.3435 -2.5018 0.8915
28.2110 -4.6721 -2.5018 0.8915
28.5680 -1.2487 -2.5018 0.8915
28.5111 2.1929 -2.5018 0.8915
25.5121 8.3879 -2.3496 0.8978
14.0930 8.8068 -1.4539 0.9355
10.6812 8.6194 -1.2008 0.9464
5.0333 8.5808 -0.8703 0.9608
4.4945 -19.8733 -2.5018 0.9212
9.1058 -18.2273 -2.5018 0.9212
11.2299 -17.0012 -2.5018 0.9212
13.1912 -15.5287 -2.5018 0.9212
18.8850 -7.6491 -2.5018 0.9212
19.6672 -5.3246 -2.5018 0.9212
20.1645 -2.9230 -2.5018 0.9212
20.2796 1.9719 -2.5018 0.9212
17.1613 8.4654 -2.3496 0.9258
13.8982 9.0799 -2.0384 0.9353
10.2542 8.6220 -1.6450 0.9474
6.2980 8.6240 -1.3112 0.9579
4.7723 8.5252 -1.1996 0.9614
2.3943 8.6703 -1.1044 0.9644
1.3025 8.6770 -1.0773 0.9653
-1.8672 8.6612 -1.0879 0.9649
-4.1550 8.5313 -1.1651 0.9625
-13.9978 13.2047 -2.3628 0.9254
-11.8664 8.7580 -1.8109 0.9423
-17.6627 7.3622 -2.3496 0.9258
-18.4193 5.1867 -2.3496 0.9258
-20.3638 0.6844 -2.5018 0.9212
-18.3630 -8.8290 -2.5018 0.9212
-11.8088 -15.8323 -2.4251 0.9235
-9.5149 -16.6024 -2.3496 0.9258
-5.2795 -18.3929 -2.3496 0.9258
-0.7392 -19.1214 -2.3496 0.9258
1.5637 -19.0717 -2.3496 0.9258
4.0928 -19.9599 -2.5018 0.9212
6.4614 -19.3236 -2.5018 0.9212
8.7363 -18.4073 -2.5018 0.9212
10.8847 -17.2242 -2.5018 0.9212
12.8754 -15.7916 -2.5018 0.9212
20.3152 1.5625 -2.5018 0.9212
17.3286 8.1176 -2.3496 0.9258
14.0930 8.8068 -2.0405 0.9352
10.6812 8.6194 -1.6852 0.9462
6.5657 8.6201 -1.3305 0.9573
3.6896 8.4878 -1.1364 0.9634
1.7043 5.7192 -0.7327 0.9762
1.4818 8.6759 -1.0807 0.9652
8.7057 -13.1798 -2.5018 0.9380
10.2262 -12.0384 -2.5018 0.9380
12.8029 -9.2512 -2.5018 0.9380
13.8217 -7.6459 -2.5018 0.9380
14.6402 -5.9298 -2.5018 0.9380
15.2466 -4.1278 -2.5018 0.9380
15.7911 -0.3713 -2.5018 0.9380
15.7214 1.5287 -2.5018 0.9380
9.4069 2.0776 -1.5258 0.9617
7.6504 2.6875 -1.2843 0.9677
13.3040 6.5626 -2.3496 0.9417
6.2980 8.6240 -1.6914 0.9577
1.3025 8.6770 -1.3897 0.9651
0.2480 8.6835 -1.3759 0.9654
-0.8008 8.6900 -1.3822 0.9653
-4.1177 8.4548 -1.4895 0.9626
-7.2653 8.7297 -1.7988 0.9550
-11.9358 8.8092 -2.3496 0.9417
-13.6927 5.7074 -2.3496 0.9417
-15.5958 2.4215 -2.4997 0.9381
-14.2355 -6.8445 -2.5018 0.9380
-12.1917 -10.0430 -2.5018 0.9380
-10.8967 -11.4351 -2.5018 0.9380
-9.4438 -12.6615 -2.5018 0.9380
-7.8541 -13.7044 -2.5018 0.9380
-6.1351 -14.5122 -2.4955 0.9382
-0.6088 -15.7497 -2.4964 0.9382
1.2907 -15.7427 -2.5018 0.9380
3.1729 -15.4735 -2.5018 0.9380
5.0091 -14.9802 -2.5018 0.9380
6.7727 -14.2699 -2.5018 0.9380
12.6137 -9.5075 -2.5018 0.9380
13.6647 -7.9231 -2.5018 0.9380
15.7490 1.2113 -2.5018 0.9380
7.7197 2.5381 -1.2871 0.9676
12.5802 7.8615 -2.3496 0.9417
10.6812 8.6194 -2.1739 0.9459
4.9561 8.4492 -1.5515 0.9611
3.6557 8.4099 -1.4524 0.9635
1.4818 8.6759 -1.3940 0.9650
4.3268 -12.1214 -2.5018 0.9489
5.7519 -11.5137 -2.5018 0.9489
7.0936 -10.7392 -2.5018 0.9489
8.3325 -9.8091 -2.5018 0.9489
11.9291 -4.8317 -2.5018 0.9489
12.7373 -1.8464 -2.5018 0.9489
12.8100 1.2456 -2.5018 0.9489
9.0592 2.0009 -1.8034 0.9629
10.1193 6.6111 -2.3496 0.9519
8.2500 8.8343 -2.3496 0.9519
2.3943 8.6703 -1.7484 0.9640
-2.9216 8.4529 -1.7385 0.9642
-5.1721 8.0046 -1.8525 0.9619
-7.2653 8.7297 -2.2077 0.9548
-8.7926 8.2944 -2.3496 0.9519
-9.7255 7.1779 -2.3496 0.9519
-10.5175 5.9573 -2.3496 0.9519
-12.3547 3.4790 -2.4949 0.9490
-12.7181 1.9747 -2.5018 0.9489
-12.8220 -1.1164 -2.5018 0.9489
-11.5994 -5.5771 -2.5018 0.9489
-10.8452 -6.9303 -2.5018 0.9489
-9.9340 -8.1832 -2.5018 0.9489
-7.6950 -10.3168 -2.5018 0.9489
-5.0116 -11.8547 -2.5018 0.9489
-3.5509 -12.3709 -2.5018 0.9489
-2.0388 -12.7080 -2.5018 0.9489
-0.4972 -12.8609 -2.5018 0.9489
8.1330 -9.9751 -2.5018 0.9489
11.8292 -5.0713 -2.5018 0.9489
12.3529 -3.6133 -2.5018 0.9489
12.6975 -2.1029 -2.5018 0.9489
10.0876 2.0155 -1.9996 0.9589
7.3604 2.4200 -1.5061 0.9689
10.2506 6.4057 -2.3496 0.9519
9.4067 7.5909 -2.3496 0.9519
6.5657 8.6201 -2.1063 0.9568
4.9075 8.3663 -1.8854 0.9612
3.5880 8.2542 -1.7495 0.9640
1.6997 5.7042 -1.1570 0.9760
2.3904 -10.5694 -2.5018 0.9565
3.6430 -10.2056 -2.5018 0.9565
8.7833 -6.3467 -2.5018 0.9565
9.4822 -5.2454 -2.5018 0.9565
10.0437 -4.0681 -2.5018 0.9565
10.8333 -0.2547 -2.5018 0.9565
7.2559 2.5489 -1.7755 0.9689
8.5200 5.5662 -2.3496 0.9591
7.7895 6.5496 -2.3496 0.9591
6.9461 7.4381 -2.3496 0.9591
6.0021 8.2188 -2.3496 0.9591
4.9711 8.8804 -2.3496 0.9591
3.8681 9.4133 -2.3496 0.9591
2.3943 8.6703 -2.0766 0.9637
1.3025 8.6770 -2.0257 0.9646
0.2480 8.6835 -2.0056 0.9650
-0.8008 8.6900 -2.0147 0.9648
-5.5232 8.5479 -2.3496 0.9591
-6.5102 7.8224 -2.3496 0.9591
-7.4029 6.9835 -2.3496 0.9591
-8.8552 5.0158 -2.3496 0.9591
-9.6248 4.0118 -2.4074 0.9581
-10.7080 1.6626 -2.5018 0.9565
-10.8302 0.3640 -2.5018 0.9565
-10.7955 -0.9399 -2.5018 0.9565
-10.2596 -3.4882 -2.5018 0.9565
-9.7661 -4.6956 -2.5018 0.9565
-9.1312 -5.8350 -2.5018 0.9565
-7.4551 -7.8234 -2.4949 0.9566
-5.3882 -9.4018 -2.5018 0.9565
-4.2195 -9.9811 -2.5018 0.9565
-2.9897 -10.4158 -2.5018 0.9565
-1.7166 -10.6995 -2.5018 0.9565
-0.4186 -10.8282 -2.5018 0.9565
3.4364 -10.2770 -2.5018 0.9565
4.6463 -9.7897 -2.5018 0.9565
5.7889 -9.1605 -2.5018 0.9565
6.8476 -8.3986 -2.5018 0.9565
9.3745 -5.4355 -2.5018 0.9565
9.9597 -4.2698 -2.5018 0.9565
10.6263 2.1232 -2.5018 0.9565
7.3044 2.4015 -1.7751 0.9689
8.6305 5.3933 -2.3496 0.9591
7.9200 6.3912 -2.3496 0.9591
7.0947 7.2965 -2.3496 0.9591
6.1666 8.0961 -2.3496 0.9591
5.1492 8.7783 -2.3496 0.9591
1.7042 5.7191 -1.3777 0.9758
1.4818 8.6759 -2.0320 0.9645
2.0596 -9.1067 -2.5018 0.9621
4.1726 -8.3525 -2.5018 0.9621
5.1459 -7.7906 -2.5018 0.9621
7.5678 -5.4683 -2.5018 0.9621
8.1700 -4.5195 -2.5018 0.9621
8.6538 -3.5051 -2.5018 0.9621
9.2401 -1.3394 -2.5018 0.9621
9.3341 -0.2195 -2.5018 0.9621
9.2929 0.9036 -2.5018 0.9621
9.1170 2.0136 -2.5018 0.9621
7.2671 2.5528 -2.0639 0.9686
7.4080 3.6542 -2.2133 0.9664
7.3409 4.7959 -2.3496 0.9643
6.7115 5.6432 -2.3496 0.9643
5.1715 7.0814 -2.3496 0.9643
4.2831 7.6514 -2.3496 0.9643
1.5929 5.7683 -1.6035 0.9755
-0.8046 8.7317 -2.3496 0.9643
-1.8479 8.5718 -2.3496 0.9643
-2.8644 8.2876 -2.3496 0.9643
-4.7589 7.3650 -2.3496 0.9643
-5.6093 6.7398 -2.3496 0.9643
-7.6298 4.3217 -2.3496 0.9643
-8.6180 3.5922 -2.5018 0.9621
-9.2262 1.4325 -2.5018 0.9621
-9.3314 0.3136 -2.5018 0.9621
-9.3015 -0.8098 -2.5018 0.9621
-9.1368 -1.9216 -2.5018 0.9621
-8.8398 -3.0055 -2.5018 0.9621
-8.4146 -4.0458 -2.5018 0.9621
-7.8675 -5.0275 -2.5018 0.9621
-7.2065 -5.9364 -2.5018 0.9621
-5.5822 -7.4842 -2.5018 0.9621
-4.6425 -8.1007 -2.5018 0.9621
-1.4790 -9.2188 -2.5018 0.9621
0.7629 -9.3055 -2.5018 0.9621
1.8755 -9.1464 -2.5018 0.9621
4.0033 -8.4349 -2.5018 0.9621
4.9878 -7.8928 -2.5018 0.9621
5.9000 -7.2363 -2.5018 0.9621
6.7267 -6.4750 -2.5018 0.9621
7.4559 -5.6199 -2.5018 0.9621
9.3092 0.7160 -2.5018 0.9621
7.3068 2.4023 -2.0609 0.9687
7.3278 3.4327 -2.1682 0.9670
6.8239 5.5067 -2.3496 0.9643
6.1129 6.2867 -2.3496 0.9643
5.3132 6.9756 -2.3496 0.9643
3.4957 8.0418 -2.3496 0.9643
1.7029 5.7147 -1.5978 0.9756
1.4763 8.6435 -2.3496 0.9643
