ply
format ascii 1.0
element vertex 578
property float32 x
property float32 y
property float32 z
property float32 I
end_header
55.1287 19.5908 15.6767 0.7848
40.2620 20.0500 12.0519 0.8301
32.4289 58.5501 17.9341 0.7579
-19.5483 23.2038 8.1297 0.8819
-24.3978 22.7337 8.9355 0.8710
-41.0471 -8.9475 11.2568 0.8403
-52.1526 -25.5669 15.5631 0.7862
-29.0354 -39.6035 13.1582 0.8160
-18.9052 -33.6367 10.3389 0.8523
40.6630 19.6209 12.0977 0.8295
8.9441 5.7349 2.8469 0.9570
31.2273 25.8125 10.8558 0.8455
32.2777 33.9975 12.5613 0.8235
32.4184 56.8473 17.5349 0.7626
10.4055 24.7713 7.1989 0.8947
27.9468 -42.1260 11.6711 0.8126
56.5065 -31.0673 14.8872 0.7674
55.1287 19.5908 13.5072 0.7865
31.2314 26.4781 9.4529 0.8453
31.3350 43.3037 12.3403 0.8030
-13.4030 27.1260 6.9853 0.8832
-15.9352 24.3483 6.7181 0.8874
-19.5483 23.2038 7.0047 0.8829
-63.9175 -13.9326 15.1030 0.7645
-61.4074 -21.3918 15.0126 0.7657
-29.0354 -39.6035 11.3373 0.8174
-17.7648 -31.6078 8.3708 0.8617
-12.5981 -30.5222 7.6233 0.8732
-8.3203 -29.9632 7.1793 0.8802
-6.1269 -40.4662 9.4488 0.8453
56.4656 -31.9679 14.9803 0.7662
92.7558 19.6140 21.8879 0.6776
41.4919 20.0208 10.6360 0.8277
31.2273 25.8125 9.3535 0.8468
10.4043 24.7684 6.2022 0.8956
36.5403 -42.8286 10.9433 0.7950
59.4292 -42.7220 14.2270 0.7421
56.5063 -31.0671 12.5343 0.7689
27.1661 2.7330 5.3072 0.8947
55.1287 19.5908 11.3724 0.7879
32.0074 34.5658 9.1571 0.8253
32.2240 44.5322 10.6847 0.7993
3.5128 8.6634 1.8172 0.9626
2.3496 8.6706 1.7462 0.9641
1.2585 8.6773 1.7043 0.9649
-0.8469 8.6902 1.6972 0.9650
-1.9241 8.6969 1.7314 0.9644
-59.8855 -13.0537 11.9139 0.7790
-24.5361 -33.4666 8.0663 0.8444
-18.9052 -33.6367 7.5003 0.8545
26.8965 -55.3003 11.9533 0.7783
27.0973 -41.9722 9.7111 0.8158
57.5744 -42.4873 13.9087 0.7471
59.0197 -24.5760 12.4271 0.7707
27.1349 2.3885 5.2949 0.8949
56.8139 19.3953 11.6693 0.7830
32.2325 26.6433 8.1287 0.8433
0.3120 8.6831 1.6889 0.9652
26.6084 -40.1086 7.6234 0.8229
46.7123 -42.9853 10.0543 0.7733
56.9548 -31.3137 10.2943 0.7686
61.2436 -24.6106 10.4540 0.7654
55.1287 19.5908 9.2665 0.7890
40.5246 20.1807 7.1703 0.8325
7.9967 8.6359 1.8641 0.9535
6.2568 8.6466 1.6904 0.9577
0.2036 8.6838 1.3758 0.9654
-0.8469 8.6902 1.3829 0.9653
-3.0625 8.7039 1.4614 0.9633
-5.7070 8.7201 1.6506 0.9587
-57.5348 53.6105 12.4555 0.7273
-81.7399 45.6065 14.8251 0.6845
-67.4249 -33.0539 11.8933 0.7378
-17.7648 -31.6078 5.7427 0.8634
-13.0558 -31.6314 5.4199 0.8706
-4.9385 -32.6169 5.2249 0.8749
18.4568 -53.5185 8.9664 0.7951
24.9239 -38.6057 7.2781 0.8302
46.5002 -43.8732 10.1256 0.7719
60.1166 -25.0327 10.3140 0.7682
56.8139 19.3953 9.5084 0.7842
8.1979 8.6346 1.8858 0.9529
4.9355 8.6547 1.5780 0.9605
2.4658 8.6699 1.4276 0.9642
-0.7376 8.6896 1.3812 0.9653
26.1823 -39.4663 5.8152 0.8262
35.9801 -42.1719 6.8066 0.7998
61.0454 -16.3380 7.7592 0.7752
63.8619 -9.0593 7.9198 0.7711
61.0385 -1.2409 7.4961 0.7819
55.4053 19.6891 7.2197 0.7890
40.5246 20.1807 5.5586 0.8332
31.6971 20.8862 4.6609 0.8581
7.9967 8.6359 1.4451 0.9537
4.7940 8.6556 1.2149 0.9609
3.5128 8.6634 1.1479 0.9630
0.2036 8.6838 1.0665 0.9656
-0.8469 8.6902 1.0721 0.9654
-5.7070 8.7201 1.2796 0.9589
-9.3827 8.7427 1.5747 0.9496
-83.9134 46.8191 11.7985 0.6789
-29.5689 -31.5356 5.3079 0.8401
-23.9222 -32.6292 4.9677 0.8495
-18.9052 -33.6368 4.7377 0.8560
-9.3529 -33.6820 4.2921 0.8686
26.6481 -77.2704 10.0360 0.7194
25.6003 -39.6535 5.7953 0.8268
44.8201 -42.2880 7.5661 0.7801
57.2424 -42.2423 8.7351 0.7507
63.4080 -17.8204 8.0871 0.7669
61.0792 5.3764 7.5286 0.7811
27.3154 5.7761 3.4280 0.8936
56.8139 19.3953 7.3712 0.7851
31.6936 20.3217 4.6227 0.8592
10.4294 8.6209 1.6614 0.9469
6.4218 8.6456 1.3223 0.9575
4.9355 8.6547 1.2233 0.9606
1.3691 8.6766 1.0785 0.9652
0.3120 8.6831 1.0668 0.9656
-0.7376 8.6896 1.0708 0.9655
-2.9408 8.7031 1.1280 0.9637
44.4734 -40.9251 5.2876 0.7845
60.8922 -16.2970 5.5149 0.7764
60.9849 -1.2398 5.3366 0.7828
60.3685 13.5538 5.4130 0.7800
55.1289 19.5908 5.1186 0.7906
40.5246 20.1807 3.9607 0.8338
31.7975 20.9523 3.3316 0.8582
7.9967 8.6359 1.0297 0.9538
4.7940 8.6556 0.8657 0.9610
2.3496 8.6706 0.7859 0.9646
1.2585 8.6773 0.7671 0.9654
0.2036 8.6838 0.7599 0.9657
-0.8469 8.6902 0.7639 0.9655
-1.9241 8.6969 0.7793 0.9649
-7.3390 8.7114 0.9966 0.9553
-9.3827 8.7427 1.1220 0.9498
-24.6424 -33.6116 3.6463 0.8459
-18.9052 -33.6368 3.3758 0.8565
-4.9385 -32.6170 2.8861 0.8759
20.2615 -41.6585 4.0529 0.8303
35.0614 -42.1483 4.7966 0.8024
55.5495 -40.9931 6.0400 0.7579
56.9491 -32.2416 5.7255 0.7689
60.1166 -25.0327 5.6973 0.7699
60.8872 -17.1119 5.5333 0.7757
60.9346 -9.4204 5.3944 0.7807
31.6936 20.3217 3.2939 0.8597
10.4294 8.6209 1.1838 0.9471
8.1979 8.6346 1.0417 0.9533
4.9355 8.6547 0.8717 0.9608
3.6389 8.6627 0.8220 0.9630
2.4658 8.6699 0.7886 0.9645
1.3691 8.6766 0.7685 0.9653
-1.8106 8.6962 0.7771 0.9650
-2.9408 8.7031 0.8037 0.9638
27.9111 -42.0722 2.6460 0.8169
35.9799 -42.1717 2.9052 0.8009
56.9548 -31.3137 3.4063 0.7708
49.5980 -19.9308 2.8013 0.8073
66.0112 -17.6671 3.5813 0.7606
65.9557 -9.3563 3.4912 0.7658
65.9027 -1.3398 3.4545 0.7680
60.7787 13.6459 3.2646 0.7792
24.0243 8.5374 1.3362 0.9029
40.5246 20.1807 2.3726 0.8342
31.6971 20.8862 1.9894 0.8589
4.7940 8.6556 0.5185 0.9611
2.3451 8.6541 0.4699 0.9647
0.2035 8.6779 0.4549 0.9658
-0.8461 8.6821 0.4572 0.9657
-4.3044 8.7115 0.5092 0.9618
-7.3390 8.7114 0.5970 0.9554
-9.3827 8.7427 0.6721 0.9499
-12.0254 8.7589 0.7797 0.9422
-15.7394 8.7818 0.9446 0.9304
-17.1844 -30.5751 1.8381 0.8689
-13.8313 -33.5102 1.8999 0.8648
-9.2693 -33.3808 1.8156 0.8704
18.9546 -54.9618 3.0469 0.7923
20.7607 -42.6849 2.4876 0.8269
31.0655 -29.3105 2.2383 0.8428
56.9491 -32.2416 3.4297 0.7694
50.2680 -20.9317 2.8537 0.8040
65.9613 -10.1975 3.4979 0.7654
65.9081 -2.1622 3.4560 0.7679
24.9908 8.5314 1.3839 0.8996
31.4196 20.1461 1.9560 0.8611
10.4294 8.6209 0.7091 0.9472
8.1979 8.6346 0.6240 0.9534
3.6389 8.6627 0.4924 0.9631
2.4616 8.6550 0.4716 0.9646
1.3674 8.6659 0.4598 0.9655
0.3117 8.6771 0.4550 0.9658
-0.7370 8.6819 0.4566 0.9657
-1.8073 8.6805 0.4647 0.9651
33.4356 -39.1895 0.8992 0.8138
33.7990 -24.2971 0.7266 0.8466
44.3102 -24.3617 0.8826 0.8169
60.3685 13.5538 1.0800 0.7807
31.6971 20.8861 0.6626 0.8591
10.1704 8.6225 0.2327 0.9481
7.9967 8.6359 0.2054 0.9540
6.2568 8.6466 0.1863 0.9582
4.7940 8.6556 0.1727 0.9612
3.5046 8.6432 0.1628 0.9634
0.2036 8.6838 0.1516 0.9658
-0.8469 8.6902 0.1524 0.9657
-1.9241 8.6969 0.1555 0.9650
-5.6817 8.6814 0.1811 0.9593
-9.3827 8.7427 0.2239 0.9500
-58.7921 -12.8154 1.0503 0.7861
-24.5361 -33.4667 0.7243 0.8470
-12.8710 -31.1836 0.5889 0.8737
-6.1270 -40.4663 0.7144 0.8490
31.0833 -29.3272 0.7459 0.8429
43.0167 -24.3538 0.8628 0.8206
46.7650 -19.4731 0.8842 0.8166
88.0723 -24.7521 1.5969 0.6935
87.4533 7.6979 1.5324 0.7038
27.3067 5.7742 0.4872 0.8943
24.9582 8.5203 0.4603 0.8999
41.4917 20.0207 0.8041 0.8317
31.4196 20.1461 0.6515 0.8613
10.4294 8.6209 0.2362 0.9473
8.1979 8.6346 0.2078 0.9535
6.4218 8.6456 0.1880 0.9578
3.6304 8.6424 0.1636 0.9632
2.4575 8.6408 0.1568 0.9647
1.3624 8.6342 0.1526 0.9656
0.3120 8.6831 0.1517 0.9658
-0.7376 8.6896 0.1522 0.9657
-1.8106 8.6962 0.1550 0.9651
-2.9408 8.7031 0.1604 0.9639
31.0877 -28.6073 -0.7374 0.8445
33.7990 -24.2971 -0.7266 0.8466
23.6867 8.4174 -0.4388 0.9043
37.3228 18.5863 -0.7278 0.8464
7.9967 8.6359 -0.2054 0.9540
6.2568 8.6466 -0.1863 0.9582
3.4958 8.6215 -0.1624 0.9635
1.2465 8.5940 -0.1516 0.9659
0.2036 8.6838 -0.1516 0.9658
-0.8469 8.6902 -0.1524 0.9657
-3.0625 8.7039 -0.1611 0.9638
-4.2833 8.6689 -0.1688 0.9621
-7.3390 8.7114 -0.1988 0.9555
-12.0254 8.7589 -0.2597 0.9422
-21.3739 8.7442 -0.4031 0.9118
-29.9836 8.2253 -0.5427 0.8830
-56.5863 8.3874 -0.9985 0.7954
-76.3006 -7.1959 -1.3377 0.7359
-66.0315 -32.3708 -1.2836 0.7451
-64.1025 -41.6683 -1.3345 0.7365
-11.0055 -19.5815 -0.3921 0.9141
-13.8313 -33.5102 -0.6328 0.8650
-1.1701 -39.4149 -0.6883 0.8541
27.7936 -80.5920 -1.4880 0.7110
25.8766 -53.2032 -1.0327 0.7892
31.0833 -29.3272 -0.7459 0.8429
27.3017 5.7732 -0.4871 0.8944
24.7143 8.4371 -0.4558 0.9008
38.3147 18.4877 -0.7426 0.8435
31.4196 20.1461 -0.6515 0.8613
4.9355 8.6547 -0.1739 0.9609
-1.8106 8.6962 -0.1550 0.9651
-2.9408 8.7031 -0.1604 0.9639
29.0981 -34.1057 -2.3495 0.8356
30.9834 -28.5114 -2.2067 0.8448
33.6518 -24.1914 -2.1720 0.8470
39.2857 -21.5993 -2.3495 0.8356
47.7262 -0.9703 -2.5017 0.8260
43.7429 9.8211 -2.3495 0.8356
26.1402 9.2893 -1.4539 0.8948
26.2625 17.3051 -1.6483 0.8816
10.1704 8.6225 -0.6988 0.9480
7.9967 8.6359 -0.6168 0.9540
6.2568 8.6466 -0.5593 0.9582
3.4915 8.6108 -0.4870 0.9635
1.2406 8.5534 -0.4530 0.9660
0.2036 8.6838 -0.4552 0.9658
-1.9241 8.6969 -0.4668 0.9650
-3.0625 8.7039 -0.4836 0.9637
-4.2812 8.6646 -0.5065 0.9620
-5.6494 8.6321 -0.5407 0.9595
-15.6913 8.7549 -0.9417 0.9306
-21.1878 8.6681 -1.1997 0.9124
-44.8602 6.6493 -2.3767 0.8339
-37.7328 1.0024 -1.9782 0.8597
-44.7321 -4.2187 -2.3547 0.8353
-40.4960 -8.8273 -2.1721 0.8470
-44.9563 -15.6609 -2.4949 0.8264
-42.8625 -21.0126 -2.5017 0.8260
-36.6031 -30.6421 -2.5017 0.8260
-21.2322 -22.6445 -1.6268 0.8831
-14.5042 -19.7834 -1.2856 0.9064
-8.0608 -19.5295 -1.1072 0.9189
-5.7939 -20.8651 -1.1349 0.9169
-1.0277 -34.6197 -1.8151 0.8705
15.5631 -45.1278 -2.5017 0.8260
24.3163 -37.6645 -2.3495 0.8356
32.7744 -24.1860 -2.1347 0.8495
41.3871 -17.2337 -2.3495 0.8356
27.2968 5.7721 -1.4622 0.8943
26.2534 16.8335 -1.6344 0.8826
10.4294 8.6209 -0.7091 0.9472
8.1979 8.6346 -0.6240 0.9534
4.9355 8.6547 -0.5221 0.9609
2.4455 8.5984 -0.4685 0.9648
1.3495 8.5527 -0.4538 0.9659
-1.8106 8.6962 -0.4655 0.9650
21.0417 -19.3629 -2.5017 0.8915
25.0575 -13.7766 -2.5017 0.8915
26.5328 -10.6622 -2.5017 0.8915
27.6228 -7.3929 -2.5017 0.8915
26.2030 5.8830 -2.3495 0.8978
25.3050 8.9925 -2.3495 0.8978
24.0873 11.9952 -2.3542 0.8976
10.1704 8.6225 -1.1665 0.9479
4.7940 8.6556 -0.8657 0.9610
3.4915 8.6108 -0.8129 0.9634
2.3228 8.5720 -0.7770 0.9650
0.2036 8.6838 -0.7599 0.9657
-0.8469 8.6902 -0.7639 0.9655
-3.0625 8.7039 -0.8073 0.9636
-4.2812 8.6646 -0.8455 0.9619
-9.3827 8.7427 -1.1220 0.9498
-15.5981 8.7029 -1.5627 0.9308
-24.3349 3.6070 -2.1523 0.9059
-26.8458 0.7132 -2.3495 0.8978
-27.9389 -6.0901 -2.5017 0.8915
-27.0034 -9.4069 -2.5017 0.8915
-23.9750 -15.5844 -2.5017 0.8915
-10.7342 -19.0988 -1.9168 0.9158
-0.7969 -26.8435 -2.3495 0.8978
2.5961 -28.4769 -2.5017 0.8915
9.3227 -27.0326 -2.5017 0.8915
15.5096 -24.0234 -2.5017 0.8915
18.2869 -21.9832 -2.5017 0.8915
20.7987 -19.6237 -2.5017 0.8915
22.9305 -16.9216 -2.4933 0.8919
24.8838 -14.0879 -2.5017 0.8915
26.3978 -10.9921 -2.5017 0.8915
27.5285 -7.7367 -2.5017 0.8915
10.4294 8.6209 -1.1838 0.9471
4.9355 8.6547 -0.8717 0.9608
3.6196 8.6169 -0.8177 0.9632
2.4395 8.5773 -0.7802 0.9648
0.3120 8.6831 -0.7602 0.9657
-1.8106 8.6962 -0.7771 0.9650
-2.9408 8.7031 -0.8037 0.9638
11.2637 -16.9785 -2.5017 0.9212
17.8544 -9.8164 -2.5017 0.9212
18.9057 -7.5972 -2.5017 0.9212
20.1731 -2.8617 -2.5017 0.9212
20.3708 -0.4141 -2.5017 0.9212
20.2727 2.0395 -2.5017 0.9212
11.4907 2.5799 -1.4460 0.9536
17.1290 8.5300 -2.3495 0.9258
13.2704 8.7443 -1.9513 0.9380
10.1704 8.6225 -1.6372 0.9477
7.9967 8.6359 -1.4451 0.9537
6.2568 8.6466 -1.3105 0.9579
1.2319 8.4939 -1.0538 0.9660
-3.0625 8.7039 -1.1329 0.9635
-4.2630 8.6278 -1.1816 0.9620
-5.5928 8.5456 -1.2540 0.9597
-12.0254 8.7589 -1.8267 0.9418
-17.7107 7.2455 -2.3495 0.9258
-18.9286 2.8057 -2.3495 0.9258
-20.2850 -1.9131 -2.5017 0.9212
-19.2410 -6.7028 -2.5017 0.9212
-11.3142 -15.4323 -2.3495 0.9258
-7.3007 -17.6880 -2.3495 0.9258
-5.1199 -18.4378 -2.3495 0.9258
-2.8646 -18.9198 -2.3495 0.9258
-0.5678 -19.1270 -2.3495 0.9258
1.8493 -20.2852 -2.5010 0.9212
8.9117 -18.3228 -2.5017 0.9212
11.0512 -17.1176 -2.5017 0.9212
13.0301 -15.6639 -2.5017 0.9212
14.8199 -13.9826 -2.5017 0.9212
16.3943 -12.0983 -2.5017 0.9212
20.1358 -3.1130 -2.5017 0.9212
20.3641 -0.6681 -2.5017 0.9212
16.1085 10.3287 -2.3495 0.9258
8.1979 8.6346 -1.4619 0.9531
4.9355 8.6547 -1.2233 0.9606
3.6074 8.5878 -1.1437 0.9632
0.3120 8.6831 -1.0668 0.9656
-0.7376 8.6896 -1.0708 0.9655
-2.9408 8.7031 -1.1280 0.9637
10.2520 -12.0162 -2.5017 0.9380
11.6230 -10.6957 -2.5017 0.9380
12.8253 -9.2198 -2.5017 0.9380
13.8413 -7.6099 -2.5017 0.9380
15.7921 -0.3210 -2.5017 0.9380
11.4134 2.5625 -1.8527 0.9537
5.9142 2.9452 -1.0464 0.9736
12.3870 8.1622 -2.3495 0.9417
6.2568 8.6466 -1.6904 0.9577
3.4486 8.5052 -1.4536 0.9635
-0.8469 8.6902 -1.3829 0.9653
-6.8855 8.1731 -1.6926 0.9576
-11.9908 8.7338 -2.3495 0.9417
-12.9544 7.2279 -2.3495 0.9417
-13.7298 5.6170 -2.3495 0.9417
-14.3058 3.9245 -2.3495 0.9417
-15.6246 2.3159 -2.5017 0.9380
-15.7256 -1.4831 -2.5017 0.9380
-15.4329 -3.3641 -2.5017 0.9380
-14.1828 -6.9529 -2.5017 0.9380
-10.8039 -11.5225 -2.5017 0.9380
-9.3393 -12.7385 -2.5017 0.9380
-7.7390 -13.7695 -2.5017 0.9380
-4.2030 -15.1360 -2.4880 0.9384
-0.4687 -15.7884 -2.5017 0.9380
1.4340 -15.7301 -2.5017 0.9380
3.3159 -15.4434 -2.5017 0.9380
5.1497 -14.9323 -2.5017 0.9380
13.7454 -7.7819 -2.5017 0.9380
15.7868 -0.5179 -2.5017 0.9380
15.7345 1.3850 -2.5017 0.9380
15.4536 3.2678 -2.5017 0.9380
12.4878 8.0071 -2.3495 0.9417
10.4294 8.6209 -2.1431 0.9467
6.4218 8.6456 -1.7057 0.9573
4.9355 8.6547 -1.5780 0.9605
2.4086 8.4689 -1.3945 0.9650
1.3293 8.4243 -1.3508 0.9661
0.3120 8.6831 -1.3762 0.9654
-0.7376 8.6896 -1.3812 0.9653
-2.9408 8.7031 -1.4550 0.9635
7.1150 -10.7249 -2.5017 0.9489
11.9422 -4.7989 -2.5017 0.9489
12.4327 -3.3275 -2.5017 0.9489
12.7427 -1.8076 -2.5017 0.9489
11.5677 2.5971 -2.3045 0.9528
5.2491 3.4588 -1.2219 0.9747
8.2125 8.8689 -2.3495 0.9519
6.2568 8.6466 -2.0746 0.9574
4.7940 8.6556 -1.9233 0.9605
3.4311 8.4621 -1.7749 0.9635
2.2738 8.3911 -1.6899 0.9652
1.1928 8.2243 -1.6154 0.9667
0.2036 8.6838 -1.6884 0.9652
-0.8469 8.6902 -1.6972 0.9650
-1.9241 8.6969 -1.7314 0.9644
-3.0625 8.7039 -1.7935 0.9631
-8.8433 8.2401 -2.3495 0.9519
-9.7703 7.1164 -2.3495 0.9519
-10.5555 5.8894 -2.3495 0.9519
-12.4118 3.4049 -2.5017 0.9489
-12.7312 1.8871 -2.5017 0.9489
-12.8135 -1.2084 -2.5017 0.9489
-12.5750 -2.7411 -2.5017 0.9489
-12.1540 -4.2339 -2.5017 0.9489
-10.7909 -7.0144 -2.5017 0.9489
-9.8687 -8.2616 -2.5017 0.9489
-8.8032 -9.3888 -2.5017 0.9489
-6.3059 -11.2197 -2.5017 0.9489
-3.4436 -12.4011 -2.5017 0.9489
-1.9267 -12.7253 -2.5017 0.9489
-0.3819 -12.8646 -2.5017 0.9489
1.1685 -12.8172 -2.5017 0.9489
2.7019 -12.5835 -2.5017 0.9489
6.9807 -10.8127 -2.5017 0.9489
8.2308 -9.8944 -2.5017 0.9489
9.3613 -8.8324 -2.5017 0.9489
10.3558 -7.6421 -2.5017 0.9489
12.3903 -3.4822 -2.5017 0.9489
12.7192 -1.9664 -2.5017 0.9489
5.3868 2.5992 -1.1626 0.9759
5.2353 3.3569 -1.2089 0.9750
8.3224 8.7659 -2.3495 0.9519
6.4218 8.6456 -2.0934 0.9571
4.9355 8.6547 -1.9366 0.9602
3.5650 8.4869 -1.7893 0.9632
2.3876 8.3950 -1.6965 0.9651
0.3120 8.6831 -1.6889 0.9652
-0.7376 8.6896 -1.6952 0.9651
-1.8106 8.6962 -1.7266 0.9645
5.9905 -9.0298 -2.5017 0.9565
7.0332 -8.2436 -2.5017 0.9565
9.4957 -5.2207 -2.5017 0.9565
10.0548 -4.0405 -2.5017 0.9565
10.4678 -2.8016 -2.5017 0.9565
10.8340 -0.2203 -2.5017 0.9565
10.7818 1.0847 -2.5017 0.9565
10.5730 2.3738 -2.5017 0.9565
5.9414 2.1114 -1.4557 0.9744
5.0177 2.4988 -1.2941 0.9773
4.8023 3.1644 -1.3278 0.9767
7.7626 6.5812 -2.3495 0.9591
6.9146 7.4672 -2.3495 0.9591
4.9309 8.9026 -2.3495 0.9591
3.4311 8.4621 -2.1081 0.9632
1.1683 8.0548 -1.8790 0.9671
-1.9241 8.6969 -2.0564 0.9641
-3.0625 8.7039 -2.1302 0.9628
-4.2998 8.7023 -2.2409 0.9609
-6.5570 7.7831 -2.3495 0.9591
-7.4456 6.9378 -2.3495 0.9591
-10.0066 4.0938 -2.4961 0.9566
-10.4501 2.8668 -2.5017 0.9565
-10.8324 0.2878 -2.5017 0.9565
-10.7883 -1.0175 -2.5017 0.9565
-10.5876 -2.3079 -2.5017 0.9565
-10.2331 -3.5648 -2.5017 0.9565
-9.7299 -4.7699 -2.5017 0.9565
-9.0855 -5.9058 -2.5017 0.9565
-8.3090 -6.9559 -2.5017 0.9565
-7.4119 -7.9049 -2.5017 0.9565
-5.3093 -9.4465 -2.5017 0.9565
-4.1343 -10.0165 -2.5017 0.9565
-0.3215 -10.8314 -2.5017 0.9565
2.2749 -10.5947 -2.5017 0.9565
3.5329 -10.2441 -2.5017 0.9565
5.8774 -9.1038 -2.5017 0.9565
6.9299 -8.3307 -2.5017 0.9565
7.8818 -7.4365 -2.5017 0.9565
8.7191 -6.4343 -2.5017 0.9565
9.4298 -5.3387 -2.5017 0.9565
10.6018 2.2418 -2.5017 0.9565
5.0479 2.4357 -1.2940 0.9773
4.8141 3.0868 -1.3203 0.9768
7.0071 7.3804 -2.3495 0.9591
6.0684 8.1698 -2.3495 0.9591
5.0415 8.8405 -2.3495 0.9591
2.3617 8.3039 -1.9931 0.9652
1.2746 8.0777 -1.8880 0.9670
0.3120 8.6831 -2.0059 0.9650
-1.8106 8.6962 -2.0507 0.9642
5.1615 -7.7802 -2.5017 0.9621
9.2441 -1.3113 -2.5017 0.9621
9.2897 0.9346 -2.5017 0.9621
5.7524 2.0442 -1.6358 0.9750
6.6884 5.6704 -2.3495 0.9643
2.2934 8.4634 -2.3495 0.9643
1.2586 8.6778 -2.3495 0.9643
0.2055 8.7662 -2.3495 0.9643
-1.8942 8.5616 -2.3495 0.9643
-3.8843 7.8613 -2.3495 0.9643
-5.6496 6.7060 -2.3495 0.9643
-6.4153 5.9777 -2.3495 0.9643
-7.9258 4.4222 -2.4319 0.9631
-9.2357 1.3689 -2.5017 0.9621
-9.3333 0.2479 -2.5017 0.9621
-9.1224 -1.9885 -2.5017 0.9621
-8.8169 -3.0715 -2.5017 0.9621
-8.3834 -4.1098 -2.5017 0.9621
-7.8281 -5.0885 -2.5017 0.9621
-7.1591 -5.9932 -2.5017 0.9621
-6.3862 -6.8110 -2.5017 0.9621
-5.5204 -7.5298 -2.5017 0.9621
-4.5745 -8.1392 -2.5017 0.9621
-3.5622 -8.6304 -2.5017 0.9621
-2.4981 -8.9962 -2.5017 0.9621
-1.3977 -9.2314 -2.5017 0.9621
0.8477 -9.2981 -2.5017 0.9621
3.0440 -8.8265 -2.5017 0.9621
5.9709 -7.1778 -2.5017 0.9621
8.6192 -3.5891 -2.5017 0.9621
8.9884 -2.5261 -2.5017 0.9621
9.2270 -1.4265 -2.5017 0.9621
9.3316 -0.3061 -2.5017 0.9621
9.1346 1.9316 -2.5017 0.9621
5.9816 2.0420 -1.6936 0.9742
4.7924 2.3125 -1.4258 0.9782
4.5284 2.9036 -1.4414 0.9780
5.2286 7.0392 -2.3495 0.9643
4.3438 7.6171 -2.3495 0.9643
2.3987 8.4341 -2.3495 0.9643
1.3667 8.6614 -2.3495 0.9643
0.3148 8.7629 -2.3495 0.9643
-0.7416 8.7372 -2.3495 0.9643
-1.7873 8.5845 -2.3495 0.9643
-2.8071 8.3071 -2.3495 0.9643
