ply
format ascii 1.0
element vertex 547
property float32 x
property float32 y
property float32 z
property float32 I
end_header
8.7849 5.6748 2.8023 0.9576
32.1149 26.7752 11.2036 0.8410
32.6395 34.7295 12.7704 0.8209
32.2204 43.9187 14.5952 0.7981
-11.1677 31.7163 9.0098 0.8700
-13.3401 26.9256 8.0516 0.8830
-15.9734 24.3045 7.7929 0.8865
-19.6590 23.2045 8.1490 0.8817
-39.7114 -9.0897 10.9158 0.8448
-50.2807 -25.4076 15.0951 0.7919
-28.1268 -39.6363 13.0229 0.8177
-11.5029 -29.2849 8.4305 0.8778
52.3980 19.8573 15.0144 0.7929
32.1258 28.5517 11.5164 0.8370
32.2393 46.9868 15.2687 0.7898
32.3324 62.1166 18.7638 0.7483
-11.0941 43.6836 12.0766 0.8297
-13.6914 25.5713 7.7721 0.8868
57.0381 19.5790 13.9224 0.7807
8.7849 5.6748 2.4145 0.9580
32.1149 26.7752 9.6532 0.8423
32.3043 57.5484 15.2362 0.7627
-11.1677 31.7163 7.7629 0.8711
-13.3401 26.9256 6.9374 0.8839
-15.9734 24.3045 6.7145 0.8875
-19.6590 23.2045 7.0213 0.8826
-57.8150 53.4823 18.1829 0.7237
-60.3110 -13.8047 14.2840 0.7757
-60.2959 -21.7678 14.7998 0.7686
-51.6738 -26.1116 13.3664 0.7885
-17.0842 -31.5933 8.2920 0.8629
-11.9486 -30.4195 7.5452 0.8744
-8.6662 -33.5418 7.9980 0.8674
-5.3488 -40.4710 9.4247 0.8457
57.4157 -30.4642 15.0058 0.7658
52.3980 19.8573 12.9366 0.7945
32.1746 36.4780 11.2294 0.8190
32.2393 46.9868 13.1557 0.7914
32.3324 62.1167 16.1672 0.7502
0.6649 5.7256 1.3307 0.9766
-13.6914 25.5713 6.6966 0.8877
63.5191 13.4870 12.6221 0.7675
32.6395 34.7295 9.2642 0.8235
32.7386 44.6249 10.7582 0.7981
4.8585 8.6552 1.9293 0.9604
2.3868 8.6704 1.7480 0.9640
1.2865 8.6771 1.7051 0.9649
-4.3158 8.7109 1.8897 0.9612
-15.9734 24.3045 5.6533 0.8882
-19.6590 23.2045 5.9116 0.8834
-57.8150 53.4823 15.3091 0.7255
-80.5182 11.2892 15.8043 0.7180
-59.9699 -40.0950 14.0224 0.7453
-59.8564 -65.7393 17.2818 0.6961
-12.9604 -32.9956 6.8907 0.8655
-5.3488 -40.4710 7.9352 0.8468
32.3471 -87.4324 18.1210 0.6839
49.4080 -44.2780 12.8962 0.7631
57.3419 -30.4250 12.6179 0.7676
52.3980 19.8573 10.8920 0.7959
37.5009 19.6994 8.2340 0.8415
32.5889 22.5412 7.7023 0.8509
32.9984 29.3271 8.5813 0.8354
32.1746 36.4780 9.4547 0.8202
4.5028 8.6507 1.8957 0.9610
3.2466 8.6651 1.7987 0.9630
2.0951 8.6722 1.7342 0.9643
0.6648 5.7249 1.1203 0.9768
-0.0506 8.6853 1.6883 0.9652
-2.2091 8.6986 1.7445 0.9641
-4.6619 8.7070 1.9198 0.9606
-15.9831 22.7219 5.3999 0.8930
65.8077 13.9729 10.6553 0.7615
41.5416 20.1745 7.3144 0.8294
32.5796 21.0454 6.1431 0.8546
33.1201 27.6133 6.8297 0.8398
8.1155 8.6351 1.8769 0.9531
6.3431 8.6460 1.6984 0.9575
3.5617 8.6631 1.4835 0.9628
2.3868 8.6704 1.4243 0.9642
0.2237 8.6836 1.3758 0.9654
-1.9185 8.6968 1.4106 0.9646
-3.0647 8.7039 1.4615 0.9633
-4.3161 8.7115 1.5398 0.9614
-5.7311 8.7203 1.6527 0.9586
-7.3965 8.7305 1.8123 0.9547
-86.4341 -31.2040 14.5546 0.6892
-66.2025 -33.4532 11.7481 0.7405
-59.0035 -39.4488 11.2415 0.7502
-24.9070 -21.4416 5.2053 0.8754
-17.0842 -31.5933 5.6886 0.8646
-8.1803 -31.6613 5.1793 0.8760
-4.1799 -31.6272 5.0528 0.8788
21.4049 -41.5412 7.4015 0.8276
36.8500 -42.1283 8.8649 0.7972
47.5959 -42.6540 10.1226 0.7720
60.5644 -42.2627 11.6971 0.7415
57.3917 -30.4514 10.2902 0.7687
65.0897 -24.9752 11.0421 0.7540
52.3981 19.8573 8.8750 0.7970
37.5009 19.6994 6.7092 0.8424
32.5889 22.5412 6.2760 0.8517
33.1314 29.4453 7.0204 0.8357
7.6191 8.6382 1.8243 0.9544
3.2466 8.6651 1.4656 0.9632
0.6648 5.7246 0.9128 0.9769
-0.0506 8.6853 1.3756 0.9654
-6.1358 8.7227 1.6891 0.9577
64.3859 -2.1677 7.9101 0.7713
57.0381 19.5790 7.4045 0.7842
41.5416 20.1745 5.6704 0.8302
32.5797 21.0454 4.7623 0.8553
3.5617 8.6631 1.1501 0.9630
1.2865 8.6771 1.0771 0.9653
0.2237 8.6836 1.0666 0.9656
-0.8340 8.6902 1.0719 0.9654
-1.9185 8.6968 1.0935 0.9647
-3.0648 8.7039 1.1330 0.9635
-4.3161 8.7115 1.1937 0.9616
-5.7311 8.7203 1.2813 0.9588
-9.4514 8.7431 1.5809 0.9494
-66.0932 -33.3979 9.0925 0.7420
-18.1915 -33.6412 4.6959 0.8572
-8.7034 -33.6860 4.2719 0.8692
19.1814 -51.8462 6.7876 0.8003
26.8385 -39.4642 5.8600 0.8250
36.8931 -42.1776 6.8804 0.7979
47.5965 -42.6546 7.8475 0.7729
57.3917 -30.4514 7.9773 0.7696
63.9985 -24.5566 8.4166 0.7586
64.3004 -16.0727 8.1380 0.7656
61.8269 -7.6750 7.6496 0.7780
64.3985 -0.1331 7.9071 0.7714
61.9198 7.4268 7.6573 0.7778
57.7635 14.1853 7.3032 0.7869
12.4457 8.6085 1.8581 0.9408
9.7051 8.6254 1.5942 0.9490
7.6191 8.6382 1.4143 0.9546
4.5062 8.6573 1.1984 0.9614
3.2466 8.6651 1.1362 0.9634
-0.0506 8.6853 1.0664 0.9656
-2.2091 8.6986 1.1020 0.9645
-4.6655 8.7137 1.2136 0.9609
-6.1358 8.7227 1.3094 0.9579
61.8147 -9.6646 5.4738 0.7779
61.8613 -2.0827 5.4152 0.7799
57.0383 19.5791 5.2760 0.7849
41.5416 20.1745 4.0403 0.8307
32.6801 21.1103 3.4038 0.8554
6.3431 8.6460 0.9382 0.9579
4.8585 8.6552 0.8684 0.9609
3.5617 8.6631 0.8195 0.9631
2.3868 8.6704 0.7868 0.9645
1.2865 8.6771 0.7674 0.9654
-0.8340 8.6902 0.7638 0.9656
-1.9185 8.6968 0.7792 0.9649
-7.3965 8.7305 1.0011 0.9551
-9.4514 8.7431 1.1264 0.9496
-12.1399 8.7596 1.3097 0.9417
-23.8549 -33.6165 3.6063 0.8475
-18.1915 -33.6412 3.3460 0.8576
-8.1803 -31.6613 2.8610 0.8770
21.1801 -89.2854 8.0282 0.6918
28.0233 -75.7456 7.0659 0.7230
21.5049 -41.7353 4.1076 0.8282
28.7662 -42.2986 4.4753 0.8143
36.8891 -42.1730 4.9020 0.7985
45.8011 -41.0456 5.3807 0.7812
60.5642 -42.2625 6.4612 0.7434
57.3917 -30.4514 5.6841 0.7704
61.7285 -23.6855 5.7845 0.7668
61.8269 -7.6750 5.4507 0.7787
61.8733 -0.1279 5.4132 0.7800
61.7094 7.4015 5.4376 0.7791
57.6634 14.1607 5.1948 0.7879
37.5009 19.6994 3.7060 0.8436
9.7051 8.6254 1.1360 0.9492
4.5062 8.6573 0.8539 0.9616
2.0951 8.6722 0.7805 0.9648
-0.0506 8.6853 0.7599 0.9657
-3.3781 8.7058 0.8170 0.9632
-4.6655 8.7137 0.8647 0.9611
66.7375 5.8736 3.5111 0.7646
24.8564 8.5323 1.3773 0.9001
32.5797 21.0454 2.0327 0.8561
8.1155 8.6351 0.6210 0.9536
6.3431 8.6460 0.5620 0.9580
4.8585 8.6552 0.5202 0.9610
3.5617 8.6631 0.4909 0.9632
2.3825 8.6545 0.4704 0.9647
0.2236 8.6777 0.4549 0.9658
-0.8333 8.6820 0.4571 0.9657
-1.9148 8.6799 0.4658 0.9650
-3.0637 8.7009 0.4834 0.9637
-4.3161 8.7115 0.5095 0.9618
-5.7311 8.7203 0.5469 0.9591
-9.4514 8.7431 0.6748 0.9497
-12.1398 8.7596 0.7846 0.9418
-70.5374 -16.1455 3.7922 0.7484
-28.7183 -31.5409 2.2355 0.8429
-22.3860 -31.5464 2.0272 0.8565
-16.5357 -30.5791 1.8219 0.8700
-12.9605 -32.9957 1.8578 0.8676
22.0039 -42.7037 2.5176 0.8250
28.6151 -42.0765 2.6668 0.8156
36.8929 -42.1773 2.9367 0.7990
31.9605 -28.6420 2.2492 0.8421
57.3917 -30.4514 3.4049 0.7709
50.4988 -19.3767 2.8346 0.8052
66.7769 -0.1380 3.4996 0.7653
66.7237 8.0030 3.5219 0.7640
57.7635 14.1853 3.1172 0.7880
12.4457 8.6085 0.7931 0.9412
4.5062 8.6573 0.5115 0.9617
3.2460 8.6636 0.4849 0.9636
2.0908 8.6545 0.4666 0.9650
-0.0506 8.6794 0.4549 0.9658
-4.6655 8.7137 0.5180 0.9612
88.3354 7.7744 1.5479 0.7013
63.7478 13.5355 1.1375 0.7705
41.5416 20.1745 0.8061 0.8313
32.5797 21.0454 0.6770 0.8563
4.8475 8.6356 0.1729 0.9612
1.2865 8.6771 0.1531 0.9655
-0.8340 8.6902 0.1524 0.9657
-5.7057 8.6816 0.1813 0.9593
-9.4514 8.7431 0.2247 0.9498
-12.1398 8.7596 0.2613 0.9419
-15.9216 8.7729 0.3173 0.9299
-21.9248 8.8124 0.4125 0.9098
-64.5192 -32.6027 1.2618 0.7489
-22.1304 -31.1862 0.6675 0.8581
-19.1094 -35.3386 0.7012 0.8515
32.3538 -87.4505 1.6276 0.6886
31.9691 -28.6497 0.7493 0.8422
34.8280 -24.3035 0.7413 0.8437
37.5009 19.6994 0.7394 0.8441
12.9447 8.9537 0.2747 0.9390
5.9341 8.6486 0.1831 0.9589
2.0849 8.6301 0.1550 0.9651
0.6648 5.7245 0.1006 0.9772
-1.1122 8.6919 0.1530 0.9656
-3.3702 8.6854 0.1626 0.9634
-4.6475 8.6800 0.1719 0.9614
-6.1090 8.6846 0.1853 0.9584
95.1415 8.3734 -1.6671 0.6824
24.5019 8.4106 -0.4522 0.9016
10.3408 8.6215 -0.2350 0.9476
3.5445 8.6212 -0.1627 0.9634
2.3638 8.5866 -0.1555 0.9650
0.2237 8.6836 -0.1516 0.9658
-0.8340 8.6902 -0.1524 0.9657
-1.9185 8.6968 -0.1555 0.9650
-4.2950 8.6690 -0.1689 0.9620
-5.6735 8.6327 -0.1803 0.9595
-9.4514 8.7431 -0.2247 0.9498
-12.1398 8.7596 -0.2613 0.9419
-15.8441 8.7301 -0.3158 0.9302
-55.7098 7.8109 -0.9819 0.7985
-89.5565 1.5997 -1.5635 0.6988
-58.3392 -13.3534 -1.0446 0.7871
-10.6212 -19.6416 -0.3898 0.9145
-7.6415 -19.4543 -0.3648 0.9198
-0.2812 -28.2168 -0.4925 0.8932
32.3204 -87.3603 -1.6259 0.6889
27.7866 -53.9263 -1.0589 0.7845
22.6320 -33.2788 -0.7025 0.8513
34.0198 -38.8927 -0.9019 0.8132
45.9333 -24.3717 -0.9076 0.8122
52.3981 19.8574 -0.9781 0.7992
12.9447 8.9537 -0.2747 0.9390
9.7051 8.6254 -0.2266 0.9494
3.2255 8.6088 -0.1605 0.9639
0.6648 5.7244 -0.1006 0.9772
-1.1122 8.6919 -0.1530 0.9656
-2.2091 8.6986 -0.1567 0.9647
47.1643 -7.3741 -2.5018 0.8260
47.7103 -1.6062 -2.5018 0.8260
43.8555 9.3118 -2.3496 0.8356
27.0873 13.1548 -1.5781 0.8864
27.1663 17.5486 -1.6949 0.8785
10.3408 8.6215 -0.7056 0.9475
8.1155 8.6351 -0.6210 0.9536
1.2865 8.6771 -0.4597 0.9655
0.2237 8.6836 -0.4552 0.9658
-3.0547 8.6753 -0.4820 0.9638
-5.6424 8.5854 -0.5384 0.9597
-7.3965 8.7305 -0.5997 0.9552
-9.4514 8.7431 -0.6748 0.9497
-12.1398 8.7596 -0.7846 0.9418
-15.7953 8.7032 -0.9451 0.9303
-36.1672 5.0709 -1.9140 0.8639
-45.1265 0.8060 -2.3654 0.8346
-44.4238 -16.0376 -2.4752 0.8276
-36.1783 -31.1446 -2.5018 0.8260
-14.0826 -19.8454 -1.2753 0.9071
-5.2893 -20.4719 -1.1081 0.9188
-2.8707 -21.7206 -1.1482 0.9160
5.3105 -47.4410 -2.5018 0.8260
21.7545 -42.2197 -2.4891 0.8268
22.6320 -33.2788 -2.1092 0.8511
29.5173 -33.7453 -2.3496 0.8356
46.3124 -11.5763 -2.5018 0.8260
47.3737 -5.8808 -2.5018 0.8260
47.7372 -0.0987 -2.5018 0.8260
44.5141 5.3391 -2.3496 0.8356
43.5395 10.6922 -2.3496 0.8356
27.1058 14.2388 -1.6046 0.8846
9.7051 8.6254 -0.6805 0.9493
7.6191 8.6382 -0.6036 0.9549
5.9341 8.6486 -0.5497 0.9589
4.4819 8.6105 -0.5087 0.9619
3.2173 8.5870 -0.4806 0.9639
2.0649 8.5473 -0.4608 0.9654
-0.0506 8.6853 -0.4552 0.9658
-1.1122 8.6919 -0.4592 0.9655
-2.2091 8.6986 -0.4703 0.9647
28.2525 -4.4172 -2.5018 0.8915
28.5796 -0.9622 -2.5018 0.8915
28.4857 2.5070 -2.5018 0.8915
25.4013 8.7193 -2.3496 0.8978
10.3408 8.6215 -1.1779 0.9474
6.3431 8.6460 -0.9382 0.9579
4.8430 8.6275 -0.8656 0.9611
2.3471 8.5261 -0.7737 0.9651
-0.8340 8.6902 -0.7638 0.9656
-1.9185 8.6968 -0.7792 0.9649
-3.0547 8.6753 -0.8047 0.9637
-9.4514 8.7431 -1.1264 0.9496
-12.1399 8.7596 -1.3097 0.9417
-15.5800 8.5846 -1.5563 0.9311
-20.8259 8.3707 -1.9637 0.9138
-23.3300 3.2710 -2.0611 0.9097
-26.8518 0.4796 -2.3496 0.8978
-28.4425 -2.9566 -2.5018 0.8915
-26.8967 -9.7101 -2.5018 0.8915
-21.6716 -18.6563 -2.5018 0.8915
-18.0808 -19.8579 -2.3496 0.8978
-5.2198 -20.2029 -1.8256 0.9196
-0.2676 -26.8548 -2.3496 0.8978
3.1757 -28.3698 -2.4975 0.8917
13.0980 -25.4197 -2.5018 0.8915
16.0809 -23.6458 -2.5018 0.8915
21.2956 -19.0845 -2.5018 0.8915
23.4506 -16.3642 -2.5018 0.8915
28.3780 -3.5227 -2.5018 0.8915
28.5957 -0.0591 -2.5018 0.8915
26.0812 6.4049 -2.3496 0.8978
25.1132 9.5172 -2.3496 0.8978
12.9447 8.9537 -1.3770 0.9388
9.7051 8.6254 -1.1360 0.9492
7.6191 8.6382 -1.0077 0.9548
5.9341 8.6486 -0.9176 0.9588
-0.0506 8.6853 -0.7599 0.9657
-1.1122 8.6919 -0.7666 0.9654
-3.3607 8.6610 -0.8128 0.9634
-6.0093 8.5429 -0.9138 0.9589
20.1310 -3.1474 -2.5018 0.9212
18.0994 6.2128 -2.3496 0.9258
17.2135 8.3596 -2.3496 0.9258
13.9153 8.9888 -2.0341 0.9354
10.3408 8.6215 -1.6531 0.9472
3.5100 8.5372 -1.1334 0.9635
2.3379 8.4927 -1.0816 0.9651
1.2865 8.6771 -1.0771 0.9653
-0.8340 8.6902 -1.0719 0.9654
-1.9185 8.6968 -1.0935 0.9647
-3.0465 8.6520 -1.1263 0.9637
-4.2516 8.5814 -1.1759 0.9621
-5.5857 8.4989 -1.2487 0.9598
-7.3965 8.7305 -1.4050 0.9549
-20.2664 -2.1067 -2.5018 0.9212
-19.1649 -6.9188 -2.5018 0.9212
-18.1856 -9.1895 -2.5018 0.9212
-16.9385 -11.3248 -2.5018 0.9212
-15.4419 -13.2934 -2.5018 0.9212
-6.9961 -17.8113 -2.3496 0.9258
-2.5073 -18.9711 -2.3496 0.9258
-0.1907 -19.1351 -2.3496 0.9258
2.2599 -20.1889 -2.4944 0.9214
4.7029 -19.8254 -2.5018 0.9212
7.0699 -19.1097 -2.5018 0.9212
9.3328 -18.1125 -2.5018 0.9212
13.4149 -15.3364 -2.5018 0.9212
15.1739 -13.5984 -2.5018 0.9212
16.7095 -11.6601 -2.5018 0.9212
17.9989 -9.5500 -2.5018 0.9212
19.7674 -4.9411 -2.5018 0.9212
20.2306 2.4265 -2.5018 0.9212
18.6252 4.5739 -2.3548 0.9256
17.8941 6.7813 -2.3496 0.9258
12.9447 8.9537 -1.9326 0.9385
7.6191 8.6382 -1.4143 0.9546
5.9341 8.6486 -1.2878 0.9586
3.1943 8.5256 -1.1179 0.9640
2.0489 8.4811 -1.0713 0.9654
0.6648 5.7242 -0.7076 0.9770
-2.2091 8.6986 -1.1020 0.9645
-4.5839 8.5613 -1.1924 0.9616
15.6062 -2.4400 -2.5018 0.9380
15.7868 -0.5315 -2.5018 0.9380
14.0312 4.8164 -2.3496 0.9417
10.3408 8.6215 -2.1324 0.9469
8.1155 8.6351 -1.8769 0.9531
6.3431 8.6460 -1.6984 0.9575
3.4780 8.4596 -1.4487 0.9636
1.2865 8.6771 -1.3893 0.9651
0.2237 8.6836 -1.3758 0.9654
-1.9185 8.6968 -1.4106 0.9646
-4.2134 8.5043 -1.5032 0.9623
-5.4999 8.3685 -1.5861 0.9603
-13.7646 5.5325 -2.3496 0.9417
-14.3334 3.8243 -2.3496 0.9417
-15.6428 2.1932 -2.5018 0.9380
-15.7933 0.2821 -2.5018 0.9380
-15.7111 -1.6332 -2.5018 0.9380
-14.8572 -5.3637 -2.5018 0.9380
-14.0981 -7.1240 -2.5018 0.9380
-9.1413 -12.8819 -2.5018 0.9380
-7.5134 -13.8944 -2.5018 0.9380
-5.7402 -14.6138 -2.4867 0.9384
-3.8681 -14.9711 -2.4491 0.9393
-2.0641 -15.6177 -2.4951 0.9382
1.7572 -15.6977 -2.5018 0.9380
7.2351 -14.0414 -2.5018 0.9380
10.3996 -11.8892 -2.5018 0.9380
12.9537 -9.0393 -2.5018 0.9380
15.6755 -1.9459 -2.5018 0.9380
15.2632 3.7483 -2.4893 0.9383
13.8721 5.2571 -2.3496 0.9417
13.1331 6.8988 -2.3496 0.9417
7.6191 8.6382 -1.8243 0.9544
4.4187 8.4892 -1.5158 0.9620
3.1656 8.4491 -1.4291 0.9641
2.0198 8.3606 -1.3623 0.9658
-0.0506 8.6853 -1.3756 0.9654
-2.2091 8.6986 -1.4215 0.9643
-4.5421 8.4833 -1.5241 0.9618
12.8211 1.1284 -2.5018 0.9489
12.5900 2.6732 -2.5018 0.9489
4.9685 2.4129 -1.0736 0.9777
4.6790 3.0225 -1.0828 0.9776
9.2842 7.7405 -2.3496 0.9519
6.3431 8.6460 -2.0844 0.9572
4.7975 8.5466 -1.9051 0.9608
-1.9185 8.6968 -1.7311 0.9644
-4.1754 8.4277 -1.8282 0.9624
-5.3890 8.1998 -1.9073 0.9608
-7.3965 8.7305 -2.2242 0.9544
-9.8023 7.0730 -2.3496 0.9519
-10.5869 5.8334 -2.3496 0.9519
-12.5462 -2.8717 -2.5018 0.9489
-12.1059 -4.3704 -2.5018 0.9489
-7.4485 -10.4964 -2.5018 0.9489
-3.2197 -12.4615 -2.5018 0.9489
-1.6864 -12.7597 -2.5018 0.9489
2.9707 -12.5231 -2.5018 0.9489
5.8953 -11.4412 -2.5018 0.9489
9.5849 -8.5897 -2.5018 0.9489
10.5549 -7.3654 -2.5018 0.9489
11.3694 -6.0325 -2.5018 0.9489
12.0164 -4.6108 -2.5018 0.9489
12.8706 -0.0266 -2.5018 0.9489
7.6142 8.6326 -2.2375 0.9542
1.9762 8.1800 -1.6358 0.9663
-0.0506 8.6853 -1.6883 0.9652
-2.2091 8.6986 -1.7445 0.9641
-3.3185 8.5521 -1.7831 0.9633
-4.5007 8.4058 -1.8534 0.9619
-5.7010 8.1046 -1.9261 0.9604
10.7064 -1.6739 -2.5018 0.9565
10.8304 -0.3646 -2.5018 0.9565
10.6002 2.2507 -2.5018 0.9565
6.1687 2.1175 -1.5057 0.9736
4.1671 3.4742 -1.2526 0.9780
6.9698 7.4161 -2.3496 0.9591
1.2865 8.6771 -2.0252 0.9646
0.2237 8.6836 -2.0054 0.9650
-1.9185 8.6968 -2.0561 0.9641
-4.3111 8.7014 -2.2419 0.9609
-6.5787 7.7651 -2.3496 0.9591
-7.4709 6.9110 -2.3496 0.9591
-8.2531 5.9551 -2.3496 0.9591
-8.9137 4.9115 -2.3496 0.9591
-10.4702 2.7936 -2.5018 0.9565
-10.8348 0.1935 -2.5018 0.9565
-10.5633 -2.4179 -2.5018 0.9565
-10.1926 -3.6797 -2.5018 0.9565
-8.2126 -7.0699 -2.5018 0.9565
-6.2713 -8.8375 -2.5018 0.9565
-5.1545 -9.5321 -2.5018 0.9565
-2.7108 -10.4920 -2.5018 0.9565
2.5012 -10.5439 -2.5018 0.9565
4.9635 -9.6329 -2.5018 0.9565
7.1346 -8.1565 -2.5018 0.9565
9.5725 -5.0791 -2.5018 0.9565
10.1173 -3.8821 -2.5018 0.9565
10.7540 -1.3350 -2.5018 0.9565
10.8365 -0.0224 -2.5018 0.9565
10.5238 2.5844 -2.5018 0.9565
7.6071 6.7608 -2.3496 0.9591
5.7579 8.3918 -2.3496 0.9591
3.0848 8.2333 -2.0299 0.9645
-0.0506 8.6853 -2.0052 0.9650
-3.3185 8.5521 -2.1178 0.9630
-4.8039 8.9721 -2.3496 0.9591
9.1333 1.9392 -2.5018 0.9621
5.9928 2.0571 -1.6977 0.9741
4.5280 2.1990 -1.3488 0.9794
6.0053 6.3898 -2.3496 0.9643
5.1870 7.0702 -2.3496 0.9643
4.2923 7.6465 -2.3496 0.9643
2.3274 8.4544 -2.3496 0.9643
0.2258 8.7659 -2.3496 0.9643
-0.8377 8.7287 -2.3496 0.9643
-3.8929 7.8574 -2.3496 0.9643
-4.8160 7.3279 -2.3496 0.9643
-7.8863 4.3454 -2.4127 0.9634
-9.0213 2.4070 -2.5018 0.9621
-9.3354 0.1667 -2.5018 0.9621
-9.2868 -0.9654 -2.5018 0.9621
-9.1015 -2.0833 -2.5018 0.9621
-8.7821 -3.1705 -2.5018 0.9621
-4.4412 -8.2130 -2.5018 0.9621
-3.4136 -8.6905 -2.5018 0.9621
-2.3357 -9.0400 -2.5018 0.9621
-1.2233 -9.2564 -2.5018 0.9621
-0.0930 -9.3364 -2.5018 0.9621
2.1551 -9.0848 -2.5018 0.9621
4.2767 -8.2998 -2.5018 0.9621
5.2506 -7.7206 -2.5018 0.9621
6.1472 -7.0277 -2.5018 0.9621
6.9533 -6.2313 -2.5018 0.9621
8.2478 -4.3762 -2.5018 0.9621
9.0582 -2.2642 -2.5018 0.9621
9.2657 -1.1502 -2.5018 0.9621
9.0675 2.2267 -2.5018 0.9621
3.9468 2.7299 -1.2859 0.9803
3.8056 3.3823 -1.3642 0.9791
5.8005 6.5763 -2.3496 0.9643
4.0487 7.7782 -2.3496 0.9643
3.0766 8.2114 -2.3496 0.9643
0.6647 5.7240 -1.5441 0.9764
-0.0511 8.7687 -2.3496 0.9643
-3.1721 8.1750 -2.3496 0.9643
-4.1391 7.7305 -2.3496 0.9643
-5.0451 7.1721 -2.3496 0.9643
