ply
format ascii 1.0
element vertex 689
property float32 x
property float32 y
property float32 z
property float32 I
end_header
-5.9957 -29.1813 7.9825 0.8839
33.7330 24.8135 11.2207 0.8408
33.8296 40.5065 14.1411 0.8037
34.9116 53.8207 17.1895 0.7667
-0.1562 5.8978 1.5809 0.9759
-9.5188 34.7664 9.6585 0.8613
-11.0692 27.1117 7.8467 0.8858
-13.5476 24.3336 7.4626 0.8911
-21.8438 23.5055 8.5980 0.8756
-53.7265 -21.5714 15.5130 0.7868
-26.4258 -39.7181 12.7827 0.8207
51.6489 20.0421 14.8447 0.7950
34.2278 23.9696 11.1966 0.8411
12.8661 24.8139 7.4895 0.8907
-9.4979 38.1577 10.5363 0.8497
-10.2612 26.9067 7.7161 0.8876
-20.1374 22.7075 8.1323 0.8819
-6.9235 -33.6969 7.9421 0.8683
-3.3377 -40.4834 9.3780 0.8464
47.2217 -82.5409 21.9542 0.6768
59.1351 -28.5094 15.1562 0.7638
33.7330 24.8136 9.6679 0.8421
34.7816 32.7023 11.0219 0.8220
33.8296 40.5066 12.1841 0.8052
-9.8347 35.9202 8.5980 0.8582
-11.0692 27.1117 6.7608 0.8867
-13.5476 24.3336 6.4298 0.8920
-63.3671 53.5513 19.1539 0.7114
-57.8626 -15.4808 13.8285 0.7820
-15.9127 -31.5841 8.1649 0.8649
-5.4745 -15.1708 3.7235 0.9359
-7.0827 -30.8134 7.2993 0.8783
-4.2883 -40.4775 9.3973 0.8461
30.5666 -43.1118 12.2010 0.8050
59.0589 -30.1873 15.3127 0.7616
51.6489 20.0421 12.7904 0.7966
34.7724 31.2003 10.7857 0.8255
33.8181 38.6277 11.8527 0.8100
12.8637 24.8092 6.4518 0.8916
-20.1374 22.7075 7.0069 0.8829
-22.1231 2.7353 5.1464 0.9126
-6.9235 -33.6969 6.6868 0.8692
-3.3377 -40.4834 7.8959 0.8474
31.4264 -42.2058 10.2284 0.8070
49.1709 -51.6910 13.8676 0.7477
59.5728 -28.7204 12.8553 0.7638
59.2585 16.5960 11.9619 0.7782
34.7376 25.5525 8.3824 0.8389
34.8371 41.7128 10.5640 0.8014
1.8876 8.6734 1.7254 0.9645
0.8175 8.6800 1.6947 0.9651
-0.1562 5.8966 1.1466 0.9763
-1.2859 8.6929 1.7081 0.9648
-2.3819 8.6997 1.7533 0.9639
-16.8491 23.1872 5.5714 0.8898
-63.3670 53.5513 16.1267 0.7131
-79.4963 7.9544 15.5297 0.7221
-58.4174 -15.6292 11.7546 0.7816
-59.3089 -69.3570 17.7387 0.6894
-22.2770 -33.4824 7.8172 0.8488
-16.9528 -33.6488 7.3239 0.8577
-5.4737 -15.1686 3.1346 0.9364
-7.7443 -33.6919 6.7198 0.8686
-4.2883 -40.4775 7.9121 0.8472
29.4145 -54.3113 12.0059 0.7775
29.8474 -42.0975 10.0310 0.8104
39.1340 -43.1068 11.3170 0.7888
51.4553 -44.5220 13.2262 0.7579
51.6490 20.0421 10.7689 0.7979
36.8914 19.7031 8.1296 0.8433
34.2278 23.9696 8.1224 0.8434
34.7724 31.2003 9.0811 0.8267
34.8952 51.1460 12.0352 0.7770
2.1000 8.6721 1.7344 0.9643
-0.0277 8.6852 1.6882 0.9652
-3.3199 8.7054 1.8110 0.9627
-4.5802 8.6974 1.9107 0.9607
-20.1374 22.7075 5.8995 0.8837
-6.5002 -31.6367 5.1154 0.8774
-1.2096 -14.6713 2.3316 0.9421
21.9827 -52.1000 8.9563 0.7953
29.5373 -39.6688 7.8333 0.8185
41.4473 -43.5716 9.5246 0.7838
51.7348 -42.6982 10.6243 0.7621
59.2311 -28.5556 10.4146 0.7662
46.1255 19.1462 7.9099 0.8169
34.7376 25.5525 6.8301 0.8398
7.2164 8.6407 1.7831 0.9554
-0.1561 5.8954 0.9341 0.9764
-1.2859 8.6929 1.3918 0.9650
-2.3819 8.6997 1.4286 0.9641
-3.5549 8.7069 1.4895 0.9626
-8.1174 8.7349 1.8886 0.9529
-63.3669 53.5512 13.1403 0.7146
-77.7346 7.7781 12.3735 0.7288
-80.8544 -32.4634 13.7997 0.7027
-58.7796 -42.1916 11.4598 0.7460
-23.3124 -21.4128 5.0135 0.8797
-21.0166 -31.5880 6.0092 0.8576
-5.4729 -15.1663 2.5537 0.9368
-7.2708 -31.6320 5.1407 0.8768
-3.3512 -31.6323 5.0381 0.8791
20.9690 -53.1184 9.0449 0.7935
23.3383 -43.0922 7.7618 0.8200
27.7635 -39.1582 7.6027 0.8233
38.2519 -42.1351 9.0134 0.7942
49.0569 -42.4467 10.2746 0.7690
63.0353 -42.4711 12.0385 0.7350
59.1233 -30.2202 10.5166 0.7642
59.7502 15.2426 9.7666 0.7790
34.7724 31.2003 7.3994 0.8276
7.5630 8.6386 1.8185 0.9546
5.9008 8.6488 1.6583 0.9585
3.2343 8.6461 1.4621 0.9633
1.0218 8.6788 1.3841 0.9652
-0.0277 8.6852 1.3756 0.9654
-1.0795 8.6917 1.3872 0.9652
-4.5878 8.7117 1.5594 0.9609
-7.7443 8.7326 1.8486 0.9538
-6.9235 -33.6970 4.2239 0.8705
-3.3244 -40.3220 4.9677 0.8495
21.4296 -50.7891 6.7685 0.8008
23.6000 -41.2515 5.8354 0.8257
29.7031 -39.8914 6.1067 0.8184
40.2097 -42.2705 7.1633 0.7905
51.2104 -42.2654 8.1528 0.7652
26.2898 -16.8366 3.8332 0.8818
63.5169 2.0523 7.8030 0.7741
66.0920 10.1703 8.2106 0.7638
7.2164 8.6407 1.3823 0.9556
5.6113 8.6505 1.2660 0.9593
4.2369 8.6590 1.1836 0.9619
1.8876 8.6734 1.0899 0.9649
-0.1561 5.8942 0.7240 0.9765
-1.2859 8.6929 1.0790 0.9652
-3.5549 8.7069 1.1547 0.9628
-8.1174 8.7349 1.4641 0.9531
-10.3523 8.7487 1.6642 0.9468
-13.3447 8.7670 1.9605 0.9377
-66.9532 -36.7669 9.3788 0.7350
-26.9506 -31.5166 5.0917 0.8461
-22.2770 -33.4824 4.9379 0.8504
-16.9529 -33.6488 4.6263 0.8591
20.9058 -52.9584 6.9908 0.7950
22.6542 -41.8291 5.8408 0.8255
28.0218 -39.5226 5.9487 0.8226
59.0236 -30.1693 8.1390 0.7656
63.6432 0.5735 7.8147 0.7738
66.0823 8.5987 8.1823 0.7645
51.6490 20.0421 6.8024 0.7999
36.8914 19.7031 5.1352 0.8449
12.2941 8.6095 1.8429 0.9413
9.6135 8.6259 1.5859 0.9493
7.5630 8.6386 1.4097 0.9548
3.2343 8.6461 1.1334 0.9635
2.1000 8.6721 1.0956 0.9647
1.0218 8.6788 1.0730 0.9654
-0.0277 8.6852 1.0664 0.9656
-1.0795 8.6917 1.0754 0.9653
-2.1651 8.6983 1.1006 0.9645
-3.3199 8.7054 1.1440 0.9631
-4.5878 8.7117 1.2089 0.9611
-6.0327 8.7221 1.3021 0.9582
-9.8729 8.7457 1.6195 0.9482
-22.1383 2.7372 2.7389 0.9140
-2.6132 -31.6954 2.7824 0.8801
21.5854 -51.1584 4.8579 0.8002
23.5491 -41.1625 4.1489 0.8266
31.3477 -42.1001 4.5922 0.8100
51.2104 -42.2654 5.8092 0.7660
58.0813 -19.8195 5.3691 0.7816
59.7353 -12.6363 5.3418 0.7826
63.4698 -5.6051 5.5745 0.7743
63.5169 2.0523 5.5599 0.7748
59.3086 16.6100 5.3885 0.7809
9.1773 8.6286 1.1021 0.9507
5.6113 8.6505 0.9021 0.9594
3.0084 8.6511 0.8013 0.9639
1.8876 8.6734 0.7766 0.9650
-2.3819 8.6997 0.7891 0.9644
-3.5549 8.7069 0.8228 0.9629
-4.8364 8.6870 0.8699 0.9609
-10.3523 8.7487 1.1858 0.9470
-17.7103 8.7939 1.7300 0.9237
23.6452 -43.6588 4.3439 0.8193
38.4746 -42.3804 5.0078 0.7947
47.2767 -40.9065 5.4696 0.7780
59.1233 -30.2202 5.8092 0.7660
63.3611 -23.2822 5.9058 0.7626
63.4123 -14.9650 5.7002 0.7698
63.5078 0.5723 5.5564 0.7749
59.2995 15.1276 5.3542 0.7821
12.2941 8.6095 1.3131 0.9415
9.6135 8.6259 1.1300 0.9495
7.5630 8.6386 1.0045 0.9549
4.4889 8.6575 0.8532 0.9616
2.1000 8.6721 0.7806 0.9648
-0.0277 8.6852 0.7599 0.9657
-3.3199 8.7054 0.8151 0.9633
-6.0327 8.7221 0.9278 0.9583
-7.7443 8.7326 1.0212 0.9542
-12.6569 8.7438 1.3459 0.9401
-16.6957 8.7805 1.6504 0.9271
-5.2096 -25.3554 1.3566 0.9015
-3.0389 -36.8596 1.9383 0.8623
22.9359 -54.3592 3.0920 0.7895
31.2903 -42.0230 2.7458 0.8107
51.2104 -42.2654 3.4799 0.7665
26.2852 -16.8336 1.6357 0.8825
59.2311 -28.5557 3.4461 0.7684
68.1167 -14.4093 3.6488 0.7566
52.4613 8.0728 2.7817 0.8085
30.3453 8.4985 1.6515 0.8814
34.9312 19.7151 2.1021 0.8516
11.7091 8.6131 0.7618 0.9434
7.2164 8.6407 0.5900 0.9559
4.2369 8.6590 0.5052 0.9621
3.0084 8.6511 0.4800 0.9640
0.8168 8.6725 0.4565 0.9657
-0.1560 5.8917 0.3089 0.9767
-2.3779 8.6852 0.4719 0.9646
-3.5549 8.7069 0.4929 0.9630
-6.3393 8.7240 0.5652 0.9577
-10.3523 8.7487 0.7103 0.9472
-24.9465 8.8383 1.3870 0.8994
-12.1883 -24.1918 1.4197 0.8972
-5.3607 -23.3221 1.2541 0.9086
23.1486 -88.5852 4.7984 0.6930
21.4602 -54.3628 3.0630 0.7913
38.2981 -42.1860 2.9860 0.7959
47.3766 -40.9929 3.2833 0.7781
63.0802 -42.5014 3.9863 0.7374
59.1233 -30.2202 3.4798 0.7665
67.7626 -15.9916 3.6488 0.7566
68.4574 -7.6559 3.6101 0.7589
56.6991 7.3777 2.9965 0.7953
33.8758 13.1453 1.9043 0.8645
36.8914 19.7031 2.1919 0.8458
12.2941 8.6095 0.7866 0.9417
9.6135 8.6259 0.6769 0.9496
5.9008 8.6488 0.5487 0.9589
4.4889 8.6575 0.5111 0.9617
3.2343 8.6461 0.4838 0.9637
1.0208 8.6702 0.4575 0.9656
-1.0784 8.6821 0.4585 0.9656
-2.1607 8.6807 0.4688 0.9648
-4.5878 8.7117 0.5160 0.9613
-16.6957 8.7805 0.9886 0.9272
-22.1482 2.7384 1.1696 0.9145
-6.4152 -31.2232 0.5564 0.8803
-3.3377 -40.4834 0.7090 0.8500
33.5585 -35.2785 0.8499 0.8230
33.6049 -27.7351 0.7605 0.8400
50.6123 -24.4005 0.9807 0.7987
89.4889 -18.9304 1.5966 0.6935
34.9313 19.7152 0.7001 0.8517
11.7091 8.6131 0.2537 0.9435
7.2164 8.6407 0.1965 0.9560
4.2171 8.6187 0.1675 0.9623
1.8876 8.6734 0.1549 0.9651
-2.3762 8.6789 0.1571 0.9646
-3.5381 8.6658 0.1634 0.9632
-8.1174 8.7349 0.2081 0.9534
-10.3523 8.7487 0.2366 0.9472
-13.3253 8.7543 0.2783 0.9382
-24.9112 8.8258 0.4613 0.8997
-56.4200 -15.0948 1.0194 0.7916
-74.8691 -30.0603 1.4082 0.7241
-20.7549 -31.1947 0.6540 0.8608
-5.4699 -15.1579 0.2813 0.9376
-7.1758 -31.2185 0.5591 0.8797
-4.2883 -40.4776 0.7105 0.8497
35.5888 -39.2016 0.9242 0.8091
36.0825 -24.3112 0.7594 0.8402
12.2941 8.6095 0.2620 0.9417
9.6135 8.6259 0.2255 0.9496
7.5630 8.6386 0.2004 0.9551
-0.0277 8.6852 0.1516 0.9659
-3.3042 8.6642 0.1619 0.9636
-4.5675 8.6732 0.1711 0.9615
-6.0327 8.7221 0.1851 0.9585
-7.7443 8.7326 0.2037 0.9544
33.5154 -79.4331 -1.5049 0.7083
28.9091 -50.5314 -1.0162 0.7922
33.6049 -27.7351 -0.7605 0.8400
26.2768 -16.8283 -0.5447 0.8826
72.1009 -24.6036 -1.3298 0.7373
30.3453 8.4985 -0.5501 0.8816
43.7764 18.1712 -0.8273 0.8273
11.7091 8.6131 -0.2537 0.9435
9.1773 8.6286 -0.2199 0.9509
7.2164 8.6407 -0.1965 0.9560
3.0084 8.6511 -0.1599 0.9640
-2.3705 8.6579 -0.1567 0.9647
-3.5209 8.6238 -0.1626 0.9634
-6.3393 8.7240 -0.1882 0.9578
-8.1174 8.7349 -0.2081 0.9534
-10.3523 8.7487 -0.2366 0.9472
-13.2945 8.7341 -0.2777 0.9383
-17.6146 8.7463 -0.3433 0.9243
-55.2794 12.3680 -0.9888 0.7972
-55.3213 5.5354 -0.9705 0.8006
-87.9478 -1.8168 -1.5355 0.7033
-73.8005 -10.4783 -1.3011 0.7421
-61.9883 -44.4948 -1.3319 0.7369
29.4144 -54.3111 -1.0781 0.7811
33.5967 -29.0698 -0.7755 0.8372
36.0825 -24.3112 -0.7594 0.8402
47.7025 -24.3826 -0.9351 0.8071
51.3771 19.9366 -0.9619 0.8021
36.8914 19.7031 -0.7300 0.8459
12.2941 8.6095 -0.2620 0.9417
7.5630 8.6386 -0.2004 0.9551
5.8713 8.6056 -0.1818 0.9592
4.4482 8.5789 -0.1687 0.9621
3.2343 8.6461 -0.1611 0.9637
1.0218 8.6788 -0.1525 0.9656
-1.0783 8.6816 -0.1527 0.9656
-3.2929 8.6346 -0.1613 0.9637
-4.5432 8.6271 -0.1702 0.9617
-6.0327 8.7221 -0.1851 0.9585
-7.7443 8.7326 -0.2037 0.9544
-12.6569 8.7438 -0.2685 0.9403
-16.6957 8.7805 -0.3293 0.9273
-23.1860 8.8275 -0.4331 0.9055
-87.7992 21.8026 -1.5791 0.6963
-22.1581 2.7396 -0.3897 0.9146
-4.1857 -20.3718 -1.0899 0.9201
-1.7707 -21.4769 -1.1294 0.9173
1.0519 -27.5795 -1.4464 0.8953
4.1186 -25.7659 -1.3675 0.9008
13.1412 -45.8921 -2.5018 0.8260
18.5574 -43.9819 -2.5018 0.8260
23.4002 -40.9021 -2.4696 0.8280
26.7750 -35.9589 -2.3496 0.8356
30.8996 -32.4832 -2.3496 0.8356
31.3003 -25.8330 -2.1269 0.8500
40.3842 -19.4695 -2.3496 0.8356
42.4301 -14.4787 -2.3496 0.8356
47.5515 -4.1993 -2.5018 0.8260
44.3109 6.8186 -2.3496 0.8356
30.3453 8.4985 -1.6515 0.8814
20.8077 8.6371 -1.1807 0.9137
9.1773 8.6286 -0.6602 0.9508
7.2164 8.6407 -0.5900 0.9559
5.5680 8.5838 -0.5362 0.9598
4.1807 8.5442 -0.4985 0.9626
1.8876 8.6734 -0.4652 0.9651
0.8175 8.6800 -0.4569 0.9657
-0.1559 5.8880 -0.3087 0.9767
-1.2828 8.6720 -0.4594 0.9655
-8.1174 8.7349 -0.6249 0.9534
-10.3523 8.7487 -0.7103 0.9472
-13.2945 8.7341 -0.8336 0.9383
-17.6123 8.7452 -1.0305 0.9243
-23.1299 8.1947 -1.2860 0.9064
-34.7177 3.4738 -1.8286 0.8696
-45.1658 -0.9331 -2.3675 0.8345
-41.8896 -5.9475 -2.2174 0.8441
-43.9381 -17.6413 -2.4814 0.8272
-38.7804 -27.8363 -2.5018 0.8260
-9.7813 -19.4145 -1.1393 0.9166
-5.4677 -15.1521 -0.8442 0.9375
0.3639 -24.5305 -1.2857 0.9064
6.4351 -47.3008 -2.5018 0.8260
22.7336 -41.9757 -2.5018 0.8260
25.9303 -36.5727 -2.3496 0.8356
31.8232 -27.5353 -2.2054 0.8449
39.9199 -20.4046 -2.3496 0.8356
42.0814 -15.4629 -2.3496 0.8356
46.4603 -10.9644 -2.5018 0.8260
44.4576 5.7849 -2.3496 0.8356
33.2441 8.4807 -1.7980 0.8716
22.0807 8.5683 -1.2413 0.9095
12.2941 8.6095 -0.7866 0.9417
3.2343 8.6461 -0.4838 0.9637
2.1000 8.6721 -0.4676 0.9649
1.0218 8.6788 -0.4580 0.9656
-2.1496 8.6359 -0.4664 0.9650
-3.2849 8.6135 -0.4831 0.9637
-7.7443 8.7326 -0.6117 0.9543
-9.8729 8.7457 -0.6912 0.9485
-34.5476 8.5790 -1.8656 0.8671
0.9963 -26.1231 -2.2871 0.9004
7.8719 -27.4904 -2.5018 0.8915
11.1163 -26.3461 -2.5018 0.8915
14.1998 -24.8205 -2.5018 0.8915
19.7086 -20.7187 -2.5018 0.8915
25.7581 -12.4181 -2.5018 0.8915
28.4844 -2.5155 -2.5018 0.8915
28.2138 4.3416 -2.4974 0.8917
25.8606 7.2425 -2.3496 0.8978
11.7091 8.6131 -1.2717 0.9433
9.1773 8.6286 -1.1021 0.9507
5.5621 8.5747 -0.8942 0.9598
4.1696 8.5215 -0.8300 0.9626
-0.1559 5.8868 -0.5152 0.9766
-2.3605 8.6214 -0.7820 0.9647
-3.5036 8.5813 -0.8109 0.9635
-4.8364 8.6870 -0.8699 0.9609
-17.4349 8.6571 -1.7030 0.9248
-26.2313 5.8689 -2.3517 0.8977
-21.2776 2.1290 -1.8708 0.9177
-27.6237 -7.3906 -2.5018 0.8915
-26.5363 -10.6544 -2.5018 0.8915
-25.0647 -13.7641 -2.5018 0.8915
-23.2304 -16.6746 -2.5018 0.8915
-21.0597 -19.3437 -2.5018 0.8915
-13.1954 -19.8327 -2.0841 0.9088
-9.7255 -19.3038 -1.8911 0.9169
-4.6157 -20.0809 -1.8027 0.9206
-2.2185 -20.9401 -1.8423 0.9189
3.6202 -26.6105 -2.3496 0.8978
7.2296 -27.6663 -2.5018 0.8915
10.4998 -26.5979 -2.5018 0.8915
21.6242 -18.7105 -2.5018 0.8915
26.8406 -9.8626 -2.5018 0.8915
27.8308 -6.5679 -2.5018 0.8915
28.3563 3.6897 -2.5018 0.8915
25.0367 9.7154 -2.3496 0.8978
12.2941 8.6095 -1.3131 0.9415
9.6135 8.6259 -1.1300 0.9495
7.5630 8.6386 -1.0045 0.9549
2.1000 8.6721 -0.7806 0.9648
-2.1484 8.6313 -0.7782 0.9649
-6.0327 8.7221 -0.9278 0.9583
-9.8729 8.7457 -1.1539 0.9484
-12.6569 8.7438 -1.3459 0.9401
-21.4538 8.1680 -2.0084 0.9119
3.0204 -18.8958 -2.3496 0.9258
5.6090 -19.5880 -2.5018 0.9212
10.1179 -17.6855 -2.5018 0.9212
12.1686 -16.3425 -2.5018 0.9212
14.0431 -14.7629 -2.5018 0.9212
17.1582 -10.9885 -2.5018 0.9212
18.3537 -8.8484 -2.5018 0.9212
19.9341 -4.2169 -2.5018 0.9212
20.1382 3.0989 -2.5018 0.9212
9.1773 8.6286 -1.5467 0.9505
4.1458 8.4729 -1.1582 0.9627
0.8175 8.6800 -1.0705 0.9655
-1.2812 8.6609 -1.0750 0.9653
-3.4866 8.5398 -1.1326 0.9635
-4.8364 8.6870 -1.2208 0.9607
-6.3393 8.7240 -1.3241 0.9575
-8.1174 8.7349 -1.4641 0.9531
-10.3523 8.7487 -1.6642 0.9468
-13.1934 8.6676 -1.9383 0.9384
-18.6740 4.1780 -2.3496 0.9258
-19.0406 1.9052 -2.3496 0.9258
-20.1729 -2.8642 -2.5018 0.9212
-19.6830 -5.2661 -2.5018 0.9212
-18.9081 -7.5917 -2.5018 0.9212
-16.5525 -11.8813 -2.5018 0.9212
-13.2420 -15.4855 -2.5018 0.9212
-8.6099 -17.0893 -2.3496 0.9258
-5.4187 -15.0162 -1.9601 0.9377
-4.2867 -18.6494 -2.3496 0.9258
2.5796 -18.9610 -2.3496 0.9258
5.1514 -19.7133 -2.5018 0.9212
13.6955 -15.0859 -2.5018 0.9212
16.8977 -11.3851 -2.5018 0.9212
18.1426 -9.2734 -2.5018 0.9212
19.1250 -7.0275 -2.5018 0.9212
20.2490 -2.2645 -2.5018 0.9212
9.1486 2.3339 -1.1593 0.9627
12.2941 8.6095 -1.8429 0.9413
4.3977 8.4815 -1.1731 0.9622
-0.0277 8.6852 -1.0664 0.9656
-2.1445 8.6153 -1.0901 0.9649
-3.2617 8.5528 -1.1239 0.9638
-6.0327 8.7221 -1.3021 0.9582
-9.8729 8.7457 -1.6195 0.9482
-16.6957 8.7805 -2.3162 0.9268
-18.9911 2.3481 -2.3496 0.9258
-1.2629 -15.3175 -2.4343 0.9397
0.6019 -15.7821 -2.5015 0.9380
2.4932 -15.5975 -2.5018 0.9380
9.4335 -12.6692 -2.5018 0.9380
15.4535 -3.2690 -2.5018 0.9380
15.7343 -1.3895 -2.5018 0.9380
15.7873 0.5101 -2.5018 0.9380
15.6118 2.4023 -2.5018 0.9380
7.2164 8.6407 -1.7831 0.9554
5.4699 8.4326 -1.5920 0.9601
4.1069 8.3933 -1.4800 0.9629
0.8175 8.6800 -1.3809 0.9653
-0.1558 5.8843 -0.9323 0.9764
-1.2749 8.6188 -1.3799 0.9653
-3.4561 8.4651 -1.4482 0.9636
-14.4767 3.2389 -2.3496 0.9417
-15.7170 1.5726 -2.5018 0.9380
-15.2588 -4.0824 -2.5018 0.9380
-13.8453 -7.6031 -2.5018 0.9380
-11.6330 -10.6851 -2.5018 0.9380
-10.2656 -12.0048 -2.5018 0.9380
-8.7496 -13.1507 -2.5018 0.9380
-7.1070 -14.1063 -2.5018 0.9380
-5.2650 -14.5904 -2.4567 0.9391
-1.6095 -15.1924 -2.4197 0.9400
0.2340 -15.7724 -2.4984 0.9381
2.1293 -15.6513 -2.5018 0.9380
3.9935 -15.2823 -2.5018 0.9380
5.7999 -14.6921 -2.5018 0.9380
9.1359 -12.8854 -2.5018 0.9380
10.6172 -11.6950 -2.5018 0.9380
11.9448 -10.3354 -2.5018 0.9380
13.0996 -8.8261 -2.5018 0.9380
14.0647 -7.1890 -2.5018 0.9380
15.3732 -3.6280 -2.5018 0.9380
15.7949 0.1423 -2.5018 0.9380
15.6634 2.0381 -2.5018 0.9380
8.2012 3.1825 -1.3933 0.9650
13.0852 6.9886 -2.3496 0.9417
12.1513 8.5095 -2.3496 0.9417
7.5630 8.6386 -1.8185 0.9546
5.7585 8.4403 -1.6183 0.9595
2.1000 8.6721 -1.4132 0.9645
1.0218 8.6788 -1.3841 0.9652
-2.1264 8.5428 -1.3943 0.9650
-3.2334 8.4786 -1.4372 0.9639
-4.3652 8.2890 -1.4838 0.9628
-7.7443 8.7326 -1.8486 0.9538
-9.8729 8.7457 -2.0890 0.9480
-13.8638 5.2783 -2.3496 0.9417
-14.3973 3.5752 -2.3496 0.9417
-15.6761 1.9382 -2.5018 0.9380
-2.5903 -12.6071 -2.5018 0.9489
-1.0575 -12.8269 -2.5018 0.9489
0.4905 -12.8611 -2.5018 0.9489
2.0315 -12.7091 -2.5018 0.9489
5.0033 -11.8581 -2.5018 0.9489
6.3912 -11.1714 -2.5018 0.9489
7.6865 -10.3231 -2.5018 0.9489
8.8706 -9.3253 -2.5018 0.9489
11.5935 -5.5893 -2.5018 0.9489
12.1808 -4.1565 -2.5018 0.9489
12.5918 -2.6637 -2.5018 0.9489
12.8637 0.4156 -2.5018 0.9489
12.7207 1.9575 -2.5018 0.9489
8.2492 2.3103 -1.6652 0.9657
8.1794 3.3952 -1.7214 0.9646
9.7369 7.1624 -2.3496 0.9519
8.8063 8.2798 -2.3496 0.9519
3.0084 8.6511 -1.7804 0.9634
1.8876 8.6734 -1.7254 0.9645
-4.4896 8.0640 -1.7940 0.9631
-6.3393 8.7240 -2.0962 0.9570
-12.5599 2.8101 -2.5018 0.9489
-12.8065 1.2814 -2.5018 0.9489
-12.8677 -0.2658 -2.5018 0.9489
-12.7427 -1.8092 -2.5018 0.9489
-9.4788 -8.7064 -2.5018 0.9489
-8.3646 -9.7817 -2.5018 0.9489
-7.1294 -10.7155 -2.5018 0.9489
-4.3687 -12.1063 -2.5018 0.9489
-2.8832 -12.5434 -2.5018 0.9489
-1.3560 -12.7988 -2.5018 0.9489
3.2540 -12.4523 -2.5018 0.9489
4.7258 -11.9714 -2.5018 0.9489
6.1293 -11.3173 -2.5018 0.9489
8.6511 -9.5293 -2.5018 0.9489
10.6738 -7.1916 -2.5018 0.9489
11.4602 -5.8577 -2.5018 0.9489
12.0807 -4.4391 -2.5018 0.9489
12.7907 -1.4304 -2.5018 0.9489
12.8699 0.1160 -2.5018 0.9489
12.7629 1.6607 -2.5018 0.9489
8.1330 3.1560 -1.6958 0.9651
9.9011 6.9337 -2.3496 0.9519
7.5630 8.6386 -2.2318 0.9543
4.2747 8.2443 -1.8051 0.9629
3.2343 8.6461 -1.7944 0.9631
-0.0277 8.6852 -1.6882 0.9652
-2.1084 8.4706 -1.6968 0.9651
-4.2793 8.1259 -1.7851 0.9633
-7.7438 8.7321 -2.2686 0.9536
-9.0480 8.0150 -2.3496 0.9519
-12.7732 1.5793 -2.5018 0.9489
-2.1809 -10.6146 -2.5018 0.9565
-0.8904 -10.7997 -2.5018 0.9565
1.7104 -10.7005 -2.5018 0.9565
2.9831 -10.4176 -2.5018 0.9565
4.2126 -9.9840 -2.5018 0.9565
6.4717 -8.6915 -2.5018 0.9565
7.4687 -7.8514 -2.5018 0.9565
9.1254 -5.8441 -2.5018 0.9565
9.7612 -4.7059 -2.5018 0.9565
10.6017 -2.2427 -2.5018 0.9565
10.8307 0.3499 -2.5018 0.9565
8.1877 2.2931 -1.9630 0.9657
7.4145 6.9712 -2.3496 0.9591
6.5236 7.8112 -2.3496 0.9591
5.5384 8.5381 -2.3496 0.9591
3.0084 8.6511 -2.1146 0.9631
1.8876 8.6734 -2.0493 0.9642
0.8175 8.6800 -2.0128 0.9648
-0.1558 5.8818 -1.3584 0.9761
-1.2749 8.6188 -2.0115 0.9649
-3.3527 8.2117 -2.0477 0.9642
-4.8364 8.6870 -2.2954 0.9600
-5.9825 8.2330 -2.3496 0.9591
-7.7731 6.5690 -2.3496 0.9591
-8.5057 5.5880 -2.3496 0.9591
-10.1968 3.6126 -2.4975 0.9566
-10.7825 1.0789 -2.5018 0.9565
-10.7287 -1.5233 -2.5018 0.9565
-10.0561 -4.0376 -2.5018 0.9565
-9.4984 -5.2160 -2.5018 0.9565
-8.8033 -6.3189 -2.5018 0.9565
-7.9807 -7.3304 -2.5018 0.9565
-7.0426 -8.2358 -2.5018 0.9565
-4.8757 -9.6775 -2.5018 0.9565
-1.1417 -10.7760 -2.5018 0.9565
0.1607 -10.8351 -2.5018 0.9565
1.4608 -10.7374 -2.5018 0.9565
6.2676 -8.8399 -2.5018 0.9565
7.2838 -8.0232 -2.5018 0.9565
9.6489 -4.9320 -2.5018 0.9565
10.5466 -2.4889 -2.5018 0.9565
10.7457 1.3983 -2.5018 0.9565
8.1149 3.1489 -2.0096 0.9649
8.3362 5.8378 -2.3496 0.9591
3.2343 8.6461 -2.1312 0.9628
2.1000 8.6721 -2.0600 0.9640
1.0218 8.6788 -2.0175 0.9648
-2.1069 8.4645 -2.0138 0.9648
-4.5878 8.7117 -2.2731 0.9604
-5.7892 8.3701 -2.3496 0.9591
-6.7525 7.6143 -2.3496 0.9591
-7.6180 6.7483 -2.3496 0.9591
-8.3733 5.7845 -2.3496 0.9591
-9.0074 4.7371 -2.3496 0.9591
-10.0736 3.8353 -2.4885 0.9567
-10.5169 2.6116 -2.5018 0.9565
1.4737 -9.2197 -2.5018 0.9621
3.6296 -8.6023 -2.5018 0.9621
4.6364 -8.1042 -2.5018 0.9621
7.2009 -5.9431 -2.5018 0.9621
7.8625 -5.0354 -2.5018 0.9621
8.4103 -4.0547 -2.5018 0.9621
8.8364 -3.0153 -2.5018 0.9621
8.6233 3.5795 -2.5018 0.9621
8.0433 4.5397 -2.4748 0.9625
7.0635 5.1958 -2.3496 0.9643
5.6208 6.7302 -2.3496 0.9643
4.7719 7.3566 -2.3496 0.9643
3.8539 7.8764 -2.3496 0.9643
2.8801 8.2822 -2.3496 0.9643
1.8647 8.5681 -2.3496 0.9643
-0.1557 5.8805 -1.5762 0.9759
-1.2832 8.6743 -2.3496 0.9643
-5.1546 7.0937 -2.3496 0.9643
-5.9692 6.4233 -2.3496 0.9643
-6.6974 5.6599 -2.3496 0.9643
-7.3286 4.8147 -2.3496 0.9643
-8.8007 3.1180 -2.5018 0.9621
-9.1115 2.0385 -2.5018 0.9621
-9.2903 0.9296 -2.5018 0.9621
-8.6644 -3.4788 -2.5018 0.9621
-8.1839 -4.4942 -2.5018 0.9621
-6.0680 -7.0960 -2.5018 0.9621
-5.1719 -7.7734 -2.5018 0.9621
-4.2009 -8.3383 -2.5018 0.9621
-3.1692 -8.7824 -2.5018 0.9621
-2.0916 -9.0994 -2.5018 0.9621
0.1385 -9.3357 -2.5018 0.9621
1.2586 -9.2515 -2.5018 0.9621
4.4464 -8.2100 -2.5018 0.9621
5.4002 -7.6166 -2.5018 0.9621
7.0606 -6.1092 -2.5018 0.9621
7.7431 -5.2171 -2.5018 0.9621
8.3136 -4.2494 -2.5018 0.9621
8.7638 -3.2203 -2.5018 0.9621
9.0871 -2.1445 -2.5018 0.9621
9.2789 -1.0377 -2.5018 0.9621
9.3363 0.0841 -2.5018 0.9621
9.2587 1.2048 -2.5018 0.9621
9.0470 2.3079 -2.5018 0.9621
8.2188 4.3895 -2.4966 0.9621
6.5266 5.8561 -2.3496 0.9643
4.9419 7.2434 -2.3496 0.9643
1.0253 8.7086 -2.3496 0.9643
-2.1180 8.5091 -2.3496 0.9643
-4.0859 7.7586 -2.3496 0.9643
-4.9880 7.2118 -2.3496 0.9643
-8.7257 3.3221 -2.5018 0.9621
-9.0615 2.2502 -2.5018 0.9621
-9.2662 1.1457 -2.5018 0.9621
