ply
format ascii 1.0
element vertex 668
property float32 x
property float32 y
property float32 z
property float32 I
end_header
48.3623 19.1324 13.9358 0.8062
35.3666 25.1592 11.6297 0.8355
36.4160 33.1931 13.2029 0.8154
35.4653 41.1896 14.5641 0.7984
3.8499 5.7492 1.8540 0.9718
-10.1917 25.7865 7.4296 0.8915
-16.4822 23.1850 7.6222 0.8889
-21.6087 23.7221 8.5981 0.8756
-53.3968 -13.9343 14.7868 0.7957
-46.8848 -25.4234 14.2908 0.8018
-16.7880 -33.0584 9.9347 0.8577
-6.4797 -27.8903 7.6722 0.8882
36.3969 19.7061 11.0902 0.8425
36.4155 33.1071 13.1873 0.8156
-7.9139 30.4464 8.4292 0.8779
-12.8387 23.7310 7.2296 0.8943
-16.4372 23.1847 7.6152 0.8890
-21.5782 23.7498 8.5981 0.8756
60.6659 -30.7344 15.7006 0.7564
48.3623 19.1324 12.0073 0.8077
10.5193 5.7129 2.7636 0.9520
35.3666 25.1592 10.0203 0.8368
36.4161 33.1931 11.3758 0.8169
35.4653 41.1896 12.5486 0.8000
3.8494 5.7485 1.5972 0.9720
-7.9149 30.2904 7.2279 0.8794
-16.4822 23.1850 6.5674 0.8898
-50.5680 55.5138 17.3365 0.7347
-56.2631 -14.6824 13.4244 0.7876
-16.0566 -31.6183 8.1870 0.8645
-9.1976 -25.2688 6.2082 0.8955
-6.5704 -28.2806 6.7030 0.8876
28.3923 -39.9929 11.3233 0.8176
60.6615 -30.8301 15.7097 0.7563
10.5512 5.7127 2.7701 0.9519
35.3661 25.0905 10.0110 0.8369
36.4155 33.1072 11.3623 0.8171
35.4646 41.0821 12.5297 0.8003
3.8547 5.7404 1.5963 0.9720
-7.9139 30.4465 7.2627 0.8788
-12.8387 23.7310 6.2291 0.8951
-16.4372 23.1847 6.5613 0.8899
-61.9835 53.5428 18.9097 0.7144
34.6339 -87.4645 18.2857 0.6816
39.3372 -43.1289 11.3467 0.7883
51.7882 -44.5620 13.2803 0.7570
64.8892 -43.4219 15.1767 0.7275
60.0148 -30.4045 13.0773 0.7602
60.9359 15.9435 12.2435 0.7736
48.3624 19.1325 10.1096 0.8090
36.4161 33.1931 9.5779 0.8181
3.8489 5.7477 1.3446 0.9722
4.3898 8.6580 1.8869 0.9612
3.1479 8.6657 1.7921 0.9631
0.9265 8.6392 1.6889 0.9652
-2.2731 8.6990 1.7477 0.9640
-4.7289 8.7141 1.9272 0.9604
-76.9743 27.9900 15.9208 0.7162
-77.7154 8.3594 15.1935 0.7272
-55.4541 -14.4712 11.1402 0.7917
-63.2097 -34.2757 13.9769 0.7460
-22.5475 -33.6245 7.8694 0.8479
-16.7880 -33.0584 7.2070 0.8598
-3.6377 -33.7171 6.5920 0.8709
28.0305 -39.4833 9.4122 0.8209
39.2248 -43.1166 11.3303 0.7886
51.6322 -44.5433 13.2549 0.7574
64.6664 -43.3931 15.1376 0.7281
62.1280 -31.5754 13.5466 0.7528
60.9354 15.8599 12.2393 0.7737
48.5417 19.1314 10.1419 0.8085
36.3969 19.7061 8.0452 0.8448
36.3965 42.1615 10.8267 0.7970
3.1605 8.6656 1.7930 0.9631
-0.1102 8.6857 1.6885 0.9652
-1.1673 8.6922 1.7048 0.9649
-2.2611 8.6989 1.7471 0.9640
-3.4280 8.7061 1.8188 0.9626
-16.4372 23.1847 5.5243 0.8906
-76.9080 28.0778 15.9145 0.7163
31.1196 -78.5895 13.3877 0.7101
28.0336 -39.3804 7.6562 0.8222
67.8706 -24.6304 11.4356 0.7465
61.3867 16.0615 10.0500 0.7734
36.2868 19.7068 6.5401 0.8460
36.3710 25.8737 7.0695 0.8346
36.4161 33.1931 7.8042 0.8191
3.8484 5.7470 1.0955 0.9724
2.0091 8.6727 1.4100 0.9646
-2.2731 8.6990 1.4240 0.9642
-4.7289 8.7141 1.5703 0.9606
-7.9558 8.7339 1.8712 0.9533
-78.9696 8.4943 12.5797 0.7249
-81.6032 -11.0390 13.0424 0.7164
-55.4476 -39.3908 10.7726 0.7592
-9.2068 -25.2941 4.2633 0.8967
-7.3489 -31.6316 5.1434 0.8768
-3.4127 -31.6320 5.0391 0.8791
23.9711 -44.2402 7.9694 0.8156
29.8576 -42.0569 8.1691 0.8115
50.8503 -43.8687 10.6368 0.7619
61.1495 -31.0781 10.8642 0.7575
67.5952 -24.6287 11.3945 0.7472
61.3861 15.9772 10.0465 0.7735
48.5418 19.1314 8.2638 0.8095
36.3969 19.7061 6.5554 0.8457
36.3706 25.8031 7.0630 0.8348
36.4156 33.1072 7.7950 0.8193
7.4579 8.6392 1.8076 0.9548
3.8537 5.7389 1.0949 0.9724
2.0208 8.6726 1.4104 0.9646
-1.1673 8.6922 1.3891 0.9651
-6.1844 8.7230 1.6936 0.9576
-7.9352 8.7338 1.8690 0.9533
-61.9834 53.5427 12.9728 0.7177
-79.0005 8.6003 12.5864 0.7248
28.2223 -39.6455 5.9753 0.8219
63.1806 -42.2786 9.3342 0.7361
67.6164 -7.2292 8.3496 0.7603
67.6668 0.9674 8.3093 0.7613
48.3625 19.1325 6.3860 0.8109
36.2867 19.7068 5.0701 0.8467
12.1041 8.6106 1.8239 0.9419
9.4645 8.6269 1.5724 0.9497
7.4387 8.6393 1.3998 0.9551
3.8483 5.7469 0.8492 0.9725
4.3898 8.6580 1.1919 0.9616
-1.1787 8.6923 1.0770 0.9653
-2.2731 8.6990 1.1040 0.9644
-13.0808 8.7654 1.9334 0.9385
-62.5773 -33.9328 8.7405 0.7506
-22.4686 -33.5070 4.9535 0.8499
-16.7880 -33.0584 4.5525 0.8612
-9.2198 -25.3296 3.3097 0.8971
-7.8275 -33.6915 4.2470 0.8699
-3.6377 -33.7171 4.1640 0.8723
30.0779 -76.2445 10.0638 0.7187
28.1641 -39.6714 5.9737 0.8220
38.3785 -42.1865 7.0026 0.7947
63.0040 -42.2776 9.3162 0.7366
60.6012 -30.7995 8.3467 0.7604
65.1252 -23.7287 8.5106 0.7563
61.1357 15.9120 7.7566 0.7752
48.5418 19.1314 6.4064 0.8104
36.3969 19.7061 5.0819 0.8464
12.1368 8.6104 1.8271 0.9418
9.4888 8.6267 1.5746 0.9496
3.1605 8.6656 1.1326 0.9635
-1.1673 8.6922 1.0768 0.9653
-2.2611 8.6989 1.1036 0.9644
-4.7143 8.7140 1.2165 0.9609
-6.1844 8.7230 1.3129 0.9578
-7.9352 8.7338 1.4489 0.9536
-10.1262 8.7473 1.6430 0.9475
-13.0442 8.7652 1.9296 0.9386
5.2758 -38.7193 3.4188 0.8548
25.2382 -96.3339 8.7126 0.6704
30.4228 -76.8298 7.2295 0.7176
23.7232 -43.6489 4.3464 0.8192
27.9990 -39.3318 4.2239 0.8238
38.4781 -42.1870 4.9955 0.7951
63.1806 -42.2786 6.6510 0.7369
65.0432 -15.0454 5.8408 0.7649
65.0929 -6.9594 5.7273 0.7689
61.1363 15.9960 5.5288 0.7759
15.8131 8.5878 1.5743 0.9303
9.4645 8.6269 1.1204 0.9499
7.4387 8.6393 0.9974 0.9553
3.8483 5.7468 0.6051 0.9726
3.1479 8.6657 0.8066 0.9637
-0.1214 8.6858 0.7600 0.9657
-1.1787 8.6923 0.7674 0.9654
-2.2731 8.6990 0.7866 0.9645
-3.4410 8.7062 0.8190 0.9631
-6.2013 8.7231 0.9364 0.9579
-17.3258 8.7915 1.6998 0.9250
-9.2426 -25.3924 2.3641 0.8972
-3.4191 -31.6906 2.7887 0.8799
27.9436 -39.3609 4.2232 0.8238
63.0040 -42.2776 6.6381 0.7374
64.9901 -23.6795 6.0516 0.7575
48.5418 19.1314 4.5648 0.8110
15.8611 8.5875 1.5780 0.9301
7.4579 8.6392 0.9985 0.9552
4.4037 8.6580 0.8498 0.9617
3.1605 8.6656 0.8070 0.9636
0.9390 8.6516 0.7614 0.9657
-0.1102 8.6857 0.7600 0.9657
-1.1673 8.6922 0.7673 0.9654
-3.4280 8.7061 0.8186 0.9631
-6.1844 8.7230 0.9355 0.9580
-13.0442 8.7652 1.3749 0.9388
-17.2701 8.7912 1.6954 0.9251
5.2753 -38.7158 2.0476 0.8551
30.5586 -77.1727 4.3500 0.7172
38.4781 -42.1870 2.9924 0.7956
63.1806 -42.2786 3.9841 0.7375
61.1003 -30.9545 3.5896 0.7601
67.8339 -15.6910 3.6489 0.7566
69.2305 -7.4018 3.6489 0.7566
69.6179 0.9953 3.6489 0.7566
54.5884 7.4202 2.8872 0.8020
48.3625 19.1325 2.7257 0.8119
15.8131 8.5878 0.9431 0.9305
7.4387 8.6393 0.5975 0.9554
3.8482 5.7467 0.3625 0.9727
3.1467 8.6622 0.4830 0.9638
0.9265 8.6392 0.4554 0.9658
-0.1213 8.6799 0.4549 0.9658
-1.1773 8.6821 0.4592 0.9655
-3.4410 8.7062 0.4906 0.9632
-7.9558 8.7339 0.6192 0.9538
-10.1527 8.7474 0.7023 0.9477
-17.3258 8.7915 1.0182 0.9251
-24.2950 8.8343 1.3548 0.9016
-62.6152 -33.9533 3.7329 0.7518
-21.1590 -31.5540 1.9911 0.8588
-9.2654 -25.4551 1.4197 0.8972
-3.6052 -33.4156 1.7614 0.8740
22.8502 -87.6780 4.7485 0.6956
28.5947 -40.2781 2.5887 0.8205
48.1543 -41.5429 3.3330 0.7751
63.0040 -42.2776 3.9764 0.7379
61.0997 -31.0528 3.5919 0.7599
53.8753 -19.6298 3.0051 0.7948
54.6262 7.3539 2.8887 0.8019
48.5418 19.1314 2.7344 0.8114
7.4579 8.6392 0.5981 0.9553
3.8535 5.7387 0.3623 0.9727
2.0169 8.6559 0.4658 0.9650
0.9390 8.6516 0.4561 0.9657
-0.1102 8.6798 0.4549 0.9658
-1.1660 8.6821 0.4591 0.9655
-3.4280 8.7061 0.4904 0.9632
-4.7143 8.7140 0.5192 0.9611
-7.9352 8.7338 0.6184 0.9538
-13.0442 8.7652 0.8236 0.9390
-17.2701 8.7912 1.0156 0.9253
-24.1965 8.8337 1.3500 0.9020
-79.0176 18.4383 4.2524 0.7225
5.2747 -38.7112 0.6819 0.8553
31.0287 -57.0904 1.1342 0.7711
35.7519 -39.1980 0.9260 0.8088
35.2136 -30.3002 0.8109 0.8304
48.1335 -24.3852 0.9418 0.8058
54.6834 7.4331 0.9633 0.8019
16.2742 8.8383 0.3233 0.9286
12.1041 8.6106 0.2593 0.9423
9.4645 8.6269 0.2235 0.9501
-0.1211 8.6647 0.1513 0.9659
-1.1755 8.6686 0.1527 0.9656
-3.4410 8.7062 0.1634 0.9632
-6.2013 8.7231 0.1868 0.9581
-10.1527 8.7474 0.2339 0.9478
-79.0417 18.3370 1.4163 0.7228
-16.7880 -33.0584 0.6472 0.8621
-12.8769 -35.3769 0.6571 0.8602
1.1415 -85.6120 1.4945 0.7100
25.6986 -47.4285 0.9416 0.8059
35.6590 -39.1971 0.9249 0.8090
35.2141 -30.3793 0.8118 0.8302
47.9787 -24.3843 0.9394 0.8063
51.4796 -18.7569 0.9564 0.8032
54.6790 7.3610 0.9630 0.8019
32.5991 8.4847 0.5880 0.8739
16.2881 8.8188 0.3233 0.9286
12.1368 8.6104 0.2597 0.9422
9.4888 8.6267 0.2238 0.9500
7.4425 8.6214 0.1988 0.9555
3.8535 5.7387 0.1207 0.9727
4.4037 8.6580 0.1695 0.9619
-0.1100 8.6646 0.1513 0.9659
-2.2502 8.6569 0.1561 0.9648
-6.1844 8.7230 0.1866 0.9581
-7.9352 8.7338 0.2060 0.9539
-10.1262 8.7473 0.2336 0.9479
-13.0168 8.7468 0.2737 0.9392
0.3213 -21.9780 -0.3837 0.9158
5.2737 -38.7040 -0.6818 0.8553
35.2205 -30.3061 -0.8110 0.8304
50.5138 -18.3316 -0.9380 0.8066
0.9265 8.6392 -0.1517 0.9658
-0.1208 8.6445 -0.1509 0.9660
-3.4410 8.7062 -0.1634 0.9632
-4.7289 8.7141 -0.1731 0.9611
-7.9558 8.7339 -0.2062 0.9538
-12.9997 8.7111 -0.2731 0.9393
-79.0293 18.3341 -1.4161 0.7228
-53.6884 5.7750 -0.9425 0.8057
-72.3309 -9.7847 -1.2740 0.7468
-54.4956 -14.2211 -0.9831 0.7983
-72.3311 -28.5609 -1.3574 0.7326
-56.2143 -51.1731 -1.3269 0.7378
-4.5347 -19.5183 -0.3498 0.9230
-2.2428 -20.7883 -0.3650 0.9198
31.8120 -80.6403 -1.5131 0.7069
25.6943 -47.4205 -0.9414 0.8059
26.0211 -36.6529 -0.7846 0.8354
35.2200 -30.3844 -0.8119 0.8302
36.2310 -24.3121 -0.7616 0.8398
47.9787 -24.3843 -0.9394 0.8063
50.5092 -18.4033 -0.9383 0.8065
3.1605 8.6656 -0.1610 0.9638
-0.1097 8.6444 -0.1509 0.9660
-3.4280 8.7061 -0.1633 0.9633
-4.7143 8.7140 -0.1729 0.9611
-6.1844 8.7230 -0.1866 0.9581
-12.9661 8.7127 -0.2727 0.9394
-24.1965 8.8337 -0.4496 0.9021
-53.6880 5.8447 -0.9427 0.8057
0.3173 -21.7060 -1.1377 0.9167
5.2594 -38.5994 -2.0416 0.8555
17.5745 -44.3826 -2.5017 0.8260
22.7951 -41.9412 -2.5017 0.8260
25.9992 -36.5226 -2.3495 0.8356
30.2111 -33.1232 -2.3495 0.8356
36.1745 -24.2069 -2.2811 0.8400
42.1422 -15.2935 -2.3495 0.8356
47.4650 -5.0747 -2.5017 0.8260
47.7307 0.6824 -2.5017 0.8260
44.4229 6.0384 -2.3495 0.8356
32.4322 8.4857 -1.7569 0.8743
16.1688 8.7810 -0.9643 0.9290
12.1041 8.6106 -0.7785 0.9422
9.4645 8.6269 -0.6711 0.9500
7.3820 8.5735 -0.5929 0.9557
3.8481 5.7466 -0.3625 0.9727
4.3898 8.6580 -0.5087 0.9619
3.1479 8.6657 -0.4832 0.9637
2.0091 8.6727 -0.4666 0.9650
0.9265 8.6392 -0.4554 0.9658
-0.1207 8.6399 -0.4528 0.9660
-1.1700 8.6282 -0.4563 0.9657
-2.2411 8.5769 -0.4646 0.9651
-3.4410 8.7062 -0.4906 0.9632
-4.7289 8.7141 -0.5196 0.9611
-6.2013 8.7231 -0.5609 0.9580
-10.1527 8.7474 -0.7023 0.9477
-12.9490 8.6772 -0.8169 0.9395
-21.5007 7.8183 -1.1990 0.9124
-45.1303 4.8544 -2.3788 0.8338
-45.2597 -0.6180 -2.3722 0.8342
-39.4620 -5.3382 -2.0870 0.8526
-41.9632 -22.7547 -2.5017 0.8260
-38.9151 -27.6459 -2.5017 0.8260
-35.2998 -32.1342 -2.5017 0.8260
-29.2737 -33.9545 -2.3495 0.8356
-10.0373 -19.7652 -1.1618 0.9150
-6.9942 -19.2154 -1.0717 0.9214
-4.4589 -19.1921 -1.0326 0.9241
-2.2013 -20.4037 -1.0755 0.9211
22.7412 -41.9705 -2.5017 0.8260
25.9523 -36.5559 -2.3495 0.8356
30.1686 -33.1619 -2.3495 0.8356
33.9451 -29.2845 -2.3495 0.8356
36.0733 -24.2063 -2.2767 0.8403
42.1225 -15.3475 -2.3495 0.8356
46.4937 -10.8175 -2.5017 0.8260
47.4585 -5.1356 -2.5017 0.8260
44.4306 5.9814 -2.3495 0.8356
21.7430 8.5694 -1.2248 0.9106
7.4020 8.5745 -0.5936 0.9556
3.8534 5.7385 -0.3623 0.9727
2.0208 8.6726 -0.4667 0.9650
0.9390 8.6516 -0.4561 0.9657
-2.2295 8.5774 -0.4645 0.9651
-3.4280 8.7061 -0.4904 0.9632
-6.1844 8.7230 -0.5604 0.9581
-10.1262 8.7473 -0.7013 0.9478
-12.9156 8.6788 -0.8155 0.9396
-17.0645 8.6865 -1.0035 0.9262
-20.9396 2.2796 -1.1039 0.9191
0.3132 -21.4276 -1.8749 0.9176
3.6257 -26.6092 -2.3495 0.8978
10.5275 -26.5862 -2.5017 0.8915
23.7647 -15.9027 -2.5017 0.8915
25.5080 -12.9228 -2.5017 0.8915
26.8795 -9.7546 -2.5017 0.8915
28.5918 0.4088 -2.5017 0.8915
28.3342 3.8515 -2.5017 0.8915
16.2742 8.8383 -1.6202 0.9283
12.1041 8.6106 -1.2996 0.9421
4.3898 8.6580 -0.8493 0.9618
-0.1207 8.6399 -0.7560 0.9659
-2.2358 8.5565 -0.7737 0.9651
-3.4410 8.7062 -0.8190 0.9631
-4.7289 8.7141 -0.8674 0.9610
-7.9558 8.7339 -1.0336 0.9537
-16.8372 8.5436 -1.6519 0.9270
-20.9432 2.2528 -1.8429 0.9189
-28.0416 -3.7933 -2.4757 0.8926
-27.6681 -7.2202 -2.5017 0.8915
-23.3111 -16.5605 -2.5017 0.8915
-21.1454 -19.2491 -2.5017 0.8915
-14.2167 -21.2012 -2.2333 0.9026
-9.9253 -19.5447 -1.9178 0.9157
0.2855 -21.4129 -1.8736 0.9176
7.2114 -27.6704 -2.5017 0.8915
10.4934 -26.5997 -2.5017 0.8915
13.6225 -25.1413 -2.5017 0.8915
25.4914 -12.9555 -2.5017 0.8915
27.8508 -6.4800 -2.5017 0.8915
28.4287 -3.0764 -2.5017 0.8915
25.9892 6.7643 -2.3495 0.8978
24.9846 9.8470 -2.3495 0.8978
16.2881 8.8188 -1.6205 0.9283
12.1368 8.6104 -1.3019 0.9420
9.4888 8.6267 -1.1220 0.9498
3.8534 5.7385 -0.6047 0.9726
4.4037 8.6580 -0.8498 0.9617
2.0208 8.6726 -0.7791 0.9649
0.9390 8.6516 -0.7614 0.9657
-1.1561 8.6086 -0.7599 0.9657
-2.2242 8.5570 -0.7735 0.9651
-3.4280 8.7061 -0.8186 0.9631
-10.1262 8.7473 -1.1707 0.9477
-21.5006 7.8495 -2.0025 0.9122
-26.2126 6.1166 -2.3549 0.8976
2.5834 -18.9601 -2.3495 0.9258
7.5013 -18.9437 -2.5017 0.9212
11.8160 -16.5987 -2.5017 0.9212
13.7302 -15.0537 -2.5017 0.9212
15.4443 -13.2893 -2.5017 0.9212
19.8507 -4.5917 -2.5017 0.9212
9.6466 2.5240 -1.2243 0.9606
12.1041 8.6106 -1.8239 0.9419
7.3057 8.4849 -1.3748 0.9559
3.8481 5.7465 -0.8492 0.9725
3.1479 8.6657 -1.1320 0.9635
-3.4410 8.7062 -1.1494 0.9630
-4.7289 8.7141 -1.2173 0.9608
-7.9558 8.7339 -1.4506 0.9535
-10.1527 8.7474 -1.6455 0.9474
-12.6447 8.4732 -1.8689 0.9405
-17.9832 6.5392 -2.3495 0.9258
-18.6402 4.3244 -2.3495 0.9258
-20.3729 -0.2782 -2.5017 0.9212
-18.9509 -7.4830 -2.5017 0.9212
-10.9256 -16.2931 -2.4087 0.9240
-4.3303 -18.6388 -2.3495 0.9258
2.5591 -18.9634 -2.3495 0.9258
7.4770 -18.9533 -2.5017 0.9212
11.7947 -16.6138 -2.5017 0.9212
13.7109 -15.0713 -2.5017 0.9212
15.4273 -13.3091 -2.5017 0.9212
16.9187 -11.3530 -2.5017 0.9212
18.1636 -9.2313 -2.5017 0.9212
19.1437 -6.9751 -2.5017 0.9212
20.3731 0.2651 -2.5017 0.9212
20.1927 2.7184 -2.5017 0.9212
17.8025 7.0164 -2.3495 0.9258
16.2881 8.8188 -2.2742 0.9281
12.1368 8.6104 -1.8271 0.9418
7.3252 8.4854 -1.3764 0.9558
4.4037 8.6580 -1.1927 0.9616
2.0208 8.6726 -1.0934 0.9647
0.9390 8.6516 -1.0685 0.9655
-0.1096 8.6321 -1.0600 0.9658
-3.4280 8.7061 -1.1489 0.9630
-4.7143 8.7140 -1.2165 0.9609
-12.6130 8.4755 -1.8658 0.9406
-17.9748 6.5623 -2.3495 0.9258
-18.6347 4.3483 -2.3495 0.9258
-18.6800 2.0336 -2.3072 0.9271
2.1325 -15.6505 -2.5017 0.9380
7.5427 -13.8779 -2.5017 0.9380
11.9729 -10.3023 -2.5017 0.9380
15.3888 -3.5596 -2.5017 0.9380
9.1217 2.3866 -1.4934 0.9625
13.0359 7.0796 -2.3495 0.9417
12.0877 8.5990 -2.3495 0.9417
7.2236 8.3895 -1.7535 0.9562
4.3898 8.6580 -1.5375 0.9614
2.0091 8.6727 -1.4100 0.9646
-1.1538 8.5089 -1.3600 0.9658
-3.4410 8.7062 -1.4827 0.9628
-4.7289 8.7141 -1.5703 0.9606
-6.2013 8.7231 -1.6952 0.9576
-13.2286 6.7125 -2.3495 0.9417
-15.2834 -3.9883 -2.5017 0.9380
-14.6913 -5.8011 -2.5017 0.9380
-13.8852 -7.5293 -2.5017 0.9380
-12.8766 -9.1477 -2.5017 0.9380
-3.3937 -14.6075 -2.3752 0.9411
-1.5949 -14.7826 -2.3549 0.9416
0.2035 -15.2661 -2.4181 0.9400
5.7964 -14.6932 -2.5017 0.9380
7.5248 -13.8876 -2.5017 0.9380
9.1436 -12.8795 -2.5017 0.9380
11.9597 -10.3176 -2.5017 0.9380
9.1255 2.3751 -1.4935 0.9625
9.1560 3.6086 -1.5587 0.9609
9.4888 8.6267 -2.0311 0.9494
3.8533 5.7384 -1.0948 0.9724
3.1605 8.6656 -1.4609 0.9633
2.0208 8.6726 -1.4104 0.9646
0.9390 8.6516 -1.3783 0.9654
-0.1086 8.5608 -1.3560 0.9659
-1.1428 8.5095 -1.3599 0.9658
-3.4280 8.7061 -1.4820 0.9628
-4.7143 8.7140 -1.5692 0.9607
-6.1844 8.7230 -1.6936 0.9576
-7.9352 8.7338 -1.8690 0.9533
-10.1262 8.7473 -2.1194 0.9473
-13.2200 6.7295 -2.3495 0.9417
-13.9346 5.0873 -2.3495 0.9417
-14.4462 3.3709 -2.3495 0.9417
-15.6911 1.7082 -2.4999 0.9381
0.1881 -12.8688 -2.5017 0.9489
3.2617 -12.4500 -2.5017 0.9489
6.1459 -11.3079 -2.5017 0.9489
7.4638 -10.4849 -2.5017 0.9489
9.7557 -8.3945 -2.5017 0.9489
10.6963 -7.1576 -2.5017 0.9489
11.4809 -5.8164 -2.5017 0.9489
12.5391 -2.9005 -2.5017 0.9489
12.7973 -1.3682 -2.5017 0.9489
9.0500 2.3679 -1.8184 0.9626
9.0554 3.5824 -1.8929 0.9611
8.9331 8.1425 -2.3495 0.9519
7.8867 9.1597 -2.3495 0.9519
3.8480 5.7464 -1.3443 0.9722
3.1479 8.6657 -1.7921 0.9631
2.0091 8.6727 -1.7304 0.9644
-1.1442 8.4382 -1.6552 0.9659
-2.1725 8.3140 -1.6703 0.9656
-3.4410 8.7062 -1.8197 0.9626
-4.7289 8.7141 -1.9272 0.9604
-6.2013 8.7231 -2.0804 0.9573
-8.1396 8.9357 -2.3495 0.9519
-9.1572 7.8897 -2.3495 0.9519
-10.7789 5.4695 -2.3495 0.9519
-11.3595 4.1306 -2.3495 0.9519
-12.5053 2.9011 -2.4953 0.9490
-12.7964 1.3764 -2.5017 0.9489
-12.4532 -3.2498 -2.5017 0.9489
-11.9708 -4.7268 -2.5017 0.9489
-11.3139 -6.1350 -2.5017 0.9489
-9.5173 -8.6638 -2.5017 0.9489
-8.4039 -9.7476 -2.5017 0.9489
-7.1679 -10.6894 -2.5017 0.9489
-5.8275 -11.4753 -2.5017 0.9489
-2.9125 -12.5363 -2.5017 0.9489
-1.3805 -12.7959 -2.5017 0.9489
4.7230 -11.9723 -2.5017 0.9489
6.1314 -11.3158 -2.5017 0.9489
12.0925 -4.4060 -2.5017 0.9489
12.5354 -2.9166 -2.5017 0.9489
10.6293 5.7549 -2.3495 0.9519
9.8583 6.9940 -2.3495 0.9519
8.9435 8.1310 -2.3495 0.9519
7.8985 9.1496 -2.3495 0.9519
0.9390 8.6516 -1.6916 0.9652
-0.1082 8.5226 -1.6568 0.9659
-1.1333 8.4388 -1.6551 0.9659
-3.4280 8.7061 -1.8188 0.9626
-4.7143 8.7140 -1.9258 0.9604
-6.1844 8.7230 -2.0785 0.9574
-10.0326 6.7415 -2.3495 0.9519
-10.7719 5.4833 -2.3495 0.9519
-11.3542 4.1452 -2.3495 0.9519
-12.7946 1.3929 -2.5017 0.9489
1.4630 -10.7369 -2.5017 0.9565
2.7462 -10.4823 -2.5017 0.9565
3.9895 -10.0750 -2.5017 0.9565
6.2842 -8.8278 -2.5017 0.9565
7.3023 -8.0061 -2.5017 0.9565
8.2139 -7.0678 -2.5017 0.9565
9.6664 -4.8971 -2.5017 0.9565
10.5573 -2.4421 -2.5017 0.9565
10.8350 0.1549 -2.5017 0.9565
9.0919 2.3789 -2.1697 0.9622
9.6454 3.8158 -2.3947 0.9583
7.5212 6.8556 -2.3495 0.9591
3.8480 5.7463 -1.5966 0.9720
3.1479 8.6657 -2.1285 0.9629
0.9265 8.6392 -2.0060 0.9650
-0.1191 8.5206 -1.9673 0.9656
-5.8966 8.2945 -2.3495 0.9591
-6.8532 7.5235 -2.3495 0.9591
-7.7099 6.6428 -2.3495 0.9591
-9.0754 4.6051 -2.3495 0.9591
-9.8506 3.5819 -2.4199 0.9579
-10.5558 2.4488 -2.5017 0.9565
-10.8351 -0.1479 -2.5017 0.9565
-10.7383 -1.4526 -2.5017 0.9565
-10.0788 -3.9798 -2.5017 0.9565
-9.5258 -5.1654 -2.5017 0.9565
-8.0132 -7.2946 -2.5017 0.9565
-6.0351 -9.0000 -2.5017 0.9565
-3.7064 -10.1825 -2.5017 0.9565
1.4492 -10.7387 -2.5017 0.9565
2.7328 -10.4858 -2.5017 0.9565
3.9765 -10.0801 -2.5017 0.9565
6.2729 -8.8358 -2.5017 0.9565
7.2920 -8.0155 -2.5017 0.9565
8.2048 -7.0783 -2.5017 0.9565
8.9980 -6.0379 -2.5017 0.9565
9.6601 -4.9096 -2.5017 0.9565
10.5542 -2.4556 -2.5017 0.9565
10.7732 -1.1658 -2.5017 0.9565
10.8352 0.1410 -2.5017 0.9565
9.0944 2.3670 -2.1695 0.9622
9.6425 3.8003 -2.3928 0.9583
8.3002 5.8886 -2.3495 0.9591
6.6502 7.7035 -2.3495 0.9591
4.3994 8.6494 -2.2403 0.9609
2.0208 8.6726 -2.0559 0.9641
0.9390 8.6516 -2.0091 0.9649
-0.1082 8.5226 -1.9677 0.9656
-1.1238 8.3682 -1.9493 0.9659
-2.1204 8.1577 -1.9459 0.9660
-4.8425 8.9509 -2.3495 0.9591
-7.7014 6.6526 -2.3495 0.9591
-8.4470 5.6760 -2.3495 0.9591
-9.0694 4.6167 -2.3495 0.9591
0.1365 -9.3355 -2.5017 0.9621
1.2605 -9.2510 -2.5017 0.9621
4.4585 -8.2032 -2.5017 0.9621
6.2917 -6.8982 -2.5017 0.9621
8.3287 -4.2195 -2.5017 0.9621
9.0963 -2.1041 -2.5017 0.9621
9.3356 0.1335 -2.5017 0.9621
7.1450 5.0829 -2.3495 0.9643
6.4804 5.9069 -2.3495 0.9643
5.7213 6.6448 -2.3495 0.9643
2.9939 8.2416 -2.3495 0.9643
0.9265 8.6392 -2.3281 0.9647
-0.1225 8.7676 -2.3495 0.9643
-1.1782 8.6890 -2.3495 0.9643
-2.2168 8.4837 -2.3495 0.9643
-3.2230 8.1547 -2.3495 0.9643
-4.1823 7.7068 -2.3495 0.9643
-5.0806 7.1467 -2.3495 0.9643
-5.9048 6.4823 -2.3495 0.9643
-9.0950 2.1100 -2.5017 0.9621
-9.3357 -0.1275 -2.5017 0.9621
-9.2522 -1.2516 -2.5017 0.9621
-8.2075 -4.4505 -2.5017 0.9621
-7.6114 -5.4072 -2.5017 0.9621
-6.9042 -6.2851 -2.5017 0.9621
-6.0965 -7.0713 -2.5017 0.9621
0.1245 -9.3357 -2.5017 0.9621
1.2486 -9.2526 -2.5017 0.9621
2.3546 -9.0347 -2.5017 0.9621
4.4479 -8.2089 -2.5017 0.9621
5.4048 -7.6131 -2.5017 0.9621
6.2829 -6.9062 -2.5017 0.9621
7.0694 -6.0987 -2.5017 0.9621
7.7528 -5.2024 -2.5017 0.9621
8.7724 -3.1963 -2.5017 0.9621
9.0936 -2.1158 -2.5017 0.9621
9.0355 2.3517 -2.5017 0.9621
8.6862 3.4235 -2.5017 0.9621
8.1904 4.4345 -2.4956 0.9622
7.1515 5.0737 -2.3495 0.9643
5.7298 6.6374 -2.3495 0.9643
3.7767 5.6243 -1.8153 0.9723
3.9753 7.8156 -2.3495 0.9643
-0.1113 8.7678 -2.3495 0.9643
-1.1671 8.6905 -2.3495 0.9643
-4.1724 7.7122 -2.3495 0.9643
-5.0714 7.1532 -2.3495 0.9643
-5.8965 6.4899 -2.3495 0.9643
-6.6356 5.7320 -2.3495 0.9643
-7.2780 4.8906 -2.3495 0.9643
-8.7703 3.2019 -2.5017 0.9621
-9.0923 2.1216 -2.5017 0.9621
