ply
format ascii 1.0
element vertex 694
property float32 x
property float32 y
property float32 z
property float32 I
end_header
40.4851 19.9852 12.0977 0.8295
8.7476 5.7238 2.8011 0.9576
33.2203 27.9960 11.6407 0.8353
33.2679 35.7338 13.0820 0.8169
33.3300 45.8265 15.1834 0.7908
33.4174 60.0289 18.4091 0.7524
-10.0885 28.6992 8.1512 0.8816
-12.6184 25.5400 7.6331 0.8887
-14.8852 22.7323 7.2807 0.8936
-39.1374 -8.6499 10.7399 0.8471
-28.7270 -39.5539 13.0987 0.8167
-18.6158 -33.4935 10.2676 0.8533
-5.9899 -41.1010 11.1293 0.8420
55.5432 19.5882 15.7812 0.7836
40.4580 20.0400 12.0977 0.8295
33.2685 35.8317 13.1013 0.8167
33.3308 45.9584 15.2121 0.7905
33.4186 60.2229 18.4547 0.7519
-12.6474 25.5114 7.6297 0.8888
-14.8918 22.6752 7.2689 0.8937
-24.5025 22.7343 8.9562 0.8707
-51.0681 -25.3387 15.2755 0.7897
-18.5566 -33.4939 10.2600 0.8534
-12.8069 -31.5981 9.1357 0.8683
-7.4270 -27.4523 7.6203 0.8889
8.7476 5.7238 2.4135 0.9580
33.2679 35.7338 11.2716 0.8184
33.3300 45.8265 13.0822 0.7925
33.4175 60.0290 15.8615 0.7542
-10.0885 28.6992 7.0232 0.8826
-57.4833 53.4803 18.1264 0.7245
-50.8971 -25.1679 13.1086 0.7921
-28.7270 -39.5539 11.2860 0.8182
-7.4554 -27.4098 6.5580 0.8899
26.2654 -40.0526 11.0578 0.8215
37.6781 -44.6170 13.4822 0.7868
58.4239 -32.4462 15.4287 0.7601
55.5432 19.5882 13.5972 0.7852
33.2208 28.0735 10.0414 0.8365
33.4187 60.2230 15.9008 0.7537
-9.9883 44.9766 10.6366 0.8277
-12.6474 25.5114 6.5738 0.8897
-57.6408 53.4812 18.1532 0.7241
-39.1172 -8.7010 9.2516 0.8483
-50.8768 -25.2438 13.1122 0.7920
-17.5125 -31.6093 8.3427 0.8621
-11.9609 -29.5106 7.3514 0.8775
-7.4082 -27.3826 6.5490 0.8901
58.5552 -42.6181 14.0774 0.7444
58.9803 -32.8598 13.1238 0.7595
60.2429 -24.5835 12.6475 0.7671
55.7800 19.5868 11.4915 0.7859
33.8225 28.5034 8.5977 0.8351
3.5318 8.6633 1.8185 0.9626
1.2706 8.6772 1.7047 0.9649
-0.8396 8.6902 1.6971 0.9650
-57.4833 53.4802 15.2616 0.7262
-39.1833 -8.6600 7.8003 0.8491
-59.3368 -38.8827 13.7897 0.7490
-12.8568 -31.5978 6.6310 0.8702
-5.0483 -34.6401 6.8045 0.8671
43.1983 -87.2856 18.9307 0.6724
26.0905 -39.7859 9.2482 0.8238
36.1315 -42.7856 10.8855 0.7960
58.9730 -32.7511 13.1123 0.7597
60.4806 -24.5849 12.6904 0.7664
61.1094 13.5493 12.1669 0.7749
55.5433 19.5882 11.4482 0.7866
33.7838 28.5493 8.5977 0.8351
4.8014 8.6525 1.9235 0.9605
0.2013 8.6838 1.6884 0.9652
-0.8515 8.6903 1.6973 0.9650
-1.9314 8.6969 1.7317 0.9643
-4.3184 8.7108 1.8899 0.9612
-19.6225 23.2043 5.9070 0.8835
-57.6407 53.4812 15.2841 0.7259
-24.2381 -33.4685 8.0325 0.8450
-9.1128 -33.6835 6.7828 0.8675
58.6591 -42.6937 11.4909 0.7454
58.8452 -32.7846 10.6690 0.7612
61.3625 -25.0404 10.4969 0.7646
33.6836 22.0399 6.3755 0.8496
34.2256 28.8432 7.0890 0.8342
1.2706 8.6772 1.3890 0.9651
0.2131 8.6837 1.3758 0.9654
-0.8396 8.6902 1.3828 0.9653
-3.0596 8.7038 1.4612 0.9633
-5.7100 8.7201 1.6509 0.9587
-7.3624 8.7303 1.8088 0.9548
-39.2059 -8.6650 6.3594 0.8499
-81.1989 -53.2088 15.3759 0.6749
-60.8904 -65.4926 14.1636 0.6962
-17.5683 -31.6090 5.7277 0.8638
-12.8568 -31.5978 5.4030 0.8710
-4.6088 -31.6246 5.0618 0.8786
-1.9912 -83.4387 13.2192 0.7132
35.6114 -42.1697 8.7420 0.7997
47.2721 -43.9204 10.2200 0.7700
58.6598 -42.5727 11.4798 0.7456
58.8459 -32.6805 10.6611 0.7614
61.6047 -25.0419 10.5325 0.7639
33.6840 22.1054 6.3813 0.8494
34.2260 28.9230 7.0973 0.8340
6.2708 8.6465 1.6917 0.9577
4.8031 8.6555 1.5678 0.9607
3.5182 8.6634 1.4810 0.9628
2.3521 8.6706 1.4229 0.9643
1.2586 8.6773 1.3887 0.9651
-1.9314 8.6969 1.4110 0.9646
-3.0729 8.7039 1.4620 0.9633
-4.3188 8.7116 1.5400 0.9614
-5.7270 8.7202 1.6524 0.9586
-7.3828 8.7304 1.8109 0.9548
-57.6407 53.4812 12.4538 0.7273
-80.3745 44.5654 14.5560 0.6892
-39.2219 -8.7243 6.3640 0.8498
-66.5671 -33.0290 11.7697 0.7401
-24.3431 -33.6135 6.5733 0.8453
-12.8070 -31.5981 5.4001 0.8710
-8.5651 -31.6589 5.1946 0.8756
58.6591 -42.6937 8.9081 0.7465
60.2429 -24.5835 7.9891 0.7693
65.4871 -1.6294 8.0433 0.7680
65.5359 6.3095 8.0840 0.7670
62.1746 13.6971 7.8171 0.7737
56.0598 19.6850 7.2953 0.7871
33.6837 22.0399 4.9425 0.8503
4.8184 8.6554 1.2163 0.9609
2.3647 8.6705 1.1035 0.9644
0.2131 8.6837 1.0665 0.9656
-0.8396 8.6902 1.0720 0.9654
-5.7100 8.7201 1.2798 0.9589
-7.3624 8.7303 1.4022 0.9550
-9.3972 8.7428 1.5760 0.9496
-39.2525 -8.6753 4.9359 0.8504
-23.7754 -32.7361 4.9677 0.8495
-12.8568 -31.5978 4.1886 0.8716
27.6608 -78.5182 10.2216 0.7150
25.1028 -50.7222 6.9489 0.7961
45.5626 -42.3321 7.6363 0.7783
58.4273 -32.4481 8.2060 0.7639
60.4806 -24.5849 8.0162 0.7687
65.4386 -9.5141 8.1193 0.7661
65.4877 -1.5406 8.0431 0.7680
65.5365 6.3992 8.0851 0.7669
55.8219 19.6865 7.2678 0.7878
13.0581 8.5695 1.9178 0.9390
6.2708 8.6465 1.3115 0.9579
4.8031 8.6555 1.2154 0.9609
3.5182 8.6634 1.1481 0.9630
1.2586 8.6773 1.0766 0.9653
-0.8515 8.6903 1.0721 0.9654
-3.0729 8.7039 1.1334 0.9635
-7.3828 8.7304 1.4039 0.9550
-12.0864 8.7593 1.8328 0.9416
-81.8499 45.3835 11.4914 0.6858
-66.8669 -33.1776 9.1653 0.7402
-23.7310 -32.7683 4.9677 0.8495
-12.8070 -31.5981 4.1863 0.8716
56.3291 -40.9979 6.0953 0.7560
58.9250 -32.8290 5.9014 0.7627
61.3626 -25.0404 5.7983 0.7664
62.9152 -9.2343 5.5633 0.7747
62.3759 13.7415 5.5880 0.7738
55.7801 19.5868 5.1722 0.7887
13.1498 8.6042 1.3749 0.9389
10.2311 8.6221 1.1706 0.9477
6.2886 8.6464 0.9354 0.9580
3.5318 8.6633 0.8185 0.9631
2.3647 8.6705 0.7863 0.9646
0.2131 8.6837 0.7600 0.9657
-0.8396 8.6902 0.7638 0.9656
-3.0596 8.7038 0.8072 0.9636
-4.3040 8.7115 0.8501 0.9617
-7.3624 8.7303 0.9991 0.9552
-12.0517 8.7591 1.3035 0.9419
-47.9072 -23.6894 4.6758 0.8069
-12.8568 -31.5979 2.9845 0.8720
-4.6174 -31.6832 2.8012 0.8794
27.1920 -77.1874 7.1598 0.7199
21.6111 -43.6668 4.2626 0.8223
32.7111 -30.3918 3.9064 0.8359
56.4913 -40.9989 6.1068 0.7556
58.9256 -32.7248 5.8970 0.7629
61.6047 -25.0419 5.8180 0.7657
62.9157 -9.1473 5.5623 0.7747
62.9629 -1.4812 5.5101 0.7766
61.1092 13.5492 5.4762 0.7778
40.7393 20.1794 3.9775 0.8331
13.0581 8.5695 1.3665 0.9392
10.2032 8.6223 1.1687 0.9478
8.0180 8.6358 1.0310 0.9538
4.8031 8.6555 0.8660 0.9610
3.5182 8.6634 0.8181 0.9632
2.3521 8.6706 0.7860 0.9646
0.2013 8.6838 0.7599 0.9657
-1.9314 8.6969 0.7794 0.9649
-3.0729 8.7039 0.8076 0.9636
-5.7270 8.7202 0.9127 0.9590
-39.2972 -8.7411 3.5221 0.8507
-18.5566 -33.4939 3.3500 0.8575
-12.8070 -31.5982 2.9829 0.8721
33.3796 -24.2946 2.1636 0.8476
61.3626 -25.0404 3.4733 0.7668
67.9403 -9.9718 3.5987 0.7595
55.7802 19.5868 3.0983 0.7891
40.8768 20.1786 2.3891 0.8331
10.2311 8.6221 0.7012 0.9478
6.2886 8.6464 0.5603 0.9581
3.5318 8.6633 0.4903 0.9632
-0.8388 8.6821 0.4571 0.9657
-1.9153 8.6800 0.4658 0.9650
-5.7100 8.7201 0.5463 0.9591
-7.3624 8.7303 0.5985 0.9553
-9.3972 8.7428 0.6727 0.9499
-15.7881 8.7821 0.9468 0.9302
-39.3062 -8.6872 2.1097 0.8511
-16.9944 -30.5763 1.8333 0.8693
-12.8568 -31.5978 1.7878 0.8723
-9.0799 -33.3820 1.8130 0.8706
-4.8916 -33.5649 1.7776 0.8730
-1.4961 -62.6936 3.2866 0.7779
26.5176 -40.4372 2.5343 0.8239
32.7084 -30.3893 2.3390 0.8362
61.6047 -25.0419 3.4851 0.7662
67.1895 -18.2510 3.6488 0.7566
67.9396 -9.8777 3.5980 0.7596
67.8849 -1.5970 3.5587 0.7619
40.7393 20.1794 2.3826 0.8335
13.0581 8.5695 0.8186 0.9394
10.2032 8.6223 0.7001 0.9479
1.2571 8.6673 0.4590 0.9655
-1.9276 8.6799 0.4660 0.9650
-3.0719 8.7011 0.4836 0.9637
-4.3188 8.7116 0.5096 0.9618
-5.7269 8.7202 0.5468 0.9591
-22.8430 -31.5421 2.0410 0.8556
-16.9404 -30.5767 1.8320 0.8693
-9.0313 -33.3823 1.8124 0.8706
43.7206 -24.3581 0.8736 0.8185
61.4927 13.5469 1.0991 0.7773
55.7802 19.5868 1.0319 0.7894
40.8768 20.1786 0.7957 0.8333
8.0397 8.6356 0.2059 0.9539
1.2706 8.6772 0.1531 0.9655
0.2131 8.6837 0.1516 0.9658
-1.9144 8.6760 0.1551 0.9651
-3.0524 8.6833 0.1607 0.9638
-4.2841 8.6711 0.1688 0.9620
-5.7100 8.7201 0.1819 0.9592
-7.3624 8.7303 0.1993 0.9553
-12.0517 8.7591 0.2601 0.9421
-15.7507 8.7612 0.3146 0.9304
-21.6510 8.8181 0.4081 0.9107
-39.3329 -8.6931 0.7031 0.8512
-8.4892 -31.2105 0.5646 0.8786
43.3112 -87.5136 1.7044 0.6766
28.9143 -44.0919 0.9203 0.8098
33.0867 -39.1800 0.8951 0.8145
43.8618 -24.3590 0.8757 0.8181
91.1933 -24.7713 1.6495 0.6852
89.2180 8.7116 1.5647 0.6986
61.1092 13.5492 1.0926 0.7785
40.7394 20.1794 0.7936 0.8337
13.0581 8.5695 0.2726 0.9394
10.2032 8.6223 0.2332 0.9480
8.0180 8.6358 0.2057 0.9540
4.7922 8.6359 0.1724 0.9613
2.3521 8.6706 0.1568 0.9647
0.2013 8.6838 0.1516 0.9658
-0.8515 8.6903 0.1524 0.9657
-1.9267 8.6760 0.1551 0.9651
-3.0656 8.6834 0.1607 0.9638
-5.7269 8.7202 0.1821 0.9591
-7.3828 8.7304 0.1996 0.9553
-9.4229 8.7429 0.2244 0.9499
-12.0864 8.7593 0.2605 0.9420
-15.8018 8.7617 0.3154 0.9303
-21.7366 8.8186 0.4094 0.9104
-39.3507 -8.7530 0.7037 0.8511
-64.1411 -31.8252 1.2498 0.7509
-22.5833 -31.1835 0.6721 0.8572
-18.9588 -34.2199 0.6829 0.8551
-8.4439 -31.2107 0.5644 0.8787
43.7206 -24.3581 -0.8736 0.8185
50.4703 -20.5956 -0.9515 0.8041
48.4671 -13.2359 -0.8770 0.8179
96.2448 9.2661 -1.6877 0.6792
62.6091 13.7928 -1.1190 0.7738
55.7802 19.5869 -1.0319 0.7894
40.8768 20.1786 -0.7957 0.8333
10.2311 8.6221 -0.2335 0.9479
8.0397 8.6356 -0.2059 0.9539
6.2816 8.6367 -0.1864 0.9582
4.7947 8.6129 -0.1721 0.9613
-0.8396 8.6902 -0.1524 0.9657
-1.9132 8.6706 -0.1550 0.9651
-3.0448 8.6619 -0.1603 0.9639
-4.2616 8.6257 -0.1679 0.9622
-5.7100 8.7201 -0.1819 0.9592
-9.3972 8.7428 -0.2240 0.9499
-12.0517 8.7591 -0.2601 0.9421
-15.6392 8.6992 -0.3124 0.9309
-51.2849 13.9681 -0.9278 0.8084
-88.4552 2.1410 -1.5444 0.7019
-63.5540 -31.4266 -1.2375 0.7530
-61.9720 -40.6095 -1.2933 0.7435
-15.1464 -20.8550 -0.4499 0.9020
-10.9610 -19.7212 -0.3938 0.9137
-4.8963 -33.5973 -0.5926 0.8730
-0.5758 -24.1277 -0.4213 0.9080
39.2410 -79.2894 -1.5442 0.7019
24.0279 -36.6406 -0.7648 0.8392
32.9045 -38.9643 -0.8902 0.8154
43.8618 -24.3590 -0.8757 0.8181
50.4708 -20.5160 -0.9510 0.8042
48.4683 -13.1657 -0.8767 0.8180
13.0581 8.5695 -0.2726 0.9394
10.2032 8.6223 -0.2332 0.9480
8.0180 8.6358 -0.2057 0.9540
3.4839 8.5789 -0.1616 0.9636
2.3521 8.6706 -0.1568 0.9647
-0.8515 8.6903 -0.1524 0.9657
-1.9254 8.6701 -0.1550 0.9651
-7.3828 8.7304 -0.1996 0.9553
-21.7366 8.8186 -0.4094 0.9104
-54.6132 7.9024 -0.9632 0.8019
-88.4559 2.0211 -1.5444 0.7019
-74.2877 -7.3046 -1.3029 0.7418
-11.0946 -20.0254 -0.3996 0.9125
-5.4840 -20.2702 -0.3665 0.9194
33.2343 -24.1888 -2.1542 0.8482
46.0501 -12.5758 -2.5018 0.8260
47.2304 -6.9322 -2.5018 0.8260
47.1698 4.5413 -2.4835 0.8271
43.7824 9.6453 -2.3496 0.8356
10.2311 8.6221 -0.7012 0.9478
6.2816 8.6367 -0.5597 0.9581
4.7820 8.5901 -0.5152 0.9614
3.4818 8.5405 -0.4834 0.9637
-1.9132 8.6706 -0.4653 0.9651
-4.2466 8.5951 -0.5024 0.9623
-5.7100 8.7201 -0.5463 0.9591
-12.0517 8.7591 -0.7808 0.9421
-15.5704 8.6610 -0.9338 0.9311
-20.9180 8.5196 -1.1837 0.9135
-26.7147 7.2761 -1.4511 0.8950
-44.8905 6.5577 -2.3776 0.8338
-44.8239 -4.3461 -2.3601 0.8349
-36.6866 -8.1082 -1.9691 0.8603
-42.7907 -21.1594 -2.5018 0.8260
-39.9275 -26.1641 -2.5018 0.8260
-30.5266 -32.8338 -2.3496 0.8356
-14.8735 -20.4791 -1.3265 0.9036
-10.7988 -19.4293 -1.1649 0.9148
-0.5468 -22.9100 -1.2010 0.9123
15.8614 -45.0242 -2.5018 0.8260
21.1739 -42.7835 -2.5018 0.8260
32.5511 -30.2431 -2.3286 0.8370
39.1937 -21.7666 -2.3496 0.8356
46.0671 -12.5134 -2.5018 0.8260
47.2397 -6.8681 -2.5018 0.8260
47.7232 -1.1227 -2.5018 0.8260
28.2225 13.9795 -1.6506 0.8815
6.2631 8.6359 -0.5591 0.9582
2.3521 8.6706 -0.4708 0.9647
0.2013 8.6838 -0.4552 0.9658
-0.8515 8.6903 -0.4576 0.9656
-3.0505 8.6405 -0.4802 0.9640
-15.6160 8.6586 -0.9358 0.9310
-20.9182 8.4866 -1.1831 0.9135
-35.0688 5.0744 -1.8570 0.8677
-45.1799 1.0323 -2.3684 0.8344
-44.8140 -4.4065 -2.3599 0.8350
-42.5878 -15.0517 -2.3672 0.8345
-42.7620 -21.2174 -2.5018 0.8260
-36.4401 -30.8364 -2.5018 0.8260
-10.7791 -19.4560 -1.1657 0.9148
26.4757 -10.8040 -2.5018 0.8915
28.5864 -0.7113 -2.5018 0.8915
25.3388 8.8975 -2.3496 0.8978
13.9251 9.1115 -1.4559 0.9354
8.0397 8.6356 -1.0323 0.9537
6.2816 8.6367 -0.9343 0.9580
4.7693 8.5673 -0.8579 0.9614
3.4729 8.5187 -0.8048 0.9637
2.3647 8.6705 -0.7863 0.9646
1.2706 8.6772 -0.7673 0.9654
-1.9132 8.6706 -0.7768 0.9650
-3.0298 8.6191 -0.7993 0.9640
-5.7100 8.7201 -0.9119 0.9590
-7.3624 8.7303 -0.9991 0.9552
-9.3972 8.7428 -1.1229 0.9498
-15.3531 8.5401 -1.5370 0.9319
-25.9639 7.0716 -2.3543 0.8976
-26.8477 0.6498 -2.3496 0.8978
-28.3906 -2.7528 -2.4955 0.8918
-27.9214 -6.1709 -2.5018 0.8915
-23.9175 -15.6729 -2.5018 0.8915
-21.8535 -18.4421 -2.5018 0.8915
-7.8193 -19.2175 -1.8152 0.9201
-3.0297 -20.7889 -1.8380 0.9191
-0.5449 -22.8309 -1.9980 0.9124
2.6008 -26.7293 -2.3496 0.8978
9.5013 -26.9705 -2.5018 0.8915
18.4495 -21.8472 -2.5018 0.8915
24.9988 -13.8833 -2.5018 0.8915
28.5873 -0.6725 -2.5018 0.8915
24.1116 11.9432 -2.3541 0.8976
10.2032 8.6223 -1.1687 0.9478
8.0180 8.6358 -1.0310 0.9538
4.7542 8.5674 -0.8572 0.9614
2.3521 8.6706 -0.7860 0.9646
0.2013 8.6838 -0.7599 0.9657
-3.0430 8.6192 -0.7997 0.9640
-5.7270 8.7202 -0.9127 0.9590
-7.3828 8.7304 -1.0003 0.9551
-9.4229 8.7429 -1.1246 0.9497
-25.9723 7.0361 -2.3542 0.8976
-25.6154 -12.7097 -2.5018 0.8915
-23.8962 -15.7053 -2.5018 0.8915
-21.8285 -18.4717 -2.5018 0.8915
-18.2595 -19.6930 -2.3496 0.8978
17.7992 -9.9165 -2.5018 0.9212
18.8649 -7.6983 -2.5018 0.9212
19.6554 -5.3677 -2.5018 0.9212
20.2814 1.9526 -2.5018 0.9212
19.4604 4.2871 -2.4467 0.9228
18.0549 6.3399 -2.3496 0.9258
13.9251 9.1115 -2.0433 0.9351
0.2131 8.6837 -1.0665 0.9656
-0.8396 8.6902 -1.0720 0.9654
-4.2120 8.5252 -1.1675 0.9624
-7.3624 8.7303 -1.4022 0.9550
-12.0517 8.7591 -1.8293 0.9417
-16.7342 9.3083 -2.3512 0.9257
-17.7221 7.2179 -2.3496 0.9258
-18.4631 5.0287 -2.3496 0.9258
-18.9347 2.7660 -2.3496 0.9258
-20.2801 -1.9664 -2.5018 0.9212
-19.8951 -4.3970 -2.5018 0.9212
-19.2198 -6.7636 -2.5018 0.9212
-18.2642 -9.0314 -2.5018 0.9212
-17.0422 -11.1675 -2.5018 0.9212
-13.8736 -14.9222 -2.5018 0.9212
-11.4335 -15.7427 -2.3890 0.9246
-9.2962 -16.7258 -2.3496 0.9258
-6.1198 -15.0404 -1.9938 0.9367
-5.0224 -18.4648 -2.3496 0.9258
-0.4565 -19.1302 -2.3496 0.9258
4.4038 -19.8936 -2.5018 0.9212
6.7701 -19.2176 -2.5018 0.9212
11.1733 -17.0383 -2.5018 0.9212
13.1460 -15.5670 -2.5018 0.9212
14.9269 -13.8685 -2.5018 0.9212
17.8126 -9.8924 -2.5018 0.9212
18.8753 -7.6727 -2.5018 0.9212
20.3696 -0.4792 -2.5018 0.9212
20.2787 1.9801 -2.5018 0.9212
17.1473 8.4936 -2.3496 0.9258
13.0581 8.5695 -1.9178 0.9390
10.2032 8.6223 -1.6402 0.9476
6.2397 8.6037 -1.3050 0.9581
4.7285 8.5211 -1.1966 0.9615
1.2586 8.6773 -1.0766 0.9653
0.2013 8.6838 -1.0665 0.9656
-0.8515 8.6903 -1.0721 0.9654
-1.9222 8.6556 -1.0887 0.9649
-3.0342 8.5942 -1.1191 0.9639
-4.2260 8.5244 -1.1682 0.9624
-5.7269 8.7202 -1.2810 0.9588
-9.4229 8.7429 -1.5783 0.9495
-12.0864 8.7593 -1.8328 0.9416
-16.7463 9.2854 -2.3511 0.9257
-17.7319 7.1939 -2.3496 0.9258
-20.3699 0.4654 -2.5018 0.9212
-20.2774 -1.9938 -2.5018 0.9212
-19.8891 -4.4240 -2.5018 0.9212
-18.2520 -9.0562 -2.5018 0.9212
-17.0270 -11.1906 -2.5018 0.9212
-15.5536 -13.1618 -2.5018 0.9212
-13.8534 -14.9410 -2.5018 0.9212
-9.2735 -16.7384 -2.3496 0.9258
-6.0955 -15.0391 -1.9925 0.9367
14.6247 -5.9679 -2.5018 0.9380
15.2375 -4.1612 -2.5018 0.9380
6.4244 3.1714 -1.1347 0.9714
12.4133 8.1223 -2.3496 0.9417
2.3647 8.6705 -1.4234 0.9643
1.2706 8.6772 -1.3890 0.9651
0.2131 8.6837 -1.3758 0.9654
-0.8396 8.6902 -1.3828 0.9653
-7.3624 8.7303 -1.8088 0.9548
-9.3972 8.7428 -2.0329 0.9493
-12.0000 8.7215 -2.3496 0.9417
-13.7387 5.5955 -2.3496 0.9417
-14.3131 3.8984 -2.3496 0.9417
-15.6287 2.2831 -2.5016 0.9380
-15.4233 -3.4087 -2.5018 0.9380
-14.8998 -5.2433 -2.5018 0.9380
-14.1590 -7.0014 -2.5018 0.9380
-12.0715 -10.1871 -2.5018 0.9380
-9.2821 -12.7804 -2.5018 0.9380
-7.6736 -13.8063 -2.5018 0.9380
-5.9346 -14.5853 -2.4940 0.9382
-2.2100 -15.1646 -2.4272 0.9398
-0.3762 -15.7656 -2.4977 0.9381
1.5297 -15.7212 -2.5018 0.9380
5.2484 -14.8980 -2.5018 0.9380
8.6619 -13.2087 -2.5018 0.9380
11.5718 -10.7513 -2.5018 0.9380
13.8089 -7.6689 -2.5018 0.9380
14.6327 -5.9481 -2.5018 0.9380
15.7911 -0.3715 -2.5018 0.9380
15.4210 3.4192 -2.5018 0.9380
6.4231 3.1816 -1.1353 0.9714
10.2032 8.6223 -2.1158 0.9473
8.0180 8.6358 -1.8664 0.9534
1.2586 8.6773 -1.3887 0.9651
0.2013 8.6838 -1.3757 0.9654
-0.8515 8.6903 -1.3830 0.9653
-3.0080 8.5202 -1.4311 0.9641
-4.1880 8.4477 -1.4934 0.9625
-5.7269 8.7202 -1.6524 0.9586
-9.4229 8.7429 -2.0359 0.9493
-12.0118 8.7052 -2.3496 0.9417
-13.7463 5.5769 -2.3496 0.9417
-14.3184 3.8790 -2.3496 0.9417
-15.7913 0.3608 -2.5018 0.9380
-15.4186 -3.4296 -2.5018 0.9380
-14.1495 -7.0206 -2.5018 0.9380
-9.2648 -12.7930 -2.5018 0.9380
-7.6548 -13.8167 -2.5018 0.9380
-5.9113 -14.5847 -2.4925 0.9383
10.4060 -7.5738 -2.5018 0.9489
11.2432 -6.2640 -2.5018 0.9489
11.9164 -4.8628 -2.5018 0.9489
12.4158 -3.3906 -2.5018 0.9489
12.7340 -1.8690 -2.5018 0.9489
12.8112 1.2334 -2.5018 0.9489
9.1210 2.0094 -1.8155 0.9627
6.3846 2.2419 -1.3153 0.9728
10.1146 6.6182 -2.3496 0.9519
9.2429 7.7894 -2.3496 0.9519
6.2603 8.6075 -2.0689 0.9576
3.3399 8.1925 -1.7197 0.9646
1.2706 8.6772 -1.7047 0.9649
-0.8396 8.6902 -1.6971 0.9650
-1.8988 8.6051 -1.7129 0.9647
-2.9695 8.4474 -1.7405 0.9642
-4.1049 8.3083 -1.8013 0.9629
-5.7100 8.7201 -2.0261 0.9584
-8.8497 8.2334 -2.3496 0.9519
-11.1946 4.5594 -2.3496 0.9519
-12.3911 3.3749 -2.4963 0.9490
-12.7353 1.8604 -2.5018 0.9489
-12.1407 -4.2723 -2.5018 0.9489
-11.5370 -5.7049 -2.5018 0.9489
-8.7636 -9.4259 -2.5018 0.9489
-6.2525 -11.2496 -2.5018 0.9489
-1.8561 -12.7359 -2.5018 0.9489
1.2464 -12.8099 -2.5018 0.9489
4.2765 -12.1392 -2.5018 0.9489
10.4163 -7.5597 -2.5018 0.9489
11.2517 -6.2487 -2.5018 0.9489
11.9230 -4.8466 -2.5018 0.9489
12.8669 -0.3027 -2.5018 0.9489
9.0872 2.0148 -1.8093 0.9628
6.3713 2.2470 -1.3132 0.9728
5.9023 2.9236 -1.2803 0.9735
10.1056 6.6319 -2.3496 0.9519
9.2324 7.8019 -2.3496 0.9519
8.2244 8.8580 -2.3496 0.9519
6.2397 8.6037 -2.0659 0.9576
4.6375 8.3571 -1.8578 0.9618
-0.8515 8.6903 -1.6973 0.9650
-2.9820 8.4466 -1.7412 0.9642
-4.1171 8.3048 -1.8018 0.9629
-8.8608 8.2214 -2.3496 0.9519
-9.7874 7.0931 -2.3496 0.9519
-10.5712 5.8614 -2.3496 0.9519
-11.2007 4.5442 -2.3496 0.9519
-12.1349 -4.2887 -2.5018 0.9489
-11.5293 -5.7205 -2.5018 0.9489
-10.7555 -7.0688 -2.5018 0.9489
-8.7508 -9.4378 -2.5018 0.9489
-7.5491 -10.4240 -2.5018 0.9489
-6.2373 -11.2581 -2.5018 0.9489
-4.8345 -11.9279 -2.5018 0.9489
-3.3612 -12.4238 -2.5018 0.9489
9.4663 -5.2740 -2.5018 0.9565
10.0331 -4.0942 -2.5018 0.9565
10.7864 1.0385 -2.5018 0.9565
9.0656 1.9972 -2.1431 0.9626
6.0780 2.1342 -1.4872 0.9739
5.5307 2.7302 -1.4240 0.9750
7.7821 6.5583 -2.3496 0.9591
6.9347 7.4487 -2.3496 0.9591
5.9860 8.2304 -2.3496 0.9591
1.2706 8.6772 -2.0247 0.9646
0.2131 8.6837 -2.0054 0.9650
-2.9560 8.4090 -2.0578 0.9641
-4.2995 8.7023 -2.2409 0.9609
-5.5751 8.5141 -2.3496 0.9591
-6.5609 7.7799 -2.3496 0.9591
-7.4510 6.9321 -2.3496 0.9591
-8.8937 4.9471 -2.3496 0.9591
-9.7655 3.9773 -2.4344 0.9576
-10.8331 0.2622 -2.5018 0.9565
-10.7857 -1.0458 -2.5018 0.9565
-10.2219 -3.5971 -2.5018 0.9565
-9.7136 -4.8032 -2.5018 0.9565
-9.0637 -5.9393 -2.5018 0.9565
-8.2815 -6.9887 -2.5018 0.9565
-7.3785 -7.9362 -2.5018 0.9565
-6.3679 -8.7679 -2.5018 0.9565
-5.2644 -9.4716 -2.5018 0.9565
-4.0840 -10.0372 -2.5018 0.9565
-2.8441 -10.4564 -2.5018 0.9565
-0.2585 -10.8332 -2.5018 0.9565
2.3421 -10.5802 -2.5018 0.9565
4.8065 -9.7120 -2.5018 0.9565
8.7700 -6.3649 -2.5018 0.9565
10.4574 -2.8406 -2.5018 0.9565
10.8333 -0.2548 -2.5018 0.9565
10.7850 1.0531 -2.5018 0.9565
7.7732 6.5688 -2.3496 0.9591
6.9246 7.4581 -2.3496 0.9591
5.9749 8.2385 -2.3496 0.9591
4.9381 8.8988 -2.3496 0.9591
3.8292 9.4292 -2.3496 0.9591
2.3521 8.6706 -2.0741 0.9638
-5.5866 8.5066 -2.3496 0.9591
-10.4593 2.8335 -2.5018 0.9565
-10.8335 0.2475 -2.5018 0.9565
-10.5778 -2.3528 -2.5018 0.9565
-9.0556 -5.9516 -2.5018 0.9565
-8.2720 -7.0000 -2.5018 0.9565
-7.3677 -7.9462 -2.5018 0.9565
-5.2515 -9.4788 -2.5018 0.9565
-4.0704 -10.0428 -2.5018 0.9565
-2.8300 -10.4603 -2.5018 0.9565
7.5489 -5.4943 -2.5018 0.9621
8.6446 -3.5276 -2.5018 0.9621
9.2377 -1.3558 -2.5018 0.9621
9.2937 0.8948 -2.5018 0.9621
9.1180 2.0087 -2.5018 0.9621
5.5217 2.7258 -1.6500 0.9748
6.7052 5.6507 -2.3496 0.9643
5.9750 6.4179 -2.3496 0.9643
5.1577 7.0914 -2.3496 0.9643
4.2651 7.6615 -2.3496 0.9643
-1.8894 8.5627 -2.3496 0.9643
-6.4199 5.9728 -2.3496 0.9643
-7.0932 5.1552 -2.3496 0.9643
-9.0085 2.4536 -2.5018 0.9621
-9.2931 -0.9011 -2.5018 0.9621
-9.1167 -2.0149 -2.5018 0.9621
-8.3694 -4.1385 -2.5018 0.9621
-5.4866 -7.5545 -2.5018 0.9621
-4.5358 -8.1609 -2.5018 0.9621
-2.4505 -9.0094 -2.5018 0.9621
0.9042 -9.2928 -2.5018 0.9621
3.1023 -8.8062 -2.5018 0.9621
4.1414 -8.3680 -2.5018 0.9621
5.1200 -7.8076 -2.5018 0.9621
6.8401 -6.3551 -2.5018 0.9621
7.5564 -5.4841 -2.5018 0.9621
8.1624 -4.5331 -2.5018 0.9621
8.6494 -3.5159 -2.5018 0.9621
9.0102 -2.4475 -2.5018 0.9621
9.2395 -1.3433 -2.5018 0.9621
9.2925 0.9074 -2.5018 0.9621
9.1153 2.0211 -2.5018 0.9621
5.9212 2.0882 -1.6823 0.9743
5.5205 2.7345 -1.6507 0.9748
5.6629 3.7163 -1.8149 0.9723
5.9663 6.4260 -2.3496 0.9643
5.1480 7.0984 -2.3496 0.9643
3.2993 8.1243 -2.3496 0.9643
2.2957 8.4628 -2.3496 0.9643
1.2587 8.6779 -2.3496 0.9643
0.2033 8.7663 -2.3496 0.9643
-0.8551 8.7269 -2.3496 0.9643
-2.9192 8.2685 -2.3496 0.9643
-3.8948 7.8562 -2.3496 0.9643
-7.6916 4.2648 -2.3566 0.9642
-9.0118 2.4414 -2.5018 0.9621
-9.2405 1.3371 -2.5018 0.9621
-9.1139 -2.0272 -2.5018 0.9621
-8.3637 -4.1499 -2.5018 0.9621
-6.3481 -6.8465 -2.5018 0.9621
-4.5248 -8.1670 -2.5018 0.9621
-2.4383 -9.0127 -2.5018 0.9621
