ply
format ascii 1.0
element vertex 657
property float32 x
property float32 y
property float32 z
property float32 I
end_header
-18.7149 23.1987 7.9866 0.8839
-59.1644 -19.5326 16.6946 0.7726
-18.3032 -31.5695 9.7779 0.8597
33.9580 27.9546 11.7855 0.8335
34.0677 45.7666 15.2876 0.7896
2.4208 5.7621 1.6747 0.9745
-9.2567 43.9257 12.0284 0.8304
-12.1866 25.2368 7.5093 0.8904
-14.5632 22.6732 7.2205 0.8944
-19.2289 23.2019 8.0745 0.8827
-24.0280 22.7314 8.8628 0.8720
55.6060 19.5879 15.7970 0.7834
-18.7149 23.1987 6.8814 0.8848
-55.8068 54.2101 17.9620 0.7266
-18.3032 -31.5695 8.4248 0.8609
-13.6257 -31.8429 7.9963 0.8675
-5.5141 -33.7056 7.8850 0.8692
-1.9796 -48.1660 11.1294 0.8205
30.7538 -92.1301 22.4236 0.6712
29.6658 -46.8639 12.8049 0.7964
36.3461 -44.4501 13.2560 0.7900
59.0915 -33.9995 15.7393 0.7559
60.0668 -25.4686 15.0626 0.7650
34.0058 35.7086 11.3841 0.8167
34.1542 59.8166 15.9023 0.7537
2.4204 5.7613 1.4427 0.9747
-9.2567 43.9257 10.3638 0.8317
-14.5632 22.6732 6.2213 0.8953
-56.5245 53.4743 17.9640 0.7266
-50.6635 -24.6715 13.0097 0.7935
-10.4831 -25.4219 6.3485 0.8933
-7.7971 -28.1690 6.7479 0.8869
-5.0584 -33.7083 7.8693 0.8694
37.4530 -44.5886 13.4437 0.7874
59.1372 -32.9937 15.6340 0.7573
33.9628 28.7195 10.2685 0.8331
-18.7149 23.1987 5.7938 0.8856
-55.8068 54.2101 15.1231 0.7283
-56.0688 -18.5107 11.4773 0.7862
-18.3032 -31.5695 7.0933 0.8618
-14.4052 -33.6644 7.1176 0.8614
-9.0145 -30.9699 6.2698 0.8768
-5.5141 -33.7056 6.6388 0.8701
-3.5387 -86.1033 16.7509 0.7039
24.5497 -51.7084 11.1264 0.7920
25.1992 -39.8078 9.1579 0.8253
34.6874 -42.4216 10.6516 0.7999
59.3860 -44.5112 14.4260 0.7390
59.2080 -25.1044 12.5007 0.7695
94.6949 19.6294 18.7981 0.6743
57.9975 19.5731 11.8983 0.7792
41.9195 20.0721 9.0343 0.8275
34.4211 21.9488 7.9353 0.8467
34.1490 28.1118 8.5977 0.8351
35.0761 47.1213 11.4185 0.7871
4.9417 8.6547 1.9372 0.9602
2.4616 8.6699 1.7519 0.9639
0.2994 8.6832 1.6888 0.9652
-2.9693 8.7033 1.7875 0.9632
-50.8952 -24.7844 11.0037 0.7940
-18.2096 -32.3866 7.2222 0.8595
-8.6218 -31.1485 6.2823 0.8766
30.9862 -88.8992 18.2999 0.6814
42.9755 -87.5158 18.9517 0.6721
26.2013 -40.2059 9.3283 0.8224
35.9198 -42.7633 10.8556 0.7965
59.3933 -43.3033 14.2876 0.7412
33.9628 28.7195 8.6456 0.8342
-7.0413 8.7283 1.7762 0.9556
-79.2246 46.2825 14.5322 0.6896
-80.3860 23.6863 13.2731 0.7122
-68.7915 -13.7866 11.1122 0.7527
-81.3060 -51.0932 15.2092 0.6778
-62.6526 -64.9257 14.2904 0.6939
-25.3632 -33.6073 6.6686 0.8432
30.9603 -92.7487 15.4868 0.6730
24.2380 -51.0521 8.9509 0.7954
25.6491 -40.5186 7.5953 0.8235
33.4465 -40.9040 8.3686 0.8074
45.7167 -43.8256 10.0305 0.7738
59.5719 -44.6505 11.7914 0.7397
59.3050 -34.1223 10.8369 0.7580
57.9975 19.5731 9.6949 0.7804
34.4211 21.9488 6.4658 0.8476
8.2228 8.6345 1.8885 0.9529
2.4198 5.7599 0.9895 0.9750
1.3607 8.6767 1.3910 0.9651
0.2994 8.6832 1.3761 0.9654
-1.8326 8.6963 1.4076 0.9646
-4.2064 8.7109 1.5321 0.9616
-5.6006 8.7194 1.6414 0.9589
-7.2347 8.7295 1.7957 0.9551
-79.6708 45.1423 14.5034 0.6901
-65.4161 -31.8556 11.5241 0.7448
-80.7419 -52.2389 15.2314 0.6774
-17.7717 -31.6078 5.7432 0.8634
-7.8040 -28.1938 4.6334 0.8883
26.1758 -40.1667 7.5934 0.8235
35.4202 -42.1686 8.7223 0.8001
47.0281 -43.9054 10.1901 0.7706
59.6182 -43.4673 11.6859 0.7417
59.6774 -33.2951 10.8235 0.7582
55.6060 19.5879 9.3376 0.7876
40.7527 20.1793 7.2026 0.8318
34.4251 22.5964 6.5221 0.8464
-7.0413 8.7283 1.3770 0.9558
-79.3115 46.3333 11.2782 0.6906
-65.7490 -30.9500 8.9227 0.7461
-24.3724 -32.2945 4.9678 0.8495
-18.3032 -31.5696 4.4806 0.8632
-14.4052 -33.6644 4.4960 0.8628
-9.8031 -33.6793 4.3069 0.8682
23.0251 -48.4972 6.5918 0.8054
25.4594 -40.2188 5.8445 0.8254
33.4492 -40.9073 6.4882 0.8082
56.3148 -42.2092 8.6412 0.7531
59.2054 -34.0650 8.3869 0.7594
59.2579 -25.1256 7.9030 0.7715
63.7327 -18.3227 8.1424 0.7655
58.2440 19.6563 7.5477 0.7806
15.3853 9.8106 2.2405 0.9291
10.4720 8.6207 1.6654 0.9468
2.4198 5.7598 0.7671 0.9751
0.2994 8.6832 1.0668 0.9656
-2.9693 8.7033 1.1291 0.9636
-4.2064 8.7109 1.1877 0.9618
-9.2404 8.7418 1.5619 0.9500
-11.8468 8.7578 1.8089 0.9424
-81.7784 -52.9095 11.9594 0.6753
-18.2096 -32.3866 4.5620 0.8609
-10.4419 -25.3221 3.3631 0.8955
21.4776 -43.7373 5.9828 0.8217
27.4808 -42.1692 6.1801 0.8164
35.4201 -42.1685 6.7618 0.8010
45.3650 -42.3528 7.6203 0.7787
57.8560 -42.1825 8.7915 0.7493
37.1687 -15.1837 4.9298 0.8506
63.7383 -17.4162 8.1130 0.7662
66.2252 -1.6271 8.1339 0.7657
62.1552 13.7428 7.8160 0.7737
55.8850 19.6861 7.2751 0.7876
40.7527 20.1793 5.5836 0.8325
13.1063 8.6029 1.9250 0.9388
10.1965 8.6224 1.6396 0.9476
-7.0413 8.7283 0.9811 0.9560
-20.4750 8.8415 1.9512 0.9143
-18.3032 -31.5696 3.1926 0.8637
-13.5363 -31.6338 3.0103 0.8710
-5.1827 -31.6797 2.8085 0.8791
-2.3366 -56.8519 4.9781 0.7958
26.9255 -80.6617 7.4398 0.7107
25.5339 -40.3366 4.1766 0.8256
56.3946 -42.2691 6.1659 0.7535
59.3576 -25.1679 5.6406 0.7719
63.5976 -18.2838 5.7894 0.7667
63.6473 -10.1969 5.6394 0.7720
63.6952 -2.4072 5.5766 0.7742
63.7427 5.3227 5.5962 0.7735
13.4902 8.6021 1.3998 0.9378
6.4355 8.6455 0.9429 0.9576
4.9417 8.6547 0.8719 0.9608
2.4198 5.7598 0.5466 0.9752
2.4616 8.6699 0.7885 0.9645
1.3607 8.6767 0.7684 0.9653
0.2994 8.6832 0.7601 0.9657
-2.9693 8.7033 0.8045 0.9637
-4.2064 8.7109 0.8463 0.9619
-11.8468 8.7578 1.2889 0.9426
-15.4961 8.7803 1.5582 0.9310
-50.9055 -24.7894 4.9537 0.7966
-24.6707 -33.6038 3.6472 0.8459
-18.2096 -32.3866 3.2506 0.8614
-7.8233 -28.2638 2.5657 0.8889
-4.7544 -31.6823 2.8029 0.8793
27.8784 -79.9831 7.4105 0.7117
21.5312 -43.8463 4.2736 0.8219
35.4050 -42.1505 4.8160 0.8017
45.2319 -42.2285 5.4138 0.7800
56.7898 -41.4051 6.1488 0.7541
63.7004 -1.5651 5.5747 0.7743
62.1552 13.7428 5.5692 0.7745
13.1087 8.6045 1.3719 0.9390
10.1965 8.6224 1.1683 0.9478
-7.0413 8.7283 0.5877 0.9561
-8.9978 8.7403 0.6574 0.9510
-11.5225 8.7558 0.7584 0.9437
-15.0248 8.7774 0.9119 0.9327
-20.4750 8.8415 1.1688 0.9145
-23.7999 -31.5359 2.0706 0.8536
-13.0940 -30.6002 1.7443 0.8752
-9.7154 -33.3781 1.8219 0.8700
-5.4648 -33.4041 1.7739 0.8732
28.1082 -84.2046 4.6523 0.7008
33.3525 -40.7890 2.7613 0.8097
33.8252 -25.3528 2.2154 0.8442
59.3576 -25.1679 3.3789 0.7724
68.6855 -11.0040 3.6456 0.7568
68.6298 -2.5937 3.5993 0.7595
68.5753 5.7263 3.6064 0.7591
58.2887 19.6714 3.2241 0.7816
-0.7539 8.6820 0.4567 0.9657
-4.2064 8.7109 0.5070 0.9620
-7.2347 8.7295 0.5942 0.9556
-9.2404 8.7418 0.6666 0.9503
-15.4961 8.7803 0.9334 0.9311
-21.1784 8.8152 1.2022 0.9122
-23.1554 -31.5398 2.0506 0.8549
-17.1911 -30.5752 1.8383 0.8689
-10.4337 -25.3021 1.4343 0.8962
-3.6383 -24.2450 1.2849 0.9065
-2.3476 -84.2206 4.4155 0.7136
29.7858 -85.4554 4.7428 0.6959
24.7295 -50.3594 2.9403 0.7987
35.4200 -42.1683 2.8861 0.8021
45.2320 -42.2286 3.2430 0.7805
59.6602 -33.2855 3.5804 0.7606
68.6793 -10.0744 3.6378 0.7573
68.6238 -1.6861 3.5975 0.7596
63.2553 13.9861 3.3951 0.7714
40.7527 20.1793 2.3832 0.8335
10.1965 8.6224 0.6998 0.9479
-7.0413 8.7283 0.1957 0.9561
-73.9701 -5.6851 1.2950 0.7432
-23.5296 -31.1777 0.6818 0.8553
-18.3032 -31.5696 0.6370 0.8642
-8.2456 -28.3283 0.5150 0.8887
30.9603 -92.7488 1.7067 0.6763
30.7722 -64.8149 1.2524 0.7505
32.0268 -39.1678 0.8831 0.8168
42.3198 -24.3495 0.8522 0.8226
41.9197 20.0722 0.8113 0.8303
13.4902 8.6021 0.2793 0.9380
8.2228 8.6345 0.2081 0.9534
6.4217 8.6269 0.1877 0.9579
4.9191 8.6152 0.1732 0.9611
2.4197 5.7597 0.1090 0.9753
2.4616 8.6699 0.1573 0.9646
0.2994 8.6832 0.1517 0.9658
-0.7542 8.6859 0.1522 0.9657
-2.9551 8.6617 0.1597 0.9640
-7.2347 8.7295 0.1979 0.9557
-9.2404 8.7418 0.2220 0.9504
-11.8468 8.7578 0.2572 0.9428
-65.2689 -69.4498 1.6636 0.6830
-22.8924 -31.1816 0.6752 0.8566
-10.4296 -25.2921 0.4775 0.8963
-7.8701 -28.4327 0.5150 0.8887
-1.8491 -66.3382 1.1584 0.7668
41.1882 -83.8762 1.6311 0.6881
29.6743 -45.5351 0.9487 0.8046
32.9066 -39.1760 0.8930 0.8149
33.8294 -24.6649 0.7308 0.8458
90.6436 -24.7679 1.6402 0.6867
89.8518 8.6995 1.5757 0.6969
55.6062 19.5879 1.0291 0.7899
-7.0413 8.7283 -0.1957 0.9561
-8.9978 8.7403 -0.2190 0.9511
-11.5225 8.7558 -0.2526 0.9437
-20.1341 8.6942 -0.3828 0.9160
-27.6813 8.1565 -0.5037 0.8910
-53.8694 8.9956 -0.9533 0.8037
-47.7987 -9.5794 -0.8509 0.8228
-73.6875 -24.3273 -1.3545 0.7331
-63.9723 -30.1137 -1.2342 0.7536
-60.8858 -38.2609 -1.2552 0.7500
-8.3447 -19.5015 -0.3703 0.9186
-8.2435 -28.3212 -0.5149 0.8887
-3.4406 -21.0308 -0.3720 0.9183
-0.9118 -22.1851 -0.3876 0.9150
30.2266 -90.5508 -1.6663 0.6826
30.7642 -64.7980 -1.2520 0.7505
31.8505 -38.9522 -0.8783 0.8177
33.8252 -25.3528 -0.7379 0.8444
42.3198 -24.3495 -0.8522 0.8226
49.0687 -20.8053 -0.9303 0.8080
66.3209 13.7477 -1.1822 0.7626
57.9977 19.5732 -1.0684 0.7828
41.9197 20.0722 -0.8113 0.8303
13.4902 8.6021 -0.2793 0.9380
10.4720 8.6207 -0.2368 0.9472
8.2228 8.6345 -0.2081 0.9534
6.4041 8.6033 -0.1872 0.9580
4.9043 8.5892 -0.1726 0.9612
2.4616 8.6699 -0.1573 0.9646
1.3607 8.6767 -0.1533 0.9655
0.2994 8.6832 -0.1517 0.9658
-0.7542 8.6859 -0.1522 0.9657
-1.8239 8.6547 -0.1544 0.9652
-2.9477 8.6401 -0.1593 0.9641
-7.2347 8.7295 -0.1979 0.9557
-11.8468 8.7578 -0.2572 0.9428
-53.8741 8.2665 -0.9514 0.8041
-87.7134 2.7349 -1.5318 0.7039
-73.6820 -25.4096 -1.3604 0.7321
-61.0305 -39.4859 -1.2688 0.7477
-11.2647 -20.0349 -0.4012 0.9121
-10.4255 -25.2822 -0.4773 0.8964
-5.0367 -33.5641 -0.5924 0.8730
31.6789 -64.5113 -1.2545 0.7501
23.9223 -36.7087 -0.7646 0.8392
33.7872 -31.5437 -0.8068 0.8312
49.1728 -13.4362 -0.8898 0.8155
96.9836 9.3900 -1.7008 0.6772
63.2553 13.9861 -1.1308 0.7717
55.6062 19.5879 -1.0291 0.7899
40.7527 20.1793 -0.7938 0.8337
10.1965 8.6224 -0.2331 0.9480
-7.0413 8.7283 -0.5877 0.9561
-11.5225 8.7558 -0.7584 0.9437
-44.7960 7.4804 -2.3802 0.8337
-43.1897 -20.3307 -2.5017 0.8260
-11.4552 -19.7580 -1.1969 0.9126
-8.2842 -19.3600 -1.1036 0.9191
-5.6337 -19.3549 -1.0564 0.9224
-3.3759 -20.6356 -1.0958 0.9197
-0.8897 -21.6482 -1.1355 0.9169
20.4732 -43.1223 -2.5017 0.8260
23.9787 -37.8798 -2.3495 0.8356
33.7209 -25.2746 -2.2085 0.8447
38.8585 -22.3580 -2.3495 0.8356
41.2746 -17.5006 -2.3495 0.8356
47.1345 -7.5514 -2.5017 0.8260
47.5701 3.9723 -2.5017 0.8260
28.9746 13.8737 -1.6836 0.8793
13.4902 8.6021 -0.8385 0.9379
6.4041 8.6033 -0.5621 0.9580
2.4616 8.6699 -0.4723 0.9645
-1.8199 8.6358 -0.4625 0.9653
-4.1433 8.5803 -0.4994 0.9626
-5.6006 8.7194 -0.5431 0.9593
-7.2347 8.7295 -0.5942 0.9556
-9.2404 8.7418 -0.6666 0.9503
-11.8468 8.7578 -0.7721 0.9427
-15.2448 8.6379 -0.9183 0.9322
-20.1807 8.3999 -1.1456 0.9162
-25.9767 7.2827 -1.4139 0.8976
-44.9121 -4.0492 -2.3633 0.8347
-42.3821 -14.6157 -2.3495 0.8356
-15.4231 -21.0077 -1.3658 0.9009
-11.0933 -19.7299 -1.1862 0.9133
-5.3935 -19.4855 -1.0596 0.9222
-3.0969 -20.6374 -1.0937 0.9198
-0.6131 -21.9961 -1.1532 0.9156
15.7114 -45.0760 -2.5017 0.8260
21.0410 -42.8482 -2.5017 0.8260
23.9223 -36.7087 -2.2965 0.8390
24.5173 -29.1884 -1.9977 0.8584
44.4058 -12.1337 -2.4125 0.8316
47.7212 -1.1725 -2.5017 0.8260
46.8860 4.5395 -2.4687 0.8281
43.7742 9.6787 -2.3495 0.8356
28.9178 10.1866 -1.6068 0.8844
-11.5225 8.7558 -1.2661 0.9435
-19.3253 8.3450 -1.8416 0.9190
-21.6252 3.6112 -1.9182 0.9157
-26.8286 1.1914 -2.3495 0.8978
-26.7761 -2.0579 -2.3495 0.8978
-25.8716 -12.1786 -2.5017 0.8915
-16.1774 -21.4357 -2.3495 0.8978
-3.3496 -20.4747 -1.8151 0.9201
-0.8852 -21.5394 -1.8860 0.9171
2.1463 -26.7692 -2.3495 0.8978
5.7115 -28.0185 -2.5017 0.8915
22.8810 -17.1499 -2.5017 0.8915
24.7850 -14.2605 -2.5017 0.8915
28.5743 -1.0799 -2.5017 0.8915
28.4956 2.3795 -2.5017 0.8915
26.2961 5.4509 -2.3495 0.8978
25.4451 8.5873 -2.3495 0.8978
24.2559 11.6143 -2.3528 0.8976
13.4902 8.6021 -1.3998 0.9378
4.8773 8.5420 -0.8606 0.9613
2.4616 8.6699 -0.7885 0.9645
1.3607 8.6767 -0.7684 0.9653
0.2994 8.6832 -0.7601 0.9657
-0.7542 8.6859 -0.7628 0.9656
-7.2347 8.7295 -0.9919 0.9555
-9.2405 8.7418 -1.1129 0.9502
-11.8468 8.7578 -1.2889 0.9426
-15.0385 8.5210 -1.5122 0.9330
-19.7394 8.2162 -1.8706 0.9177
-26.8421 0.8370 -2.3495 0.8978
-27.3545 -2.4662 -2.4029 0.8956
-27.9606 -5.9888 -2.5017 0.8915
-27.0325 -9.3223 -2.5017 0.8915
-24.0081 -15.5329 -2.5017 0.8915
-21.9561 -18.3191 -2.5017 0.8915
-7.9092 -19.1802 -1.8151 0.9201
-3.0789 -20.5171 -1.8151 0.9201
2.4997 -26.7385 -2.3495 0.8978
6.0811 -27.9406 -2.5017 0.8915
9.4115 -27.0015 -2.5017 0.8915
15.6121 -23.9567 -2.5017 0.8915
27.5835 -7.5371 -2.5017 0.8915
28.2920 -4.1501 -2.5017 0.8915
25.3295 8.9226 -2.3495 0.8978
13.1087 8.6045 -1.3719 0.9390
10.1965 8.6224 -1.1683 0.9478
-8.9978 8.7403 -1.5402 0.9507
-14.4156 8.4215 -2.0499 0.9349
-20.3149 -1.5613 -2.5017 0.9212
-19.3477 -6.3875 -2.5017 0.9212
-17.2514 -10.8409 -2.5017 0.9212
-15.8156 -12.8453 -2.5017 0.9212
-12.2373 -16.2150 -2.4943 0.9214
-9.5977 -16.5542 -2.3495 0.9258
-7.5279 -17.5923 -2.3495 0.9258
-5.3478 -18.3728 -2.3495 0.9258
-3.0894 -18.8842 -2.3495 0.9258
1.5293 -19.0741 -2.3495 0.9258
4.0601 -19.9171 -2.4958 0.9213
8.7385 -18.4058 -2.5017 0.9212
14.7082 -14.0998 -2.5017 0.9212
16.3036 -12.2199 -2.5017 0.9212
18.7583 -7.9536 -2.5017 0.9212
19.5817 -5.6296 -2.5017 0.9212
20.3603 -0.7695 -2.5017 0.9212
20.3042 1.6955 -2.5017 0.9212
10.4581 2.1679 -1.3114 0.9579
8.9912 3.0344 -1.1652 0.9625
8.2228 8.6345 -1.4640 0.9531
6.3519 8.5332 -1.3062 0.9580
2.4196 5.7594 -0.7670 0.9751
2.4616 8.6699 -1.1066 0.9643
0.2994 8.6832 -1.0668 0.9656
-1.8170 8.6219 -1.0819 0.9651
-2.9208 8.5613 -1.1107 0.9642
-5.6006 8.7194 -1.2724 0.9591
-7.2347 8.7295 -1.3921 0.9553
-20.3400 0.6342 -2.4986 0.9213
-19.9230 -4.2673 -2.5017 0.9212
-18.3183 -8.9204 -2.5017 0.9212
-17.1067 -11.0678 -2.5017 0.9212
-13.9534 -14.8472 -2.5017 0.9212
-11.8105 -16.0870 -2.4504 0.9227
-7.2948 -17.6902 -2.3495 0.9258
4.3302 -19.8959 -2.5001 0.9212
6.7060 -19.2396 -2.5017 0.9212
8.9809 -18.2887 -2.5017 0.9212
11.1242 -17.0700 -2.5017 0.9212
16.4636 -12.0035 -2.5017 0.9212
18.8617 -7.7051 -2.5017 0.9212
19.6543 -5.3705 -2.5017 0.9212
20.3687 -0.5004 -2.5017 0.9212
20.2800 1.9635 -2.5017 0.9212
8.9865 3.1656 -1.1699 0.9623
13.1087 8.6045 -1.9253 0.9388
10.1965 8.6224 -1.6396 0.9476
-7.0413 8.7283 -1.7762 0.9556
-8.9978 8.7403 -1.9868 0.9505
-14.2294 4.1928 -2.3495 0.9417
-15.7797 0.7007 -2.5017 0.9380
-15.7488 -1.2104 -2.5017 0.9380
-15.4873 -3.1038 -2.5017 0.9380
-13.3738 -8.4042 -2.5017 0.9380
-10.9682 -11.3661 -2.5017 0.9380
-9.5149 -12.6077 -2.5017 0.9380
-0.6370 -15.4993 -2.4569 0.9391
3.1549 -15.4769 -2.5017 0.9380
8.4483 -13.3460 -2.5017 0.9380
12.6391 -9.4733 -2.5017 0.9380
13.6908 -7.8772 -2.5017 0.9380
14.5420 -6.1659 -2.5017 0.9380
15.1803 -4.3642 -2.5017 0.9380
15.7404 1.3144 -2.5017 0.9380
8.2920 2.7984 -1.3861 0.9652
13.3795 6.4064 -2.3495 0.9417
12.5078 7.9757 -2.3495 0.9417
8.2228 8.6345 -1.8885 0.9529
6.3087 8.4751 -1.6734 0.9581
4.7979 8.4029 -1.5326 0.9616
2.4196 5.7594 -0.9894 0.9750
0.2994 8.6832 -1.3761 0.9654
-1.8017 8.5498 -1.3839 0.9652
-2.8957 8.4878 -1.4204 0.9643
-4.0248 8.3348 -1.4660 0.9632
-9.2404 8.7418 -2.0147 0.9498
-11.9286 8.8183 -2.3495 0.9417
-12.9064 7.3129 -2.3495 0.9417
-14.2835 4.0045 -2.3495 0.9417
-15.7875 0.4922 -2.5017 0.9380
-15.4449 -3.3081 -2.5017 0.9380
-12.1281 -10.1191 -2.5017 0.9380
-9.3476 -12.7323 -2.5017 0.9380
-7.7412 -13.7682 -2.5017 0.9380
-0.4345 -15.5878 -2.4698 0.9388
1.4703 -15.7266 -2.5017 0.9380
5.1987 -14.9151 -2.5017 0.9380
8.6238 -13.2332 -2.5017 0.9380
10.1591 -12.0947 -2.5017 0.9380
11.5456 -10.7790 -2.5017 0.9380
12.7631 -9.3055 -2.5017 0.9380
14.6222 -5.9733 -2.5017 0.9380
15.2366 -4.1633 -2.5017 0.9380
15.7904 -0.3880 -2.5017 0.9380
15.7217 1.5222 -2.5017 0.9380
12.4013 8.1402 -2.3495 0.9417
-7.0413 8.7283 -2.1799 0.9553
-8.6701 8.4220 -2.3495 0.9519
-9.6239 7.3131 -2.3495 0.9519
-10.4368 6.0971 -2.3495 0.9519
-12.6944 2.1198 -2.5017 0.9489
-12.8324 -0.9863 -2.5017 0.9489
-12.6193 -2.5290 -2.5017 0.9489
-12.2214 -4.0348 -2.5017 0.9489
-10.8972 -6.8479 -2.5017 0.9489
-3.5969 -12.3574 -2.5017 0.9489
-2.0779 -12.7014 -2.5017 0.9489
2.5707 -12.6108 -2.5017 0.9489
4.0751 -12.2080 -2.5017 0.9489
5.5199 -11.6264 -2.5017 0.9489
6.8838 -10.8745 -2.5017 0.9489
8.1469 -9.9634 -2.5017 0.9489
10.2985 -7.7190 -2.5017 0.9489
11.1555 -6.4185 -2.5017 0.9489
12.7081 -2.0360 -2.5017 0.9489
12.8610 -0.4861 -2.5017 0.9489
8.2127 2.7716 -1.6848 0.9653
10.9019 5.2201 -2.3495 0.9519
10.1915 6.4987 -2.3495 0.9519
9.3319 7.6821 -2.3495 0.9519
8.3357 8.7531 -2.3495 0.9519
6.3087 8.4751 -2.0537 0.9579
2.4196 5.7593 -1.2143 0.9749
1.3607 8.6767 -1.7072 0.9648
0.2994 8.6832 -1.6888 0.9652
-0.7533 8.6761 -1.6928 0.9651
-1.7879 8.4842 -1.6854 0.9653
-3.9461 8.1718 -1.7639 0.9637
-5.6006 8.7194 -2.0144 0.9587
-7.2347 8.7295 -2.2038 0.9549
-11.1591 4.6448 -2.3495 0.9519
-12.1485 3.4059 -2.4525 0.9499
-12.7213 1.9520 -2.5017 0.9489
-12.1671 -4.1959 -2.5017 0.9489
-10.8058 -6.9912 -2.5017 0.9489
-7.6166 -10.3745 -2.5017 0.9489
-4.9064 -11.8983 -2.5017 0.9489
-3.4333 -12.4038 -2.5017 0.9489
-1.9100 -12.7277 -2.5017 0.9489
-0.3586 -12.8652 -2.5017 0.9489
2.7370 -12.5758 -2.5017 0.9489
4.2360 -12.1531 -2.5017 0.9489
5.6730 -11.5525 -2.5017 0.9489
8.2778 -9.8549 -2.5017 0.9489
10.3996 -7.5823 -2.5017 0.9489
11.2393 -6.2706 -2.5017 0.9489
11.9144 -4.8671 -2.5017 0.9489
12.4151 -3.3924 -2.5017 0.9489
8.1972 2.8875 -1.6893 0.9652
-9.3430 4.0345 -2.3495 0.9591
-10.3943 3.0627 -2.5017 0.9565
-10.6881 1.7848 -2.5017 0.9565
-10.6249 -2.1293 -2.5017 0.9565
-9.8042 -4.6151 -2.5017 0.9565
-8.4113 -6.8316 -2.5017 0.9565
-7.5246 -7.7976 -2.5017 0.9565
-6.5276 -8.6494 -2.5017 0.9565
-4.2630 -9.9624 -2.5017 0.9565
-1.7495 -10.6940 -2.5017 0.9565
0.8661 -10.8015 -2.5017 0.9565
2.1644 -10.6177 -2.5017 0.9565
3.4311 -10.2786 -2.5017 0.9565
5.7958 -9.1558 -2.5017 0.9565
8.6709 -6.4990 -2.5017 0.9565
9.3924 -5.4041 -2.5017 0.9565
10.8284 -0.4092 -2.5017 0.9565
10.7985 0.9017 -2.5017 0.9565
10.6106 2.1995 -2.5017 0.9565
8.1936 2.7652 -1.9965 0.9651
9.4953 4.5466 -2.4305 0.9577
8.5808 5.4716 -2.3495 0.9591
7.0183 7.3697 -2.3495 0.9591
2.4196 5.7593 -1.4422 0.9747
1.3607 8.6767 -2.0276 0.9646
-0.7533 8.6761 -2.0106 0.9649
-1.7879 8.4842 -2.0018 0.9650
-7.3928 6.9939 -2.3495 0.9591
-8.1835 6.0497 -2.3495 0.9591
-9.4306 3.9253 -2.3583 0.9589
-10.4338 2.9252 -2.5017 0.9565
-10.7108 1.6435 -2.5017 0.9565
-10.2441 -3.5327 -2.5017 0.9565
-9.7424 -4.7442 -2.5017 0.9565
-7.4209 -7.8963 -2.5017 0.9565
-6.4128 -8.7349 -2.5017 0.9565
-5.3108 -9.4455 -2.5017 0.9565
-2.8907 -10.4434 -2.5017 0.9565
-1.6081 -10.7161 -2.5017 0.9565
4.7764 -9.7267 -2.5017 0.9565
5.9163 -9.0785 -2.5017 0.9565
7.9208 -7.3948 -2.5017 0.9565
8.7560 -6.3839 -2.5017 0.9565
9.4630 -5.2796 -2.5017 0.9565
10.0314 -4.0979 -2.5017 0.9565
10.4529 -2.8562 -2.5017 0.9565
10.7214 -1.5727 -2.5017 0.9565
10.7857 1.0443 -2.5017 0.9565
8.9575 1.9805 -2.1179 0.9630
8.1909 2.8853 -2.0049 0.9650
8.5078 5.5845 -2.3495 0.9591
7.7709 6.5712 -2.3495 0.9591
-6.9815 5.3052 -2.3495 0.9643
-8.5646 3.6983 -2.4997 0.9621
-9.2090 1.5378 -2.5017 0.9621
-9.3091 -0.7155 -2.5017 0.9621
-9.1545 -1.8347 -2.5017 0.9621
-8.8659 -2.9270 -2.5017 0.9621
-8.4474 -3.9765 -2.5017 0.9621
-7.9052 -4.9677 -2.5017 0.9621
-7.2473 -5.8862 -2.5017 0.9621
-6.4833 -6.7185 -2.5017 0.9621
-3.6730 -8.5837 -2.5017 0.9621
-2.6093 -8.9645 -2.5017 0.9621
-1.5074 -9.2141 -2.5017 0.9621
-0.3834 -9.3287 -2.5017 0.9621
2.9563 -8.8562 -2.5017 0.9621
4.0043 -8.4342 -2.5017 0.9621
4.9938 -7.8888 -2.5017 0.9621
6.7398 -6.4611 -2.5017 0.9621
7.4709 -5.5996 -2.5017 0.9621
8.0926 -4.6562 -2.5017 0.9621
8.9731 -2.5797 -2.5017 0.9621
9.2190 -1.4770 -2.5017 0.9621
9.1422 1.8951 -2.5017 0.9621
8.4210 4.0322 -2.5017 0.9621
7.3933 4.7144 -2.3495 0.9643
6.7697 5.5729 -2.3495 0.9643
5.2358 7.0338 -2.3495 0.9643
4.3478 7.6147 -2.3495 0.9643
2.3804 5.6661 -1.6468 0.9749
2.3949 8.4351 -2.3495 0.9643
1.3585 8.6626 -2.3495 0.9643
0.3022 8.7633 -2.3495 0.9643
-0.7585 8.7356 -2.3495 0.9643
-2.8313 8.2988 -2.3495 0.9643
-5.5952 6.7513 -2.3495 0.9643
-7.6290 4.3227 -2.3495 0.9643
-8.6186 3.5874 -2.5014 0.9621
-8.9899 2.5204 -2.5017 0.9621
-9.2285 1.4160 -2.5017 0.9621
-9.3320 0.2910 -2.5017 0.9621
-9.2988 -0.8384 -2.5017 0.9621
-9.1295 -1.9554 -2.5017 0.9621
-7.1689 -5.9814 -2.5017 0.9621
-6.3940 -6.8036 -2.5017 0.9621
-3.5593 -8.6315 -2.5017 0.9621
-2.4907 -8.9982 -2.5017 0.9621
3.0730 -8.8163 -2.5017 0.9621
6.0050 -7.1492 -2.5017 0.9621
7.5442 -5.5005 -2.5017 0.9621
8.1534 -4.5489 -2.5017 0.9621
8.6432 -3.5308 -2.5017 0.9621
9.2377 -1.3551 -2.5017 0.9621
8.9639 1.9820 -2.4599 0.9627
8.8061 3.1021 -2.5017 0.9621
7.3304 4.8116 -2.3495 0.9643
