ply
format ascii 1.0
element vertex 719
property float32 x
property float32 y
property float32 z
property float32 I
end_header
-28.2596 -39.8932 13.0996 0.8167
-12.4056 -31.6056 9.0977 0.8688
-5.4560 -41.1753 11.1293 0.8420
34.9444 23.8694 11.3392 0.8393
35.4893 31.1528 12.6533 0.8224
34.5354 38.6505 13.8883 0.8068
3.0260 5.7152 1.7328 0.9736
-8.7943 35.9442 9.9153 0.8579
-10.2370 27.1065 7.7639 0.8869
-20.0990 22.7072 8.1255 0.8820
-11.8073 -31.6042 9.0400 0.8696
-6.7632 -28.0750 7.7379 0.8873
-4.7761 -41.2596 11.1293 0.8420
48.8176 19.1296 14.0491 0.8048
36.5363 19.7052 11.1229 0.8421
34.9315 24.7152 11.4657 0.8376
-13.2527 24.3318 7.4240 0.8916
-16.5483 23.1854 7.6326 0.8887
-37.8638 -8.7691 8.9729 0.8525
-49.6159 -25.1954 12.8470 0.7958
-17.0725 -31.6121 8.2945 0.8629
-9.9745 -25.4119 6.3026 0.8940
-4.4671 -33.7120 7.8511 0.8697
59.6974 -31.9231 15.6291 0.7574
53.8898 20.0984 13.2785 0.7897
34.9445 23.8694 9.7700 0.8405
35.4893 31.1528 10.9022 0.8238
34.5354 38.6505 11.9663 0.8083
34.6035 49.7127 13.9837 0.7798
-57.1515 -14.2330 13.5975 0.7852
-27.2129 -39.7909 11.1293 0.8205
-11.8073 -31.6042 7.7890 0.8707
-6.9446 -28.8282 6.8459 0.8854
-3.9028 -33.7155 7.8358 0.8699
48.8176 19.1296 12.1048 0.8063
36.5363 19.7052 9.5837 0.8433
34.9315 24.7152 9.8790 0.8389
35.4482 32.1672 11.0511 0.8216
34.5435 39.9672 12.1959 0.8050
35.6239 53.0229 14.7476 0.7693
2.9299 5.7615 1.4923 0.9738
0.6345 5.9078 1.3718 0.9759
-9.4463 36.0243 8.5980 0.8582
-10.6728 26.9092 6.6833 0.8880
-16.5483 23.1854 6.5763 0.8896
-21.4433 2.9314 4.2069 0.9156
-63.9000 -32.4491 13.9306 0.7467
-23.7393 -33.5120 7.9829 0.8459
-17.7004 -32.7748 7.2405 0.8592
-9.9563 -25.3657 5.2968 0.8949
-8.0944 -31.3228 6.2885 0.8765
32.1978 -87.4315 18.1107 0.6841
61.1521 -42.9415 14.5247 0.7375
59.1685 -31.6402 13.0423 0.7608
60.0124 14.4210 11.9973 0.7776
53.8899 20.0984 11.1799 0.7911
34.9445 23.8694 8.2259 0.8416
34.5354 38.6505 10.0751 0.8096
2.1648 8.6717 1.7373 0.9642
1.0772 8.6784 1.6999 0.9650
-2.1281 8.6981 1.7406 0.9642
-3.2876 8.7052 1.8088 0.9628
-20.0990 22.7072 5.8945 0.8838
-60.3717 53.4980 15.6796 0.7199
-21.5448 2.5841 4.2179 0.9154
-60.2065 -31.8333 13.2381 0.7577
-57.9030 -65.8880 17.0501 0.6995
-3.9028 -33.7155 6.5974 0.8708
28.7380 -40.9745 9.7283 0.8155
63.8615 -43.2893 14.9966 0.7302
59.7422 -30.6908 13.0554 0.7606
36.5363 19.7053 8.0690 0.8444
35.4481 32.1672 9.3045 0.8228
35.5507 41.1325 10.5678 0.8013
35.6239 53.0229 12.4168 0.7708
3.1563 8.6656 1.7927 0.9631
-3.4531 8.7063 1.8206 0.9626
-16.5483 23.1854 5.5370 0.8904
-21.4680 2.9348 3.4318 0.9160
-38.0015 -8.8010 6.1782 0.8539
-9.9403 -25.3249 4.3090 0.8957
-4.1908 -31.6272 5.0530 0.8788
-0.8830 -83.3725 13.2057 0.7134
36.6844 -42.1401 8.8490 0.7975
60.1820 -42.2603 11.6473 0.7424
60.2283 -32.2070 10.8175 0.7584
60.0124 14.4210 9.7756 0.7788
53.8898 20.0984 9.1096 0.7922
35.0252 23.9246 6.7182 0.8422
35.4893 31.1528 7.4794 0.8259
6.0196 8.6480 1.6689 0.9582
3.0246 5.7127 1.0238 0.9742
2.1648 8.6717 1.4156 0.9645
1.0772 8.6784 1.3851 0.9652
0.0203 8.6527 1.3705 0.9656
-4.5610 8.7131 1.5577 0.9610
-60.4019 53.5248 12.7824 0.7212
-58.0591 -14.4590 9.4765 0.7848
-80.0773 -30.6196 13.5786 0.7067
-63.5328 -33.5920 11.3826 0.7475
-21.6005 -31.5845 6.0605 0.8564
-3.6615 -31.6304 5.0432 0.8790
22.0530 -41.2962 7.4149 0.8273
27.8003 -39.6375 7.6681 0.8220
49.9381 -43.5224 10.4917 0.7647
48.8178 19.1297 8.3044 0.8087
36.5363 19.7053 6.5748 0.8453
34.9497 24.7281 6.7809 0.8408
7.4668 8.6391 1.8086 0.9548
5.8111 8.6493 1.6504 0.9587
3.1563 8.6656 1.4607 0.9633
-0.9202 65.0363 10.3018 0.7684
-6.2262 8.7233 1.6975 0.9575
-65.7281 -33.3773 9.0513 0.7430
-23.3870 -33.0146 4.9677 0.8495
-17.7004 -32.7748 4.5736 0.8606
-9.9396 -25.3231 3.3402 0.8962
-7.2880 -28.2021 3.5765 0.8892
-4.4671 -33.7120 4.1755 0.8719
-0.8921 -84.2295 10.3427 0.7121
29.1574 -79.1753 10.3598 0.7118
22.1224 -43.1230 5.9509 0.8226
36.7161 -42.1765 6.8660 0.7982
46.9504 -42.3011 7.7595 0.7752
60.1819 -42.2602 9.0293 0.7435
63.3184 -24.5524 8.3385 0.7606
64.1709 -8.2340 7.9438 0.7705
64.2671 7.4026 7.9432 0.7705
60.0124 14.4210 7.5783 0.7798
53.8898 20.0984 7.0620 0.7931
9.8252 8.6246 1.6052 0.9487
7.6963 8.6133 1.4183 0.9545
2.1648 8.6717 1.0974 0.9646
0.0203 8.6527 1.0624 0.9657
-1.0375 8.6914 1.0747 0.9653
-2.1281 8.6981 1.0995 0.9646
-4.5610 8.7131 1.2075 0.9611
-9.8694 8.7457 1.6191 0.9482
-27.6931 -31.5120 5.1510 0.8445
-22.8392 -33.3958 4.9677 0.8495
-11.8073 -31.6043 4.1425 0.8729
-3.9028 -33.7155 4.1674 0.8722
24.4645 -45.8118 6.3768 0.8112
37.9636 -42.1840 6.9682 0.7956
48.5480 -42.3109 7.9071 0.7714
62.3630 -42.2735 9.2506 0.7381
66.7009 -7.4426 8.2407 0.7630
12.1694 8.6102 1.8304 0.9417
9.5065 8.6266 1.5762 0.9496
7.4668 8.6391 1.4020 0.9550
5.8111 8.6493 1.2794 0.9589
-1.1833 8.6923 1.0771 0.9653
-2.2811 8.6991 1.1042 0.9644
-3.4531 8.7063 1.1500 0.9630
-21.5170 2.9415 1.9000 0.9165
-7.3063 -28.2731 2.5548 0.8894
-4.1986 -31.6858 2.7964 0.8796
22.6177 -44.0885 4.3352 0.8196
36.7366 -42.2001 4.8950 0.7988
46.8473 -42.2083 5.5168 0.7763
60.1818 -42.2602 6.4337 0.7443
60.1785 -32.1803 5.9704 0.7603
63.7719 -24.7282 5.9841 0.7598
64.1709 -8.2340 5.6603 0.7712
64.2190 -0.4154 5.6185 0.7727
64.0567 7.3784 5.6413 0.7719
60.0124 14.4210 5.3999 0.7805
51.2522 19.1147 4.7857 0.8028
12.6014 8.6076 1.3351 0.9406
9.8252 8.6246 1.1438 0.9489
7.6963 8.6133 1.0106 0.9547
6.0196 8.6480 0.9219 0.9586
3.0246 5.7125 0.5655 0.9744
2.1648 8.6717 0.7820 0.9647
0.0203 8.6527 0.7570 0.9659
-1.0375 8.6914 0.7658 0.9655
-3.2876 8.7052 0.8141 0.9633
-4.5610 8.7131 0.8604 0.9613
-6.0106 8.7220 0.9267 0.9584
-9.8694 8.7457 1.1537 0.9484
-12.7008 8.7631 1.3500 0.9399
-21.4534 2.5731 1.8904 0.9169
-57.8467 -14.4061 5.2155 0.7871
-63.7168 -33.6893 6.3057 0.7487
-11.8073 -31.6044 2.9517 0.8733
-7.6279 -31.6647 2.8496 0.8774
-3.6682 -31.6890 2.7909 0.8798
21.8357 -86.1628 7.7766 0.6998
21.3726 -55.2107 5.1796 0.7884
27.6726 -39.4554 4.2163 0.8241
37.9636 -42.1840 4.9651 0.7962
47.3430 -41.2608 5.4943 0.7771
62.3630 -42.2735 6.5914 0.7390
64.1282 -15.1689 5.7653 0.7675
64.1775 -7.1610 5.6496 0.7716
64.2255 0.6440 5.6193 0.7727
60.0188 15.4738 5.4227 0.7797
48.8178 19.1297 4.5872 0.8102
36.7197 19.8042 3.6500 0.8458
12.1694 8.6102 1.3042 0.9419
7.4668 8.6391 0.9990 0.9552
5.8111 8.6493 0.9116 0.9590
0.6338 5.9007 0.5192 0.9765
-0.9344 66.0364 5.7780 0.7671
-21.5414 2.9448 1.1394 0.9166
-22.3471 -31.5467 2.0261 0.8565
-16.5147 -30.5793 1.8214 0.8700
21.1778 -89.7585 4.8332 0.6912
29.4621 -80.0027 4.4680 0.7107
27.5545 -40.6987 2.5758 0.8213
36.7159 -42.1763 2.9306 0.7993
46.8472 -42.2082 3.3047 0.7768
53.5850 -20.7782 3.0120 0.7944
67.4807 -17.1418 3.6488 0.7566
69.1831 -8.8771 3.6555 0.7562
69.0725 7.9562 3.6439 0.7569
51.2522 19.1147 2.8667 0.8032
38.0070 19.6962 2.2434 0.8424
12.6014 8.6076 0.7998 0.9407
7.6963 8.6133 0.6054 0.9548
6.0196 8.6480 0.5522 0.9587
3.0245 5.7125 0.3387 0.9744
2.1602 8.6533 0.4674 0.9649
0.0203 8.6527 0.4535 0.9659
-2.1237 8.6800 0.4683 0.9648
-4.5610 8.7131 0.5154 0.9614
-6.0106 8.7220 0.5551 0.9585
-12.7008 8.7631 0.8087 0.9401
-23.3370 8.8285 1.3076 0.9049
-21.4582 2.5737 1.1326 0.9171
-57.7254 -14.3759 3.1177 0.7880
-27.7238 -31.5470 2.2010 0.8452
-21.5779 -31.5514 2.0032 0.8580
-12.5620 -24.2068 1.4293 0.8965
-8.0432 -33.3884 1.7999 0.8715
-2.8339 -24.4810 1.2916 0.9060
0.3704 -62.7535 3.2888 0.7777
22.2113 -87.6447 4.7385 0.6962
29.8468 -77.1016 4.3329 0.7181
28.7101 -40.9346 2.6203 0.8185
37.9636 -42.1840 2.9742 0.7967
62.3630 -42.2735 3.9484 0.7395
52.9444 -19.5315 2.9575 0.7977
69.1754 -7.7187 3.6478 0.7567
48.8178 19.1297 2.7478 0.8106
36.5363 19.7053 2.1755 0.8468
12.1694 8.6102 0.7813 0.9420
7.4668 8.6391 0.5984 0.9553
5.8111 8.6493 0.5461 0.9591
2.9291 5.7599 0.3387 0.9744
3.1551 8.6624 0.4832 0.9637
2.0098 8.6559 0.4657 0.9650
-0.9202 65.0364 3.4087 0.7706
-1.1819 8.6821 0.4592 0.9655
-2.2769 8.6831 0.4704 0.9647
-4.7463 8.7142 0.5200 0.9610
-6.2262 8.7233 0.5617 0.9580
-38.1220 -8.8289 0.6830 0.8551
-62.8359 -31.9088 1.2301 0.7543
-22.0920 -31.1865 0.6671 0.8582
-17.7004 -32.7748 0.6502 0.8616
-9.9279 -25.2932 0.4743 0.8970
-4.1391 -31.2371 0.5500 0.8816
32.2045 -87.4496 1.6266 0.6888
44.9000 -87.5231 1.7170 0.6747
34.6081 -24.3021 0.7381 0.8444
45.5389 -24.3518 0.9014 0.8133
38.0070 19.6963 0.7472 0.8426
9.8252 8.6246 0.2282 0.9490
6.0065 8.6292 0.1835 0.9588
0.0203 8.6527 0.1510 0.9660
-1.0349 8.6704 0.1524 0.9657
-2.1220 8.6729 0.1559 0.9649
-6.0106 8.7220 0.1849 0.9585
-9.8694 8.7457 0.2302 0.9486
-12.6814 8.7497 0.2689 0.9402
-16.7473 8.7788 0.3301 0.9271
-23.3370 8.8285 0.4355 0.9050
-21.4630 2.5743 0.3773 0.9172
-21.3315 -31.1912 0.6596 0.8597
-12.5695 -24.2213 0.4763 0.8966
-3.8861 -33.5711 0.5899 0.8735
35.8625 -24.3098 0.7562 0.8409
47.4598 -24.3811 0.9313 0.8078
50.5923 -18.6638 0.9413 0.8060
32.9026 8.4828 0.5931 0.8729
51.3303 20.1142 0.9623 0.8021
12.1694 8.6102 0.2602 0.9421
9.5065 8.6266 0.2241 0.9499
3.1563 8.6656 0.1610 0.9638
2.0137 8.6726 0.1554 0.9650
0.6333 5.8966 0.1035 0.9766
-0.9202 65.0363 1.1353 0.7709
-2.2724 8.6658 0.1564 0.9648
-3.4368 8.6651 0.1627 0.9634
-4.7463 8.7142 0.1732 0.9611
-75.5074 -8.0670 -1.3255 0.7380
-38.1480 -8.8349 -0.6835 0.8550
-60.7913 -40.7934 -1.2779 0.7461
-15.1945 -21.4495 -0.4588 0.9002
-10.7817 -19.9639 -0.3960 0.9132
-8.6679 -33.5418 -0.6047 0.8706
-2.7621 -20.8449 -0.3670 0.9193
32.1713 -87.3594 -1.6250 0.6891
24.8103 -36.6454 -0.7725 0.8377
33.9246 -38.9699 -0.9019 0.8133
34.3026 -30.9058 -0.8059 0.8313
34.6081 -24.3021 -0.7381 0.8444
45.5389 -24.3518 -0.9014 0.8133
51.7232 -20.0562 -0.9683 0.8010
49.7729 -12.6436 -0.8964 0.8143
60.0124 14.4210 -1.0773 0.7812
38.0070 19.6963 -0.7472 0.8426
9.8252 8.6246 -0.2282 0.9490
3.3188 8.6646 -0.1620 0.9636
0.0203 8.6527 -0.1510 0.9660
-2.1169 8.6524 -0.1555 0.9650
-3.2556 8.6204 -0.1608 0.9638
-12.6475 8.7264 -0.2682 0.9404
-16.6951 8.7514 -0.3290 0.9274
-23.3370 8.8285 -0.4355 0.9050
-87.0847 21.3588 -1.5651 0.6986
-21.4678 2.5748 -0.3774 0.9171
-87.2201 -0.1551 -1.5224 0.7054
0.1326 -22.4709 -0.3922 0.9140
29.1324 -54.5530 -1.0795 0.7808
34.3088 -29.9011 -0.7944 0.8335
35.8625 -24.3098 -0.7562 0.8409
47.4598 -24.3811 -0.9313 0.8078
46.0323 18.0382 -0.8630 0.8205
12.1694 8.6102 -0.2602 0.9421
7.4550 8.6255 -0.1990 0.9554
5.7799 8.6028 -0.1809 0.9594
3.1563 8.6656 -0.1610 0.9638
0.6331 5.8945 -0.1035 0.9766
-0.9160 64.7363 -1.1301 0.7718
-1.1776 8.6509 -0.1524 0.9657
-2.2669 8.6452 -0.1560 0.9649
-41.7944 -4.4652 -2.2028 0.8450
-36.1340 -31.1949 -2.5018 0.8260
-30.1464 -33.1836 -2.3496 0.8356
-7.5079 -19.1280 -1.0769 0.9210
-0.2325 -21.9562 -1.1507 0.9158
4.2820 -38.5733 -2.0340 0.8560
16.4966 -44.7957 -2.5018 0.8260
33.3076 -30.0094 -2.3496 0.8356
34.4575 -24.1963 -2.2066 0.8448
41.8001 -16.2084 -2.3496 0.8356
47.7357 -0.3088 -2.5018 0.8260
43.5916 10.4751 -2.3496 0.8356
22.9665 8.5654 -1.2846 0.9065
30.7513 15.9361 -1.8152 0.8705
9.8252 8.6246 -0.6852 0.9490
7.6963 8.6133 -0.6054 0.9548
5.9727 8.5806 -0.5479 0.9590
3.0244 5.7123 -0.3387 0.9744
3.3188 8.6646 -0.4863 0.9635
2.1648 8.6717 -0.4684 0.9648
0.0203 8.6527 -0.4535 0.9659
-1.0320 8.6457 -0.4563 0.9657
-2.1119 8.6319 -0.4657 0.9650
-3.2393 8.5774 -0.4805 0.9639
-4.5610 8.7131 -0.5154 0.9614
-7.7295 8.7325 -0.6112 0.9544
-9.8694 8.7457 -0.6911 0.9486
-16.6951 8.7514 -0.9879 0.9273
-22.4109 8.4781 -1.2557 0.9085
-33.9391 8.3241 -1.8314 0.8694
-21.4726 2.5754 -1.1334 0.9170
-45.2212 -0.0805 -2.3699 0.8343
-37.8910 -9.4364 -2.0464 0.8552
-42.1493 -16.1169 -2.3649 0.8346
-14.1523 -20.6937 -1.3139 0.9045
-7.1170 -19.0500 -1.0658 0.9218
-4.7809 -19.8461 -1.0698 0.9215
6.0486 -47.3519 -2.5018 0.8260
17.2332 -44.5175 -2.5018 0.8260
29.9905 -33.3246 -2.3496 0.8356
35.7064 -24.2040 -2.2607 0.8413
42.0617 -15.5167 -2.3496 0.8356
47.4423 -5.2937 -2.5018 0.8260
12.1694 8.6102 -0.7813 0.9420
9.5065 8.6266 -0.6728 0.9499
7.4550 8.6255 -0.5975 0.9554
5.7631 8.5779 -0.5416 0.9595
2.9290 5.7598 -0.3386 0.9744
2.0137 8.6726 -0.4666 0.9650
0.6329 5.8925 -0.3106 0.9765
-0.6714 47.4479 -2.4869 0.8269
-1.1760 8.6389 -0.4569 0.9657
-2.2616 8.6247 -0.4673 0.9649
-4.7463 8.7142 -0.5200 0.9610
-26.8528 0.3952 -2.3496 0.8978
-27.6459 -2.9536 -2.4325 0.8944
-27.8581 -6.4517 -2.5018 0.8915
-26.8742 -9.7711 -2.5018 0.8915
-21.6452 -18.6865 -2.5018 0.8915
-18.0584 -19.8777 -2.3496 0.8978
-10.5313 -19.5002 -1.9389 0.9149
-0.2290 -21.6193 -1.8915 0.9168
2.9630 -26.6918 -2.3496 0.8978
6.5666 -27.8312 -2.5018 0.8915
9.8819 -26.8337 -2.5018 0.8915
16.0315 -23.6789 -2.5018 0.8915
18.7756 -21.5679 -2.5018 0.8915
21.1761 -19.0792 -2.4937 0.8919
23.4020 -16.4330 -2.5018 0.8915
25.2164 -13.4844 -2.5018 0.8915
27.7152 -7.0403 -2.5018 0.8915
28.5948 -0.1850 -2.5018 0.8915
25.1627 9.3845 -2.3496 0.8978
23.9073 12.3894 -2.3558 0.8975
12.6014 8.6076 -1.3351 0.9406
9.8252 8.6246 -1.1438 0.9489
7.6963 8.6133 -1.0106 0.9547
5.9558 8.5564 -0.9121 0.9590
3.0244 5.7122 -0.5655 0.9744
1.0772 8.6784 -0.7651 0.9655
0.0203 8.6527 -0.7570 0.9659
-1.0320 8.6457 -0.7618 0.9656
-3.2314 8.5564 -0.8002 0.9639
-6.0106 8.7220 -0.9267 0.9584
-9.8694 8.7457 -1.1537 0.9484
-12.5473 8.6572 -1.3337 0.9406
-22.4109 8.4781 -2.0963 0.9083
-26.1355 6.4101 -2.3543 0.8976
-19.4609 2.3341 -1.7148 0.9243
-26.8557 -0.0478 -2.3496 0.8978
-28.3121 -3.4980 -2.4958 0.8918
-26.7094 -10.2130 -2.5018 0.8915
-25.2793 -13.3661 -2.5018 0.8915
-21.3340 -19.0410 -2.5018 0.8915
-14.1531 -20.6948 -2.1935 0.9042
-4.7322 -19.6439 -1.7678 0.9221
10.3231 -26.6670 -2.5018 0.8915
13.4702 -25.2240 -2.5018 0.8915
19.1288 -21.2553 -2.5018 0.8915
21.5573 -18.7878 -2.5018 0.8915
27.8275 -6.5823 -2.5018 0.8915
28.4190 -3.1710 -2.5018 0.8915
28.5940 0.2867 -2.5018 0.8915
16.2617 8.7705 -1.6164 0.9285
9.5065 8.6266 -1.1231 0.9498
3.1563 8.6656 -0.8069 0.9636
2.0137 8.6726 -0.7789 0.9649
0.6327 5.8909 -0.5183 0.9765
-0.3901 27.5731 -2.4126 0.8952
-1.1760 8.6389 -0.7628 0.9656
-3.3906 8.5486 -0.8046 0.9637
-20.2600 -2.1645 -2.5018 0.9212
-19.8499 -4.5971 -2.5018 0.9212
-13.7008 -15.0811 -2.5018 0.9212
-11.4346 -16.1418 -2.4289 0.9234
-6.9917 -17.8127 -2.3496 0.9258
-4.7878 -18.5271 -2.3496 0.9258
-2.5136 -18.9699 -2.3496 0.9258
-0.2027 -19.1347 -2.3496 0.9258
4.6723 -19.8030 -2.4983 0.9213
9.3003 -18.1289 -2.5018 0.9212
13.3783 -15.3679 -2.5018 0.9212
15.1375 -13.6385 -2.5018 0.9212
16.6748 -11.7092 -2.5018 0.9212
17.9677 -9.6082 -2.5018 0.9212
18.9971 -7.3663 -2.5018 0.9212
8.3473 3.1131 -1.0939 0.9647
12.6014 8.6076 -1.8738 0.9404
9.8252 8.6246 -1.6052 0.9487
7.6963 8.6133 -1.4183 0.9545
5.9112 8.4923 -1.2705 0.9592
3.0244 5.7122 -0.7936 0.9743
3.3188 8.6646 -1.1393 0.9633
2.1648 8.6717 -1.0974 0.9646
0.0203 8.6527 -1.0624 0.9657
-1.0308 8.6355 -1.0678 0.9656
-2.0991 8.5796 -1.0845 0.9650
-3.2166 8.5171 -1.1179 0.9640
-6.0106 8.7220 -1.3006 0.9582
-9.8694 8.7457 -1.6191 0.9482
-16.9598 8.8902 -2.3512 0.9257
-18.9996 2.2788 -2.3496 0.9258
-20.2216 -2.4984 -2.5018 0.9212
-19.7714 -4.9239 -2.5018 0.9212
-18.0125 -9.5238 -2.5018 0.9212
-15.2013 -13.5674 -2.5018 0.9212
-13.4502 -15.3050 -2.5018 0.9212
-10.9243 -15.9737 -2.3761 0.9250
-6.6970 -17.9256 -2.3496 0.9258
-4.4816 -18.6036 -2.3496 0.9258
0.1129 -19.1354 -2.3496 0.9258
2.4247 -18.9815 -2.3496 0.9258
11.6997 -16.6814 -2.5018 0.9212
13.6300 -15.1452 -2.5018 0.9212
15.3604 -13.3870 -2.5018 0.9212
16.8656 -11.4326 -2.5018 0.9212
19.8281 -4.6901 -2.5018 0.9212
20.3743 0.2043 -2.5018 0.9212
8.3516 3.2727 -1.1014 0.9645
7.4181 8.5828 -1.3929 0.9553
5.7013 8.4858 -1.2552 0.9596
2.9289 5.7596 -0.7934 0.9743
3.1563 8.6656 -1.1324 0.9635
2.0137 8.6726 -1.0932 0.9648
-0.2745 19.3980 -2.3820 0.9248
-1.1746 8.6282 -1.0692 0.9655
-2.2476 8.5715 -1.0880 0.9649
-6.2262 8.7233 -1.3159 0.9577
-15.6268 2.1363 -2.4981 0.9381
-15.7939 0.2324 -2.5018 0.9380
-15.3883 -3.5638 -2.5018 0.9380
-13.1162 -8.8015 -2.5018 0.9380
-11.9564 -10.3221 -2.5018 0.9380
-9.1305 -12.8893 -2.5018 0.9380
-5.7546 -14.6609 -2.4945 0.9382
-1.9720 -14.8822 -2.3777 0.9410
-0.1640 -15.4863 -2.4529 0.9392
1.7427 -15.6991 -2.5018 0.9380
5.4586 -14.8224 -2.5018 0.9380
7.2099 -14.0541 -2.5018 0.9380
8.8555 -13.0798 -2.5018 0.9380
10.3713 -11.9137 -2.5018 0.9380
11.7351 -10.5730 -2.5018 0.9380
15.7952 -0.1022 -2.5018 0.9380
15.6918 1.8075 -2.5018 0.9380
8.7836 2.1107 -1.4308 0.9641
13.1711 6.8256 -2.3496 0.9417
12.2496 8.3673 -2.3496 0.9417
9.8252 8.6246 -2.0707 0.9484
7.6963 8.6133 -1.8295 0.9543
1.0772 8.6784 -1.3851 0.9652
-1.0222 8.5640 -1.3660 0.9657
-2.0815 8.5074 -1.3872 0.9652
-7.7295 8.7325 -1.8471 0.9539
-13.1389 6.8873 -2.3496 0.9417
-15.6832 1.8810 -2.5018 0.9380
-15.7956 -0.0281 -2.5018 0.9380
-14.7538 -5.6415 -2.5018 0.9380
-13.9638 -7.3832 -2.5018 0.9380
-7.2757 -14.0202 -2.5018 0.9380
-3.5250 -14.6330 -2.3839 0.9409
-1.7299 -14.9440 -2.3827 0.9409
2.0014 -15.6682 -2.5018 0.9380
3.8803 -15.3115 -2.5018 0.9380
5.7023 -14.7304 -2.5018 0.9380
9.0700 -12.9319 -2.5018 0.9380
10.5664 -11.7410 -2.5018 0.9380
14.8193 -5.4669 -2.5018 0.9380
15.7948 0.1584 -2.5018 0.9380
15.6599 2.0661 -2.5018 0.9380
8.3727 2.1586 -1.3695 0.9656
7.6161 2.9844 -1.2956 0.9674
13.0567 7.0419 -2.3496 0.9417
9.5065 8.6266 -2.0332 0.9493
7.4181 8.5828 -1.7968 0.9551
2.9289 5.7596 -1.0234 0.9742
2.0137 8.6726 -1.4102 0.9646
0.6324 5.8882 -0.9380 0.9763
-0.2113 14.9326 -2.3653 0.9413
-1.1648 8.5567 -1.3677 0.9656
-2.2286 8.4991 -1.3916 0.9650
-3.3322 8.4015 -1.4315 0.9641
-12.8691 0.1894 -2.5018 0.9489
-12.7977 -1.3673 -2.5018 0.9489
-12.0958 -4.3979 -2.5018 0.9489
-11.4757 -5.8274 -2.5018 0.9489
-1.6906 -12.7590 -2.5018 0.9489
-0.1363 -12.8698 -2.5018 0.9489
2.9555 -12.5266 -2.5018 0.9489
4.4477 -12.0775 -2.5018 0.9489
5.8747 -11.4515 -2.5018 0.9489
8.4507 -9.7075 -2.5018 0.9489
10.5330 -7.3963 -2.5018 0.9489
12.4743 -3.1688 -2.5018 0.9489
12.8702 -0.0832 -2.5018 0.9489
12.7860 1.4728 -2.5018 0.9489
8.3536 2.0074 -1.6700 0.9656
7.2882 2.7182 -1.5120 0.9688
10.7320 5.5616 -2.3496 0.9519
5.7896 8.3176 -1.9699 0.9595
2.1648 8.6717 -1.7373 0.9642
1.0772 8.6784 -1.6999 0.9650
0.0203 8.6527 -1.6819 0.9654
-1.0181 8.5290 -1.6696 0.9656
-2.0639 8.4356 -1.6881 0.9652
-3.1264 8.2783 -1.7201 0.9646
-7.7267 8.7293 -2.2660 0.9536
-9.0466 8.0166 -2.3496 0.9519
-12.4742 3.0595 -2.4966 0.9490
-12.7789 1.5327 -2.5018 0.9489
-12.8705 -0.0229 -2.5018 0.9489
-12.4890 -3.1103 -2.5018 0.9489
-11.3780 -6.0159 -2.5018 0.9489
-10.5675 -7.3469 -2.5018 0.9489
-9.6022 -8.5701 -2.5018 0.9489
-8.4961 -9.6678 -2.5018 0.9489
-7.2655 -10.6237 -2.5018 0.9489
-5.9283 -11.4239 -2.5018 0.9489
-4.5043 -12.0566 -2.5018 0.9489
-3.0142 -12.5126 -2.5018 0.9489
-1.4800 -12.7851 -2.5018 0.9489
1.6308 -12.7668 -2.5018 0.9489
3.1617 -12.4761 -2.5018 0.9489
7.3904 -10.5372 -2.5018 0.9489
8.6097 -9.5668 -2.5018 0.9489
9.7027 -8.4562 -2.5018 0.9489
11.4482 -5.8812 -2.5018 0.9489
12.0750 -4.4545 -2.5018 0.9489
12.5249 -2.9626 -2.5018 0.9489
7.2713 2.8494 -1.5181 0.9687
9.8674 6.9815 -2.3496 0.9519
5.5839 8.3112 -1.9463 0.9600
2.9289 5.7595 -1.2560 0.9740
3.1563 8.6656 -1.7927 0.9631
2.0137 8.6726 -1.7306 0.9644
0.6323 5.8868 -1.1509 0.9762
-0.1714 12.1131 -2.3548 0.9518
-1.1575 8.5031 -1.6681 0.9656
-2.2098 8.4272 -1.6935 0.9651
-10.8352 0.1594 -2.5018 0.9565
-10.7751 -1.1512 -2.5018 0.9565
-8.9982 -6.0382 -2.5018 0.9565
-7.2866 -8.0207 -2.5018 0.9565
-6.2639 -8.8425 -2.5018 0.9565
-5.1494 -9.5347 -2.5018 0.9565
-0.1148 -10.8358 -2.5018 0.9565
3.7448 -10.1687 -2.5018 0.9565
6.0752 -8.9732 -2.5018 0.9565
8.0507 -7.2535 -2.5018 0.9565
9.5559 -5.1100 -2.5018 0.9565
10.1034 -3.9177 -2.5018 0.9565
10.5028 -2.6680 -2.5018 0.9565
10.8361 -0.0701 -2.5018 0.9565
2.1648 8.6717 -2.0635 0.9640
-1.0181 8.5290 -1.9830 0.9654
-3.0663 8.1192 -2.0037 0.9650
-4.7198 9.0165 -2.3496 0.9591
-6.7453 7.6207 -2.3496 0.9591
-7.6169 6.7496 -2.3496 0.9591
-8.3767 5.7796 -2.3496 0.9591
-9.8947 3.7432 -2.4424 0.9575
-10.7593 1.2905 -2.5018 0.9565
-10.8364 -0.0193 -2.5018 0.9565
-10.1217 -3.8703 -2.5018 0.9565
-9.5797 -5.0651 -2.5018 0.9565
-8.8974 -6.1858 -2.5018 0.9565
-8.0846 -7.2157 -2.5018 0.9565
-7.1533 -8.1398 -2.5018 0.9565
-4.9914 -9.6183 -2.5018 0.9565
-3.7924 -10.1511 -2.5018 0.9565
-1.2461 -10.7645 -2.5018 0.9565
0.0640 -10.8362 -2.5018 0.9565
1.3731 -10.7490 -2.5018 0.9565
3.9120 -10.1056 -2.5018 0.9565
5.1046 -9.5588 -2.5018 0.9565
7.2489 -8.0548 -2.5018 0.9565
9.6388 -4.9517 -2.5018 0.9565
10.1666 -3.7505 -2.5018 0.9565
10.7695 -1.2017 -2.5018 0.9565
10.7433 1.4174 -2.5018 0.9565
7.2451 2.8390 -1.7965 0.9686
8.9574 4.8310 -2.3496 0.9591
2.9288 5.7595 -1.4917 0.9738
2.0137 8.6726 -2.0555 0.9641
0.6321 5.8854 -1.3666 0.9760
-1.1575 8.5031 -1.9812 0.9654
-3.7521 9.4602 -2.3496 0.9591
-4.8679 8.9374 -2.3496 0.9591
-5.9123 8.2836 -2.3496 0.9591
-9.2507 1.2646 -2.5018 0.9621
-9.3357 0.1374 -2.5018 0.9621
-9.0960 -2.1066 -2.5018 0.9621
-7.7530 -5.2025 -2.5018 0.9621
-7.0674 -6.1014 -2.5018 0.9621
-6.2782 -6.9107 -2.5018 0.9621
-5.3970 -7.6188 -2.5018 0.9621
-3.4114 -8.6912 -2.5018 0.9621
-0.0989 -9.3362 -2.5018 0.9621
4.2617 -8.3074 -2.5018 0.9621
7.6410 -5.3656 -2.5018 0.9621
8.2335 -4.4028 -2.5018 0.9621
9.0493 -2.2987 -2.5018 0.9621
9.2608 -1.1883 -2.5018 0.9621
9.3365 -0.0604 -2.5018 0.9621
9.2754 1.0684 -2.5018 0.9621
8.2661 1.9863 -2.2780 0.9654
8.2780 4.2899 -2.4982 0.9621
7.2408 4.9459 -2.3496 0.9643
5.8426 6.5387 -2.3496 0.9643
3.1364 8.1886 -2.3496 0.9643
2.1238 8.5076 -2.3496 0.9643
1.0801 8.7020 -2.3496 0.9643
-4.0667 7.7687 -2.3496 0.9643
-8.7328 3.3036 -2.5018 0.9621
-9.0680 2.2241 -2.5018 0.9621
-9.2703 1.1119 -2.5018 0.9621
-9.2663 -1.1448 -2.5018 0.9621
-9.0600 -2.2563 -2.5018 0.9621
-8.2540 -4.3642 -2.5018 0.9621
-6.9658 -6.2171 -2.5018 0.9621
-5.2707 -7.7068 -2.5018 0.9621
-4.3006 -8.2873 -2.5018 0.9621
-3.2676 -8.7463 -2.5018 0.9621
-1.0736 -9.2748 -2.5018 0.9621
2.2936 -9.0506 -2.5018 0.9621
5.3613 -7.6441 -2.5018 0.9621
7.0387 -6.1344 -2.5018 0.9621
9.0860 -2.1492 -2.5018 0.9621
9.2792 -1.0354 -2.5018 0.9621
9.3363 0.0936 -2.5018 0.9621
7.8164 2.0152 -2.1629 0.9671
7.2758 2.8511 -2.0939 0.9682
8.1988 4.4219 -2.4960 0.9622
5.7339 6.6342 -2.3496 0.9643
4.8901 7.2786 -2.3496 0.9643
2.8711 5.6460 -1.6972 0.9741
3.0010 8.2392 -2.3496 0.9643
-2.2241 8.4820 -2.3496 0.9643
-3.2329 8.1510 -2.3496 0.9643
-4.1942 7.7006 -2.3496 0.9643
-5.0941 7.1373 -2.3496 0.9643
