ply
format ascii 1.0
element vertex 520
property float32 x
property float32 y
property float32 z
property float32 I
end_header
9.5876 5.7186 2.9913 0.9548
34.6020 26.7551 11.7199 0.8343
35.1508 34.6756 13.2303 0.8151
35.7956 58.1987 18.3078 0.7536
-11.1733 25.5866 7.4811 0.8908
-17.7232 23.1926 7.8212 0.8861
-56.2921 -16.5316 15.7204 0.7843
-25.4737 -40.3800 12.7929 0.8206
-15.9430 -33.6549 9.9785 0.8571
-10.3077 -30.8963 8.7272 0.8738
-5.9680 -29.1987 7.9855 0.8839
45.9703 19.1471 13.3434 0.8137
34.5943 25.5129 11.5177 0.8369
35.6441 33.5967 13.1247 0.8164
34.6937 41.6470 14.5240 0.7989
44.8849 19.9053 11.3358 0.8174
9.5877 5.7186 2.5773 0.9552
34.6020 26.7551 10.0980 0.8356
35.1508 34.6756 11.3993 0.8165
34.7060 43.6441 12.8735 0.7954
-11.1733 25.5866 6.4458 0.8917
-17.7232 23.1926 6.7389 0.8871
-54.1652 55.5359 17.9099 0.7273
-55.6696 -42.0418 16.1056 0.7510
-14.8793 -31.4096 8.0240 0.8670
-10.0965 -30.2632 7.3654 0.8772
59.9777 -28.8314 15.3637 0.7609
45.9703 19.1471 11.4969 0.8151
10.0978 5.7154 2.6788 0.9535
35.6441 33.5967 11.3084 0.8178
34.6937 41.6470 12.5141 0.8005
35.3191 54.5998 15.0128 0.7657
59.8969 -27.1325 12.7816 0.7649
35.0661 20.9153 7.9365 0.8467
34.9909 27.0558 8.5976 0.8351
35.4253 44.5486 11.0635 0.7930
34.7855 56.5565 12.9064 0.7630
1.6705 8.6748 1.7172 0.9646
0.6073 8.6813 1.6916 0.9652
-1.5008 8.6942 1.7150 0.9647
-17.7232 23.1926 5.6738 0.8879
-54.1652 55.5359 15.0793 0.7290
-56.3394 -16.5455 11.4137 0.7872
-55.4433 -41.8709 13.5051 0.7534
-3.2955 -40.4837 7.8953 0.8475
37.0214 -87.4792 18.4643 0.6790
24.8426 -43.3141 9.7059 0.8159
60.3639 -29.0170 13.0188 0.7612
60.1676 16.9285 12.1495 0.7752
35.0595 19.8440 7.8308 0.8486
3.0014 8.6666 1.7828 0.9633
0.8061 8.6801 1.6945 0.9651
60.3456 -27.3358 10.4927 0.7647
75.4317 13.4637 12.1360 0.7332
60.1768 18.4187 9.9675 0.7750
8.7495 8.6313 1.9466 0.9514
5.3217 8.6523 1.6089 0.9597
-0.4395 8.6877 1.3778 0.9654
-2.6091 8.7011 1.4387 0.9639
-3.7954 8.6913 1.5021 0.9623
-5.1320 8.7166 1.6021 0.9599
-6.6682 8.7260 1.7394 0.9565
-8.5217 8.7374 1.9331 0.9518
-79.6305 49.6040 14.8591 0.6839
-80.9444 26.4940 13.4896 0.7083
-77.8503 5.8916 12.3655 0.7289
-79.4096 -13.2433 12.7510 0.7218
-64.5777 -37.5280 11.8298 0.7390
-56.7638 -42.8681 11.2663 0.7497
-22.3404 -21.5424 4.9155 0.8819
-19.9315 -31.5947 5.9167 0.8596
-10.5464 -31.6120 5.2781 0.8738
-6.4664 -31.6370 5.1144 0.8774
-2.5753 -31.6371 5.0274 0.8794
23.0389 -54.4392 9.3627 0.7871
23.7714 -41.4463 7.5675 0.8241
40.2301 -42.1982 9.2342 0.7897
59.8312 -38.2221 11.2450 0.7501
59.8867 -28.7876 10.5241 0.7641
72.5360 -24.6590 12.1343 0.7332
60.6184 17.0553 9.9738 0.7749
45.9704 19.1472 7.8873 0.8174
35.0595 19.8440 6.3807 0.8495
35.6442 33.5967 7.7580 0.8201
4.2233 8.6591 1.5259 0.9617
3.0014 8.6666 1.4526 0.9635
1.8759 8.6735 1.4055 0.9647
0.8061 8.6801 1.3807 0.9653
59.8968 -27.1325 8.0738 0.7672
66.8098 -12.4717 8.3449 0.7604
66.8601 -4.2954 8.2263 0.7634
64.5353 3.6330 7.9365 0.7707
64.6722 11.5433 8.0662 0.7674
60.1768 18.4187 7.7271 0.7760
35.0661 20.9153 5.0133 0.8483
8.7495 8.6313 1.5091 0.9517
6.8728 8.6428 1.3558 0.9565
5.3217 8.6523 1.2472 0.9599
29.8207 64.8471 8.7638 0.7500
2.7826 8.6679 1.1178 0.9640
-1.5008 8.6942 1.0833 0.9651
-3.7954 8.6913 1.1645 0.9625
-5.1320 8.7166 1.2420 0.9601
-6.6682 8.7260 1.3484 0.9567
-8.5217 8.7374 1.4986 0.9520
-10.8782 8.7519 1.7143 0.9453
-25.6608 -31.5264 4.9911 0.8489
-10.5464 -31.6120 4.0918 0.8743
-6.8875 -33.6972 4.2230 0.8706
-3.2826 -40.3251 4.9677 0.8495
23.7346 -41.3823 5.8575 0.8251
40.2297 -42.1978 7.1585 0.7906
51.5645 -42.4608 8.2016 0.7640
59.8312 -38.2221 8.7174 0.7512
59.8867 -28.7876 8.1586 0.7651
73.7344 -25.0664 9.5623 0.7306
66.8001 -14.0499 8.3815 0.7595
66.8507 -5.8249 8.2393 0.7631
66.9504 10.3840 8.3188 0.7611
11.6792 8.6132 1.7818 0.9432
9.1546 8.6288 1.5447 0.9506
5.5959 8.6506 1.2650 0.9593
3.0014 8.6666 1.1261 0.9637
1.8759 8.6735 1.0896 0.9649
0.8061 8.6801 1.0704 0.9655
-0.2415 8.6865 1.0670 0.9656
59.5247 -18.7360 5.4596 0.7784
64.3359 -4.1333 5.6403 0.7719
60.1768 18.4187 5.5059 0.7767
14.4124 8.5963 1.4682 0.9348
8.7495 8.6313 1.0753 0.9518
6.8728 8.6428 0.9661 0.9566
5.3217 8.6523 0.8887 0.9600
2.7826 8.6679 0.7965 0.9641
1.6705 8.6748 0.7729 0.9652
0.6073 8.6813 0.7614 0.9657
-0.4395 8.6877 0.7610 0.9657
-1.5008 8.6942 0.7719 0.9652
-2.6092 8.7011 0.7947 0.9642
-3.7954 8.6913 0.8297 0.9626
-8.5217 8.7374 1.0678 0.9522
-10.8782 8.7519 1.2215 0.9455
-14.0812 8.7716 1.4514 0.9356
-21.2172 -33.6327 3.4791 0.8524
-6.4735 -31.6718 2.8282 0.8783
-2.5773 -31.6608 2.7791 0.8803
22.4544 -53.0583 5.0406 0.7935
24.3370 -42.4325 4.2796 0.8217
31.6197 -42.3682 4.6252 0.8087
40.2296 -42.1977 5.1007 0.7913
51.3281 -42.2661 5.8172 0.7657
59.8867 -28.7877 5.8133 0.7658
59.3477 -20.1756 5.4841 0.7775
59.2261 9.1859 5.2436 0.7861
60.1676 16.9285 5.4684 0.7780
45.9704 19.1472 4.3568 0.8188
7.1981 8.6408 0.9839 0.9558
5.5959 8.6506 0.9014 0.9595
4.2233 8.6591 0.8429 0.9621
1.8759 8.6735 0.7764 0.9650
-1.2977 8.6930 0.7690 0.9653
60.3456 -27.3358 3.4719 0.7669
58.7046 -18.4779 3.2254 0.7815
68.4410 -12.7761 3.6488 0.7566
69.2389 3.8978 3.6344 0.7575
14.4124 8.5963 0.8795 0.9350
11.1436 8.6165 0.7382 0.9451
8.7495 8.6313 0.6441 0.9520
6.8728 8.6428 0.5787 0.9567
5.3217 8.6523 0.5324 0.9601
30.2793 65.8443 3.7981 0.7480
2.7795 8.6581 0.4766 0.9642
1.6679 8.6615 0.4623 0.9653
0.6069 8.6745 0.4557 0.9658
-1.4986 8.6815 0.4617 0.9653
-2.6059 8.6901 0.4755 0.9643
-3.7954 8.6913 0.4970 0.9627
-5.1320 8.7166 0.5301 0.9603
-8.5217 8.7374 0.6396 0.9523
-14.0812 8.7716 0.8694 0.9357
-58.4394 -17.1622 3.1920 0.7835
-56.8815 -42.9570 3.7357 0.7516
-10.5464 -31.6120 1.7465 0.8750
-3.0007 -36.8619 1.9382 0.8623
32.1922 -76.0682 4.3289 0.7183
24.4748 -42.6728 2.5781 0.8212
31.3845 -42.0531 2.7500 0.8104
40.2296 -42.1977 3.0555 0.7917
51.6013 -42.4911 3.5032 0.7651
59.8867 -28.7877 3.4823 0.7663
53.8536 -18.3079 2.9810 0.7963
68.1325 -14.3302 3.6488 0.7566
69.3042 -6.0386 3.6458 0.7568
69.2492 2.3193 3.6312 0.7577
53.2189 8.2542 2.8224 0.8060
45.9704 19.1472 2.6098 0.8192
15.1795 8.5917 0.9141 0.9325
7.1981 8.6408 0.5894 0.9560
4.2233 8.6591 0.5049 0.9621
1.8726 8.6582 0.4642 0.9651
-0.2413 8.6804 0.4551 0.9658
78.4580 -24.6955 1.4357 0.7196
44.8849 19.9053 0.8571 0.8217
14.4124 8.5963 0.2929 0.9351
6.8583 8.6245 0.1923 0.9569
5.2977 8.6133 0.1765 0.9604
29.8207 64.8472 1.2459 0.7516
2.7826 8.6679 0.1589 0.9642
0.6073 8.6813 0.1519 0.9658
-0.4384 8.6666 0.1515 0.9659
-3.7954 8.6913 0.1655 0.9628
-5.1320 8.7166 0.1766 0.9603
-6.6682 8.7260 0.1917 0.9570
-14.0422 8.7473 0.2888 0.9360
-25.3679 -31.1664 0.7014 0.8515
-6.3819 -31.2234 0.5563 0.8803
-3.2955 -40.4837 0.7090 0.8500
34.4106 -36.0940 0.8705 0.8191
50.7620 -24.4014 0.9831 0.7983
90.3455 -19.0022 1.6115 0.6912
30.2086 8.4994 0.5478 0.8820
15.5354 8.7932 0.3116 0.9311
11.6792 8.6132 0.2533 0.9436
9.1546 8.6288 0.2196 0.9509
7.1831 8.6228 0.1959 0.9561
4.2036 8.6188 0.1674 0.9624
1.8759 8.6735 0.1549 0.9651
-1.2946 8.6720 0.1530 0.9655
71.2492 4.0110 -1.2456 0.7516
14.4124 8.5963 -0.2929 0.9351
6.8380 8.5990 -0.1918 0.9570
1.6705 8.6748 -0.1542 0.9653
0.6073 8.6813 -0.1519 0.9658
-2.5856 8.6226 -0.1571 0.9646
-3.7656 8.6231 -0.1642 0.9631
-6.6682 8.7260 -0.1917 0.9570
-13.9749 8.7054 -0.2874 0.9363
-18.6317 8.6968 -0.3589 0.9210
-54.6786 4.1380 -0.9571 0.8030
-56.7988 -16.6804 -1.0333 0.7891
-73.1236 -31.4378 -1.3893 0.7273
-56.8398 -42.9255 -1.2433 0.7520
-19.2807 -23.6880 -0.5331 0.8850
-12.8017 -20.2927 -0.4188 0.9085
-9.4142 -19.8732 -0.3838 0.9158
-4.1403 -20.2564 -0.3609 0.9206
-3.2955 -40.4837 -0.7090 0.8500
30.2807 -52.7956 -1.0624 0.7839
38.0748 -24.3234 -0.7886 0.8346
50.7620 -24.4014 -0.9831 0.7983
60.6270 -12.7515 -1.0814 0.7805
77.1455 2.5838 -1.3473 0.7343
30.1210 8.4747 -0.5462 0.8823
43.6457 18.1789 -0.8253 0.8277
11.6792 8.6132 -0.2533 0.9436
9.1546 8.6288 -0.2196 0.9509
7.1680 8.6046 -0.1955 0.9562
3.0014 8.6666 -0.1601 0.9640
1.8759 8.6735 -0.1549 0.9651
-0.2412 8.6754 -0.1515 0.9659
44.1357 7.8778 -2.3496 0.8356
30.0903 9.2099 -1.6492 0.8816
11.1436 8.6165 -0.7382 0.9451
5.2572 8.5475 -0.5259 0.9606
11.7395 25.5283 -1.4726 0.8936
2.7826 8.6679 -0.4771 0.9642
1.6705 8.6748 -0.4630 0.9652
-1.4902 8.6324 -0.4591 0.9655
-3.7463 8.5790 -0.4906 0.9632
-6.6682 8.7260 -0.5756 0.9570
-8.5217 8.7374 -0.6396 0.9523
-13.9179 8.6699 -0.8594 0.9364
-22.3054 7.3008 -1.2300 0.9103
-44.6220 8.8563 -2.3842 0.8334
-43.0166 -12.6329 -2.3496 0.8356
-41.2741 -23.9856 -2.5018 0.8260
-34.3636 -33.1361 -2.5018 0.8260
-18.9489 -23.2804 -1.5731 0.8867
-4.0731 -19.9276 -1.0660 0.9218
-1.7112 -21.0221 -1.1054 0.9190
7.5848 -47.1310 -2.5018 0.8260
18.6051 -43.9626 -2.5018 0.8260
23.7504 -41.4098 -2.5018 0.8260
26.8149 -35.9302 -2.3496 0.8356
30.9361 -32.4495 -2.3496 0.8356
46.7153 -9.8255 -2.5018 0.8260
47.5572 -4.1438 -2.5018 0.8260
29.5208 8.3058 -1.6072 0.8844
15.5354 8.7932 -0.9355 0.9310
11.6792 8.6132 -0.7605 0.9435
9.1546 8.6288 -0.6593 0.9509
7.1680 8.6046 -0.5869 0.9561
5.5374 8.5602 -0.5343 0.9600
1.8759 8.6735 -0.4651 0.9651
0.8061 8.6801 -0.4569 0.9657
26.0479 -11.7994 -2.5018 0.8915
28.5370 -1.8334 -2.5018 0.8915
26.4383 4.7190 -2.3496 0.8978
14.4124 8.5963 -1.4682 0.9348
11.1436 8.6165 -1.2324 0.9450
6.8298 8.5887 -0.9600 0.9569
2.7826 8.6679 -0.7965 0.9641
1.6705 8.6748 -0.7729 0.9652
0.6073 8.6813 -0.7614 0.9657
-5.1320 8.7166 -0.8850 0.9602
-6.6682 8.7260 -0.9608 0.9569
-8.5217 8.7374 -1.0678 0.9522
-10.8782 8.7519 -1.2215 0.9455
-13.7581 8.5703 -1.4181 0.9370
-22.2784 7.2920 -2.0509 0.9102
-21.4529 1.6235 -1.8823 0.9172
-26.8291 -1.2043 -2.3496 0.8978
-28.2062 -4.7040 -2.5018 0.8915
-27.4371 -8.0576 -2.5018 0.8915
-26.2708 -11.2945 -2.5018 0.8915
-24.7241 -14.3680 -2.5018 0.8915
-20.5846 -19.8493 -2.5018 0.8915
-16.9534 -20.8287 -2.3496 0.8978
-12.5990 -19.9714 -2.0659 0.9095
-1.6908 -20.7708 -1.8232 0.9197
0.9024 -23.0286 -2.0163 0.9116
4.2671 -26.5150 -2.3496 0.8978
11.1449 -26.3346 -2.5018 0.8915
19.7319 -20.6972 -2.5018 0.8915
24.0982 -15.3947 -2.5018 0.8915
25.7727 -12.3890 -2.5018 0.8915
27.9835 -5.8857 -2.5018 0.8915
28.2019 4.3741 -2.4968 0.8917
25.8524 7.2737 -2.3496 0.8978
24.7917 10.3260 -2.3496 0.8978
7.1680 8.6046 -0.9798 0.9560
5.5215 8.5357 -0.8894 0.9600
4.1385 8.4854 -0.8260 0.9628
3.0014 8.6666 -0.8024 0.9638
0.8061 8.6801 -0.7627 0.9656
-0.2412 8.6754 -0.7593 0.9658
-1.2877 8.6263 -0.7631 0.9656
19.4356 -6.1175 -2.5018 0.9212
20.3434 1.1452 -2.5018 0.9212
20.0522 3.5791 -2.5010 0.9212
11.1436 8.6165 -1.7296 0.9448
6.7678 8.5108 -1.3351 0.9571
5.2049 8.4625 -1.2199 0.9608
1.6705 8.6748 -1.0847 0.9650
0.6073 8.6813 -1.0685 0.9655
-1.4854 8.6047 -1.0722 0.9654
-2.5629 8.5467 -1.0956 0.9647
-8.5217 8.7374 -1.4986 0.9520
-10.8782 8.7519 -1.7143 0.9453
-17.3400 8.0938 -2.3496 0.9258
-18.1866 5.9527 -2.3496 0.9258
-19.0815 1.4441 -2.3496 0.9258
-20.3551 -0.9137 -2.5018 0.9212
-20.0980 -3.3518 -2.5018 0.9212
-19.5500 -5.7413 -2.5018 0.9212
-12.8625 -15.8026 -2.5018 0.9212
-10.2101 -16.1846 -2.3496 0.9258
-6.0560 -18.1525 -2.3496 0.9258
-1.5526 -19.0729 -2.3496 0.9258
0.7494 -19.1213 -2.3496 0.9258
10.1373 -17.6748 -2.5018 0.9212
12.1867 -16.3294 -2.5018 0.9212
14.0597 -14.7475 -2.5018 0.9212
15.7292 -12.9522 -2.5018 0.9212
19.9393 -4.1938 -2.5018 0.9212
20.2987 -1.7687 -2.5018 0.9212
20.3642 0.6821 -2.5018 0.9212
8.6490 2.4334 -1.1032 0.9644
8.5380 3.5562 -1.1356 0.9634
15.5354 8.7932 -2.1919 0.9306
11.6792 8.6132 -1.7818 0.9432
9.1546 8.6288 -1.5447 0.9506
7.0979 8.5204 -1.3616 0.9563
14.3884 -6.5177 -2.5018 0.9380
15.5276 -2.8986 -2.5018 0.9380
15.7633 -1.0127 -2.5018 0.9380
15.7708 0.8878 -2.5018 0.9380
11.1317 1.9869 -1.7909 0.9552
11.1436 8.6165 -2.2311 0.9445
6.6975 8.4224 -1.7043 0.9574
5.1532 8.3784 -1.5579 0.9609
6.2258 13.5385 -2.3601 0.9414
2.7826 8.6679 -1.4419 0.9638
1.6705 8.6748 -1.3992 0.9649
0.6073 8.6813 -1.3783 0.9654
-1.4730 8.5331 -1.3715 0.9655
-2.5411 8.4740 -1.4012 0.9648
-3.6185 8.2862 -1.4321 0.9640
-5.1320 8.7166 -1.6021 0.9599
-8.5217 8.7374 -1.9331 0.9518
-13.4425 6.2746 -2.3496 0.9417
-14.0988 4.6147 -2.3496 0.9417
-14.5510 2.8880 -2.3496 0.9417
-15.7799 -0.7083 -2.5018 0.9380
-15.1557 -4.4509 -2.5018 0.9380
-14.5115 -6.2389 -2.5018 0.9380
-12.6051 -9.5194 -2.5018 0.9380
-11.3705 -10.9644 -2.5018 0.9380
-9.9714 -12.2507 -2.5018 0.9380
-4.8762 -14.6160 -2.4404 0.9395
-1.2246 -15.0438 -2.3906 0.9407
2.5098 -15.5951 -2.5018 0.9380
4.3646 -15.1808 -2.5018 0.9380
9.4475 -12.6590 -2.5018 0.9380
13.3114 -8.5037 -2.5018 0.9380
14.2364 -6.8434 -2.5018 0.9380
14.9552 -5.0841 -2.5018 0.9380
15.7362 -1.3711 -2.5018 0.9380
15.6092 2.4210 -2.5018 0.9380
8.0681 2.2700 -1.3275 0.9666
12.9103 7.3073 -2.3496 0.9417
9.1546 8.6288 -1.9925 0.9503
7.0744 8.4923 -1.7506 0.9562
0.8061 8.6801 -1.3807 0.9653
-0.2404 8.6464 -1.3700 0.9656
-1.2754 8.5435 -1.3682 0.9656
11.7239 -5.3108 -2.5018 0.9489
12.2769 -3.8643 -2.5018 0.9489
12.8442 -0.8252 -2.5018 0.9489
12.8503 0.7234 -2.5018 0.9489
10.3813 6.1920 -2.3496 0.9519
9.5625 7.3940 -2.3496 0.9519
8.6052 8.4889 -2.3496 0.9519
6.6975 8.4224 -2.0917 0.9571
5.0274 8.1739 -1.8653 0.9617
2.7826 8.6679 -1.7696 0.9636
-0.4356 8.6102 -1.6758 0.9655
-2.5194 8.4017 -1.7050 0.9649
-5.1320 8.7166 -1.9662 0.9596
-10.2599 6.3912 -2.3496 0.9519
-12.6244 2.5056 -2.5018 0.9489
-12.8340 0.9713 -2.5018 0.9489
-12.8577 -0.5772 -2.5018 0.9489
-11.8242 -5.0836 -2.5018 0.9489
-10.2708 -7.7566 -2.5018 0.9489
-9.2649 -8.9340 -2.5018 0.9489
-8.1249 -9.9820 -2.5018 0.9489
-5.5101 -11.6316 -2.5018 0.9489
-2.5774 -12.6100 -2.5018 0.9489
0.5040 -12.8608 -2.5018 0.9489
6.4035 -11.1647 -2.5018 0.9489
7.6980 -10.3148 -2.5018 0.9489
9.9357 -8.1815 -2.5018 0.9489
10.8464 -6.9290 -2.5018 0.9489
11.6000 -5.5762 -2.5018 0.9489
12.5951 -2.6491 -2.5018 0.9489
12.8221 -1.1172 -2.5018 0.9489
9.7283 7.1745 -2.3496 0.9519
7.0744 8.4923 -2.1485 0.9560
5.3228 8.2285 -1.9049 0.9609
5.3001 10.8670 -2.3502 0.9519
1.8759 8.6735 -1.7249 0.9645
0.8061 8.6801 -1.6945 0.9651
10.8142 -0.6947 -2.5018 0.9565
10.8194 0.6091 -2.5018 0.9565
8.0512 6.2254 -2.3496 0.9591
5.3318 8.6688 -2.3496 0.9591
4.2521 9.2465 -2.3496 0.9591
0.6073 8.6813 -2.0091 0.9649
-1.4537 8.4214 -1.9730 0.9655
-5.1635 8.7701 -2.3496 0.9591
-6.1795 8.0865 -2.3496 0.9591
-7.1059 7.2858 -2.3496 0.9591
-7.9296 6.3796 -2.3496 0.9591
-10.2859 3.3667 -2.4987 0.9565
-9.3693 -5.4448 -2.5018 0.9565
-5.7819 -9.1652 -2.5018 0.9565
-3.4295 -10.2795 -2.5018 0.9565
-0.8792 -10.8008 -2.5018 0.9565
0.4244 -10.8282 -2.5018 0.9565
1.7218 -10.6989 -2.5018 0.9565
2.9943 -10.4146 -2.5018 0.9565
4.2234 -9.9796 -2.5018 0.9565
5.3914 -9.4001 -2.5018 0.9565
7.4775 -7.8433 -2.5018 0.9565
8.3654 -6.8884 -2.5018 0.9565
10.2599 -3.4879 -2.5018 0.9565
10.6045 -2.2304 -2.5018 0.9565
7.3901 3.0781 -1.8482 0.9677
8.8569 5.0131 -2.3496 0.9591
7.4060 6.9806 -2.3496 0.9591
5.5277 8.5453 -2.3496 0.9591
3.0014 8.6666 -2.1174 0.9630
1.8759 8.6735 -2.0487 0.9642
0.8061 8.6801 -2.0126 0.9648
-0.2404 8.6464 -1.9970 0.9651
8.5050 -3.8526 -2.5018 0.9621
9.1783 -1.7133 -2.5018 0.9621
9.3221 0.5248 -2.5018 0.9621
9.1916 1.6406 -2.5018 0.9621
7.6314 4.5518 -2.3809 0.9639
6.2426 6.1582 -2.3496 0.9643
5.4578 6.8634 -2.3496 0.9643
3.6636 7.9669 -2.3496 0.9643
-0.4430 8.7577 -2.3496 0.9643
-2.5187 8.3994 -2.3496 0.9643
-4.4490 7.5564 -2.3496 0.9643
-6.8322 5.4967 -2.3496 0.9643
-7.4429 4.6364 -2.3496 0.9643
-8.8736 2.9044 -2.5018 0.9621
-9.1582 1.8177 -2.5018 0.9621
-9.3275 -0.4187 -2.5018 0.9621
-8.0727 -4.6913 -2.5018 0.9621
-6.7211 -6.4810 -2.5018 0.9621
-4.9817 -7.8968 -2.5018 0.9621
-1.8697 -9.1477 -2.5018 0.9621
1.4835 -9.2183 -2.5018 0.9621
2.5799 -8.9733 -2.5018 0.9621
7.2077 -5.9352 -2.5018 0.9621
7.8684 -5.0265 -2.5018 0.9621
8.4151 -4.0452 -2.5018 0.9621
9.3016 -0.8105 -2.5018 0.9621
9.3316 0.3125 -2.5018 0.9621
9.2266 1.4310 -2.5018 0.9621
7.4577 3.1062 -2.1647 0.9671
7.0572 5.2046 -2.3496 0.9643
6.3811 6.0146 -2.3496 0.9643
3.8440 7.8814 -2.3496 0.9643
2.8696 8.2860 -2.3496 0.9643
-1.2947 8.6728 -2.3496 0.9643
