ply
format ascii 1.0
element vertex 607
property float32 x
property float32 y
property float32 z
property float32 I
end_header
31.7330 47.0888 15.2150 0.7905
-13.9157 25.8536 7.8672 0.8855
-20.9954 23.2127 8.3866 0.8784
-24.3114 2.7097 6.5546 0.9037
-60.4850 -15.5253 16.7323 0.7721
-53.0026 -28.4591 16.1197 0.7795
-21.3556 -31.5508 10.2085 0.8540
-10.7100 -29.0223 8.2891 0.8798
-4.6111 -40.9908 11.0527 0.8430
51.8551 20.1109 14.9029 0.7943
31.6181 28.4226 11.3919 0.8386
31.8227 61.6798 18.5971 0.7502
-2.2830 5.9044 1.6962 0.9741
-13.8764 26.0341 7.9049 0.8850
-25.9922 22.7435 9.2544 0.8667
-53.0254 -28.1937 16.0916 0.7798
31.6682 36.5659 11.1678 0.8199
31.8267 62.3093 16.1532 0.7503
-61.6943 53.5410 18.8590 0.7151
-59.8551 -15.3636 14.2666 0.7759
-54.3404 -21.2022 13.4666 0.7871
-53.3525 -28.6469 13.9806 0.7799
-12.9584 -25.2425 6.5507 0.8900
-10.4054 -28.1967 6.9388 0.8839
22.8217 -42.6074 11.1589 0.8200
29.6695 -42.2259 11.9145 0.8091
51.8551 20.1109 12.8405 0.7959
32.0816 22.4929 9.0457 0.8514
31.7304 46.6735 13.0297 0.7932
-2.2828 5.9039 1.4614 0.9743
-13.8764 26.0341 6.8109 0.8859
-16.6157 23.7503 6.6918 0.8878
-20.8231 23.2117 7.1992 0.8798
-24.2407 2.8019 5.6337 0.9047
-59.8622 -15.1057 14.2535 0.7761
-21.5427 -31.5496 8.8199 0.8548
2.0373 8.6725 1.7317 0.9643
-1.1498 8.6921 1.7043 0.9649
-2.2423 8.6988 1.7461 0.9641
-3.4071 8.7060 1.8172 0.9626
-61.6943 53.5410 15.8784 0.7169
-85.4315 -33.3332 17.8255 0.6882
-59.9137 -42.1888 14.2436 0.7419
-21.3556 -31.5508 7.4056 0.8562
-12.9651 -25.2555 5.5183 0.8908
-11.4356 -30.9884 6.4206 0.8741
-7.9870 -33.6904 6.7303 0.8684
21.7191 -40.5491 8.9414 0.8291
29.7117 -42.2860 10.0457 0.8101
47.0306 -52.2110 13.6591 0.7510
71.9172 -48.7851 16.8922 0.7018
56.8396 -29.2521 12.4258 0.7707
57.1588 14.5474 11.4647 0.7864
51.8551 20.1109 10.8111 0.7972
36.8755 19.7032 8.1269 0.8434
31.6664 36.2641 9.3582 0.8219
32.7396 48.1579 11.3193 0.7888
4.4648 8.6539 1.8928 0.9611
3.2178 8.6652 1.7967 0.9630
2.0746 8.6723 1.7333 0.9643
-0.0582 8.6854 1.6883 0.9652
-1.1138 8.6919 1.7033 0.9649
-2.2044 8.6986 1.7443 0.9641
-2.2825 5.9033 1.2303 0.9745
-61.1853 53.5379 15.8034 0.7180
-24.2535 2.8034 4.7458 0.9053
-60.3709 -15.2341 12.1028 0.7759
-69.2448 -36.8176 15.2441 0.7265
-57.8646 -40.3943 13.7173 0.7501
4.4223 8.6578 1.5398 0.9614
3.1778 8.6655 1.4619 0.9633
2.0373 8.6725 1.4110 0.9646
7.1764 64.9864 10.3554 0.7674
-0.0935 8.6856 1.3757 0.9654
-6.1556 8.7229 1.6909 0.9577
-7.8993 8.7336 1.8651 0.9534
-61.6942 53.5410 12.9380 0.7183
-24.2756 2.7057 3.8687 0.9058
-83.2220 -32.4711 14.1489 0.6964
-59.7252 -42.0561 11.5695 0.7439
-21.3556 -31.5508 6.0343 0.8570
-12.9717 -25.2684 4.4987 0.8913
-4.6111 -40.9908 6.5333 0.8462
19.8204 -50.9520 8.6591 0.8014
39.1148 -43.4233 9.2564 0.7892
48.6518 -42.3962 10.2209 0.7700
56.8443 -38.5604 10.8792 0.7572
56.8895 -29.2778 10.1336 0.7717
66.5246 -24.6264 11.2352 0.7503
51.8551 20.1109 8.8091 0.7983
36.8755 19.7032 6.6220 0.8442
7.5434 8.6387 1.8165 0.9546
5.8798 8.6489 1.6564 0.9585
3.2178 8.6652 1.4640 0.9633
-0.0581 8.6854 1.3757 0.9654
-1.1138 8.6919 1.3879 0.9651
-2.2044 8.6986 1.4213 0.9643
-2.2822 5.9024 1.0023 0.9747
-4.6444 8.7136 1.5639 0.9608
-6.1023 8.7225 1.6860 0.9578
-64.6016 -16.3016 10.5526 0.7635
-21.5427 -31.5496 6.0508 0.8567
7.4819 8.6390 1.4033 0.9550
5.8287 8.6492 1.2806 0.9588
2.0373 8.6725 1.0938 0.9647
7.1764 64.9864 8.0278 0.7684
-1.1498 8.6921 1.0766 0.9653
-3.4071 8.7060 1.1479 0.9630
-6.1556 8.7229 1.3109 0.9579
-7.8993 8.7336 1.4459 0.9537
-83.3242 -32.5110 10.9821 0.6974
-65.9161 -35.3928 9.1864 0.7397
-27.4053 -31.5138 5.1279 0.8451
-21.3556 -31.5508 4.6779 0.8577
-12.9867 -25.2977 3.4915 0.8917
-11.6334 -31.5244 4.1259 0.8733
-7.9870 -33.6904 4.2513 0.8698
-4.6111 -40.9908 5.0648 0.8468
19.7393 -50.7435 6.6853 0.8030
21.7428 -40.5932 5.6542 0.8306
29.3267 -41.7381 6.2634 0.8142
38.0725 -42.2662 6.9846 0.7951
48.6711 -42.4130 7.9267 0.7709
56.7851 -38.5202 8.4252 0.7584
56.8895 -29.2778 7.8559 0.7727
64.2474 -7.2935 7.9393 0.7706
61.4237 0.4738 7.5421 0.7807
36.8755 19.7032 5.1335 0.8449
12.2798 8.6096 1.8414 0.9414
5.8798 8.6489 1.2841 0.9587
4.4667 8.6576 1.1962 0.9615
7.4443 64.9848 8.0313 0.7683
-0.0582 8.6854 1.0665 0.9656
-2.2044 8.6986 1.1018 0.9645
-4.6444 8.7136 1.2124 0.9610
-6.1023 8.7225 1.3071 0.9580
-7.8345 8.7332 1.4405 0.9538
-12.8365 8.7459 1.9072 0.9393
-82.8447 42.8493 11.4521 0.6867
-66.2756 -35.2388 9.2164 0.7390
7.4819 8.6390 0.9999 0.9551
5.8287 8.6492 0.9125 0.9590
7.1764 64.9865 5.7201 0.7691
-0.0935 8.6856 0.7599 0.9657
-3.4071 8.7060 0.8179 0.9632
-4.6902 8.7138 0.8658 0.9610
-7.8993 8.7336 1.0303 0.9538
-10.0790 8.7470 1.1676 0.9478
-21.3556 -31.5508 3.3332 0.8581
-4.6111 -40.9907 3.6088 0.8474
29.3958 -41.8364 4.4734 0.8144
38.2008 -42.4087 4.9936 0.7952
56.8443 -38.5604 6.0096 0.7590
56.8895 -29.2778 5.5976 0.7734
56.4370 -20.8921 5.2651 0.7853
57.5915 -13.7152 5.1795 0.7884
57.1588 14.5474 5.1602 0.7891
36.8755 19.7032 3.6579 0.8455
12.2798 8.6096 1.3121 0.9416
7.5434 8.6387 1.0034 0.9550
5.8798 8.6489 0.9150 0.9589
4.4667 8.6576 0.8523 0.9616
3.2178 8.6652 0.8087 0.9636
7.4443 64.9849 5.7226 0.7690
-1.1138 8.6919 0.7667 0.9654
-2.2044 8.6986 0.7851 0.9646
-4.6444 8.7136 0.8639 0.9611
-6.1023 8.7225 0.9313 0.9582
-7.8345 8.7332 1.0264 0.9540
-9.9958 8.7465 1.1620 0.9481
-24.2700 2.8053 2.1375 0.9066
-21.5428 -31.5497 3.3423 0.8578
7.4819 8.6390 0.5989 0.9553
5.8287 8.6492 0.5466 0.9591
3.1767 8.6626 0.4836 0.9637
2.0334 8.6556 0.4660 0.9650
-0.0935 8.6797 0.4549 0.9658
-3.4071 8.7060 0.4900 0.9632
-6.1556 8.7229 0.5595 0.9581
-12.9776 8.7648 0.8207 0.9392
-24.0100 8.8326 1.3408 0.9026
-27.4357 -31.5487 2.1911 0.8458
-15.7006 -30.5842 1.8017 0.8714
-5.7640 -24.3134 1.3095 0.9048
-4.6111 -40.9907 2.1618 0.8477
22.2542 -87.0684 4.7097 0.6977
37.9986 -42.1842 2.9754 0.7966
56.8443 -38.5604 3.5999 0.7595
56.8895 -29.2778 3.3531 0.7739
50.4177 -18.6638 2.8175 0.8063
57.2394 7.3941 3.0246 0.7936
57.1588 14.5474 3.0911 0.7896
31.7226 12.3030 1.7832 0.8726
12.2798 8.6096 0.7860 0.9417
5.8798 8.6489 0.5481 0.9590
4.4667 8.6576 0.5106 0.9617
3.2170 8.6631 0.4843 0.9637
7.4443 64.9849 3.4280 0.7695
-0.0581 8.6795 0.4549 0.9658
-2.2001 8.6815 0.4694 0.9648
-2.2808 5.8989 0.3315 0.9750
-7.8345 8.7332 0.6149 0.9541
-12.8632 8.7641 0.8157 0.9396
-24.2754 2.8059 1.2807 0.9068
-15.9116 -23.3028 1.4788 0.8931
3.1703 8.6451 0.1607 0.9638
2.0275 8.6304 0.1547 0.9652
-0.0935 8.6856 0.1516 0.9658
-2.2423 8.6988 0.1568 0.9647
-3.3993 8.6861 0.1628 0.9634
-4.6796 8.6941 0.1723 0.9613
-6.1287 8.6847 0.1855 0.9584
-7.8993 8.7336 0.2055 0.9540
-10.0790 8.7470 0.2329 0.9480
-12.9776 8.7648 0.2733 0.9393
-83.5986 -32.6180 1.5663 0.6984
-27.0940 -31.1558 0.7207 0.8477
-21.3556 -31.5508 0.6650 0.8586
-10.4299 -28.2633 0.5259 0.8865
-4.2305 -37.6078 0.6606 0.8595
29.6039 -42.1326 0.8988 0.8138
31.4238 -34.8851 0.8195 0.8288
35.8365 -24.3097 0.7559 0.8409
47.3737 -24.3806 0.9300 0.8080
51.6870 -19.1337 0.9620 0.8021
87.3276 -20.7967 1.5669 0.6983
57.1588 14.5474 1.0295 0.7898
31.7226 12.3029 0.5939 0.8727
36.8755 19.7032 0.7298 0.8460
5.8798 8.6489 0.1825 0.9590
7.4443 64.9849 1.1417 0.7698
-0.0582 8.6854 0.1516 0.9658
-1.1138 8.6919 0.1530 0.9656
-4.6338 8.6938 0.1720 0.9614
-7.8345 8.7332 0.2048 0.9541
-12.8632 8.7641 0.2717 0.9396
-23.7064 8.8307 0.4416 0.9037
-24.2808 2.8065 0.4266 0.9068
-27.3165 -31.1544 0.7232 0.8472
-21.5428 -31.5497 0.6668 0.8583
7.4819 8.6390 -0.1995 0.9553
5.8287 8.6492 -0.1821 0.9591
2.0177 8.5889 -0.1540 0.9653
7.0660 63.9871 -1.1237 0.7729
-0.0935 8.6856 -0.1516 0.9658
-1.1498 8.6921 -0.1530 0.9655
-2.2423 8.6988 -0.1568 0.9647
-7.8993 8.7336 -0.2055 0.9540
-10.0790 8.7470 -0.2329 0.9480
-24.3028 2.7088 -0.4268 0.9068
-76.0432 -9.9806 -1.3387 0.7358
-76.0037 -29.6547 -1.4240 0.7215
-61.0028 -32.7547 -1.2086 0.7581
-18.8980 -21.7311 -0.5027 0.8912
-13.5547 -20.0259 -0.4221 0.9078
-7.3936 -20.0353 -0.3728 0.9181
-2.5708 -22.8532 -0.4014 0.9121
31.4238 -34.8851 -0.8195 0.8288
35.8365 -24.3097 -0.7559 0.8409
66.6156 -24.6601 -1.2399 0.7526
31.7226 12.3029 -0.5939 0.8727
7.5434 8.6387 -0.2002 0.9552
7.4443 64.9849 -1.1417 0.7698
-1.1138 8.6919 -0.1530 0.9656
-2.2044 8.6986 -0.1566 0.9647
-2.2799 5.8966 -0.1103 0.9750
-4.6216 8.6708 -0.1715 0.9615
-6.0406 8.6344 -0.1839 0.9587
-9.9958 8.7465 -0.2318 0.9483
-12.8632 8.7641 -0.2717 0.9396
-23.7064 8.8307 -0.4416 0.9037
-90.0767 -0.5114 -1.5723 0.6974
-75.9711 -9.6565 -1.3367 0.7361
-58.3646 -14.7278 -1.0507 0.7860
-60.9278 -32.3954 -1.2045 0.7588
-60.8122 -54.4428 -1.4247 0.7214
-19.2000 -21.8975 -0.5083 0.8900
-13.6196 -19.9461 -0.4216 0.9079
7.4819 8.6390 -0.5989 0.9553
-0.0935 8.6856 -0.4552 0.9658
-4.6548 8.6481 -0.5147 0.9614
-6.0630 8.5917 -0.5511 0.9588
-7.8993 8.7336 -0.6172 0.9539
-16.9457 8.6774 -0.9978 0.9266
-22.5243 8.2860 -1.2578 0.9083
-24.3082 2.7094 -1.2818 0.9067
-45.0705 -0.4395 -2.3622 0.8348
-43.4238 -11.1460 -2.3495 0.8356
-44.4705 -17.3513 -2.5017 0.8260
-42.0566 -22.5818 -2.5017 0.8260
-39.0302 -27.4834 -2.5017 0.8260
-18.5486 -21.3293 -1.4814 0.8930
-13.3183 -19.6766 -1.2452 0.9092
0.3915 -44.8298 -2.3495 0.8356
6.1638 -47.3360 -2.5017 0.8260
11.8209 -46.2489 -2.5017 0.8260
25.7740 -36.6819 -2.3495 0.8356
32.7373 -22.2073 -2.0732 0.8535
42.0432 -15.5638 -2.3495 0.8356
46.4370 -11.0588 -2.5017 0.8260
47.4310 -5.3845 -2.5017 0.8260
47.7342 0.3682 -2.5017 0.8260
44.4621 5.7435 -2.3495 0.8356
43.4690 11.0633 -2.3507 0.8355
26.5240 10.2867 -1.4909 0.8923
26.5876 14.2062 -1.5798 0.8863
12.5502 8.7991 -0.8033 0.9405
9.5959 8.6261 -0.6762 0.9496
3.1943 8.6021 -0.4809 0.9639
2.0477 8.5600 -0.4613 0.9654
5.3970 47.1129 -2.4852 0.8270
-1.1138 8.6919 -0.4592 0.9655
-2.2044 8.6986 -0.4703 0.9647
-4.6094 8.6479 -0.5136 0.9615
-6.0125 8.5942 -0.5497 0.9589
-7.8345 8.7332 -0.6149 0.9541
-12.8632 8.7641 -0.8157 0.9396
-16.7919 8.6852 -0.9908 0.9271
-22.5237 8.3901 -1.2596 0.9082
-24.2917 2.8078 -1.2816 0.9067
-43.6955 -5.5540 -2.3084 0.8383
-43.4689 -10.9690 -2.3495 0.8356
-44.5408 -17.1699 -2.5017 0.8260
-42.1482 -22.4103 -2.5017 0.8260
-39.1418 -27.3242 -2.5017 0.8260
-13.3868 -19.6052 -1.2441 0.9093
7.4819 8.6390 -0.9999 0.9551
5.8287 8.6492 -0.9125 0.9590
4.4102 8.6341 -0.8482 0.9618
3.0257 27.3995 -2.4117 0.8952
-0.0935 8.6856 -0.7599 0.9657
-6.0463 8.5680 -0.9175 0.9588
-7.8993 8.7336 -1.0303 0.9538
-12.9776 8.7648 -1.3701 0.9391
-16.6756 8.5391 -1.6391 0.9275
-22.5003 8.2772 -2.0975 0.9082
-26.1357 6.1679 -2.3494 0.8978
-23.5967 2.6301 -2.0772 0.9091
-28.3516 -3.7211 -2.5017 0.8915
-27.6969 -7.1092 -2.5017 0.8915
-26.6389 -10.3938 -2.5017 0.8915
-23.3800 -16.4632 -2.5017 0.8915
-21.1974 -19.1333 -2.4983 0.8917
-9.7673 -19.0264 -1.8711 0.9177
-7.1827 -19.4639 -1.8151 0.9201
-4.8935 -20.6417 -1.8560 0.9183
0.2345 -26.8541 -2.3495 0.8978
3.6922 -28.3554 -2.5017 0.8915
7.0810 -27.7041 -2.5017 0.8915
10.3667 -26.6494 -2.5017 0.8915
13.5013 -25.2066 -2.5017 0.8915
16.4394 -23.3967 -2.5017 0.8915
19.1380 -21.2461 -2.5017 0.8915
21.5579 -18.7861 -2.5017 0.8915
25.4253 -13.0850 -2.5017 0.8915
26.8163 -9.9270 -2.5017 0.8915
28.4123 -3.2254 -2.5017 0.8915
26.0254 6.6237 -2.3495 0.8978
25.0380 9.7105 -2.3495 0.8978
23.7595 12.6951 -2.3568 0.8975
9.5959 8.6261 -1.1289 0.9495
7.5434 8.6387 -1.0034 0.9550
3.1864 8.5808 -0.8008 0.9639
2.0428 8.5392 -0.7682 0.9654
-0.0582 8.6854 -0.7599 0.9657
-1.1138 8.6919 -0.7667 0.9654
-2.2044 8.6986 -0.7851 0.9646
-2.2790 5.8942 -0.5529 0.9749
-4.5997 8.6297 -0.8556 0.9615
-5.9960 8.5706 -0.9151 0.9589
-7.8345 8.7332 -1.0264 0.9540
-9.9958 8.7465 -1.1620 0.9481
-16.5284 8.5489 -1.6280 0.9280
-22.4968 8.3801 -2.1003 0.9081
-26.8547 -0.1525 -2.3495 0.8978
-27.7257 -6.9963 -2.5017 0.8915
-26.6810 -10.2852 -2.5017 0.8915
-23.4468 -16.3678 -2.5017 0.8915
-21.2913 -19.0612 -2.5002 0.8916
-17.7049 -20.1924 -2.3495 0.8978
-13.2954 -19.4713 -2.0628 0.9097
7.4819 8.6390 -1.4033 0.9550
-0.0935 8.6856 -1.0665 0.9656
-2.2423 8.6988 -1.1030 0.9644
-2.3191 5.9259 -0.7813 0.9747
-5.9981 8.4997 -1.2773 0.9589
-7.8993 8.7336 -1.4459 0.9537
-10.0790 8.7470 -1.6386 0.9476
-17.0321 8.7216 -2.3495 0.9258
-17.9587 6.6065 -2.3495 0.9258
-18.6237 4.3951 -2.3495 0.9258
-20.3739 -0.1987 -2.5017 0.9212
-19.7351 -5.0656 -2.5017 0.9212
-7.7116 -15.0220 -2.0733 0.9342
-4.4141 -18.6192 -2.3495 0.9258
0.1671 -19.1346 -2.3495 0.9258
7.3866 -18.9888 -2.5017 0.9212
16.8614 -11.4380 -2.5017 0.9212
18.1165 -9.3235 -2.5017 0.9212
19.1076 -7.0734 -2.5017 0.9212
20.2448 -2.2983 -2.5017 0.9212
20.2070 2.6103 -2.5017 0.9212
7.8323 3.0376 -1.0315 0.9667
16.8772 9.0177 -2.3495 0.9258
9.5959 8.6261 -1.5843 0.9493
4.4354 8.5969 -1.1878 0.9618
3.1757 8.5519 -1.1201 0.9639
2.2073 19.2687 -2.3814 0.9248
-0.0582 8.6854 -1.0665 0.9656
-1.1138 8.6919 -1.0760 0.9653
-2.2044 8.6986 -1.1018 0.9645
-2.2786 5.8931 -0.7758 0.9749
-4.5778 8.5887 -1.1950 0.9615
-5.9486 8.5029 -1.2742 0.9590
-7.8345 8.7332 -1.4405 0.9538
-9.9958 8.7465 -1.6309 0.9479
-12.8632 8.7641 -1.9112 0.9392
-16.9964 8.7909 -2.3495 0.9258
-18.6056 4.4709 -2.3495 0.9258
-20.3745 -0.1157 -2.5017 0.9212
-19.0112 -7.3286 -2.5017 0.9212
-13.4326 -15.3199 -2.5017 0.9212
-10.7904 -15.8027 -2.3495 0.9258
7.4819 8.6390 -1.8101 0.9548
5.8287 8.6492 -1.6519 0.9586
3.1075 8.4739 -1.4295 0.9641
1.9811 8.4330 -1.3720 0.9655
1.6388 14.8408 -2.3648 0.9413
-0.0935 8.6856 -1.3757 0.9654
-2.3173 5.9214 -1.0071 0.9746
-4.5793 8.5077 -1.5303 0.9616
-7.8993 8.7336 -1.8651 0.9534
-10.0790 8.7470 -2.1137 0.9474
-12.2932 8.3025 -2.3495 0.9417
-13.2038 6.7613 -2.3495 0.9417
-13.9221 5.1215 -2.3495 0.9417
-14.5295 3.4289 -2.3645 0.9413
-15.6980 1.7497 -2.5017 0.9380
-15.6609 -2.0555 -2.5017 0.9380
-14.7148 -5.7414 -2.5017 0.9380
-11.7252 -10.5834 -2.5017 0.9380
-10.3649 -11.9188 -2.5017 0.9380
-8.8537 -13.0805 -2.5017 0.9380
-3.6071 -15.2153 -2.4767 0.9386
0.1379 -15.7946 -2.5017 0.9380
2.0395 -15.6630 -2.5017 0.9380
3.9114 -15.3033 -2.5017 0.9380
5.7263 -14.7207 -2.5017 0.9380
9.0808 -12.9239 -2.5017 0.9380
10.5715 -11.7359 -2.5017 0.9380
14.0444 -7.2279 -2.5017 0.9380
14.8128 -5.4835 -2.5017 0.9380
15.6944 -1.7817 -2.5017 0.9380
15.7947 0.1218 -2.5017 0.9380
15.6650 2.0236 -2.5017 0.9380
8.4487 2.1503 -1.3808 0.9653
6.8377 2.6519 -1.1616 0.9707
4.4238 8.5744 -1.5281 0.9617
3.1472 8.4753 -1.4319 0.9640
2.0177 8.4344 -1.3736 0.9655
1.6993 14.8338 -2.3648 0.9413
-0.0581 8.6854 -1.3757 0.9654
-2.2044 8.6986 -1.4213 0.9643
-2.2781 5.8919 -1.0005 0.9747
-5.8676 8.3872 -1.6212 0.9594
-7.8345 8.7332 -1.8582 0.9536
-9.9958 8.7465 -2.1037 0.9476
-13.9011 5.1782 -2.3495 0.9417
-14.4237 3.4660 -2.3495 0.9417
-15.6691 -1.9917 -2.5017 0.9380
-14.7381 -5.6813 -2.5017 0.9380
-8.9069 -13.0444 -2.5017 0.9380
7.4819 8.6390 -2.2215 0.9545
5.8287 8.6492 -2.0274 0.9584
3.0797 8.3980 -1.7387 0.9642
1.9495 8.2985 -1.6570 0.9659
1.3295 12.0391 -2.3544 0.9518
-1.1498 8.6921 -1.7043 0.9649
-2.2423 8.6988 -1.7461 0.9641
-2.3155 5.9168 -1.2351 0.9744
-4.5374 8.4300 -1.8609 0.9617
-5.7894 8.2039 -1.9518 0.9599
-9.1289 7.9224 -2.3495 0.9519
-10.0167 6.7651 -2.3495 0.9519
-11.3440 4.1731 -2.3495 0.9519
-12.5261 2.9561 -2.5017 0.9489
-12.7910 1.4257 -2.5017 0.9489
-12.8696 -0.1255 -2.5017 0.9489
-12.7608 -1.6748 -2.5017 0.9489
-12.4661 -3.1998 -2.5017 0.9489
-11.3391 -6.0884 -2.5017 0.9489
-5.8778 -11.4497 -2.5017 0.9489
-4.4557 -12.0743 -2.5017 0.9489
-2.9689 -12.5231 -2.5017 0.9489
1.6618 -12.7625 -2.5017 0.9489
3.1871 -12.4694 -2.5017 0.9489
4.6659 -11.9946 -2.5017 0.9489
6.0768 -11.3453 -2.5017 0.9489
8.6138 -9.5626 -2.5017 0.9489
9.7030 -8.4554 -2.5017 0.9489
10.6509 -7.2250 -2.5017 0.9489
11.4437 -5.8894 -2.5017 0.9489
12.0698 -4.4680 -2.5017 0.9489
12.5201 -2.9816 -2.5017 0.9489
12.7881 -1.4517 -2.5017 0.9489
12.7642 1.6488 -2.5017 0.9489
8.0774 2.0558 -1.6201 0.9666
6.2290 3.3283 -1.3728 0.9716
8.9891 8.0806 -2.3495 0.9519
7.5434 8.6387 -2.2293 0.9543
5.8798 8.6489 -2.0329 0.9583
1.9871 8.3066 -1.6602 0.9658
1.3785 12.0335 -2.3544 0.9518
-2.2777 5.8907 -1.2277 0.9746
-9.0965 7.9595 -2.3495 0.9519
-9.9891 6.8058 -2.3495 0.9519
-12.5140 3.0071 -2.5017 0.9489
-12.8700 -0.0731 -2.5017 0.9489
-12.7675 -1.6228 -2.5017 0.9489
-12.0089 -4.6293 -2.5017 0.9489
-11.3638 -6.0421 -2.5017 0.9489
-8.4850 -9.6772 -2.5017 0.9489
5.6873 8.4394 -2.3495 0.9591
4.4171 8.6477 -2.2419 0.9609
3.0519 8.3223 -2.0465 0.9643
1.9078 8.1212 -1.9260 0.9663
1.1170 10.1154 -2.3495 0.9591
-0.0935 8.6856 -2.0053 0.9650
-2.2423 8.6988 -2.0739 0.9638
-2.3137 5.9122 -1.4657 0.9743
-5.8677 8.3150 -2.3495 0.9591
-6.8266 7.5476 -2.3495 0.9591
-7.6861 6.6703 -2.3495 0.9591
-10.8356 -0.1057 -2.5017 0.9565
-10.7440 -1.4101 -2.5017 0.9565
-10.4959 -2.6941 -2.5017 0.9565
-8.0439 -7.2607 -2.5017 0.9565
-7.1107 -8.1768 -2.5017 0.9565
-6.0740 -8.9738 -2.5017 0.9565
-4.9488 -9.6401 -2.5017 0.9565
-3.7515 -10.1660 -2.5017 0.9565
0.0946 -10.8357 -2.5017 0.9565
3.9285 -10.0989 -2.5017 0.9565
5.1164 -9.5522 -2.5017 0.9565
7.2524 -8.0513 -2.5017 0.9565
8.9675 -6.0831 -2.5017 0.9565
10.1622 -3.7619 -2.5017 0.9565
10.8358 0.0836 -2.5017 0.9565
7.8521 1.9984 -1.8706 0.9673
6.1487 2.3846 -1.5226 0.9733
6.0443 3.2296 -1.5821 0.9723
7.5684 6.8035 -2.3495 0.9591
5.7216 8.4162 -2.3495 0.9591
4.4596 8.6438 -2.2455 0.9609
1.9446 8.1288 -1.9296 0.9663
-0.0582 8.6854 -2.0052 0.9650
-4.7868 8.9808 -2.3495 0.9591
-5.8338 8.3388 -2.3495 0.9591
-6.7958 7.5753 -2.3495 0.9591
-8.4103 5.7302 -2.3495 0.9591
-9.0394 4.6753 -2.3495 0.9591
-10.1484 3.7803 -2.5002 0.9565
-10.7645 1.2442 -2.5017 0.9565
-10.5068 -2.6513 -2.5017 0.9565
-9.5678 -5.0872 -2.5017 0.9565
-8.8853 -6.2027 -2.5017 0.9565
-8.0734 -7.2278 -2.5017 0.9565
-6.1105 -8.9489 -2.5017 0.9565
5.7405 6.6283 -2.3495 0.9643
4.9002 7.2715 -2.3495 0.9643
3.0189 8.2324 -2.3495 0.9643
2.0053 8.5361 -2.3495 0.9643
0.9624 8.7155 -2.3495 0.9643
-2.1887 8.4910 -2.3495 0.9643
-6.6224 5.7472 -2.3495 0.9643
-8.2905 4.2453 -2.4957 0.9622
-9.0869 2.1445 -2.5017 0.9621
-9.2791 1.0342 -2.5017 0.9621
-9.2571 -1.2150 -2.5017 0.9621
-9.0434 -2.3213 -2.5017 0.9621
-7.6338 -5.3754 -2.5017 0.9621
-6.9307 -6.2559 -2.5017 0.9621
-6.1267 -7.0452 -2.5017 0.9621
-4.2639 -8.3060 -2.5017 0.9621
-2.1537 -9.0847 -2.5017 0.9621
-1.0437 -9.2780 -2.5017 0.9621
2.3120 -9.0457 -2.5017 0.9621
3.3848 -8.7014 -2.5017 0.9621
5.3677 -7.6393 -2.5017 0.9621
7.7265 -5.2413 -2.5017 0.9621
9.0825 -2.1630 -2.5017 0.9621
9.2769 -1.0531 -2.5017 0.9621
9.2596 1.1961 -2.5017 0.9621
4.0204 7.7925 -2.3495 0.9643
2.0401 8.5279 -2.3495 0.9643
0.9979 8.7115 -2.3495 0.9643
-1.1145 8.6974 -2.3495 0.9643
-2.2569 5.8368 -1.6768 0.9744
-4.1244 7.7380 -2.3495 0.9643
-5.8554 6.5270 -2.3495 0.9643
-8.2714 4.2782 -2.4952 0.9622
-9.0781 2.1815 -2.5017 0.9621
-9.3364 -0.0530 -2.5017 0.9621
-8.7117 -3.3582 -2.5017 0.9621
-8.2437 -4.3832 -2.5017 0.9621
-7.6557 -5.3443 -2.5017 0.9621
-6.1553 -7.0202 -2.5017 0.9621
