ply
format ascii 1.0
element vertex 712
property float32 x
property float32 y
property float32 z
property float32 I
end_header
-23.6782 22.7292 8.7946 0.8729
-64.9584 -21.2512 18.3133 0.7535
-19.8800 -33.6307 10.4680 0.8506
-13.5313 -30.8168 9.0183 0.8699
26.6763 -43.7790 13.7367 0.8087
33.2177 19.8256 10.3654 0.8520
31.9901 31.5418 12.0376 0.8302
32.1168 52.1257 16.4054 0.7760
-12.3418 28.4895 8.3192 0.8793
-14.9117 25.5130 7.9182 0.8848
-17.2146 22.6894 7.6314 0.8887
-22.3188 23.0549 8.5980 0.8756
-38.6616 -11.0967 10.7776 0.8466
-21.2036 -33.0415 10.5196 0.8499
-8.7374 -40.9607 11.2223 0.8408
46.2395 -82.5509 25.3530 0.6758
56.3776 -27.9026 16.8552 0.7707
35.9550 19.7088 10.9866 0.8438
31.0185 36.1611 12.7657 0.8210
-18.9817 23.2004 6.9205 0.8842
-26.8670 25.7903 8.5980 0.8582
-18.6808 -31.6021 8.4753 0.8601
-13.3270 -30.3514 7.6529 0.8728
-10.1389 -33.5327 8.0878 0.8660
-7.0909 -40.4603 9.4834 0.8448
34.8853 -44.2704 13.0125 0.7934
56.8490 -44.4094 16.6546 0.7437
56.1069 -33.8641 15.1298 0.7641
92.1815 16.5568 21.6223 0.6808
43.1500 19.1645 10.9003 0.8238
33.0519 19.7267 8.8864 0.8538
31.9901 31.5418 10.3717 0.8316
-12.2630 41.2937 9.9449 0.8379
-12.3418 28.4895 7.1680 0.8803
-58.8681 -16.8963 14.1395 0.7777
-20.2737 -31.5924 8.6663 0.8572
-15.2724 -31.5829 8.0992 0.8659
-7.2135 -33.8168 7.9829 0.8677
56.2288 -47.3444 16.9703 0.7395
50.1876 20.1212 12.4832 0.8009
35.9551 19.7088 9.4662 0.8451
30.9706 28.3741 9.6972 0.8416
31.0185 36.1611 10.9991 0.8224
31.0824 46.5359 12.9197 0.7947
-57.4784 55.1748 15.4871 0.7228
-30.9654 -40.3971 9.8939 0.8127
-19.8800 -33.6308 7.5939 0.8528
-14.1093 -32.1331 6.8216 0.8668
-10.1825 -33.6769 6.8388 0.8664
27.9975 -88.3113 18.0080 0.6856
19.4948 -42.8310 9.1473 0.8255
92.7097 16.6517 18.3093 0.6813
56.5288 17.3528 11.4942 0.7859
-1.4794 8.6941 1.7143 0.9647
-2.5839 8.7009 1.7643 0.9637
-17.2146 22.6894 5.5361 0.8904
-22.4804 23.2219 6.2825 0.8766
-84.8837 -13.6447 16.7115 0.7045
-70.8485 -29.9235 14.9495 0.7310
-59.1336 -44.0168 14.3292 0.7405
-21.2036 -33.0415 7.6313 0.8522
21.4159 -52.0311 10.9370 0.7951
22.5350 -40.2316 8.9635 0.8287
30.7069 -42.0521 10.1214 0.8088
46.3987 -49.7216 13.2194 0.7580
56.3778 -47.4700 14.3260 0.7406
56.2511 -27.8400 12.2000 0.7743
50.1876 20.1212 10.5103 0.8023
0.9443 8.6792 1.6970 0.9650
-83.4578 24.4015 13.7719 0.7032
-83.4393 3.6905 13.2284 0.7130
-83.2677 -51.7911 15.5312 0.6722
-63.2823 -64.7262 14.3372 0.6931
-25.7589 -33.6048 6.7062 0.8424
-18.6809 -31.6021 5.8144 0.8619
-9.5704 -31.6527 5.2375 0.8747
-5.5455 -31.6425 5.0881 0.8780
-4.4524 -83.3506 13.2203 0.7132
27.9975 -88.3112 14.6732 0.6872
24.0377 -39.4487 7.3166 0.8294
43.8838 -43.6988 9.8088 0.7782
56.6975 -44.2910 11.3952 0.7472
56.3158 -33.9902 10.4183 0.7661
56.2666 -25.3238 9.7728 0.7789
74.7069 13.4182 12.0218 0.7354
56.7673 17.4260 9.4052 0.7862
43.1501 19.1645 7.4781 0.8260
33.0520 19.7267 6.0964 0.8557
31.4456 24.3154 6.2958 0.8513
31.9902 31.5418 7.1154 0.8337
6.8801 8.6427 1.7496 0.9562
5.3310 8.6523 1.6096 0.9597
3.9937 8.6605 1.5105 0.9621
2.7952 8.6679 1.4425 0.9638
1.6848 8.6747 1.3996 0.9648
0.6235 8.6812 1.3785 0.9654
-1.4794 8.6941 1.3968 0.9649
-2.5839 8.7009 1.4376 0.9639
-5.0945 8.7163 1.5990 0.9599
-8.4574 8.7364 1.9259 0.9519
-66.0400 53.5677 13.4681 0.7087
-81.9570 6.6422 13.0233 0.7168
-82.7541 -13.3024 13.2752 0.7122
-83.7358 -35.3666 14.3969 0.6920
-27.1136 -20.1823 5.3535 0.8721
-6.7481 -31.6351 5.1232 0.8772
22.8748 -40.8382 7.4137 0.8273
29.9598 -41.0290 8.0464 0.8140
39.2907 -42.1046 9.1213 0.7920
56.5671 -37.0371 10.7089 0.7605
69.6391 -24.5912 11.6972 0.7415
56.9658 15.2257 9.3392 0.7876
31.4346 22.5149 6.1241 0.8551
31.9763 29.2955 6.8687 0.8389
4.3691 8.6279 1.5318 0.9616
3.1497 8.6657 1.4604 0.9633
0.9443 8.6792 1.3828 0.9653
-9.1059 8.7410 1.5498 0.9504
-11.6433 8.7566 1.7888 0.9430
-24.6135 -32.1104 4.9677 0.8495
-19.8800 -33.6308 4.7968 0.8543
-14.1093 -32.1331 4.3090 0.8681
-4.4982 -84.2073 10.3541 0.7119
19.2962 -42.3948 5.7193 0.8288
25.5020 -41.8517 6.0176 0.8208
56.2162 -33.9301 8.0623 0.7675
75.9911 -4.7583 9.3488 0.7358
63.3151 11.3721 7.8985 0.7716
56.7672 17.4260 7.2911 0.7872
43.1501 19.1645 5.7972 0.8267
11.1433 8.6165 1.7295 0.9448
5.3310 8.6523 1.2478 0.9599
1.6848 8.6747 1.0850 0.9650
-0.4210 8.6876 1.0680 0.9656
-1.4794 8.6941 1.0828 0.9651
-5.0945 8.7163 1.2396 0.9601
-6.6203 8.7257 1.3448 0.9568
-10.7889 8.7513 1.7057 0.9456
-82.5935 -13.2766 10.2714 0.7138
-21.2036 -33.0415 4.8205 0.8537
-11.4937 -33.5245 4.3515 0.8669
-7.2977 -34.2115 4.2951 0.8685
24.3702 -87.9401 11.2046 0.6923
20.0941 -48.8197 6.4822 0.8084
21.9091 -39.1140 5.5047 0.8347
21.3999 -29.3065 4.4556 0.8639
50.4203 -42.4538 8.0931 0.7667
56.1488 -36.7632 8.2405 0.7630
63.1081 -22.2850 8.2176 0.7636
63.1585 -14.0790 7.9452 0.7705
75.9214 1.5886 9.3240 0.7364
58.2291 8.2680 7.2213 0.7890
56.9157 15.2123 7.2337 0.7887
9.4166 8.6272 1.5681 0.9498
4.3691 8.6279 1.1875 0.9618
3.1497 8.6657 1.1321 0.9635
-7.1417 8.7289 0.9867 0.9557
-11.6433 8.7566 1.2746 0.9432
-20.5781 8.8115 1.9585 0.9140
-63.5493 -64.9993 7.9530 0.6942
-13.8868 -31.6263 3.0219 0.8705
-5.5516 -31.6774 2.8137 0.8789
-4.4982 -84.2073 7.3777 0.7128
53.5424 -41.8264 5.9442 0.7612
56.3158 -33.9902 5.7549 0.7679
58.8139 -18.3729 5.3908 0.7808
60.6511 -11.2034 5.3960 0.7806
60.6966 -3.8006 5.3207 0.7833
55.5792 9.9826 4.9404 0.7971
56.5288 17.3528 5.1734 0.7886
33.2178 19.8257 3.3844 0.8561
6.8801 8.6427 0.9665 0.9566
0.6235 8.6812 0.7615 0.9657
-2.5839 8.7009 0.7941 0.9642
-6.6203 8.7257 0.9583 0.9570
-10.7889 8.7513 1.2154 0.9457
-18.6312 8.7995 1.8027 0.9206
-83.4439 27.7562 7.6937 0.7025
-27.6599 -33.4683 3.7987 0.8400
-21.2036 -33.0415 3.4348 0.8542
-15.2724 -31.5831 3.0693 0.8686
-6.7556 -31.6700 2.8331 0.8781
23.3791 -84.3638 7.6591 0.7036
20.6215 -50.1011 4.7401 0.8045
22.3769 -39.9492 4.0060 0.8321
50.1892 -42.2592 5.7402 0.7684
56.6468 -37.0893 5.9237 0.7620
60.6828 -6.0398 5.3353 0.7828
55.1797 7.8350 4.8760 0.7995
56.5150 15.1052 5.1180 0.7907
47.7312 19.1363 4.4990 0.8134
12.0094 8.6017 1.2924 0.9424
5.7772 8.6495 0.9100 0.9591
2.0169 8.6726 0.7790 0.9649
-11.6433 8.7566 0.7635 0.9433
-53.5830 -24.9841 3.0984 0.7891
-24.1713 -31.5336 2.0823 0.8529
-10.0914 -33.3757 1.8274 0.8697
-3.3496 -62.7049 3.2909 0.7776
18.4857 -97.7619 5.2143 0.6713
33.2181 -42.1547 2.8127 0.8066
65.7016 -12.1363 3.5015 0.7652
65.6483 -4.1107 3.4472 0.7684
65.5965 3.7819 3.4435 0.7686
49.1527 8.8284 2.6172 0.8187
6.8801 8.6427 0.5789 0.9567
5.3310 8.6523 0.5326 0.9601
3.9937 8.6605 0.4998 0.9625
0.6230 8.6744 0.4558 0.9658
-0.4207 8.6811 0.4555 0.9658
-1.4773 8.6816 0.4615 0.9653
-3.7724 8.7082 0.4974 0.9627
-26.0803 -31.5570 2.1455 0.8488
-19.6114 -30.5603 1.9030 0.8646
-15.2724 -31.5830 1.8386 0.8689
-8.0055 -23.3500 1.2936 0.9059
-6.9902 -77.4275 4.0743 0.7324
23.2437 -83.8752 4.5614 0.7057
21.2502 -51.6287 2.9260 0.7996
21.3965 -29.3018 1.9016 0.8647
38.7950 -41.5735 2.9801 0.7963
30.8315 -25.9600 2.1123 0.8509
56.6468 -37.0893 3.5485 0.7625
56.6998 -28.0621 3.3155 0.7762
65.7184 -14.6496 3.5287 0.7636
65.6123 1.3729 3.4393 0.7688
56.4464 8.0149 2.9879 0.7958
31.0695 12.4564 1.7543 0.8745
35.9552 19.7088 2.1489 0.8485
12.0094 8.6017 0.7742 0.9425
7.4108 8.6395 0.5965 0.9554
5.7772 8.6495 0.5451 0.9592
2.0130 8.6559 0.4657 0.9650
0.9434 8.6711 0.4571 0.9657
-11.6433 8.7566 0.2543 0.9434
-15.1657 8.7782 0.3059 0.9323
-20.5659 8.8063 0.3905 0.9144
-53.5472 -24.9674 1.0313 0.7895
-63.3519 -64.7973 1.5818 0.6959
-23.8967 -31.1754 0.6856 0.8546
-20.7928 -35.1749 0.7133 0.8492
-9.4350 -31.2046 0.5690 0.8777
-7.0909 -40.4604 0.7170 0.8485
-4.4982 -84.2074 1.4719 0.7137
39.8229 -87.4929 1.6779 0.6807
26.6948 -43.8093 0.8955 0.8145
30.8634 -39.1665 0.8704 0.8191
31.0817 -24.2804 0.6884 0.8540
40.3225 -24.3372 0.8221 0.8283
56.2666 -25.3238 1.0770 0.7813
79.0651 -24.6992 1.4459 0.7179
33.0520 19.7267 0.6719 0.8573
11.7187 9.0615 0.2586 0.9425
1.6766 8.6325 0.1535 0.9654
0.6205 8.6386 0.1512 0.9659
-6.5918 8.6882 0.1904 0.9573
-8.4580 8.7370 0.2123 0.9525
-10.7889 8.7513 0.2425 0.9459
-13.9470 8.7708 0.2876 0.9362
-60.6072 -17.3955 1.1006 0.7770
-15.2724 -31.5830 0.6124 0.8691
-10.6957 -31.1969 0.5757 0.8764
-7.1568 -33.5510 0.5988 0.8718
22.2635 -54.0905 1.0210 0.7914
26.6712 -47.6159 0.9526 0.8039
30.7811 -32.9855 0.7875 0.8349
30.8315 -25.9600 0.7035 0.8511
37.1406 -24.3177 0.7749 0.8373
69.6393 -24.5913 1.2891 0.7442
31.0695 12.4563 0.5843 0.8747
35.9552 19.7089 0.7157 0.8487
7.4108 8.6395 0.1987 0.9555
4.3691 8.6279 0.1688 0.9620
2.0079 8.6339 0.1547 0.9652
-7.0683 8.6393 -0.1948 0.9563
-9.1059 8.7410 -0.2203 0.9508
-56.8517 9.4272 -1.0059 0.7941
-76.6909 -5.8340 -1.3425 0.7351
-76.5339 -25.0381 -1.4056 0.7246
-53.5115 -24.9508 -1.0306 0.7896
-64.0966 -39.8670 -1.3176 0.7394
-23.6336 -24.1728 -0.5901 0.8735
-15.4703 -20.1824 -0.4439 0.9033
-14.1093 -32.1332 -0.6126 0.8690
-6.3005 -20.8380 -0.3800 0.9166
-1.5035 -28.1465 -0.4920 0.8934
36.3405 -79.8419 -1.5312 0.7040
31.0817 -24.2804 -0.6884 0.8540
40.3225 -24.3372 -0.8221 0.8283
46.1368 -20.7647 -0.8831 0.8168
95.4563 -17.6326 -1.6944 0.6782
73.3265 4.2276 -1.2820 0.7454
48.3528 8.6847 -0.8575 0.8216
27.7372 8.5146 -0.5064 0.8904
33.0520 19.7267 -0.6719 0.8573
11.7187 9.0615 -0.2586 0.9425
8.7539 8.6312 -0.2146 0.9520
5.3310 8.6523 -0.1774 0.9602
3.9882 8.6486 -0.1662 0.9626
1.6697 8.5973 -0.1529 0.9656
-0.4210 8.6876 -0.1518 0.9658
-2.5839 8.7009 -0.1584 0.9643
-5.0693 8.6733 -0.1754 0.9606
-6.5528 8.6369 -0.1892 0.9576
-8.4580 8.7370 -0.2123 0.9525
-10.7889 8.7513 -0.2425 0.9459
-13.9470 8.7708 -0.2876 0.9362
-26.6014 8.8485 -0.4893 0.8939
-90.7431 -3.5640 -1.5851 0.6954
-76.6154 -12.3156 -1.3545 0.7331
-61.1100 -17.5397 -1.1097 0.7754
-17.0302 -20.6064 -0.4666 0.8986
-7.0374 -20.5263 -0.3788 0.9169
-2.3525 -26.0582 -0.4567 0.9006
26.5575 -95.8327 -1.7358 0.6718
26.6713 -47.6161 -0.9526 0.8039
30.7882 -32.9932 -0.7877 0.8348
57.3259 -12.7789 -1.0252 0.7906
31.0695 12.4563 -0.5843 0.8747
12.0094 8.6017 -0.2578 0.9426
9.4166 8.6272 -0.2229 0.9502
7.4108 8.6395 -0.1987 0.9555
5.7772 8.6495 -0.1816 0.9592
4.3691 8.6279 -0.1688 0.9620
3.1345 8.6239 -0.1602 0.9640
2.0030 8.6130 -0.1544 0.9652
0.9352 8.5960 -0.1509 0.9660
-20.3897 8.7308 -1.1624 0.9150
-44.7590 7.4220 -2.3777 0.8338
-37.6390 1.6647 -1.9745 0.8599
-44.4093 -14.5285 -2.4488 0.8293
-43.2650 -20.1731 -2.5018 0.8260
-40.5357 -25.2125 -2.5018 0.8260
-37.2223 -29.8884 -2.5018 0.8260
-3.8449 -21.9387 -1.1673 0.9146
-1.4897 -27.8870 -1.4636 0.8942
3.1845 -47.6306 -2.5018 0.8260
14.4265 -45.5049 -2.5018 0.8260
19.7757 -43.4481 -2.5018 0.8260
22.2915 -36.5830 -2.2451 0.8423
27.7485 -35.2136 -2.3496 0.8356
30.3438 -30.2159 -2.2442 0.8424
38.3833 -23.1668 -2.3496 0.8356
34.0141 -15.3087 -1.9548 0.8612
47.6578 2.7477 -2.5018 0.8260
44.1267 7.9256 -2.3496 0.8356
27.7372 8.5146 -1.5206 0.8903
25.8811 11.4947 -1.4841 0.8928
11.7187 9.0615 -0.7763 0.9424
8.7539 8.6312 -0.6443 0.9520
6.8801 8.6427 -0.5789 0.9567
1.6657 8.5768 -0.4579 0.9656
0.6147 8.5578 -0.4496 0.9662
-2.5839 8.7009 -0.4757 0.9643
-3.7702 8.7030 -0.4971 0.9627
-5.0556 8.6499 -0.5251 0.9607
-6.5274 8.6034 -0.5660 0.9577
-8.4580 8.7370 -0.6373 0.9525
-13.9470 8.7708 -0.8634 0.9361
-18.2850 8.6361 -1.0598 0.9222
-45.0617 3.6520 -2.3693 0.8344
-44.9694 -1.7662 -2.3586 0.8351
-43.0929 -12.3685 -2.3496 0.8356
-43.9755 -18.5734 -2.5018 0.8260
-41.4328 -23.7095 -2.5018 0.8260
-38.2929 -28.5038 -2.5018 0.8260
-32.4962 -30.8866 -2.3496 0.8356
-16.5826 -20.0649 -1.3642 0.9010
-12.4619 -19.4195 -1.2093 0.9117
-9.1954 -19.0158 -1.1070 0.9189
-6.9833 -20.3686 -1.1285 0.9174
-2.2593 -25.0251 -1.3168 0.9043
7.1439 -47.1994 -2.5018 0.8260
18.1695 -44.1439 -2.5018 0.8260
30.7271 -25.8722 -2.1052 0.8514
37.6738 -13.3035 -2.0939 0.8521
47.5022 -4.7279 -2.5018 0.8260
47.7265 0.9987 -2.5018 0.8260
12.0094 8.6017 -0.7742 0.9425
9.4166 8.6272 -0.6693 0.9501
7.4108 8.6395 -0.5965 0.9554
5.7772 8.6495 -0.5451 0.9592
4.3691 8.6279 -0.5068 0.9620
3.1288 8.6083 -0.4800 0.9640
-19.0351 8.1508 -1.8116 0.9202
-27.1781 -8.8913 -2.5018 0.8915
-24.2818 -15.1029 -2.5018 0.8915
-18.7746 -19.2029 -2.3496 0.8978
-8.3967 -19.1230 -1.8272 0.9196
-6.1433 -20.3181 -1.8571 0.9183
-3.7805 -21.5712 -1.9160 0.9158
1.7915 -26.7961 -2.3496 0.8978
5.3130 -28.0976 -2.5018 0.8915
8.6418 -27.2585 -2.5018 0.8915
11.8461 -26.0264 -2.5018 0.8915
17.6987 -22.4602 -2.5018 0.8915
22.2875 -17.4106 -2.4743 0.8927
26.0762 -11.7361 -2.5018 0.8915
27.2947 -8.5266 -2.5018 0.8915
28.5396 -1.7871 -2.5018 0.8915
26.4329 4.7476 -2.3496 0.8978
25.6735 7.8811 -2.3496 0.8978
24.5504 10.9037 -2.3502 0.8978
23.1737 13.8309 -2.3611 0.8973
2.7706 8.5915 -0.7898 0.9644
-2.5839 8.7009 -0.7941 0.9642
-3.7702 8.7030 -0.8298 0.9626
-8.4580 8.7370 -1.0639 0.9523
-17.9622 8.4836 -1.7379 0.9233
-25.5460 8.4974 -2.3554 0.8975
-24.2400 1.9645 -2.1277 0.9070
-26.3423 -11.1259 -2.5018 0.8915
-24.8192 -14.2025 -2.5018 0.8915
-19.4660 -18.5018 -2.3496 0.8978
-9.1196 -18.8591 -1.8327 0.9193
-4.5180 -21.1801 -1.8947 0.9167
-2.2275 -24.6730 -2.1674 0.9053
0.8079 -26.8437 -2.3496 0.8978
7.6367 -27.5570 -2.5018 0.8915
10.8840 -26.4432 -2.5018 0.8915
13.9744 -24.9484 -2.5018 0.8915
16.8634 -23.0939 -2.5018 0.8915
19.5094 -20.9066 -2.5018 0.8915
21.7337 -18.2997 -2.4857 0.8922
25.6284 -12.6841 -2.5018 0.8915
26.9638 -9.5216 -2.5018 0.8915
27.9105 -6.2217 -2.5018 0.8915
28.4549 -2.8321 -2.5018 0.8915
28.5893 0.5982 -2.5018 0.8915
25.9451 6.9346 -2.3496 0.8978
24.9272 9.9938 -2.3496 0.8978
12.0094 8.6017 -1.2924 0.9424
9.4166 8.6272 -1.1173 0.9500
7.4108 8.6395 -0.9958 0.9553
5.7772 8.6495 -0.9100 0.9591
4.3691 8.6279 -0.8461 0.9619
1.9934 8.5714 -0.7699 0.9653
0.9272 8.5222 -0.7500 0.9662
-17.5910 7.5324 -2.3496 0.9258
-18.8781 3.1304 -2.3496 0.9258
-20.3555 0.9003 -2.5018 0.9212
-19.3654 -6.3354 -2.5018 0.9212
-17.3017 -10.7614 -2.5018 0.9212
-11.6518 -15.2008 -2.3517 0.9257
-7.6934 -17.5212 -2.3496 0.9258
-3.3033 -18.8486 -2.3496 0.9258
1.3569 -20.2954 -2.4975 0.9213
14.4380 -14.3771 -2.5018 0.9212
16.0569 -12.5433 -2.5018 0.9212
17.4443 -10.5288 -2.5018 0.9212
18.5803 -8.3624 -2.5018 0.9212
19.4485 -6.0755 -2.5018 0.9212
20.3356 -1.2733 -2.5018 0.9212
20.3416 1.1728 -2.5018 0.9212
20.0404 3.5995 -2.5000 0.9212
18.2933 5.6156 -2.3496 0.9258
17.4886 7.7673 -2.3496 0.9258
11.7187 9.0615 -1.8189 0.9420
5.3310 8.6523 -1.2478 0.9599
3.9729 8.6154 -1.1649 0.9625
2.7639 8.5708 -1.1057 0.9644
1.6560 8.5264 -1.0665 0.9656
-1.4794 8.6941 -1.0828 0.9651
-2.5839 8.7009 -1.1145 0.9641
-5.0240 8.5958 -1.2225 0.9607
-13.9470 8.7708 -2.0229 0.9358
-17.3030 8.1723 -2.3496 0.9258
-18.1577 6.0399 -2.3496 0.9258
-18.7506 3.8204 -2.3496 0.9258
-20.3597 -0.7997 -2.5018 0.9212
-20.1172 -3.2337 -2.5018 0.9212
-19.5847 -5.6212 -2.5018 0.9212
-18.7699 -7.9276 -2.5018 0.9212
-17.6846 -10.1198 -2.5018 0.9212
-14.7687 -14.0372 -2.5018 0.9212
-10.3350 -16.1049 -2.3496 0.9258
-3.9921 -18.7148 -2.3496 0.9258
-1.7206 -19.0583 -2.3496 0.9258
0.5791 -19.2400 -2.3634 0.9254
3.0492 -20.1460 -2.5018 0.9212
5.4414 -19.6354 -2.5018 0.9212
7.7552 -18.8418 -2.5018 0.9212
9.9573 -17.7766 -2.5018 0.9212
15.5862 -13.1235 -2.5018 0.9212
17.0466 -11.1612 -2.5018 0.9212
18.2613 -9.0379 -2.5018 0.9212
19.8873 -4.4332 -2.5018 0.9212
20.3710 0.4262 -2.5018 0.9212
18.4869 4.9412 -2.3496 0.9258
17.7616 7.1209 -2.3496 0.9258
12.0094 8.6017 -1.8138 0.9422
9.4166 8.6272 -1.5681 0.9498
7.4108 8.6395 -1.3976 0.9552
5.7772 8.6495 -1.2771 0.9589
4.3691 8.6279 -1.1875 0.9618
1.9861 8.5400 -1.0766 0.9653
0.9242 8.4950 -1.0492 0.9661
-9.1059 8.7410 -1.9992 0.9502
-12.8390 7.4315 -2.3496 0.9417
-15.5829 2.5840 -2.5018 0.9380
-14.3159 -6.6751 -2.5018 0.9380
-13.4128 -8.3425 -2.5018 0.9380
-11.0425 -11.2945 -2.5018 0.9380
-9.6094 -12.5364 -2.5018 0.9380
-2.7247 -15.5469 -2.4999 0.9381
-0.8426 -15.7732 -2.5018 0.9380
1.0537 -15.7605 -2.5018 0.9380
8.2192 -13.4887 -2.5018 0.9380
11.1928 -11.1456 -2.5018 0.9380
15.0771 -4.7099 -2.5018 0.9380
15.5329 -2.8692 -2.5018 0.9380
15.7648 -0.9871 -2.5018 0.9380
15.7694 0.9092 -2.5018 0.9380
15.5469 2.7924 -2.5018 0.9380
13.5577 6.0214 -2.3496 0.9417
5.3310 8.6523 -1.6096 0.9597
3.9726 8.6147 -1.5025 0.9623
-1.4794 8.6941 -1.3968 0.9649
-2.5839 8.7009 -1.4376 0.9639
-4.9774 8.5161 -1.5623 0.9608
-6.3725 8.3992 -1.6699 0.9582
-8.4580 8.7370 -1.9260 0.9519
-10.7889 8.7513 -2.2003 0.9453
-13.4138 6.3354 -2.3496 0.9417
-15.4513 3.1481 -2.4975 0.9381
-15.7835 -0.6199 -2.5018 0.9380
-15.5954 -2.5069 -2.5018 0.9380
-15.1826 -4.3577 -2.5018 0.9380
-14.5510 -6.1458 -2.5018 0.9380
-13.7097 -7.8452 -2.5018 0.9380
-5.1083 -14.8996 -2.4947 0.9382
-1.4203 -15.7317 -2.5018 0.9380
0.4752 -15.7885 -2.5018 0.9380
2.3638 -15.6178 -2.5018 0.9380
4.2184 -15.2219 -2.5018 0.9380
6.0121 -14.6067 -2.5018 0.9380
7.7192 -13.7810 -2.5018 0.9380
9.3150 -12.7566 -2.5018 0.9380
12.0829 -10.1738 -2.5018 0.9380
13.2150 -8.6525 -2.5018 0.9380
14.1567 -7.0065 -2.5018 0.9380
14.8943 -5.2595 -2.5018 0.9380
15.7180 -1.5644 -2.5018 0.9380
15.6388 2.2206 -2.5018 0.9380
13.7693 5.5204 -2.3496 0.9417
9.4166 8.6272 -2.0227 0.9496
5.7772 8.6495 -1.6474 0.9588
4.3691 8.6279 -1.5318 0.9616
1.9690 8.4668 -1.3768 0.9654
-7.6542 9.3553 -2.3496 0.9519
-8.7202 8.3707 -2.3496 0.9519
-9.6604 7.2654 -2.3496 0.9519
-11.1117 4.7580 -2.3496 0.9519
-12.3424 3.6087 -2.4996 0.9490
-12.8580 0.5687 -2.5018 0.9489
-12.8335 -0.9763 -2.5018 0.9489
-10.9290 -6.7977 -2.5018 0.9489
-10.0356 -8.0584 -2.5018 0.9489
-8.9976 -9.2029 -2.5018 0.9489
-7.8300 -10.2149 -2.5018 0.9489
-3.7250 -12.3197 -2.5018 0.9489
-0.6865 -12.8522 -2.5018 0.9489
3.8896 -12.2688 -2.5018 0.9489
9.1201 -9.0816 -2.5018 0.9489
10.1427 -7.9233 -2.5018 0.9489
11.0191 -6.6507 -2.5018 0.9489
11.7366 -5.2823 -2.5018 0.9489
12.2851 -3.8377 -2.5018 0.9489
12.8454 -0.8043 -2.5018 0.9489
12.8492 0.7408 -2.5018 0.9489
12.6679 2.2753 -2.5018 0.9489
10.3794 6.1949 -2.3496 0.9519
4.2022 3.2493 -1.0325 0.9786
8.6073 8.4867 -2.3496 0.9519
5.3310 8.6523 -1.9754 0.9594
1.6279 8.3819 -1.6597 0.9658
0.5856 8.1527 -1.5888 0.9672
-1.4794 8.6941 -1.7143 0.9647
-3.7648 8.6905 -1.8410 0.9621
-6.2412 8.2260 -2.0071 0.9588
-8.4074 8.6847 -2.3496 0.9519
-9.3876 7.6146 -2.3496 0.9519
-10.9298 5.1622 -2.3496 0.9519
-11.9957 3.9902 -2.4573 0.9498
-12.6115 2.5695 -2.5018 0.9489
-12.8285 1.0397 -2.5018 0.9489
-12.8606 -0.5051 -2.5018 0.9489
-9.3290 -8.8669 -2.5018 0.9489
-8.1992 -9.9209 -2.5018 0.9489
-6.9512 -10.8320 -2.5018 0.9489
-4.1741 -12.1749 -2.5018 0.9489
-2.6850 -12.5874 -2.5018 0.9489
-1.1573 -12.8184 -2.5018 0.9489
0.3872 -12.8647 -2.5018 0.9489
7.5901 -10.3943 -2.5018 0.9489
9.8454 -8.2898 -2.5018 0.9489
10.7678 -7.0502 -2.5018 0.9489
12.8073 -1.2747 -2.5018 0.9489
12.4341 3.3234 -2.5018 0.9489
4.4069 3.1564 -1.0537 0.9782
8.9126 8.1654 -2.3496 0.9519
4.3691 8.6279 -1.8799 0.9614
3.0703 8.4474 -1.7471 0.9640
-8.1336 6.1171 -2.3496 0.9591
-9.9313 4.2526 -2.4942 0.9566
-10.4010 3.0410 -2.5018 0.9565
-10.8258 0.4788 -2.5018 0.9565
-10.8052 -0.8220 -2.5018 0.9565
-10.6288 -2.1109 -2.5018 0.9565
-9.8213 -4.5794 -2.5018 0.9565
-9.2017 -5.7233 -2.5018 0.9565
-5.5143 -9.3285 -2.5018 0.9565
-1.8706 -10.6737 -2.5018 0.9565
-0.5780 -10.8210 -2.5018 0.9565
0.7229 -10.8123 -2.5018 0.9565
2.0134 -10.6477 -2.5018 0.9565
3.2749 -10.3297 -2.5018 0.9565
5.6387 -9.2538 -2.5018 0.9565
6.7070 -8.5114 -2.5018 0.9565
8.5396 -6.6710 -2.5018 0.9565
9.8817 -4.4474 -2.5018 0.9565
10.3435 -3.2312 -2.5018 0.9565
10.6561 -1.9684 -2.5018 0.9565
10.8152 -0.6772 -2.5018 0.9565
10.8185 0.6237 -2.5018 0.9565
10.6657 1.9157 -2.5018 0.9565
3.6099 2.7913 -1.0535 0.9814
3.3846 3.3372 -1.0974 0.9807
5.3386 8.6646 -2.3496 0.9591
3.9726 8.6147 -2.1901 0.9618
-5.1355 8.7865 -2.3496 0.9591
-6.1514 8.1077 -2.3496 0.9591
-7.9039 6.4112 -2.3496 0.9591
-8.6152 5.4178 -2.3496 0.9591
-9.2136 4.3516 -2.3524 0.9590
-10.6183 2.1634 -2.5018 0.9565
-10.8281 -0.4253 -2.5018 0.9565
-9.9826 -4.2162 -2.5018 0.9565
-8.6926 -6.4704 -2.5018 0.9565
-7.8546 -7.4655 -2.5018 0.9565
-6.9033 -8.3530 -2.5018 0.9565
-5.8526 -9.1200 -2.5018 0.9565
-4.7175 -9.7557 -2.5018 0.9565
0.3260 -10.8315 -2.5018 0.9565
4.1245 -10.0208 -2.5018 0.9565
5.2957 -9.4543 -2.5018 0.9565
6.3905 -8.7516 -2.5018 0.9565
7.3932 -7.9227 -2.5018 0.9565
8.2894 -6.9796 -2.5018 0.9565
9.0660 -5.9359 -2.5018 0.9565
10.5768 -2.3577 -2.5018 0.9565
10.7831 -1.0733 -2.5018 0.9565
10.0582 4.0325 -2.5018 0.9565
4.2006 2.3026 -1.1059 0.9805
3.6921 2.6445 -1.0485 0.9815
6.6261 7.7246 -2.3496 0.9591
4.3691 8.6279 -2.2327 0.9611
3.0703 8.4474 -2.0751 0.9638
1.9257 8.2806 -1.9627 0.9657
0.8765 8.0563 -1.8709 0.9673
-5.5526 6.7867 -2.3496 0.9643
-6.3259 6.0724 -2.3496 0.9643
-7.0080 5.2706 -2.3496 0.9643
-7.7058 4.4603 -2.3857 0.9638
-8.5830 3.6752 -2.5018 0.9621
-9.2110 1.5274 -2.5018 0.9621
-9.3277 0.4126 -2.5018 0.9621
-8.8740 -2.9031 -2.5018 0.9621
-8.4621 -3.9456 -2.5018 0.9621
-7.9283 -4.9313 -2.5018 0.9621
-6.5272 -6.6762 -2.5018 0.9621
-5.6801 -7.4102 -2.5018 0.9621
-4.7512 -8.0375 -2.5018 0.9621
0.6228 -9.3160 -2.5018 0.9621
2.8217 -8.9002 -2.5018 0.9621
5.7789 -7.3335 -2.5018 0.9621
6.6160 -6.5881 -2.5018 0.9621
7.3579 -5.7478 -2.5018 0.9621
7.9936 -4.8247 -2.5018 0.9621
8.5142 -3.8320 -2.5018 0.9621
8.9121 -2.7840 -2.5018 0.9621
9.1815 -1.6960 -2.5018 0.9621
9.3185 -0.5835 -2.5018 0.9621
3.8119 2.2751 -1.1895 0.9818
3.3106 2.5599 -1.1213 0.9828
3.6720 7.9629 -2.3496 0.9643
1.6718 8.6079 -2.3496 0.9643
0.6282 8.7463 -2.3496 0.9643
-0.4244 8.7585 -2.3496 0.9643
-4.4248 7.5705 -2.3496 0.9643
-6.8101 5.5239 -2.3496 0.9643
-8.4400 3.9862 -2.5010 0.9621
-9.1488 1.8640 -2.5018 0.9621
-9.3296 -0.3664 -2.5018 0.9621
-9.2185 -1.4818 -2.5018 0.9621
-8.9745 -2.5758 -2.5018 0.9621
-8.1038 -4.6373 -2.5018 0.9621
2.4935 -8.9977 -2.5018 0.9621
5.5061 -7.5404 -2.5018 0.9621
7.1422 -6.0137 -2.5018 0.9621
7.8114 -5.1145 -2.5018 0.9621
8.8040 -3.1089 -2.5018 0.9621
9.1131 -2.0315 -2.5018 0.9621
9.2909 -0.9247 -2.5018 0.9621
9.2441 1.3126 -2.5018 0.9621
5.2729 2.1140 -1.5222 0.9767
4.0720 2.2321 -1.2443 0.9810
2.9687 3.4609 -1.2218 0.9813
4.8704 7.2918 -2.3496 0.9643
3.9615 7.8229 -2.3496 0.9643
2.9954 8.2413 -2.3496 0.9643
1.9863 8.5409 -2.3496 0.9643
