ply
format ascii 1.0
element vertex 563
property float32 x
property float32 y
property float32 z
property float32 I
end_header
36.1195 20.3038 11.1025 0.8423
35.6556 26.1597 11.8494 0.8327
36.7067 34.4600 13.4906 0.8118
4.7983 5.7421 2.0051 0.9695
36.8444 56.8264 18.1470 0.7554
-7.6719 27.6308 7.6837 0.8880
-12.7526 22.6620 6.9677 0.8979
-17.0291 23.1884 7.7088 0.8877
-21.9734 23.3846 8.5981 0.8756
-56.9828 -15.8497 15.8481 0.7828
-47.5326 -26.7767 14.6182 0.7978
-16.3286 -33.5076 9.9876 0.8570
-3.7682 -41.3641 11.1294 0.8420
36.6201 34.5050 13.4819 0.8119
4.7811 5.7428 2.0023 0.9695
36.8458 57.0571 18.1991 0.7548
36.1195 20.3038 9.5660 0.8436
35.6556 26.1597 10.2096 0.8340
36.7067 34.4600 11.6236 0.8133
-12.7526 22.6620 6.0034 0.8987
-52.1731 55.5237 17.5898 0.7314
-64.1504 53.5561 19.2931 0.7096
-56.3124 -15.6633 13.4943 0.7867
-26.1588 -40.4267 11.1167 0.8206
-15.3050 -31.4070 8.0660 0.8664
-8.7771 -25.4107 6.2066 0.8955
-3.0719 -33.7205 7.8172 0.8702
47.7686 -84.7054 22.4511 0.6708
31.7869 -43.2010 12.3827 0.8024
46.1735 19.1459 11.5401 0.8145
35.6562 26.2607 10.2235 0.8338
36.6201 34.5050 11.6162 0.8134
35.7590 42.9525 12.9031 0.7950
35.8362 55.4937 15.2509 0.7625
-7.5161 49.1324 11.4751 0.8154
-7.7265 27.6312 6.6239 0.8889
-10.4738 25.2267 6.3061 0.8939
-52.3658 55.5249 17.6205 0.7310
36.1195 20.3039 8.0542 0.8446
35.6556 26.1597 8.5960 0.8351
36.7067 34.4600 9.7866 0.8145
36.7654 43.9973 11.1451 0.7916
35.8348 55.2694 12.8038 0.7646
0.7988 8.6801 1.6944 0.9651
-1.3135 8.6931 1.7089 0.9648
-2.4156 8.6999 1.7551 0.9639
-3.5964 8.7071 1.8312 0.9623
-4.9043 8.7152 1.9439 0.9601
-17.0291 23.1884 5.5922 0.8894
-78.0315 26.9928 16.0497 0.7143
-80.5860 -33.3286 16.9511 0.7009
-55.6982 -40.9431 13.4370 0.7545
-21.7605 -33.6294 7.7860 0.8494
-16.3286 -33.5076 7.2454 0.8591
-8.7603 -25.3620 5.2157 0.8964
31.2348 -55.3870 12.3601 0.7717
29.7371 -40.4151 9.7533 0.8151
40.7463 -43.2836 11.5550 0.7849
61.0555 -50.8775 15.4484 0.7234
60.3907 -29.3949 13.0555 0.7606
13.6393 5.6556 2.8701 0.9416
36.1201 20.3912 8.0626 0.8445
36.6201 34.5050 9.7803 0.8146
35.8362 55.4937 12.8406 0.7640
4.2099 8.6592 1.8716 0.9615
2.9847 8.6667 1.7817 0.9633
1.8560 8.6736 1.7241 0.9645
-1.3298 8.6932 1.7094 0.9648
-3.6151 8.7072 1.8326 0.9623
-52.3658 55.5248 14.8357 0.7327
-79.3857 7.1221 15.4930 0.7227
-78.9208 -12.1100 15.5202 0.7223
-56.1284 -15.7229 11.3302 0.7886
36.1195 20.3039 6.5627 0.8455
36.6602 26.8968 7.2015 0.8318
36.7068 34.4600 7.9743 0.8155
7.2204 8.6407 1.7835 0.9554
5.6087 8.6506 1.6329 0.9591
1.8726 8.6735 1.4054 0.9647
0.7988 8.6801 1.3806 0.9653
-0.2529 8.6866 1.3764 0.9654
-2.4156 8.6999 1.4301 0.9641
-3.5964 8.7071 1.4921 0.9626
-8.2010 8.7277 1.8968 0.9527
-78.7515 27.2419 13.1982 0.7136
-78.2417 7.1639 12.4441 0.7275
-77.5262 -32.0632 13.2877 0.7119
-57.2635 -42.0937 11.2564 0.7499
-20.4193 -31.5566 5.9532 0.8588
-15.4099 -31.6223 5.5715 0.8672
-8.7498 -25.3318 4.2448 0.8971
-6.0597 -28.1932 4.5673 0.8898
-2.8819 -31.6352 5.0313 0.8793
39.7172 -42.1905 9.1774 0.7908
51.1735 -42.6428 10.5503 0.7636
60.8814 -39.3548 11.4819 0.7456
46.1736 19.1460 7.9170 0.8167
36.6201 34.5051 7.9692 0.8156
7.1937 8.6408 1.7808 0.9555
5.5864 8.6507 1.6310 0.9592
4.2099 8.6592 1.5250 0.9618
1.8560 8.6736 1.4049 0.9647
-2.4328 8.7000 1.4308 0.9641
-3.6151 8.7072 1.4932 0.9625
-4.9254 8.7153 1.5856 0.9603
-6.4318 8.7246 1.7167 0.9571
-8.2288 8.7252 1.8996 0.9526
-79.0576 27.1859 13.2411 0.7128
-80.0840 -12.2885 12.8325 0.7203
-56.8710 -15.9309 9.3542 0.7873
11.7393 8.6129 1.7877 0.9430
7.2204 8.6407 1.3826 0.9556
3.0024 8.6666 1.1262 0.9637
0.7988 8.6801 1.0703 0.9655
-1.3135 8.6931 1.0795 0.9652
-4.9043 8.7152 1.2279 0.9605
-6.4070 8.7244 1.3291 0.9573
-61.8784 -34.8582 8.7203 0.7511
-21.7605 -33.6294 4.9182 0.8509
-16.3286 -33.5076 4.5767 0.8605
-8.7487 -25.3287 3.2903 0.8976
-6.0626 -28.2066 3.5424 0.8902
-3.0719 -33.7206 4.1575 0.8724
31.5161 -76.1048 10.1141 0.7175
39.9327 -42.4194 7.1532 0.7907
60.8815 -39.3549 8.9011 0.7467
65.2801 -22.5149 8.4787 0.7571
65.5174 -5.9383 8.0775 0.7671
61.3216 17.1170 7.8172 0.7737
46.1737 19.1460 6.1375 0.8175
16.4418 9.2821 2.3183 0.9267
11.6947 8.6132 1.7834 0.9431
5.5864 8.6507 1.2644 0.9593
4.2099 8.6592 1.1822 0.9619
0.7827 8.6802 1.0701 0.9655
-0.2688 8.6867 1.0671 0.9656
-1.3298 8.6932 1.0798 0.9652
-2.4328 8.7000 1.1092 0.9642
-4.9254 8.7153 1.2292 0.9605
-6.4318 8.7246 1.3309 0.9573
-79.2139 27.2396 10.2852 0.7135
11.7393 8.6129 1.2738 0.9432
9.1911 8.6285 1.1029 0.9506
7.2204 8.6407 0.9852 0.9558
4.2295 8.6590 0.8431 0.9620
-0.2529 8.6866 0.7603 0.9657
-4.9043 8.7152 0.8749 0.9606
-6.4070 8.7244 0.9470 0.9575
-10.4802 8.7494 1.1944 0.9467
-13.5371 8.7682 1.4111 0.9373
-21.7605 -33.6294 3.5044 0.8514
-8.7453 -25.3187 2.3435 0.8980
-6.0839 -28.3057 2.5330 0.8903
-2.8873 -31.6938 2.7843 0.8800
24.6604 -88.5022 8.0379 0.6915
23.9718 -42.5079 4.2696 0.8221
49.0850 -40.9025 5.5899 0.7737
61.1395 -21.0868 5.6582 0.7713
65.3324 -14.0109 5.8458 0.7647
65.3821 -5.9260 5.7436 0.7683
46.1737 19.1460 4.3732 0.8182
9.1577 8.6287 1.1008 0.9507
2.9847 8.6667 0.8019 0.9639
1.8560 8.6736 0.7760 0.9650
-1.3298 8.6932 0.7694 0.9653
-2.4328 8.7000 0.7903 0.9644
-4.9254 8.7153 0.8758 0.9606
-10.5196 8.7497 1.1971 0.9465
-13.5921 8.7686 1.4151 0.9371
11.7393 8.6129 0.7631 0.9433
7.2204 8.6407 0.5901 0.9559
5.6087 8.6506 0.5403 0.9595
4.2295 8.6590 0.5050 0.9621
1.8693 8.6583 0.4642 0.9651
0.7981 8.6727 0.4564 0.9657
-1.3119 8.6820 0.4602 0.9654
-4.9043 8.7152 0.5241 0.9607
-13.5371 8.7682 0.8453 0.9374
-18.0288 8.7958 1.0513 0.9228
-79.4769 -32.8699 4.5074 0.7086
-26.3198 -31.5556 2.1535 0.8482
-8.7419 -25.3088 1.4033 0.8983
-6.1026 -28.3928 1.5220 0.8902
49.1465 -40.9538 3.3527 0.7740
60.8815 -39.3549 3.7992 0.7480
68.0769 -14.5995 3.6489 0.7566
54.3378 8.2869 2.8806 0.8024
30.4437 8.4979 1.6565 0.8811
46.1737 19.1460 2.6196 0.8186
15.2186 8.5915 0.9159 0.9324
7.1937 8.6408 0.5892 0.9560
4.2099 8.6592 0.5046 0.9622
1.8527 8.6586 0.4641 0.9652
0.7821 8.6729 0.4564 0.9657
-1.3281 8.6819 0.4603 0.9654
-3.6151 8.7072 0.4941 0.9629
-4.9254 8.7153 0.5246 0.9607
-13.5921 8.7686 0.8477 0.9373
-25.7160 8.8431 1.4252 0.8968
-78.8515 -2.4761 4.1345 0.7291
11.7393 8.6129 0.2541 0.9434
9.1911 8.6285 0.2200 0.9508
5.5837 8.6119 0.1792 0.9598
3.0024 8.6666 0.1601 0.9640
1.8726 8.6735 0.1549 0.9651
0.7976 8.6680 0.1519 0.9658
-0.2523 8.6655 0.1513 0.9659
-6.4070 8.7244 0.1889 0.9576
-8.2083 8.7355 0.2092 0.9532
-17.9958 8.7797 0.3495 0.9230
-54.5247 -15.1660 0.9879 0.7974
-16.5101 -33.8801 0.6579 0.8600
-3.0588 -33.5762 0.5885 0.8738
31.5289 -55.9086 1.1204 0.7735
31.4003 -42.6755 0.9248 0.8090
35.4966 -29.5793 0.8065 0.8312
55.7379 -19.2239 1.0291 0.7899
91.3991 -19.6011 1.6316 0.6880
15.2186 8.5915 0.3050 0.9325
11.6947 8.6132 0.2535 0.9436
9.1577 8.6287 0.2196 0.9509
7.1787 8.6228 0.1958 0.9561
5.5614 8.6120 0.1789 0.9598
2.9847 8.6667 0.1600 0.9640
0.7816 8.6673 0.1519 0.9658
-0.2681 8.6656 0.1513 0.9659
-1.3234 8.6508 0.1528 0.9656
-2.4211 8.6581 0.1569 0.9647
-3.6151 8.7072 0.1646 0.9630
-4.9254 8.7153 0.1747 0.9607
-8.2387 8.7357 0.2096 0.9531
-10.5196 8.7497 0.2388 0.9467
-13.5529 8.7433 0.2815 0.9375
-78.8416 -2.4758 1.3769 0.7294
15.2831 8.5911 -0.3060 0.9323
7.1836 8.5966 -0.1955 0.9562
4.2295 8.6590 -0.1682 0.9622
3.0024 8.6666 -0.1601 0.9640
0.7976 8.6680 -0.1519 0.9658
-2.3922 8.6158 -0.1561 0.9649
-3.5964 8.7071 -0.1644 0.9630
-4.9043 8.7152 -0.1746 0.9608
-13.3959 8.6768 -0.2786 0.9381
-17.8014 8.6849 -0.3457 0.9238
-23.6182 8.1701 -0.4362 0.9049
-85.9056 18.5053 -1.5339 0.7036
-86.0380 -2.5440 -1.5024 0.7087
-71.9709 -10.9087 -1.2706 0.7474
-56.3195 -15.6653 -1.0204 0.7915
-61.5524 -34.6745 -1.2331 0.7538
-13.6706 -21.1270 -0.4392 0.9042
-1.8804 -20.6418 -0.3618 0.9204
26.9385 -36.6116 -0.7934 0.8337
36.7063 -38.9920 -0.9347 0.8072
37.6237 -24.3207 -0.7820 0.8359
50.1238 -24.3975 -0.9730 0.8001
80.3817 2.4504 -1.4037 0.7249
53.0931 8.0971 -0.9375 0.8067
43.8167 18.1687 -0.8280 0.8272
15.2186 8.5915 -0.3050 0.9325
9.1577 8.6287 -0.2196 0.9509
7.1570 8.5968 -0.1953 0.9562
5.5304 8.5641 -0.1779 0.9600
4.2099 8.6592 -0.1681 0.9622
-1.3196 8.6263 -0.1523 0.9657
-2.4092 8.6158 -0.1562 0.9648
-4.9254 8.7153 -0.1747 0.9607
-8.2387 8.7357 -0.2096 0.9531
-10.5196 8.7497 -0.2388 0.9467
-53.3711 11.3947 -0.9526 0.8039
-53.6172 4.8103 -0.9396 0.8062
-78.8315 -2.4755 -1.3767 0.7294
-71.8383 -11.0233 -1.2686 0.7477
9.1911 8.6285 -0.6607 0.9508
7.1620 8.5708 -0.5854 0.9562
5.5218 8.5165 -0.5319 0.9602
3.0024 8.6666 -0.4807 0.9639
1.8726 8.6735 -0.4650 0.9651
0.7976 8.6680 -0.4562 0.9657
-0.2511 8.6252 -0.4522 0.9660
-1.3005 8.6069 -0.4562 0.9657
-2.3806 8.5739 -0.4663 0.9650
-21.2407 7.3476 -1.1779 0.9139
-44.9052 4.1116 -2.3632 0.8348
-45.2214 -1.3371 -2.3710 0.8343
-40.0046 -6.0636 -2.1205 0.8504
-43.1919 -12.0138 -2.3495 0.8356
-34.7727 -32.7043 -2.5017 0.8260
-13.5016 -20.8659 -1.3025 0.9052
-9.5508 -19.5991 -1.1426 0.9164
-6.6909 -19.3709 -1.0740 0.9212
-4.1125 -19.1338 -1.0257 0.9246
-1.8667 -20.4910 -1.0783 0.9209
0.6537 -21.7695 -1.1414 0.9165
12.8131 -45.9840 -2.5017 0.8260
18.2640 -44.1037 -2.5017 0.8260
23.4484 -41.5798 -2.5017 0.8260
26.5695 -36.1101 -2.3495 0.8356
33.1081 -27.5889 -2.2586 0.8415
42.3817 -14.6173 -2.3495 0.8356
46.6746 -10.0096 -2.5017 0.8260
47.5409 -4.3090 -2.5017 0.8260
44.3192 6.7590 -2.3495 0.8356
20.8103 8.6290 -1.1807 0.9137
15.2186 8.5915 -0.9159 0.9324
9.1577 8.6287 -0.6594 0.9509
7.1355 8.5710 -0.5845 0.9563
5.4998 8.5167 -0.5313 0.9602
1.8560 8.6736 -0.4649 0.9651
-0.2669 8.6253 -0.4522 0.9660
-2.3975 8.5740 -0.4666 0.9650
-3.6151 8.7072 -0.4941 0.9629
-8.2387 8.7357 -0.6293 0.9530
-17.7740 8.6313 -1.0355 0.9239
-21.2475 7.3065 -1.1775 0.9139
-44.5234 9.5057 -2.3860 0.8333
-45.2169 -1.4199 -2.3709 0.8343
-43.1699 -12.0929 -2.3495 0.8356
15.2831 8.5911 -1.5339 0.9320
9.1911 8.6285 -1.1029 0.9506
5.4970 8.4783 -0.8840 0.9602
4.2295 8.6590 -0.8431 0.9620
-1.2975 8.5867 -0.7598 0.9657
-2.3698 8.5349 -0.7750 0.9651
-3.5964 8.7071 -0.8242 0.9629
-4.9043 8.7152 -0.8749 0.9606
-6.4070 8.7244 -0.9470 0.9575
-10.4802 8.7494 -1.1944 0.9467
-13.1997 8.5497 -1.3759 0.9388
-26.7433 2.4486 -2.3495 0.8978
-26.8435 -0.7937 -2.3495 0.8978
-28.2140 -4.2764 -2.4966 0.8917
-27.5490 -7.6627 -2.5017 0.8915
-26.4241 -10.9284 -2.5017 0.8915
-23.0398 -16.9362 -2.5017 0.8915
-13.6135 -21.0388 -2.1924 0.9043
-6.7327 -19.4922 -1.8042 0.9205
-1.8711 -20.5395 -1.8044 0.9205
10.9405 -26.4191 -2.5017 0.8915
19.6001 -20.8207 -2.5017 0.8915
21.9675 -18.3055 -2.5017 0.8915
24.0144 -15.5233 -2.5017 0.8915
27.9591 -5.9960 -2.5017 0.8915
28.5816 0.8713 -2.5017 0.8915
26.6191 4.0596 -2.3558 0.8975
11.7163 3.2704 -1.0642 0.9523
15.2186 8.5915 -1.5290 0.9322
9.1577 8.6287 -1.1008 0.9507
5.4744 8.4773 -0.8829 0.9603
0.7816 8.6673 -0.7614 0.9657
-0.2667 8.6180 -0.7543 0.9660
-2.3864 8.5341 -0.7753 0.9650
-3.6151 8.7072 -0.8248 0.9629
-4.9254 8.7153 -0.8758 0.9606
-8.2387 8.7357 -1.0505 0.9529
-10.5196 8.7497 -1.1971 0.9465
-26.8420 -0.8429 -2.3495 0.8978
-27.5349 -7.7132 -2.5017 0.8915
15.2831 8.5911 -2.1527 0.9318
11.7393 8.6129 -1.7877 0.9430
7.0719 8.4630 -1.3542 0.9565
5.4388 8.3885 -1.2275 0.9605
-1.2932 8.5584 -1.0628 0.9657
-2.3605 8.5015 -1.0833 0.9651
-10.4802 8.7494 -1.6763 0.9465
-18.0840 6.2556 -2.3495 0.9258
-18.7063 4.0296 -2.3495 0.9258
-20.1448 -3.0534 -2.5017 0.9212
-18.8282 -7.7869 -2.5017 0.9212
-14.8419 -13.9591 -2.5017 0.9212
-13.0506 -15.6467 -2.5017 0.9212
-10.5200 -16.2580 -2.3777 0.9249
-8.3825 -17.2016 -2.3495 0.9258
-1.7360 -19.0564 -2.3495 0.9258
13.9658 -14.8355 -2.5017 0.9212
19.2615 -6.6432 -2.5017 0.9212
20.2917 -1.8392 -2.5017 0.9212
13.2851 2.0261 -1.6501 0.9473
10.5612 2.9480 -1.3463 0.9568
17.6760 7.3294 -2.3495 0.9258
15.2186 8.5915 -2.1458 0.9320
11.6947 8.6132 -1.7834 0.9431
9.1577 8.6287 -1.5449 0.9506
5.4136 8.3831 -1.2253 0.9606
4.2099 8.6592 -1.1822 0.9619
0.7808 8.6582 -1.0674 0.9656
-0.2664 8.6096 -1.0576 0.9659
-6.4318 8.7246 -1.3309 0.9573
-8.2387 8.7357 -1.4744 0.9528
-13.0387 8.4116 -1.9052 0.9394
-18.0954 6.2225 -2.3495 0.9258
-19.0588 1.7099 -2.3495 0.9258
-20.3649 -0.6395 -2.5017 0.9212
-20.1392 -3.0903 -2.5017 0.9212
-19.6197 -5.4959 -2.5017 0.9212
11.9605 8.7752 -2.3495 0.9417
6.9935 8.3691 -1.7274 0.9568
4.2295 8.6590 -1.5263 0.9617
3.0024 8.6666 -1.4527 0.9635
-0.2486 8.5392 -1.3530 0.9660
-2.3259 8.3767 -1.3769 0.9654
-3.5964 8.7071 -1.4921 0.9626
-6.4070 8.7244 -1.7144 0.9571
-13.3322 6.5045 -2.3495 0.9417
-14.5017 3.1239 -2.3495 0.9417
-15.7884 -0.4668 -2.5017 0.9380
-14.5962 -6.0367 -2.5017 0.9380
-13.7619 -7.7525 -2.5017 0.9380
-11.5059 -10.8215 -2.5017 0.9380
-10.1172 -12.1298 -2.5017 0.9380
-6.9193 -14.1991 -2.5017 0.9380
0.4581 -15.2568 -2.4175 0.9401
4.2397 -15.2156 -2.5017 0.9380
7.7588 -13.7583 -2.5017 0.9380
12.1345 -10.1116 -2.5017 0.9380
14.9321 -5.1500 -2.5017 0.9380
15.4441 -3.3121 -2.5017 0.9380
13.7030 5.6820 -2.3495 0.9417
12.9179 7.2927 -2.3495 0.9417
11.9444 8.7970 -2.3495 0.9417
5.2633 8.1505 -1.5367 0.9615
4.2099 8.6592 -1.5250 0.9618
2.9847 8.6667 -1.4518 0.9636
0.7785 8.6328 -1.3729 0.9655
-1.2982 8.4865 -1.3598 0.9658
-2.3412 8.3726 -1.3770 0.9654
-6.4318 8.7246 -1.7167 0.9571
-8.2387 8.7357 -1.9018 0.9525
-14.0281 4.8239 -2.3495 0.9417
-15.7321 1.4114 -2.5017 0.9380
-15.6125 -2.3957 -2.5017 0.9380
-15.2098 -4.2606 -2.5017 0.9380
10.5366 5.9229 -2.3495 0.9519
9.7456 7.1502 -2.3495 0.9519
1.8725 8.6735 -1.7248 0.9645
0.7947 8.6358 -1.6857 0.9653
-0.2465 8.4684 -1.6468 0.9661
-1.2718 8.4166 -1.6546 0.9659
-2.2811 8.2155 -1.6573 0.9659
-4.9043 8.7152 -1.9439 0.9601
-8.2771 8.8086 -2.3495 0.9519
-9.2788 7.7464 -2.3495 0.9519
-10.1451 6.5711 -2.3495 0.9519
-10.8633 5.3000 -2.3495 0.9519
-12.5584 2.7053 -2.4971 0.9490
-12.8646 -0.3804 -2.5017 0.9489
-12.7249 -1.9287 -2.5017 0.9489
-11.2134 -6.3169 -2.5017 0.9489
-8.2437 -9.8836 -2.5017 0.9489
-6.9919 -10.8055 -2.5017 0.9489
-5.6380 -11.5696 -2.5017 0.9489
-2.7045 -12.5829 -2.5017 0.9489
-1.1676 -12.8172 -2.5017 0.9489
1.9346 -12.7240 -2.5017 0.9489
3.4546 -12.3979 -2.5017 0.9489
7.6276 -10.3665 -2.5017 0.9489
8.8218 -9.3712 -2.5017 0.9489
9.8874 -8.2391 -2.5017 0.9489
11.5722 -5.6327 -2.5017 0.9489
12.8177 -1.1618 -2.5017 0.9489
11.1654 4.6298 -2.3495 0.9519
9.7325 7.1680 -2.3495 0.9519
7.7336 9.2894 -2.3495 0.9519
6.5572 10.1541 -2.3495 0.9519
4.2099 8.6592 -1.8716 0.9615
2.9847 8.6667 -1.7817 0.9633
0.7785 8.6328 -1.6849 0.9653
-1.2874 8.4158 -1.6549 0.9659
-3.6151 8.7072 -1.8326 0.9623
-4.9254 8.7153 -1.9459 0.9600
-6.4318 8.7246 -2.1069 0.9568
-8.2932 8.7935 -2.3495 0.9519
-9.2929 7.7294 -2.3495 0.9519
-12.5650 2.6826 -2.4974 0.9490
-12.8188 1.1500 -2.5017 0.9489
8.2054 6.0201 -2.3495 0.9591
7.4197 6.9655 -2.3495 0.9591
5.5365 8.5392 -2.3495 0.9591
4.2295 8.6590 -2.2248 0.9612
3.0024 8.6666 -2.1175 0.9630
-1.2563 8.3145 -1.9413 0.9661
-2.2374 8.0583 -1.9308 0.9663
-6.0238 8.2026 -2.3495 0.9591
-8.5417 5.5326 -2.3495 0.9591
-10.0509 3.4768 -2.4553 0.9573
-10.7910 0.9880 -2.5017 0.9565
-10.7138 -1.6239 -2.5017 0.9565
-10.4398 -2.9038 -2.5017 0.9565
-10.0136 -4.1414 -2.5017 0.9565
-9.4412 -5.3185 -2.5017 0.9565
-8.7310 -6.4181 -2.5017 0.9565
-2.2771 -10.5942 -2.5017 0.9565
-0.9831 -10.7915 -2.5017 0.9565
0.3252 -10.8313 -2.5017 0.9565
2.9086 -10.4385 -2.5017 0.9565
4.1460 -10.0117 -2.5017 0.9565
5.3229 -9.4387 -2.5017 0.9565
6.4221 -8.7281 -2.5017 0.9565
9.1004 -5.8826 -2.5017 0.9565
9.7433 -4.7425 -2.5017 0.9565
10.2440 -3.5331 -2.5017 0.9565
10.5953 -2.2722 -2.5017 0.9565
10.7123 1.6337 -2.5017 0.9565
10.4372 2.9134 -2.5017 0.9565
10.0048 4.1485 -2.5005 0.9565
8.8622 5.0031 -2.3495 0.9591
8.1943 6.0351 -2.3495 0.9591
6.5114 7.8212 -2.3495 0.9591
5.5209 8.5493 -2.3495 0.9591
4.2099 8.6592 -2.2229 0.9612
2.9847 8.6667 -2.1162 0.9631
-1.2713 8.3106 -1.9410 0.9661
-3.6151 8.7072 -2.1766 0.9620
-6.0389 8.1916 -2.3495 0.9591
-6.9825 7.4037 -2.3495 0.9591
-9.1546 4.4456 -2.3495 0.9591
-10.5973 2.2625 -2.5017 0.9565
-10.7928 0.9683 -2.5017 0.9565
-10.8308 -0.3401 -2.5017 0.9565
-10.7108 -1.6435 -2.5017 0.9565
6.3929 6.0016 -2.3495 0.9643
5.6226 6.7286 -2.3495 0.9643
4.7703 7.3574 -2.3495 0.9643
3.8484 7.8789 -2.3495 0.9643
2.8704 8.2855 -2.3495 0.9643
-2.3459 8.4489 -2.3495 0.9643
-3.3475 8.1044 -2.3495 0.9643
-4.3002 7.6417 -2.3495 0.9643
-6.0045 6.3901 -2.3495 0.9643
-7.9487 3.8780 -2.3698 0.9640
-8.8236 3.0523 -2.5017 0.9621
-9.3325 -0.2759 -2.5017 0.9621
-8.9951 -2.5020 -2.5017 0.9621
-8.6278 -3.5683 -2.5017 0.9621
-7.5228 -5.5299 -2.5017 0.9621
-6.8011 -6.3966 -2.5017 0.9621
-4.0900 -8.3930 -2.5017 0.9621
-1.9619 -9.1281 -2.5017 0.9621
-0.8470 -9.2981 -2.5017 0.9621
0.2802 -9.3324 -2.5017 0.9621
3.5722 -8.6262 -2.5017 0.9621
4.5862 -8.1325 -2.5017 0.9621
5.5333 -7.5202 -2.5017 0.9621
6.3997 -6.7982 -2.5017 0.9621
7.1727 -5.9770 -2.5017 0.9621
7.8410 -5.0685 -2.5017 0.9621
9.1290 -1.9577 -2.5017 0.9621
9.3322 0.2845 -2.5017 0.9621
9.2299 1.4076 -2.5017 0.9621
8.0225 4.5291 -2.4685 0.9626
7.0603 5.1999 -2.3495 0.9643
5.6103 6.7389 -2.3495 0.9643
2.8552 8.2907 -2.3495 0.9643
1.8347 8.5745 -2.3495 0.9643
0.7875 8.7331 -2.3495 0.9643
-0.2712 8.7644 -2.3495 0.9643
-1.3259 8.6677 -2.3495 0.9643
-2.3614 8.4446 -2.3495 0.9643
-5.2032 7.0580 -2.3495 0.9643
-6.0162 6.3791 -2.3495 0.9643
-6.7414 5.6072 -2.3495 0.9643
-8.8291 3.0361 -2.5017 0.9621
-9.2992 0.8343 -2.5017 0.9621
