ply
format ascii 1.0
element vertex 610
property float32 x
property float32 y
property float32 z
property float32 I
end_header
32.8485 27.5247 11.4832 0.8374
32.8950 35.0775 12.8853 0.8194
32.9554 44.8921 14.9221 0.7940
33.5940 59.6097 18.3342 0.7533
-10.4445 30.7774 8.7087 0.8741
-19.0439 23.2008 8.0427 0.8831
-60.5432 -12.0824 16.5424 0.7744
-50.1168 -23.4156 14.8222 0.7953
-19.3184 -32.7113 10.1794 0.8544
-6.4561 -14.7169 4.3061 0.9356
-7.1723 -40.9703 11.1449 0.8418
43.2817 19.1637 12.6832 0.8220
33.7301 54.5588 17.1872 0.7667
-0.9931 5.9064 1.6048 0.9755
-10.4164 35.3388 9.8718 0.8585
-14.1730 24.3711 7.5542 0.8898
-22.2650 23.1069 8.5980 0.8756
-57.1252 -16.2110 15.9111 0.7820
-52.1925 -29.6491 16.0839 0.7799
32.8485 27.5247 9.8941 0.8387
32.8950 35.0775 11.1021 0.8209
-10.3313 49.1680 11.5992 0.8136
-10.4445 30.7774 7.5035 0.8751
-12.6384 26.3509 6.7471 0.8869
-19.0439 23.2008 6.9297 0.8841
-63.0563 -20.6886 15.3212 0.7615
-18.6634 -31.6023 8.4733 0.8601
-13.9141 -31.7176 7.9962 0.8675
-8.4882 -28.0999 6.7769 0.8865
-4.5632 -85.6079 19.7922 0.7033
58.0737 -45.4107 17.0197 0.7389
9.5268 5.6702 2.5595 0.9555
33.8842 33.3182 10.9711 0.8228
33.7301 54.5588 14.8087 0.7685
-10.5295 35.7227 8.5980 0.8582
-14.1730 24.3711 6.5087 0.8907
-17.5131 23.1913 6.7093 0.8875
-25.8411 26.8182 8.5980 0.8582
-65.7142 53.5657 19.5730 0.7061
-20.9152 1.7535 4.8456 0.9174
-56.8832 -42.0578 16.3323 0.7480
33.7208 28.2556 8.5516 0.8359
32.8950 35.0775 9.3475 0.8220
33.9640 46.2659 11.1563 0.7915
1.3384 8.6768 1.7065 0.9649
0.2866 8.6833 1.6888 0.9652
-2.9535 8.7032 1.7865 0.9632
-19.0439 23.2008 5.8345 0.8849
-61.0972 -12.1930 12.1103 0.7758
-19.3184 -32.7113 7.3845 0.8566
-14.7672 -33.6621 7.1452 0.8609
-8.5396 -28.2703 5.7404 0.8866
-4.5910 -86.1294 16.7656 0.7037
33.3323 -42.3284 10.4726 0.8029
48.2916 -48.1270 13.2525 0.7574
58.2548 -45.5525 14.3745 0.7398
73.7767 -44.5846 16.7560 0.7038
94.1590 16.8151 18.5922 0.6772
58.4151 17.8634 11.8738 0.7796
33.3011 19.8204 7.5329 0.8539
33.8398 26.0968 8.3066 0.8402
33.8842 33.3181 9.2371 0.8240
33.9408 42.5106 10.5739 0.8012
1.7004 8.6746 1.7183 0.9646
-0.4046 8.6875 1.6905 0.9652
-2.5646 8.7008 1.7632 0.9637
-3.7506 8.7081 1.8430 0.9621
-53.5086 55.5319 14.9899 0.7303
-58.1632 -16.5056 11.7522 0.7816
-57.6439 -42.6202 13.9349 0.7467
4.8777 8.6550 1.5735 0.9606
3.5929 8.6630 1.4854 0.9627
2.4284 8.6701 1.4261 0.9642
0.2866 8.6833 1.3760 0.9654
-2.9535 8.7032 1.4557 0.9635
-4.1778 8.7107 1.5301 0.9616
-56.8256 54.3823 12.4577 0.7272
-80.1937 46.2710 14.6641 0.6873
-59.4773 -19.5144 9.9144 0.7761
-82.2645 -51.2479 15.3509 0.6754
-57.2467 -46.0272 11.6342 0.7427
-13.8611 -31.5967 5.4648 0.8696
-9.5509 -31.6180 5.2313 0.8748
-5.5394 -31.6426 5.0879 0.8780
-4.4429 -83.3507 13.2202 0.7132
24.6173 -40.4233 7.4962 0.8256
43.8638 -43.7142 9.8083 0.7782
58.4585 -45.7117 11.7535 0.7404
43.2974 19.1706 7.4998 0.8255
33.3011 19.8204 6.1379 0.8548
33.8398 26.0968 6.7684 0.8411
8.7777 8.6311 1.9498 0.9514
6.9003 8.6426 1.7516 0.9562
5.3491 8.6522 1.6111 0.9596
1.7004 8.6746 1.4001 0.9648
0.6393 8.6811 1.3787 0.9654
-0.4046 8.6875 1.3775 0.9654
-3.7506 8.7081 1.5017 0.9623
-6.5891 8.7255 1.7318 0.9567
-52.7691 17.7068 8.8158 0.7982
-82.2302 6.8942 13.0697 0.7159
-80.5366 -33.7244 13.8289 0.7022
10.2894 8.6218 1.6483 0.9473
6.3471 8.6460 1.3169 0.9577
4.8777 8.6550 1.2198 0.9608
-2.9535 8.7032 1.1285 0.9636
-5.5288 8.6778 1.2634 0.9594
-7.1651 8.7291 1.3866 0.9555
-9.1339 8.7412 1.5523 0.9503
-11.6787 8.7568 1.7923 0.9429
-80.4162 46.3993 11.3996 0.6879
-67.9936 -31.7679 9.2148 0.7390
-24.5980 -32.1224 4.9677 0.8495
-19.3184 -32.7113 4.6646 0.8580
-14.7672 -33.6621 4.5134 0.8623
-10.1729 -33.6770 4.3196 0.8678
-5.9001 -33.7032 4.2012 0.8712
25.5875 -80.7395 10.3995 0.7108
42.2682 -42.1241 7.3271 0.7862
54.6274 -42.7160 8.5146 0.7562
62.5364 -19.5839 8.0462 0.7679
65.0541 -12.0688 8.1239 0.7659
65.1999 11.6435 8.1322 0.7657
58.4152 17.8634 7.5003 0.7818
33.3012 19.8204 4.7583 0.8554
8.7777 8.6311 1.5115 0.9516
6.9003 8.6426 1.3579 0.9564
5.3491 8.6522 1.2490 0.9598
2.8111 8.6678 1.1188 0.9639
1.7004 8.6746 1.0854 0.9650
-0.4046 8.6875 1.0678 0.9656
-2.5646 8.7008 1.1138 0.9641
-5.0689 8.7162 1.2380 0.9602
-6.5891 8.7255 1.3425 0.9569
-8.4184 8.7368 1.4897 0.9523
-10.7357 8.7510 1.7006 0.9457
-26.2312 -31.5228 5.0353 0.8477
10.2894 8.6218 1.1745 0.9475
6.3471 8.6460 0.9384 0.9578
4.8777 8.6550 0.8692 0.9609
1.3384 8.6768 0.7681 0.9654
-4.1778 8.7107 0.8452 0.9620
-5.5288 8.6778 0.9002 0.9595
-9.1339 8.7412 1.1061 0.9505
-11.6787 8.7568 1.2771 0.9431
-15.2144 8.7785 1.5368 0.9319
-20.6533 8.8120 1.9645 0.9138
-25.7333 -33.6050 3.7031 0.8437
-13.8611 -31.5967 3.0187 0.8706
-9.5509 -31.6180 2.8897 0.8758
-5.5443 -31.6709 2.8129 0.8789
-4.3439 -81.4931 7.1398 0.7206
22.9581 -50.4644 4.8505 0.8004
32.2968 -41.0134 4.5672 0.8109
41.0344 -40.8944 5.0684 0.7925
58.1918 -35.1663 5.9485 0.7611
58.5931 -26.4150 5.6231 0.7725
62.4828 -19.5672 5.7283 0.7688
62.5318 -11.6009 5.5642 0.7746
62.6250 3.5526 5.4878 0.7774
58.4152 17.8634 5.3443 0.7825
43.2974 19.1706 4.1427 0.8269
11.1729 8.6164 1.2344 0.9449
8.7777 8.6311 1.0770 0.9518
6.9003 8.6426 0.9676 0.9566
5.3491 8.6522 0.8899 0.9600
0.6393 8.6811 0.7616 0.9657
-0.4046 8.6875 0.7609 0.9657
-2.5646 8.7008 0.7936 0.9642
-3.7506 8.7081 0.8295 0.9626
-5.0689 8.7162 0.8821 0.9603
-6.5891 8.7255 0.9566 0.9570
-8.4184 8.7368 1.0615 0.9525
-10.7357 8.7510 1.2118 0.9459
-18.5071 8.7988 1.7928 0.9210
-53.4670 17.9410 4.9341 0.7974
-82.1034 -12.9517 7.2719 0.7162
10.2894 8.6218 0.7035 0.9476
4.8777 8.6550 0.5207 0.9610
2.4242 8.6548 0.4710 0.9646
-2.9518 8.6982 0.4814 0.9639
-7.1651 8.7291 0.5918 0.9558
-9.1339 8.7412 0.6626 0.9506
-11.6787 8.7568 0.7650 0.9432
-20.6533 8.8120 1.1768 0.9140
-18.0537 -30.5698 1.8606 0.8674
-13.5129 -30.8031 1.7628 0.8740
-10.0819 -33.3758 1.8272 0.8697
26.4560 -83.4802 4.5895 0.7041
23.4883 -51.6298 2.9726 0.7968
32.1141 -40.7814 2.7204 0.8123
58.1918 -35.1663 3.5633 0.7616
58.5931 -26.4150 3.3684 0.7730
66.4421 -20.8070 3.6488 0.7566
67.5336 -4.2862 3.5464 0.7626
67.4803 3.8281 3.5422 0.7628
27.8414 8.5139 1.5258 0.8899
32.9967 14.6098 1.8912 0.8654
8.7777 8.6311 0.6452 0.9519
5.3491 8.6522 0.5331 0.9601
1.6977 8.6610 0.4625 0.9653
0.6388 8.6743 0.4558 0.9658
-0.9922 5.9009 0.3136 0.9763
-2.5612 8.6891 0.4747 0.9644
-5.0689 8.7162 0.5284 0.9604
-13.8699 8.7703 0.8600 0.9364
-60.1992 -17.0834 3.2795 0.7783
-26.2587 -31.5559 2.1515 0.8484
10.2894 8.6218 0.2343 0.9477
8.0980 8.6353 0.2066 0.9537
6.3471 8.6460 0.1872 0.9580
-2.9465 8.6826 0.1600 0.9640
-7.1651 8.7291 0.1971 0.9558
-9.1339 8.7412 0.2207 0.9507
-11.6787 8.7568 0.2548 0.9433
-20.6290 8.8016 0.3915 0.9142
-75.0600 -5.7856 1.3141 0.7399
-23.8729 -31.1756 0.6854 0.8546
-19.3184 -32.7114 0.6631 0.8590
-11.2321 -25.6039 0.4880 0.8942
-9.4260 -31.2047 0.5690 0.8777
-3.5461 -66.5271 1.1629 0.7660
29.8447 -94.1729 1.7244 0.6735
39.7757 -87.4313 1.6766 0.6809
32.7170 -25.5831 0.7249 0.8469
45.5095 20.1501 0.8687 0.8195
11.1729 8.6164 0.2463 0.9451
6.9003 8.6426 0.1930 0.9567
3.9954 8.6280 0.1660 0.9627
1.7004 8.6746 0.1543 0.9653
-3.7400 8.6835 0.1650 0.9629
-6.5891 8.7255 0.1909 0.9572
-8.4184 8.7368 0.2118 0.9526
-10.7357 8.7510 0.2418 0.9461
-13.8506 8.7580 0.2860 0.9365
-18.4914 8.7913 0.3574 0.9214
-58.7729 -16.6786 1.0664 0.7832
-25.9317 -31.1629 0.7076 0.8503
10.2894 8.6218 -0.2343 0.9477
2.4050 8.5863 -0.1556 0.9650
0.2866 8.6833 -0.1516 0.9658
-1.8263 8.6916 -0.1550 0.9651
-2.9392 8.6613 -0.1596 0.9641
-7.1651 8.7291 -0.1971 0.9558
-9.1339 8.7412 -0.2207 0.9507
-15.1241 8.7264 -0.3048 0.9325
-51.6428 15.0307 -0.9388 0.8064
-54.9741 9.0509 -0.9725 0.8002
-88.7682 3.8304 -1.5509 0.7009
-74.8410 -5.7688 -1.3102 0.7406
-62.0176 -38.6347 -1.2754 0.7465
-11.8349 -20.0398 -0.4062 0.9111
-8.6071 -19.6202 -0.3740 0.9179
-1.2062 -22.6280 -0.3955 0.9133
30.6677 -38.9447 -0.8652 0.8201
80.0030 -25.0538 -1.4633 0.7151
69.5374 3.9448 -1.2157 0.7568
50.2831 8.9797 -0.8916 0.8152
27.6371 8.4515 -0.5045 0.8908
41.3590 18.3123 -0.7895 0.8345
11.1729 8.6164 -0.2463 0.9451
8.7777 8.6311 -0.2149 0.9519
5.3238 8.6114 -0.1767 0.9603
1.7004 8.6746 -0.1543 0.9653
0.6393 8.6811 -0.1519 0.9658
-0.4046 8.6875 -0.1518 0.9658
-2.5527 8.6602 -0.1576 0.9645
-5.0185 8.6295 -0.1742 0.9609
-6.5891 8.7255 -0.1909 0.9572
-8.4184 8.7368 -0.2118 0.9526
-10.7357 8.7510 -0.2418 0.9461
-88.8579 -3.2365 -1.5520 0.7007
-60.5289 -34.3849 -1.2151 0.7569
-58.5770 -43.3102 -1.2716 0.7472
8.0980 8.6353 -0.6204 0.9537
6.3471 8.6460 -0.5621 0.9579
3.5516 8.5634 -0.4859 0.9635
2.3933 8.5447 -0.4650 0.9651
0.2866 8.6833 -0.4553 0.9658
-0.7584 8.6897 -0.4571 0.9657
-1.8263 8.6916 -0.4655 0.9651
-2.9328 8.6424 -0.4783 0.9641
-5.4689 8.5838 -0.5334 0.9601
-7.1651 8.7291 -0.5918 0.9558
-24.5206 7.1367 -1.3384 0.9028
-44.8073 7.3770 -2.3799 0.8337
-45.1566 1.9485 -2.3688 0.8344
-42.5984 -13.9764 -2.3496 0.8356
-37.2032 -29.9119 -2.5018 0.8260
-15.7861 -20.6151 -1.3608 0.9012
-11.6912 -19.7965 -1.2049 0.9120
-8.3922 -19.1304 -1.0948 0.9197
-6.0472 -20.0189 -1.0960 0.9196
-3.6523 -20.8633 -1.1100 0.9187
-1.1957 -22.4320 -1.1773 0.9140
2.5988 -38.8475 -2.0405 0.8556
8.8678 -46.9059 -2.5018 0.8260
14.4215 -45.5062 -2.5018 0.8260
19.7677 -43.4516 -2.5018 0.8260
32.6126 -25.5015 -2.1696 0.8472
37.2144 -22.4893 -2.2788 0.8402
40.8712 -18.4256 -2.3496 0.8356
46.9359 -8.7075 -2.5018 0.8260
47.6409 -3.0237 -2.5018 0.8260
44.1344 7.8816 -2.3496 0.8356
27.1986 8.3174 -1.4906 0.8923
28.2854 12.5238 -1.6212 0.8835
11.1729 8.6164 -0.7394 0.9451
8.7777 8.6311 -0.6452 0.9519
6.9003 8.6426 -0.5796 0.9567
3.9744 8.5828 -0.4957 0.9628
1.7004 8.6746 -0.4633 0.9652
0.6393 8.6811 -0.4562 0.9657
-0.4046 8.6875 -0.4558 0.9658
-0.9917 5.8976 -0.3134 0.9763
-2.5527 8.6602 -0.4732 0.9645
-6.5891 8.7255 -0.5730 0.9571
-8.4184 8.7368 -0.6358 0.9526
-10.7357 8.7510 -0.7259 0.9460
-13.8473 8.7560 -0.8586 0.9365
-44.5626 9.2048 -2.3847 0.8334
-45.0865 3.7800 -2.3712 0.8342
-41.5070 -23.5790 -2.5018 0.8260
-38.3843 -28.3803 -2.5018 0.8260
-18.2803 -21.9680 -1.4978 0.8918
10.2894 8.6218 -1.1745 0.9475
8.0980 8.6353 -1.0357 0.9536
6.3471 8.6460 -0.9384 0.9578
4.8403 8.5887 -0.8625 0.9612
2.3817 8.5034 -0.7726 0.9652
1.3384 8.6768 -0.7681 0.9654
0.2866 8.6833 -0.7601 0.9657
-1.8263 8.6916 -0.7770 0.9650
-2.9328 8.6424 -0.7985 0.9640
-7.1651 8.7291 -0.9880 0.9557
-9.1339 8.7412 -1.1061 0.9505
-11.6787 8.7568 -1.2771 0.9431
-19.8630 8.4748 -1.8893 0.9169
-24.7322 7.1983 -2.2536 0.9017
-22.7816 3.7507 -2.0200 0.9115
-26.8308 1.1578 -2.3496 0.8978
-27.9042 -2.1508 -2.4485 0.8937
-28.0424 -5.5964 -2.5018 0.8915
-27.1704 -8.9145 -2.5018 0.8915
-25.9072 -12.1044 -2.5018 0.8915
-22.2856 -17.9179 -2.5018 0.8915
-18.7638 -19.2133 -2.3496 0.8978
-11.4590 -19.4032 -1.9715 0.9135
-3.6185 -20.6700 -1.8359 0.9192
-1.1720 -21.9866 -1.9263 0.9154
1.7926 -26.7959 -2.3496 0.8978
8.6388 -27.2593 -2.5018 0.8915
11.8413 -26.0285 -2.5018 0.8915
20.2545 -20.1854 -2.5018 0.8915
22.5262 -17.6144 -2.5018 0.8915
26.0687 -11.7524 -2.5018 0.8915
27.2886 -8.5457 -2.5018 0.8915
28.1156 -5.2160 -2.5018 0.8915
28.5380 -1.8113 -2.5018 0.8915
28.5495 1.6196 -2.5018 0.8915
26.4375 4.7213 -2.3496 0.8978
25.6818 7.8535 -2.3496 0.8978
24.5621 10.8753 -2.3501 0.8978
11.1729 8.6164 -1.2344 0.9449
8.7777 8.6311 -1.0770 0.9518
3.9640 8.5603 -0.8253 0.9628
1.7004 8.6746 -0.7734 0.9651
0.6393 8.6811 -0.7616 0.9657
-0.9915 5.8965 -0.5231 0.9763
-2.5527 8.6602 -0.7899 0.9644
-3.7122 8.6189 -0.8210 0.9630
-4.9758 8.5560 -0.8659 0.9610
-6.5891 8.7255 -0.9566 0.9570
-26.3005 5.4326 -2.3496 0.8978
-26.8380 -0.9776 -2.3496 0.8978
-28.2461 -4.4558 -2.5018 0.8915
-26.3763 -11.0449 -2.5018 0.8915
-24.8636 -14.1244 -2.5018 0.8915
-22.9931 -17.0004 -2.5018 0.8915
-17.1780 -20.6433 -2.3496 0.8978
10.2894 8.6218 -1.6483 0.9473
8.0980 8.6353 -1.4536 0.9534
4.8149 8.5437 -1.2042 0.9612
2.3612 8.4299 -1.0749 0.9653
-5.3684 8.4261 -1.2267 0.9605
-9.1339 8.7412 -1.5523 0.9503
-14.8038 8.5416 -2.0985 0.9334
-18.8816 3.1087 -2.3496 0.9258
-18.4599 -8.6248 -2.5018 0.9212
-17.2941 -10.7736 -2.5018 0.9212
-15.8793 -12.7672 -2.5018 0.9212
-12.1163 -15.8227 -2.4470 0.9228
-7.6874 -17.5237 -2.3496 0.9258
-3.2997 -18.8491 -2.3496 0.9258
-1.0185 -19.1086 -2.3496 0.9258
3.7850 -20.0207 -2.5018 0.9212
10.5978 -17.4023 -2.5018 0.9212
12.6057 -16.0078 -2.5018 0.9212
16.0508 -12.5510 -2.5018 0.9212
17.4384 -10.5383 -2.5018 0.9212
18.5750 -8.3740 -2.5018 0.9212
19.4442 -6.0892 -2.5018 0.9212
20.0335 -3.7166 -2.5018 0.9212
20.3344 -1.2906 -2.5018 0.9212
20.3426 1.1540 -2.5018 0.9212
20.0510 3.5808 -2.5009 0.9212
18.2993 5.5959 -2.3496 0.9258
17.4974 7.7472 -2.3496 0.9258
14.6838 8.7396 -2.0981 0.9335
8.7777 8.6311 -1.5115 0.9516
5.2916 8.5593 -1.2356 0.9603
1.7004 8.6746 -1.0854 0.9650
-2.5471 8.6412 -1.1061 0.9643
-3.6936 8.5757 -1.1465 0.9631
-4.9433 8.5002 -1.2074 0.9611
-6.5891 8.7255 -1.3425 0.9569
-10.7357 8.7510 -1.7006 0.9457
-13.8021 8.7274 -2.0051 0.9363
-17.2820 8.2164 -2.3496 0.9258
-18.1417 6.0875 -2.3496 0.9258
-20.3618 -0.7417 -2.5018 0.9212
-20.1265 -3.1749 -2.5018 0.9212
-18.7941 -7.8700 -2.5018 0.9212
-17.7163 -10.0642 -2.5018 0.9212
-16.3835 -12.1135 -2.5018 0.9212
-14.8148 -13.9884 -2.5018 0.9212
-13.0308 -15.6596 -2.5014 0.9212
10.2894 8.6218 -2.1262 0.9471
8.0980 8.6353 -1.8750 0.9532
4.7682 8.4608 -1.5382 0.9614
4.0242 14.3675 -2.3632 0.9414
-0.7584 8.6897 -1.3815 0.9653
-1.8258 8.6893 -1.4063 0.9647
-2.9001 8.5460 -1.4294 0.9641
-7.1651 8.7291 -1.7887 0.9553
-11.8688 8.8993 -2.3496 0.9417
-12.8492 7.4138 -2.3496 0.9417
-13.6446 5.8216 -2.3496 0.9417
-14.2436 4.1456 -2.3496 0.9417
-15.7809 0.6809 -2.5018 0.9380
-15.7489 -1.2139 -2.5018 0.9380
-14.3106 -6.6862 -2.5018 0.9380
-13.4069 -8.3520 -2.5018 0.9380
-11.0362 -11.3006 -2.5018 0.9380
-9.6033 -12.5410 -2.5018 0.9380
-8.0323 -13.6008 -2.5018 0.9380
-6.3326 -14.4354 -2.4967 0.9382
-4.4386 -14.6939 -2.4312 0.9397
6.5409 -14.3777 -2.5018 0.9380
8.2157 -13.4908 -2.5018 0.9380
9.7723 -12.4098 -2.5018 0.9380
11.1882 -11.1501 -2.5018 0.9380
12.4431 -9.7299 -2.5018 0.9380
14.3999 -6.4918 -2.5018 0.9380
15.0737 -4.7205 -2.5018 0.9380
15.7639 -1.0005 -2.5018 0.9380
15.7702 0.8946 -2.5018 0.9380
15.5496 2.7769 -2.5018 0.9380
12.7476 7.5872 -2.3496 0.9417
11.1699 8.6141 -2.2341 0.9445
5.2492 8.4907 -1.5810 0.9604
2.7010 8.3282 -1.3867 0.9652
-2.5254 8.5678 -1.4147 0.9645
-3.6611 8.5002 -1.4659 0.9632
-4.8678 8.3705 -1.5336 0.9615
-8.4184 8.7368 -1.9216 0.9521
-10.7357 8.7510 -2.1937 0.9455
-12.5383 7.9283 -2.3496 0.9417
-14.0640 4.7192 -2.3496 0.9417
-14.8310 3.0635 -2.3986 0.9405
-15.7404 1.3197 -2.5018 0.9380
-15.7851 -0.5750 -2.5018 0.9380
-15.6026 -2.4613 -2.5018 0.9380
-14.5698 -6.1010 -2.5018 0.9380
-13.7342 -7.8020 -2.5018 0.9380
-11.4849 -10.8442 -2.5018 0.9380
-10.1035 -12.1417 -2.5018 0.9380
9.2649 7.7633 -2.3496 0.9519
8.2685 8.8171 -2.3496 0.9519
6.3471 8.6460 -2.0849 0.9572
4.7309 8.3945 -1.8730 0.9615
3.2650 11.6568 -2.3530 0.9519
-2.8823 8.4933 -1.7434 0.9641
-4.0284 8.3991 -1.8107 0.9628
-5.1539 8.0895 -1.8645 0.9617
-9.6709 7.2513 -2.3496 0.9519
-10.4697 6.0409 -2.3496 0.9519
-11.1179 4.7435 -2.3496 0.9519
-12.3208 3.5860 -2.4943 0.9491
-12.8586 0.5548 -2.5018 0.9489
-12.8325 -0.9891 -2.5018 0.9489
-12.6216 -2.5189 -2.5018 0.9489
-12.2291 -4.0123 -2.5018 0.9489
-11.6606 -5.4481 -2.5018 0.9489
-10.9242 -6.8054 -2.5018 0.9489
-10.0305 -8.0647 -2.5018 0.9489
-7.8250 -10.2186 -2.5018 0.9489
-6.5448 -11.0822 -2.5018 0.9489
-3.7217 -12.3207 -2.5018 0.9489
-0.6851 -12.8523 -2.5018 0.9489
0.8591 -12.8418 -2.5018 0.9489
2.3909 -12.6465 -2.5018 0.9489
6.6943 -10.9925 -2.5018 0.9489
7.9626 -10.1117 -2.5018 0.9489
11.7333 -5.2896 -2.5018 0.9489
12.8499 0.7290 -2.5018 0.9489
12.6701 2.2627 -2.5018 0.9489
5.7556 3.4256 -1.3019 0.9731
8.6189 8.4749 -2.3496 0.9519
6.9003 8.6426 -2.1497 0.9559
3.8695 8.3563 -1.7900 0.9632
2.6402 8.1409 -1.6636 0.9657
-0.4046 8.6875 -1.6905 0.9652
-3.6288 8.4252 -1.7831 0.9633
-4.7711 8.2041 -1.8448 0.9621
-6.5891 8.7255 -2.1253 0.9564
-8.3871 8.7043 -2.3496 0.9519
-9.3692 7.6371 -2.3496 0.9519
-10.2164 6.4601 -2.3496 0.9519
-11.4596 3.8453 -2.3496 0.9519
-12.6044 2.6036 -2.5018 0.9489
-12.8620 -0.4685 -2.5018 0.9489
-12.7133 -2.0055 -2.5018 0.9489
-12.3816 -3.5137 -2.5018 0.9489
7.8006 6.5364 -2.3496 0.9591
6.9617 7.4236 -2.3496 0.9591
6.0225 8.2039 -2.3496 0.9591
1.3384 8.6768 -2.0269 0.9646
0.2866 8.6833 -2.0058 0.9650
-0.7584 8.6897 -2.0138 0.9648
-1.8258 8.6893 -2.0499 0.9642
-2.8823 8.4933 -2.0707 0.9638
-6.4570 7.8664 -2.3496 0.9591
-8.8150 5.0862 -2.3496 0.9591
-9.5522 4.0756 -2.3976 0.9583
-10.6924 1.7604 -2.5018 0.9565
-10.8043 -0.8328 -2.5018 0.9565
-10.2964 -3.3782 -2.5018 0.9565
-8.4452 -6.7901 -2.5018 0.9565
-6.5883 -8.6036 -2.5018 0.9565
-5.5105 -9.3307 -2.5018 0.9565
-4.3533 -9.9235 -2.5018 0.9565
-1.8686 -10.6740 -2.5018 0.9565
0.7233 -10.8122 -2.5018 0.9565
2.0130 -10.6478 -2.5018 0.9565
4.4873 -9.8636 -2.5018 0.9565
6.7042 -8.5136 -2.5018 0.9565
9.8789 -4.4536 -2.5018 0.9565
10.3412 -3.2384 -2.5018 0.9565
10.6546 -1.9766 -2.5018 0.9565
10.8190 0.6137 -2.5018 0.9565
10.6676 1.9050 -2.5018 0.9565
6.7070 2.0510 -1.6192 0.9716
5.3002 3.1546 -1.4240 0.9750
6.3499 7.9532 -2.3496 0.9591
4.2764 9.2350 -2.3496 0.9591
2.5814 7.9594 -1.9318 0.9662
1.7004 8.6746 -2.0408 0.9644
-0.4046 8.6875 -2.0078 0.9649
-0.9907 5.8920 -1.3794 0.9758
-2.5231 8.5600 -2.0603 0.9640
-5.1162 8.7976 -2.3496 0.9591
-6.1330 8.1216 -2.3496 0.9591
-7.0616 7.3286 -2.3496 0.9591
-9.1912 4.3698 -2.3496 0.9591
-10.7040 -1.6885 -2.5018 0.9565
-9.9954 -4.1855 -2.5018 0.9565
-8.7134 -6.4424 -2.5018 0.9565
-7.8791 -7.4396 -2.5018 0.9565
6.7211 5.6318 -2.3496 0.9643
5.9983 6.3962 -2.3496 0.9643
3.3593 8.0998 -2.3496 0.9643
2.3650 8.4438 -2.3496 0.9643
1.3368 8.6663 -2.3496 0.9643
-0.7624 8.7355 -2.3496 0.9643
-2.8179 8.3036 -2.3496 0.9643
-3.7921 7.9064 -2.3496 0.9643
-6.3351 6.0627 -2.3496 0.9643
-7.0156 5.2604 -2.3496 0.9643
-8.5878 3.6641 -2.5018 0.9621
-9.3281 0.4025 -2.5018 0.9621
-8.8715 -2.9107 -2.5018 0.9621
-8.4590 -3.9522 -2.5018 0.9621
-7.2765 -5.8504 -2.5018 0.9621
0.6232 -9.3159 -2.5018 0.9621
2.8207 -8.9005 -2.5018 0.9621
3.8663 -8.4986 -2.5018 0.9621
5.7764 -7.3354 -2.5018 0.9621
7.3551 -5.7513 -2.5018 0.9621
7.9909 -4.8291 -2.5018 0.9621
8.9101 -2.7903 -2.5018 0.9621
9.3218 0.5288 -2.5018 0.9621
6.5348 1.9984 -1.8310 0.9721
5.2900 3.1485 -1.6495 0.9748
5.4711 6.8525 -2.3496 0.9643
4.6111 7.4585 -2.3496 0.9643
3.6846 7.9570 -2.3496 0.9643
1.6867 8.6050 -2.3496 0.9643
-0.9905 5.8908 -1.6006 0.9756
-3.4687 8.0535 -2.3496 0.9643
-6.0843 6.3144 -2.3496 0.9643
-7.4114 4.6864 -2.3496 0.9643
-8.4177 4.0020 -2.4974 0.9621
-9.1437 1.8887 -2.5018 0.9621
-9.3306 -0.3399 -2.5018 0.9621
-9.2227 -1.4549 -2.5018 0.9621
-8.6122 -3.6063 -2.5018 0.9621
-8.1183 -4.6118 -2.5018 0.9621
-7.5075 -5.5509 -2.5018 0.9621
-6.7887 -6.4100 -2.5018 0.9621
