ply
format ascii 1.0
element vertex 727
property float32 x
property float32 y
property float32 z
property float32 I
end_header
-12.3100 27.4940 8.0717 0.8827
-14.9995 24.9195 7.7935 0.8865
-18.1019 23.1949 7.8837 0.8853
-22.6390 22.7229 8.5947 0.8756
-61.1754 -18.9574 17.1609 0.7670
-53.4504 -23.9568 15.6948 0.7846
-20.3051 -33.4832 10.4926 0.8503
-12.7274 -28.1764 8.2843 0.8798
49.8116 -82.6077 25.8473 0.6707
57.0144 -25.7267 16.7602 0.7718
42.6748 19.1674 12.5351 0.8239
31.6181 24.7355 10.7566 0.8468
31.5816 40.2580 13.7103 0.8091
32.6660 53.9619 16.9019 0.7701
-11.7469 37.7497 10.5934 0.8490
-12.3107 27.3800 8.0439 0.8831
-15.0898 24.9806 7.8199 0.8862
-22.7108 22.7233 8.6083 0.8754
-45.0449 -8.2533 12.2707 0.8273
-61.0568 -19.0259 17.1360 0.7673
-20.2652 -33.5362 10.4992 0.8502
-7.4963 -40.9683 11.1597 0.8416
57.0312 -25.6264 16.7532 0.7719
32.5746 19.7296 10.2045 0.8541
31.5167 24.7362 10.7353 0.8471
32.6672 54.1560 16.9466 0.7696
-12.3100 27.4940 6.9547 0.8837
-14.9890 24.9021 6.7102 0.8875
-22.6390 22.7228 7.4053 0.8766
-58.6533 -18.1758 14.1764 0.7772
-57.2670 -25.6674 14.4884 0.7729
-19.1626 -31.5992 8.5319 0.8592
-9.6059 -30.6824 7.4226 0.8764
34.5762 -44.2328 12.9617 0.7942
56.9328 -44.6988 16.7110 0.7429
92.4154 16.8575 21.6878 0.6800
32.6894 19.7289 8.8149 0.8549
32.5338 32.4904 10.6151 0.8280
32.3429 41.2284 12.0977 0.8064
32.6660 53.9619 14.5629 0.7719
-12.3107 27.3801 6.9307 0.8841
-15.0224 24.8690 6.7077 0.8876
-22.7108 22.7233 7.4170 0.8764
-64.7547 -11.8645 15.1987 0.7632
-58.5741 -18.2523 14.1642 0.7774
-13.3836 -29.7537 7.5321 0.8746
24.4248 -40.3625 10.8917 0.8239
56.6301 -34.1899 15.2721 0.7622
92.3156 16.9893 21.6707 0.6802
31.5167 24.7362 9.2497 0.8483
32.5345 32.5933 10.6320 0.8277
32.2779 41.2792 12.0977 0.8064
32.6672 54.1561 14.6014 0.7713
-3.8993 8.7090 1.8548 0.9619
-14.9995 24.9195 5.6537 0.8882
-22.6390 22.7228 6.2349 0.8775
-84.3720 26.4514 17.1873 0.6975
-61.8746 -11.2363 12.2239 0.7739
-58.9248 -18.2600 11.9912 0.7777
-64.5943 -64.4067 17.7309 0.6896
-14.2689 -31.5891 6.7377 0.8683
23.8023 -39.4739 8.9599 0.8288
33.2096 -42.4844 10.4818 0.8027
46.9529 -47.0527 12.9209 0.7627
92.9050 16.9468 18.3569 0.6806
42.6749 19.1674 9.0935 0.8264
32.4903 25.4179 8.0185 0.8453
32.5896 41.5429 10.2634 0.8064
1.5944 8.6752 1.7145 0.9647
0.5294 8.6818 1.6907 0.9652
-1.5896 8.6948 1.7181 0.9646
-3.9158 8.7091 1.8561 0.9618
-18.1609 23.1953 5.7263 0.8869
-84.4154 26.3192 17.1877 0.6975
-61.8730 -11.3365 12.2271 0.7739
-59.0080 -18.3875 12.0140 0.7774
-64.4639 -64.4791 17.7229 0.6897
-14.2094 -31.5895 6.7330 0.8684
-10.4848 -33.6751 6.8557 0.8661
-6.7771 -37.0378 7.3189 0.8578
28.2969 -90.6834 18.4653 0.6790
23.8689 -39.4439 8.9616 0.8287
33.3266 -42.4963 10.4976 0.8025
46.9538 -46.9059 12.9008 0.7630
56.9336 -44.5550 14.0527 0.7448
73.8671 -44.5966 16.7722 0.7036
56.8032 -25.5239 12.1049 0.7759
57.0697 17.8327 11.6222 0.7838
32.4908 25.5007 8.0285 0.8451
32.5345 32.5933 8.9517 0.8289
32.5904 41.6788 10.2843 0.8061
5.2195 8.6529 1.9643 0.9597
-6.8107 8.7269 1.7533 0.9562
-8.7063 8.7385 1.9537 0.9513
-71.6998 -32.1363 12.4446 0.7275
-84.4037 -50.8495 15.6068 0.6709
-58.6452 -45.8051 11.7860 0.7398
-65.1692 -64.9800 14.5760 0.6889
32.9367 -42.1353 8.4705 0.8053
43.6062 -43.6989 9.7777 0.7788
57.2514 -25.8336 9.9481 0.7754
73.5980 13.4250 11.8491 0.7386
32.6894 19.7289 6.0474 0.8567
32.4903 25.4179 6.5336 0.8461
6.7805 8.6433 1.7399 0.9565
5.2380 8.6528 1.6020 0.9599
3.9040 8.6610 1.5047 0.9623
0.5294 8.6818 1.3776 0.9654
-5.2658 8.7174 1.6131 0.9596
-6.8328 8.7269 1.7555 0.9561
-54.6125 17.0272 9.0604 0.7932
-61.9761 -11.3554 9.9795 0.7748
-71.6978 -32.2709 12.4531 0.7273
-26.3170 -33.6014 6.7599 0.8413
19.0843 -42.3560 7.3580 0.8285
43.7522 -43.7076 9.7950 0.7784
56.8032 -25.5239 9.8633 0.7771
73.1884 13.4692 11.7866 0.7398
42.4985 19.1686 7.3841 0.8279
32.4908 25.5007 6.5418 0.8460
8.6164 8.6320 1.9317 0.9518
6.7587 8.6435 1.7378 0.9565
-2.6927 8.7016 1.1184 0.9640
-3.8993 8.7090 1.1716 0.9623
-5.2471 8.7173 1.2493 0.9598
-6.8107 8.7269 1.3592 0.9564
-11.1312 8.7534 1.7387 0.9445
-69.6751 -31.2288 9.3750 0.7351
-24.9969 -31.8128 4.9677 0.8495
-20.3051 -33.4832 4.8081 0.8540
-14.2689 -31.5891 4.2560 0.8696
-10.5428 -33.6747 4.3326 0.8674
-6.7751 -36.7005 4.5824 0.8604
-5.2010 -84.2030 10.3585 0.7118
24.7709 -79.8248 10.2623 0.7140
19.3600 -43.1491 5.8069 0.8265
24.1238 -40.0069 5.7362 0.8284
42.5165 -42.6069 7.3906 0.7846
53.9333 -42.3439 8.4193 0.7586
57.0021 -25.7211 7.6785 0.7772
61.3238 -11.2957 7.6563 0.7778
77.1523 -4.7350 9.4909 0.7323
61.4228 3.6630 7.5552 0.7804
42.6749 19.1675 5.7441 0.8282
32.6894 19.7289 4.6881 0.8574
11.0151 8.6173 1.7172 0.9452
8.6299 8.6184 1.4975 0.9520
5.2380 8.6528 1.2419 0.9601
3.9040 8.6610 1.1665 0.9624
2.7064 8.6684 1.1150 0.9641
1.5944 8.6752 1.0830 0.9651
-3.9158 8.7091 1.1725 0.9622
-5.2658 8.7174 1.2505 0.9598
-6.8328 8.7269 1.3609 0.9563
-8.7339 8.7387 1.5170 0.9514
-11.1676 8.7537 1.7423 0.9444
-24.8912 -31.7809 4.9566 0.8499
-10.4848 -33.6751 4.3306 0.8675
-6.7771 -37.0379 4.6232 0.8592
24.8351 -79.5895 10.2371 0.7146
24.6256 -40.6944 5.8403 0.8256
42.6574 -42.6138 7.4034 0.7843
54.1494 -42.3761 8.4426 0.7580
56.7520 -34.2635 8.1398 0.7655
61.2427 -11.1813 7.6440 0.7781
77.1453 -4.6128 9.4892 0.7324
61.3346 3.7545 7.5450 0.7806
57.0697 17.8326 7.3414 0.7859
6.7587 8.6435 1.3472 0.9567
5.2195 8.6529 1.2408 0.9601
-2.6927 8.7016 0.7969 0.9641
-6.8107 8.7269 0.9685 0.9565
-8.7063 8.7385 1.0792 0.9517
-19.4717 8.8047 1.8696 0.9178
-26.4019 -33.6009 3.7386 0.8423
-20.3051 -33.4832 3.4260 0.8545
-14.2690 -31.5892 3.0326 0.8701
-5.8475 -31.6756 2.8181 0.8787
24.0363 -39.8619 4.0724 0.8295
40.8139 -40.9007 5.0552 0.7929
53.8278 -42.2611 5.9873 0.7597
61.1403 -19.1152 5.6044 0.7732
61.1885 -11.2708 5.4434 0.7789
61.2803 3.6545 5.3709 0.7815
61.3266 11.1866 5.4539 0.7786
11.0151 8.6173 1.2236 0.9454
6.7806 8.6433 0.9611 0.9568
5.2380 8.6528 0.8849 0.9602
3.9040 8.6610 0.8312 0.9626
-1.5896 8.6948 0.7733 0.9651
-3.9158 8.7091 0.8354 0.9624
-5.2658 8.7174 0.8910 0.9599
-11.1676 8.7537 1.2414 0.9446
-14.5073 8.7742 1.4833 0.9342
-19.5547 8.8052 1.8763 0.9175
-26.3170 -33.6014 3.7341 0.8425
-20.2652 -33.5363 3.4281 0.8544
-5.0681 -84.2038 7.3802 0.7127
25.0506 -80.2799 7.3576 0.7134
19.8303 -44.0118 4.2233 0.8238
40.9270 -40.8852 5.0612 0.7927
56.7520 -34.2635 5.7999 0.7663
59.3300 -18.4469 5.4357 0.7792
61.1891 -11.1715 5.4418 0.7790
61.2353 -3.6615 5.3670 0.7817
42.4985 19.1686 4.0788 0.8293
6.7587 8.6435 0.9599 0.9569
-3.8993 8.7090 0.5001 0.9625
-6.8107 8.7269 0.5802 0.9566
-8.7063 8.7385 0.6465 0.9518
-14.4553 8.7739 0.8862 0.9345
-18.5366 -30.5669 1.8735 0.8666
-14.2689 -31.5891 1.8166 0.8704
-6.3378 -34.3320 1.8297 0.8695
40.8661 -40.9529 3.0320 0.7932
57.2514 -25.8336 3.2917 0.7776
66.1861 -4.0620 3.4752 0.7667
49.9037 9.1029 2.6585 0.8161
42.6749 19.1675 2.4517 0.8291
32.6894 19.7289 2.0010 0.8582
11.0151 8.6173 0.7329 0.9455
8.6299 8.6184 0.6392 0.9523
6.7805 8.6433 0.5757 0.9570
5.2380 8.6528 0.5301 0.9603
1.5921 8.6626 0.4616 0.9653
0.5290 8.6752 0.4555 0.9658
-1.5871 8.6812 0.4625 0.9653
-2.7049 8.6924 0.4771 0.9642
-3.9158 8.7091 0.5004 0.9625
-6.8328 8.7269 0.5809 0.9566
-11.1676 8.7537 0.7436 0.9447
-19.5547 8.8052 1.1239 0.9177
-28.4162 8.8597 1.5599 0.8876
-18.4711 -30.5673 1.8717 0.8667
-14.2094 -31.5895 1.8153 0.8705
-10.3910 -33.3739 1.8319 0.8694
-3.7818 -62.8330 3.2989 0.7771
26.6126 -85.2859 4.6822 0.6992
33.0580 -42.1537 2.8075 0.8069
56.8033 -25.5240 3.2637 0.7792
66.1329 4.0483 3.4724 0.7669
27.2585 8.5175 1.4967 0.8919
42.4985 19.1686 2.4433 0.8297
10.9797 8.6175 0.7315 0.9456
6.7587 8.6435 0.5750 0.9570
-2.6927 8.7016 0.1590 0.9642
-6.7816 8.6897 0.1924 0.9569
-11.1312 8.7534 0.2472 0.9449
-14.4553 8.7739 0.2952 0.9346
-19.4576 8.7983 0.3727 0.9181
-24.4932 -31.1717 0.6920 0.8533
-20.6722 -34.0885 0.6959 0.8526
-14.2689 -31.5891 0.6050 0.8705
28.5134 -91.8852 1.6793 0.6805
39.2546 -87.4895 1.6738 0.6814
27.2005 -45.1094 0.9195 0.8100
31.3775 -24.6349 0.6963 0.8525
40.1662 -24.3363 0.8197 0.8287
56.8026 -25.6311 1.0878 0.7793
8.6299 8.6184 0.2129 0.9524
6.7806 8.6433 0.1918 0.9570
2.6969 8.6380 0.1580 0.9644
0.5294 8.6818 0.1518 0.9658
-1.5896 8.6948 0.1543 0.9653
-2.7078 8.7017 0.1591 0.9642
-3.9067 8.6889 0.1663 0.9626
-5.2462 8.6850 0.1771 0.9602
-6.8038 8.6898 0.1926 0.9568
-11.1676 8.7537 0.2477 0.9448
-14.5073 8.7742 0.2959 0.9344
-19.5407 8.7989 0.3741 0.9178
-28.4162 8.8597 0.5196 0.8877
-66.1153 -29.7582 1.2655 0.7482
-20.6729 -34.2109 0.6977 0.8522
-14.2094 -31.5895 0.6046 0.8706
-6.6265 -36.2146 0.6426 0.8630
-4.0026 -66.5006 1.1629 0.7660
28.5165 -91.3872 1.6710 0.6818
37.7865 -83.8641 1.6056 0.6921
31.3365 -31.3045 0.7731 0.8376
31.3780 -24.5557 0.6955 0.8527
79.4467 -24.7016 1.4522 0.7169
46.8933 8.6300 0.8323 0.8263
27.2585 8.5175 0.4985 0.8920
10.9797 8.6175 0.2436 0.9457
8.6164 8.6320 0.2129 0.9524
6.7587 8.6435 0.1915 0.9571
5.2195 8.6529 0.1764 0.9604
-2.6927 8.7016 -0.1590 0.9642
-3.8815 8.6692 -0.1658 0.9627
-5.2143 8.6628 -0.1765 0.9604
-8.7063 8.7385 -0.2153 0.9518
-11.1312 8.7534 -0.2472 0.9449
-14.4553 8.7739 -0.2952 0.9346
-19.4191 8.7809 -0.3720 0.9183
-57.5798 3.5793 -1.0070 0.7939
-74.7054 -4.3961 -1.3062 0.7413
-50.0707 -9.0927 -0.8883 0.8158
-66.6923 -29.8918 -1.2757 0.7465
-63.0756 -38.0001 -1.2853 0.7448
-12.0080 -19.8013 -0.4042 0.9115
-8.7844 -19.4473 -0.3725 0.9182
31.3775 -24.6349 -0.6963 0.8525
40.1662 -24.3363 -0.8197 0.8287
48.9375 8.9267 -0.8683 0.8195
27.3897 8.5112 -0.5006 0.8916
40.8384 18.3425 -0.7814 0.8360
32.6895 19.7289 -0.6665 0.8583
3.8851 8.6189 -0.1650 0.9629
2.6902 8.6166 -0.1576 0.9645
1.5791 8.5918 -0.1525 0.9657
-0.5216 8.6882 -0.1519 0.9658
-1.5896 8.6948 -0.1543 0.9653
-2.7078 8.7017 -0.1591 0.9642
-6.7631 8.6379 -0.1915 0.9571
-8.7339 8.7387 -0.2157 0.9518
-11.1676 8.7537 -0.2477 0.9448
-19.4930 8.7774 -0.3732 0.9180
-90.0789 16.5192 -1.5986 0.6932
-57.7860 3.5009 -1.0105 0.7933
-72.3221 -4.3700 -1.2647 0.7484
-76.1127 -23.7174 -1.3916 0.7269
-66.6038 -29.9781 -1.2749 0.7466
-63.2116 -38.2176 -1.2893 0.7442
-11.8439 -19.6001 -0.3997 0.9125
-6.4230 -20.6293 -0.3771 0.9172
-1.5604 -25.9256 -0.4533 0.9013
38.2560 -84.9061 -1.6255 0.6890
30.5438 -38.9478 -0.8640 0.8204
31.3780 -24.5557 -0.6955 0.8527
56.8033 -25.5240 -1.0870 0.7795
79.6971 -24.7794 -1.4568 0.7161
27.2118 8.5029 -0.4976 0.8922
40.6867 18.3513 -0.7791 0.8365
32.5748 19.7297 -0.6648 0.8587
8.6164 8.6320 -0.2129 0.9524
6.7587 8.6435 -0.1915 0.9571
5.2195 8.6529 -0.1764 0.9604
-3.8815 8.6692 -0.4978 0.9627
-5.2006 8.6400 -0.5285 0.9604
-8.7063 8.7385 -0.6465 0.9518
-11.1312 8.7534 -0.7421 0.9449
-19.3777 8.7622 -1.1145 0.9183
-44.6619 8.2614 -2.3804 0.8337
-44.9219 -2.6435 -2.3583 0.8351
-40.8898 -24.6342 -2.5018 0.8260
-37.6214 -29.3844 -2.5018 0.8260
-31.7476 -31.6555 -2.3496 0.8356
-11.7327 -19.3474 -1.1858 0.9134
-8.6891 -19.2362 -1.1062 0.9189
-6.3253 -20.2037 -1.1095 0.9187
-3.9479 -21.3857 -1.1397 0.9166
-1.5892 -25.7286 -1.3509 0.9019
8.5479 -46.9654 -2.5018 0.8260
14.1480 -45.5922 -2.5018 0.8260
19.5417 -43.5539 -2.5018 0.8260
27.6107 -35.3218 -2.3496 0.8356
31.2317 -31.2981 -2.3172 0.8377
38.3438 -23.2321 -2.3496 0.8356
38.7463 -12.1138 -2.1275 0.8499
47.6473 -2.9242 -2.5018 0.8260
44.1050 8.0452 -2.3496 0.8356
27.2765 8.4761 -1.4969 0.8919
27.8888 12.5262 -1.6022 0.8847
26.5261 16.0091 -1.6237 0.8833
11.0151 8.6173 -0.7329 0.9455
6.7805 8.6433 -0.5757 0.9570
2.6836 8.5953 -0.4719 0.9646
1.5716 8.5511 -0.4556 0.9658
0.5294 8.6818 -0.4558 0.9658
-3.8975 8.6685 -0.4981 0.9626
-5.2185 8.6391 -0.5289 0.9604
-11.1676 8.7537 -0.7436 0.9447
-19.4496 8.7579 -1.1179 0.9181
-45.0782 2.7310 -2.3668 0.8345
-40.9715 -7.5069 -2.1830 0.8463
-43.5308 -19.5930 -2.5018 0.8260
-11.7214 -19.3975 -1.1878 0.9132
-8.6649 -19.2633 -1.1070 0.9189
-6.3117 -20.2720 -1.1127 0.9185
2.8980 -47.6489 -2.5018 0.8260
14.2197 -45.5699 -2.5018 0.8260
19.6101 -43.5231 -2.5018 0.8260
23.2110 -38.3566 -2.3496 0.8356
27.6662 -35.2784 -2.3496 0.8356
31.2323 -31.2004 -2.3136 0.8379
31.2736 -24.4740 -2.0812 0.8529
38.3803 -23.1718 -2.3496 0.8356
40.8941 -18.3753 -2.3496 0.8356
44.0923 8.1145 -2.3496 0.8356
27.7735 12.5270 -1.5968 0.8851
26.5094 16.0560 -1.6243 0.8833
6.7587 8.6435 -0.5750 0.9570
5.2195 8.6529 -0.5296 0.9603
-2.6927 8.7016 -0.7969 0.9641
-3.8815 8.6692 -0.8310 0.9626
-18.2475 8.2511 -1.7521 0.9227
-25.4434 7.9767 -2.3328 0.8985
-26.4077 4.8857 -2.3496 0.8978
-28.3848 -1.6704 -2.4876 0.8921
-28.1354 -5.1093 -2.5018 0.8915
-27.3141 -8.4642 -2.5018 0.8915
-26.0944 -11.6957 -2.5018 0.8915
-24.4939 -14.7565 -2.5018 0.8915
-19.0176 -18.9624 -2.3496 0.8978
-15.6609 -19.9311 -2.2176 0.9032
-3.9167 -21.2170 -1.8876 0.9170
-1.5519 -25.1252 -2.2024 0.9039
1.5232 -25.7117 -2.2534 0.9017
5.1204 -28.1334 -2.5018 0.8915
11.7059 -26.0898 -2.5018 0.8915
14.7661 -24.4881 -2.5018 0.8915
17.6108 -22.5292 -2.5018 0.8915
26.0649 -11.7613 -2.5018 0.8915
27.2927 -8.5329 -2.5018 0.8915
28.5448 1.7023 -2.5018 0.8915
26.4199 4.8193 -2.3496 0.8978
25.6462 7.9695 -2.3496 0.8978
24.5088 11.0081 -2.3506 0.8977
23.1098 13.9473 -2.3615 0.8973
8.6299 8.6184 -1.0670 0.9522
6.7806 8.6433 -0.9611 0.9568
2.6769 8.5740 -0.7858 0.9646
1.5665 8.5232 -0.7582 0.9658
-0.5216 8.6882 -0.7615 0.9657
-1.5896 8.6948 -0.7733 0.9651
-2.7078 8.7017 -0.7973 0.9641
-3.8975 8.6685 -0.8315 0.9626
-5.2047 8.6162 -0.8807 0.9604
-6.6875 8.5414 -0.9491 0.9574
-8.7339 8.7387 -1.0809 0.9516
-11.1676 8.7537 -1.2414 0.9446
-14.5073 8.7742 -1.4833 0.9342
-25.4431 7.9327 -2.3317 0.8985
-24.9136 1.5094 -2.1837 0.9046
-28.1273 -5.1536 -2.5018 0.8915
-22.5084 -17.6374 -2.5018 0.8915
-11.6304 -19.2469 -1.9674 0.9137
-6.2248 -19.9929 -1.8320 0.9194
-3.8853 -21.2337 -1.8885 0.9170
11.7469 -26.0714 -2.5018 0.8915
14.8046 -24.4649 -2.5018 0.8915
17.6462 -22.5015 -2.5018 0.8915
20.2304 -20.2098 -2.5018 0.8915
22.4785 -17.5912 -2.4972 0.8917
24.4800 -14.7796 -2.5018 0.8915
25.6336 8.0098 -2.3496 0.8978
5.2195 8.6529 -0.8841 0.9602
-3.8672 8.6372 -1.1620 0.9626
-6.5713 8.4201 -1.3114 0.9579
-14.4553 8.7739 -2.0762 0.9341
-17.4361 7.8842 -2.3496 0.9258
-18.2595 5.7245 -2.3496 0.9258
-20.3362 1.2641 -2.5018 0.9212
-20.3402 -1.1970 -2.5018 0.9212
-20.0475 -3.6406 -2.5018 0.9212
-19.4624 -6.0311 -2.5018 0.9212
-17.4529 -10.5146 -2.5018 0.9212
-14.4285 -14.3866 -2.5018 0.9212
-9.9225 -16.3623 -2.3496 0.9258
-7.8774 -17.4393 -2.3496 0.9258
-3.4739 -18.8179 -2.3496 0.9258
1.1424 -19.2838 -2.3719 0.9251
3.6485 -20.0461 -2.5018 0.9212
6.0387 -19.4600 -2.5018 0.9212
8.3409 -18.5900 -2.5018 0.9212
18.5722 -8.3804 -2.5018 0.9212
20.0114 3.6503 -2.4976 0.9213
18.2739 5.6785 -2.3496 0.9258
11.0151 8.6173 -1.7172 0.9452
5.2380 8.6528 -1.2419 0.9601
3.8689 8.5830 -1.1560 0.9628
1.5611 8.4938 -1.0604 0.9658
-2.7078 8.7017 -1.1190 0.9639
-3.8831 8.6363 -1.1627 0.9626
-6.5886 8.4150 -1.3123 0.9578
-14.5073 8.7742 -2.0817 0.9340
-18.2685 5.6958 -2.3496 0.9258
-18.8220 3.4517 -2.3496 0.9258
-20.3381 1.2321 -2.5018 0.9212
-20.0418 -3.6721 -2.5018 0.9212
-19.4529 -6.0617 -2.5018 0.9212
-18.5801 -8.3628 -2.5018 0.9212
-17.4363 -10.5420 -2.5018 0.9212
-16.0381 -12.5673 -2.5018 0.9212
-14.4059 -14.4093 -2.5018 0.9212
-9.8968 -16.3779 -2.3496 0.9258
-7.8500 -17.4516 -2.3496 0.9258
-5.6886 -18.2708 -2.3496 0.9258
-3.4443 -18.8233 -2.3496 0.9258
-1.1497 -19.1013 -2.3496 0.9258
3.6800 -20.0404 -2.5018 0.9212
6.0693 -19.4505 -2.5018 0.9212
10.5488 -17.4322 -2.5018 0.9212
12.5736 -16.0332 -2.5018 0.9212
14.4150 -14.4003 -2.5018 0.9212
16.0460 -12.5572 -2.5018 0.9212
17.4429 -10.5310 -2.5018 0.9212
19.4567 -6.0495 -2.5018 0.9212
20.0441 -3.6595 -2.5018 0.9212
17.4436 7.8678 -2.3496 0.9258
10.9797 8.6175 -1.7138 0.9453
8.6164 8.6320 -1.4975 0.9520
-2.6927 8.7016 -1.4427 0.9638
-5.1038 8.4792 -1.5675 0.9607
-11.1200 8.7446 -2.2406 0.9443
-13.5170 6.1121 -2.3496 0.9417
-15.5192 2.8712 -2.4997 0.9381
-15.7684 -0.9279 -2.5018 0.9380
-11.1854 -11.1529 -2.5018 0.9380
-9.7592 -12.4202 -2.5018 0.9380
-8.1905 -13.5062 -2.5018 0.9380
-6.4923 -14.3728 -2.4979 0.9381
-4.6693 -14.9144 -2.4753 0.9387
-0.9738 -15.7656 -2.5018 0.9380
0.9341 -15.7680 -2.5018 0.9380
2.8284 -15.5404 -2.5018 0.9380
4.6814 -15.0860 -2.5018 0.9380
6.4661 -14.4115 -2.5018 0.9380
9.7279 -12.4447 -2.5018 0.9380
13.5094 -8.1852 -2.5018 0.9380
14.3977 -6.4967 -2.5018 0.9380
15.0760 -4.7134 -2.5018 0.9380
15.5343 -2.8614 -2.5018 0.9380
15.5392 2.8345 -2.5018 0.9380
14.2043 4.4139 -2.3559 0.9415
12.7008 7.6653 -2.3496 0.9417
5.2380 8.6528 -1.6020 0.9599
3.8331 8.5037 -1.4774 0.9629
2.6424 8.4634 -1.4043 0.9647
1.5452 8.4075 -1.3539 0.9660
-0.5216 8.6882 -1.3786 0.9654
-1.5896 8.6948 -1.3999 0.9648
-2.7078 8.7017 -1.4434 0.9638
-3.8537 8.5709 -1.4884 0.9627
-5.1213 8.4781 -1.5688 0.9607
-8.7339 8.7387 -1.9568 0.9512
-12.6936 7.6773 -2.3496 0.9417
-15.5260 2.8472 -2.5001 0.9381
-15.7667 0.9552 -2.5018 0.9380
-15.7669 -0.9527 -2.5018 0.9380
-15.5370 -2.8467 -2.5018 0.9380
-15.0805 -4.6992 -2.5018 0.9380
-14.4039 -6.4831 -2.5018 0.9380
-13.5171 -8.1725 -2.5018 0.9380
-9.7396 -12.4355 -2.5018 0.9380
-8.1693 -13.5191 -2.5018 0.9380
-6.4693 -14.3823 -2.4978 0.9381
-2.8360 -15.4992 -2.4956 0.9382
0.9589 -15.7665 -2.5018 0.9380
4.7051 -15.0786 -2.5018 0.9380
6.4888 -14.4013 -2.5018 0.9380
9.7474 -12.4294 -2.5018 0.9380
11.1749 -11.1635 -2.5018 0.9380
12.4393 -9.7347 -2.5018 0.9380
13.5223 -8.1640 -2.5018 0.9380
14.4079 -6.4741 -2.5018 0.9380
15.5388 -2.8370 -2.5018 0.9380
15.7675 -0.9428 -2.5018 0.9380
15.5348 2.8589 -2.5018 0.9380
13.5228 6.0993 -2.3496 0.9417
8.6164 8.6320 -1.9317 0.9518
-5.0561 8.3999 -1.9057 0.9608
-6.3004 8.0731 -1.9906 0.9591
-9.5016 7.4719 -2.3496 0.9519
-10.3331 6.2718 -2.3496 0.9519
-12.8458 0.7985 -2.5018 0.9489
-12.8483 -0.7561 -2.5018 0.9489
-12.6635 -2.2997 -2.5018 0.9489
-10.1433 -7.9225 -2.5018 0.9489
-7.9519 -10.1202 -2.5018 0.9489
-2.3365 -12.6567 -2.5018 0.9489
-0.7935 -12.8461 -2.5018 0.9489
0.7611 -12.8480 -2.5018 0.9489
2.3046 -12.6626 -2.5018 0.9489
3.8145 -12.2923 -2.5018 0.9489
6.6461 -11.0219 -2.5018 0.9489
11.7315 -5.2936 -2.5018 0.9489
12.2842 -3.8406 -2.5018 0.9489
12.2908 3.8193 -2.5018 0.9489
5.1435 2.3102 -1.0960 0.9773
4.5559 3.5642 -1.1244 0.9767
8.5529 8.5415 -2.3496 0.9519
6.7806 8.6433 -2.1354 0.9562
5.2380 8.6528 -1.9661 0.9596
2.6191 8.3889 -1.7083 0.9648
0.5294 8.6818 -1.6907 0.9652
-1.5896 8.6948 -1.7181 0.9646
-2.7078 8.7017 -1.7714 0.9635
-3.8537 8.5709 -1.8267 0.9624
-5.0733 8.3987 -1.9073 0.9608
-6.3168 8.0679 -1.9917 0.9591
-12.6595 2.3216 -2.5018 0.9489
-12.8471 -0.7763 -2.5018 0.9489
-12.6598 -2.3196 -2.5018 0.9489
-12.2878 -3.8290 -2.5018 0.9489
-11.7365 -5.2826 -2.5018 0.9489
-11.0140 -6.6591 -2.5018 0.9489
-10.1308 -7.9384 -2.5018 0.9489
-9.0998 -9.1020 -2.5018 0.9489
-6.6565 -11.0156 -2.5018 0.9489
-5.2798 -11.7378 -2.5018 0.9489
-3.8261 -12.2887 -2.5018 0.9489
-2.3166 -12.6604 -2.5018 0.9489
0.7813 -12.8468 -2.5018 0.9489
3.8338 -12.2863 -2.5018 0.9489
6.6634 -11.0114 -2.5018 0.9489
10.1358 -7.9321 -2.5018 0.9489
11.7398 -5.2752 -2.5018 0.9489
12.2902 -3.8213 -2.5018 0.9489
12.8476 -0.7682 -2.5018 0.9489
12.6580 2.3295 -2.5018 0.9489
12.2848 3.8387 -2.5018 0.9489
5.1271 2.3125 -1.0933 0.9773
4.5553 3.5753 -1.1256 0.9767
8.5395 8.5549 -2.3496 0.9519
5.2195 8.6529 -1.9643 0.9597
-2.6927 8.7016 -2.1029 0.9633
-7.1830 7.2096 -2.3496 0.9591
-7.9999 6.2910 -2.3496 0.9591
-8.7000 5.2806 -2.3496 0.9591
-9.4326 4.2652 -2.3900 0.9584
-10.8156 0.6723 -2.5018 0.9565
-10.6621 -1.9362 -2.5018 0.9565
-9.2821 -5.5921 -2.5018 0.9565
-5.6190 -9.2658 -2.5018 0.9565
-4.4609 -9.8757 -2.5018 0.9565
-3.2377 -10.3415 -2.5018 0.9565
-1.9672 -10.6564 -2.5018 0.9565
-0.6681 -10.8158 -2.5018 0.9565
1.9404 -10.6613 -2.5018 0.9565
3.2116 -10.3496 -2.5018 0.9565
4.4360 -9.8869 -2.5018 0.9565
7.6544 -7.6706 -2.5018 0.9565
8.5234 -6.6918 -2.5018 0.9565
9.2680 -5.6154 -2.5018 0.9565
10.3427 -3.2336 -2.5018 0.9565
10.8172 0.6451 -2.5018 0.9565
10.6605 1.9446 -2.5018 0.9565
4.9651 2.2301 -1.2566 0.9779
4.0774 3.1898 -1.1952 0.9790
6.2816 8.0073 -2.3496 0.9591
5.2703 8.7062 -2.3496 0.9591
3.8243 8.4842 -2.1485 0.9625
1.4810 8.0582 -1.8915 0.9669
0.5294 8.6818 -2.0081 0.9649
-0.5216 8.6882 -2.0094 0.9649
-1.5896 8.6948 -2.0406 0.9644
-2.7078 8.7017 -2.1040 0.9633
-8.7083 5.2669 -2.3496 0.9591
-9.4619 4.2606 -2.3957 0.9583
-10.3453 3.2255 -2.5018 0.9565
-10.8166 0.6553 -2.5018 0.9565
-10.8167 -0.6536 -2.5018 0.9565
-10.6590 -1.9530 -2.5018 0.9565
-10.3458 -3.2238 -2.5018 0.9565
-6.6818 -8.5312 -2.5018 0.9565
-4.4454 -9.8827 -2.5018 0.9565
-3.2214 -10.3465 -2.5018 0.9565
1.9572 -10.6582 -2.5018 0.9565
5.6103 -9.2711 -2.5018 0.9565
8.5339 -6.6784 -2.5018 0.9565
9.2768 -5.6008 -2.5018 0.9565
10.6602 -1.9463 -2.5018 0.9565
10.8171 -0.6468 -2.5018 0.9565
4.2838 2.5946 -1.1563 0.9796
7.1898 7.2029 -2.3496 0.9591
6.2690 8.0172 -2.3496 0.9591
-2.5923 8.3769 -2.3496 0.9643
-3.5833 8.0032 -2.3496 0.9643
-4.5221 7.5128 -2.3496 0.9643
-6.1890 6.2119 -2.3496 0.9643
-6.8928 5.4204 -2.3496 0.9643
-9.1810 1.6986 -2.5018 0.9621
-9.1865 -1.6683 -2.5018 0.9621
-8.9184 -2.7637 -2.5018 0.9621
-8.5201 -3.8188 -2.5018 0.9621
-7.9976 -4.8182 -2.5018 0.9621
-7.3583 -5.7473 -2.5018 0.9621
-5.7686 -7.3416 -2.5018 0.9621
-4.8414 -7.9835 -2.5018 0.9621
-2.7896 -8.9103 -2.5018 0.9621
-0.5756 -9.3190 -2.5018 0.9621
0.5522 -9.3205 -2.5018 0.9621
1.6719 -9.1859 -2.5018 0.9621
2.7672 -8.9173 -2.5018 0.9621
3.8221 -8.5186 -2.5018 0.9621
4.8213 -7.9957 -2.5018 0.9621
7.9854 -4.8383 -2.5018 0.9621
8.5105 -3.8402 -2.5018 0.9621
9.1823 -1.6914 -2.5018 0.9621
9.3193 -0.5720 -2.5018 0.9621
5.4123 6.8992 -2.3496 0.9643
4.5410 7.5014 -2.3496 0.9643
2.6133 8.3703 -2.3496 0.9643
1.5851 8.6243 -2.3496 0.9643
0.5337 8.7525 -2.3496 0.9643
-1.5769 8.6258 -2.3496 0.9643
-3.5959 7.9976 -2.3496 0.9643
-6.1988 6.2021 -2.3496 0.9643
-7.5032 4.5380 -2.3496 0.9643
-8.5135 3.8335 -2.5018 0.9621
-8.9136 2.7791 -2.5018 0.9621
-9.1836 1.6842 -2.5018 0.9621
-9.3197 0.5646 -2.5018 0.9621
-8.5141 -3.8322 -2.5018 0.9621
-6.6013 -6.6029 -2.5018 0.9621
-5.7571 -7.3506 -2.5018 0.9621
-4.8289 -7.9911 -2.5018 0.9621
-3.8302 -8.5150 -2.5018 0.9621
-2.7756 -8.9147 -2.5018 0.9621
-1.6805 -9.1843 -2.5018 0.9621
1.6863 -9.1833 -2.5018 0.9621
2.7812 -8.9130 -2.5018 0.9621
6.6055 -6.5987 -2.5018 0.9621
7.3529 -5.7542 -2.5018 0.9621
7.9930 -4.8257 -2.5018 0.9621
8.9158 -2.7721 -2.5018 0.9621
9.3201 -0.5573 -2.5018 0.9621
9.3193 0.5705 -2.5018 0.9621
9.1826 1.6899 -2.5018 0.9621
6.5206 2.0375 -1.8305 0.9721
4.7640 2.1488 -1.4004 0.9786
4.0141 2.4312 -1.2575 0.9808
3.7704 2.9592 -1.2843 0.9803
6.1949 6.2061 -2.3496 0.9643
5.4014 6.9077 -2.3496 0.9643
