ply
format ascii 1.0
element vertex 684
property float32 x
property float32 y
property float32 z
property float32 I
end_header
-13.6295 26.9274 8.0868 0.8825
-24.8642 22.7365 9.0279 0.8698
-40.2002 -9.1286 11.0458 0.8431
-28.5913 -39.6708 13.1028 0.8167
-18.5516 -33.6389 10.2934 0.8529
-3.7804 -14.0421 3.8965 0.9416
-5.8054 -40.4682 10.9544 0.8443
8.8391 5.7440 2.8246 0.9573
32.4186 34.5539 12.6956 0.8218
31.7145 43.2222 14.3646 0.8009
0.1750 5.7316 1.5365 0.9765
-11.6558 33.9188 9.6101 0.8620
-19.2473 23.2020 8.0776 0.8826
-24.0224 22.7314 8.8617 0.8720
-41.6060 -8.7042 11.3896 0.8386
-29.5415 -39.5489 13.2271 0.8151
-19.3047 -33.6343 10.3912 0.8516
-8.3968 -29.1955 8.1400 0.8818
40.8737 19.1778 12.0977 0.8295
-11.6667 32.1547 7.8970 0.8690
-13.6295 26.9274 6.9677 0.8835
-16.2709 24.3503 6.7612 0.8867
-19.9288 23.2062 7.0620 0.8820
-60.7668 -21.7551 14.9011 0.7672
-52.2533 -26.1689 13.4919 0.7867
-28.5913 -39.6708 11.2895 0.8181
-17.4326 -31.6098 8.3339 0.8623
-12.2997 -30.4854 7.5894 0.8738
-5.8054 -40.4682 9.4385 0.8455
28.1669 -42.9419 11.8563 0.8099
56.8590 -31.6744 15.0263 0.7655
56.3296 19.6261 13.7715 0.7828
32.0768 20.8450 8.8318 0.8547
0.1749 5.7309 1.3237 0.9767
-29.5415 -39.5489 11.3966 0.8166
-12.8310 -30.3018 7.5970 0.8736
-6.5111 -40.4639 9.4620 0.8451
27.3502 -43.2898 11.8218 0.8104
36.2259 -44.4352 13.2358 0.7903
56.8022 -32.9251 15.1576 0.7637
92.3285 18.4947 21.7392 0.6794
32.0720 20.0720 8.7349 0.8561
-3.1582 8.7044 1.7999 0.9630
-4.4060 8.7048 1.8964 0.9610
-58.4916 53.4864 15.4065 0.7240
-80.9336 11.2582 15.8834 0.7168
-59.7906 -13.5771 11.9180 0.7789
-24.1216 -33.4692 8.0193 0.8453
-9.0684 -33.6837 6.7806 0.8675
-5.8054 -40.4682 7.9468 0.8465
27.5168 -41.9508 9.7521 0.8151
36.1117 -42.7835 10.8827 0.7960
47.3377 -44.0343 12.5671 0.7684
56.2092 19.5841 11.5701 0.7846
41.1616 20.1767 8.9106 0.8296
32.1772 20.9102 7.4593 0.8552
32.5159 27.2087 8.2413 0.8413
-15.6743 24.3467 5.6284 0.8887
-19.2473 23.2020 5.8598 0.8844
-53.1897 -25.5123 11.4668 0.7863
-60.9381 -38.8650 14.0492 0.7449
-62.0351 -65.0009 17.4656 0.6934
-30.1787 -40.4020 9.8024 0.8142
-19.3047 -33.6343 7.5382 0.8538
-6.5111 -40.4639 7.9666 0.8462
23.9485 -50.4806 10.8607 0.7964
25.7316 -40.7278 9.3643 0.8218
47.0783 -45.3155 12.7016 0.7662
57.0576 -43.0003 13.8878 0.7474
56.8248 -32.9381 12.7671 0.7652
57.3320 -24.5656 12.1241 0.7756
92.7598 18.5811 18.3889 0.6801
57.1905 18.8381 11.7043 0.7824
-4.4097 8.7121 1.5466 0.9612
-24.2262 -33.6142 6.5626 0.8455
-8.5233 -31.6592 5.1929 0.8757
18.7997 -53.2259 8.9406 0.7956
20.7455 -41.8691 7.4008 0.8276
35.6890 -42.2826 8.7636 0.7992
47.0874 -43.8014 10.1857 0.7707
58.3631 -42.4424 11.4296 0.7466
57.3310 -31.9373 10.3942 0.7666
62.0898 13.5432 10.0653 0.7731
56.2091 19.5841 9.4275 0.7858
41.1617 20.1768 7.2605 0.8306
32.0768 20.8450 6.0590 0.8565
8.1016 8.6352 1.8754 0.9532
6.3441 8.6460 1.6985 0.9575
4.8531 8.6250 1.5675 0.9607
3.5814 8.6630 1.4847 0.9627
2.4137 8.6702 1.4254 0.9642
1.3204 8.6769 1.3901 0.9651
0.1749 5.7300 0.9080 0.9771
-0.7841 8.6898 1.3819 0.9653
-1.8581 8.6965 1.4085 0.9646
-2.9877 8.6942 1.4561 0.9635
-4.2240 8.7110 1.5333 0.9616
-5.6136 8.7195 1.6425 0.9589
-7.2416 8.7295 1.7964 0.9551
-57.1315 54.0611 12.4577 0.7272
-82.3857 23.3145 13.5611 0.7070
-40.8947 -8.5554 6.6173 0.8443
-66.9552 -32.1149 11.7614 0.7403
-62.4983 -65.4862 14.3375 0.6931
-25.1045 -33.6088 6.6442 0.8438
-18.1402 -31.6055 5.7717 0.8628
-13.3924 -31.6276 5.4400 0.8701
-5.0883 -31.6216 5.0728 0.8783
-3.2692 -83.6935 13.2659 0.7123
44.5237 -42.8566 9.7879 0.7786
57.0578 -43.0004 11.3160 0.7488
57.3230 -33.2269 10.4940 0.7647
57.5687 -24.6670 9.9199 0.7760
67.8559 13.5925 10.9608 0.7556
41.9646 19.6896 7.3418 0.8288
-3.1582 8.7044 1.1369 0.9634
-9.5620 8.7438 1.5909 0.9491
-12.2652 8.7604 1.8507 0.9411
-62.3388 -14.1557 7.8491 0.7729
-29.0877 -31.5386 5.2680 0.8412
-23.6557 -32.8227 4.9677 0.8495
-18.5517 -33.6389 4.7168 0.8566
-5.7452 -40.0489 4.9677 0.8495
18.7315 -53.0330 6.9059 0.7972
58.0799 -42.2365 8.8176 0.7487
56.8825 -31.6875 7.9949 0.7692
60.1895 -24.5832 7.9830 0.7695
64.3088 -1.6878 7.8988 0.7716
64.3350 6.0820 7.9346 0.7707
41.1617 20.1768 5.6286 0.8313
32.0768 20.8450 4.6971 0.8571
4.8531 8.6250 1.2152 0.9609
0.1749 5.7299 0.7039 0.9772
-1.8581 8.6965 1.0919 0.9648
-2.9877 8.6942 1.1288 0.9636
-4.2240 8.7110 1.1887 0.9617
-7.2416 8.7295 1.3926 0.9553
-81.6488 46.4011 11.5310 0.6849
-40.9032 -8.5572 5.1310 0.8450
-82.6815 -52.7325 12.0410 0.6735
-24.2122 -32.4143 4.9677 0.8495
-19.3047 -33.6343 4.7617 0.8553
-3.4587 -88.5437 10.8801 0.6997
26.2260 -78.4910 10.1612 0.7164
21.3967 -45.1016 6.1294 0.8178
56.8746 -32.9670 8.0717 0.7673
61.2624 -17.9027 7.8367 0.7732
63.8327 -10.5510 7.9440 0.7705
61.4482 12.3089 7.6948 0.7768
57.1905 18.8381 7.3932 0.7845
41.9646 19.6896 5.6916 0.8296
32.0720 20.0720 4.6456 0.8586
-3.1582 8.7044 0.8101 0.9635
-5.8273 8.7208 0.9176 0.9588
-7.4980 8.7311 1.0069 0.9548
-12.2652 8.7604 1.3187 0.9413
-16.0894 8.7839 1.6038 0.9290
-24.2262 -33.6142 3.6251 0.8467
-8.5233 -31.6592 2.8684 0.8767
19.1973 -86.2431 7.7300 0.7013
18.8571 -53.3885 4.9537 0.7966
20.6335 -41.6430 4.0660 0.8298
57.9695 -42.1562 6.2709 0.7499
61.3167 -9.0633 5.4228 0.7797
61.4549 13.4048 5.5030 0.7768
41.1617 20.1768 4.0106 0.8319
32.1772 20.9102 3.3573 0.8572
8.1016 8.6352 1.0359 0.9536
0.1749 5.7299 0.5015 0.9772
-0.7841 8.6898 0.7634 0.9656
-2.9877 8.6942 0.8043 0.9638
-4.2240 8.7110 0.8470 0.9619
-5.6136 8.7195 0.9073 0.9592
-9.2383 8.7418 1.1127 0.9502
-11.8294 8.7577 1.2877 0.9426
-25.1045 -33.6088 3.6701 0.8450
-7.0139 -24.3872 2.2201 0.9031
-3.4994 -89.5870 7.8438 0.6977
25.8805 -77.4568 7.1449 0.7204
20.2711 -42.7290 4.1377 0.8270
25.0825 -39.7005 4.1085 0.8282
34.3726 -42.1619 4.7592 0.8038
43.8627 -42.2203 5.3264 0.7831
57.5688 -24.6670 5.4795 0.7776
61.2624 -17.9027 5.5839 0.7739
61.3561 -2.6588 5.3730 0.7815
57.7090 4.4637 5.0640 0.7926
61.4482 12.3089 5.4828 0.7775
41.9646 19.6896 4.0555 0.8302
-3.1578 8.7032 0.4852 0.9636
-5.8273 8.7208 0.5497 0.9589
-7.4980 8.7311 0.6032 0.9549
-9.5620 8.7438 0.6791 0.9494
-22.1351 8.8211 1.2488 0.9090
-71.0524 -16.1343 3.8186 0.7469
-22.7343 -31.5442 2.0378 0.8558
-8.9873 -33.3825 1.8118 0.8707
27.5951 -42.0703 2.6368 0.8175
57.3310 -31.9373 3.4393 0.7688
66.3948 -18.1789 3.6077 0.7590
66.3389 -9.8056 3.5144 0.7644
66.2331 6.2615 3.4866 0.7661
24.4952 8.5345 1.3594 0.9013
32.0768 20.8450 2.0049 0.8579
6.3441 8.6460 0.5620 0.9580
3.5814 8.6630 0.4913 0.9631
2.4094 8.6546 0.4708 0.9647
1.3188 8.6665 0.4594 0.9655
-2.9877 8.6942 0.4818 0.9638
-15.4495 8.7800 0.9313 0.9313
-21.0662 8.8145 1.1968 0.9126
-83.3138 -53.1357 5.1787 0.6731
-30.0937 -31.5324 2.2844 0.8398
-13.4546 -31.7746 1.8084 0.8709
-7.0605 -24.5494 1.3387 0.9027
-5.8757 -36.5151 1.9383 0.8623
57.3230 -33.2269 3.4724 0.7669
57.5688 -24.6670 3.2823 0.7781
66.2930 -2.8728 3.4775 0.7666
50.7406 10.1641 2.7120 0.8128
41.9646 19.6896 2.4293 0.8305
32.0720 20.0720 1.9829 0.8594
-3.1556 8.6972 0.1615 0.9637
-4.3996 8.6922 0.1701 0.9618
-5.8015 8.6823 0.1823 0.9591
-9.5620 8.7438 0.2262 0.9495
-12.2652 8.7604 0.2631 0.9415
-16.0711 8.7739 0.3196 0.9294
-22.1173 8.8140 0.4156 0.9091
-58.4391 -13.2701 1.0460 0.7868
-65.0400 -32.5727 1.2697 0.7475
-24.1217 -33.4692 0.7201 0.8479
-19.4878 -35.3363 0.7044 0.8509
-8.4026 -31.2110 0.5642 0.8787
-5.8054 -40.4683 0.7136 0.8491
29.5310 -83.6087 1.5477 0.7014
33.0744 -39.1850 0.8950 0.8145
31.4636 -29.2679 0.7501 0.8421
47.2522 -19.2992 0.8909 0.8153
90.4555 -24.7668 1.6370 0.6872
87.8370 8.3038 1.5400 0.7026
62.0897 13.5432 1.1093 0.7755
32.0768 20.8450 0.6677 0.8581
10.3035 8.6217 0.2345 0.9477
8.1016 8.6352 0.2067 0.9537
6.3441 8.6460 0.1872 0.9580
4.8531 8.6250 0.1727 0.9612
3.5730 8.6428 0.1632 0.9633
2.4021 8.6284 0.1563 0.9648
0.1749 5.7298 0.1001 0.9773
-0.7841 8.6898 0.1523 0.9657
-1.8581 8.6965 0.1552 0.9650
-2.9877 8.6942 0.1605 0.9639
-7.2416 8.7295 0.1980 0.9556
-9.2383 8.7418 0.2220 0.9504
-11.8294 8.7577 0.2569 0.9428
-21.0436 8.8050 0.3982 0.9128
-40.8936 -8.5552 0.7292 0.8461
-23.2896 -31.1791 0.6793 0.8558
32.2274 -24.2875 0.7044 0.8509
42.0044 -24.3476 0.8475 0.8235
47.5760 -20.3853 0.9035 0.8130
84.6373 -24.7335 1.5391 0.7027
25.8500 8.5148 0.4751 0.8968
41.9646 19.6896 0.8091 0.8307
32.0720 20.0720 0.6604 0.8595
-4.3881 8.6695 -0.1696 0.9619
-5.7686 8.6331 -0.1812 0.9593
-7.4980 8.7311 -0.2009 0.9550
-15.9923 8.7309 -0.3180 0.9297
-21.8351 8.7015 -0.4103 0.9103
-30.7795 8.1458 -0.5558 0.8804
-58.8365 -13.3604 -1.0531 0.7855
-76.0888 -27.2405 -1.4107 0.7237
-65.8646 -32.9857 -1.2858 0.7448
-21.5234 -23.3369 -0.5541 0.8807
-14.3383 -19.8948 -0.4281 0.9066
-7.9472 -19.6976 -0.3707 0.9185
-3.1571 -22.0073 -0.3881 0.9149
30.8529 -87.3513 -1.6170 0.6903
26.3865 -53.2539 -1.0374 0.7884
31.4636 -29.2679 -0.7501 0.8421
43.7255 -24.3582 -0.8737 0.8185
47.1276 -12.9035 -0.8529 0.8224
94.6433 8.9473 -1.6594 0.6836
10.3035 8.6217 -0.2345 0.9477
8.1016 8.6352 -0.2067 0.9537
6.3441 8.6460 -0.1872 0.9580
3.5641 8.6211 -0.1628 0.9634
2.3932 8.5965 -0.1558 0.9649
1.3077 8.5936 -0.1517 0.9658
-0.7841 8.6898 -0.1523 0.9657
-1.8581 8.6965 -0.1552 0.9650
-4.2034 8.6684 -0.1682 0.9622
-5.5624 8.6400 -0.1794 0.9597
-9.2383 8.7418 -0.2220 0.9504
-15.3944 8.7487 -0.3091 0.9316
-31.0869 8.7974 -0.5639 0.8788
-40.9212 -8.5609 -0.7297 0.8460
-75.9748 -25.7461 -1.4002 0.7255
-64.7075 -31.0368 -1.2527 0.7504
-24.0414 -25.1908 -0.6078 0.8700
-14.9586 -20.0260 -0.4363 0.9048
-11.2217 -19.5515 -0.3935 0.9138
-8.2789 -19.5514 -0.3706 0.9186
-3.5395 -21.9964 -0.3889 0.9147
-1.0917 -27.9490 -0.4882 0.8941
29.1830 -87.3410 -1.6074 0.6918
37.6061 -79.2690 -1.5314 0.7040
31.7612 -38.9588 -0.8774 0.8178
32.2274 -24.2875 -0.7044 0.8509
48.5387 -20.7979 -0.9217 0.8096
49.0576 9.8269 -0.8733 0.8186
25.6892 8.4618 -0.4721 0.8974
32.0720 20.0720 -0.6604 0.8595
-5.7511 8.6068 -0.5425 0.9594
-7.4980 8.7311 -0.6032 0.9549
-9.5620 8.7438 -0.6791 0.9494
-27.2580 7.2139 -1.4777 0.8932
-44.9159 6.2480 -2.3766 0.8339
-40.5061 -9.1980 -2.1769 0.8467
-42.6829 -21.3760 -2.5018 0.8260
-21.1556 -22.9381 -1.6354 0.8825
-10.5837 -19.1910 -1.1486 0.9160
-5.5240 -20.5185 -1.1136 0.9184
15.8982 -45.0113 -2.5018 0.8260
21.1441 -42.6735 -2.4959 0.8263
24.5891 -37.4874 -2.3496 0.8356
33.2626 -24.1890 -2.1554 0.8481
41.5040 -16.9514 -2.3496 0.8356
46.0418 -12.6063 -2.5018 0.8260
47.2233 -6.9801 -2.5018 0.8260
47.7200 -1.2527 -2.5018 0.8260
47.4016 4.4812 -2.4953 0.8264
43.8024 9.5543 -2.3496 0.8356
26.5545 9.2520 -1.4737 0.8935
26.5728 13.0255 -1.5509 0.8882
4.8531 8.6250 -0.5187 0.9611
2.3873 8.5754 -0.4665 0.9650
1.3015 8.5530 -0.4534 0.9659
-1.8581 8.6965 -0.4660 0.9650
-2.9877 8.6942 -0.4818 0.9638
-4.1937 8.6485 -0.5037 0.9622
-5.5475 8.6168 -0.5371 0.9598
-25.2973 7.1589 -1.3778 0.9000
-44.8325 7.0181 -2.3782 0.8338
-45.1018 1.5691 -2.3651 0.8346
-38.1641 -7.9841 -2.0434 0.8554
-44.0892 -14.9408 -2.4397 0.8299
-43.0414 -20.6447 -2.5018 0.8260
-40.2476 -25.6690 -2.5018 0.8260
-36.8700 -30.3211 -2.5018 0.8260
-14.9144 -19.9668 -1.3061 0.9050
-11.0380 -19.2315 -1.1621 0.9150
-1.0767 -27.5644 -1.4457 0.8954
3.8844 -47.5781 -2.5018 0.8260
9.5756 -46.7662 -2.5018 0.8260
15.1279 -45.2759 -2.5018 0.8260
23.9459 -37.9015 -2.3496 0.8356
28.3285 -34.7481 -2.3496 0.8356
31.3532 -30.1792 -2.2807 0.8400
41.6368 -12.1675 -2.2734 0.8405
47.0974 -7.7848 -2.5018 0.8260
43.9590 8.8056 -2.3496 0.8356
25.2374 8.3130 -1.3925 0.8990
26.7127 12.5335 -1.5464 0.8885
26.6379 16.6711 -1.6469 0.8817
-3.1556 8.6972 -0.8094 0.9635
-5.7354 8.5834 -0.9032 0.9594
-7.4980 8.7311 -1.0069 0.9548
-15.7545 8.6011 -1.5704 0.9305
-21.1160 8.4149 -1.9887 0.9128
-23.8477 3.3173 -2.1065 0.9078
-26.8513 0.4757 -2.3496 0.8978
-28.4443 -2.9341 -2.5018 0.8915
-27.8853 -6.3321 -2.5018 0.8915
-26.9219 -9.6383 -2.5018 0.8915
-25.5681 -12.8047 -2.5018 0.8915
-23.8434 -15.7854 -2.5018 0.8915
-21.7729 -18.5372 -2.5018 0.8915
-18.2072 -19.7413 -2.3496 0.8978
-10.5476 -19.1255 -1.9109 0.9160
-5.4736 -20.3312 -1.8421 0.9189
-0.5902 -26.8491 -2.3496 0.8978
12.6955 -25.6225 -2.5018 0.8915
20.9372 -19.4761 -2.5018 0.8915
24.9806 -13.9160 -2.5018 0.8915
26.4724 -10.8118 -2.5018 0.8915
26.2386 5.7233 -2.3496 0.8978
25.3603 8.8359 -2.3496 0.8978
24.1565 11.8411 -2.3537 0.8976
13.4560 8.7443 -1.4040 0.9376
10.3035 8.6217 -1.1754 0.9475
8.1016 8.6352 -1.0359 0.9536
-0.7841 8.6898 -0.7634 0.9656
-9.2383 8.7418 -1.1127 0.9502
-15.2872 8.6878 -1.5383 0.9318
-25.6956 7.2717 -2.3364 0.8983
-28.4902 -2.4484 -2.5018 0.8915
-27.9893 -5.8555 -2.5018 0.8915
-27.0824 -9.1776 -2.5018 0.8915
-24.1092 -15.3763 -2.5018 0.8915
-22.0860 -18.1630 -2.5018 0.8915
-18.5414 -19.4278 -2.3496 0.8978
-14.6747 -19.6460 -2.1454 0.9062
-8.0899 -19.1052 -1.8152 0.9201
-3.4447 -21.4073 -1.8970 0.9166
2.1853 -26.7665 -2.3496 0.8978
5.7360 -28.0140 -2.5018 0.8915
12.2565 -25.8353 -2.5018 0.8915
18.0686 -22.1633 -2.5018 0.8915
20.6019 -19.8305 -2.5018 0.8915
22.8039 -17.1857 -2.4982 0.8917
24.7396 -14.3401 -2.5018 0.8915
26.3325 5.2748 -2.3496 0.8978
-4.3540 8.6020 -1.1838 0.9619
-5.6924 8.5190 -1.2580 0.9595
-12.2652 8.7604 -1.8507 0.9411
-18.4988 4.8957 -2.3496 0.9258
-18.9531 2.6364 -2.3496 0.9258
-20.2677 -2.0906 -2.5018 0.9212
-16.9893 -11.2478 -2.5018 0.9212
-15.5140 -13.2085 -2.5018 0.9212
-11.1883 -15.5240 -2.3496 0.9258
-4.9746 -18.4777 -2.3496 0.9258
-0.4206 -19.1310 -2.3496 0.9258
2.0009 -20.2436 -2.4977 0.9213
4.4271 -19.8884 -2.5018 0.9212
9.0461 -18.2570 -2.5018 0.9212
11.1752 -17.0371 -2.5018 0.9212
13.1422 -15.5702 -2.5018 0.9212
14.9186 -13.8775 -2.5018 0.9212
16.4786 -11.9835 -2.5018 0.9212
17.7997 -9.9157 -2.5018 0.9212
19.6519 -5.3807 -2.5018 0.9212
20.1562 -2.9793 -2.5018 0.9212
20.3682 -0.5347 -2.5018 0.9212
20.2847 1.9177 -2.5018 0.9212
19.5016 4.2538 -2.4508 0.9227
17.1824 8.4225 -2.3496 0.9258
13.4560 8.7443 -1.9704 0.9374
8.1016 8.6352 -1.4539 0.9534
6.3441 8.6460 -1.3167 0.9577
4.8531 8.6250 -1.2152 0.9609
3.5409 8.5651 -1.1380 0.9633
2.3721 8.5208 -1.0860 0.9650
0.1749 5.7296 -0.7038 0.9772
-0.7841 8.6898 -1.0713 0.9654
-7.2416 8.7295 -1.3926 0.9553
-11.8294 8.7577 -1.8072 0.9424
-15.2872 8.6878 -2.1590 0.9316
-18.9054 2.9594 -2.3496 0.9258
-20.3004 -1.7446 -2.5018 0.9212
-18.3712 -8.8117 -2.5018 0.9212
-15.7371 -12.9419 -2.5018 0.9212
-11.4515 -15.3308 -2.3496 0.9258
-7.4614 -17.6210 -2.3496 0.9258
6.4570 -19.3250 -2.5018 0.9212
8.7333 -18.4087 -2.5018 0.9212
10.8829 -17.2253 -2.5018 0.9212
12.8746 -15.7922 -2.5018 0.9212
14.6796 -14.1300 -2.5018 0.9212
17.6279 -10.2179 -2.5018 0.9212
18.7284 -8.0247 -2.5018 0.9212
19.5572 -5.7152 -2.5018 0.9212
20.1024 -3.3228 -2.5018 0.9212
20.3561 -0.8821 -2.5018 0.9212
19.8244 3.9711 -2.4825 0.9218
13.9652 8.7400 -2.0228 0.9358
-3.1492 8.6796 -1.4624 0.9633
-4.3147 8.5244 -1.5132 0.9620
-5.6378 8.4374 -1.6072 0.9597
-12.0715 8.6221 -2.3496 0.9417
-13.0205 7.1084 -2.3496 0.9417
-14.3408 3.7953 -2.3496 0.9417
-15.4033 -3.4978 -2.5018 0.9380
-14.8712 -5.3240 -2.5018 0.9380
-14.1233 -7.0731 -2.5018 0.9380
-13.1706 -8.7196 -2.5018 0.9380
-10.7088 -11.6111 -2.5018 0.9380
-9.2354 -12.8142 -2.5018 0.9380
-7.6280 -13.8315 -2.5018 0.9380
-5.8936 -14.6075 -2.4948 0.9382
-4.0553 -15.0632 -2.4707 0.9388
-0.3471 -15.7917 -2.5018 0.9380
3.4320 -15.4181 -2.5018 0.9380
8.6633 -13.2077 -2.5018 0.9380
10.1882 -12.0705 -2.5018 0.9380
11.5653 -10.7582 -2.5018 0.9380
12.7747 -9.2900 -2.5018 0.9380
13.7988 -7.6869 -2.5018 0.9380
14.6228 -5.9724 -2.5018 0.9380
15.2347 -4.1713 -2.5018 0.9380
15.7253 1.4866 -2.5018 0.9380
15.4326 3.3662 -2.5018 0.9380
14.0086 4.8808 -2.3496 0.9417
12.4388 8.0833 -2.3496 0.9417
8.1016 8.6352 -1.8754 0.9532
4.8531 8.6250 -1.5675 0.9607
3.5087 8.4871 -1.4546 0.9635
1.2653 8.3146 -1.3321 0.9665
0.1749 5.7296 -0.9079 0.9771
-0.7841 8.6898 -1.3819 0.9653
-1.8581 8.6965 -1.4085 0.9646
-2.9877 8.6942 -1.4561 0.9635
-5.4405 8.4507 -1.5918 0.9601
-6.7375 8.1218 -1.6714 0.9582
-11.9227 8.8268 -2.3496 0.9417
-13.6849 5.7260 -2.3496 0.9417
-15.7859 0.5492 -2.5018 0.9380
-13.3175 -8.4936 -2.5018 0.9380
-12.1999 -10.0329 -2.5018 0.9380
-9.4526 -12.6548 -2.5018 0.9380
-7.8629 -13.6994 -2.5018 0.9380
-0.6165 -15.7834 -2.5018 0.9380
1.2853 -15.7431 -2.5018 0.9380
3.1685 -15.4744 -2.5018 0.9380
9.9808 -12.2426 -2.5018 0.9380
12.6144 -9.5065 -2.5018 0.9380
15.5840 -2.5759 -2.5018 0.9380
15.7807 -0.6839 -2.5018 0.9380
15.7484 1.2181 -2.5018 0.9380
15.4878 3.1024 -2.5018 0.9380
14.0898 4.6411 -2.3496 0.9417
12.5749 7.8699 -2.3496 0.9417
-8.9202 8.1569 -2.3496 0.9519
-9.8361 7.0255 -2.3496 0.9519
-12.8684 0.2280 -2.5018 0.9489
-12.8025 -1.3206 -2.5018 0.9489
-12.1173 -4.3381 -2.5018 0.9489
-11.5079 -5.7633 -2.5018 0.9489
-10.7317 -7.1049 -2.5018 0.9489
-9.7998 -8.3434 -2.5018 0.9489
-7.5252 -10.4413 -2.5018 0.9489
-4.8156 -11.9356 -2.5018 0.9489
-1.8276 -12.7400 -2.5018 0.9489
-0.2829 -12.8673 -2.5018 0.9489
1.2660 -12.8080 -2.5018 0.9489
2.7965 -12.5629 -2.5018 0.9489
4.2864 -12.1357 -2.5018 0.9489
11.2435 -6.2634 -2.5018 0.9489
12.4135 -3.3988 -2.5018 0.9489
12.7321 -1.8819 -2.5018 0.9489
12.8660 -0.3377 -2.5018 0.9489
12.8133 1.2113 -2.5018 0.9489
12.5748 2.7429 -2.5018 0.9489
12.1430 4.2308 -2.4995 0.9490
4.9064 2.4050 -1.0621 0.9780
9.2701 7.7570 -2.3496 0.9519
8.2704 8.8151 -2.3496 0.9519
6.3441 8.6460 -2.0845 0.9572
4.8531 8.6250 -1.9237 0.9605
2.3310 8.3732 -1.6895 0.9652
0.1744 5.7135 -1.1111 0.9770
-1.8581 8.6965 -1.7286 0.9644
-5.3642 8.3321 -1.9262 0.9604
-8.7798 8.3079 -2.3496 0.9519
-9.7148 7.1922 -2.3496 0.9519
-11.1507 4.6656 -2.3496 0.9519
-12.7156 1.9905 -2.5018 0.9489
-12.8627 0.4475 -2.5018 0.9489
-12.8232 -1.1020 -2.5018 0.9489
-12.1896 -4.1308 -2.5018 0.9489
-11.6046 -5.5661 -2.5018 0.9489
-9.9407 -8.1750 -2.5018 0.9489
-8.8859 -9.3107 -2.5018 0.9489
-3.5574 -12.3690 -2.5018 0.9489
-2.0447 -12.7070 -2.5018 0.9489
-0.5024 -12.8606 -2.5018 0.9489
1.0473 -12.8278 -2.5018 0.9489
5.5166 -11.6282 -2.5018 0.9489
8.1325 -9.9755 -2.5018 0.9489
11.1350 -6.4544 -2.5018 0.9489
12.8584 -0.5572 -2.5018 0.9489
12.8321 0.9925 -2.5018 0.9489
12.6197 2.5279 -2.5018 0.9489
12.2243 4.0266 -2.5018 0.9489
4.9777 2.3355 -1.0688 0.9778
-3.1492 8.6796 -2.1317 0.9628
-4.4006 8.6942 -2.2497 0.9608
-5.6542 8.4618 -2.3496 0.9591
-8.2815 5.9151 -2.3496 0.9591
-8.9326 4.8767 -2.3496 0.9591
-10.0461 4.0034 -2.4967 0.9566
-10.7330 1.4930 -2.5018 0.9565
-10.5673 -2.3996 -2.5018 0.9565
-10.2022 -3.6525 -2.5018 0.9565
-9.0356 -5.9820 -2.5018 0.9565
-7.3467 -7.9657 -2.5018 0.9565
-5.2331 -9.4890 -2.5018 0.9565
-4.0545 -10.0492 -2.5018 0.9565
-2.8171 -10.4637 -2.5018 0.9565
-0.2382 -10.8337 -2.5018 0.9565
1.0659 -10.7838 -2.5018 0.9565
2.3545 -10.5774 -2.5018 0.9565
3.6089 -10.2177 -2.5018 0.9565
4.8110 -9.7098 -2.5018 0.9565
10.0318 -4.0973 -2.5018 0.9565
10.4516 -2.8617 -2.5018 0.9565
10.7198 -1.5845 -2.5018 0.9565
10.7882 1.0199 -2.5018 0.9565
10.5874 2.3094 -2.5018 0.9565
6.1119 2.1295 -1.4942 0.9738
4.6326 2.2708 -1.1911 0.9790
4.8531 8.6250 -2.2848 0.9602
2.2818 8.1962 -1.9642 0.9657
1.2133 7.9733 -1.8620 0.9674
-2.9877 8.6942 -2.1224 0.9630
-6.4977 7.8328 -2.3496 0.9591
-8.8481 5.0283 -2.3496 0.9591
-9.9586 4.1669 -2.4923 0.9567
-10.8298 0.3768 -2.5018 0.9565
-10.7965 -0.9278 -2.5018 0.9565
-8.3696 -6.8830 -2.5018 0.9565
-6.4849 -8.6817 -2.5018 0.9565
-5.3942 -9.3983 -2.5018 0.9565
-2.9952 -10.4142 -2.5018 0.9565
-1.7215 -10.6987 -2.5018 0.9565
-0.4230 -10.8281 -2.5018 0.9565
2.1737 -10.6160 -2.5018 0.9565
3.4341 -10.2778 -2.5018 0.9565
7.8072 -7.5149 -2.5018 0.9565
9.9605 -4.2679 -2.5018 0.9565
10.4013 -3.0396 -2.5018 0.9565
10.6912 -1.7672 -2.5018 0.9565
10.8261 -0.4692 -2.5018 0.9565
10.8040 0.8357 -2.5018 0.9565
6.1536 2.0269 -1.4958 0.9738
4.7947 2.2496 -1.2227 0.9785
-2.1289 5.8675 -1.6725 0.9745
-4.8717 7.2908 -2.3496 0.9643
-5.7128 6.6523 -2.3496 0.9643
-6.4711 5.9173 -2.3496 0.9643
-7.1355 5.0965 -2.3496 0.9643
-8.0162 4.3764 -2.4472 0.9629
-8.6733 3.4564 -2.5018 0.9621
-9.2874 -0.9580 -2.5018 0.9621
-9.1049 -2.0675 -2.5018 0.9621
-8.3483 -4.1809 -2.5018 0.9621
-7.7852 -5.1542 -2.5018 0.9621
-0.2052 -9.3344 -2.5018 0.9621
0.9184 -9.2914 -2.5018 0.9621
3.1095 -8.8037 -2.5018 0.9621
4.1452 -8.3660 -2.5018 0.9621
5.1209 -7.8071 -2.5018 0.9621
6.8363 -6.3592 -2.5018 0.9621
8.1565 -4.5437 -2.5018 0.9621
9.2363 -1.3652 -2.5018 0.9621
9.2952 0.8787 -2.5018 0.9621
9.1222 1.9898 -2.5018 0.9621
5.9253 2.0645 -1.6813 0.9744
4.4825 2.1972 -1.3376 0.9795
3.8634 2.5106 -1.2346 0.9811
4.2999 7.6420 -2.3496 0.9643
1.3192 8.6689 -2.3496 0.9643
0.1749 5.7294 -1.5359 0.9765
-0.7880 8.7332 -2.3496 0.9643
-1.8322 8.5751 -2.3496 0.9643
-2.8497 8.2927 -2.3496 0.9643
-3.8259 7.8900 -2.3496 0.9643
-6.3692 6.0269 -2.3496 0.9643
-7.0475 5.2175 -2.3496 0.9643
-9.2244 1.4440 -2.5018 0.9621
-9.3310 0.3246 -2.5018 0.9621
-9.3024 -0.7994 -2.5018 0.9621
-8.8427 -2.9966 -2.5018 0.9621
-7.8720 -5.0206 -2.5018 0.9621
-7.2114 -5.9304 -2.5018 0.9621
-6.4462 -6.7543 -2.5018 0.9621
-5.5874 -7.4803 -2.5018 0.9621
-4.6477 -8.0977 -2.5018 0.9621
-3.6406 -8.5977 -2.5018 0.9621
-2.5807 -8.9729 -2.5018 0.9621
-1.4833 -9.2181 -2.5018 0.9621
-0.3644 -9.3296 -2.5018 0.9621
1.8729 -9.1469 -2.5018 0.9621
2.9589 -8.8554 -2.5018 0.9621
5.8996 -7.2366 -2.5018 0.9621
6.7268 -6.4749 -2.5018 0.9621
7.4563 -5.6193 -2.5018 0.9621
8.5821 -3.6772 -2.5018 0.9621
8.9619 -2.6189 -2.5018 0.9621
9.2117 -1.5226 -2.5018 0.9621
4.6223 2.1687 -1.3681 0.9791
