ply
format ascii 1.0
element vertex 676
property float32 x
property float32 y
property float32 z
property float32 I
end_header
34.5706 35.2391 13.2274 0.8151
34.6312 45.0815 15.2323 0.7902
-11.6364 25.2403 7.4472 0.8913
-23.1354 22.7259 8.6896 0.8743
-59.4123 -11.4122 16.2105 0.7784
-18.7321 -31.5669 9.8355 0.8590
-14.7584 -33.5172 9.8130 0.8593
-8.9147 -29.4434 8.2430 0.8804
-5.1326 -29.3343 7.9795 0.8840
-2.1252 -40.4908 10.8644 0.8454
41.8015 19.1728 12.3226 0.8266
34.5695 35.0555 13.1921 0.8156
34.6297 44.8381 15.1804 0.7909
-8.8107 27.6378 7.7727 0.8868
-13.9038 22.6691 7.1256 0.8957
-59.5509 -11.2786 16.2403 0.7780
-18.8427 -31.5662 9.8504 0.8588
33.6165 -42.0119 12.4221 0.8018
60.0097 -26.2843 15.1250 0.7642
43.6573 20.1614 11.1020 0.8209
34.6312 45.0815 13.1243 0.7919
-8.6821 45.0417 10.5901 0.8284
-8.8900 27.6383 6.7028 0.8876
-11.6364 25.2403 6.4166 0.8922
-61.6934 -11.8504 14.5034 0.7727
-57.8353 -18.5615 14.0231 0.7793
25.6419 -41.6857 11.2989 0.8180
60.0014 -26.4666 15.1402 0.7640
95.1461 18.1481 22.3622 0.6719
43.9529 20.1596 11.1638 0.8200
34.9860 21.4894 9.4791 0.8449
34.5226 27.4405 10.1812 0.8344
34.6297 44.8381 13.0796 0.7925
35.4403 59.5469 15.9981 0.7524
-8.8107 27.6378 6.6971 0.8877
-11.5729 25.2750 6.4178 0.8922
-18.4136 23.1969 6.8376 0.8855
-55.2370 54.5421 17.9216 0.7271
-61.8736 -11.7184 14.5386 0.7722
-18.8427 -31.5662 8.4873 0.8599
-14.0400 -31.6624 7.9963 0.8675
60.1667 -46.1574 14.7403 0.7342
59.7691 -26.1789 12.6835 0.7665
60.0990 19.3741 12.2741 0.7731
43.6573 20.1614 9.3473 0.8221
34.9867 21.6152 7.9939 0.8457
34.5542 27.6123 8.5977 0.8351
5.1199 8.6536 1.9544 0.9599
3.7901 8.6379 1.8336 0.9623
2.6124 8.6690 1.7599 0.9638
0.4444 8.6823 1.6899 0.9652
-0.6061 8.6888 1.6930 0.9651
-1.6761 8.6953 1.7213 0.9646
-2.7991 8.7022 1.7769 0.9634
-13.9852 22.6696 5.1776 0.8971
-18.5125 23.1975 5.7690 0.8861
-64.5663 -29.7158 13.8158 0.7485
-10.1964 -33.6769 6.8396 0.8664
-5.8971 -33.7032 6.6508 0.8699
-2.1252 -40.4908 7.8814 0.8477
33.6383 -42.2636 10.4997 0.8024
50.5268 -49.7617 13.7848 0.7490
60.1354 -46.3819 14.7621 0.7338
59.7679 -26.3636 12.6977 0.7663
95.2902 18.1756 18.8565 0.6735
60.0979 19.2017 12.2636 0.7733
43.9529 20.1596 9.3994 0.8212
34.6257 27.5225 8.5977 0.8351
35.6378 46.1434 11.3330 0.7885
5.1502 8.6534 1.9574 0.9598
3.8100 8.6224 1.8324 0.9623
1.5296 8.6756 1.7124 0.9647
0.4670 8.6822 1.6901 0.9652
-0.5834 8.6886 1.6927 0.9651
-2.7742 8.7021 1.7754 0.9635
-13.9038 22.6691 5.1692 0.8973
-55.2371 54.5421 15.0892 0.7288
-69.8863 -13.2360 13.8260 0.7484
-64.5465 -29.5038 13.7951 0.7489
-54.1038 -42.8903 13.4204 0.7548
42.9152 -42.0464 9.5157 0.7840
60.1576 -46.1503 12.0089 0.7356
59.7654 -35.3082 10.9944 0.7549
69.7843 13.4984 11.2576 0.7499
60.0990 19.3742 10.0011 0.7744
34.9867 21.6152 6.5136 0.8466
35.5285 28.3909 7.2031 0.8318
6.6404 8.6442 1.7264 0.9568
3.7901 8.6379 1.4940 0.9625
1.5064 8.6758 1.3947 0.9650
-2.7991 8.7022 1.4478 0.9637
-11.6363 25.2402 4.4020 0.8935
-5.3783 8.7181 1.6224 0.9594
-55.2388 54.2613 12.2639 0.7308
-78.4891 46.5073 14.4499 0.6911
-61.8346 -11.8775 9.9727 0.7749
-61.9207 -62.9546 13.9858 0.6993
-18.7321 -31.5669 5.8137 0.8619
-9.5836 -31.6527 5.2381 0.8746
-1.6608 -31.6427 5.0186 0.8796
23.9099 -52.0403 9.0707 0.7930
32.7106 -41.0981 8.3194 0.8084
59.7642 -35.5171 11.0111 0.7546
60.2666 -26.5835 10.4327 0.7659
70.7385 13.4926 11.4059 0.7470
60.1981 19.2337 10.0093 0.7742
35.5276 28.2393 7.1880 0.8321
6.6760 8.6440 1.7299 0.9567
2.6370 8.6688 1.4351 0.9640
0.4670 8.6822 1.3771 0.9654
-1.6527 8.6952 1.4018 0.9648
-55.2371 54.5421 12.2949 0.7302
-78.2178 46.6214 14.4222 0.6916
-68.0969 -12.8971 10.9772 0.7553
-62.1264 -62.8363 13.9954 0.6992
56.4538 -43.3090 8.7364 0.7507
59.8190 -26.2008 8.0185 0.7686
64.3248 -19.3391 8.2473 0.7629
66.8318 4.7054 8.2262 0.7634
64.3542 12.4481 8.0482 0.7679
60.0990 19.3742 7.7532 0.7753
43.6574 20.1615 5.9045 0.8238
3.7901 8.6379 1.1582 0.9627
2.6124 8.6690 1.1117 0.9642
1.5064 8.6758 1.0812 0.9651
-0.6061 8.6888 1.0694 0.9655
-1.6761 8.6953 1.0873 0.9649
-2.7991 8.7022 1.1224 0.9638
-11.6363 25.2403 3.4126 0.8940
-5.3783 8.7181 1.2578 0.9596
-8.8972 8.7397 1.5313 0.9510
-11.3816 8.7550 1.7631 0.9438
-66.8202 -30.7531 9.0317 0.7435
-14.7584 -33.5172 4.4967 0.8628
-10.1964 -33.6769 4.3204 0.8678
27.9289 -87.2173 11.2446 0.6914
23.7673 -51.7298 6.9899 0.7950
24.3492 -39.5841 5.7062 0.8292
43.0189 -42.3675 7.4136 0.7840
54.8273 -42.2878 8.5017 0.7565
64.2115 -19.4870 8.2393 0.7631
64.3436 -11.3014 8.0213 0.7685
66.8307 4.5310 8.2246 0.7634
64.3532 12.2747 8.0440 0.7680
60.1981 19.2337 7.7595 0.7752
43.9530 20.1596 5.9373 0.8229
34.9860 21.4894 5.0414 0.8475
10.8427 8.6184 1.7006 0.9457
8.5130 8.6327 1.4887 0.9523
6.6760 8.6440 1.3410 0.9569
5.1502 8.6534 1.2364 0.9602
2.6370 8.6688 1.1126 0.9641
0.4670 8.6822 1.0676 0.9656
-1.6527 8.6952 1.0867 0.9650
-6.9280 8.7276 1.3682 0.9561
-66.9767 -30.6146 9.0421 0.7432
-24.7723 -31.9889 4.9678 0.8495
-18.8427 -31.5663 4.5139 0.8623
64.1591 -19.2893 5.8614 0.7641
43.6574 20.1615 4.2072 0.8244
10.7855 8.6187 1.2079 0.9461
6.6404 8.6442 0.9537 0.9572
2.6124 8.6690 0.7921 0.9643
1.5064 8.6758 0.7704 0.9653
0.4444 8.6823 0.7606 0.9657
-1.6761 8.6953 0.7747 0.9651
-2.7991 8.7022 0.7998 0.9640
-11.6363 25.2402 2.4316 0.8944
-5.3783 8.7181 0.8962 0.9597
-8.8972 8.7397 1.0911 0.9512
-14.8111 8.7761 1.5062 0.9332
-5.5426 -31.6775 2.8135 0.8789
23.1792 -50.4497 4.8574 0.8002
25.3778 -41.2564 4.2377 0.8233
54.8271 -42.2877 6.0578 0.7573
64.1580 -19.4707 5.8659 0.7640
64.2084 -11.2776 5.7035 0.7697
64.3045 4.3597 5.6388 0.7720
13.9996 8.5990 1.4374 0.9362
10.8427 8.6184 1.2118 0.9459
6.6760 8.6440 0.9555 0.9571
2.6370 8.6688 0.7927 0.9643
0.4670 8.6822 0.7607 0.9657
-0.5834 8.6886 0.7619 0.9656
-1.6527 8.6952 0.7743 0.9651
-11.5729 25.2750 2.4321 0.8944
-5.3470 8.7179 0.8947 0.9598
-6.9280 8.7276 0.9749 0.9562
-8.8508 8.7394 1.0882 0.9513
-11.3202 8.7546 1.2520 0.9442
-14.7229 8.7755 1.4995 0.9335
-18.8427 -31.5663 3.2163 0.8628
-14.0113 -31.5977 3.0240 0.8704
32.7378 -40.9137 2.7461 0.8107
55.1248 -42.2894 3.6412 0.7571
59.7655 -35.3082 3.6379 0.7573
69.1488 4.8686 3.6329 0.7576
34.6343 11.1651 1.9071 0.8644
43.6574 20.1615 2.5202 0.8248
8.4692 8.6330 0.6338 0.9527
5.1199 8.6536 0.5269 0.9605
1.5044 8.6640 0.4609 0.9654
-0.6056 8.6817 0.4561 0.9657
-2.7966 8.6944 0.4786 0.9641
-5.3783 8.7181 0.5368 0.9598
-34.0592 1.7654 1.7874 0.8723
-24.2885 -31.5329 2.0860 0.8526
-13.4730 -30.5979 1.7521 0.8747
-1.9386 -36.9349 1.9383 0.8623
26.9128 -84.0442 4.6249 0.7022
32.6627 -41.0378 2.7488 0.8105
42.3096 -41.6689 3.1122 0.7883
59.7642 -35.5171 3.6435 0.7569
69.2049 -3.6773 3.6320 0.7576
69.1500 4.6882 3.6323 0.7576
68.3922 13.0450 3.6489 0.7566
26.7606 8.5502 1.4723 0.8936
13.9996 8.5990 0.8610 0.9363
10.8427 8.6184 0.7259 0.9460
8.5130 8.6327 0.6354 0.9526
6.6760 8.6440 0.5724 0.9572
5.1502 8.6534 0.5277 0.9605
2.6332 8.6566 0.4742 0.9644
0.4666 8.6759 0.4553 0.9658
-2.7715 8.6938 0.4782 0.9641
-11.5729 25.2750 1.4569 0.8946
-5.3470 8.7179 0.5360 0.9599
-6.9280 8.7276 0.5840 0.9563
-8.8508 8.7394 0.6519 0.9514
-11.3202 8.7546 0.7500 0.9443
-14.7229 8.7755 0.8983 0.9337
-35.1262 1.9122 1.8436 0.8686
-24.4185 -31.5321 2.0901 0.8524
-13.5677 -30.5974 1.7541 0.8745
31.3341 -39.1595 0.8754 0.8182
34.3420 -33.6467 0.8392 0.8250
34.3866 -26.3800 0.7565 0.8408
41.2043 -24.3427 0.8354 0.8258
82.2178 -24.7186 1.4986 0.7093
60.0990 19.3742 1.1022 0.7768
10.7855 8.6187 0.2410 0.9463
2.6124 8.6690 0.1580 0.9644
1.5064 8.6758 0.1537 0.9654
-0.6046 8.6677 0.1517 0.9658
-1.6721 8.6744 0.1542 0.9653
-6.9652 8.7278 0.1949 0.9563
-8.8972 8.7397 0.2177 0.9513
-11.3816 8.7550 0.2506 0.9442
-24.0126 -31.1747 0.6869 0.8543
-18.7321 -31.5670 0.6407 0.8634
-9.4479 -31.2046 0.5691 0.8777
40.1997 -87.4951 1.6807 0.6803
40.9586 -24.3412 0.8317 0.8265
55.3840 -24.4298 1.0566 0.7849
50.7990 9.6894 0.9027 0.8131
43.9530 20.1596 0.8440 0.8241
10.8427 8.6184 0.2418 0.9461
6.6618 8.6256 0.1902 0.9573
5.1268 8.6141 0.1750 0.9607
3.8100 8.6224 0.1645 0.9630
2.6370 8.6688 0.1582 0.9644
1.5296 8.6756 0.1538 0.9654
-5.3470 8.7179 0.1785 0.9599
-8.8508 8.7394 0.2171 0.9515
-11.3202 8.7546 0.2498 0.9444
-14.6843 8.7525 0.2984 0.9339
-19.8830 8.8012 0.3795 0.9167
-57.5881 -18.3174 1.0548 0.7852
-64.4585 -29.4636 1.2371 0.7531
-18.8427 -31.5663 0.6417 0.8632
31.1616 -38.9440 -0.8706 0.8191
41.2043 -24.3427 -0.8354 0.8258
82.7483 -24.8781 -1.5082 0.7077
60.0990 19.3742 -1.1022 0.7768
40.5547 18.7286 -0.7797 0.8363
13.9193 8.5995 -0.2856 0.9366
8.4692 8.6330 -0.2111 0.9528
6.6069 8.6006 -0.1893 0.9575
3.7901 8.6379 -0.1646 0.9630
2.6124 8.6690 -0.1580 0.9644
-1.6681 8.6538 -0.1538 0.9654
-2.7721 8.6181 -0.1580 0.9644
-11.7688 25.5275 -0.4907 0.8936
-5.3783 8.7181 -0.1788 0.9598
-11.3816 8.7550 -0.2506 0.9442
-20.0391 8.8082 -0.3821 0.9162
-34.0783 1.7664 -0.5955 0.8724
-64.0481 -29.4773 -1.2307 0.7542
-73.2227 -45.1066 -1.5011 0.7089
-62.2299 -49.5958 -1.3890 0.7273
-17.6480 -22.9119 -0.5048 0.8907
-8.6603 -19.6682 -0.3751 0.9176
-10.1528 -33.5327 -0.6116 0.8692
-3.6196 -20.6871 -0.3666 0.9194
30.1260 -94.0783 -1.7243 0.6735
40.2013 -87.4987 -1.6808 0.6803
30.9263 -38.8562 -0.8668 0.8198
40.9586 -24.3412 -0.8317 0.8265
55.3840 -24.4298 -1.0566 0.7849
98.3127 6.6654 -1.7200 0.6742
26.7606 8.5502 -0.4904 0.8937
40.5619 18.6043 -0.7789 0.8365
13.9996 8.5990 -0.2868 0.9364
8.5130 8.6327 -0.2116 0.9527
6.6423 8.6003 -0.1897 0.9575
5.0994 8.5680 -0.1740 0.9609
3.8100 8.6224 -0.1645 0.9630
2.6370 8.6688 -0.1582 0.9644
-11.7135 25.5821 -0.4911 0.8935
-5.3470 8.7179 -0.1785 0.9599
-6.9280 8.7276 -0.1945 0.9564
-11.3202 8.7546 -0.2498 0.9444
-14.5648 8.6813 -0.2960 0.9344
-19.6368 8.6923 -0.3748 0.9177
-26.7616 8.1596 -0.4884 0.8941
-58.1400 -18.4929 -1.0649 0.7834
-59.8620 -36.6621 -1.2253 0.7552
-62.0152 -49.1619 -1.3813 0.7286
-8.7606 -19.7566 -0.3772 0.9172
34.2822 -26.2999 -2.2644 0.8411
41.3404 -12.4289 -2.2624 0.8412
47.0370 -8.1358 -2.5017 0.8260
44.0154 8.5140 -2.3495 0.8356
29.4888 9.5063 -1.6238 0.8833
6.5926 8.5820 -0.5672 0.9576
3.7901 8.6379 -0.4944 0.9629
2.6124 8.6690 -0.4745 0.9644
0.4444 8.6823 -0.4556 0.9658
-0.6043 8.6628 -0.4551 0.9658
-1.6641 8.6333 -0.4608 0.9654
-11.7688 25.5275 -1.4732 0.8935
-5.3783 8.7181 -0.5368 0.9598
-14.5829 8.6409 -0.8883 0.9344
-44.7592 7.8016 -2.3811 0.8336
-34.0783 1.7664 -1.7884 0.8722
-45.0521 -3.1132 -2.3667 0.8345
-38.1400 -7.3262 -2.0354 0.8559
-42.6868 -13.6998 -2.3495 0.8356
-40.6428 -25.0367 -2.5017 0.8260
-37.3301 -29.7513 -2.5017 0.8260
-17.2456 -22.3894 -1.4811 0.8930
-8.5088 -19.3241 -1.1066 0.9189
-5.7862 -19.1107 -1.0464 0.9231
-3.5189 -20.1113 -1.0700 0.9215
-1.1186 -21.3131 -1.1185 0.9181
1.8871 -27.5687 -1.4482 0.8952
8.9742 -46.8843 -2.5017 0.8260
27.9184 -35.0771 -2.3495 0.8356
31.9414 -31.4578 -2.3495 0.8356
37.3892 -22.2199 -2.2794 0.8401
41.0181 -18.0930 -2.3495 0.8356
13.9996 8.5990 -0.8610 0.9363
10.8427 8.6184 -0.7259 0.9460
6.6295 8.5838 -0.5684 0.9575
5.0852 8.5441 -0.5211 0.9610
3.8100 8.6224 -0.4940 0.9629
1.5296 8.6756 -0.4617 0.9653
-0.5817 8.6638 -0.4551 0.9658
-11.7135 25.5821 -1.4746 0.8934
-6.9280 8.7276 -0.5840 0.9563
-8.8508 8.7394 -0.6519 0.9514
-11.3202 8.7546 -0.7500 0.9443
-14.5037 8.6449 -0.8849 0.9346
-19.4174 8.5952 -1.1129 0.9185
-45.0605 -2.9963 -2.3667 0.8345
-43.4150 -19.8447 -2.5017 0.8260
-40.7077 -24.9311 -2.5017 0.8260
-37.4072 -29.6542 -2.5017 0.8260
-33.5618 -33.9453 -2.5017 0.8260
-17.4871 -22.5815 -1.4968 0.8919
-11.8420 -19.8383 -1.2108 0.9116
20.4252 -20.0117 -2.5017 0.8915
22.6875 -17.4049 -2.5017 0.8915
28.1763 -4.8735 -2.5017 0.8915
28.5582 -1.4431 -2.5017 0.8915
28.5240 2.0083 -2.5017 0.8915
25.5597 8.2397 -2.3495 0.8978
13.9193 8.5995 -1.4314 0.9364
10.7855 8.6187 -1.2079 0.9461
8.4692 8.6330 -1.0581 0.9526
6.5926 8.5820 -0.9468 0.9575
5.0403 8.5189 -0.8660 0.9610
3.7901 8.6379 -0.8253 0.9628
2.6124 8.6690 -0.7921 0.9643
1.5064 8.6758 -0.7704 0.9653
0.4444 8.6823 -0.7606 0.9657
-1.6603 8.6132 -0.7674 0.9654
-2.7587 8.5767 -0.7882 0.9645
-6.9652 8.7278 -0.9769 0.9562
-8.8972 8.7397 -1.0911 0.9512
-11.3816 8.7550 -1.2563 0.9440
-18.9232 8.3177 -1.8084 0.9204
-23.8117 7.1927 -2.1762 0.9049
-21.0826 3.6747 -1.8723 0.9177
-25.9756 -11.9549 -2.5017 0.8915
-22.3616 -17.8217 -2.5017 0.8915
-11.6605 -19.6501 -1.9991 0.9123
-8.4755 -19.2484 -1.8400 0.9190
-5.7859 -19.1098 -1.7468 0.9230
-3.5449 -20.2598 -1.7994 0.9207
-1.1087 -21.1233 -1.8506 0.9186
1.7938 -26.2065 -2.2981 0.8999
5.0487 -26.3761 -2.3495 0.8978
8.7204 -27.2325 -2.5017 0.8915
22.6422 -17.4637 -2.5017 0.8915
24.5814 -14.6084 -2.5017 0.8915
28.5544 -1.5173 -2.5017 0.8915
26.3794 5.0316 -2.3495 0.8978
25.5810 8.1733 -2.3495 0.8978
24.4287 11.2046 -2.3513 0.8977
6.6295 8.5838 -0.9489 0.9574
2.6370 8.6688 -0.7927 0.9643
0.4670 8.6822 -0.7607 0.9657
-1.6373 8.6143 -0.7671 0.9654
-10.0942 22.0456 -2.1213 0.9072
-5.3470 8.7179 -0.8947 0.9598
-6.9280 8.7276 -0.9749 0.9562
-11.3202 8.7546 -1.2520 0.9442
-22.4078 -17.7636 -2.5017 0.8915
-11.7352 -19.6595 -2.0031 0.9122
12.7296 -15.9087 -2.5017 0.9212
14.5537 -14.2591 -2.5017 0.9212
17.5422 -10.3636 -2.5017 0.9212
18.6631 -8.1744 -2.5017 0.9212
19.5120 -5.8663 -2.5017 0.9212
20.3488 -1.0283 -2.5017 0.9212
19.8961 3.8485 -2.4882 0.9216
18.2123 5.8711 -2.3495 0.9258
10.7855 8.6187 -1.6952 0.9459
8.4692 8.6330 -1.4849 0.9524
6.5360 8.5083 -1.3174 0.9577
5.0057 8.4605 -1.2070 0.9612
3.7901 8.6379 -1.1582 0.9627
1.5064 8.6758 -1.0812 0.9651
0.4444 8.6823 -1.0674 0.9656
-1.6577 8.6001 -1.0754 0.9653
-2.7472 8.5408 -1.1016 0.9645
-8.1030 17.5761 -2.3764 0.9250
-6.9652 8.7278 -1.3711 0.9560
-8.8972 8.7397 -1.5313 0.9510
-14.1200 8.3666 -2.0152 0.9360
-18.8510 3.2858 -2.3495 0.9258
-19.5722 1.0145 -2.4064 0.9241
-20.0090 -3.8434 -2.5017 0.9212
-18.5086 -8.5183 -2.5017 0.9212
-15.9335 -12.6986 -2.5017 0.9212
-14.2874 -14.5259 -2.5017 0.9212
-3.2980 -18.8488 -2.3495 0.9258
1.3067 -19.0905 -2.3495 0.9258
3.5974 -18.7940 -2.3495 0.9258
8.5063 -18.5142 -2.5017 0.9212
12.6883 -15.9417 -2.5017 0.9212
14.5166 -14.2968 -2.5017 0.9212
16.1335 -12.4436 -2.5017 0.9212
17.5152 -10.4091 -2.5017 0.9212
18.6418 -8.2229 -2.5017 0.9212
20.0676 -3.5247 -2.5017 0.9212
19.9242 3.8003 -2.4905 0.9215
18.2274 5.8238 -2.3495 0.9258
17.3930 7.9775 -2.3495 0.9258
13.9996 8.5990 -2.0173 0.9359
8.5130 8.6327 -1.4887 0.9523
3.8100 8.6224 -1.1574 0.9627
-0.5812 8.6550 -1.0651 0.9656
-5.3470 8.7179 -1.2557 0.9596
-6.9280 8.7276 -1.3682 0.9561
-11.3202 8.7546 -1.7571 0.9440
-14.0659 8.3839 -2.0106 0.9361
-17.4976 7.7453 -2.3495 0.9258
-18.3033 5.5807 -2.3495 0.9258
-18.8424 3.3347 -2.3495 0.9258
-20.3299 -1.3518 -2.5017 0.9212
-20.0189 -3.7914 -2.5017 0.9212
-18.5307 -8.4703 -2.5017 0.9212
-14.3251 -14.4888 -2.5017 0.9212
-12.4697 -16.1023 -2.5006 0.9212
-9.8078 -16.4306 -2.3495 0.9258
13.5992 -8.0341 -2.5017 0.9380
15.5077 2.9997 -2.5017 0.9380
7.1106 2.2923 -1.1833 0.9702
6.7002 3.0942 -1.1689 0.9706
10.7855 8.6187 -2.1867 0.9456
8.4692 8.6330 -1.9154 0.9522
4.9565 8.3774 -1.5417 0.9613
2.6124 8.6690 -1.4340 0.9640
0.4444 8.6823 -1.3769 0.9654
-0.5996 8.5958 -1.3648 0.9657
-1.6439 8.5284 -1.3756 0.9654
-3.8054 8.2543 -1.4396 0.9639
-8.8972 8.7397 -1.9753 0.9507
-13.5802 5.9692 -2.3495 0.9417
-14.8820 2.5940 -2.3926 0.9407
-15.0396 -4.8268 -2.5017 0.9380
-14.3485 -6.6037 -2.5017 0.9380
-13.4483 -8.2844 -2.5017 0.9380
-11.0760 -11.2609 -2.5017 0.9380
-9.6385 -12.5134 -2.5017 0.9380
-8.0606 -13.5836 -2.5017 0.9380
-2.5807 -14.7490 -2.3715 0.9412
-0.7984 -15.2113 -2.4125 0.9402
1.0777 -15.7438 -2.4994 0.9381
2.9695 -15.5135 -2.5017 0.9380
11.2537 -11.0833 -2.5017 0.9380
12.5072 -9.6466 -2.5017 0.9380
13.5783 -8.0694 -2.5017 0.9380
14.4517 -6.3746 -2.5017 0.9380
15.7729 -0.8381 -2.5017 0.9380
15.7590 1.0684 -2.5017 0.9380
7.1477 2.2837 -1.1885 0.9701
12.6402 7.7640 -2.3495 0.9417
10.8427 8.6184 -2.1937 0.9455
8.5130 8.6327 -1.9203 0.9521
1.5296 8.6756 -1.3953 0.9650
0.4670 8.6822 -1.3771 0.9654
-0.5775 8.6000 -1.3652 0.9657
-1.6212 8.5296 -1.3751 0.9654
-2.6999 8.4692 -1.4079 0.9646
-3.7825 8.2608 -1.4390 0.9639
-5.3470 8.7179 -1.6198 0.9594
-6.9280 8.7276 -1.7649 0.9559
-11.3156 8.7511 -2.2656 0.9437
-12.7424 7.5951 -2.3495 0.9417
-13.5647 6.0044 -2.3495 0.9417
-14.1893 4.3263 -2.3495 0.9417
-14.8008 2.6194 -2.3806 0.9409
-15.7718 0.8586 -2.5017 0.9380
-15.0521 -4.7877 -2.5017 0.9380
-13.4697 -8.2494 -2.5017 0.9380
-8.0958 -13.5626 -2.5017 0.9380
-6.3995 -14.4318 -2.5004 0.9381
10.2114 -7.8337 -2.5017 0.9489
11.7889 -5.1636 -2.5017 0.9489
12.3252 -3.7055 -2.5017 0.9489
12.8384 0.9039 -2.5017 0.9489
12.6359 2.4442 -2.5017 0.9489
6.1929 2.8600 -1.3260 0.9726
9.4426 7.5456 -2.3495 0.9519
4.8262 8.1571 -1.8423 0.9621
3.7901 8.6379 -1.8336 0.9623
1.5064 8.6758 -1.7116 0.9648
-2.6965 8.3832 -1.7117 0.9648
-5.3783 8.7181 -1.9912 0.9591
-6.9652 8.7278 -2.1705 0.9555
-8.6229 8.4703 -2.3495 0.9519
-9.5806 7.3696 -2.3495 0.9519
-10.3988 6.1616 -2.3495 0.9519
-11.5708 3.4951 -2.3495 0.9519
-12.6790 2.2100 -2.5017 0.9489
-12.8396 -0.8873 -2.5017 0.9489
-10.9579 -6.7503 -2.5017 0.9489
-5.1865 -11.7788 -2.5017 0.9489
2.4196 -12.6407 -2.5017 0.9489
3.9250 -12.2570 -2.5017 0.9489
5.3732 -11.6948 -2.5017 0.9489
6.7431 -10.9622 -2.5017 0.9489
8.0148 -10.0699 -2.5017 0.9489
11.7755 -5.1941 -2.5017 0.9489
12.3155 -3.7375 -2.5017 0.9489
12.8407 0.8706 -2.5017 0.9489
12.6422 2.4114 -2.5017 0.9489
6.8094 2.1757 -1.3895 0.9713
10.2994 6.3262 -2.3495 0.9519
8.4870 8.6064 -2.3495 0.9519
3.8100 8.6224 -1.8324 0.9623
2.6370 8.6688 -1.7613 0.9638
-0.5775 8.6000 -1.6754 0.9655
-3.7087 8.0998 -1.7316 0.9644
-9.5615 7.3945 -2.3495 0.9519
-11.0527 4.8925 -2.3495 0.9519
-11.5617 3.5252 -2.3495 0.9519
-12.6732 2.2429 -2.5017 0.9489
-12.8511 0.6996 -2.5017 0.9489
-12.8418 -0.8539 -2.5017 0.9489
-12.6454 -2.3950 -2.5017 0.9489
-12.2647 -3.9011 -2.5017 0.9489
-11.7053 -5.3504 -2.5017 0.9489
-9.0487 -9.1521 -2.5017 0.9489
-6.5967 -11.0510 -2.5017 0.9489
9.3296 -5.5117 -2.5017 0.9565
9.9257 -4.3475 -2.5017 0.9565
10.6775 -1.8468 -2.5017 0.9565
10.8223 -0.5469 -2.5017 0.9565
10.8093 0.7611 -2.5017 0.9565
5.9490 2.7473 -1.5128 0.9735
8.6578 5.3489 -2.3495 0.9591
7.9502 6.3531 -2.3495 0.9591
7.1269 7.2647 -2.3495 0.9591
1.5064 8.6758 -2.0329 0.9645
-0.5996 8.5958 -1.9893 0.9652
-1.6204 8.4065 -1.9765 0.9655
-2.6448 8.2225 -1.9941 0.9652
-4.2608 9.2420 -2.3495 0.9591
-9.3166 4.0951 -2.3495 0.9591
-10.6751 1.8607 -2.5017 0.9565
-10.8103 -0.7470 -2.5017 0.9565
-10.6415 -2.0441 -2.5017 0.9565
-10.3177 -3.3113 -2.5017 0.9565
-8.4740 -6.7536 -2.5017 0.9565
-4.3668 -9.9173 -2.5017 0.9565
0.7400 -10.8108 -2.5017 0.9565
2.0372 -10.6429 -2.5017 0.9565
3.3047 -10.3199 -2.5017 0.9565
4.5240 -9.8465 -2.5017 0.9565
9.9144 -4.3732 -2.5017 0.9565
10.3691 -3.1468 -2.5017 0.9565
10.6442 2.0303 -2.5017 0.9565
6.5155 2.0817 -1.5791 0.9723
5.9512 2.7296 -1.5116 0.9735
8.6717 5.3264 -2.3495 0.9591
7.9667 6.3324 -2.3495 0.9591
7.1457 7.2462 -2.3495 0.9591
2.6370 8.6688 -2.0919 0.9635
0.4670 8.6822 -2.0073 0.9649
-0.5775 8.6000 -1.9899 0.9652
-1.5986 8.4106 -1.9765 0.9655
-2.6232 8.2285 -1.9939 0.9652
-8.0503 6.2258 -2.3495 0.9591
-8.7418 5.2105 -2.3495 0.9591
-9.3059 4.1193 -2.3495 0.9591
-10.3650 3.1603 -2.5017 0.9565
-10.6703 1.8884 -2.5017 0.9565
-10.6468 -2.0164 -2.5017 0.9565
-10.3263 -3.2846 -2.5017 0.9565
-9.8553 -4.5048 -2.5017 0.9565
-9.2408 -5.6594 -2.5017 0.9565
-7.6186 -7.7057 -2.5017 0.9565
-6.6347 -8.5675 -2.5017 0.9565
6.6691 -6.5340 -2.5017 0.9621
8.0385 -4.7490 -2.5017 0.9621
8.9411 -2.6881 -2.5017 0.9621
9.1999 -1.5913 -2.5017 0.9621
9.3246 -0.4712 -2.5017 0.9621
9.1666 1.7731 -2.5017 0.9621
5.3417 6.9536 -2.3495 0.9643
4.4650 7.5466 -2.3495 0.9643
0.4482 8.7570 -2.3495 0.9643
-1.6596 8.6100 -2.3495 0.9643
-2.6849 8.3473 -2.3495 0.9643
-4.6038 7.4627 -2.3495 0.9643
-6.2554 6.1447 -2.3495 0.9643
-9.1978 1.6032 -2.5017 0.9621
-9.3143 -0.6436 -2.5017 0.9621
-8.8899 -2.8531 -2.5017 0.9621
-8.4814 -3.9034 -2.5017 0.9621
-7.3013 -5.8190 -2.5017 0.9621
-6.5470 -6.6563 -2.5017 0.9621
-5.6973 -7.3967 -2.5017 0.9621
-4.7646 -8.0292 -2.5017 0.9621
-3.7625 -8.5448 -2.5017 0.9621
-1.6092 -9.1968 -2.5017 0.9621
-0.4894 -9.3237 -2.5017 0.9621
1.7553 -9.1700 -2.5017 0.9621
4.8917 -7.9524 -2.5017 0.9621
5.8143 -7.3051 -2.5017 0.9621
7.3930 -5.7021 -2.5017 0.9621
8.0261 -4.7698 -2.5017 0.9621
8.9341 -2.7113 -2.5017 0.9621
9.1957 -1.6151 -2.5017 0.9621
9.3233 -0.4954 -2.5017 0.9621
9.3151 0.6316 -2.5017 0.9621
7.4716 4.5893 -2.3495 0.9643
6.8642 5.4561 -2.3495 0.9643
5.3597 6.9397 -2.3495 0.9643
4.4845 7.5350 -2.3495 0.9643
2.5518 8.3890 -2.3495 0.9643
0.4709 8.7558 -2.3495 0.9643
-0.5875 8.7488 -2.3495 0.9643
-2.6633 8.3542 -2.3495 0.9643
-3.6504 7.9725 -2.3495 0.9643
-8.9306 2.7229 -2.5017 0.9621
-9.3227 0.5075 -2.5017 0.9621
-9.1734 -1.7374 -2.5017 0.9621
-8.8973 -2.8300 -2.5017 0.9621
-7.9619 -4.8762 -2.5017 0.9621
-7.3164 -5.8000 -2.5017 0.9621
-5.7165 -7.3818 -2.5017 0.9621
