ply
format ascii 1.0
element vertex 711
property float32 x
property float32 y
property float32 z
property float32 I
end_header
-7.8543 42.8130 11.6631 0.8351
-8.4511 27.0808 7.6014 0.8892
-11.1888 24.8180 7.2945 0.8934
-14.0341 23.1699 7.2584 0.8939
-18.2134 23.1957 7.9023 0.8850
-22.7835 22.7238 8.6222 0.8752
-58.5528 -18.4597 16.4504 0.7755
-24.4507 -40.8762 12.7627 0.8210
-8.7763 -28.6798 8.0365 0.8832
35.3692 28.2746 12.1332 0.8290
35.4177 36.1360 13.5579 0.8110
4.4051 5.7431 1.9394 0.9705
-7.8701 40.2539 10.9902 0.8438
-8.7386 26.8973 7.5779 0.8895
-18.3436 22.8100 7.8431 0.8858
-49.8766 -23.3648 14.7581 0.7961
-14.4866 -33.6639 9.8200 0.8592
-8.4700 -28.8757 8.0632 0.8828
-1.7510 -40.4931 10.8602 0.8455
40.8148 19.4102 12.1100 0.8293
-7.8543 42.8130 10.0491 0.8364
-11.2106 24.8663 6.2973 0.8941
-14.0341 23.1699 6.2539 0.8948
-18.2134 23.1957 6.8087 0.8860
-54.3973 54.2547 17.7373 0.7295
-55.5932 -17.5267 13.4574 0.7872
-60.4693 -36.8673 16.3505 0.7477
-55.7477 -44.0363 16.4014 0.7470
-24.7460 -41.3700 11.1293 0.8205
-5.4669 -30.7574 7.2122 0.8796
-2.2232 -40.4902 9.3620 0.8466
50.6983 -82.6132 22.3778 0.6717
60.8277 -26.8076 15.3465 0.7612
60.7941 19.5559 14.7437 0.7694
35.8315 22.1329 9.7233 0.8412
35.4799 46.2570 13.4589 0.7872
-7.8701 40.2539 9.4693 0.8450
-8.7386 26.8973 6.5292 0.8904
-54.8671 53.4642 17.6864 0.7302
-54.1112 -25.3485 13.7953 0.7825
-60.2498 -37.7021 16.4087 0.7469
-24.2630 -41.6552 11.1293 0.8205
-13.6908 -31.8146 7.9962 0.8675
-5.5870 -33.7051 7.8876 0.8691
34.2405 -42.0738 12.5236 0.8004
60.8651 -25.9826 15.2786 0.7621
1.5941 8.6752 1.7145 0.9647
-1.5951 8.6948 1.7183 0.9646
-2.7155 8.7017 1.7719 0.9635
-3.9264 8.7092 1.8570 0.9618
-52.9991 -16.7088 10.8018 0.7974
-20.1219 -33.6394 7.6194 0.8524
-14.9520 -33.6610 7.1595 0.8606
-5.9904 -33.7027 6.6538 0.8698
50.7958 -50.0765 13.8650 0.7478
60.7806 -46.9013 14.9230 0.7314
96.1835 18.5147 19.0394 0.6709
12.2535 5.6535 2.6231 0.9465
35.8315 22.1330 8.1865 0.8423
35.4177 36.1360 9.8354 0.8137
36.4881 47.5713 11.6538 0.7833
5.1082 8.6536 1.9533 0.9599
1.4900 8.6759 1.7111 0.9648
0.4261 8.6824 1.6897 0.9652
-1.7001 8.6955 1.7222 0.9645
-2.8273 8.7024 1.7786 0.9634
-4.0493 8.7099 1.8671 0.9616
-13.7826 22.1684 5.0740 0.8991
-18.3436 22.8100 5.6897 0.8876
-54.8671 53.4641 14.8911 0.7319
-56.3157 -18.4776 11.5208 0.7854
-63.7017 -29.8412 13.6737 0.7508
-52.9919 -42.8701 13.2492 0.7575
-14.4866 -33.6639 7.1238 0.8613
-9.7161 -33.1238 6.7099 0.8688
-5.5870 -33.7051 6.6410 0.8700
25.5158 -40.5129 9.3066 0.8228
61.0095 -45.9552 14.8469 0.7325
61.1575 -26.1074 12.9257 0.7626
-1.5951 8.6948 1.4001 0.9648
-2.7155 8.7017 1.4438 0.9638
-6.8526 8.7271 1.7574 0.9561
-8.7618 8.7389 1.9600 0.9511
-78.0077 46.9701 14.4220 0.6916
-79.5037 24.5820 13.1803 0.7139
-67.7872 -12.6400 10.9215 0.7563
-18.9026 -31.6010 5.8322 0.8615
23.7755 -51.9282 9.0457 0.7935
25.2371 -41.1240 7.6421 0.8225
33.3037 -41.9096 8.4785 0.8051
43.1631 -42.5519 9.5999 0.7823
55.8723 -43.1139 11.1776 0.7514
61.1060 -26.9302 10.5765 0.7630
43.6980 20.1612 7.6222 0.8229
0.4261 8.6824 1.3768 0.9654
-2.8273 8.7024 1.4492 0.9636
-17.8478 22.1934 4.5107 0.8911
-54.8670 53.4641 12.1335 0.7333
-67.4366 -13.3884 10.8894 0.7570
-63.1480 -65.1833 14.3742 0.6924
-18.4085 -31.6041 5.7928 0.8623
-9.2851 -31.6546 5.2248 0.8749
-1.3684 -31.6445 5.0167 0.8796
24.8835 -52.7188 9.2332 0.7897
25.9303 -41.1711 7.7064 0.8211
43.6810 -42.0714 9.6055 0.7822
61.0117 -45.9569 12.0980 0.7339
60.7081 -35.1247 11.1087 0.7527
61.1112 -26.0876 10.5241 0.7641
66.0894 13.5212 10.6844 0.7609
58.4942 19.5701 9.7693 0.7790
42.4105 20.1691 7.4381 0.8268
35.9355 22.7791 6.7388 0.8417
36.0890 29.5449 7.3871 0.8279
1.5941 8.6752 1.0830 0.9651
0.5274 8.6818 1.0680 0.9656
-1.5951 8.6948 1.0854 0.9650
-2.7155 8.7017 1.1193 0.9639
-5.2802 8.7175 1.2514 0.9598
-8.7618 8.7389 1.5194 0.9514
-11.2090 8.7539 1.7463 0.9443
-5.9904 -33.7027 4.2030 0.8711
-2.2181 -40.3978 4.9677 0.8495
27.9270 -87.6918 11.3000 0.6901
25.0330 -40.7914 5.8765 0.8246
33.1367 -41.6994 6.5398 0.8068
42.8832 -42.2760 7.3939 0.7845
60.6027 -36.0114 8.6557 0.7527
65.0517 -19.6996 8.3456 0.7604
65.3319 12.5759 8.1690 0.7648
60.7941 19.5559 7.8413 0.7731
10.7814 8.6188 1.6948 0.9459
8.4614 8.6330 1.4842 0.9525
3.7873 8.6617 1.1607 0.9626
2.5977 8.6691 1.1112 0.9642
0.4261 8.6824 1.0673 0.9656
-1.7001 8.6955 1.0879 0.9649
-2.8273 8.7024 1.1235 0.9638
-4.0493 8.7099 1.1794 0.9620
-8.9695 8.7401 1.5377 0.9508
-11.4841 8.7556 1.7731 0.9435
-79.7793 46.7806 11.3555 0.6889
-65.8552 -30.8500 8.9293 0.7460
-24.4363 -32.2455 4.9677 0.8495
-19.5959 -33.6426 4.7804 0.8548
-5.5870 -33.7052 4.1949 0.8714
-1.7479 -40.4209 4.9677 0.8495
23.5357 -49.8632 6.7702 0.8007
57.4022 -43.2380 8.8239 0.7485
60.6624 -25.8960 8.0987 0.7666
68.7146 -19.9389 8.7851 0.7495
65.2053 5.2767 8.0324 0.7683
42.4105 20.1691 5.7662 0.8276
1.5941 8.6752 0.7717 0.9652
-0.5253 8.6883 0.7615 0.9657
-1.5951 8.6948 0.7734 0.9651
-5.2802 8.7175 0.8917 0.9599
-6.8526 8.7271 0.9708 0.9564
-11.2090 8.7539 1.2443 0.9445
-14.5728 8.7746 1.4882 0.9340
-20.1219 -33.6394 3.4294 0.8544
-9.6752 -31.6174 2.8928 0.8757
-5.6304 -31.6770 2.8148 0.8788
27.2112 -85.4443 7.8453 0.6976
23.3141 -50.9205 4.8997 0.7986
25.3775 -41.3527 4.2448 0.8230
33.3037 -41.9096 4.6833 0.8066
54.8014 -42.2874 6.0560 0.7573
61.0510 -36.2778 6.2131 0.7519
60.6550 -18.3682 5.5446 0.7753
65.0493 -11.3670 5.7773 0.7671
65.1470 4.5096 5.7133 0.7694
65.1964 12.5499 5.8087 0.7660
60.7943 19.5560 5.5872 0.7738
8.4614 8.6330 1.0576 0.9526
3.7873 8.6617 0.8271 0.9628
2.5977 8.6691 0.7918 0.9643
-0.6269 8.6889 0.7622 0.9656
-2.8273 8.7024 0.8005 0.9639
-5.4204 8.7183 0.8982 0.9596
-17.8478 22.1934 2.4916 0.8919
-8.9695 8.7401 1.0957 0.9510
-13.6128 -31.6333 3.0129 0.8709
28.4596 -85.8945 7.9166 0.6954
23.9551 -50.7518 4.9100 0.7982
33.6398 -41.3356 4.6626 0.8074
43.2994 -41.7039 5.2596 0.7855
56.1513 -42.2958 6.1503 0.7541
65.0032 -18.8620 5.9216 0.7620
65.1031 -2.6254 5.7004 0.7698
58.4943 19.5701 5.3964 0.7806
0.5270 8.6753 0.4555 0.9658
-2.7127 8.6925 0.4772 0.9642
-6.8526 8.7271 0.5815 0.9565
-11.2090 8.7539 0.7454 0.9446
-19.6701 8.8059 1.1295 0.9173
-24.4782 -31.5318 2.0920 0.8522
-18.9854 -31.7394 1.9383 0.8623
-10.7212 -24.1364 1.3841 0.8996
-5.9368 -33.4013 1.7779 0.8729
27.4517 -86.1994 4.7411 0.6960
24.6489 -53.8358 3.1031 0.7889
25.4840 -41.5263 2.5534 0.8227
54.9829 -42.4275 3.6397 0.7572
60.9713 -36.2304 3.7169 0.7527
69.5297 -3.6147 3.6488 0.7566
68.3685 13.1605 3.6488 0.7566
60.7943 19.5560 3.3469 0.7743
43.6980 20.1612 2.5221 0.8247
10.7814 8.6188 0.7234 0.9462
5.1082 8.6536 0.5266 0.9605
1.4880 8.6641 0.4607 0.9654
-2.8249 8.6951 0.4791 0.9640
-8.9695 8.7401 0.6563 0.9511
-79.1303 46.4001 4.8074 0.6925
-20.3093 8.8098 1.1602 0.9151
-23.8981 -31.5353 2.0736 0.8534
-18.6148 -31.9582 1.9383 0.8623
-13.1680 -30.5998 1.7459 0.8751
43.1934 -41.6018 3.1429 0.7865
56.1510 -42.2955 3.6842 0.7546
60.7081 -35.1247 3.6757 0.7551
61.1112 -26.0876 3.4823 0.7663
58.7879 19.6684 3.2488 0.7801
42.4106 20.1691 2.4612 0.8285
13.5696 8.6016 0.8420 0.9377
0.5267 8.6712 0.1516 0.9658
-0.5240 8.6672 0.1516 0.9659
-1.5874 8.6525 0.1535 0.9654
-3.9264 8.7092 0.1668 0.9625
-56.2301 -17.7274 1.0291 0.7899
-24.2001 -31.1736 0.6888 0.8540
-20.0351 -33.4943 0.6813 0.8554
-15.7064 -35.3596 0.6753 0.8566
-9.7075 -31.7232 0.5791 0.8757
-2.2232 -40.4903 0.7078 0.8502
40.0595 -87.4943 1.6797 0.6805
33.4999 -42.1565 0.9399 0.8062
35.1772 -34.6790 0.8622 0.8207
35.2232 -27.1800 0.7766 0.8370
40.9632 -24.3412 0.8317 0.8264
55.4331 -24.4301 1.0574 0.7848
51.8294 9.9768 0.9213 0.8096
35.5175 16.3870 0.6828 0.8551
13.9219 8.5995 0.2856 0.9366
10.7814 8.6188 0.2409 0.9463
6.6108 8.6189 0.1896 0.9575
5.0850 8.6143 0.1746 0.9608
1.4900 8.6759 0.1537 0.9654
0.4253 8.6664 0.1515 0.9659
-2.8138 8.6608 0.1590 0.9642
-4.0493 8.7099 0.1677 0.9623
-5.4204 8.7183 0.1792 0.9598
-8.9695 8.7401 0.2186 0.9511
-11.4651 8.7411 0.2517 0.9440
-72.6469 -5.4537 1.2716 0.7472
-56.7015 -18.6042 1.0416 0.7876
-62.9186 -29.4744 1.2128 0.7573
-23.6266 -31.1771 0.6828 0.8551
-19.5114 -33.4975 0.6767 0.8563
-5.1769 -31.2308 0.5526 0.8810
-1.7510 -40.4932 0.7075 0.8503
41.3012 -87.5017 1.6889 0.6790
31.0601 -49.3160 1.0173 0.7920
31.8707 -39.1619 0.8813 0.8171
35.2272 -26.5348 0.7698 0.8383
42.0822 -24.3481 0.8486 0.8232
91.8876 7.4360 1.6091 0.6916
1.5941 8.6752 -0.1540 0.9653
0.5267 8.6712 -0.1516 0.9658
-6.8526 8.7271 -0.1937 0.9566
-8.7618 8.7389 -0.2160 0.9517
-11.1997 8.7467 -0.2480 0.9447
-14.4008 8.6711 -0.2934 0.9350
-70.6268 -4.4762 -1.2353 0.7534
-47.0948 -8.7816 -0.8362 0.8256
-56.6125 -17.8479 -1.0361 0.7886
-58.6903 -35.7827 -1.1998 0.7596
-61.1735 -48.3222 -1.3607 0.7321
-8.9441 -20.1357 -0.3846 0.9156
-5.9463 -19.4318 -0.3547 0.9219
-3.5748 -20.1124 -0.3566 0.9215
1.6001 -24.1343 -0.4222 0.9078
40.0611 -87.4978 -1.6797 0.6805
26.8950 -43.8254 -0.8975 0.8141
35.1772 -34.6790 -0.8622 0.8207
35.2232 -27.1800 -0.7766 0.8370
40.9632 -24.3412 -0.8317 0.8264
83.5972 -25.3158 -1.5246 0.7051
51.3324 9.8812 -0.9125 0.8113
35.5175 16.3870 -0.6828 0.8551
13.9219 8.5995 -0.2856 0.9366
6.5907 8.5926 -0.1890 0.9576
3.7873 8.6617 -0.1650 0.9629
1.4900 8.6759 -0.1537 0.9654
-0.6239 8.6476 -0.1513 0.9659
-1.6862 8.6249 -0.1534 0.9655
-8.9695 8.7401 -0.2186 0.9511
-11.4566 8.7346 -0.2515 0.9440
-14.7903 8.6727 -0.2993 0.9337
-49.8325 14.7748 -0.9073 0.8123
-52.4634 8.8534 -0.9287 0.8083
-86.2963 3.9832 -1.5079 0.7078
-46.1414 -9.1606 -0.8211 0.8285
-72.4587 -23.7743 -1.3311 0.7371
-61.1127 -49.4398 -1.3721 0.7302
-17.4960 -23.0873 -0.5056 0.8906
-8.6200 -20.0311 -0.3806 0.9165
-3.3526 -20.2257 -0.3579 0.9213
30.9793 -93.4995 -1.7193 0.6743
41.3030 -87.5055 -1.6890 0.6790
30.2812 -48.0791 -0.9917 0.7967
35.1820 -33.8856 -0.8526 0.8225
35.2272 -26.5348 -0.7698 0.8383
42.0821 -24.3481 -0.8486 0.8232
57.2546 -24.4413 -1.0866 0.7795
85.2509 -24.7373 -1.5494 0.7011
98.3714 7.9607 -1.7227 0.6738
66.0893 13.5211 -1.1775 0.7635
42.4106 20.1691 -0.8197 0.8287
13.5696 8.6016 -0.2804 0.9377
1.5941 8.6752 -0.4623 0.9653
-0.5216 8.6268 -0.4529 0.9660
-2.6760 8.5751 -0.4708 0.9647
-5.2802 8.7175 -0.5341 0.9600
-6.8526 8.7271 -0.5815 0.9565
-8.7618 8.7389 -0.6485 0.9516
-11.1997 8.7467 -0.7447 0.9447
-14.2996 8.6101 -0.8748 0.9353
-23.9733 7.4124 -1.3151 0.9044
-45.1257 -2.8600 -2.3697 0.8343
-37.5707 -7.0057 -2.0029 0.8581
-42.7582 -13.4802 -2.3496 0.8356
-33.6123 -33.8973 -2.5018 0.8260
-18.0530 -23.2552 -1.5429 0.8888
-5.8593 -19.1477 -1.0494 0.9229
-1.1472 -20.8932 -1.0966 0.9196
14.4858 -45.4860 -2.5018 0.8260
24.9100 -40.5910 -2.4959 0.8263
31.9268 -31.4747 -2.3496 0.8356
47.0244 -8.2172 -2.5018 0.8260
47.6726 -2.4784 -2.5018 0.8260
47.6230 3.2966 -2.5018 0.8260
30.4168 14.0336 -1.7556 0.8744
10.7814 8.6188 -0.7234 0.9462
8.4532 8.6247 -0.6329 0.9528
6.5707 8.5665 -0.5658 0.9577
5.0301 8.5213 -0.5186 0.9611
3.7873 8.6617 -0.4954 0.9628
2.5977 8.6691 -0.4743 0.9644
1.4900 8.6759 -0.4613 0.9654
0.4253 8.6664 -0.4547 0.9658
-5.4204 8.7183 -0.5380 0.9597
-8.9695 8.7401 -0.6563 0.9511
-11.4566 8.7346 -0.7550 0.9439
-24.5674 7.2840 -1.3429 0.9025
-44.8160 7.5629 -2.3819 0.8336
-45.2754 2.0898 -2.3753 0.8340
-45.0868 -3.3848 -2.3695 0.8343
-33.2156 -34.2862 -2.5018 0.8260
-17.2873 -22.8119 -1.5000 0.8917
-11.7144 -20.1116 -1.2198 0.9110
-5.5811 -19.0273 -1.0392 0.9236
-3.3030 -19.9261 -1.0585 0.9223
-0.9121 -21.0926 -1.1064 0.9189
1.8915 -24.2512 -1.2748 0.9072
9.4321 -46.7959 -2.5018 0.8260
20.3763 -43.1697 -2.5018 0.8260
25.0271 -39.7370 -2.4611 0.8285
38.8056 -22.4523 -2.3496 0.8356
41.2330 -17.6019 -2.3496 0.8356
45.8459 -13.3031 -2.5018 0.8260
47.1169 -7.6694 -2.5018 0.8260
47.5814 3.8505 -2.5018 0.8260
43.9230 8.9862 -2.3496 0.8356
30.3584 10.1568 -1.6777 0.8797
1.5941 8.6752 -0.7717 0.9652
0.5267 8.6712 -0.7600 0.9657
-2.6640 8.5365 -0.7824 0.9647
-3.9264 8.7092 -0.8358 0.9624
-5.2802 8.7175 -0.8917 0.9599
-6.8526 8.7271 -0.9708 0.9564
-8.7618 8.7389 -1.0827 0.9515
-14.1075 8.4944 -1.4407 0.9360
-18.4227 8.2475 -1.7659 0.9222
-26.8111 1.5504 -2.3496 0.8978
-26.8021 -1.6987 -2.3496 0.8978
-27.2723 -8.5980 -2.5018 0.8915
-26.0345 -11.8285 -2.5018 0.8915
-24.4155 -14.8858 -2.5018 0.8915
-22.4393 -17.7253 -2.5018 0.8915
-20.1346 -20.3053 -2.5018 0.8915
-16.4684 -21.2139 -2.3496 0.8978
-11.9966 -20.0557 -2.0446 0.9104
-8.6067 -19.3763 -1.8549 0.9184
-5.8612 -19.1540 -1.7525 0.9227
-1.1375 -20.7165 -1.8152 0.9201
4.9996 -26.3864 -2.3496 0.8978
11.9041 -25.9999 -2.5018 0.8915
22.6390 -17.4694 -2.5018 0.8915
27.3682 -8.2879 -2.5018 0.8915
28.5570 -1.4846 -2.5018 0.8915
28.5273 1.9747 -2.5018 0.8915
10.7814 8.6188 -1.2076 0.9461
8.4470 8.6183 -1.0558 0.9527
6.5507 8.5404 -0.9417 0.9577
5.0029 8.4754 -0.8610 0.9613
3.7873 8.6617 -0.8271 0.9628
2.5977 8.6691 -0.7918 0.9643
-5.4204 8.7183 -0.8982 0.9596
-24.0264 7.1236 -2.1925 0.9043
-26.8273 1.2383 -2.3496 0.8978
-28.0481 -5.5685 -2.5018 0.8915
-24.2406 -15.1689 -2.5018 0.8915
-22.2315 -17.9851 -2.5018 0.8915
-19.8969 -20.5382 -2.5018 0.8915
-11.5481 -19.8261 -2.0074 0.9120
-8.3227 -19.3404 -1.8421 0.9189
-5.6425 -19.2364 -1.7539 0.9227
-3.2939 -19.8711 -1.7622 0.9223
1.8429 -23.6285 -2.0735 0.9092
8.9938 -27.1444 -2.5018 0.8915
15.2394 -24.1964 -2.5018 0.8915
18.0498 -22.1791 -2.5018 0.8915
22.8408 -17.2048 -2.5018 0.8915
26.2995 -11.2269 -2.5018 0.8915
27.4627 -7.9689 -2.5018 0.8915
28.2241 -4.5942 -2.5018 0.8915
28.5723 -1.1522 -2.5018 0.8915
10.5297 8.6203 -1.1906 0.9468
-2.6530 8.5013 -1.0935 0.9647
-3.9264 8.7092 -1.1730 0.9622
-8.7618 8.7389 -1.5194 0.9514
-17.4655 7.8190 -2.3496 0.9258
-18.2819 5.6527 -2.3496 0.9258
-19.1040 1.1047 -2.3496 0.9258
-18.5505 -8.4282 -2.5018 0.9212
-17.3970 -10.6067 -2.5018 0.9212
-14.3467 -14.4683 -2.5018 0.9212
-7.7681 -17.4882 -2.3496 0.9258
-3.3488 -18.8406 -2.3496 0.9258
-1.0491 -19.1071 -2.3496 0.9258
1.2659 -19.0939 -2.3496 0.9258
6.1829 -19.4147 -2.5018 0.9212
8.4822 -18.5259 -2.5018 0.9212
10.6573 -17.3661 -2.5018 0.9212
12.6764 -15.9520 -2.5018 0.9212
14.5100 -14.3045 -2.5018 0.9212
16.1312 -12.4476 -2.5018 0.9212
18.6450 -8.2171 -2.5018 0.9212
19.5009 -5.9055 -2.5018 0.9212
20.0713 -3.5073 -2.5018 0.9212
20.3479 -1.0579 -2.5018 0.9212
20.3268 1.4071 -2.5018 0.9212
8.5222 2.7414 -1.0992 0.9646
17.3757 8.0167 -2.3496 0.9258
10.7814 8.6188 -1.6948 0.9459
8.4270 8.5979 -1.4782 0.9526
6.4905 8.4619 -1.3094 0.9579
4.9333 8.3573 -1.1916 0.9616
3.7873 8.6617 -1.1607 0.9626
1.4900 8.6759 -1.0809 0.9651
0.4249 8.6580 -1.0643 0.9657
-5.4204 8.7183 -1.2605 0.9595
-8.9695 8.7401 -1.5377 0.9508
-11.3993 8.6909 -1.7600 0.9439
-18.3465 5.4396 -2.3496 0.9258
-19.1155 0.8823 -2.3496 0.9258
-19.3600 -6.3521 -2.5018 0.9212
-17.2724 -10.8084 -2.5018 0.9212
-14.1773 -14.6342 -2.5018 0.9212
-9.6314 -16.5354 -2.3496 0.9258
3.7810 -18.7586 -2.3496 0.9258
6.4084 -19.3414 -2.5018 0.9212
8.6972 -18.4260 -2.5018 0.9212
10.8586 -17.2409 -2.5018 0.9212
12.8612 -15.8034 -2.5018 0.9212
16.2749 -12.2591 -2.5018 0.9212
17.6362 -10.2040 -2.5018 0.9212
18.7394 -7.9996 -2.5018 0.9212
19.5683 -5.6781 -2.5018 0.9212
20.1107 -3.2735 -2.5018 0.9212
20.3090 1.6435 -2.5018 0.9212
17.2812 8.2184 -2.3496 0.9258
13.5696 8.6016 -1.9727 0.9373
10.5297 8.6203 -1.6709 0.9466
1.5941 8.6752 -1.3970 0.9649
-1.5573 8.4886 -1.3669 0.9657
-2.6133 8.3741 -1.3894 0.9651
-5.2802 8.7175 -1.6142 0.9596
-12.7087 7.6522 -2.3496 0.9417
-13.5398 6.0615 -2.3496 0.9417
-14.1727 4.3821 -2.3496 0.9417
-14.5982 2.6386 -2.3496 0.9417
-15.7640 -0.9991 -2.5018 0.9380
-15.5280 -2.8954 -2.5018 0.9380
-15.0647 -4.7494 -2.5018 0.9380
-14.3810 -6.5338 -2.5018 0.9380
-13.4867 -8.2227 -2.5018 0.9380
-11.1220 -11.2163 -2.5018 0.9380
-8.1085 -13.5556 -2.5018 0.9380
-2.6034 -14.6471 -2.3562 0.9415
-0.8211 -14.9544 -2.3721 0.9411
1.0360 -15.6262 -2.4804 0.9385
2.9406 -15.5195 -2.5018 0.9380
4.7932 -15.0508 -2.5018 0.9380
6.5756 -14.3619 -2.5018 0.9380
8.2618 -13.4627 -2.5018 0.9380
12.5054 -9.6498 -2.5018 0.9380
13.5792 -8.0690 -2.5018 0.9380
14.4542 -6.3701 -2.5018 0.9380
15.5599 -2.7190 -2.5018 0.9380
15.7579 1.0908 -2.5018 0.9380
7.8753 2.5333 -1.3103 0.9671
13.4701 6.2148 -2.3496 0.9417
10.7814 8.6188 -2.1862 0.9456
8.4270 8.5979 -1.9068 0.9524
6.4209 8.3713 -1.6710 0.9582
7.5662 12.8178 -2.3574 0.9415
3.7873 8.6617 -1.4973 0.9624
1.4900 8.6759 -1.3942 0.9650
0.4232 8.6243 -1.3676 0.9656
-1.6585 8.4831 -1.3690 0.9656
-4.0493 8.7099 -1.5213 0.9618
-8.9695 8.7401 -1.9836 0.9505
-14.6279 2.4685 -2.3496 0.9417
-15.7789 0.7283 -2.5018 0.9380
-15.4933 -3.0759 -2.5018 0.9380
-15.0084 -4.9244 -2.5018 0.9380
-10.9907 -11.3449 -2.5018 0.9380
-9.5403 -12.5891 -2.5018 0.9380
-7.9502 -13.6491 -2.5018 0.9380
-0.6486 -14.9981 -2.3777 0.9410
3.1210 -15.4842 -2.5018 0.9380
9.9704 -12.2513 -2.5018 0.9380
11.3769 -10.9576 -2.5018 0.9380
12.6168 -9.5036 -2.5018 0.9380
13.6721 -7.9105 -2.5018 0.9380
14.5273 -6.2015 -2.5018 0.9380
15.5905 -2.5377 -2.5018 0.9380
13.3969 6.3712 -2.3496 0.9417
12.5295 7.9423 -2.3496 0.9417
-1.5443 8.4176 -1.6635 0.9657
-2.5630 8.2128 -1.6723 0.9655
-5.2802 8.7175 -1.9811 0.9593
-6.8526 8.7271 -2.1568 0.9558
-8.5584 8.5360 -2.3496 0.9519
-9.5266 7.4400 -2.3496 0.9519
-11.0325 4.9390 -2.3496 0.9519
-12.6654 2.2892 -2.5018 0.9489
-12.8448 -0.8141 -2.5018 0.9489
-12.6525 -2.3592 -2.5018 0.9489
-12.2750 -3.8699 -2.5018 0.9489
-11.7179 -5.3239 -2.5018 0.9489
-10.9892 -6.7000 -2.5018 0.9489
-3.7661 -12.3072 -2.5018 0.9489
-0.7056 -12.8512 -2.5018 0.9489
0.8514 -12.8424 -2.5018 0.9489
2.3961 -12.6456 -2.5018 0.9489
3.9056 -12.2637 -2.5018 0.9489
5.3579 -11.7023 -2.5018 0.9489
6.7319 -10.9696 -2.5018 0.9489
8.0073 -10.0764 -2.5018 0.9489
10.1896 -7.8628 -2.5018 0.9489
11.0645 -6.5748 -2.5018 0.9489
11.7775 -5.1905 -2.5018 0.9489
12.3181 -3.7303 -2.5018 0.9489
12.8532 -0.6682 -2.5018 0.9489
10.4960 2.0204 -2.0777 0.9574
7.5703 3.4928 -1.6206 0.9666
8.4610 8.6326 -2.3496 0.9519
6.1445 10.4093 -2.3496 0.9519
3.7873 8.6617 -1.8376 0.9622
1.4901 8.6759 -1.7111 0.9648
-0.6108 8.4663 -1.6500 0.9660
-1.6447 8.4121 -1.6661 0.9657
-2.6596 8.1864 -1.6731 0.9655
-5.4204 8.7183 -1.9955 0.9590
-7.5751 9.4195 -2.3496 0.9519
-9.6125 7.3287 -2.3496 0.9519
-10.4272 6.1142 -2.3496 0.9519
-12.8569 0.5934 -2.5018 0.9489
-12.8345 -0.9635 -2.5018 0.9489
-12.6242 -2.5063 -2.5018 0.9489
-12.2291 -4.0125 -2.5018 0.9489
-10.0062 -8.0949 -2.5018 0.9489
-7.7736 -10.2578 -2.5018 0.9489
-3.6226 -12.3502 -2.5018 0.9489
2.5430 -12.6168 -2.5018 0.9489
4.0480 -12.2174 -2.5018 0.9489
5.4938 -11.6392 -2.5018 0.9489
6.8591 -10.8906 -2.5018 0.9489
8.1240 -9.9826 -2.5018 0.9489
10.2804 -7.7437 -2.5018 0.9489
11.1403 -6.4456 -2.5018 0.9489
11.8372 -5.0531 -2.5018 0.9489
12.8601 -0.5186 -2.5018 0.9489
12.8286 1.0382 -2.5018 0.9489
9.7207 1.9887 -1.9287 0.9604
7.6076 3.6179 -1.6375 0.9663
1.5941 8.6752 -2.0364 0.9644
0.5250 8.6432 -1.9991 0.9651
-1.5259 8.3175 -1.9523 0.9659
-3.9264 8.7092 -2.2056 0.9615
-6.2852 8.0045 -2.3496 0.9591
-7.2058 7.1869 -2.3496 0.9591
-8.0209 6.2641 -2.3496 0.9591
-9.2888 4.1584 -2.3496 0.9591
-10.3403 3.1971 -2.4987 0.9565
-10.6636 1.9274 -2.5018 0.9565
-10.8184 0.6256 -2.5018 0.9565
-10.8147 -0.6854 -2.5018 0.9565
-7.6301 -7.6948 -2.5018 0.9565
-6.6450 -8.5599 -2.5018 0.9565
-5.5627 -9.2997 -2.5018 0.9565
-3.1520 -10.3002 -2.4868 0.9567
-1.8964 -10.6692 -2.5018 0.9565
-0.5941 -10.8201 -2.5018 0.9565
0.7169 -10.8127 -2.5018 0.9565
6.7418 -8.4839 -2.5018 0.9565
8.5792 -6.6201 -2.5018 0.9565
9.3158 -5.5356 -2.5018 0.9565
10.8218 -0.5626 -2.5018 0.9565
7.5082 2.4152 -1.8209 0.9681
7.9493 6.3548 -2.3496 0.9591
7.1237 7.2682 -2.3496 0.9591
3.7873 8.6617 -2.1825 0.9619
2.5977 8.6691 -2.0893 0.9635
-2.6087 8.0295 -1.9491 0.9659
-5.3735 8.6429 -2.3496 0.9591
-6.3779 7.9308 -2.3496 0.9591
-8.0933 6.1704 -2.3496 0.9591
-8.7792 5.1479 -2.3496 0.9591
-9.3366 4.0501 -2.3496 0.9591
-10.6854 1.8032 -2.5018 0.9565
-10.8249 0.4996 -2.5018 0.9565
-9.8131 -4.5970 -2.5018 0.9565
-7.5400 -7.7830 -2.5018 0.9565
-6.5450 -8.6366 -2.5018 0.9565
-5.4542 -9.3638 -2.5018 0.9565
-4.2835 -9.9539 -2.5018 0.9565
-3.0333 -10.3411 -2.4880 0.9567
-0.4682 -10.8263 -2.5018 0.9565
0.8426 -10.8036 -2.5018 0.9565
3.4082 -10.2865 -2.5018 0.9565
5.7750 -9.1693 -2.5018 0.9565
6.8401 -8.4049 -2.5018 0.9565
7.8050 -7.5173 -2.5018 0.9565
8.6556 -6.5198 -2.5018 0.9565
9.3796 -5.4269 -2.5018 0.9565
9.9663 -4.2545 -2.5018 0.9565
10.8011 0.8741 -2.5018 0.9565
10.6165 2.1720 -2.5018 0.9565
7.5121 3.5725 -1.9204 0.9664
8.5957 5.4487 -2.3496 0.9591
-4.5429 7.5002 -2.3496 0.9643
-5.4154 6.8967 -2.3496 0.9643
-6.9109 5.3973 -2.3496 0.9643
-7.5121 4.5232 -2.3496 0.9643
-8.4967 3.8038 -2.4944 0.9622
-9.1879 1.6607 -2.5018 0.9621
-9.3181 -0.5906 -2.5018 0.9621
-8.5006 -3.8621 -2.5018 0.9621
-7.3267 -5.7875 -2.5018 0.9621
-6.5742 -6.6299 -2.5018 0.9621
-5.7255 -7.3753 -2.5018 0.9621
-4.7598 -7.9573 -2.4845 0.9623
-3.7902 -8.5329 -2.5018 0.9621
0.6177 -9.3163 -2.5018 0.9621
3.8869 -8.4893 -2.5018 0.9621
4.8836 -7.9578 -2.5018 0.9621
5.8088 -7.3098 -2.5018 0.9621
6.6490 -6.5549 -2.5018 0.9621
7.3919 -5.7040 -2.5018 0.9621
8.0266 -4.7696 -2.5018 0.9621
9.1974 -1.6072 -2.5018 0.9621
9.3242 -0.4848 -2.5018 0.9621
7.5833 3.4987 -2.2378 0.9660
7.4603 4.6082 -2.3496 0.9643
6.8492 5.4754 -2.3496 0.9643
5.3367 6.9578 -2.3496 0.9643
3.5130 8.0343 -2.3496 0.9643
2.5170 8.3998 -2.3496 0.9643
1.4843 8.6423 -2.3496 0.9643
0.4298 8.7582 -2.3496 0.9643
-0.6310 8.7461 -2.3496 0.9643
-1.6825 8.6059 -2.3496 0.9643
-2.7094 8.3397 -2.3496 0.9643
-3.6967 7.9515 -2.3496 0.9643
-4.6299 7.4469 -2.3496 0.9643
-6.2802 6.1197 -2.3496 0.9643
-6.9733 5.3165 -2.3496 0.9643
-8.9516 2.6541 -2.5018 0.9621
-9.2066 1.5537 -2.5018 0.9621
-9.3269 0.4305 -2.5018 0.9621
-9.1581 -1.8182 -2.5018 0.9621
-8.8715 -2.9108 -2.5018 0.9621
-8.4551 -3.9608 -2.5018 0.9621
-4.6994 -8.0679 -2.5018 0.9621
-2.6280 -8.9593 -2.5018 0.9621
0.7260 -9.3085 -2.5018 0.9621
1.8448 -9.1527 -2.5018 0.9621
2.9366 -8.8630 -2.5018 0.9621
3.9854 -8.4435 -2.5018 0.9621
4.9758 -7.9004 -2.5018 0.9621
5.8935 -7.2417 -2.5018 0.9621
6.7248 -6.4770 -2.5018 0.9621
7.4578 -5.6175 -2.5018 0.9621
9.3292 -0.3762 -2.5018 0.9621
9.3064 0.7531 -2.5018 0.9621
7.4062 4.6947 -2.3496 0.9643
