ply
format ascii 1.0
element vertex 935
property float32 x
property float32 y
property float32 z
property float32 I
end_header
-49.6649 -22.5562 14.6158 0.7978
-15.0811 -33.6602 9.8831 0.8584
-5.0140 -27.5330 7.4988 0.8906
36.0336 21.5699 11.2528 0.8404
35.6179 35.2692 13.4310 0.8126
4.5537 5.7505 1.9655 0.9701
-8.2449 27.1752 7.6093 0.8891
-10.9513 24.8483 7.2760 0.8936
-55.2902 -16.5499 15.4644 0.7874
-24.6792 -39.6544 12.5151 0.8241
-10.3225 -31.6133 8.9109 0.8713
-5.6014 -28.3501 7.7432 0.8872
-3.0925 -41.4205 11.1295 0.8420
48.1952 -82.5978 25.6241 0.6730
44.8140 19.1543 13.0587 0.8172
36.0291 20.8428 11.1530 0.8417
35.5655 26.7577 11.9256 0.8317
4.6868 5.7403 1.9857 0.9698
-12.9982 22.6635 7.0005 0.8975
-17.3119 23.1901 7.7543 0.8871
-22.1489 23.2191 8.5982 0.8756
-57.0664 -16.1571 15.8919 0.7822
-47.4269 -26.9659 14.6185 0.7978
-16.2312 -33.5082 9.9764 0.8571
-10.8482 -31.6152 8.9561 0.8707
-3.7106 -41.3697 11.1295 0.8420
-55.4232 -17.4956 13.4178 0.7877
-60.9401 -37.0998 16.4712 0.7461
-4.9873 -27.3863 6.4266 0.8920
25.7639 -42.6777 11.5091 0.8149
60.9972 -27.6029 15.4571 0.7597
45.2648 20.1515 11.4390 0.8159
36.0336 21.5699 9.6956 0.8416
35.6179 35.2692 11.5724 0.8140
35.6781 45.0546 13.2681 0.7898
-8.2450 27.1752 6.5563 0.8900
-13.7514 23.1682 6.2200 0.8953
-17.8599 23.1935 6.7582 0.8868
-57.2998 -17.1514 13.8086 0.7823
-49.3999 -29.0722 13.2333 0.7903
-54.9479 -41.9862 15.9652 0.7529
-25.1636 -40.4328 10.9948 0.8224
-10.3225 -31.6133 7.6777 0.8724
-5.7328 -29.0151 6.8282 0.8857
60.9481 -28.6847 15.5515 0.7584
45.9673 19.6472 11.5413 0.8145
36.0291 20.8428 9.6095 0.8429
36.1143 34.7081 11.5639 0.8141
35.6697 43.6876 13.0209 0.7933
35.7486 56.4960 15.4350 0.7600
-7.6199 47.4899 11.1041 0.8208
-7.9351 27.6325 6.6373 0.8887
-12.9982 22.6636 6.0317 0.8983
-17.3119 23.1901 6.6812 0.8880
-55.3578 -15.6734 13.2827 0.7896
-26.0059 -40.4276 11.0978 0.8209
-6.2123 -29.1465 6.8801 0.8848
47.0471 -83.4689 22.1206 0.6748
31.7488 -43.1981 12.3769 0.8025
60.8983 -29.7800 15.6505 0.7571
-69.0061 -12.9301 13.6469 0.7512
-56.3524 -17.7889 11.4866 0.7860
-63.3890 -28.7892 13.5328 0.7530
-20.2448 -33.6387 7.6315 0.8522
-9.8037 -31.6165 6.4343 0.8738
-6.1374 -33.7018 6.6587 0.8697
39.3433 -87.4932 18.6473 0.6764
26.0889 -43.2159 9.8124 0.8141
33.0838 -42.3067 10.4395 0.8034
50.9950 -51.1161 14.0349 0.7451
60.9799 -47.9199 15.0753 0.7290
61.3512 -27.7631 13.0897 0.7600
36.0336 21.5699 8.1632 0.8427
35.5707 27.6029 8.7519 0.8324
35.6179 35.2692 9.7434 0.8153
3.9582 8.6607 1.8510 0.9619
2.7589 8.6681 1.7682 0.9636
1.6468 8.6749 1.7163 0.9647
-0.4651 8.6879 1.6912 0.9652
-1.5285 8.6944 1.7159 0.9647
-2.6400 8.7013 1.7675 0.9636
-3.8381 8.7086 1.8499 0.9620
-13.2746 22.3650 5.0554 0.8994
-54.1863 55.1323 15.0261 0.7298
-67.0904 -29.2700 14.2281 0.7421
-54.8484 -41.9102 13.4176 0.7548
-20.9326 -33.6344 7.7006 0.8509
-15.6869 -33.6565 7.2179 0.8596
0.6298 -13.6768 2.6613 0.9457
23.5740 -54.5897 11.5583 0.7848
25.7781 -44.1789 9.9425 0.8119
32.0271 -42.2403 10.3040 0.8057
13.3757 5.7170 2.8275 0.9424
36.0291 20.8428 8.0908 0.8440
35.5655 26.7577 8.6513 0.8341
36.1143 34.7081 9.7363 0.8154
36.3721 44.5478 11.1789 0.7911
35.7486 56.4961 12.9956 0.7615
4.1152 8.6597 1.8637 0.9617
1.7812 8.6741 1.7213 0.9646
0.7133 8.6806 1.6930 0.9651
-0.3351 8.6871 1.6899 0.9652
-2.4984 8.7004 1.7595 0.9638
-4.9987 8.7158 1.9530 0.9599
-17.3119 23.1901 5.6252 0.8888
-52.9691 55.5285 14.9169 0.7315
-77.7348 -12.1754 15.2943 0.7257
-56.0250 -15.8623 11.3182 0.7888
-16.2312 -33.5082 7.2372 0.8592
-3.0245 -33.7208 6.5810 0.8711
31.2193 -55.3879 12.3588 0.7718
-31.6933 -10.0047 5.2639 0.8741
-14.1714 -31.6299 5.4895 0.8690
-9.8036 -31.6165 5.2428 0.8745
-5.7622 -31.6413 5.0939 0.8779
-1.8878 -31.6413 5.0204 0.8795
23.9720 -53.3098 9.2578 0.7892
32.3823 -41.4097 8.3259 0.8082
61.2268 -27.7068 10.6441 0.7617
61.1426 18.8002 10.1315 0.7718
45.2649 20.1516 7.8476 0.8182
36.5756 28.3827 7.3326 0.8290
8.7168 8.6315 1.9429 0.9515
6.8443 8.6430 1.7461 0.9563
5.2957 8.6525 1.6067 0.9597
3.9582 8.6607 1.5082 0.9622
1.6468 8.6749 1.3985 0.9649
-0.4651 8.6879 1.3780 0.9654
-2.6400 8.7013 1.4402 0.9638
-3.8381 8.7086 1.5073 0.9622
-6.7196 8.7263 1.7444 0.9564
-76.9640 24.8131 12.8078 0.7207
-78.2690 -13.4593 12.5786 0.7250
-32.3522 -9.6839 5.3487 0.8722
-55.9740 -42.7702 11.1573 0.7518
-14.7407 -31.6264 5.5265 0.8682
-6.2511 -31.6383 5.1079 0.8776
-2.3622 -31.6384 5.0250 0.8794
23.4442 -54.2891 9.3660 0.7870
24.9197 -42.7078 7.8315 0.8185
52.8301 -42.8067 10.7695 0.7593
60.7951 -38.1518 11.3680 0.7478
74.6138 -24.6718 12.4470 0.7274
95.9338 15.7605 15.3981 0.6745
61.1365 17.8036 10.0853 0.7727
45.9675 19.6473 7.9176 0.8167
36.0291 20.8428 6.5925 0.8449
36.5702 27.5136 7.2484 0.8308
7.0557 8.6417 1.7670 0.9558
5.4743 8.6514 1.6215 0.9594
1.7812 8.6741 1.4025 0.9648
-0.3351 8.6871 1.3769 0.9654
-1.3949 8.6936 1.3945 0.9650
-3.6834 8.7077 1.4975 0.9624
-4.9987 8.7158 1.5914 0.9601
-6.5134 8.7251 1.7245 0.9569
-8.3159 8.7177 1.9082 0.9524
-80.3308 6.9031 12.7701 0.7214
-80.6447 -12.6312 12.9286 0.7185
-77.3155 -32.3655 13.2752 0.7122
-57.0265 -42.2409 11.2401 0.7502
-20.3224 -31.5923 5.9496 0.8589
-15.3179 -31.6229 5.5652 0.8674
-10.8482 -31.6152 5.2939 0.8734
-6.0102 -28.1983 4.5665 0.8898
31.9398 -77.1053 13.2186 0.7132
23.4716 -41.6423 7.5710 0.8240
28.6857 -39.0304 7.6718 0.8219
39.6411 -42.1826 9.1682 0.7910
60.8467 -29.7548 10.7277 0.7601
70.9725 -24.6494 11.8996 0.7377
-9.8037 -31.6166 4.0644 0.8751
24.8470 -41.1589 5.9031 0.8239
32.0890 -41.0346 6.3960 0.8106
42.0311 -42.1309 7.3071 0.7868
60.8028 -36.9029 8.7331 0.7508
67.8235 -4.3007 8.3444 0.7604
65.4015 3.7463 8.0435 0.7680
65.3971 11.7491 8.1583 0.7651
45.2648 20.1516 6.0837 0.8190
36.0336 21.5699 5.1565 0.8443
11.1041 8.6168 1.7258 0.9449
8.7168 8.6315 1.5062 0.9518
5.2957 8.6525 1.2456 0.9599
3.9582 8.6607 1.1692 0.9624
2.7589 8.6681 1.1169 0.9640
1.6468 8.6749 1.0842 0.9650
0.5830 8.6814 1.0683 0.9655
-0.4651 8.6879 1.0683 0.9655
-2.6400 8.7013 1.1165 0.9640
-5.1738 8.7168 1.2446 0.9600
-10.9683 8.7524 1.7230 0.9450
-62.6628 -36.8775 8.9275 0.7460
-20.9327 -33.6345 4.8643 0.8524
-15.6870 -33.6566 4.5593 0.8610
-10.3226 -31.6134 4.0833 0.8746
-6.6582 -33.6986 4.2177 0.8707
-2.6262 -35.1740 4.3308 0.8675
23.0432 -53.3606 7.1367 0.7912
24.3462 -41.7250 5.9315 0.8231
30.7417 -40.5449 6.2475 0.8146
60.7951 -38.1518 8.8128 0.7488
60.8511 -28.6390 8.2577 0.7626
65.2440 -13.1441 8.1719 0.7647
81.8025 13.4389 10.1787 0.7160
61.1365 17.8036 7.8184 0.7737
45.9675 19.6473 6.1381 0.8175
36.0292 20.8428 5.1107 0.8456
8.9612 8.6123 1.5261 0.9511
5.4743 8.6514 1.2571 0.9596
4.1152 8.6597 1.1772 0.9621
-1.3949 8.6936 1.0811 0.9651
-2.4984 8.7004 1.1114 0.9642
-3.6834 8.7077 1.1609 0.9626
-4.9987 8.7158 1.2337 0.9603
-6.5134 8.7251 1.3369 0.9571
-8.3336 8.7362 1.4824 0.9525
-10.6360 8.7504 1.6911 0.9460
-79.5006 -33.2802 10.5822 0.7066
-61.6228 -35.0373 8.7038 0.7515
-26.1313 -31.5216 5.0274 0.8479
-21.6333 -33.6302 4.9098 0.8512
-8.7374 -25.4637 3.3055 0.8972
-3.0245 -33.7209 4.1570 0.8725
0.5049 -16.2356 1.9944 0.9366
31.5001 -76.0438 10.1064 0.7177
27.3084 -48.4493 6.8287 0.7992
60.7873 -39.4242 8.8961 0.7468
60.8467 -29.7548 8.3165 0.7611
65.3409 -6.1068 8.0578 0.7676
-20.2448 -33.6387 3.4349 0.8542
-10.8635 -24.2468 2.3245 0.8988
-5.7685 -31.6762 2.8169 0.8787
26.8916 -86.3095 7.9091 0.6956
23.0763 -51.3180 4.9228 0.7978
32.9638 -42.1532 4.6817 0.8067
42.1092 -42.2093 5.2163 0.7871
53.8046 -42.2812 5.9868 0.7598
61.3066 -27.7429 5.8873 0.7632
60.4696 -18.9981 5.5454 0.7753
65.3478 3.7432 5.7266 0.7689
31.7113 5.6972 2.8188 0.8787
61.1426 18.8002 5.5964 0.7735
45.2649 20.1516 4.3349 0.8196
14.3614 8.5968 1.4644 0.9350
11.1041 8.6168 1.2297 0.9451
8.7168 8.6315 1.0732 0.9519
5.2957 8.6525 0.8875 0.9601
3.9582 8.6607 0.8331 0.9625
2.7589 8.6681 0.7958 0.9641
1.6468 8.6749 0.7725 0.9652
0.5830 8.6814 0.7612 0.9657
-1.5285 8.6944 0.7723 0.9652
-6.7196 8.7263 0.9636 0.9567
-8.5879 8.7378 1.0719 0.9520
-10.9683 8.7524 1.2277 0.9452
-14.2134 8.7724 1.4613 0.9351
-6.2580 -31.6732 2.8246 0.8784
-2.3666 -31.6970 2.7808 0.8802
24.3899 -56.4790 5.3823 0.7811
24.4452 -41.8946 4.2436 0.8230
32.1265 -42.3714 4.6521 0.8077
61.2019 -38.4071 6.3214 0.7482
60.8511 -28.6390 5.8839 0.7633
60.1935 -19.9036 5.5467 0.7753
65.2440 -13.1441 5.8228 0.7655
65.2933 -5.1201 5.7300 0.7688
60.8613 9.9986 5.3961 0.7806
61.1365 17.8036 5.5709 0.7744
11.4504 8.6147 1.2536 0.9441
8.9612 8.6123 1.0874 0.9513
7.0557 8.6417 0.9760 0.9562
5.4743 8.6514 0.8957 0.9597
4.1152 8.6597 0.8388 0.9622
2.9018 8.6672 0.7997 0.9640
1.7812 8.6741 0.7747 0.9651
0.7133 8.6806 0.7620 0.9656
-0.3351 8.6871 0.7606 0.9657
-1.3949 8.6936 0.7703 0.9653
-2.4984 8.7004 0.7919 0.9643
-4.9987 8.7158 0.8790 0.9605
-13.7452 8.7695 1.4265 0.9366
-18.3365 8.7977 1.7793 0.9216
-79.5241 -33.2900 7.5425 0.7074
-21.6333 -33.6302 3.4984 0.8517
-15.3011 -31.5880 3.0707 0.8685
-2.8396 -31.6592 2.7809 0.8802
0.5046 -16.2274 1.4204 0.9369
25.4746 -91.2735 8.2906 0.6835
22.9299 -55.3547 5.2420 0.7862
39.8349 -42.3888 5.0891 0.7917
60.8467 -29.7548 5.9258 0.7619
65.2377 -14.1597 5.8405 0.7649
65.2873 -6.1018 5.7368 0.7685
-32.9798 1.8441 1.7311 0.8761
-19.0727 -31.6911 1.9384 0.8623
-9.8037 -31.6166 1.7348 0.8758
-6.0825 -33.4004 1.7792 0.8729
-2.2029 -36.9221 1.9384 0.8623
26.9149 -86.3843 4.7419 0.6960
24.5719 -54.6440 3.1400 0.7866
61.1714 -37.1267 3.7501 0.7508
61.3066 -27.7429 3.5266 0.7637
69.4876 -4.4062 3.6490 0.7566
31.6879 5.6930 1.6873 0.8790
45.2648 20.1516 2.5967 0.8200
5.2957 8.6525 0.5316 0.9602
2.7556 8.6577 0.4762 0.9643
1.6443 8.6620 0.4621 0.9653
-2.6367 8.6906 0.4760 0.9643
-6.7196 8.7263 0.5772 0.9568
-10.9683 8.7524 0.7354 0.9453
-55.9816 -42.7760 3.6924 0.7541
-25.3506 -31.5264 2.1201 0.8504
-6.5986 -33.3972 1.7841 0.8725
-1.8151 -24.3109 1.2776 0.9070
25.8399 -87.5147 4.7822 0.6938
24.2963 -41.6394 2.5265 0.8244
40.8627 -42.2018 3.0786 0.7903
61.1637 -38.3831 3.7844 0.7488
54.9693 -18.1762 3.0342 0.7930
69.5649 2.9434 3.6490 0.7566
29.2075 8.5055 1.5943 0.8853
45.9675 19.6473 2.6198 0.8185
14.8552 8.5937 0.8994 0.9336
5.4743 8.6514 0.5365 0.9598
4.1152 8.6597 0.5025 0.9623
2.8992 8.6592 0.4786 0.9641
-0.3349 8.6809 0.4553 0.9658
-1.3931 8.6819 0.4608 0.9654
-2.4947 8.6875 0.4737 0.9644
-3.6834 8.7077 0.4955 0.9628
-6.5134 8.7251 0.5706 0.9573
-8.3336 8.7362 0.6327 0.9528
-13.7452 8.7695 0.8545 0.9368
-18.3365 8.7977 1.0659 0.9218
-20.3011 -31.5592 1.9666 0.8604
-7.1176 -33.3941 1.7894 0.8722
-2.1874 -24.3875 1.2832 0.9066
28.3124 -50.2306 3.0218 0.7938
39.6522 -42.1944 3.0345 0.7930
54.5336 -18.9400 3.0254 0.7936
68.0429 -14.7686 3.6490 0.7566
-18.7812 -31.2068 0.6358 0.8644
-5.6868 -31.2277 0.5540 0.8807
-2.4157 -40.4891 0.7080 0.8502
32.9639 -42.1534 0.9340 0.8073
35.4190 -27.8333 0.7863 0.8351
31.6772 5.6911 0.5618 0.8792
27.8174 8.5533 0.5080 0.8901
11.1041 8.6168 0.2453 0.9453
8.7112 8.6259 0.2140 0.9521
6.8246 8.6181 0.1919 0.9570
5.2718 8.6134 0.1763 0.9604
3.9582 8.6607 0.1662 0.9626
2.7589 8.6681 0.1588 0.9643
1.6468 8.6749 0.1541 0.9653
0.5818 8.6629 0.1516 0.9659
-0.4640 8.6668 0.1515 0.9659
-3.8381 8.7086 0.1661 0.9626
-5.1738 8.7168 0.1769 0.9603
-8.5879 8.7378 0.2139 0.9522
-10.9614 8.7470 0.2448 0.9454
-56.0696 -16.7832 1.0216 0.7912
-55.9941 -42.7856 1.2300 0.7543
-19.4193 -31.2029 0.6415 0.8633
-16.3240 -35.0233 0.6745 0.8568
-10.3225 -31.6134 0.5805 0.8754
-6.1694 -31.2247 0.5556 0.8804
-2.5466 -34.1087 0.5970 0.8721
37.7509 -87.4189 1.6621 0.6832
32.4116 -42.7474 0.9364 0.8069
37.9737 -39.2181 0.9529 0.8038
38.7376 -24.3097 0.7983 0.8328
91.7209 -18.4782 1.6333 0.6878
51.3554 8.4369 0.9084 0.8120
29.2075 8.5055 0.5310 0.8854
14.8552 8.5937 0.2996 0.9336
8.9612 8.6123 0.2169 0.9515
7.0409 8.6235 0.1943 0.9564
1.7812 8.6741 0.1546 0.9652
-0.3343 8.6660 0.1514 0.9659
-1.3881 8.6512 0.1529 0.9656
-2.4864 8.6585 0.1572 0.9646
-3.6834 8.7077 0.1650 0.9629
-4.9987 8.7158 0.1754 0.9606
-13.7060 8.7445 0.2838 0.9370
-55.9010 -15.8272 1.0141 0.7926
-72.5092 -30.3535 1.3721 0.7302
-20.0693 -31.1989 0.6475 0.8621
-16.6064 -34.2827 0.6649 0.8586
-6.6546 -31.2218 0.5572 0.8801
0.5045 -16.2219 0.2833 0.9371
36.2350 -87.4743 1.6527 0.6847
31.3070 -42.5970 0.9227 0.8094
35.4014 -29.5712 0.8051 0.8315
37.4983 -24.3199 0.7801 0.8363
91.3040 -19.8174 1.6308 0.6881
-52.2552 9.3148 -0.9265 0.8087
-70.3113 -4.5545 -1.2299 0.7544
-56.4123 -17.8077 -1.0326 0.7893
-72.0025 -32.7012 -1.3803 0.7288
-60.7745 -47.8922 -1.3506 0.7338
-8.9171 -19.9025 -0.3807 0.9164
27.5435 -88.4019 -1.6162 0.6904
35.3779 -35.4620 -0.8743 0.8184
35.4248 -27.8379 -0.7864 0.8351
40.0968 -24.3358 -0.8187 0.8289
53.9660 -24.4211 -1.0339 0.7890
72.2024 4.1358 -1.2624 0.7488
14.3614 8.5968 -0.2922 0.9352
11.1041 8.6168 -0.2453 0.9453
8.7112 8.6259 -0.2140 0.9521
6.8035 8.5915 -0.1913 0.9571
5.2429 8.5662 -0.1753 0.9606
3.9582 8.6607 -0.1662 0.9626
0.5818 8.6629 -0.1516 0.9659
-0.4629 8.6466 -0.1511 0.9660
-1.5158 8.6220 -0.1528 0.9656
-2.6144 8.6170 -0.1572 0.9646
-3.8381 8.7086 -0.1661 0.9626
-5.1738 8.7168 -0.1769 0.9603
-6.7196 8.7263 -0.1922 0.9569
-10.9614 8.7470 -0.2448 0.9454
-14.0468 8.6696 -0.2881 0.9361
-19.0709 8.8022 -0.3666 0.9194
-27.2132 8.7735 -0.4991 0.8919
-53.4712 10.3576 -0.9507 0.8042
-56.0066 -42.7952 -1.2303 0.7543
-20.5703 -25.5816 -0.5730 0.8769
-12.9242 -20.7665 -0.4269 0.9068
-6.3614 -19.4824 -0.3577 0.9213
-3.9040 -19.7589 -0.3516 0.9226
37.7509 -87.4189 -1.6621 0.6832
31.2397 -53.5391 -1.0820 0.7804
35.4195 -28.6994 -0.7957 0.8333
75.0175 -24.8053 -1.3792 0.7290
53.0031 8.7076 -0.9376 0.8066
28.8300 8.3956 -0.5241 0.8868
42.6649 18.2357 -0.8099 0.8306
14.8552 8.5937 -0.2996 0.9336
11.4504 8.6147 -0.2501 0.9443
7.0198 8.5978 -0.1937 0.9566
5.4196 8.5649 -0.1769 0.9603
4.1152 8.6597 -0.1674 0.9624
2.9018 8.6672 -0.1595 0.9641
-1.3844 8.6282 -0.1525 0.9656
-2.4743 8.6162 -0.1565 0.9648
-6.5134 8.7251 -0.1901 0.9574
-8.3336 8.7362 -0.2107 0.9528
-10.6360 8.7504 -0.2404 0.9464
-13.5928 8.6723 -0.2814 0.9375
-18.1039 8.6861 -0.3505 0.9228
-26.0956 8.8454 -0.4810 0.8956
-53.4661 11.1873 -0.9535 0.8037
-86.1347 -3.0005 -1.5044 0.7084
-56.2279 -15.9197 -1.0200 0.7915
-60.3194 -44.6800 -1.3102 0.7406
-13.6232 -21.1781 -0.4395 0.9042
30.2413 -53.6527 -1.0750 0.7816
37.4983 -24.3199 -0.7801 0.8363
49.8884 -24.3960 -0.9693 0.8008
-45.2704 2.5314 -2.3762 0.8339
-42.7499 -13.4949 -2.3494 0.8356
-43.3575 -19.6916 -2.4956 0.8263
-18.6828 -23.9582 -1.5922 0.8854
-12.2263 -20.3152 -1.2426 0.9094
-3.5947 -19.7392 -1.0515 0.9228
-1.2387 -20.7614 -1.0900 0.9201
26.0403 -33.2997 -2.2154 0.8442
40.8421 -18.4822 -2.3494 0.8356
45.4313 -14.2734 -2.4957 0.8263
47.6378 -3.0207 -2.5016 0.8260
31.5594 5.6699 -1.6804 0.8795
27.8174 8.5533 -1.5252 0.8900
30.6205 13.6320 -1.7566 0.8744
11.1041 8.6168 -0.7366 0.9453
6.7826 8.5651 -0.5726 0.9572
5.2143 8.5195 -0.5235 0.9608
3.9582 8.6607 -0.4990 0.9626
2.7589 8.6681 -0.4767 0.9642
-1.5123 8.6017 -0.4577 0.9656
-6.7196 8.7263 -0.5772 0.9568
-44.6471 8.6484 -2.3833 0.8335
-45.2446 3.2083 -2.3771 0.8339
-45.1722 -2.2493 -2.3703 0.8343
-42.9466 -12.8551 -2.3494 0.8356
-41.1382 -24.2101 -2.5016 0.8260
-37.9284 -28.9814 -2.5016 0.8260
-20.0991 -24.9956 -1.6809 0.8794
-3.8566 -19.5189 -1.0427 0.9234
1.0151 -22.0430 -1.1564 0.9154
18.9241 -43.8219 -2.5016 0.8260
24.0564 -41.2283 -2.5016 0.8260
31.1841 -32.2059 -2.3494 0.8356
34.8306 -28.2222 -2.3494 0.8356
46.7933 -9.4270 -2.5016 0.8260
47.5874 -3.7316 -2.5016 0.8260
31.5947 9.2007 -1.7246 0.8765
30.6118 13.0840 -1.7447 0.8752
14.8552 8.5937 -0.8994 0.9336
11.4504 8.6147 -0.7510 0.9442
8.9612 8.6123 -0.6514 0.9514
6.9989 8.5721 -0.5800 0.9566
5.3897 8.5178 -0.5283 0.9604
4.1152 8.6597 -0.5025 0.9623
1.7812 8.6741 -0.4641 0.9652
0.7124 8.6690 -0.4559 0.9658
-0.3327 8.6257 -0.4524 0.9660
-3.6834 8.7077 -0.4955 0.9628
-6.5134 8.7251 -0.5706 0.9573
-10.6360 8.7504 -0.7218 0.9463
-13.5382 8.6374 -0.8416 0.9377
-45.0071 3.8676 -2.3674 0.8345
-45.2028 -1.5747 -2.3704 0.8343
-43.1338 -12.2124 -2.3494 0.8356
-42.1245 -17.6340 -2.3933 0.8328
-38.3569 -28.4118 -2.5016 0.8260
-34.6620 -32.8181 -2.5016 0.8260
-28.6106 -34.5124 -2.3494 0.8356
-1.8378 -20.4897 -1.0781 0.9209
7.2102 -47.1858 -2.5016 0.8260
18.2676 -44.0996 -2.5016 0.8260
23.4381 -41.5829 -2.5016 0.8260
30.6997 -32.6679 -2.3494 0.8356
40.2720 -19.6935 -2.3494 0.8356
42.3479 -14.7078 -2.3494 0.8356
46.6473 -10.1247 -2.5016 0.8260
-20.7558 3.6998 -1.8445 0.9188
-26.8119 1.4993 -2.3494 0.8978
-26.0342 -11.8239 -2.5016 0.8915
-24.4234 -14.8688 -2.5016 0.8915
-22.4582 -17.6978 -2.5016 0.8915
-16.5134 -21.1762 -2.3494 0.8978
-8.6986 -19.4150 -1.8613 0.9181
-5.9822 -19.2926 -1.7672 0.9221
1.3347 -21.8702 -1.9170 0.9158
4.8471 -26.4127 -2.3494 0.8978
8.5056 -27.2991 -2.5016 0.8915
17.6139 -22.5241 -2.5016 0.8915
20.1946 -20.2426 -2.5016 0.8915
22.4823 -17.6673 -2.5016 0.8915
26.0503 -11.7885 -2.5016 0.8915
28.5361 -1.8095 -2.5016 0.8915
28.5466 1.6352 -2.5016 0.8915
24.5408 10.9254 -2.3502 0.8978
14.3614 8.5968 -1.4644 0.9350
11.1041 8.6168 -1.2297 0.9451
3.9582 8.6607 -0.8331 0.9625
1.6468 8.6749 -0.7725 0.9652
-0.4612 8.6139 -0.7547 0.9660
-1.5087 8.5816 -0.7623 0.9656
-3.8381 8.7086 -0.8326 0.9625
-5.1738 8.7168 -0.8868 0.9601
-10.9470 8.7354 -1.2253 0.9453
-13.7971 8.5155 -1.4185 0.9370
-26.7865 1.8994 -2.3494 0.8978
-28.1798 -4.8459 -2.5016 0.8915
-27.3926 -8.1993 -2.5016 0.8915
-26.2079 -11.4339 -2.5016 0.8915
-6.2820 -19.2390 -1.7706 0.9220
-3.8499 -19.4854 -1.7377 0.9233
-1.5516 -20.7818 -1.8232 0.9197
11.3359 -26.2504 -2.5016 0.8915
14.4103 -24.6967 -2.5016 0.8915
17.2756 -22.7846 -2.5016 0.8915
19.8901 -20.5419 -2.5016 0.8915
22.2160 -18.0009 -2.5016 0.8915
24.2194 -15.1988 -2.5016 0.8915
25.8714 -12.1761 -2.5016 0.8915
28.0303 -5.6470 -2.5016 0.8915
28.5679 1.2088 -2.5016 0.8915
25.7828 7.5082 -2.3494 0.8978
24.6928 10.5542 -2.3494 0.8978
14.8552 8.5937 -1.5015 0.9334
5.3642 8.4774 -0.8777 0.9605
1.7812 8.6741 -0.7747 0.9651
-1.3780 8.5879 -0.7609 0.9657
-3.6834 8.7077 -0.8272 0.9627
-6.5134 8.7251 -0.9526 0.9572
-8.3336 8.7362 -1.0563 0.9527
-10.6360 8.7504 -1.2050 0.9462
-17.6036 8.4461 -1.7082 0.9246
-26.7552 2.2992 -2.3494 0.8978
-26.8375 -0.9349 -2.3494 0.8978
-22.9767 -17.0193 -2.5016 0.8915
-20.7633 -19.6588 -2.5016 0.8915
-17.1384 -20.6737 -2.3494 0.8978
-13.4478 -20.9054 -2.1747 0.9050
-9.4504 -19.5098 -1.8966 0.9166
-6.6519 -19.3860 -1.7931 0.9210
4.0563 -26.5457 -2.3494 0.8978
10.9427 -26.4167 -2.5016 0.8915
16.9335 -23.0400 -2.5016 0.8915
21.9447 -18.3307 -2.5016 0.8915
23.9898 -15.5588 -2.5016 0.8915
25.6867 -12.5611 -2.5016 0.8915
27.0107 -9.3811 -2.5016 0.8915
27.9428 -6.0649 -2.5016 0.8915
28.4694 -2.6607 -2.5016 0.8915
-18.8374 3.3579 -2.3494 0.9258
-19.1045 1.0683 -2.3494 0.9258
-20.3313 -1.3170 -2.5016 0.9212
-19.4289 -6.1331 -2.5016 0.9212
-16.0024 -12.6104 -2.5016 0.9212
-14.3698 -14.4432 -2.5016 0.9212
-7.8236 -17.4618 -2.3494 0.9258
-3.4282 -18.8247 -2.3494 0.9258
-1.1396 -19.1004 -2.3494 0.9258
8.3557 -18.5817 -2.5016 0.9212
14.3894 -14.4236 -2.5016 0.9212
18.5618 -8.3997 -2.5016 0.9212
20.3406 1.1651 -2.5016 0.9212
20.0386 3.6001 -2.4998 0.9212
8.1934 2.5193 -1.0525 0.9660
11.1041 8.6168 -1.7258 0.9449
5.1053 8.3413 -1.2008 0.9614
3.9582 8.6607 -1.1692 0.9624
-2.5772 8.4945 -1.0899 0.9649
-5.1738 8.7168 -1.2446 0.9600
-6.7196 8.7263 -1.3523 0.9566
-8.5879 8.7378 -1.5043 0.9518
-10.9470 8.7354 -1.7196 0.9451
-13.4540 8.3037 -1.9412 0.9383
-17.3746 8.0193 -2.3496 0.9258
-18.7852 3.6388 -2.3494 0.9258
-20.0792 -3.4529 -2.5016 0.9212
-16.1889 -12.3700 -2.5016 0.9212
-14.5839 -14.2270 -2.5016 0.9212
-5.9392 -18.1892 -2.3494 0.9258
-3.7089 -18.7715 -2.3494 0.9258
-1.4246 -19.0812 -2.3494 0.9258
0.7388 -16.0424 -1.9718 0.9373
5.7658 -19.5275 -2.5000 0.9212
8.0773 -18.7044 -2.5016 0.9212
10.2679 -17.5973 -2.5016 0.9212
12.3095 -16.2349 -2.5016 0.9212
17.2573 -10.8298 -2.5016 0.9212
20.3116 -1.5928 -2.5016 0.9212
20.3557 0.8613 -2.5016 0.9212
8.2876 2.4134 -1.0599 0.9658
8.0877 3.4568 -1.0800 0.9652
6.9100 8.4633 -1.3415 0.9569
5.3051 8.3840 -1.2182 0.9608
4.1152 8.6597 -1.1772 0.9621
1.7812 8.6741 -1.0873 0.9649
-2.4415 8.5020 -1.0861 0.9650
-4.9987 8.7158 -1.2337 0.9603
-6.5134 8.7251 -1.3369 0.9571
-10.6360 8.7504 -1.6911 0.9460
-13.1614 8.3971 -1.9169 0.9390
-19.0641 1.6382 -2.3494 0.9258
-20.3616 -0.7093 -2.5016 0.9212
-19.6033 -5.5503 -2.5016 0.9212
-6.2102 -18.0986 -2.3494 0.9258
-3.9887 -18.7140 -2.3494 0.9258
0.4989 -16.0411 -1.9705 0.9374
2.8903 -18.9148 -2.3494 0.9258
5.4627 -19.5726 -2.4951 0.9214
15.6365 -13.0613 -2.5016 0.9212
-14.6033 2.6031 -2.3494 0.9417
-15.7699 0.8818 -2.5016 0.9380
-15.0619 -4.7546 -2.5016 0.9380
-14.3808 -6.5313 -2.5016 0.9380
-9.7126 -12.4551 -2.5016 0.9380
0.9456 -15.4947 -2.4587 0.9391
4.6983 -15.0795 -2.5016 0.9380
8.1628 -13.5216 -2.5016 0.9380
13.5022 -8.1949 -2.5016 0.9380
15.0683 -4.7341 -2.5016 0.9380
15.5282 -2.8878 -2.5016 0.9380
7.2280 3.2179 -1.2531 0.9685
7.7679 12.6918 -2.3568 0.9415
3.9582 8.6607 -1.5082 0.9622
2.7589 8.6681 -1.4408 0.9638
0.5785 8.6137 -1.3673 0.9656
-0.4569 8.5340 -1.3536 0.9660
-1.4911 8.4812 -1.3639 0.9657
-3.8381 8.7086 -1.5073 0.9622
-8.5879 8.7378 -1.9405 0.9516
-10.9470 8.7354 -2.2182 0.9449
-12.6229 7.7908 -2.3494 0.9417
-15.7549 1.1172 -2.5016 0.9380
-15.7750 -0.7855 -2.5016 0.9380
-15.5660 -2.6767 -2.5016 0.9380
-15.1312 -4.5292 -2.5016 0.9380
-13.6122 -8.0109 -2.5016 0.9380
-12.5501 -9.5896 -2.5016 0.9380
-8.3456 -13.4096 -2.5016 0.9380
-6.6725 -14.3158 -2.5016 0.9380
-2.8891 -14.6226 -2.3608 0.9414
0.7089 -15.3935 -2.4407 0.9395
2.6186 -15.5759 -2.5016 0.9380
4.4727 -15.1479 -2.5016 0.9380
6.2618 -14.5002 -2.5016 0.9380
9.5427 -12.5858 -2.5016 0.9380
10.9869 -11.3469 -2.5016 0.9380
12.2717 -9.9434 -2.5016 0.9380
13.3784 -8.3956 -2.5016 0.9380
14.9959 -4.9585 -2.5016 0.9380
15.4834 -3.1193 -2.5016 0.9380
15.7461 -1.2347 -2.5016 0.9380
15.7804 0.6677 -2.5016 0.9380
15.5856 2.5605 -2.5016 0.9380
7.7078 2.2446 -1.2715 0.9680
12.8398 7.4278 -2.3494 0.9417
11.8535 8.9179 -2.3494 0.9417
8.9612 8.6123 -1.9685 0.9509
5.1592 8.1534 -1.5282 0.9617
4.1152 8.6597 -1.5186 0.9619
2.9018 8.6672 -1.4476 0.9637
0.7098 8.6381 -1.3727 0.9655
-0.3294 8.5402 -1.3536 0.9660
-4.9987 8.7158 -1.5914 0.9601
-12.5052 7.9784 -2.3494 0.9417
-14.0484 4.7619 -2.3494 0.9417
-15.6042 -2.4440 -2.5016 0.9380
-14.5694 -6.0990 -2.5016 0.9380
-13.7303 -7.8067 -2.5016 0.9380
-12.6919 -9.4012 -2.5016 0.9380
-11.4693 -10.8592 -2.5016 0.9380
-8.5449 -13.2835 -2.5016 0.9380
-6.8855 -14.2146 -2.5016 0.9380
-1.3274 -14.7995 -2.3534 0.9416
0.4758 -15.2985 -2.4242 0.9399
2.3858 -15.6133 -2.5016 0.9380
6.0446 -14.5921 -2.5016 0.9380
9.3537 -12.7269 -2.5016 0.9380
13.2515 -8.5944 -2.5016 0.9380
14.1888 -6.9385 -2.5016 0.9380
15.4351 -3.3501 -2.5016 0.9380
15.7260 -1.4697 -2.5016 0.9380
-12.6699 2.2585 -2.5016 0.9489
-12.8496 0.7185 -2.5016 0.9489
-12.8427 -0.8319 -2.5016 0.9489
-12.2727 -3.8741 -2.5016 0.9489
-11.7177 -5.3218 -2.5016 0.9489
-10.9928 -6.6923 -2.5016 0.9489
-10.1082 -7.9656 -2.5016 0.9489
-9.0770 -9.1233 -2.5016 0.9489
-5.2621 -11.7447 -2.5016 0.9489
-3.8116 -12.2922 -2.5016 0.9489
-2.3058 -12.6614 -2.5016 0.9489
-0.7665 -12.8468 -2.5016 0.9489
0.7839 -12.8457 -2.5016 0.9489
3.8283 -12.2870 -2.5016 0.9489
5.2780 -11.7375 -2.5016 0.9489
7.9278 -10.1379 -2.5016 0.9489
9.0894 -9.1110 -2.5016 0.9489
10.1191 -7.9519 -2.5016 0.9489
11.7250 -5.3059 -2.5016 0.9489
12.2779 -3.8574 -2.5016 0.9489
12.6527 -2.3530 -2.5016 0.9489
12.6668 2.2757 -2.5016 0.9489
7.1402 2.1955 -1.4520 0.9700
10.3706 6.2079 -2.3494 0.9519
9.5488 7.4099 -2.3494 0.9519
6.4924 8.1987 -2.0328 0.9583
6.3096 10.3090 -2.3494 0.9519
3.9582 8.6607 -1.8510 0.9619
2.7589 8.6681 -1.7682 0.9636
1.6468 8.6749 -1.7163 0.9647
-0.4531 8.4633 -1.6475 0.9661
-1.4786 8.4104 -1.6599 0.9658
-2.4830 8.1839 -1.6624 0.9658
-6.7196 8.7263 -2.1408 0.9561
-11.5036 3.7088 -2.3494 0.9519
-12.6333 2.4471 -2.5013 0.9489
-12.8374 0.9103 -2.5016 0.9489
-12.8537 -0.6400 -2.5016 0.9489
-11.0915 -6.5274 -2.5016 0.9489
-10.2260 -7.8138 -2.5016 0.9489
-8.0647 -10.0294 -2.5016 0.9489
-3.9947 -12.2340 -2.5016 0.9489
-2.4946 -12.6255 -2.5016 0.9489
-0.9582 -12.8339 -2.5016 0.9489
0.5920 -12.8560 -2.5016 0.9489
2.1337 -12.6915 -2.5016 0.9489
6.4860 -11.1157 -2.5016 0.9489
9.9992 -8.1020 -2.5016 0.9489
11.6444 -5.4803 -2.5016 0.9489
12.8302 -1.0061 -2.5016 0.9489
12.8581 0.5441 -2.5016 0.9489
6.7238 2.8739 -1.4213 0.9706
10.4621 6.0523 -2.3494 0.9519
9.6584 7.2665 -2.3494 0.9519
8.7145 8.3752 -2.3494 0.9519
6.4628 10.2137 -2.3494 0.9519
2.9018 8.6672 -1.7767 0.9634
-0.3267 8.4694 -1.6475 0.9661
-4.9987 8.7158 -1.9530 0.9599
-9.3338 7.6790 -2.3494 0.9519
-11.4469 3.8801 -2.3494 0.9519
-12.5811 2.6325 -2.4985 0.9490
-12.7146 -1.9915 -2.5016 0.9489
-12.3829 -3.5060 -2.5016 0.9489
-6.9625 -10.8236 -2.5016 0.9489
-5.6104 -11.5823 -2.5016 0.9489
-1.1497 -12.8182 -2.5016 0.9489
0.4000 -12.8634 -2.5016 0.9489
3.4597 -12.3959 -2.5016 0.9489
4.9252 -11.8899 -2.5016 0.9489
7.6216 -10.3701 -2.5016 0.9489
8.8133 -9.3783 -2.5016 0.9489
10.7976 -7.0029 -2.5016 0.9489
11.5613 -5.6536 -2.5016 0.9489
12.1573 -4.2223 -2.5016 0.9489
12.8138 -1.1976 -2.5016 0.9489
-10.6503 -1.9956 -2.5016 0.9565
-7.6424 -7.6814 -2.5016 0.9565
-6.6633 -8.5447 -2.5016 0.9565
-5.5874 -9.2840 -2.5016 0.9565
-0.6453 -10.8164 -2.5016 0.9565
0.6600 -10.8155 -2.5016 0.9565
3.2232 -10.3451 -2.5016 0.9565
4.4439 -9.8825 -2.5016 0.9565
9.8719 -4.4673 -2.5016 0.9565
10.3374 -3.2478 -2.5016 0.9565
10.6530 -1.9811 -2.5016 0.9565
10.8139 -0.6857 -2.5016 0.9565
10.6649 1.9160 -2.5016 0.9565
6.7049 2.9850 -1.6944 0.9703
5.3124 8.6797 -2.3494 0.9591
2.7589 8.6681 -2.1001 0.9633
1.6468 8.6749 -2.0385 0.9644
0.5785 8.6137 -1.9931 0.9652
-0.4509 8.4228 -1.9473 0.9660
-1.4567 8.2858 -1.9423 0.9661
-3.8381 8.7086 -2.1971 0.9617
-5.1941 8.7510 -2.3494 0.9591
-6.2087 8.0629 -2.3494 0.9591
-7.1333 7.2578 -2.3494 0.9591
-8.6598 5.3448 -2.3494 0.9591
-9.2397 4.2646 -2.3494 0.9591
-10.6379 2.0606 -2.5016 0.9565
-10.3806 -3.1072 -2.5016 0.9565
-9.9316 -4.3329 -2.5016 0.9565
-8.6099 -6.5789 -2.5016 0.9565
-7.7562 -7.5665 -2.5016 0.9565
-2.1003 -10.6301 -2.5016 0.9565
1.7965 -10.6857 -2.5016 0.9565
4.2958 -9.9477 -2.5016 0.9565
7.5375 -7.7844 -2.5016 0.9565
8.4189 -6.8215 -2.5016 0.9565
9.8041 -4.6142 -2.5016 0.9565
10.8025 -0.8471 -2.5016 0.9565
10.8259 0.4581 -2.5016 0.9565
7.1222 2.0741 -1.7126 0.9700
6.7108 2.8683 -1.6849 0.9705
8.8086 5.0958 -2.3494 0.9591
8.1319 6.1181 -2.3494 0.9591
6.4360 7.8827 -2.3494 0.9591
-3.6834 8.7077 -2.1828 0.9619
-5.0629 8.8276 -2.3494 0.9591
-7.0241 7.3635 -2.3494 0.9591
-8.5790 5.4735 -2.3494 0.9591
-9.1750 4.4021 -2.3494 0.9591
-10.2040 3.4588 -2.4874 0.9567
-10.7958 0.9277 -2.5016 0.9565
-10.7051 -1.6767 -2.5016 0.9565
-10.4258 -2.9518 -2.5016 0.9565
-6.9154 -8.3419 -2.5016 0.9565
-5.8621 -9.1130 -2.5016 0.9565
-4.7237 -9.7518 -2.5016 0.9565
-0.9680 -10.7923 -2.5016 0.9565
1.6367 -10.7113 -2.5016 0.9565
2.9129 -10.4367 -2.5016 0.9565
4.1468 -10.0107 -2.5016 0.9565
8.3161 -6.9465 -2.5016 0.9565
9.7341 -4.7601 -2.5016 0.9565
10.2359 -3.5550 -2.5016 0.9565
10.5891 -2.2983 -2.5016 0.9565
-9.1912 1.6384 -2.5016 0.9621
-9.3166 -0.6035 -2.5016 0.9621
-8.5005 -3.8606 -2.5016 0.9621
-7.3329 -5.7786 -2.5016 0.9621
-6.5848 -6.6184 -2.5016 0.9621
-3.8173 -8.5200 -2.5016 0.9621
-1.6727 -9.1850 -2.5016 0.9621
-0.5560 -9.3195 -2.5016 0.9621
2.7772 -8.9135 -2.5016 0.9621
3.8289 -8.5148 -2.5016 0.9621
4.8250 -7.9926 -2.5016 0.9621
5.7511 -7.3544 -2.5016 0.9621
6.5938 -6.6094 -2.5016 0.9621
7.3407 -5.7686 -2.5016 0.9621
9.3174 -0.5908 -2.5016 0.9621
6.9271 5.3754 -2.3494 0.9643
5.4433 6.8739 -2.3494 0.9643
3.6447 7.9747 -2.3494 0.9643
1.6353 8.6143 -2.3494 0.9643
-2.5456 8.3904 -2.3494 0.9643
-6.8535 5.4689 -2.3494 0.9643
-8.2900 3.8263 -2.4465 0.9629
-9.1657 1.7754 -2.5016 0.9621
-9.3127 0.6604 -2.5016 0.9621
-8.5572 -3.7333 -2.5016 0.9621
-8.0462 -4.7352 -2.5016 0.9621
-7.4184 -5.6684 -2.5016 0.9621
-4.9093 -7.8883 -2.4896 0.9623
-3.9441 -8.4621 -2.5016 0.9621
-0.6951 -9.3102 -2.5016 0.9621
0.4295 -9.3262 -2.5016 0.9621
3.7013 -8.5711 -2.5016 0.9621
4.7052 -8.0638 -2.5016 0.9621
6.4944 -6.7072 -2.5016 0.9621
7.9079 -4.9626 -2.5016 0.9621
8.8641 -2.9310 -2.5016 0.9621
9.1522 -1.8438 -2.5016 0.9621
9.3075 -0.7299 -2.5016 0.9621
6.6838 2.8568 -1.9476 0.9703
6.3218 6.0757 -2.3494 0.9643
5.5453 6.7918 -2.3494 0.9643
4.6884 7.4094 -2.3494 0.9643
2.7837 8.3145 -2.3494 0.9643
1.7637 8.5889 -2.3494 0.9643
-0.3380 8.7616 -2.3494 0.9643
-1.3891 8.6574 -2.3494 0.9643
-2.4201 8.4275 -2.3494 0.9643
-4.3622 7.6060 -2.3494 0.9643
-7.3918 4.7160 -2.3494 0.9643
-8.0657 3.8699 -2.3971 0.9636
-8.8420 2.9971 -2.5016 0.9621
-9.1382 1.9121 -2.5016 0.9621
-9.3018 0.7993 -2.5016 0.9621
-9.2237 -1.4447 -2.5016 0.9621
-7.5022 -5.5570 -2.5016 0.9621
-6.7795 -6.4188 -2.5016 0.9621
-5.0325 -7.8234 -2.4925 0.9622
0.2902 -9.3316 -2.5016 0.9621
2.5098 -8.9924 -2.5016 0.9621
5.5290 -7.5228 -2.5016 0.9621
6.3935 -6.8034 -2.5016 0.9621
7.1652 -5.9852 -2.5016 0.9621
8.8193 -3.0630 -2.5016 0.9621
