ply
format ascii 1.0
element vertex 741
property float32 x
property float32 y
property float32 z
property float32 I
end_header
-40.2587 -9.8989 11.1086 0.8422
-13.5633 -25.5716 7.7561 0.8870
-7.2618 -28.7878 7.9553 0.8843
39.8067 20.1003 11.9489 0.8314
8.5168 5.6764 2.7425 0.9585
31.9523 34.8302 12.6649 0.8222
32.6967 59.6021 18.2156 0.7546
-11.3773 32.1358 9.1345 0.8683
-13.3590 26.9257 8.0539 0.8830
-19.5896 23.2041 8.1369 0.8818
-24.4339 22.7339 8.9426 0.8709
-40.3610 -8.7269 11.0646 0.8428
-52.0477 -25.3681 15.5145 0.7868
-19.0728 -33.6357 10.3608 0.8520
-6.4110 -41.0386 11.1296 0.8420
27.9235 -43.8759 13.9355 0.8062
40.8606 19.2085 12.0980 0.8295
9.3510 5.8591 2.9568 0.9553
31.9969 42.0725 14.1631 0.8034
33.0856 56.4796 17.5391 0.7626
-1.9183 5.9453 1.6739 0.9745
-60.1209 -14.7825 14.2934 0.7756
-64.1365 -33.5268 16.7081 0.7430
-16.7682 -31.6139 8.2618 0.8634
44.0061 -85.6464 22.2304 0.6735
28.7642 -42.5059 11.8490 0.8100
54.1378 19.5969 13.2923 0.7895
8.5306 5.6856 2.3668 0.9588
31.9523 34.8302 10.9122 0.8236
-11.3774 32.1358 7.8704 0.8694
-15.9819 24.3486 6.7241 0.8873
-40.3913 -8.7334 9.5405 0.8440
-53.3649 -26.0102 13.7058 0.7837
-17.9223 -31.6068 8.3885 0.8614
-12.6477 -30.2902 7.5782 0.8739
-9.4716 -33.5369 8.0454 0.8667
27.6388 -43.4286 11.8846 0.8095
36.4805 -44.4666 13.2786 0.7897
57.0925 -32.9070 15.2135 0.7630
92.6667 18.6749 21.8239 0.6784
32.3627 20.2776 8.8170 0.8549
31.8967 25.7946 9.4705 0.8450
32.9469 33.9443 10.9211 0.8235
31.9969 42.0725 12.2031 0.8049
-60.5339 -14.8841 12.1171 0.7757
19.8829 -53.7429 11.1386 0.7918
37.2695 -42.9057 11.0471 0.7933
48.8844 -44.2157 12.8125 0.7645
57.1273 -30.8179 12.6172 0.7676
58.7183 13.5640 11.7142 0.7823
39.7139 20.0534 8.6479 0.8342
32.4410 21.6219 7.5781 0.8531
32.9114 28.1840 8.4225 0.8381
4.7430 8.6459 1.9169 0.9606
-0.8692 8.6904 1.6977 0.9650
-1.9446 8.6970 1.7323 0.9643
-4.3218 8.7108 1.8902 0.9612
-15.9819 24.3486 5.6614 0.8881
-19.5896 23.2041 5.9028 0.8836
-57.8573 53.8317 15.3613 0.7247
-53.2975 -25.9773 11.5250 0.7854
29.5765 -87.4334 17.9414 0.6865
35.0047 -42.6678 10.7277 0.7986
47.3676 -45.3326 12.7445 0.7655
57.3472 -42.9798 13.9304 0.7467
93.0778 18.7578 18.4562 0.6792
57.4809 18.9945 11.7674 0.7814
42.2088 19.8422 9.0659 0.8269
32.9017 26.6074 8.2250 0.8416
32.9469 33.9443 9.1951 0.8247
33.0051 43.3981 10.5982 0.8008
5.0694 8.6539 1.9495 0.9600
2.5807 8.6692 1.7582 0.9638
0.4236 8.6824 1.6897 0.9652
-1.6888 8.6954 1.7218 0.9645
-1.9176 5.9431 1.2139 0.9749
-4.0198 8.7097 1.8646 0.9617
-23.9511 2.8824 3.8209 0.9069
-82.8168 -31.3036 14.0226 0.6987
-67.1694 -35.1122 12.0045 0.7357
-58.9664 -40.5113 11.3311 0.7485
-21.9535 -31.5471 6.0874 0.8559
-16.7682 -31.6139 5.6679 0.8651
-12.1757 -31.6368 5.3691 0.8717
-7.9782 -31.6276 5.1662 0.8763
19.9980 -54.0541 9.1284 0.7918
26.8532 -39.6819 7.5888 0.8236
36.6092 -42.1456 8.8419 0.7976
47.3825 -42.8573 10.1191 0.7720
62.8546 -24.6995 10.6963 0.7607
60.6159 14.0023 9.8534 0.7773
54.1379 19.5969 9.1191 0.7920
39.8068 20.1003 7.0630 0.8348
32.3707 21.5750 6.1614 0.8542
3.4751 8.6637 1.4785 0.9629
2.3175 8.6708 1.4215 0.9643
1.2302 8.6739 1.3876 0.9651
0.1789 8.6839 1.3757 0.9654
-0.8692 8.6904 1.3833 0.9652
-3.0815 8.7040 1.4624 0.9633
-4.3222 8.7116 1.5403 0.9614
-5.7238 8.7202 1.6521 0.9586
-57.5861 53.5795 12.4580 0.7272
-81.7376 45.5912 14.8236 0.6845
-67.8055 -33.0486 11.9471 0.7368
-82.4783 -53.3103 15.5545 0.6718
-24.8224 -33.6105 6.6178 0.8443
-17.9223 -31.6068 5.7548 0.8632
-8.9405 -31.6566 5.2100 0.8753
-2.9055 -83.7564 13.2737 0.7122
25.0462 -39.3548 7.3884 0.8279
34.5909 -42.1633 8.6378 0.8018
44.8503 -42.9235 9.8326 0.7777
57.6126 -33.2068 10.5322 0.7639
67.1474 13.5321 10.8489 0.7577
57.5811 19.0276 9.6050 0.7822
32.9017 26.6074 6.7019 0.8425
8.3670 8.6203 1.9027 0.9525
3.7608 8.6619 1.4956 0.9625
2.5807 8.6692 1.4326 0.9640
-1.6888 8.6954 1.4030 0.9648
-82.5047 43.0197 11.4247 0.6873
-23.9587 2.8833 2.9630 0.9073
-61.9117 -15.2229 7.8282 0.7734
-80.5185 -55.3182 11.9948 0.6746
-23.1115 -33.2112 4.9680 0.8495
-12.9544 -33.6600 4.4284 0.8647
-8.4977 -33.6873 4.2658 0.8693
21.2368 -41.3318 5.7056 0.8292
26.6792 -39.4248 5.8450 0.8254
57.1771 -30.8448 7.9769 0.7697
61.6171 -16.0053 7.8167 0.7737
61.7462 -8.3143 7.6499 0.7780
61.8186 -0.8382 7.5911 0.7795
12.8925 8.5928 1.9024 0.9395
7.9228 8.6363 1.4390 0.9539
6.1998 8.6469 1.3064 0.9580
2.3175 8.6708 1.1020 0.9645
1.2302 8.6739 1.0757 0.9653
0.1789 8.6839 1.0665 0.9656
-0.8692 8.6904 1.0724 0.9654
-1.9446 8.6970 1.0942 0.9647
-4.3222 8.7116 1.1941 0.9616
-5.7238 8.7202 1.2808 0.9588
-9.3966 8.7428 1.5759 0.9496
-12.0364 8.7590 1.8278 0.9418
-29.7573 -31.5345 5.3237 0.8397
-13.1928 -31.5957 4.2041 0.8711
-6.2450 -39.9766 4.9680 0.8495
26.5342 -78.4400 10.1673 0.7163
44.2524 -42.3513 7.5209 0.7813
61.5521 -17.8525 7.8691 0.7724
64.2181 5.0563 7.9094 0.7714
57.5811 19.0276 7.4461 0.7832
42.2089 19.8423 5.7267 0.8286
10.6586 8.6195 1.6831 0.9463
1.4807 8.6759 1.0807 0.9652
0.4236 8.6824 1.0673 0.9656
-1.6888 8.6954 1.0876 0.9649
-1.9164 5.9394 0.7663 0.9752
-4.0198 8.7097 1.1778 0.9621
-16.8551 8.7886 1.6631 0.9265
-23.9853 2.8865 2.1136 0.9076
-12.1758 -31.6368 2.9658 0.8727
22.8739 -95.9365 8.6286 0.6730
22.4572 -43.7070 4.2991 0.8209
28.6234 -42.2978 4.4683 0.8146
36.6766 -42.2231 4.8931 0.7989
45.2515 -40.9299 5.3382 0.7827
59.8220 -42.2579 6.4078 0.7452
57.6256 -31.0867 5.7284 0.7688
61.6109 -8.2961 5.4389 0.7791
61.6568 -0.8360 5.3948 0.7807
58.7181 13.5639 5.2724 0.7851
54.1380 19.5969 5.0372 0.7936
39.8068 20.1003 3.9015 0.8361
10.0695 8.6231 1.1599 0.9482
6.1998 8.6469 0.9309 0.9582
3.4751 8.6637 0.8167 0.9632
2.3175 8.6708 0.7852 0.9646
1.2302 8.6739 0.7665 0.9654
-1.9446 8.6970 0.7797 0.9648
-3.0816 8.7040 0.8078 0.9636
-9.3966 8.7428 1.1229 0.9498
-15.7443 8.7818 1.5772 0.9302
-13.1928 -31.5957 2.9956 0.8716
18.4602 -54.5716 5.0402 0.7935
20.5961 -43.0233 4.1731 0.8257
34.5909 -42.1633 4.7714 0.8033
54.8904 -41.1385 6.0013 0.7592
57.9127 -24.6616 5.5070 0.7767
61.6461 -2.5730 5.3980 0.7806
61.7384 12.4420 5.5100 0.7766
57.4809 18.9945 5.2964 0.7842
42.2089 19.8423 4.0805 0.8292
6.5744 8.6446 0.9502 0.9573
-0.6226 8.6888 0.7621 0.9656
-1.6888 8.6954 0.7750 0.9651
-1.9157 5.9373 0.5458 0.9753
-4.0198 8.7097 0.8392 0.9622
-28.1219 -31.5346 2.2144 0.8443
-16.2204 -30.5811 1.8142 0.8705
21.9310 -42.6830 2.5149 0.8251
28.4731 -42.0757 2.6625 0.8159
34.4013 -24.3008 2.2073 0.8448
50.1874 -19.7218 2.8260 0.8057
66.6229 -8.9710 3.5231 0.7639
66.5696 -0.9026 3.4891 0.7659
66.5171 7.1265 3.5060 0.7649
60.6157 14.0023 3.2604 0.7794
54.1380 19.5969 3.0174 0.7940
12.9118 8.6057 0.8132 0.9397
10.0695 8.6231 0.6948 0.9483
7.9228 8.6363 0.6142 0.9541
6.1998 8.6469 0.5576 0.9583
4.7484 8.6558 0.5174 0.9612
2.3129 8.6535 0.4694 0.9648
1.2302 8.6739 0.4591 0.9655
0.1788 8.6783 0.4549 0.9658
-0.8684 8.6824 0.4573 0.9657
-1.9409 8.6801 0.4661 0.9650
-4.3222 8.7116 0.5097 0.9618
-7.3704 8.7303 0.5988 0.9553
-9.3966 8.7428 0.6726 0.9499
-15.7443 8.7818 0.9448 0.9303
-21.5423 8.8174 1.2199 0.9110
-23.2925 -31.5390 2.0548 0.8547
-17.3368 -30.5742 1.8420 0.8687
-13.1928 -31.5957 1.7944 0.8718
-5.7094 -36.5475 1.9386 0.8623
-2.1764 -62.7395 3.2900 0.7777
26.4131 -78.0821 4.3199 0.7188
24.4290 -51.0297 2.9650 0.7972
26.7809 -42.0806 2.6141 0.8189
34.5908 -42.1632 2.8581 0.8038
44.1171 -42.2218 3.2003 0.7830
32.4079 -24.2886 2.1225 0.8503
57.6126 -33.2068 3.4850 0.7662
66.6922 -19.3433 3.6392 0.7572
66.6357 -10.8907 3.5386 0.7630
66.5819 -2.7790 3.4924 0.7657
66.5294 5.2383 3.4974 0.7654
42.2089 19.8423 2.4443 0.8296
32.3628 20.2777 2.0015 0.8582
10.6586 8.6195 0.7184 0.9466
6.5744 8.6446 0.5692 0.9574
5.0694 8.6539 0.5256 0.9606
3.7608 8.6619 0.4949 0.9629
2.5767 8.6558 0.4733 0.9645
0.4233 8.6765 0.4553 0.9658
-0.6221 8.6820 0.4562 0.9657
-12.7843 8.7636 0.2705 0.9399
-16.8194 8.7700 0.3311 0.9269
-58.2069 -14.3119 1.0463 0.7868
-18.7450 -35.3409 0.6983 0.8521
-12.0034 -31.1889 0.5833 0.8749
-7.8739 -31.2142 0.5619 0.8792
-5.1599 -40.4722 0.7122 0.8494
27.6993 -53.9095 1.0579 0.7847
28.9131 -42.7259 0.9005 0.8135
34.0446 -39.1931 0.9062 0.8125
34.4013 -24.3008 0.7352 0.8449
45.1693 -24.3670 0.8958 0.8144
47.8781 -18.8143 0.8979 0.8140
88.1334 9.4424 1.5472 0.7015
58.7181 13.5639 1.0519 0.7858
32.0447 16.1808 0.6266 0.8662
10.0695 8.6231 0.2314 0.9483
7.9228 8.6363 0.2046 0.9542
6.1998 8.6469 0.1857 0.9583
3.4669 8.6434 0.1626 0.9634
2.3063 8.6289 0.1559 0.9649
1.2302 8.6739 0.1529 0.9656
-0.8692 8.6904 0.1524 0.9657
-3.0751 8.6857 0.1608 0.9638
-5.6983 8.6815 0.1813 0.9593
-9.3966 8.7428 0.2240 0.9499
-12.0364 8.7590 0.2598 0.9422
-40.6753 -8.7949 0.7264 0.8466
-65.3893 -31.8709 1.2697 0.7475
-13.1928 -31.5957 0.5976 0.8720
-8.8140 -31.2085 0.5661 0.8783
-6.2455 -39.9793 0.7063 0.8505
29.5764 -87.4334 1.6111 0.6912
27.6391 -43.4290 0.8985 0.8139
32.1395 -39.1754 0.8845 0.8165
32.4078 -24.2886 0.7069 0.8504
42.2447 -24.3491 0.8511 0.8228
85.2905 -24.7375 1.5501 0.7010
48.1117 9.6958 0.8567 0.8217
10.6586 8.6195 0.2393 0.9466
8.3798 8.6335 0.2100 0.9530
6.5744 8.6446 0.1896 0.9575
3.7521 8.6417 0.1644 0.9630
2.5683 8.6274 0.1571 0.9646
1.4735 8.6336 0.1529 0.9656
0.4236 8.6824 0.1517 0.9658
-0.6226 8.6888 0.1521 0.9658
-1.9144 5.9331 0.1088 0.9754
-4.0105 8.6896 0.1671 0.9624
-12.7843 8.7636 -0.2705 0.9399
-23.4316 8.8290 -0.4371 0.9047
-53.8934 13.1921 -0.9685 0.8009
-89.7790 -0.0466 -1.5671 0.6983
-58.0364 -14.2700 -1.0432 0.7873
-65.8140 -34.4037 -1.2963 0.7430
-61.0555 -53.7938 -1.4204 0.7221
-20.1566 -22.6026 -0.5286 0.8859
-13.9277 -20.0141 -0.4256 0.9071
-10.3723 -19.5555 -0.3864 0.9153
-7.5713 -19.6730 -0.3679 0.9191
-2.8167 -22.0926 -0.3887 0.9148
29.3354 -79.2930 -1.4757 0.7130
27.5759 -53.6693 -1.0532 0.7855
34.4013 -24.3008 -0.7352 0.8449
45.1693 -24.3670 -0.8958 0.8144
32.0447 16.1808 -0.6266 0.8662
10.0695 8.6231 -0.2314 0.9483
6.1998 8.6469 -0.1857 0.9583
0.1789 8.6839 -0.1516 0.9658
-0.8692 8.6904 -0.1524 0.9657
-1.9446 8.6970 -0.1556 0.9650
-5.6663 8.6326 -0.1802 0.9595
-9.3966 8.7428 -0.2240 0.9499
-12.0364 8.7590 -0.2598 0.9422
-15.6498 8.7291 -0.3128 0.9308
-21.2862 8.7126 -0.4015 0.9121
-29.6524 8.1496 -0.5368 0.8842
-55.9183 8.3327 -0.9868 0.7976
-75.7081 -7.0347 -1.3272 0.7377
-14.7285 -19.9431 -0.4327 0.9056
-11.0266 -19.4460 -0.3902 0.9144
-3.3981 -21.7525 -0.3843 0.9157
-0.9443 -27.2208 -0.4754 0.8968
32.4078 -24.2886 -0.7069 0.8504
42.2447 -24.3491 -0.8511 0.8228
48.8439 -20.7997 -0.9267 0.8087
95.1385 7.4908 -1.6658 0.6826
49.0740 9.8898 -0.8738 0.8185
25.5391 8.4394 -0.4695 0.8980
32.3627 20.2777 -0.6666 0.8583
10.6586 8.6195 -0.2393 0.9466
3.7426 8.6199 -0.1640 0.9631
2.5567 8.5887 -0.1564 0.9648
1.4665 8.5925 -0.1522 0.9657
0.4236 8.6824 -0.1517 0.9658
-1.6888 8.6954 -0.1546 0.9652
-1.9137 5.9310 -0.1088 0.9754
-4.0002 8.6673 -0.1666 0.9625
-29.5277 7.2278 -1.5932 0.8854
-24.0910 2.8993 -1.2717 0.9074
-41.0188 -10.0857 -2.2137 0.8443
-44.6475 -16.8761 -2.5014 0.8260
-42.2997 -22.1118 -2.5014 0.8260
-39.3407 -27.0280 -2.5014 0.8260
-35.8130 -31.5535 -2.5014 0.8260
-13.8144 -19.8513 -1.2675 0.9077
-10.2556 -19.3354 -1.1470 0.9161
-2.7969 -21.9376 -1.1590 0.9152
-0.2440 -37.4245 -1.9614 0.8608
11.0700 -46.4290 -2.5014 0.8260
16.5614 -44.7651 -2.5014 0.8260
21.5481 -41.9378 -2.4710 0.8279
23.2715 -34.3891 -2.1761 0.8468
29.3962 -33.8418 -2.3492 0.8356
31.6521 -28.6292 -2.2367 0.8429
34.2515 -24.1951 -2.1977 0.8454
39.4518 -21.2827 -2.3492 0.8356
41.7207 -16.3947 -2.3492 0.8356
47.3036 -6.3696 -2.5014 0.8260
44.5713 4.7752 -2.3492 0.8356
26.8169 9.7072 -1.4947 0.8920
7.9228 8.6363 -0.6142 0.9541
3.4496 8.6002 -0.4856 0.9636
1.2302 8.6739 -0.4591 0.9655
0.1789 8.6839 -0.4552 0.9658
-5.6427 8.5967 -0.5389 0.9596
-7.3704 8.7303 -0.5988 0.9553
-9.3966 8.7428 -0.6726 0.9499
-12.0364 8.7590 -0.7801 0.9421
-15.6370 8.7219 -0.9384 0.9308
-21.1008 8.6367 -1.1949 0.9127
-42.9055 -20.9122 -2.5014 0.8260
-8.0201 -19.2077 -1.0909 0.9200
-3.3614 -21.5171 -1.1413 0.9165
4.0814 -47.5557 -2.5014 0.8260
20.6097 -43.0516 -2.5014 0.8260
23.2860 -36.5891 -2.2730 0.8405
28.4318 -34.6559 -2.3492 0.8356
32.2668 -24.1829 -2.1132 0.8509
38.8370 -22.3849 -2.3492 0.8356
41.2426 -17.5627 -2.3492 0.8356
41.9859 -12.1775 -2.2911 0.8394
47.6890 -1.9905 -2.5014 0.8260
43.9429 8.8557 -2.3492 0.8356
26.8620 12.6277 -1.5556 0.8879
26.9373 16.8782 -1.6659 0.8804
8.3798 8.6335 -0.6305 0.9530
5.0667 8.6492 -0.5253 0.9606
3.7331 8.5981 -0.4912 0.9632
2.5504 8.5675 -0.4685 0.9648
1.4595 8.5518 -0.4547 0.9658
-12.7843 8.7636 -1.3560 0.9397
-26.8520 -0.0139 -2.3492 0.8978
-28.3833 -3.4457 -2.5014 0.8915
-25.3385 -13.2455 -2.5014 0.8915
-17.8718 -20.0407 -2.3492 0.8978
-13.6042 -19.5492 -2.0837 0.9088
-7.4508 -19.3595 -1.8148 0.9201
3.2458 -28.4068 -2.5014 0.8915
6.6312 -27.8121 -2.5014 0.8915
13.0668 -25.4311 -2.5014 0.8915
21.2045 -19.1794 -2.5014 0.8915
25.1636 -13.5748 -2.5014 0.8915
26.6108 -10.4571 -2.5014 0.8915
27.6733 -7.1882 -2.5014 0.8915
28.5890 -0.3877 -2.5014 0.8915
28.4290 3.0458 -2.5014 0.8915
26.1630 6.0437 -2.3492 0.8978
25.2487 9.1396 -2.3492 0.8978
24.0226 12.1301 -2.3544 0.8976
13.7040 9.1337 -1.4408 0.9360
7.9228 8.6363 -1.0254 0.9540
6.1998 8.6469 -0.9309 0.9582
4.7363 8.6337 -0.8615 0.9612
3.4410 8.5787 -0.8087 0.9636
2.2811 8.5344 -0.7729 0.9652
0.1789 8.6839 -0.7599 0.9657
-0.8692 8.6904 -0.7641 0.9655
-3.0751 8.6857 -0.8061 0.9637
-4.2812 8.6290 -0.8428 0.9621
-5.6274 8.5734 -0.8972 0.9597
-7.3704 8.7303 -0.9996 0.9552
-9.3966 8.7428 -1.1229 0.9498
-15.4292 8.6060 -1.5457 0.9315
-20.6917 8.4693 -1.9561 0.9141
-27.9459 -6.0424 -2.5014 0.8915
-25.7014 -12.5269 -2.5014 0.8915
-24.0124 -15.5205 -2.5014 0.8915
-14.5233 -19.6652 -2.1388 0.9065
-7.9928 -19.1421 -1.8148 0.9201
-0.8998 -25.9365 -2.2705 0.9010
5.8456 -27.9877 -2.5014 0.8915
12.3457 -25.7890 -2.5014 0.8915
18.1347 -22.1047 -2.5014 0.8915
28.2173 -4.6117 -2.5014 0.8915
28.5668 -1.1923 -2.5014 0.8915
28.5034 2.2442 -2.5014 0.8915
26.3228 5.3048 -2.3492 0.8978
25.4960 8.4251 -2.3492 0.8978
13.9481 8.7395 -1.4401 0.9360
10.6586 8.6195 -1.1993 0.9464
8.3798 8.6335 -1.0526 0.9528
6.5744 8.6446 -0.9502 0.9573
5.0667 8.6492 -0.8770 0.9606
2.5441 8.5464 -0.7801 0.9648
-0.6226 8.6888 -0.7621 0.9656
-1.6888 8.6954 -0.7750 0.9651
-1.9124 5.9269 -0.5449 0.9753
-3.9889 8.6428 -0.8328 0.9625
-17.9043 6.7463 -2.3492 0.9258
-18.5844 4.5491 -2.3492 0.9258
-20.3726 -0.0106 -2.5014 0.9212
-18.0547 -9.4379 -2.5014 0.9212
-16.7917 -11.5363 -2.5014 0.9212
-15.2860 -13.4679 -2.5014 0.9212
-13.5594 -15.2049 -2.5014 0.9212
-8.9653 -16.9026 -2.3492 0.9258
-6.8722 -17.8563 -2.3492 0.9258
-4.6798 -18.5520 -2.3492 0.9258
-2.4198 -18.9795 -2.3492 0.9258
-0.1248 -19.1327 -2.3492 0.9258
4.7250 -19.8171 -2.5014 0.9212
9.3106 -18.1207 -2.5014 0.9212
15.1090 -13.6661 -2.5014 0.9212
16.6398 -11.7543 -2.5014 0.9212
17.9301 -9.6725 -2.5014 0.9212
18.9612 -7.4511 -2.5014 0.9212
19.7183 -5.1219 -2.5014 0.9212
20.1904 -2.7187 -2.5014 0.9212
20.3708 -0.2762 -2.5014 0.9212
17.9907 6.5123 -2.3492 0.9258
17.0792 8.6241 -2.3492 0.9258
13.7040 9.1337 -2.0221 0.9358
7.9228 8.6363 -1.4390 0.9539
4.7126 8.5905 -1.2031 0.9613
2.2722 8.5013 -1.0805 0.9652
1.2302 8.6739 -1.0757 0.9653
-0.8692 8.6904 -1.0724 0.9654
-1.9446 8.6970 -1.0942 0.9647
-3.0667 8.6621 -1.1283 0.9636
-4.2629 8.5920 -1.1777 0.9621
-5.5859 8.5102 -1.2499 0.9598
-9.3966 8.7428 -1.5759 0.9496
-12.0364 8.7590 -1.8278 0.9418
-17.7072 7.2477 -2.3492 0.9258
-18.9241 2.8200 -2.3492 0.9258
-19.9125 -4.3055 -2.5014 0.9212
-13.9821 -14.8171 -2.5014 0.9212
-11.3666 -15.3908 -2.3492 0.9258
-7.3722 -17.6558 -2.3492 0.9258
-5.2002 -18.4129 -2.3492 0.9258
4.1652 -19.9423 -2.5014 0.9212
6.5281 -19.2984 -2.5014 0.9212
8.7968 -18.3756 -2.5014 0.9212
16.3023 -12.2180 -2.5014 0.9212
18.7439 -7.9819 -2.5014 0.9212
20.3098 1.5991 -2.5014 0.9212
19.8094 3.9921 -2.4812 0.9218
18.1669 6.0032 -2.3492 0.9258
17.3153 8.1398 -2.3492 0.9258
13.9490 8.7401 -2.0212 0.9358
8.3798 8.6335 -1.4773 0.9527
1.4430 8.4551 -1.0532 0.9660
0.4236 8.6824 -1.0673 0.9656
-12.2341 8.3864 -2.3492 0.9417
-13.1520 6.8577 -2.3492 0.9417
-14.4072 3.5266 -2.3492 0.9417
-15.6804 1.8871 -2.5014 0.9380
-15.7935 -0.0082 -2.5014 0.9380
-15.6784 -1.9033 -2.5014 0.9380
-14.7734 -5.5841 -2.5014 0.9380
-13.0174 -8.9433 -2.5014 0.9380
-10.5116 -11.7873 -2.5014 0.9380
-9.0212 -12.9635 -2.5014 0.9380
-7.4004 -13.9524 -2.5014 0.9380
-5.6370 -14.6469 -2.4857 0.9384
-3.7980 -15.0562 -2.4594 0.9391
7.2179 -14.0477 -2.5014 0.9380
10.3571 -11.9233 -2.5014 0.9380
11.7130 -10.5944 -2.5014 0.9380
12.8997 -9.1123 -2.5014 0.9380
13.8999 -7.4984 -2.5014 0.9380
14.6993 -5.7763 -2.5014 0.9380
15.2862 -3.9706 -2.5014 0.9380
15.6522 -2.1076 -2.5014 0.9380
15.7036 1.6824 -2.5014 0.9380
12.1920 2.8164 -1.9819 0.9506
13.9469 5.0485 -2.3492 0.9417
6.1648 3.1129 -1.0938 0.9724
10.0695 8.6231 -2.0997 0.9477
6.1998 8.6469 -1.6852 0.9578
3.3966 8.4680 -1.4451 0.9637
0.1789 8.6839 -1.3757 0.9654
-1.9446 8.6970 -1.4115 0.9646
-3.0592 8.6409 -1.4518 0.9636
-5.5235 8.4151 -1.5943 0.9601
-9.3966 8.7428 -2.0328 0.9493
-11.9931 8.7275 -2.3492 0.9417
-12.9537 7.2253 -2.3492 0.9417
-14.3022 3.9308 -2.3492 0.9417
-15.6210 2.3278 -2.5014 0.9380
-15.7258 -1.4612 -2.5014 0.9380
-15.4368 -3.3377 -2.5014 0.9380
-12.1394 -10.1030 -2.5014 0.9380
-10.8393 -11.4867 -2.5014 0.9380
-9.3826 -12.7044 -2.5014 0.9380
-7.7903 -13.7385 -2.5014 0.9380
-2.4308 -15.5602 -2.4944 0.9382
1.3505 -15.7357 -2.5014 0.9380
6.8195 -14.2453 -2.5014 0.9380
12.6380 -9.4718 -2.5014 0.9380
13.6833 -7.8868 -2.5014 0.9380
14.5308 -6.1878 -2.5014 0.9380
15.1684 -4.3994 -2.5014 0.9380
15.5867 -2.5474 -2.5014 0.9380
15.7448 1.2397 -2.5014 0.9380
15.4822 3.1201 -2.5014 0.9380
14.0835 4.6539 -2.3492 0.9417
10.6586 8.6195 -2.1711 0.9460
8.3798 8.6335 -1.9056 0.9524
6.5744 8.6446 -1.7201 0.9570
3.6807 8.4773 -1.4638 0.9633
0.4236 8.6824 -1.3768 0.9654
-0.6226 8.6888 -1.3797 0.9653
-1.9116 5.9244 -0.9860 0.9751
-9.9685 6.8334 -2.3492 0.9519
-11.3096 4.2615 -2.3492 0.9519
-12.4998 3.0597 -2.5014 0.9489
-12.7766 1.5376 -2.5014 0.9489
-12.7750 -1.5509 -2.5014 0.9489
-12.4966 -3.0727 -2.5014 0.9489
-12.0376 -4.5500 -2.5014 0.9489
-11.4046 -5.9617 -2.5014 0.9489
-10.6068 -7.2871 -2.5014 0.9489
-3.1476 -12.4780 -2.5014 0.9489
-1.6275 -12.7655 -2.5014 0.9489
-0.0839 -12.8685 -2.5014 0.9489
2.9846 -12.5179 -2.5014 0.9489
4.4652 -12.0693 -2.5014 0.9489
5.8812 -11.4463 -2.5014 0.9489
7.2123 -10.6578 -2.5014 0.9489
11.9772 -4.7066 -2.5014 0.9489
12.7537 -1.7174 -2.5014 0.9489
12.8676 -0.1745 -2.5014 0.9489
4.9794 2.5143 -1.0843 0.9775
8.1701 8.9060 -2.3492 0.9519
3.3658 8.3912 -1.7574 0.9638
2.2138 8.2825 -1.6665 0.9657
-0.8692 8.6904 -1.6977 0.9650
-1.9446 8.6970 -1.7323 0.9643
-8.8482 8.2326 -2.3492 0.9519
-10.5549 5.8873 -2.3492 0.9519
-11.1852 4.5782 -2.3492 0.9519
-12.7283 1.8967 -2.5014 0.9489
-12.8639 0.3556 -2.5014 0.9489
-12.8136 -1.1906 -2.5014 0.9489
-12.1609 -4.2094 -2.5014 0.9489
-11.5679 -5.6382 -2.5014 0.9489
-7.6451 -10.3518 -2.5014 0.9489
-3.4976 -12.3844 -2.5014 0.9489
-1.9862 -12.7146 -2.5014 0.9489
-0.4462 -12.8611 -2.5014 0.9489
1.1004 -12.8217 -2.5014 0.9489
2.6310 -12.5970 -2.5014 0.9489
5.5567 -11.6073 -2.5014 0.9489
6.9094 -10.8567 -2.5014 0.9489
9.2972 -8.8977 -2.5014 0.9489
11.1494 -6.4263 -2.5014 0.9489
11.8400 -5.0420 -2.5014 0.9489
12.3595 -3.5847 -2.5014 0.9489
12.7003 -2.0757 -2.5014 0.9489
12.8576 -0.5367 -2.5014 0.9489
12.8291 1.0101 -2.5014 0.9489
4.7553 2.9796 -1.0908 0.9774
9.3975 7.5996 -2.3492 0.9519
6.5744 8.6446 -2.1111 0.9567
5.0587 8.6357 -1.9454 0.9600
-3.9148 8.4822 -1.8159 0.9626
-8.3930 5.7534 -2.3492 0.9591
-10.1281 3.8163 -2.4987 0.9565
-10.5243 2.5761 -2.5014 0.9565
-10.7573 1.2946 -2.5014 0.9565
-10.7560 -1.3058 -2.5014 0.9565
-10.1351 -3.8309 -2.5014 0.9565
-8.1297 -7.1628 -2.5014 0.9565
-6.1889 -8.8935 -2.5014 0.9565
-5.0770 -9.5719 -2.5014 0.9565
-3.8917 -10.1119 -2.5014 0.9565
-2.6501 -10.5059 -2.5014 0.9565
-1.3703 -10.7479 -2.5014 0.9565
3.7595 -10.1618 -2.5014 0.9565
7.1053 -8.1799 -2.5014 0.9565
8.0356 -7.2681 -2.5014 0.9565
8.8497 -6.2513 -2.5014 0.9565
9.5359 -5.1442 -2.5014 0.9565
10.0843 -3.9627 -2.5014 0.9565
10.4869 -2.7240 -2.5014 0.9565
10.7733 1.1542 -2.5014 0.9565
10.5570 2.4387 -2.5014 0.9565
7.7290 6.6188 -2.3492 0.9591
6.8789 7.4984 -2.3492 0.9591
5.9294 8.2697 -2.3492 0.9591
3.3357 8.3161 -2.0686 0.9639
1.2302 8.6739 -2.0226 0.9647
0.1789 8.6839 -2.0053 0.9650
-0.8692 8.6904 -2.0163 0.9648
-1.9446 8.6970 -2.0574 0.9641
-3.0592 8.6409 -2.1162 0.9631
-4.3168 8.7007 -2.2423 0.9609
-5.5837 8.5069 -2.3492 0.9591
-6.5642 7.7754 -2.3492 0.9591
-7.4498 6.9315 -2.3492 0.9591
-8.8868 4.9568 -2.3492 0.9591
-9.9991 4.0927 -2.4944 0.9566
-10.8308 0.2994 -2.5014 0.9565
-10.7885 -1.0025 -2.5014 0.9565
-10.5902 -2.2898 -2.5014 0.9565
-9.7397 -4.7471 -2.5014 0.9565
-9.0996 -5.8816 -2.5014 0.9565
-8.3281 -6.9310 -2.5014 0.9565
-2.9448 -10.4271 -2.5014 0.9565
-0.3756 -10.8284 -2.5014 0.9565
3.4719 -10.2636 -2.5014 0.9565
4.6785 -9.7728 -2.5014 0.9565
5.8174 -9.1408 -2.5014 0.9565
6.8722 -8.3767 -2.5014 0.9565
7.8278 -7.4915 -2.5014 0.9565
8.6702 -6.4980 -2.5014 0.9565
9.3873 -5.4106 -2.5014 0.9565
9.9687 -4.2451 -2.5014 0.9565
10.6214 2.1405 -2.5014 0.9565
6.3463 2.0971 -1.5431 0.9729
7.0872 7.3018 -2.3492 0.9591
5.1434 8.7801 -2.3492 0.9591
3.6348 8.3716 -2.1070 0.9632
2.4278 8.1557 -1.9645 0.9657
-1.6888 8.6954 -2.0450 0.9643
-7.2315 4.9572 -2.3492 0.9643
-8.7359 3.2917 -2.5014 0.9621
-9.2686 1.1154 -2.5014 0.9621
-9.2675 -1.1251 -2.5014 0.9621
-9.0655 -2.2290 -2.5014 0.9621
-8.7325 -3.3008 -2.5014 0.9621
-7.6946 -5.2864 -2.5014 0.9621
3.2392 -8.7555 -2.5014 0.9621
6.1220 -7.0479 -2.5014 0.9621
7.6250 -5.3862 -2.5014 0.9621
8.2162 -4.4323 -2.5014 0.9621
9.0357 -2.3470 -2.5014 0.9621
9.2520 -1.2458 -2.5014 0.9621
9.3347 -0.1266 -2.5014 0.9621
9.0960 2.1012 -2.5014 0.9621
4.4486 2.2463 -1.3353 0.9796
4.0395 2.6923 -1.3008 0.9801
5.1088 7.1253 -2.3492 0.9643
4.2169 7.6868 -2.3492 0.9643
3.2640 8.1373 -2.3492 0.9643
2.2639 8.4702 -2.3492 0.9643
1.2302 8.6739 -2.3474 0.9644
-0.8726 8.7240 -2.3492 0.9643
-1.9132 8.5562 -2.3492 0.9643
-3.8967 7.8540 -2.3492 0.9643
-4.8110 7.3296 -2.3492 0.9643
-5.6558 6.6993 -2.3492 0.9643
-7.0891 5.1588 -2.3492 0.9643
-7.8384 4.3721 -2.4049 0.9635
-9.0017 2.4740 -2.5014 0.9621
-9.2955 -0.8637 -2.5014 0.9621
-9.1247 -1.9729 -2.5014 0.9621
-8.3918 -4.0902 -2.5014 0.9621
-7.1756 -5.9718 -2.5014 0.9621
-5.5460 -7.5096 -2.5014 0.9621
-4.6048 -8.1208 -2.5014 0.9621
0.7983 -9.3013 -2.5014 0.9621
2.9914 -8.8433 -2.5014 0.9621
4.0310 -8.4204 -2.5014 0.9621
5.9212 -7.2174 -2.5014 0.9621
7.4703 -5.5988 -2.5014 0.9621
8.0882 -4.6619 -2.5014 0.9621
8.5892 -3.6576 -2.5014 0.9621
8.9660 -2.6005 -2.5014 0.9621
9.2133 -1.5058 -2.5014 0.9621
9.3067 0.7328 -2.5014 0.9621
4.6410 2.1817 -1.3741 0.9790
4.1099 2.5752 -1.2996 0.9801
3.8994 3.1534 -1.3437 0.9794
6.1064 6.2913 -2.3492 0.9643
4.4316 7.5651 -2.3492 0.9643
1.4750 8.6425 -2.3492 0.9643
-1.8858 5.8445 -1.6455 0.9749
