ply
format ascii 1.0
element vertex 731
property float32 x
property float32 y
property float32 z
property float32 I
end_header
40.8999 19.1783 12.1041 0.8294
33.3930 26.9486 11.4979 0.8372
33.4977 43.9490 14.8067 0.7955
-9.8963 30.8012 8.6687 0.8746
-23.0248 22.7252 8.6684 0.8746
-59.9521 -18.7791 16.8337 0.7709
-15.2487 -33.6592 9.9013 0.8581
44.1790 19.1582 12.9029 0.8192
33.4817 41.3570 14.2579 0.8022
-9.8757 34.1403 9.5229 0.8631
-11.4892 27.0350 7.8710 0.8855
-53.6696 -22.3456 15.5774 0.7860
45.8780 -82.5083 25.2959 0.6764
58.5414 -33.8044 15.6068 0.7577
94.2178 18.8963 22.1851 0.6740
43.0049 20.1654 10.9658 0.8228
33.8575 21.1673 9.2185 0.8488
33.3930 26.9486 9.9067 0.8385
33.7723 34.7225 11.1827 0.8197
33.4977 43.9490 12.7577 0.7970
-9.8963 30.8013 7.4691 0.8756
-14.6988 23.8985 6.4775 0.8912
-18.4414 23.1970 6.8416 0.8855
-57.1538 -17.9026 13.8272 0.7820
-19.1634 -31.5642 8.5251 0.8593
-9.7551 -30.9745 7.4973 0.8752
-6.3011 -33.7007 7.9153 0.8687
24.6855 -41.4854 11.1450 0.8202
32.4454 -42.0628 12.2642 0.8041
58.8423 -27.1786 14.9639 0.7664
44.1790 19.1582 11.1173 0.8206
9.6883 5.6692 2.5915 0.9550
34.4327 33.3866 11.0727 0.8213
33.4818 41.3570 12.2848 0.8038
34.2339 54.5690 14.8722 0.7676
-11.4892 27.0350 6.7817 0.8864
-14.0026 24.3364 6.4821 0.8911
-51.3645 -29.0553 13.6242 0.7849
-56.7449 -41.8150 16.2733 0.7487
-1.5242 -16.1902 3.7543 0.9354
23.7905 -42.7855 11.3021 0.8179
30.5144 -42.0510 11.9950 0.8079
94.1232 18.8774 18.6600 0.6763
43.0049 20.1654 9.2327 0.8240
33.8575 21.1673 7.7616 0.8498
34.2651 27.6524 8.5588 0.8358
34.0085 44.6192 10.9052 0.7956
5.0820 8.6538 1.9507 0.9599
3.7722 8.6619 1.8364 0.9622
1.4910 8.6759 1.7111 0.9648
-0.6122 8.6888 1.6931 0.9651
-2.7960 8.7022 1.7767 0.9634
-14.6988 23.8986 5.4537 0.8920
-18.4414 23.1970 5.7603 0.8863
-79.7818 -14.7889 15.7722 0.7185
-58.4030 -18.2938 11.8963 0.7793
-19.1634 -31.5643 7.1777 0.8603
-15.2487 -33.6592 7.1828 0.8602
-6.3011 -33.7007 6.6643 0.8696
-2.8842 -44.6039 8.6882 0.8335
22.9795 -51.9455 11.0411 0.7934
32.6314 -42.3039 10.3851 0.8044
48.6317 -49.4260 13.4782 0.7539
73.7215 -45.5002 16.8396 0.7026
44.1791 19.1582 9.3602 0.8218
33.8491 19.8074 7.6233 0.8523
34.3880 26.1261 8.3947 0.8386
34.4894 42.6017 10.6545 0.7998
34.2339 54.5690 12.5217 0.7691
4.0772 8.6600 1.8606 0.9617
1.8971 5.7293 1.1731 0.9757
1.7537 8.6742 1.7202 0.9646
-0.3568 8.6872 1.6900 0.9652
-1.4147 8.6937 1.7121 0.9647
-2.5168 8.7005 1.7605 0.9638
-5.0045 8.6978 1.9506 0.9599
-17.3523 23.1903 5.6300 0.8887
-65.1791 53.5624 16.3986 0.7091
-79.6457 -12.3628 15.6669 0.7201
-57.7339 -16.2434 11.6580 0.7832
-66.3681 -37.5424 14.8216 0.7329
-16.4498 -33.6518 7.2809 0.8584
-11.6477 -33.5235 6.8984 0.8654
-7.3274 -33.6944 6.7026 0.8689
35.6696 -87.4709 18.3620 0.6805
58.6478 -33.8658 10.7263 0.7601
58.9728 19.4253 9.8341 0.7777
33.8575 21.1673 6.3243 0.8507
3.7722 8.6619 1.4964 0.9625
2.5913 8.6691 1.4331 0.9640
1.4910 8.6759 1.3943 0.9650
-1.6778 8.6953 1.4026 0.9648
-4.0065 8.7097 1.5184 0.9619
-5.3620 8.7180 1.6211 0.9594
-6.9384 8.7277 1.7659 0.9559
-55.9804 55.2521 12.4577 0.7272
-80.8043 48.2518 14.9063 0.6831
-81.3262 24.9597 13.4738 0.7086
-19.1634 -31.5642 5.8485 0.8611
-14.3289 -31.6289 5.4996 0.8688
-9.8870 -31.3933 5.2130 0.8752
-5.9159 -31.6403 5.0982 0.8778
24.3870 -40.9837 7.5534 0.8244
31.6324 -41.0087 8.2029 0.8108
41.4410 -42.1179 9.3584 0.7872
59.0021 -36.4156 10.9816 0.7552
59.1356 -27.3140 10.3170 0.7681
76.4157 -24.6829 12.7188 0.7224
78.6688 13.3938 12.6392 0.7238
59.0864 17.5618 9.7630 0.7791
8.9008 8.6303 1.9636 0.9510
6.9964 8.6420 1.7611 0.9560
5.4276 8.6517 1.6176 0.9595
4.0772 8.6600 1.5160 0.9620
1.7537 8.6742 1.4017 0.9648
0.6891 8.6808 1.3792 0.9653
-0.3568 8.6872 1.3771 0.9654
-5.0045 8.6978 1.5893 0.9602
-6.5286 8.7252 1.7260 0.9568
-52.2681 17.7326 8.7419 0.7997
-82.1830 7.1301 13.0654 0.7160
-81.3338 -12.6248 13.0363 0.7165
-57.6007 -16.2059 9.4773 0.7848
-57.9585 -42.7093 11.4029 0.7471
-20.4698 -31.5914 5.9621 0.8586
-15.4576 -31.6219 5.5748 0.8671
-10.9947 -31.6441 5.3058 0.8731
-6.8795 -31.6344 5.1275 0.8771
-1.5218 -16.1653 2.5716 0.9364
22.1610 -54.3445 9.2955 0.7885
28.3829 -39.1135 7.6542 0.8222
58.6995 -25.0535 7.8364 0.7732
65.6101 -10.7813 8.1639 0.7649
58.9728 19.4253 7.6237 0.7786
34.3981 27.7597 5.4273 0.8368
6.5888 8.6445 1.3346 0.9571
5.0820 8.6538 1.2322 0.9604
-0.6122 8.6888 1.0695 0.9655
-1.6778 8.6953 1.0873 0.9649
-2.7960 8.7022 1.1223 0.9638
-4.0065 8.7097 1.1771 0.9621
-5.3620 8.7180 1.2567 0.9596
-6.9384 8.7277 1.3690 0.9561
-24.9943 -31.8150 4.9677 0.8495
-15.2487 -33.6592 4.5372 0.8616
-2.8842 -44.6040 5.4881 0.8352
21.6925 -49.0361 6.5837 0.8057
23.6975 -39.8250 5.6901 0.8296
31.6324 -41.0087 6.3591 0.8116
41.6786 -42.3593 7.2966 0.7870
58.6335 -36.1881 8.4601 0.7575
63.1768 -4.5500 7.7772 0.7747
65.6959 3.1803 8.0759 0.7672
59.0863 17.5618 7.5686 0.7800
33.8491 19.8074 4.8154 0.8538
11.3398 8.6153 1.7486 0.9442
8.9008 8.6303 1.5223 0.9513
6.9964 8.6420 1.3653 0.9562
-0.3568 8.6872 1.0676 0.9656
-6.5286 8.7252 1.3380 0.9570
-8.3477 8.7363 1.4836 0.9525
-26.2934 -31.5225 5.0402 0.8475
-16.4498 -33.6519 4.5992 0.8599
-1.5216 -16.1631 1.9934 0.9367
20.7456 -50.8734 6.7459 0.8014
29.7659 -41.0194 6.2229 0.8153
58.6478 -33.8658 5.9250 0.7619
58.7993 -25.0961 5.5932 0.7736
63.0384 -18.3411 5.7438 0.7683
63.0874 -10.3668 5.5935 0.7736
63.1346 -2.6912 5.5286 0.7759
63.2292 12.6812 5.6420 0.7719
58.9728 19.4253 5.4322 0.7793
43.0050 20.1655 4.1556 0.8264
13.7566 8.6005 1.4194 0.9369
33.3931 26.9486 3.7542 0.8417
6.5888 8.6445 0.9509 0.9573
5.0820 8.6538 0.8780 0.9605
2.5913 8.6691 0.7916 0.9643
1.4910 8.6759 0.7702 0.9653
0.4338 8.6824 0.7606 0.9657
-0.6122 8.6888 0.7621 0.9656
-1.6778 8.6953 0.7748 0.9651
-4.0065 8.7097 0.8388 0.9622
-5.3620 8.7180 0.8954 0.9597
-19.8083 8.7995 1.8963 0.9166
-26.3974 -33.6010 3.7384 0.8423
-14.3131 -31.5940 3.0345 0.8700
-5.9224 -31.6752 2.8192 0.8786
41.2159 -41.8891 5.1414 0.7898
53.0095 -42.2765 5.9320 0.7617
59.0818 -36.4648 6.0742 0.7567
59.1356 -27.3141 5.6989 0.7699
58.1655 -18.7879 5.3477 0.7824
63.1232 -4.5461 5.5369 0.7756
63.1700 3.0580 5.5331 0.7757
58.3283 9.9308 5.1765 0.7885
58.9611 17.5246 5.3815 0.7812
44.1791 19.1582 4.2130 0.8242
11.3398 8.6153 1.2460 0.9444
5.4276 8.6517 0.8935 0.9598
4.0772 8.6600 0.8374 0.9623
1.8969 5.7289 0.5280 0.9761
1.7537 8.6742 0.7743 0.9651
-1.4147 8.6937 0.7706 0.9653
-2.5168 8.7005 0.7924 0.9643
-5.0045 8.6978 0.8779 0.9605
-13.7539 8.7696 1.4271 0.9366
-18.3369 8.7977 1.7794 0.9216
-52.9100 17.9503 4.8882 0.7990
-21.7901 -33.6292 3.5058 0.8514
-5.3751 -24.7168 2.2130 0.9034
-1.5214 -16.1609 1.4201 0.9369
23.9093 -87.4321 7.9302 0.6949
21.5493 -52.8445 4.9929 0.7952
22.9247 -41.2284 4.1271 0.8274
58.7993 -25.0961 3.3505 0.7741
66.8516 -19.4506 3.6488 0.7566
68.1277 -11.1950 3.6183 0.7584
25.8838 8.5260 1.4282 0.8966
13.7566 8.6005 0.8503 0.9371
14.0204 11.3146 0.9442 0.9304
6.5888 8.6445 0.5696 0.9574
5.0820 8.6538 0.5259 0.9606
3.7722 8.6619 0.4951 0.9629
2.5875 8.6562 0.4735 0.9645
1.4890 8.6641 0.4607 0.9654
-0.6117 8.6817 0.4561 0.9657
-1.6750 8.6810 0.4633 0.9652
-4.0065 8.7097 0.5024 0.9623
-6.9384 8.7277 0.5843 0.9563
-14.6955 8.7753 0.8970 0.9337
-14.1233 -23.2626 1.4262 0.8967
-13.8608 -30.5955 1.7603 0.8741
-9.4048 -29.8624 1.6408 0.8821
22.5017 -50.8654 2.9149 0.8003
33.2507 -26.5183 2.2289 0.8434
59.0031 -36.4157 3.6338 0.7575
59.1356 -27.3141 3.4138 0.7703
59.0239 -19.0652 3.2507 0.7800
68.1414 -13.2578 3.6381 0.7573
68.0321 3.2934 3.5696 0.7612
11.3398 8.6153 0.7464 0.9446
8.9008 8.6303 0.6497 0.9516
1.7509 8.6602 0.4630 0.9652
0.6886 8.6738 0.4560 0.9657
-1.4128 8.6817 0.4610 0.9654
-2.5132 8.6881 0.4740 0.9644
-3.7006 8.7078 0.4959 0.9628
-5.0045 8.6978 0.5259 0.9606
-8.3477 8.7363 0.6333 0.9528
-13.7539 8.7696 0.8549 0.9368
-26.0721 8.8453 1.4429 0.8956
-81.7539 -12.6900 4.3358 0.7179
-26.3211 -31.5556 2.1535 0.8482
-14.9526 -30.5888 1.7844 0.8725
-11.6477 -33.5236 1.8599 0.8675
-7.2619 -33.3931 1.7910 0.8721
-1.5213 -16.1596 0.8506 0.9371
23.8641 -87.2667 4.7414 0.6960
23.4717 -42.2122 2.5312 0.8241
30.5121 -42.0477 2.7227 0.8121
42.1661 -24.3486 0.8499 0.8230
58.6995 -25.0535 1.1140 0.7747
95.3743 7.4223 1.6698 0.6820
25.8500 8.5148 0.4751 0.8968
13.2613 10.7020 0.2974 0.9341
6.5865 8.6415 0.1897 0.9575
5.0705 8.6343 0.1748 0.9607
2.5913 8.6691 0.1579 0.9644
0.4338 8.6824 0.1517 0.9658
-0.6122 8.6888 0.1520 0.9658
-1.6737 8.6744 0.1542 0.9653
-3.9878 8.6690 0.1666 0.9625
-5.3620 8.7180 0.1787 0.9599
-8.8546 8.7395 0.2172 0.9514
-11.3132 8.7546 0.2497 0.9444
-15.9436 -35.1931 0.6744 0.8568
38.7019 -87.4862 1.6698 0.6820
29.0945 -48.8950 0.9931 0.7964
33.2148 -33.7573 0.8266 0.8274
33.2592 -26.5251 0.7426 0.8435
39.4079 -24.3222 0.8083 0.8309
94.9597 -18.4756 1.6886 0.6791
28.6287 8.5091 0.5213 0.8874
11.3398 8.6153 0.2486 0.9446
8.9008 8.6303 0.2164 0.9516
5.4156 8.6324 0.1779 0.9601
1.8969 5.7288 0.1053 0.9761
0.6891 8.6808 0.1520 0.9658
-0.3568 8.6872 0.1518 0.9658
-1.4132 8.6846 0.1536 0.9654
-3.6832 8.6669 0.1644 0.9630
-5.0045 8.6978 0.1752 0.9607
-6.5286 8.7252 0.1902 0.9573
-8.3477 8.7363 0.2109 0.9528
-10.6483 8.7505 0.2406 0.9464
-81.5125 -12.6525 1.4398 0.7189
-58.2428 -16.3865 1.0561 0.7850
-58.1163 -42.8256 1.2601 0.7492
-25.9933 -31.1626 0.7083 0.8501
-1.5213 -16.1595 0.2833 0.9371
42.1661 -24.3486 -0.8499 0.8230
68.0851 13.6551 -1.2121 0.7574
58.9729 19.4253 -1.0838 0.7801
13.7286 11.0791 -0.3079 0.9319
8.3972 8.6334 -0.2102 0.9530
1.4910 8.6759 -0.1537 0.9654
-0.6122 8.6888 -0.1520 0.9658
-1.6734 8.6724 -0.1542 0.9653
-3.9672 8.6241 -0.1657 0.9627
-5.3620 8.7180 -0.1787 0.9599
-6.9384 8.7277 -0.1946 0.9564
-11.3132 8.7546 -0.2497 0.9444
-14.6092 8.7238 -0.2970 0.9342
-55.6888 3.1916 -0.9736 0.8000
-59.2567 -18.5612 -1.0839 0.7800
-65.2395 -29.4336 -1.2493 0.7510
-60.9366 -36.8666 -1.2432 0.7521
-63.0445 -49.3706 -1.3977 0.7259
-12.2192 -20.1265 -0.4110 0.9101
-8.8746 -19.5896 -0.3754 0.9176
-3.8910 -20.8103 -0.3695 0.9188
28.3288 -47.6081 -0.9670 0.8012
30.0344 -38.9370 -0.8583 0.8214
52.8576 -24.4143 -1.0163 0.7922
76.5582 -24.7289 -1.4043 0.7248
70.0503 3.3911 -1.2242 0.7554
5.4007 8.6088 -0.1774 0.9602
4.0388 8.5786 -0.1655 0.9628
1.7537 8.6742 -0.1545 0.9652
0.6891 8.6808 -0.1520 0.9658
-0.3568 8.6872 -0.1518 0.9658
-2.5047 8.6587 -0.1573 0.9646
-4.9650 8.6292 -0.1738 0.9610
-10.6483 8.7505 -0.2406 0.9464
-18.2213 8.7423 -0.3528 0.9223
-26.0721 8.8453 -0.4806 0.8957
-88.1730 18.4996 -1.5726 0.6974
-55.8844 4.8485 -0.9791 0.7990
-88.3082 -2.9793 -1.5423 0.7022
-74.2266 -41.9877 -1.4885 0.7109
-19.1117 -22.9125 -0.5208 0.8875
-13.0949 -20.2097 -0.4203 0.9082
-17.2799 -35.3499 -0.6868 0.8544
-6.7343 -19.3823 -0.3582 0.9212
-4.4996 -20.6911 -0.3696 0.9188
-1.5213 -16.1593 -0.2833 0.9371
35.6431 -87.4059 -1.6476 0.6855
41.2340 -17.5991 -2.3496 0.8356
41.8316 -12.1710 -2.2832 0.8399
47.1051 -7.7405 -2.5018 0.8260
47.5930 3.7038 -2.5018 0.8260
28.3344 9.3332 -1.5634 0.8874
28.3945 13.3145 -1.6436 0.8820
14.2486 8.9081 -0.8807 0.9349
13.7286 11.0791 -0.9245 0.9318
8.3972 8.6334 -0.6312 0.9529
6.5865 8.6415 -0.5694 0.9574
5.0433 8.5880 -0.5219 0.9609
3.7200 8.5419 -0.4883 0.9634
2.5913 8.6691 -0.4742 0.9644
0.4338 8.6824 -0.4556 0.9658
-0.6122 8.6888 -0.4565 0.9657
-3.9559 8.5998 -0.4961 0.9628
-5.3620 8.7180 -0.5364 0.9598
-6.9384 8.7277 -0.5843 0.9563
-11.3132 8.7546 -0.7497 0.9443
-14.5585 8.6935 -0.8887 0.9343
-19.4783 8.6529 -1.1170 0.9182
-39.2990 -7.2848 -2.0947 0.8521
-43.5133 -19.6316 -2.5018 0.8260
-22.4872 -22.4524 -1.6654 0.8805
-16.6638 -21.2112 -1.4136 0.8976
-11.9783 -19.7297 -1.2096 0.9117
-8.7530 -19.3209 -1.1116 0.9185
-6.1159 -19.4194 -1.0670 0.9217
-3.8616 -20.6534 -1.1012 0.9193
-1.4143 -21.8727 -1.1487 0.9159
2.4957 -44.7632 -2.3496 0.8356
27.3824 -35.4990 -2.3496 0.8356
31.4432 -31.9665 -2.3496 0.8356
40.1284 -12.9618 -2.2100 0.8446
47.6135 -3.4291 -2.5018 0.8260
47.6810 2.3082 -2.5018 0.8260
44.1967 7.5248 -2.3496 0.8356
11.3398 8.6153 -0.7464 0.9446
5.3860 8.5853 -0.5311 0.9602
1.8969 5.7287 -0.3163 0.9761
0.6891 8.6808 -0.4564 0.9657
-1.4132 8.6846 -0.4611 0.9654
-2.4986 8.6377 -0.4712 0.9646
-3.6608 8.6141 -0.4905 0.9632
-6.5286 8.7252 -0.5711 0.9573
-44.0697 -18.3486 -2.5018 0.8260
-34.7547 -32.7249 -2.5018 0.8260
-12.8638 -19.8530 -1.2398 0.9096
-9.4115 -19.2535 -1.1231 0.9177
-4.4217 -20.3329 -1.0905 0.9200
-1.5213 -16.1592 -0.8506 0.9371
0.7278 -27.5616 -1.4449 0.8954
12.5919 -46.0462 -2.5018 0.8260
23.0395 -41.4348 -2.4846 0.8270
26.3309 -36.2857 -2.3496 0.8356
27.4569 -7.9887 -2.5018 0.8915
28.2171 -4.6367 -2.5018 0.8915
28.5695 -1.2178 -2.5018 0.8915
28.5093 2.2187 -2.5018 0.8915
26.3315 5.2810 -2.3496 0.8978
24.3419 11.4142 -2.3521 0.8977
14.2486 8.9081 -1.4702 0.9348
8.3972 8.6334 -1.0537 0.9528
6.5865 8.6415 -0.9506 0.9573
5.0319 8.5686 -0.8694 0.9609
2.5913 8.6691 -0.7916 0.9643
1.4910 8.6759 -0.7702 0.9653
-0.6122 8.6888 -0.7621 0.9656
-3.9460 8.5782 -0.8261 0.9628
-5.3620 8.7180 -0.8954 0.9597
-8.8546 8.7395 -1.0885 0.9513
-14.3919 8.5941 -1.4665 0.9349
-23.4908 7.2095 -2.1498 0.9060
-26.4338 4.7423 -2.3496 0.8978
-26.0655 -11.7598 -2.5018 0.8915
-22.5136 -17.6306 -2.5018 0.8915
-19.6101 -19.5797 -2.4244 0.8947
-11.8543 -19.5255 -1.9984 0.9124
-6.0795 -19.3037 -1.7706 0.9220
-3.8131 -20.3942 -1.8152 0.9201
-1.3943 -21.5623 -1.8904 0.9169
1.4950 -26.8142 -2.3496 0.8978
5.0058 -28.1539 -2.5018 0.8915
11.5686 -26.1509 -2.5018 0.8915
20.0556 -20.3832 -2.5018 0.8915
22.3563 -17.8297 -2.5018 0.8915
24.3339 -15.0187 -2.5018 0.8915
25.9601 -11.9907 -2.5018 0.8915
28.0691 -5.4612 -2.5018 0.8915
26.7829 4.5600 -2.3769 0.8967
11.3398 8.6153 -1.2460 0.9444
4.0176 8.5335 -0.8252 0.9628
1.8969 5.7286 -0.5279 0.9761
0.6891 8.6808 -0.7619 0.9656
-0.3568 8.6872 -0.7607 0.9657
-1.4132 8.6846 -0.7698 0.9653
-2.4975 8.6337 -0.7863 0.9646
-3.6517 8.5927 -0.8168 0.9632
-6.5286 8.7252 -0.9534 0.9572
-8.3477 8.7363 -1.0572 0.9526
-13.5860 8.6625 -1.4097 0.9374
-26.2898 5.5158 -2.3501 0.8978
-21.9339 1.9030 -1.9262 0.9154
-26.8405 -0.9055 -2.3496 0.8978
-23.0204 -16.9636 -2.5018 0.8915
-4.4330 -20.3846 -1.8251 0.9196
-1.5213 -16.1590 -1.4200 0.9369
0.6941 -26.2869 -2.3006 0.8998
7.5428 -27.5827 -2.5018 0.8915
10.7976 -26.4785 -2.5018 0.8915
16.7945 -23.1440 -2.5018 0.8915
18.7399 -7.9983 -2.5018 0.9212
20.1057 -3.3038 -2.5018 0.9212
20.3569 -0.8677 -2.5018 0.9212
20.3140 1.5809 -2.5018 0.9212
8.0235 2.6429 -1.0372 0.9665
13.5743 10.9546 -2.1418 0.9321
5.0038 8.5206 -1.2133 0.9610
2.5913 8.6691 -1.1110 0.9642
-1.6709 8.6594 -1.0829 0.9651
-2.7631 8.6000 -1.1091 0.9643
-3.9251 8.5328 -1.1532 0.9629
-6.9384 8.7277 -1.3690 0.9561
-8.8546 8.7395 -1.5276 0.9511
-11.3132 8.7546 -1.7564 0.9440
-18.2936 5.6145 -2.3496 0.9258
-18.8351 3.3791 -2.3496 0.9258
-20.2806 1.1623 -2.4942 0.9214
-20.3349 -1.2832 -2.5018 0.9212
-16.0418 -12.5625 -2.5018 0.9212
-14.4187 -14.3964 -2.5018 0.9212
-12.5613 -15.9892 -2.4966 0.9213
-9.9308 -16.3572 -2.3496 0.9258
-3.5169 -18.8098 -2.3496 0.9258
-1.2348 -19.0959 -2.3496 0.9258
3.5586 -20.0145 -2.4960 0.9213
8.2430 -18.6335 -2.5018 0.9212
10.4191 -17.5099 -2.5018 0.9212
12.4446 -16.1334 -2.5018 0.9212
19.3890 -6.2628 -2.5018 0.9212
20.0003 -3.8913 -2.5018 0.9212
20.3227 -1.4636 -2.5018 0.9212
20.3515 0.9852 -2.5018 0.9212
20.0863 3.4198 -2.5018 0.9212
8.2372 2.4483 -1.0551 0.9660
7.9145 3.4321 -1.0592 0.9658
15.1918 8.8897 -2.1612 0.9315
8.9008 8.6303 -1.5223 0.9513
6.9964 8.6420 -1.3653 0.9562
5.3525 8.5320 -1.2367 0.9602
3.9955 8.4865 -1.1517 0.9629
1.8968 5.7286 -0.7409 0.9760
1.7537 8.6742 -1.0866 0.9650
-1.4113 8.6730 -1.0789 0.9652
-3.6335 8.5500 -1.1407 0.9633
-10.6483 8.7505 -1.6923 0.9460
-13.5860 8.6625 -1.9784 0.9371
-18.7280 3.9293 -2.3496 0.9258
-20.3638 -0.6870 -2.5018 0.9212
-20.1343 -3.1253 -2.5018 0.9212
-17.7346 -10.0319 -2.5018 0.9212
-16.4029 -12.0872 -2.5018 0.9212
-13.0512 -15.6468 -2.5018 0.9212
-8.4037 -17.1917 -2.3496 0.9258
-1.5089 -16.0280 -1.9767 0.9372
0.5051 -19.1291 -2.3496 0.9258
5.3745 -19.6538 -2.5018 0.9212
13.6788 -7.8988 -2.5018 0.9380
15.1667 -4.4128 -2.5018 0.9380
15.5866 -2.5612 -2.5018 0.9380
15.7813 -0.6727 -2.5018 0.9380
15.7480 1.2256 -2.5018 0.9380
10.1998 2.0457 -1.6477 0.9587
7.0493 3.3055 -1.2332 0.9690
12.5787 7.8641 -2.3496 0.9417
8.3972 8.6334 -1.9075 0.9524
2.5913 8.6691 -1.4331 0.9640
-2.7395 8.5265 -1.4185 0.9644
-11.3069 8.7497 -2.2644 0.9437
-12.7366 7.6056 -2.3496 0.9417
-13.5571 6.0225 -2.3496 0.9417
-14.1818 4.3525 -2.3496 0.9417
-15.3849 2.7601 -2.4756 0.9387
-15.0734 -4.7215 -2.5018 0.9380
-14.3981 -6.4959 -2.5018 0.9380
-11.1779 -11.1605 -2.5018 0.9380
-9.7581 -12.4210 -2.5018 0.9380
-8.1974 -13.5020 -2.5018 0.9380
-4.6036 -14.6174 -2.4273 0.9398
-1.0072 -15.5766 -2.4722 0.9387
4.6110 -15.1076 -2.5018 0.9380
6.3903 -14.4453 -2.5018 0.9380
11.0783 -11.2593 -2.5018 0.9380
14.3399 -6.6234 -2.5018 0.9380
15.7771 0.7638 -2.5018 0.9380
7.5614 2.2474 -1.2494 0.9686
7.0444 3.0548 -1.2161 0.9694
12.8036 7.4923 -2.3496 0.9417
11.3158 8.5971 -2.2508 0.9441
8.9008 8.6303 -1.9636 0.9510
6.9964 8.6420 -1.7611 0.9560
5.2990 8.4467 -1.5793 0.9604
3.9582 8.4074 -1.4718 0.9631
0.6891 8.6808 -1.3792 0.9653
-1.4095 8.6615 -1.3899 0.9651
-8.3477 8.7363 -1.9138 0.9522
-10.6483 8.7505 -2.1829 0.9457
-13.3749 6.4171 -2.3496 0.9417
-14.0482 4.7660 -2.3496 0.9417
-14.5185 3.0462 -2.3496 0.9417
-15.6087 -2.4228 -2.5018 0.9380
-15.2053 -4.2780 -2.5018 0.9380
-14.5822 -6.0714 -2.5018 0.9380
-13.7484 -7.7771 -2.5018 0.9380
-6.9369 -14.1909 -2.5018 0.9380
-3.2239 -14.8245 -2.4029 0.9404
-1.4485 -15.3860 -2.4477 0.9393
0.4170 -15.7901 -2.5018 0.9380
2.3084 -15.6260 -2.5018 0.9380
11.8374 -5.0523 -2.5018 0.9489
12.7002 -2.0869 -2.5018 0.9489
12.8318 0.9986 -2.5018 0.9489
10.0235 2.0103 -1.9872 0.9592
6.8581 2.2590 -1.4035 0.9710
9.4065 7.5912 -2.3496 0.9519
3.5684 8.1938 -1.7372 0.9642
-0.4178 5.9303 -1.1556 0.9761
-1.6622 8.6146 -1.7054 0.9649
-2.7160 8.4534 -1.7259 0.9645
-3.8370 8.3413 -1.7847 0.9633
-11.0466 4.9073 -2.3496 0.9519
-11.7678 3.6116 -2.3927 0.9511
-12.6550 -2.3458 -2.5018 0.9489
-12.2821 -3.8472 -2.5018 0.9489
-11.7318 -5.2929 -2.5018 0.9489
-11.0120 -6.6623 -2.5018 0.9489
-10.1332 -7.9354 -2.5018 0.9489
-9.1079 -9.0938 -2.5018 0.9489
-3.8662 -12.2761 -2.5018 0.9489
-0.8305 -12.8437 -2.5018 0.9489
0.7165 -12.8506 -2.5018 0.9489
2.2531 -12.6718 -2.5018 0.9489
3.7571 -12.3100 -2.5018 0.9489
10.0623 -8.0250 -2.5018 0.9489
10.9525 -6.7598 -2.5018 0.9489
11.6844 -5.3969 -2.5018 0.9489
12.2475 -3.9560 -2.5018 0.9489
12.6336 -2.4580 -2.5018 0.9489
12.6880 2.1602 -2.5018 0.9489
7.1622 2.1288 -1.4524 0.9700
6.5300 2.8317 -1.3835 0.9714
10.4326 6.1048 -2.3496 0.9519
8.6780 8.4143 -2.3496 0.9519
6.9964 8.6420 -2.1613 0.9557
1.7537 8.6742 -1.7202 0.9646
-0.3568 8.6872 -1.6900 0.9652
-2.4499 8.4693 -1.7138 0.9647
-3.5699 8.4002 -1.7742 0.9635
-4.6610 8.1009 -1.8167 0.9626
-8.3506 8.7394 -2.3496 0.9519
-12.8224 1.1125 -2.5018 0.9489
-12.8632 -0.4340 -2.5018 0.9489
-11.2025 -6.3369 -2.5018 0.9489
-9.3704 -8.8231 -2.5018 0.9489
-8.2441 -9.8836 -2.5018 0.9489
-5.6523 -11.5630 -2.5018 0.9489
-2.7350 -12.5766 -2.5018 0.9489
4.8599 -11.9177 -2.5018 0.9489
7.5591 -10.4169 -2.5018 0.9489
9.9666 -4.2538 -2.5018 0.9565
10.4049 -3.0273 -2.5018 0.9565
10.8266 -0.4615 -2.5018 0.9565
10.8037 0.8408 -2.5018 0.9565
10.0898 2.0236 -2.3758 0.9586
6.6195 2.1804 -1.6090 0.9718
6.4398 3.0197 -1.6421 0.9712
7.9199 6.3914 -2.3496 0.9591
7.0958 7.2955 -2.3496 0.9591
5.1536 8.7758 -2.3496 0.9591
1.4910 8.6759 -2.0323 0.9645
0.4338 8.6824 -2.0070 0.9649
-1.6622 8.6146 -2.0255 0.9646
-2.7056 8.4211 -2.0420 0.9643
-5.3317 8.6688 -2.3496 0.9591
-6.3332 7.9664 -2.3496 0.9591
-7.2433 7.1491 -2.3496 0.9591
-8.0487 6.2284 -2.3496 0.9591
-10.6661 1.9135 -2.5018 0.9565
-10.8187 0.6200 -2.5018 0.9565
-10.6549 -1.9751 -2.5018 0.9565
-10.3410 -3.2391 -2.5018 0.9565
-9.2716 -5.6093 -2.5018 0.9565
-7.6684 -7.6566 -2.5018 0.9565
-6.6944 -8.5213 -2.5018 0.9565
-4.4717 -9.8707 -2.5018 0.9565
-3.2552 -10.3359 -2.5018 0.9565
5.5413 -9.3125 -2.5018 0.9565
7.6002 -7.7243 -2.5018 0.9565
9.2215 -5.6914 -2.5018 0.9565
9.8377 -4.5439 -2.5018 0.9565
10.6369 -2.0696 -2.5018 0.9565
10.8084 -0.7784 -2.5018 0.9565
10.6827 1.8188 -2.5018 0.9565
7.3065 7.0845 -2.3496 0.9591
6.4037 7.9099 -2.3496 0.9591
5.4084 8.6211 -2.3496 0.9591
4.3350 9.2077 -2.3496 0.9591
0.6891 8.6808 -2.0104 0.9649
-1.4095 8.6615 -2.0260 0.9646
-2.4497 8.4686 -2.0353 0.9645
-5.0045 8.6978 -2.3167 0.9596
-6.0972 8.1486 -2.3496 0.9591
-7.8628 6.4614 -2.3496 0.9591
-9.1757 4.4024 -2.3496 0.9591
-10.2570 3.4798 -2.5006 0.9565
-10.6055 2.2251 -2.5018 0.9565
-10.7958 0.9366 -2.5018 0.9565
-10.0039 -4.1652 -2.5018 0.9565
-8.7237 -6.4284 -2.5018 0.9565
-7.8894 -7.4287 -2.5018 0.9565
-6.9411 -8.3216 -2.5018 0.9565
-3.5565 -10.2361 -2.5018 0.9565
-1.0157 -10.7887 -2.5018 0.9565
0.2861 -10.8326 -2.5018 0.9565
6.3644 -8.7705 -2.5018 0.9565
8.5873 -3.6651 -2.5018 0.9621
9.3283 -0.3976 -2.5018 0.9621
6.5985 2.1735 -1.8615 0.9716
6.4016 3.0018 -1.8945 0.9711
7.4353 4.6484 -2.3496 0.9643
6.8238 5.5069 -2.3496 0.9643
4.4404 7.5613 -2.3496 0.9643
2.5113 8.4015 -2.3496 0.9643
1.4852 8.6421 -2.3496 0.9643
0.4376 8.7578 -2.3496 0.9643
-1.6613 8.6099 -2.3496 0.9643
-2.6823 8.3484 -2.3496 0.9643
-3.6645 7.9663 -2.3496 0.9643
-4.5939 7.4691 -2.3496 0.9643
-6.9349 5.3664 -2.3496 0.9643
-8.5254 3.7873 -2.4996 0.9621
-8.9259 2.7394 -2.5018 0.9621
-9.1900 1.6487 -2.5018 0.9621
-9.1804 -1.7017 -2.5018 0.9621
-8.9099 -2.7909 -2.5018 0.9621
-8.5107 -3.8397 -2.5018 0.9621
-7.3510 -5.7566 -2.5018 0.9621
-5.7680 -7.3420 -2.5018 0.9621
-3.8529 -8.5047 -2.5018 0.9621
0.5197 -9.3223 -2.5018 0.9621
2.7256 -8.9301 -2.5018 0.9621
3.7773 -8.5386 -2.5018 0.9621
7.2996 -5.8216 -2.5018 0.9621
7.9453 -4.9038 -2.5018 0.9621
8.8848 -2.8699 -2.5018 0.9621
9.3127 -0.6707 -2.5018 0.9621
9.3258 0.4515 -2.5018 0.9621
9.2043 1.5671 -2.5018 0.9621
6.8821 2.0455 -1.9238 0.9707
7.7804 4.5528 -2.4154 0.9634
6.9822 5.3047 -2.3496 0.9643
5.5175 6.8153 -2.3496 0.9643
4.6600 7.4280 -2.3496 0.9643
0.6939 8.7413 -2.3496 0.9643
-1.4084 8.6549 -2.3496 0.9643
-2.4366 8.4234 -2.3496 0.9643
-3.4296 8.0702 -2.3496 0.9643
-4.3731 7.6005 -2.3496 0.9643
-6.7747 5.5673 -2.3496 0.9643
-8.3980 4.0292 -2.4958 0.9622
-8.8418 2.9997 -2.5018 0.9621
-9.1378 1.9172 -2.5018 0.9621
-9.3315 -0.3148 -2.5018 0.9621
-6.7976 -6.4006 -2.5018 0.9621
-5.9806 -7.1700 -2.5018 0.9621
-3.0644 -8.8196 -2.5018 0.9621
-1.9841 -9.1235 -2.5018 0.9621
-0.8751 -9.2957 -2.5018 0.9621
0.2465 -9.3335 -2.5018 0.9621
1.3645 -9.2365 -2.5018 0.9621
3.5256 -8.6456 -2.5018 0.9621
4.5374 -8.1601 -2.5018 0.9621
